<?xml version="1.0" encoding="UTF-8"?>
<svg xmlns="http://www.w3.org/2000/svg" viewBox="0 0 192 192"><path d="M42.433 155.224a57.629 57.629 0 0 1-2.929-2.728 57.104 57.104 0 0 1-2.72-2.937L24 162.343V152h-8v24h24v-8H29.657l12.776-12.776zM122 88c-5.395 0-9.891 4.718-12.239 12h8.581c1.209-2.576 2.638-4 3.658-4 2.115 0 6 6.074 6 16s-3.885 16-6 16c-1.02 0-2.449-1.424-3.658-4h-8.581c2.349 7.282 6.844 12 12.239 12 7.981 0 14-10.317 14-24s-6.019-24-14-24zM154.657 93.171L149 98.829l9.172 9.171H143.82a44.472 44.472 0 0 1 0 8h14.351L149 125.171l5.657 5.657L173.485 112l-18.828-18.829zM80 56c-13.682 0-24 6.019-24 14 0 5.395 4.719 9.89 12 12.239v-8.581c-2.576-1.209-4-2.638-4-3.658 0-2.115 6.075-6 16-6 9.926 0 16 3.885 16 6 0 1.02-1.424 2.449-4 3.658v8.581c7.282-2.349 12-6.844 12-12.239 0-7.981-10.317-14-24-14zM76 33.644V48.18a44.472 44.472 0 0 1 8 0V33.644l9.171 9.172 5.657-5.657L80 18.33 61.171 37.159l5.657 5.657L76 33.644zM70.22 138.75l-5.957 5.957c.97 2.258 1.166 3.876.901 4.456-1.258.573-7.324-.96-14.346-7.981-7.022-7.022-8.555-13.093-7.982-14.347.579-.268 2.198-.072 4.458.9l5.944-5.944c-6.145-3.42-12.304-4.383-16.066-.622-1.626 1.626-3.923 5.434-1.036 12.663 1.706 4.272 4.911 8.892 9.026 13.006 5.945 5.944 13.475 10.407 19.417 10.407 2.417 0 4.572-.738 6.25-2.416 1.626-1.626 3.923-5.434 1.036-12.663a29.63 29.63 0 0 0-1.645-3.416z" fill="rgba(0,0,0,1)"/><path d="M119.772 108H93.246C94.754 102.539 96 96 96 96s-6.684 1.519-12 2.9V72.228c-1.254-.142-2.583-.228-4-.228s-2.746.086-4 .228v29.264c-4.541 2.082-8 5.327-8 10.508 0 1.851.431 3.597 1.18 5.163l-15.369 15.37a33.244 33.244 0 0 0 2.664 2.992 33.244 33.244 0 0 0 2.992 2.664l5.096-5.096 7.487-7.487v.001l2.787-2.787A11.94 11.94 0 0 0 80 124c5.163 0 8.186-3.507 10.342-8h29.43c.142-1.254.228-2.583.228-4s-.086-2.746-.228-4zM80 116a4 4 0 1 1 0-8 4 4 0 0 1 0 8z" fill="rgba(0,0,0,1)"/></svg>
