<?xml version="1.0" encoding="UTF-8"?>
<svg xmlns="http://www.w3.org/2000/svg" viewBox="0 0 192 192"><path d="M16 44v104h160V44H16zm20 96c0-13.2 10.8-24 24-24s24 10.8 24 24H36zm24-36c-6.6 0-12-5.4-12-12s5.4-12 12-12 12 5.4 12 12-5.4 12-12 12zm108 36H92c0-14.3-9.4-26.4-22.3-30.5C75.8 106.1 80 99.5 80 92c0-11-9-20-20-20s-20 9-20 20c0 7.5 4.2 14.1 10.3 17.5C37.4 113.6 28 125.7 28 140h-4V52h144v88z" fill="rgba(0,0,0,1)"/><path d="M96 72h64v8H96zM96 92h64v8H96zM96 112h48v8H96z" fill="rgba(0,0,0,1)"/></svg>
