<?xml version="1.0" encoding="UTF-8"?>
<svg xmlns="http://www.w3.org/2000/svg" viewBox="0 0 192 192"><path d="M104 102.9c15.4 0 28 13.1 28 29.1h8c0-15.5-9.3-28.8-22.5-34.4 6.8-4.4 11.3-12.1 11.3-20.8 0-13.7-11.1-24.8-24.8-24.8S79.2 63.1 79.2 76.8c0 8.7 4.5 16.4 11.3 20.8C77.3 103.2 68 116.5 68 132h8c0-16 12.6-29.1 28-29.1zm0-42.9c9.3 0 16.8 7.6 16.8 16.8 0 9.3-7.6 16.8-16.8 16.8S87.2 86 87.2 76.8c0-9.2 7.5-16.8 16.8-16.8z" fill="rgba(0,0,0,1)"/><path d="M48 16v16H32v8h16v32H32v8h16v32H32v8h16v32H32v8h16v16h112V16H48zm104 152H56V24h96v144z" fill="rgba(0,0,0,1)"/></svg>
