<?xml version="1.0" encoding="UTF-8"?>
<svg xmlns="http://www.w3.org/2000/svg" viewBox="0 0 192 192"><path d="M156 72.1h-17.1l8.6-15-7-4-10.8 19h-26.8l13.4-23.2 21.9.1v-8l-17.3-.1 8.6-14.8-7-4-8.5 14.8-8.7-14.9-6.9 4 11 18.9L96 68.1 82.6 44.9l11-18.9-6.9-4L78 36.9l-8.5-14.8-7 4 8.6 14.8-17.3.1v8l21.9-.1 13.4 23.2H62.3l-10.8-19-7 4 8.6 15H36v8h17.1l-8.6 15 7 4 10.8-19h26.8l-13.4 23.1-21.9-.1v8l17.3.1-8.6 14.8 7 4 8.5-14.8 8.7 15 6.9-4.1-11-18.9L96 84.1l13.4 23.1-11 18.9 6.9 4.1 8.7-15 8.5 14.8 7-4-8.6-14.8 17.3-.1v-8l-21.9.1-13.4-23.1h26.8l10.8 19 7-4-8.6-15H156zM132 176c-16.9 0-27.5-5.3-37.8-10.4C84.3 160.7 75 156 60 156c-22 0-37 14.7-37.2 14.8l-5.7-5.7c.8-.6 17.5-17.1 42.9-17.1 16.9 0 27.5 5.3 37.8 10.4 9.9 4.9 19.2 9.6 34.2 9.6 22 0 37-14.7 37.2-14.8l5.7 5.7c-.8.6-17.5 17.1-42.9 17.1z" fill="rgba(0,0,0,1)"/></svg>
