<?xml version="1.0" encoding="UTF-8"?>
<svg xmlns="http://www.w3.org/2000/svg" viewBox="0 0 192 192"><path d="M144.9 34.3l-.5-2.7-2.7-.5c-.5-.1-12.7-2.3-28.4-1.2-21.1 1.5-38.4 8.6-50.2 20.3-21.8 21.8-7.7 50.2-2.3 59.3l-15.7 15.7 5.7 5.7 15.7-15.7c5.4 3.2 17.6 9.5 31.2 9.5 9.3 0 19.2-2.9 28.1-11.8 11.7-11.7 18.7-29.1 20.3-50.2 1.2-15.7-1.1-27.9-1.2-28.4zm-6.8 28c-1.8 24.1-10.8 37.7-17.9 44.9-8.8 8.8-20.1 11.5-33.4 8-5.9-1.6-11-4-14.4-5.9l44.4-44.4-5.7-5.7-44.4 44.4c-1.9-3.3-4.4-8.4-5.9-14.4-3.5-13.4-.8-24.6 8-33.4 13-13 31.6-17 44.9-17.9 10.5-.8 19.4.1 23.8.6.6 4.3 1.4 13.3.6 23.8zM132 176c-16.9 0-27.5-5.3-37.8-10.4C84.3 160.7 75 156 60 156c-22 0-37 14.7-37.2 14.8l-5.7-5.7c.8-.6 17.5-17.1 42.9-17.1 16.9 0 27.5 5.3 37.8 10.4 9.9 4.9 19.2 9.6 34.2 9.6 22 0 37-14.7 37.2-14.8l5.7 5.7c-.8.6-17.5 17.1-42.9 17.1z" fill="rgba(0,0,0,1)"/></svg>
