<?xml version="1.0" encoding="UTF-8"?>
<svg xmlns="http://www.w3.org/2000/svg" viewBox="0 0 192 192"><path d="M124 28h-8v-4H76v4h-8V16h56zM68 36h8v8h-8zM68 68h8v8h-8zM68 84h8v8h-8zM68 100h8v8h-8zM68 116h8v8h-8zM68 132h8v8h-8zM68 148h8v8h-8zM116 36h8v8h-8zM116 68h8v8h-8zM116 84h8v8h-8zM116 100h8v8h-8zM116 116h8v8h-8zM116 132h8v8h-8zM116 148h8v8h-8zM68 52h8v8h-8zM116 52h8v8h-8zM124 176H68v-12h8v4h40v-4h8zM132 88v-8c22 0 37-14.7 37.2-14.8l5.7 5.7c-.8.6-17.5 17.1-42.9 17.1zM132 120v-8c22 0 37-14.7 37.2-14.8l5.7 5.7c-.8.6-17.5 17.1-42.9 17.1zM132 56v-8c22 0 37-14.7 37.2-14.8l5.7 5.7c-.8.6-17.5 17.1-42.9 17.1zM132 152v-8c22 0 37-14.7 37.2-14.8l5.7 5.7c-.8.6-17.5 17.1-42.9 17.1zM22.8 126.8l-5.7-5.7c.8-.6 17.5-17.1 42.9-17.1v8c-22 0-37 14.7-37.2 14.8zM22.8 94.8l-5.7-5.7C17.9 88.5 34.6 72 60 72v8c-22 0-37 14.7-37.2 14.8zM22.8 158.8l-5.7-5.7c.8-.6 17.5-17.1 42.9-17.1v8c-22 0-37 14.7-37.2 14.8zM22.8 62.8l-5.7-5.7C17.9 56.5 34.6 40 60 40v8c-22 0-37 14.7-37.2 14.8z" fill="rgba(0,0,0,1)"/><circle cx="56" cy="92" r="4" fill="rgba(0,0,0,1)"/><circle cx="56" cy="156" r="4" fill="rgba(0,0,0,1)"/><circle cx="48" cy="60" r="4" fill="rgba(0,0,0,1)"/><circle cx="48" cy="124" r="4" fill="rgba(0,0,0,1)"/><circle cx="32" cy="132" r="4" fill="rgba(0,0,0,1)"/><circle cx="40" cy="96" r="4" fill="rgba(0,0,0,1)"/><circle cx="32" cy="68" r="4" fill="rgba(0,0,0,1)"/><g><circle cx="24" cy="104" r="4" fill="rgba(0,0,0,1)"/></g><g><circle cx="24" cy="40" r="4" fill="rgba(0,0,0,1)"/></g><g><path d="M84 116h24v44H84z" fill="rgba(0,0,0,1)"/></g></svg>
