<?xml version="1.0" encoding="UTF-8"?>
<svg xmlns="http://www.w3.org/2000/svg" viewBox="0 0 192 192"><path d="M132 68c-17.1 0-27.8-6.4-38.1-12.6C84.1 49.6 74.9 44 60 44c-22 0-37 14.7-37.2 14.8l-5.7-5.7C17.9 52.5 34.6 36 60 36c17.1 0 27.8 6.4 38.1 12.6 9.8 5.9 19 11.4 33.9 11.4 22 0 37-14.7 37.2-14.8l5.7 5.7c-.8.6-17.5 17.1-42.9 17.1zM132 112c-17.1 0-27.8-6.4-38.1-12.6C84.1 93.6 74.9 88 60 88c-22 0-37 14.7-37.2 14.8l-5.7-5.7C17.9 96.5 34.6 80 60 80c17.1 0 27.8 6.4 38.1 12.6 9.8 5.9 19 11.4 33.9 11.4 22 0 37-14.7 37.2-14.8l5.7 5.7c-.8.6-17.5 17.1-42.9 17.1zM132 156c-17.1 0-27.8-6.4-38.1-12.6-9.8-5.9-19-11.4-33.9-11.4-22 0-37 14.7-37.2 14.8l-5.7-5.7c.8-.6 17.5-17.1 42.9-17.1 17.1 0 27.8 6.4 38.1 12.6 9.8 5.9 19 11.4 33.9 11.4 22 0 37-14.7 37.2-14.8l5.7 5.7c-.8.6-17.5 17.1-42.9 17.1z" fill="rgba(0,0,0,1)"/></svg>
