<?xml version="1.0" encoding="UTF-8"?>
<svg xmlns="http://www.w3.org/2000/svg" viewBox="0 0 192 192"><path d="M100 52h-8v56h44v-8h-36z" fill="rgba(0,0,0,1)"/><path d="M145.7 52l8.3-8.3 11.2 11.2 5.7-5.7-28-28-5.7 5.7L148.3 38l-8.7 8.7C127.5 37.5 112.4 32 96 32s-31.5 5.5-43.6 14.7L43.7 38l11.2-11.2-5.7-5.7-28 28 5.7 5.7L38 43.7l8.3 8.3C32.6 65.1 24 83.6 24 104c0 39.7 32.3 72 72 72s72-32.3 72-72c0-20.4-8.6-38.9-22.3-52zM96 168c-35.3 0-64-28.7-64-64s28.7-64 64-64 64 28.7 64 64-28.7 64-64 64z" fill="rgba(0,0,0,1)"/><path d="M84 16h24v8H84z" fill="rgba(0,0,0,1)"/></svg>
