<?xml version="1.0" encoding="UTF-8"?>
<svg xmlns="http://www.w3.org/2000/svg" viewBox="0 0 192 192"><path d="M116 84c0-6.6-5.4-12-12-12s-12 5.4-12 12 5.4 12 12 12 12-5.4 12-12zm-16 0c0-2.2 1.8-4 4-4s4 1.8 4 4-1.8 4-4 4-4-1.8-4-4zM55.2 50.4C47.9 60.2 44 71.8 44 84s3.9 23.8 11.2 33.6l-6.4 4.8C40.4 111.3 36 98 36 84s4.4-27.3 12.8-38.4l6.4 4.8zM24 84c0 18.3 6.7 35.8 19 49.3l-5.9 5.4c-13.6-15-21-34.4-21-54.7s7.5-39.7 21-54.7l5.9 5.4C30.7 48.2 24 65.7 24 84zm152-4c0-7-3.4-12-8-12s-8 5-8 12c0 4.2 1.2 7.6 3.2 9.8-3.3 19.7-16.5 36.4-35.2 44.5v-8.7c14.3-8.3 24-23.8 24-41.5 0-26.5-21.5-48-48-48S56 57.5 56 84c0 17.7 9.7 33.2 24 41.5V160h48v-17.2c22.9-8.5 39.1-28.3 43.1-51.7 2.9-1.6 4.9-5.8 4.9-11.1zM64 84c0-22.1 17.9-40 40-40s40 17.9 40 40-17.9 40-40 40-40-17.9-40-40zm24 68v-22.8c5 1.8 10.4 2.8 16 2.8s11-1 16-2.8V152H88z" fill="rgba(0,0,0,1)"/></svg>
