<?xml version="1.0" encoding="UTF-8"?>
<svg xmlns="http://www.w3.org/2000/svg" viewBox="0 0 192 192"><path d="M103.1 128.9c0 3.9-3.2 7.1-7.1 7.1-4 0-7.1-3.1-7.1-7.1 0-4 3.1-7.1 7.1-7.1 3.9 0 7.1 3.2 7.1 7.1zm-12.2-48V56h10.2v24.9l-2.7 30.7h-4.9l-2.6-30.7zm67.9 57.9l-5.7-5.7-13.1 13.2-5.2-5.2-5.7 5.7 10.8 10.8 18.9-18.8zM144 176c-17.6 0-32-14.4-32-32s14.4-32 32-32 32 14.4 32 32-14.4 32-32 32zm0-56c-13.2 0-24 10.8-24 24s10.8 24 24 24 24-10.8 24-24-10.8-24-24-24zm-32 48H65.7L24 126.3V65.7L65.7 24h60.7L168 65.7V112c3 2.3 5.7 5 8 8V62.3L129.7 16H62.3L16 62.3v67.3L62.3 176H120c-3-2.3-5.7-5-8-8z" fill="rgba(0,0,0,1)"/></svg>
