<?xml version="1.0" encoding="UTF-8"?>
<svg xmlns="http://www.w3.org/2000/svg" viewBox="0 0 192 192"><path d="M136 136h24v8h-24zM136 152h24v8h-24z" fill="rgba(0,0,0,1)"/><path d="M176 116h-16v-4h-24v4h-16v60h56v-60zm-48 52v-44h8v4h24v-4h8v44h-40z" fill="rgba(0,0,0,1)"/><path d="M136 152h24v8h-24zM103.1 136.9c0 3.9-3.2 7.1-7.1 7.1-4 0-7.1-3.1-7.1-7.1 0-4 3.1-7.1 7.1-7.1 3.9 0 7.1 3.2 7.1 7.1zm-12.2-48V64h10.2v24.9l-2.7 30.7h-4.9l-2.6-30.7z" fill="rgba(0,0,0,1)"/><g><path d="M112 152H29.8L96 32.3l39.7 71.7h9.1L96 15.7 16.2 160H112z" fill="rgba(0,0,0,1)"/></g></svg>
