<?xml version="1.0" encoding="UTF-8"?>
<svg xmlns="http://www.w3.org/2000/svg" viewBox="0 0 192 192"><path d="M72 108V96h12v-8H72V76h-8v12H52v8h12v12z" fill="rgba(0,0,0,1)"/><path d="M176 99.6l-3.3-16.5c-3.1-15.6-16.8-27-32.7-27.1H16v88h20.1c1 9 8.6 16 17.9 16s16.9-7 17.9-16h56.2c1 9 8.6 16 17.9 16s16.9-7 17.9-16H176V99.6zm-11.1-14.9l3.1 15.7v3.6h-48V64h19.6c12.2 0 22.9 8.7 25.3 20.7zM54 152c-5.5 0-10-4.5-10-10s4.5-10 10-10 10 4.5 10 10-4.5 10-10 10zm0-28c-7.8 0-14.5 5-16.9 12H24V64h88v72H70.9c-2.4-7-9.1-12-16.9-12zm92 28c-5.5 0-10-4.5-10-10s4.5-10 10-10 10 4.5 10 10-4.5 10-10 10zm16.9-16c-2.5-7-9.1-12-16.9-12s-14.5 5-16.9 12H120v-24h48v24h-5.1z" fill="rgba(0,0,0,1)"/></svg>
