<?xml version="1.0" encoding="UTF-8"?>
<svg xmlns="http://www.w3.org/2000/svg" viewBox="0 0 192 192"><path d="M176 136V32H16v104h64v16H64v8h64v-8h-16v-16h64zM24 40h144v88H24V40zm80 112H88v-16h16v16z" fill="rgba(0,0,0,1)"/><path d="M115.8 70.7c-.5-1.6-2.1-2.7-3.8-2.7s-3.3 1.1-3.8 2.7L104 83.4l-8.2-24.6c-.5-1.7-2.1-2.8-3.8-2.8s-3.3 1.1-3.8 2.7L76 95.4l-4.2-12.6c-.5-1.7-2.1-2.8-3.8-2.8H56v8h9.1l7.1 21.3c.5 1.6 2.1 2.7 3.8 2.7s3.3-1.1 3.8-2.7L92 72.6l8.2 24.6c.5 1.6 2.1 2.7 3.8 2.7s3.3-1.1 3.8-2.7l4.2-12.6.2.6c.5 1.6 2.1 2.7 3.8 2.7h20v-8h-17.1l-3.1-9.2z" fill="rgba(0,0,0,1)"/></svg>
