<?xml version="1.0" encoding="UTF-8"?>
<svg xmlns="http://www.w3.org/2000/svg" viewBox="0 0 192 192"><path d="M100 76h-8v8h8c4.4 0 8 3.6 8 8v52c0 4.4-3.6 8-8 8H32c-4.4 0-8-3.6-8-8V92c0-4.4 3.6-8 8-8h36v-8H32c-8.8 0-16 7.2-16 16v52c0 8.8 7.2 16 16 16h68c8.8 0 16-7.2 16-16V92c0-8.8-7.2-16-16-16z" fill="rgba(0,0,0,1)"/><path d="M160 32H92c-8.8 0-16 7.2-16 16v52c0 8.8 7.2 16 16 16h8v-8h-8c-4.4 0-8-3.6-8-8V48c0-4.4 3.6-8 8-8h68c4.4 0 8 3.6 8 8v52c0 4.4-3.6 8-8 8h-36v8h36c8.8 0 16-7.2 16-16V48c0-8.8-7.2-16-16-16z" fill="rgba(0,0,0,1)"/></svg>
