<?xml version="1.0" encoding="UTF-8"?>
<svg xmlns="http://www.w3.org/2000/svg" viewBox="0 0 192 192"><path d="M128 16H64c-15.4 0-28 12.6-28 28v104c0 15.4 12.6 28 28 28h64c15.4 0 28-12.6 28-28V44c0-15.4-12.6-28-28-28zm20 132c0 11-9 20-20 20H64c-11 0-20-9-20-20V44c0-11 9-20 20-20h64c11 0 20 9 20 20v104z" fill="rgba(0,0,0,1)"/><path d="M131.3 102.5l-19-14.6c-.3-.2-.7-.5-1-.7-.1-.1-.2-.1-.3-.2-.2-.1-.5-.3-.7-.4-.1-.1-.2-.1-.4-.2s-.5-.2-.7-.3c-.1 0-.2-.1-.4-.1-.2-.1-.5-.2-.7-.2-.1 0-.3-.1-.4-.1-.2-.1-.5-.1-.7-.1s-.5-.1-.7-.1v-.1c.1-.1.1-.3.2-.4.5-1.5.7-3.1.6-4.6 0-.2 0-.3-.1-.5 0-.2 0-.4-.1-.6 0-.3-.1-.5-.2-.8 0-.1-.1-.2-.1-.4-.1-.3-.2-.5-.3-.8 0-.1-.1-.2-.1-.3-.1-.3-.2-.5-.4-.8 0-.1-.1-.2-.1-.3-.1-.3-.3-.5-.4-.8-.1-.1-.1-.2-.2-.3-.2-.3-.4-.7-.7-1-.3-.3-.5-.6-.8-.9-4.1-4.3-10.9-4.9-15.7-1.3-.1.1-.2.1-.3.2L68.7 86.6c-2.5 2-4.1 4.8-4.5 8s.5 6.3 2.5 8.8c.2.2.4.4.5.6-6.2.4-11.2 5.6-11.2 12 0 6.6 5.4 12 12 12h24c6.6 0 12-5.4 12-12 0-1.8-.4-3.5-1.1-5.1l13.9 10.6c2.2 1.7 4.7 2.5 7.3 2.5 3.6 0 7.2-1.6 9.5-4.7 4-5.2 3-12.8-2.3-16.8zm-23.2-2.7c-.7.8-1.6 1.4-2.7 1.5s-2.1-.1-3-.8l-.6-.6s0-.1-.1-.1c-.1-.2-.3-.4-.4-.5-.5-.9-.6-2-.4-3 .1-.2.1-.4.2-.6v-.1c.1-.2.3-.5.4-.7l.6-.6c.1-.1.2-.1.3-.2.1-.1.3-.2.4-.3.1-.1.2-.1.4-.2.1-.1.2-.1.4-.1s.3-.1.5-.1.3 0 .5-.1h.2c.4 0 .9.1 1.3.2h.1c.2.1.3.1.5.2.1.1.3.2.4.3.1 0 .1.1.2.1 1.8 1.5 2.2 4 .8 5.7zM91.9 83.7c-1.4-1.7-1.1-4.3.7-5.6.2-.2.4-.3.6-.4.1 0 .2-.1.2-.1.1-.1.3-.1.4-.2.1 0 .2-.1.3-.1.1 0 .3-.1.4-.1h.6c.2 0 .4 0 .5.1.1 0 .2 0 .3.1.2 0 .4.1.5.2.1 0 .2.1.3.1.2.1.3.2.5.3.1 0 .1.1.2.1l.6.6c.7.8.9 1.9.8 2.9-.1 1.1-.7 2-1.5 2.7-1.6 1.4-4.1 1.1-5.4-.6zM93 98c0 .3 0 .6.1.9.3 2 1 3.9 2.2 5.5-1-.3-2.1-.5-3.2-.5h-6.6L93 98zm-19.3-5.1l10-7.8c.4 1.3 1.1 2.5 1.9 3.6.9 1.1 1.9 2 3 2.7l-10 7.8c-.8.7-1.9.9-2.9.8-1.1-.1-2-.7-2.7-1.5-1.4-1.8-1.1-4.3.7-5.6zM64 116c0-2.2 1.8-4 4-4s4 1.8 4 4-1.8 4-4 4-4-1.8-4-4zm28 4H79.3c.4-1.3.7-2.6.7-4s-.3-2.7-.7-4H92c2.2 0 4 1.8 4 4s-1.8 4-4 4zm35.2-5.6c-1.3 1.8-3.9 2.1-5.6.7l-10.1-7.7c1.1-.7 2.1-1.6 3-2.8.9-1.1 1.5-2.3 1.9-3.6l10.1 7.7c.8.6 1.4 1.6 1.5 2.7.1 1.2-.2 2.2-.8 3z" fill="rgba(0,0,0,1)"/></svg>
