<?xml version="1.0" encoding="UTF-8"?>
<svg xmlns="http://www.w3.org/2000/svg" viewBox="0 0 192 192"><path d="M128 16H64c-15.4 0-28 12.6-28 28v104c0 15.4 12.6 28 28 28h64c15.4 0 28-12.6 28-28V44c0-15.4-12.6-28-28-28zm20 132c0 11-9 20-20 20H64c-11 0-20-9-20-20V44c0-11 9-20 20-20h64c11 0 20 9 20 20v104z" fill="rgba(0,0,0,1)"/><path d="M120.7 69.6l-7.3 7.3c-1.8-4.8-3.2-10.1-4.5-15.2C105 47.1 101 32 88 32h-4v4c0 14.3-6.3 25.4-13 37-7.4 12.9-15 26.3-15 45.1 0 24.3 16.8 41.9 40 41.9s40-17.6 40-41.9c0-15.8-6.5-34.6-12.6-44.2l-2.7-4.3zM80 132c0-8.5 1.9-20.5 10.5-32 2.6 5.4 6.5 10.3 10.4 15.1 5.7 7.2 11.1 13.9 11.1 20.9 0 7.9-8.1 16-16 16-7.7 0-16-6.3-16-20zm38.9 10.7c.7-2.2 1.1-4.4 1.1-6.7 0-9.8-6.6-18-12.9-25.9-5.1-6.4-10-12.4-11.2-18.8l-1.5-7.7-5.4 5.7c-14 14.8-17 31.4-17 42.7 0 4.3.7 8.1 1.8 11.4-6.2-6-9.8-14.8-9.8-25.3 0-16.7 6.8-28.6 14-41.1 6.1-10.7 12.5-21.8 13.8-35.7 4 3.1 6.4 11.2 9.4 22.4 2 7.5 4 15.2 7.2 22l2.4 5.1 8.3-8.3c4.7 9.4 8.9 23.8 8.9 35.5 0 10.2-3.4 18.8-9.1 24.7z" fill="rgba(0,0,0,1)"/></svg>
