<?xml version="1.0" encoding="UTF-8"?>
<svg xmlns="http://www.w3.org/2000/svg" viewBox="0 0 192 192"><path d="M128 16H64c-15.4 0-28 12.6-28 28v104c0 15.4 12.6 28 28 28h64c15.4 0 28-12.6 28-28V44c0-15.4-12.6-28-28-28zm20 132c0 11-9 20-20 20H64c-11 0-20-9-20-20V44c0-11 9-20 20-20h64c11 0 20 9 20 20v104z" fill="rgba(0,0,0,1)"/><path d="M132.8 79.8l-8.1 2.6 1.9-6.6-7.8-2.2-3.3 11.8-15.5 5.1V74.1l10.2-6.8-4.4-6.6-5.8 3.8V56h-8v8.5l-5.8-3.8-4.4 6.6L92 74.1v16.4l-15.5-5.1-3.3-11.8-7.8 2.2 1.9 6.6-8.1-2.6-2.4 7.6 8.1 2.7-5.5 4.3 5 6.2L74 93l15.5 5.1-9.6 13.2-12.3-.4-.2 8 6.9.2-5 7 6.4 4.6 5-6.9 2.4 6.6 7.6-2.8-4.3-11.6 9.6-13.2 9.6 13.2-4.3 11.5 7.6 2.8 2.3-6.5 5.1 6.9 6.4-4.6-5-7 7-.3-.4-8-12.2.5-9.6-13.2L118 93l9.6 7.6 5-6.2-5.5-4.3 8.1-2.7z" fill="rgba(0,0,0,1)"/></svg>
