<?xml version="1.0" encoding="UTF-8"?>
<svg xmlns="http://www.w3.org/2000/svg" viewBox="0 0 192 192"><path d="M128 16H64c-15.4 0-28 12.6-28 28v104c0 15.4 12.6 28 28 28h64c15.4 0 28-12.6 28-28V44c0-15.4-12.6-28-28-28zm20 132c0 11-9 20-20 20H64c-11 0-20-9-20-20V44c0-11 9-20 20-20h64c11 0 20 9 20 20v104z" fill="rgba(0,0,0,1)"/><path d="M129.9 137.5c-.8-.9-1.9-1.5-3.1-1.5s-2.3.5-3.1 1.5c-1.3 1.5-5.9 6.5-12.3 6.5s-11-5-12.3-6.5c-.8-.9-1.9-1.5-3.1-1.5s-2.3.5-3.1 1.5C91.6 139 87 144 80.6 144s-11-5-12.3-6.5c-.8-.9-1.9-1.5-3.1-1.5-1.2 0-2.3.5-3.1 1.5-3 3.6-8.5 6.5-10.1 6.5v8c3.8 0 9.2-2.9 13.1-6.3 3.3 3 8.6 6.3 15.5 6.3 6.8 0 12.1-3.3 15.4-6.3 3.3 2.9 8.6 6.3 15.4 6.3 6.9 0 12.1-3.4 15.5-6.3 4 3.4 9.3 6.3 13.1 6.3v-8c-1.6 0-7.2-3-10.1-6.5zM58.8 126.8L71 114.7c6.1 3.7 15.2 7.4 24.8 7.4 8 0 16.3-2.5 23.4-9.7 23-23 15.9-62.3 15.6-63.9l-.5-2.7-2.7-.5c-1.7-.3-41-7.4-63.9 15.6-15.7 15.7-9.2 36.9-2.3 48.2l-12.2 12.2 5.6 5.5zm14.5-60.3c16.7-16.7 45.1-14.9 54-13.8 1.1 8.9 3 37.2-13.8 54-6.9 6.9-15.7 9-26.1 6.3-4.2-1.1-7.9-2.8-10.5-4.2l35-35-5.7-5.7-35 35c-4-7.6-10.4-24.1 2.1-36.6z" fill="rgba(0,0,0,1)"/></svg>
