<?xml version="1.0" encoding="UTF-8"?>
<svg xmlns="http://www.w3.org/2000/svg" viewBox="0 0 192 192"><path d="M128 16H64c-15.4 0-28 12.6-28 28v104c0 15.4 12.6 28 28 28h64c15.4 0 28-12.6 28-28V44c0-15.4-12.6-28-28-28zm20 132c0 11-9 20-20 20H64c-11 0-20-9-20-20V44c0-11 9-20 20-20h64c11 0 20 9 20 20v104z" fill="rgba(0,0,0,1)"/><path d="M112 68H80c-15.4 0-28 12.6-28 28s12.6 28 28 28h32c15.4 0 28-12.6 28-28s-12.6-28-28-28zM60 96c0-11 9-20 20-20s20 9 20 20-9 20-20 20-20-9-20-20zm71.6 4H120c-2.2 0-4 1.8-4 4s1.8 4 4 4h8c-3.7 4.8-9.4 8-16 8H99.6c5.2-5.1 8.4-12.2 8.4-20 0-1.4-.1-2.7-.3-4h8.3c2.2 0 4-1.8 4-4s-1.8-4-4-4h-10.7c-1.4-3-3.4-5.7-5.7-8H112c11 0 20 9 20 20 0 1.4-.1 2.7-.4 4z" fill="rgba(0,0,0,1)"/><path d="M80 84c-3.4 0-6.7 1.5-8.9 4-1.5 1.6-1.3 4.2.3 5.6 1.6 1.5 4.2 1.3 5.6-.3.8-.9 1.8-1.3 3-1.3 2.2 0 4 1.8 4 4 0 1.2-.5 2.2-1.3 3-1.6 1.5-1.8 4-.3 5.6.8.9 1.9 1.3 3 1.3.9 0 1.9-.3 2.7-1 2.5-2.3 4-5.5 4-8.9-.1-6.6-5.5-12-12.1-12z" fill="rgba(0,0,0,1)"/></svg>
