<?xml version="1.0" encoding="UTF-8"?>
<svg xmlns="http://www.w3.org/2000/svg" viewBox="0 0 192 192"><path d="M128 16H64c-15.4 0-28 12.6-28 28v104c0 15.4 12.6 28 28 28h64c15.4 0 28-12.6 28-28V44c0-15.4-12.6-28-28-28zm20 132c0 11-9 20-20 20H64c-11 0-20-9-20-20V44c0-11 9-20 20-20h64c11 0 20 9 20 20v104z" fill="rgba(0,0,0,1)"/><path d="M96 72c-13.2 0-24 10.8-24 24s10.8 24 24 24 24-10.8 24-24-10.8-24-24-24zm0 40c-8.8 0-16-7.2-16-16s7.2-16 16-16 16 7.2 16 16-7.2 16-16 16zM92 52h8v12h-8zM92 128h8v12h-8zM128 92h12v8h-12zM52 92h12v8H52zM62.003 67.685l5.657-5.657 8.485 8.486-5.657 5.656zM115.852 121.485l5.656-5.657 8.486 8.485-5.657 5.657zM115.827 70.489l8.485-8.485 5.657 5.657-8.485 8.485zM62.028 124.338l8.485-8.486 5.657 5.657-8.486 8.485z" fill="rgba(0,0,0,1)"/></svg>
