<?xml version="1.0" encoding="UTF-8"?>
<svg xmlns="http://www.w3.org/2000/svg" viewBox="0 0 192 192"><path d="M164 16h-60c-6.6 0-12 5.4-12 12v48h8V28c0-2.2 1.8-4 4-4h60c2.2 0 4 1.8 4 4v136c0 2.2-1.8 4-4 4h-60c-2.2 0-4-1.8-4-4v-44h-8v44c0 6.6 5.4 12 12 12h60c6.6 0 12-5.4 12-12V28c0-6.6-5.4-12-12-12z" fill="rgba(0,0,0,1)"/><path d="M120 100H64c-4.4 0-8 3.6-8 8v56c0 2.2-1.8 4-4 4s-4-1.8-4-4v-64c0-4.4 3.6-8 8-8h64v-8H56c-8.8 0-16 7.2-16 16v64c0 6.6 5.4 12 12 12s12-5.4 12-12v-56h56v-8z" fill="rgba(0,0,0,1)"/><path d="M72 140h12v8H72zM16 140h16v8H16z" fill="rgba(0,0,0,1)"/></svg>
