<?xml version="1.0" encoding="UTF-8"?>
<svg xmlns="http://www.w3.org/2000/svg" viewBox="0 0 192 192"><path d="M112 72v10.3c-4.4-4-13.1-10.3-24-10.3-10.3 0-16.5 3.5-22 6.5-5.3 2.9-9.8 5.5-18 5.5-11.8 0-20.9-10.5-20.9-10.6L21 78.6c.4.5 11.4 13.4 27 13.4 10.3 0 16.5-3.5 22-6.5 5.3-2.9 9.8-5.5 18-5.5 8 0 14.8 4.9 18.3 8H96v8h24V72h-8zM88 44c-10.3 0-16.5 3.5-22 6.5-5.3 2.9-9.8 5.5-18 5.5-8 0-14.8-4.9-18.3-8H40v-8H16v24h8V53.7c4.4 4 13.1 10.3 24 10.3 10.3 0 16.5-3.5 22-6.5 5.3-2.9 9.8-5.5 18-5.5 11.8 0 20.9 10.5 20.9 10.6l6.1-5.2c-.4-.5-11.4-13.4-27-13.4z" fill="rgba(0,0,0,1)"/><path d="M152 16H92c-6.6 0-12 5.4-12 12v8.7c2.4-.4 5-.6 8-.7v-8c0-2.2 1.8-4 4-4h60c2.2 0 4 1.8 4 4v136c0 2.2-1.8 4-4 4H92c-2.2 0-4-1.8-4-4V88h-.2c-3.1 0-5.6.5-7.8 1.3V164c0 6.6 5.4 12 12 12h60c6.6 0 12-5.4 12-12V28c0-6.6-5.4-12-12-12z" fill="rgba(0,0,0,1)"/></svg>
