<?xml version="1.0" encoding="UTF-8"?>
<svg xmlns="http://www.w3.org/2000/svg" viewBox="0 0 192 192"><path d="M148 16H84c-15.4 0-28 12.6-28 28v104c0 1.4.1 2.7.3 4H44c-4 0-8-4-8-8v-20.5c6.9-1.8 12-8 12-15.5v-8h-4V88h-8v12h-8V88h-8v12h-4v8c0 7.5 5.1 13.7 12 15.5V144c0 8.4 7.6 16 16 16h14.7c4.5 9.5 14.1 16 25.3 16h64c15.4 0 28-12.6 28-28V44c0-15.4-12.6-28-28-28zm20 132c0 11-9 20-20 20H84c-11 0-20-9-20-20V44c0-11 9-20 20-20h64c11 0 20 9 20 20v104z" fill="rgba(0,0,0,1)"/><path d="M149.9 137.5c-.8-.9-1.9-1.5-3.1-1.5-1.2 0-2.3.5-3.1 1.5-1.3 1.5-5.9 6.5-12.3 6.5s-11-5-12.3-6.5c-.8-.9-1.9-1.5-3.1-1.5s-2.3.5-3.1 1.5c-1.3 1.5-5.9 6.5-12.3 6.5s-11-5-12.3-6.5c-.8-.9-1.9-1.5-3.1-1.5s-2.3.5-3.1 1.5c-3 3.6-8.5 6.5-10.1 6.5v8c3.8 0 9.2-2.9 13.1-6.3 3.3 3 8.6 6.3 15.5 6.3 6.8 0 12.1-3.3 15.4-6.3 3.3 2.9 8.6 6.3 15.4 6.3 6.9 0 12.1-3.4 15.5-6.3 4 3.4 9.3 6.3 13.1 6.3v-8c-1.6 0-7.2-3-10.1-6.5zM149.9 117.5c-.8-.9-1.9-1.5-3.1-1.5-1.2 0-2.3.5-3.1 1.5-1.3 1.5-5.9 6.5-12.3 6.5s-11-5-12.3-6.5c-.8-.9-1.9-1.5-3.1-1.5s-2.3.5-3.1 1.5c-1.3 1.5-5.9 6.5-12.3 6.5s-11-5-12.3-6.5c-.8-.9-1.9-1.5-3.1-1.5s-2.3.5-3.1 1.5c-3 3.6-8.5 6.5-10.1 6.5v8c3.8 0 9.2-2.9 13.1-6.3 3.3 3 8.6 6.3 15.5 6.3 6.8 0 12.1-3.3 15.4-6.3 3.3 2.9 8.6 6.3 15.4 6.3 6.9 0 12.1-3.4 15.5-6.3 4 3.4 9.3 6.3 13.1 6.3v-8c-1.6 0-7.2-3-10.1-6.5zM149.9 97.5c-.8-.9-1.9-1.5-3.1-1.5-1.2 0-2.3.5-3.1 1.5-1.3 1.5-5.9 6.5-12.3 6.5s-11-5-12.3-6.5c-.8-.9-1.9-1.5-3.1-1.5s-2.3.5-3.1 1.5c-1.3 1.5-5.9 6.5-12.3 6.5s-11-5-12.3-6.5c-.8-.9-1.9-1.5-3.1-1.5s-2.3.5-3.1 1.5c-3 3.6-8.5 6.5-10.1 6.5v8c3.8 0 9.2-2.9 13.1-6.3 3.3 3 8.6 6.3 15.5 6.3 6.8 0 12.1-3.3 15.4-6.3 3.3 2.9 8.6 6.3 15.4 6.3 6.9 0 12.1-3.4 15.5-6.3 4 3.4 9.3 6.3 13.1 6.3v-8c-1.6 0-7.2-3-10.1-6.5zM140 71.4c0 4.3-4.4 8.2-6.2 9.3L136 84l2.1 3.4c.4-.3 9.9-6.3 9.9-16 0-6.2-2.5-10.1-4.6-13.5-1.9-3-3.4-5.3-3.4-9.2 0-4.3 4.4-8.2 6.1-9.2l-4.3-6.8c-.4.3-9.9 6.3-9.9 16 0 6.2 2.5 10.1 4.6 13.5 2 2.9 3.5 5.3 3.5 9.2zM116 71.4c0 4.3-4.4 8.2-6.2 9.3L112 84l2.1 3.4c.4-.3 9.9-6.3 9.9-16 0-6.2-2.5-10.1-4.6-13.5-1.9-3-3.4-5.3-3.4-9.2 0-4.3 4.4-8.2 6.1-9.2l-4.3-6.8c-.4.3-9.9 6.3-9.9 16 0 6.2 2.5 10.1 4.6 13.5 2 2.9 3.5 5.3 3.5 9.2zM92 71.4c0 4.3-4.4 8.2-6.2 9.3L88 84l2.1 3.4c.4-.3 9.9-6.3 9.9-16 0-6.2-2.5-10.1-4.6-13.5-1.9-3-3.4-5.3-3.4-9.2 0-4.3 4.4-8.2 6.1-9.2l-4.3-6.8c-.4.3-9.9 6.3-9.9 16 0 6.2 2.5 10.1 4.6 13.5 2 2.9 3.5 5.3 3.5 9.2z" fill="rgba(0,0,0,1)"/></svg>
