<?xml version="1.0" encoding="UTF-8"?>
<svg xmlns="http://www.w3.org/2000/svg" viewBox="0 0 192 192"><path d="M128 16H64c-15.4 0-28 12.6-28 28v104c0 15.4 12.6 28 28 28h64c15.4 0 28-12.6 28-28V44c0-15.4-12.6-28-28-28zm20 132c0 11-9 20-20 20H64c-11 0-20-9-20-20V44c0-11 9-20 20-20h64c11 0 20 9 20 20v104z" fill="rgba(0,0,0,1)"/><path d="M96 56s-3.8 7.2-10 17.8c-5.8 9.9-14 22.7-14 35.6 0 14.7 10.7 26.7 24 26.7s24-11.9 24-26.7c0-12.8-8.2-25.7-14-35.6C99.8 63.2 96 56 96 56z" fill="rgba(0,0,0,1)"/></svg>
