<?xml version="1.0" encoding="UTF-8"?>
<svg xmlns="http://www.w3.org/2000/svg" viewBox="0 0 192 192"><path d="M48 100c-15.1 0-26-8.5-26.5-8.9l5-6.3c.1.1 9.3 7.2 21.5 7.2 8.5 0 13.4-1.8 18.6-3.7C72.2 86.2 78 84 88 84c15.1 0 26 8.5 26.5 8.9l-5 6.3c-.1-.1-9.3-7.1-21.5-7.1-8.5 0-13.4 1.8-18.6 3.7-5.6 2-11.4 4.2-21.4 4.2zM48 76c-15.1 0-26-8.5-26.5-8.9l5-6.3c.1.1 9.3 7.2 21.5 7.2 8.5 0 13.4-1.8 18.6-3.7C72.2 62.2 78 60 88 60c15.1 0 26 8.5 26.5 8.9l-5 6.3c-.1-.1-9.3-7.1-21.5-7.1-8.5 0-13.4 1.8-18.6 3.7C63.8 73.8 58 76 48 76zM48 52c-15.1 0-26-8.5-26.5-8.9l5-6.3c.1.1 9.3 7.2 21.5 7.2 8.5 0 13.4-1.8 18.6-3.7C72.2 38.2 78 36 88 36c15.1 0 26 8.5 26.5 8.9l-5 6.3c-.1-.1-9.3-7.1-21.5-7.1-8.5 0-13.4 1.8-18.6 3.7C63.8 49.8 58 52 48 52z" fill="rgba(0,0,0,1)"/><path d="M156 16H96c-6.6 0-12 5.4-12 12v.1c1 0 2-.1 3-.1 1.7 0 3.4.1 5 .2V28c0-2.2 1.8-4 4-4h60c2.2 0 4 1.8 4 4v136c0 2.2-1.8 4-4 4H96c-2.2 0-4-1.8-4-4v-63.7c-1.5-.2-3.1-.3-4.7-.3-1.1 0-2.2.1-3.3.2V164c0 6.6 5.4 12 12 12h60c6.6 0 12-5.4 12-12V28c0-6.6-5.4-12-12-12z" fill="rgba(0,0,0,1)"/></svg>
