<?xml version="1.0" encoding="UTF-8"?>
<svg xmlns="http://www.w3.org/2000/svg" viewBox="0 0 192 192"><path d="M128 16H64c-15.4 0-28 12.6-28 28v104c0 15.4 12.6 28 28 28h64c15.4 0 28-12.6 28-28V44c0-15.4-12.6-28-28-28zm20 132c0 11-9 20-20 20H64c-11 0-20-9-20-20V44c0-11 9-20 20-20h64c11 0 20 9 20 20v104z" fill="rgba(0,0,0,1)"/><path d="M73.8 86.8c-5.1 12.2.8 26.3 13 31.4 1.7.7 3.4 1.2 5.2 1.5v-8.2c-.7-.2-1.4-.4-2.1-.7-8.2-3.4-12-12.8-8.7-20.9 2-4.7 6-8.1 10.8-9.4v-8.2c-8.1 1.4-15 6.8-18.2 14.5zM75.523 135.067l4.592-11.087 7.391 3.062-4.592 11.087zM53.878 82.907l3.061-7.391 11.087 4.591-3.06 7.391zM75.512 56.885l7.391-3.061 4.592 11.087-7.392 3.06zM53.828 109.098l11.086-4.592 3.062 7.39-11.087 4.593zM135.3 86.2l-6.6-4.4-6.8 10.2h-15.4l10.2-20.4 12.2-1.5-1-7.9-6.9.8 2.6-5.2-7.2-3.6-2.5 5.1-3.4-6-7 3.9 6 10.8-9.5 19.1v17.8l9.5 19.1-6.1 10.6 6.9 4 3.5-6 2.6 5.2 7.2-3.6-2.6-5.1 6.9.9 1-7.9-12.2-1.6-10.2-20.5h15.4l6.8 10.2 6.6-4.4-3.8-5.8h8.5v-8h-8.5z" fill="rgba(0,0,0,1)"/></svg>
