<?xml version="1.0" encoding="UTF-8"?>
<svg xmlns="http://www.w3.org/2000/svg" viewBox="0 0 192 192"><path d="M148 16H84c-15.4 0-28 12.6-28 28v104c0 1.4.1 2.7.3 4H44c-4 0-8-4-8-8v-20.5c6.9-1.8 12-8 12-15.5v-8h-4V88h-8v12h-8V88h-8v12h-4v8c0 7.5 5.1 13.7 12 15.5V144c0 8.4 7.6 16 16 16h14.7c4.5 9.5 14.1 16 25.3 16h64c15.4 0 28-12.6 28-28V44c0-15.4-12.6-28-28-28zm20 132c0 11-9 20-20 20H84c-11 0-20-9-20-20V44c0-11 9-20 20-20h64c11 0 20 9 20 20v104z" fill="rgba(0,0,0,1)"/><path d="M154.3 57.7l-2.7-.5c-1.7-.3-41-7.4-63.9 15.6-15.7 15.7-9.2 36.9-2.3 48.2l-12.2 12.2 5.7 5.7L91 126.7c6.1 3.7 15.2 7.4 24.8 7.4 8 0 16.3-2.5 23.4-9.7 23-23 15.9-62.3 15.6-63.9l-.5-2.8zm-20.8 61c-6.9 6.9-15.7 9-26.1 6.3-4.2-1.1-7.9-2.8-10.5-4.2l35-35-5.7-5.7-35 35c-4.1-7.5-10.5-24.1 2.1-36.6 16.7-16.7 45.1-14.9 54-13.8 1.1 8.9 3 37.2-13.8 54z" fill="rgba(0,0,0,1)"/></svg>
