<?xml version="1.0" encoding="UTF-8"?>
<svg xmlns="http://www.w3.org/2000/svg" viewBox="0 0 192 192"><path d="M128 16H64c-15.4 0-28 12.6-28 28v104c0 15.4 12.6 28 28 28h64c15.4 0 28-12.6 28-28V44c0-15.4-12.6-28-28-28zm20 132c0 11-9 20-20 20H64c-11 0-20-9-20-20V44c0-11 9-20 20-20h64c11 0 20 9 20 20v104z" fill="rgba(0,0,0,1)"/><path d="M107.7 101.2c-.6-2.4-1.8-4.5-3.5-6.1 2.2-6.4 3.3-13 3.3-19.8 0-3.1-.3-6.5-1-10.4l-.5-2.7-2.7-.5c-4.8-.9-9.6-.9-14.4 0l-2.7.5-.5 2.7c-.6 3-1.2 6.6-1.2 10.4 0 6.8 1.1 13.5 3.2 19.9-1.7 1.6-2.9 3.7-3.4 6-9.8 2-19.1 6.4-26.9 13l-2.1 1.8.9 2.6c1.7 4.7 4.1 9.1 7.3 13l1.8 2.2 2.7-1c9.4-3.6 17.7-9.5 24.3-17.1 1.1.4 2.4.6 3.6.6s2.3-.2 3.4-.5c6.6 7.6 15 13.6 24.4 17.1l2.7 1 1.8-2.2c3.3-3.9 5.8-8.3 7.5-13.1l.9-2.6-2.1-1.8c-7.7-6.6-17-11-26.8-13zM92.4 75.3c0-2.1.2-4.2.5-6.1 2.1-.2 4.1-.2 6.1 0 .3 2.2.4 4.2.4 6.1 0 5.6-.9 11.2-2.7 16.5h-1.9c-1.5-5.2-2.4-10.8-2.4-16.5zM68 124.1c-1.2-1.8-2.3-3.6-3.2-5.6 6-4.6 13-7.7 20.3-9.3.3.6.5 1.1.9 1.6-5 5.6-11.2 10.2-18 13.3zm55.9.1c-6.9-3.1-13-7.6-18-13.3.4-.6.7-1.2 1-1.8 7.3 1.6 14.2 4.7 20.3 9.3-.9 2.1-2 4-3.3 5.8z" fill="rgba(0,0,0,1)"/></svg>
