<?xml version="1.0" encoding="UTF-8"?>
<svg xmlns="http://www.w3.org/2000/svg" viewBox="0 0 192 192"><path d="M112 156c-3.8 0-9.2-2.9-13.1-6.3-4.5 4.1-9.5 6.3-14.9 6.3-6.4 0-12.1-3-16-6.3-3.9 3.4-9.6 6.3-16 6.3-5.4 0-10.4-2.2-14.9-6.3-4 3.4-9.3 6.3-13.1 6.3v-8c1.6 0 7.2-3 10.1-6.5.8-.9 1.9-1.5 3.1-1.5 1.2 0 2.3.5 3.1 1.5 3.6 4.3 7.5 6.5 11.7 6.5 5.2 0 10.2-3.3 12.9-6.5.8-.9 1.9-1.5 3.1-1.5s2.3.5 3.1 1.5c2.7 3.3 7.7 6.5 12.9 6.5 4.2 0 8.1-2.2 11.7-6.5.8-.9 1.9-1.5 3.1-1.5s2.3.5 3.1 1.5c3 3.6 8.5 6.5 10.1 6.5v8zM112 136c-3.8 0-9.2-2.9-13.1-6.3-4.5 4.1-9.5 6.3-14.9 6.3-6.4 0-12.1-3-16-6.3-3.9 3.4-9.6 6.3-16 6.3-5.4 0-10.4-2.2-14.9-6.3-4 3.4-9.3 6.3-13.1 6.3v-8c1.6 0 7.2-3 10.1-6.5.8-.9 1.9-1.5 3.1-1.5 1.2 0 2.3.5 3.1 1.5 3.6 4.3 7.5 6.5 11.7 6.5 5.2 0 10.2-3.3 12.9-6.5.8-.9 1.9-1.5 3.1-1.5s2.3.5 3.1 1.5c2.7 3.3 7.7 6.5 12.9 6.5 4.2 0 8.1-2.2 11.7-6.5.8-.9 1.9-1.5 3.1-1.5s2.3.5 3.1 1.5c3 3.6 8.5 6.5 10.1 6.5v8zM112 116c-3.8 0-9.2-2.9-13.1-6.3-4.5 4.1-9.5 6.3-14.9 6.3-6.4 0-12.1-3-16-6.3-3.9 3.4-9.6 6.3-16 6.3-5.4 0-10.4-2.2-14.9-6.3-4 3.4-9.3 6.3-13.1 6.3v-8c1.6 0 7.2-3 10.1-6.5.8-.9 1.9-1.5 3.1-1.5 1.2 0 2.3.5 3.1 1.5 3.6 4.3 7.5 6.5 11.7 6.5 5.2 0 10.2-3.3 12.9-6.5.8-.9 1.9-1.5 3.1-1.5s2.3.5 3.1 1.5c2.7 3.3 7.7 6.5 12.9 6.5 4.2 0 8.1-2.2 11.7-6.5.8-.9 1.9-1.5 3.1-1.5s2.3.5 3.1 1.5c3 3.6 8.5 6.5 10.1 6.5v8z" fill="rgba(0,0,0,1)"/><path d="M156 16H96c-6.6 0-12 5.4-12 12v72c3.2 0 6.3-4.4 8-6.9V28c0-2.2 1.8-4 4-4h60c2.2 0 4 1.8 4 4v136c0 2.2-1.8 4-4 4H96c-2.2 0-4-1.8-4-4v-1.2c-2.6.8-5.3 1.2-8 1.2 0 6.6 5.4 12 12 12h60c6.6 0 12-5.4 12-12V28c0-6.6-5.4-12-12-12z" fill="rgba(0,0,0,1)"/></svg>
