<?xml version="1.0" encoding="UTF-8"?>
<svg xmlns="http://www.w3.org/2000/svg" viewBox="0 0 192 192"><path d="M22.8 174.8l-5.7-5.7 152-152 5.7 5.7-152 152zM176 96c0-17.1-5.5-33.8-15.6-47.4l-5.7 5.7C163.3 66.4 168 81 168 96c0 22.6-10.3 43.4-28 57v-25h-8v36h36v-8h-19.1c17.2-15.1 27.1-36.7 27.1-60zm-38.3-58.7C125.6 28.7 111 24 96 24v-8c17.1 0 33.8 5.5 47.4 15.6l-5.7 5.7zM24 96c0 15 4.7 29.6 13.3 41.7l-5.7 5.7C21.5 129.8 16 113.1 16 96c0-23.3 9.9-44.9 27.1-60H24v-8h36v36h-8V39C34.4 52.6 24 73.4 24 96zm30.3 58.7C66.4 163.3 81 168 96 168v8c-17.1 0-33.8-5.5-47.4-15.6l5.7-5.7z" fill="rgba(0,0,0,1)"/></svg>
