<?xml version="1.0" encoding="UTF-8"?>
<svg xmlns="http://www.w3.org/2000/svg" viewBox="0 0 192 192"><path d="M100 160h-8v-28c0-21.7 16.5-40 36-40v8c-14.9 0-28 15-28 32v28zM96 46.4l12.9 16.1 6.2-5L96 33.6 76.9 57.5l6.2 5L96 46.4zM158.4 96l-23.9-19.1-5 6.2L145.6 96l-16.1 12.9 5 6.2L158.4 96zm-95.9 12.9L46.4 96l16.1-12.9-5-6.2L33.6 96l23.9 19.1 5-6.2zM71.3 93c-.4-.1-.7-.2-1.1-.3.3.1.7.2 1.1.3zm4.6 1.6zm-2.1-.8zm22.1 5.8c1.3-1.5 2.7-3 4.1-4.3V60h-8v35.8c1.3 1.2 2.6 2.6 3.8 4 0 0 .1-.1.1-.2zM71.3 93c.3.1.6.2.9.2-.3-.1-.6-.1-.9-.2zm4.6 1.6c.6.3 1.2.5 1.8.8-.6-.3-1.2-.6-1.8-.8zm-7.7-2.3c.7.1 1.3.2 2 .4-.7-.1-1.3-.3-2-.4zm5.6 1.5c.3.1.5.2.8.3-.3-.2-.5-.3-.8-.3zm-7.6-1.7c-.7-.1-1.5-.1-2.2-.1.7 0 1.5 0 2.2.1zM78.9 96c-.3-.2-.6-.3-.9-.5-.1-.1-.3-.1-.4-.2-.6-.3-1.2-.6-1.8-.8-.4-.2-.9-.4-1.3-.5-.3-.1-.5-.2-.8-.3-.5-.2-1.1-.4-1.6-.5-.3-.1-.6-.2-.9-.2-.4-.1-.8-.2-1.1-.3-.7-.1-1.3-.3-2-.4-.5-.1-.9-.1-1.4-.2-.2 0-.4 0-.6-.1H64v8c10.3 0 18.6 7.7 23.1 15 1.1-2.9 2.4-5.7 3.9-8.3 0 0 0-.1.1-.1-3.7-4.8-7.9-8.2-12.2-10.6z" fill="rgba(0,0,0,1)"/></svg>
