<?xml version="1.0" encoding="UTF-8"?>
<svg xmlns="http://www.w3.org/2000/svg" viewBox="0 0 192 192"><path d="M176 96a80.09 80.09 0 0 0-80-80v8a72.08 72.08 0 0 1 72 72c0 21.75-9.9 41-28 54.68V128h-8v36h36v-8h-21.8c19.28-15.15 29.8-36.21 29.8-60zM24 96c0-21.75 9.9-41 28-54.68V64h8V28H24v8h21.8C26.52 51.15 16 72.21 16 96a80.09 80.09 0 0 0 80 80v-8a72.08 72.08 0 0 1-72-72zM103.11 128.89A7.16 7.16 0 0 1 96 136a7.11 7.11 0 0 1 0-14.22 7.16 7.16 0 0 1 7.11 7.11zm-12.22-48V56h10.22v24.89l-2.67 30.67h-4.88z" fill="rgba(0,0,0,1)"/></svg>
