<?xml version="1.0" encoding="UTF-8"?>
<svg xmlns="http://www.w3.org/2000/svg" viewBox="0 0 192 192"><path d="M18.36 162.327L162.325 18.362l11.314 11.313L29.673 173.641zM140.1 29.3C127 20.6 111.8 16 96 16v8c13.7 0 26.9 3.8 38.3 11l5.8-5.7zM176 96c0-15.8-4.6-31-13.3-44.1l-5.8 5.8c7.2 11.5 11 24.6 11 38.3 0 21.8-9.9 41-28 54.7V128h-8v36h36v-8h-21.8c19.4-15.2 29.9-36.2 29.9-60zM51.9 162.7C65 171.4 80.2 176 96 176v-8c-13.7 0-26.9-3.8-38.3-11l-5.8 5.7zM16 96c0 15.8 4.6 31 13.3 44.1l5.8-5.8c-7.2-11.5-11-24.6-11-38.3 0-21.8 9.9-41 28-54.7V64h8V28H24v8h21.8C26.5 51.2 16 72.2 16 96z" fill="rgba(0,0,0,1)"/></svg>
