<?xml version="1.0" encoding="UTF-8"?>
<svg xmlns="http://www.w3.org/2000/svg" viewBox="0 0 192 192"><path d="M138.8 33.2l-5.6 5.6L158.3 64H16v8h142.3l-25.1 25.2 5.6 5.6L173.7 68zM140 157.7l-10.8-10.9 5.6-5.6 5.2 5.1 13.2-13.1 5.6 5.6z" fill="rgba(0,0,0,1)"/><path d="M144 176c-17.6 0-32-14.4-32-32s14.4-32 32-32 32 14.4 32 32-14.4 32-32 32zm0-56c-13.2 0-24 10.8-24 24s10.8 24 24 24 24-10.8 24-24-10.8-24-24-24zM107.3 128c1.3-2.9 2.8-5.5 4.7-8H33.7l25.2-25.2-5.7-5.7L18.3 124l34.8 34.8 5.7-5.7L33.7 128h73.6zM176 120z" fill="rgba(0,0,0,1)"/></svg>
