<?xml version="1.0" encoding="UTF-8"?>
<svg xmlns="http://www.w3.org/2000/svg" viewBox="0 0 192 192"><path d="M92 80h16v16H92z" fill="rgba(0,0,0,1)"/><path d="M124 100h8v-8h-8v-8h8v-8h-8V64h-12v-8h-8v8h-8v-8h-8v8H76v12h-8v8h8v8h-8v8h8v12h12v8h8v-8h8v8h8v-8h12v-12zm-8 4H84V72h32v32z" fill="rgba(0,0,0,1)"/><path d="M103.3 32c-26.4 0-43 8.6-50.9 26.4-4 9.1-4.4 24.1-4.4 28.5l-13.6 21.8c-2 3.1-2.1 6.9-.3 10.1 1.8 3.2 5.1 5.2 8.7 5.2H48v12c0 5.5 1.7 10 5 12.9 2.1 1.8 5.7 3.8 11.5 3.1l15.5-3.1V160h8v-20.9L63.4 144c-2.2.3-3.9-.1-5.1-1.2-1.5-1.3-2.3-3.7-2.3-6.9v-20H42.8c-1.1 0-1.6-.7-1.7-1-.2-.3-.5-1.1.1-2L56 89.1v-1.2c0-.2-.3-17.4 3.7-26.3C62 56.3 69.3 40 103.3 40c14.5 0 26.8 4.9 35.8 14.3C147.4 63 152 75 152 88c0 14.3-6.9 21.2-14.8 29.2-9.2 9.2-9.2 21.1-9.2 26.8v16h8v-16c0-5 0-14.3 6.8-21.2 8-8 17.2-17.2 17.2-34.8 0-27.8-19.5-56-56.7-56z" fill="rgba(0,0,0,1)"/></svg>
