<?xml version="1.0" encoding="UTF-8"?>
<svg xmlns="http://www.w3.org/2000/svg" viewBox="0 0 192 192"><path d="M87.7 136.1s1.7-1.3 1.7-2.8-.7-6.5-.3-8.1c.4-1.7 2.3-2.9 4.3-3.6 1.9-.7 4.6-1.5 6.1-2.9 1.5-1.5 2.9-3.8 4-4.1 1.2-.3 2.7 1 3.3.7.6-.3 1.5-2.1 3.7-2.7 2.1-.6 3.6-.6 3.6-.1s-2.3 3.3.6 4.8 4.2 0 4.2-1 .3-4.8 1.6-4.8 3.1 3.7 2.6 5.6-.7 3.2.9 5.4c1.6 2.1 4.3 2.8 3.9 5.1-.4 2.3-.2 4-2.1 5.9-1.9 1.8-2.2 1.3-3.6 3s-2.1 3.6-3.1 4-2.3 1.2-3.5 1.2-3.7.4-4.1-.5-1.1-2.3-1-3.9c.1-1.5-.3-2.5-1.2-2.1-.9.4-1 1.5-1.9 1.1-1-.4-1-3.7-6.2-2.3-5.1 1.3-8.9 3.4-10.4 3.4s-3.1-.1-3.1-1.3zM51.2 49.7c-.1-2.4 3-4.3 4.6-5.1s1.8-1.9 3.5-1.5 3.1 1.9 4.5 1.4.4-1.9 1.6-1.9 6.7 2.3 9.9 2.3 6.2.5 7-.1c.8-.7.6-2.6.1-3.2s1.2-2.8 3.8-1c2.6 1.8 3.1 3.6 5.1 4.4 2.1.8 4 1.5 5.3 1.5 1.3.1 2.5 1.1 1.9 1.8s-1.4 1.8-1.3 4c.1 2.3 1.4 3.7 2.3 5.1s2.5 2 1.1 2.6-1.8 1.1-2.9-1.2-3.7-4.6-5.1-4.5c-1.3.1-2.7-.4-3.1.5-.4 1-1 1.8.3 2.3s3-.1 2.4 1.2c-.6 1.4-1.5 2-.1 3.4 1.4 1.5 3.3 2.1 3.2 5-.1 2.9-.4 4.8-2.8 6s-7 1.3-7.7 1.8-2.6 1.2-2.2 2.3c.4 1.1 3.3 3.2 3.6 5.2.3 2.1 1.2 3.6-.1 4.4-1.2.8-2.4 2.4-3.3 2.3s-.3-2.6-2.4-3.9c-2.1-1.2-2.9-1.5-3.1-.4-.1 1.1-.8 2.6.7 4.8 1.5 2.2 3.6 4.4 3.8 5.4.2 1-.1 3.4-1.5 1.4-1.5-2-3.9-5.8-4.1-6.7-.2-1 .1-3.4-.5-5.8s-1.4-4.1-2.1-3.8c-.7.3-1.7.2-2.4-1.5-.7-1.8-3.1-5.6-5.5-5.2s-6.8 3.1-7.7 6.4-.4 6.7-1.3 7.7-.8 2.3-1.7 2-5.1-8.4-5.5-10.9c-.4-2.4-.6-3.5-1-3.7-.4-.1-2.8 0-2.6-2.7.1-2.7 1.4-3.6 2.3-3.5.9.1 3.7-.9 3.9-1.6s-.5-3.1-2.3-3.1-2.5-1.2-1.4-3.2c1.1-1.9 1-2.6.4-3.6s-1.8-1.9-.4-2.7 2.9-1.6 2.8-4.4zM112.3 143.5c1.7-1.1 2.8-.1 2.8.5s-1 2.1-2.3 2.5-1.1-2.6-.5-3zM131.7 147.2l4.5-2.8s1.6-2.1 1.9-1.3c.3.8.4 2-1.1 3.1s-3.6 2.4-4.5 3.1-5.5-.3-.8-2.1zM140.7 140.6c-.7.5-1.9 4.3-.3 3.4s3.7-1.7 4.2-2.9-1.2-.7-1.4-2.3c-.1-1.6-1-2-1.2-.6-.1 1.4-.2 1.7-1.3 2.4z" fill="rgba(0,0,0,1)"/><path d="M74.1 92.8c-1.3 0-.2 1.1.3 1.7s2.2 1.8 3.8 4.5c1.6 2.8 2.9 6.6 4.7 5.8 1.8-.8.7-3.3-2.3-6.5-3-3.3-4.1-5.5-6.5-5.5zM91.3 95.2s2.4-1.6 2.7-2.3c.3-.7 1.2-1.5 2-1 .7.6.4 1.3-.2 2.2-.6.9 1 2.9.7 3.4s-1 4.8-2.5 5-4.5 1.2-5.6-.7c-1.1-1.8-1.3-3.3-1-4.3s3.6-.4 3.9-2.3zM84.5 105.8c-.6.6 1.5 1.3 2.7 1.5s5.8 1.8 6 .8-3-1.6-4.5-1.8c-1.4-.2-3.6-1.1-4.2-.5zM110 99.4c-1.3.1 1 1 1.2 1.5s0 1.4 1 2 3.7.4 4.5 2.1c.7 1.7-.8 2.1.1 2.3.9.2 1.8 1.6 3.3 1.5s2.6-1.9 3.8-1.2c1.2.7 3.8 3.7 4.8 3.4 1-.3-2.4-3.4-3.8-4.7-1.4-1.2-.7-2.2-3.5-3.6s-4.5-2.6-5.2-2.3c-.7.2-2.4 1.6-2.6 1.1-.4-.6-1.2-2.2-3.6-2.1zM103.3 60.6c-.2.6 1.5.8 3.3.3 1.1-.3 3.1-.2 3.9-1.1.6-.7 0-2.2.1-2.8.2-1.7-.9-3-2-3-1.5 0 1.9 1.9-.2 3.7-2.1 1.6-4.7 1.3-5.1 2.9zM107.6 52.8s-1.4-.5-1.1-1.8c.3-1.2-.5-1.7 0-2s1 1 2 1.4 2.8.1 2.6.7c-.1.6-1.3.7-2 .9-.6.2-.7.7-1.5.8zM100.4 39.5c-2.4.6 1.2 1.6 2.4 3.5s2.1 4.7 3.3 4.1c1.2-.6-.9-3.4-1.5-4.3-.6-.9-2.7-3.6-4.2-3.3zM97.6 78.3c.8-1.1 1.8.6 1.8 1.4-.1.8-1 2.1.2 2.8 1.2.7 2.4 1.1 2 1.6s-2.6-.3-3.2-1.1c-.7-.8-1.9-3.2-.8-4.7zM98.2 104.6c1.1-.2.2-2.1.9-2.4.7-.3 1 2.1 2.1 1.5 1-.7-.5-1.7-.5-2.3 0-.7 1.6-.7 1.1-1.3-.5-.7-2.9-.1-2.6-.9.3-.7 2.1-.1 2.9-.5.7-.4.2-1.5-2.3-1.5s-1.5.3-1.7 1.2c-.1 1 .4 1.5.1 2.2-.4.7-.7 4.2 0 4zM103.5 88.3c.8-.1 1.5 2.6 1.2 3s-.8 1.5-1.7 1.3c-.9-.2-.4-1.5-1.1-1.8s-1.5-.4-1.5-.8c.2-.5 2.7-1.6 3.1-1.7z" fill="rgba(0,0,0,1)"/><path d="M96 176c-44.1 0-80-35.9-80-80s35.9-80 80-80 80 35.9 80 80-35.9 80-80 80zm0-152c-39.7 0-72 32.3-72 72s32.3 72 72 72 72-32.3 72-72-32.3-72-72-72z" fill="rgba(0,0,0,1)"/></svg>
