<?xml version="1.0" encoding="UTF-8"?>
<svg xmlns="http://www.w3.org/2000/svg" viewBox="0 0 192 192"><path d="M152 112h-16V92h-36v20H40c-13.2 0-24 10.8-24 24s10.8 24 24 24h8v16h8v-16h80v16h8v-16h8c13.2 0 24-10.8 24-24s-10.8-24-24-24zm-44-12h20v12h-20v-12zm44 52H40c-8.8 0-16-7.2-16-16s7.2-16 16-16h112c8.8 0 16 7.2 16 16s-7.2 16-16 16z" fill="rgba(0,0,0,1)"/><path d="M148 132h8v8h-8zM36 132h8v8h-8zM48.1 81l7.8-1.9-3.6-14.3 5.8-8.7h31.7l5.8 8.7L92.1 79l7.8 1.9 4.4-17.7L96 50.8V32h-8V16h-8v16H68V16h-8v16h-8v18.8l-8.3 12.5L48.1 81zM60 40h28v8H60v-8z" fill="rgba(0,0,0,1)"/></svg>
