<?xml version="1.0" encoding="UTF-8"?>
<svg xmlns="http://www.w3.org/2000/svg" viewBox="0 0 192 192"><path d="M155.9 132.5l-3.2 1.8c-1.3-1.2-2.9-2.2-4.7-2.7V128h-8v3.6c-1.8.6-3.4 1.5-4.7 2.7l-3.2-1.8-4 6.9 3.1 1.8c-.2.9-.3 1.8-.3 2.7s.1 1.8.3 2.7l-3.1 1.8 4 6.9 3.2-1.8c1.3 1.2 2.9 2.2 4.7 2.7v3.6h8v-3.6c1.8-.6 3.3-1.5 4.7-2.7l3.2 1.8 4-6.9-3.1-1.8c.2-.9.3-1.8.3-2.7s-.1-1.8-.3-2.7l3.1-1.8-4-6.9zM144 149c-2.8 0-5-2.2-5-5s2.2-5 5-5 5 2.2 5 5-2.2 5-5 5zm0-37c-17.6 0-32 14.4-32 32s14.4 32 32 32 32-14.4 32-32-14.4-32-32-32zm0 56c-13.2 0-24-10.8-24-24s10.8-24 24-24 24 10.8 24 24-10.8 24-24 24zM36 132h8v8h-8v-8zm12.1-51l7.8-1.9-3.6-14.3 5.8-8.7h31.7l5.8 8.7L92.1 79l7.8 1.9 4.4-17.7L96 50.8V32h-8V16h-8v16H68V16h-8v16h-8v18.8l-8.3 12.5L48.1 81zM60 40h28v8H60v-8zm44.8 112c.6 2.8 1.4 5.5 2.5 8H56v16h-8v-16h-8c-13.2 0-24-10.8-24-24s10.8-24 24-24h60V92h36v12.8c-2.8.6-5.5 1.4-8 2.5V100h-20v12h12c-3 2.3-5.7 5-8 8H40c-8.8 0-16 7.2-16 16s7.2 16 16 16h64.8z" fill="rgba(0,0,0,1)"/></svg>
