<?xml version="1.0" encoding="UTF-8"?>
<svg xmlns="http://www.w3.org/2000/svg" viewBox="0 0 192 192"><path d="M144 112c-17.6 0-32 14.4-32 32s14.4 32 32 32 32-14.4 32-32-14.4-32-32-32zm0 56c-13.2 0-24-10.8-24-24s10.8-24 24-24 24 10.8 24 24-10.8 24-24 24zm-24 8H68v-8h24v-16.2c-24.6-2-44-22.7-44-47.8V76h8v28c0 22.1 17.9 40 40 40 2.7 0 5.4-.3 8-.8v.8c0 2.5.2 4.9.7 7.2-1.5.3-3.1.5-4.7.6V168h12c2.3 3 5 5.7 8 8zm24-72c-2.7 0-5.4.3-8 .8V76h8v28zm-80 0V48c0-17.6 14.4-32 32-32s32 14.4 32 32v56c0 1.2-.1 2.3-.2 3.4-3.6 1.6-6.9 3.7-9.9 6.2 1.3-3 2-6.2 2-9.7V48c0-13.2-10.8-24-24-24S72 34.8 72 48v56c0 13.2 10.8 24 24 24 5 0 9.6-1.5 13.5-4.1-1.9 3.3-3.4 7-4.4 10.8-2.9.9-5.9 1.3-9.1 1.3-17.6 0-32-14.4-32-32zm72 28l20 12-20 12v-24z" fill="rgba(0,0,0,1)"/></svg>
