<?xml version="1.0" encoding="UTF-8"?>
<svg xmlns="http://www.w3.org/2000/svg" viewBox="0 0 192 192"><path d="M148 140h12v8h-12v12h-8v-12h-12v-8h12v-12h8v12zm28 4c0 17.6-14.4 32-32 32s-32-14.4-32-32 14.4-32 32-32 32 14.4 32 32zm-8 0c0-13.2-10.8-24-24-24s-24 10.8-24 24 10.8 24 24 24 24-10.8 24-24zm-56 24h-12v-16.2c1.6-.1 3.1-.3 4.7-.6-.4-2.3-.7-4.7-.7-7.2v-.8c-2.6.5-5.3.8-8 .8-22.1 0-40-17.9-40-40V76h-8v28c0 25.1 19.4 45.8 44 47.8V168H68v8h52c-3-2.3-5.7-5-8-8zm32-92h-8v28.8c2.6-.5 5.3-.8 8-.8V76zm-48 60c3.2 0 6.2-.5 9.1-1.3.9-3.9 2.4-7.5 4.4-10.8-3.8 2.6-8.5 4.1-13.5 4.1-13.2 0-24-10.8-24-24V48c0-13.2 10.8-24 24-24s24 10.8 24 24v56c0 3.4-.7 6.7-2 9.7 2.9-2.5 6.3-4.6 9.9-6.2.1-1.1.2-2.3.2-3.4V48c0-17.6-14.4-32-32-32S64 30.4 64 48v56c0 17.6 14.4 32 32 32z" fill="rgba(0,0,0,1)"/></svg>
