<?xml version="1.0" encoding="UTF-8"?>
<svg xmlns="http://www.w3.org/2000/svg" viewBox="0 0 192 192"><path d="M175.8 137.8l-12-48.1c-1.1-5.6-6-9.7-11.8-9.7h-16V61.6L96 39.4 56 61.6V80H40c-5.7 0-10.7 4.1-11.8 9.7l-12 47.9-.1.2c-.7 3.5.3 7.1 2.6 9.9s5.7 4.3 9.2 4.3h136c3.6 0 6.9-1.6 9.2-4.3s3.4-6.4 2.7-9.9zM64 70.8l28 15.6v38.8l-28-15.6V70.8zm36 15.6l28-15.6v38.8l-28 15.6V86.4zM123.8 64L96 79.4 68.2 64 96 48.6 123.8 64zm43.3 78.6c-.4.5-1.4 1.4-3.1 1.4H28c-1.6 0-2.6-.9-3.1-1.4-.4-.5-1.1-1.6-.9-3.2l12-47.9.1-.2c.4-1.9 2-3.3 3.9-3.3h16v26.4l40 22.2 40-22.2V88h16c1.9 0 3.6 1.4 3.9 3.3l12 48.1c.3 1.5-.4 2.6-.8 3.2z" fill="rgba(0,0,0,1)"/><ellipse cx="148" cy="112" rx="6" ry="4" fill="rgba(0,0,0,1)"/><path d="M45 104.1c-2.1-.5-4.3.8-4.9 2.9l-3 12c-.5 2.1.8 4.3 2.9 4.9.3.1.7.1 1 .1 1.8 0 3.4-1.2 3.9-3l3-12c.5-2.2-.8-4.3-2.9-4.9z" fill="rgba(0,0,0,1)"/></svg>
