<?xml version="1.0" encoding="UTF-8"?>
<svg xmlns="http://www.w3.org/2000/svg" viewBox="0 0 192 192"><path d="M144 176c-17.6 0-32-14.4-32-32s14.4-32 32-32 32 14.4 32 32-14.4 32-32 32zm0-56c-13.2 0-24 10.8-24 24s10.8 24 24 24 24-10.8 24-24-10.8-24-24-24zm-8 36.9l20-12.9-20-12.9v25.8zM148 96c-3.3 0-6 1.8-6 4s2.7 4 6 4 6-1.8 6-4-2.7-4-6-4zM45 92.1c-2.1-.5-4.3.8-4.9 2.9l-3 12c-.5 2.1.8 4.3 2.9 4.9.3.1.7.1 1 .1 1.8 0 3.4-1.2 3.9-3l3-12c.5-2.2-.8-4.3-2.9-4.9zm60.8 39.9H28c-1.6 0-2.6-.9-3.1-1.4-.4-.5-1.1-1.6-.9-3.2l12-47.9.1-.2c.4-1.9 2-3.3 3.9-3.3h16v26.4l40 22.2 40-22.2V76h16c1.9 0 3.6 1.4 3.9 3.3l7.4 29.8c3.9 2.1 7.3 4.9 10.3 8.2l-9.9-39.5c-1.1-5.6-6-9.7-11.8-9.7h-16V49.6L96 27.4 56 49.6V68H40c-5.7 0-10.7 4.1-11.8 9.7l-12 47.9-.1.2c-.7 3.5.3 7.1 2.6 9.9s5.7 4.3 9.2 4.3h76.2c.4-2.8.9-5.4 1.7-8zM128 97.6l-28 15.6V74.4l28-15.6v38.8zm-32-61L123.8 52 96 67.4 68.2 52 96 36.6zM64 58.8l28 15.6v38.8L64 97.6V58.8z" fill="rgba(0,0,0,1)"/></svg>
