<?xml version="1.0" encoding="UTF-8"?>
<svg xmlns="http://www.w3.org/2000/svg" viewBox="0 0 192 192"><path d="M176 132h-56V40h-20v-4c0-8.8-7.2-16-16.2-16C75 20 68 27 68 36v4h-8c-8.2 0-16 7.8-16 16v76H32v-12h4v-8H20v8h4v12h-8v8h28v12h24.4c2.3 4.7 7.1 8 12.6 8s10.4-3.3 12.6-8H120v-12h18.4c-.9 1.8-1.4 3.9-1.4 6 0 7.7 6.3 14 14 14s14-6.3 14-14c0-2.1-.5-4.2-1.4-6H176v-8zM76 36c0-4.5 3.4-8 7.8-8 4.5 0 8.2 3.6 8.2 8v4H76v-4zM60 48h52v28H52V56c0-3.8 4.2-8 8-8zm21 104c-3.3 0-6-2.7-6-6s2.7-6 6-6 6 2.7 6 6-2.7 6-6 6zm13.8-8c-1-6.8-6.8-12-13.8-12s-12.9 5.2-13.8 12H52V84h60v60H94.8zm62.2 2c0 3.3-2.7 6-6 6s-6-2.7-6-6 2.7-6 6-6 6 2.7 6 6z" fill="rgba(0,0,0,1)"/></svg>
