<?xml version="1.0" encoding="UTF-8"?>
<svg xmlns="http://www.w3.org/2000/svg" viewBox="0 0 192 192"><path d="M148.1 94.5l-23.6-23.6c-1.7-1.7-3.8-3-6-3.7-1.3-.4-3-.9-5.1-1.4 6.4-5.1 10.5-13 10.5-21.9 0-15.4-12.6-28-28-28S68 28.6 68 44c0 8.8 4.1 16.7 10.5 21.9-2.1.5-3.9 1-5.1 1.4-2.2.7-4.3 2-6 3.7L43.2 95.2c-3.1 3.1-4.1 7.8-2.8 12.2 1.4 4.5 5 7.7 9.7 8.5 4.1.7 8.4-.7 11.5-3.8l6.5-6.5V116c0 2 .2 3.9.6 5.7l-15.6 15.6c-5.8 5.8-5.8 15.4 0 21.2l12.2 12.2c2 2 5.5 3.5 9.1 3.5 3 0 6.1-1 8.6-3.5 5.5-5.5 3.7-14 0-17.7l-5.2-5.2 6.6-6.6c3.6 1.7 7.6 2.6 11.7 2.6s8.2-.9 11.7-2.6l6.6 6.6-5.2 5.2c-3.7 3.7-5.5 12.2 0 17.7 2.5 2.5 5.6 3.5 8.6 3.5 3.6 0 7.1-1.4 9.1-3.5l12.2-12.2c5.8-5.8 5.8-15.4 0-21.2l-15.6-15.6c.4-1.9.6-3.8.6-5.7v-10.3l7.2 7.2c3.1 3.1 7.8 4.1 12.2 2.8 4.5-1.4 7.7-5 8.5-9.7.6-4.2-.8-8.5-3.9-11.5zM76 44c0-11 9-20 20-20s20 9 20 20-9 20-20 20-20-9-20-20zm1.2 114.8c.7.7 2.2 4.2 0 6.3-2.2 2.2-5.7.7-6.3 0l-12.2-12.2c-2.7-2.7-2.7-7.2 0-9.9l13.1-13.1c1.5 2.6 3.4 5 5.7 7L66.3 148l10.9 10.8zM76 116h40c0 11-9 20-20 20s-20-9-20-20zm57.4 27.1c2.7 2.7 2.7 7.2 0 9.9l-12.2 12.2c-.6.7-4.2 2.2-6.3 0-2.2-2.2-.7-5.7 0-6.3l10.8-10.8-11.1-11.1c2.3-2 4.2-4.4 5.7-7l13.1 13.1zm10.6-38.6c-.4 2.3-2.3 3.2-3 3.4-1.5.5-3.2.2-4.1-.8L116 86.3V108H76V86.3l-20.1 20.1c-1.2 1.2-2.9 1.8-4.4 1.5-2.3-.4-3.2-2.3-3.4-3-.5-1.5-.2-3.2.8-4.1l24.3-24.3c.8-.8 1.7-1.4 2.8-1.7 3.2-1 10.2-2.8 20-2.8s16.8 1.8 20.1 2.8c1 .3 2 .9 2.8 1.7l23.6 23.6c1.2 1.2 1.8 2.9 1.5 4.4z" fill="rgba(0,0,0,1)"/></svg>
