<?xml version="1.0" encoding="UTF-8"?>
<svg xmlns="http://www.w3.org/2000/svg" viewBox="0 0 192 192"><path d="M120 54.2c-.1-8.6-4.7-16.4-12-20.6V28c0-6.6-5.4-12-12-12-3.4 0-6.7 1.5-9 4.1-1.9 2.2-3 5-3 7.9v5.5c-7.3 4.2-11.9 12-12 20.6-4.8 2.8-8 7.9-8 13.8v92c0 8.8 7.2 16 16 16h32c8.8 0 16-7.2 16-16V68c0-5.9-3.2-11.1-8-13.8zM89.6 39.7l2.4-1V28c0-1 .4-1.9 1-2.6.8-.9 1.9-1.4 3-1.4 2.2 0 4 1.8 4 4v10.6l2.4 1c5.1 2.2 8.6 6.9 9.4 12.3H80.2c.8-5.3 4.3-10 9.4-12.2zM80 60h32c4.4 0 8 3.6 8 8H72c0-4.4 3.6-8 8-8zm40 100c0 4.4-3.6 8-8 8H80c-4.4 0-8-3.6-8-8V76h48v84z" fill="rgba(0,0,0,1)"/><path d="M80 100h16v8H80zM80 116h16v8H80zM80 132h16v8H80z" fill="rgba(0,0,0,1)"/></svg>
