<?xml version="1.0" encoding="UTF-8"?>
<svg xmlns="http://www.w3.org/2000/svg" viewBox="0 0 192 192"><path d="M53.2 176H32c-8.8 0-16-7.2-16-16s7.2-16 16-16h18.8l88-60H160c8.8 0 16 7.2 16 16s-7.2 16-16 16h-18.8l-88 60zM32 152c-4.4 0-8 3.6-8 8s3.6 8 8 8h18.8l88-60H160c4.4 0 8-3.6 8-8s-3.6-8-8-8h-18.8l-88 60H32z" fill="rgba(0,0,0,1)"/><path fill="none" d="M84 24c-8.9 0-18.4 5.3-19.8 20h39.6C102.4 29.3 92.9 24 84 24z"/><path d="M48.1 120c-1.2 0-2.3-.5-3.1-1.4-.8-.8-1.1-1.9-1-2.9L51.6 52h64.9l4.1 34.6 7.5-5.1-4.5-37.5h-11.7C110.4 27.1 99.6 16 84 16S57.6 27.1 56.2 44H44.4L36 114.8c-.3 3.3.8 6.7 3.1 9.2 2.3 2.5 5.6 4 9 4h11.7l11.7-8H48.1zM84 24c8.9 0 18.4 5.3 19.8 20H64.2C65.6 29.3 75.1 24 84 24z" fill="rgba(0,0,0,1)"/></svg>
