<?xml version="1.0" encoding="UTF-8"?>
<svg xmlns="http://www.w3.org/2000/svg" viewBox="0 0 192 192"><path fill="none" d="M0 0h192v192H0z"/><path d="M96 124c-2.2 0-7.7 0-10.4-8H100v-8H84.1c-.1-1.2-.1-2.6-.1-4 0-1 0-2.4.1-4H100v-8H85.6c1.5-4.3 4.5-8 10.4-8 6 0 9.9 3 12.3 9.4l7.5-2.8C112.2 81 105.3 76 96 76c-6 0-15.3 2.4-18.7 16H72v8h4.1c-.1 1.3-.1 2.6-.1 4s0 2.7.1 4H72v8h5.3c3.4 13.6 12.7 16 18.7 16 9.2 0 16-5 19.7-14.5l-7.5-2.9c-2.4 6.4-6.3 9.4-12.2 9.4z" fill="rgba(0,0,0,1)"/><path d="M176 64V45.1L96 19.8 16 45.1V64h12v80H16v24h160v-24h-12V64h12zM24 50.9l72-22.7 72 22.7V56H24v-5.1zM52 144V64h88v80H52zM36 64h8v80h-8V64zm132 96H24v-8h144v8zm-12-16h-8V64h8v80z" fill="rgba(0,0,0,1)"/></svg>
