<?xml version="1.0" encoding="UTF-8"?>
<svg xmlns="http://www.w3.org/2000/svg" viewBox="0 0 192 192"><path d="M140 157.7l-10.8-10.9 5.6-5.6 5.2 5.1 13.2-13.1 5.6 5.6z" fill="rgba(0,0,0,1)"/><path d="M144 176c-17.6 0-32-14.4-32-32s14.4-32 32-32 32 14.4 32 32-14.4 32-32 32zm0-56c-13.2 0-24 10.8-24 24s10.8 24 24 24 24-10.8 24-24-10.8-24-24-24zM92 32h8v128h-8zM16 92h68v8H16zM32 76h52v8H32zM48 60h36v8H48zM56 44h28v8H56zM32 108h52v8H32zM48 124h36v8H48zM56 140h28v8H56zM108 92h68v8h-68zM108 76h52v8h-52zM108 60h36v8h-36zM108 44h28v8h-28z" fill="rgba(0,0,0,1)"/></svg>
