<?xml version="1.0" encoding="UTF-8"?>
<svg xmlns="http://www.w3.org/2000/svg" viewBox="0 0 192 192"><path d="M140 157.7l-10.8-10.9 5.6-5.6 5.2 5.1 13.2-13.1 5.6 5.6z" fill="rgba(0,0,0,1)"/><path d="M144 176c-17.6 0-32-14.4-32-32s14.4-32 32-32 32 14.4 32 32-14.4 32-32 32zm0-56c-13.2 0-24 10.8-24 24s10.8 24 24 24 24-10.8 24-24-10.8-24-24-24zM16 120h8v24h-8zM32 100h8v44h-8zM48 80h8v64h-8zM64 48h8v96h-8zM80 32h8v112h-8zM16 152v8h91.3c-1.1-2.5-2-5.2-2.5-8H16zM96 48h8v96h-8zM120 112V80h-8v40c2.3-3 5-5.7 8-8zM136 100h-8v7.3c2.5-1.1 5.2-2 8-2.5V100z" fill="rgba(0,0,0,1)"/></svg>
