<?xml version="1.0" encoding="UTF-8"?>
<svg xmlns="http://www.w3.org/2000/svg" viewBox="0 0 192 192"><path d="M100 176h-8V16h8v160zM84 28H64v8h20v-8zm44 0h-20v8h20v-8zM84 44H52v8h32v-8zm56 0h-32v8h32v-8zM84 60H40v8h44v-8zm68 0h-44v8h44v-8zM84 76H28v8h56v-8zm80 0h-56v8h56v-8zM84 92H16v8h68v-8zm92 0h-68v8h68v-8zm-92 16H28v8h56v-8zm0 16H40v8h44v-8zm0 16H52v8h32v-8zm0 16H64v8h20v-8zm36.1-44v64h9.4v-21.2l8-9.2 20 30.4h10.6l-24.3-37.2 23.1-26.8h-10.7l-26.5 31.1V112h-9.6z" fill="rgba(0,0,0,1)"/></svg>
