<?xml version="1.0" encoding="UTF-8"?>
<svg xmlns="http://www.w3.org/2000/svg" id="Icon_contour" viewBox="0 0 192 192"><defs><style>.cls-1{fill:#070606}</style></defs><path class="cls-1" d="M64 160H32v-40h32zm-24-8h16v-24H40zM172.85 157.63l-34.2-34.2a30.71 30.71 0 1 0-15.16 15.27l34.15 34.15a10.76 10.76 0 1 0 15.21-15.21zM88 110.83a22.68 22.68 0 1 1 22.68 22.68A22.71 22.71 0 0 1 88 110.83zm79.19 56.37a2.76 2.76 0 0 1-3.9 0l-32.89-32.9a31 31 0 0 0 3.89-3.91l32.9 32.9a2.76 2.76 0 0 1 0 3.9z" fill="rgba(0,0,0,1)"/><path class="cls-1" d="M136 81.62V40h16v85.47l8 8V32h-32v44.25a38.81 38.81 0 0 1 8 5.37zM110.68 149.51a38.73 38.73 0 0 1-6.68-.59V152H88v-9.87a39 39 0 0 1-8-7.79V160h32v-10.54c-.44.02-.88.05-1.32.05zM112 125.44V96.21c-.44 0-.87-.07-1.32-.07a14.57 14.57 0 0 0-6.68 1.63v26.11a14.57 14.57 0 0 0 6.68 1.62c.45.01.88-.02 1.32-.06zM93.86 76H80v11.31A38.93 38.93 0 0 1 93.86 76z" fill="rgba(0,0,0,1)"/></svg>
