<?xml version="1.0" encoding="UTF-8"?>
<svg xmlns="http://www.w3.org/2000/svg" viewBox="0 0 192 192"><path d="M140 157.7l-10.8-10.8 5.7-5.7 5.2 5.2 13.2-13.2 5.7 5.7-19 18.8zm36-13.7c0-17.6-14.4-32-32-32s-32 14.4-32 32 14.4 32 32 32 32-14.4 32-32zm-8 0c0 13.2-10.8 24-24 24s-24-10.8-24-24 10.8-24 24-24 24 10.8 24 24zM32 128h12V48H32v80zm-8-80h-8v96h8V48zm36 0h-8v80h8V48zm40 0h-8v96h8V48zm-40 88h-8v8h8v-8zm-28 8h12v-8H32v8zm40-16h12V48H72v80zm44-80h-8v78.6c2-4.2 4.7-7.9 8-11.1V48zm20 0h-8v59.4c2.5-1.1 5.2-2 8-2.5V48zm16 56.8V48h-8v56c2.7 0 5.4.3 8 .8zm24 15.2V48h-12v61.4c4.7 2.7 8.7 6.3 12 10.6zM72 144h12v-8H72v8z" fill="rgba(0,0,0,1)"/></svg>
