<?xml version="1.0" encoding="UTF-8"?>
<svg xmlns="http://www.w3.org/2000/svg" viewBox="0 0 192 192"><path d="M160 160h-36v-8h36v8zm-4 8h-28v8h28v-8zm4-27.4c0-.7 1.2-1.7 1.9-2.3l.4-.4c.3-.3.6-.5.9-.8.9-.8 1.8-1.6 2.8-2.6 13.2-13.4 13.2-35.1 0-48.5-6.4-6.5-15-10.1-24.1-10.1s-17.6 3.6-24.1 10.1c-13.2 13.4-13.2 35.1 0 48.5 1 1 1.9 1.8 2.8 2.6.3.3.6.5.9.8l.4.3c.7.6 1.9 1.6 1.9 2.3v3.4h8v-3.4c0-4.4-3.2-7.1-4.7-8.4l-.3-.3c-.3-.3-.7-.6-1-.9-.9-.7-1.6-1.4-2.4-2.1-10.2-10.3-10.2-27 0-37.2 4.9-5 11.4-7.7 18.4-7.7s13.5 2.7 18.4 7.7c10.2 10.3 10.2 27 0 37.2-.8.8-1.5 1.4-2.4 2.1-.3.3-.7.6-1 .9l-.3.3c-1.5 1.3-4.7 4-4.7 8.4v3.4h8v-3.3zM24 24h24v-8H16v32h8V24zm152-8h-32v8h24v24h8V16zM48 168H24v-24h-8v32h32v-8zm-4-48h12V56H44v64zm-8-64h-8v80h8V56zm36 0h-8v64h8V56zm8 64h12V56H80v64zm-8 8h-8v8h8v-8zm-28 8h12v-8H44v8zm36 0h12v-8H80v8zm32-55.3V56h-8v36.4c2-4.3 4.6-8.2 8-11.7zM128 56h-8v18.2c2.5-1.6 5.2-2.9 8-3.8V56zm16 12.1V56h-8v12.4c2-.3 4-.4 6-.4.7 0 1.3 0 2 .1zM164.9 56H152v13.2c4.6 1.1 9 3 12.9 5.6V56z" fill="rgba(0,0,0,1)"/></svg>
