<?xml version="1.0" encoding="UTF-8"?>
<svg xmlns="http://www.w3.org/2000/svg" viewBox="0 0 192 192"><path d="M156.1 160H35.9c-6.5 0-12-4.7-13.1-11.1L15.3 104h161.4l-7.5 44.9c-1 6.4-6.5 11.1-13.1 11.1zM24.7 112l5.9 35.6c.4 2.6 2.6 4.4 5.2 4.4h120.3c2.6 0 4.8-1.9 5.2-4.4l5.9-35.6H24.7zM37.1 96c-.7-1.2-1.1-2.5-1.1-4 0-4.4 3.6-8 8-8s8 3.6 8 8c0 1.5-.4 2.8-1.1 4h8.6c.3-1.3.5-2.6.5-4 0-8.8-7.2-16-16-16s-16 7.2-16 16c0 1.4.2 2.7.5 4h8.6zM154 34.5c-2.3-1.6-5-2.5-8-2.5-5.5 0-10.2 3.1-12.5 7.7l25 12.5c.9-1.7 1.4-3.7 1.4-5.7l8 4V96h8V45.5l-21.9-11z" fill="rgba(0,0,0,1)"/></svg>
