<?xml version="1.0" encoding="UTF-8"?>
<svg xmlns="http://www.w3.org/2000/svg" viewBox="0 0 192 192"><path d="M176 72h-24V52H16v88h136v-20h24V72zm-32 60H24V60h120v72zm24-20h-16V80h16v32z" fill="rgba(0,0,0,1)"/><path d="M32 88.6h7.6v21.3h11.3v6.1H32V88.6zM61.4 90.4c0 2.1-1.7 3.8-3.9 3.8s-3.9-1.6-3.9-3.8c0-2.1 1.7-3.8 4-3.8 2.2.1 3.8 1.7 3.8 3.8zM54 95.9h7.1v20H54v-20zM64.6 100.2h9.9v6.4h-9.9v-6.4zM78.7 88.6h7.6V116h-7.6V88.6zM111.9 105.9c0 6.2-4.4 10.6-10.7 10.6-6.3 0-10.6-4.2-10.6-10.4 0-6.3 4.4-10.7 10.8-10.7 6.2 0 10.5 4.3 10.5 10.5zm-14 0c0 3.4 1.2 5.3 3.4 5.3 2.3 0 3.4-1.8 3.4-5.3 0-3.4-1.1-5.1-3.3-5.1-2.4-.1-3.5 1.6-3.5 5.1zM115.5 95.9h7.1v3.2c1.4-2.5 3.4-3.7 6.3-3.7 3.9 0 6.2 2.7 6.2 7.4V116H128v-12c0-2.1-.8-3.1-2.5-3.1-1.9 0-2.9 1.2-2.9 3.5V116h-7.1V95.9z" fill="rgba(0,0,0,1)"/></svg>
