<?xml version="1.0" encoding="UTF-8"?>
<svg xmlns="http://www.w3.org/2000/svg" viewBox="0 0 192 192"><path d="M176.1 40.7c0-13.6-11.1-24.7-24.7-24.7-8.8 0-16.8 4.7-21.2 12.1-10.4-5.2-22-8.1-34.2-8.1-12.3 0-23.9 3-34.2 8.2C57.4 20.8 49.4 16 40.6 16 27 16 16 27.1 16 40.7c0 8.8 4.7 16.9 12.1 21.3C22.9 72.2 20 83.8 20 96c0 41.2 33 74.9 73.9 75.9.7 0 1.4.1 2.1.1s1.4 0 2.1-.1c41-1.1 73.9-34.7 73.9-75.9 0-12.2-2.9-23.8-8.1-34 7.4-4.4 12.2-12.5 12.2-21.3zM151.3 24c9.2 0 16.7 7.5 16.7 16.7 0 5.9-3.2 11.3-8.1 14.3-5.9-9.2-13.8-17.1-23-23 3.1-4.9 8.5-8 14.4-8zM24 40.7C24 31.5 31.5 24 40.6 24c5.9 0 11.3 3.2 14.2 8.1-9.2 5.9-17 13.7-22.9 22.9-4.8-2.9-7.9-8.4-7.9-14.3zM96 164c-17.6 0-32-14.4-32-32s14.4-32 32-32 32 14.4 32 32-14.4 32-32 32zm68-68c0 25.9-14.6 48.5-36 60 5-6.7 8-15 8-24 0-22.1-17.9-40-40-40s-40 17.9-40 40c0 9 3 17.3 8 24-21.4-11.5-36-34-36-60 0-37.5 30.5-68 68-68s68 30.5 68 68z" fill="rgba(0,0,0,1)"/><ellipse cx="70" cy="68" rx="6" ry="8" fill="rgba(0,0,0,1)"/><ellipse cx="122" cy="68" rx="6" ry="8" fill="rgba(0,0,0,1)"/><path d="M100.5 135.3v-7.2c0-1.7 2.1-5.5 4.4-7.3 1.8-1.4 2.5-3.7 1.7-5.8-.7-2.1-2.7-3.5-5-3.5H90.4c-2.2 0-4.2 1.4-5 3.5-.7 2.1 0 4.5 1.7 5.8 2.3 1.8 4.4 5.6 4.4 7.3v7.2c-2.5-.7-4.7-2.1-6.6-3.9l-5.7 5.7c4.5 4.5 10.4 6.9 16.8 6.9 6.3 0 12.3-2.5 16.8-6.9l-5.7-5.7c-1.9 1.9-4.1 3.2-6.6 3.9z" fill="rgba(0,0,0,1)"/></svg>
