<?xml version="1.0" encoding="UTF-8"?>
<svg xmlns="http://www.w3.org/2000/svg" viewBox="0 0 192 192"><path d="M152 104c0-1.1-.2-26.9-13.3-38.9-11.9-10.9-30.2-12.8-38.5-13C101.4 36.5 110 24 120 24v-8c-14.8 0-26.5 15.5-27.9 36.1-8.2.2-26.7 2-38.8 13.1C40.2 77.2 40 102.9 40 104v3.7l3.7.3c.2 0 1.5.1 3.6.1h.8c.7 17 5.4 33.1 13.4 45.7C70.7 168.1 82.9 176 96 176s25.3-7.9 34.5-22.2c8.1-12.6 12.8-28.7 13.4-45.7h.8c2.1 0 3.4-.1 3.6-.1l3.7-.3V104zm-8.2-3.9c-7.4-.1-23.6-1.5-33-10.9-8.6-8.6-10.4-22.5-10.8-29.1 7.3.3 23.3 1.9 33.2 10.9 8 7.2 10.1 22 10.6 29.1zM58.7 71c9.9-9 25.9-10.7 33.2-10.9-.4 6.7-2.1 20.5-10.8 29.1-9.4 9.4-25.6 10.8-33 10.9.7-8.2 3.3-22.3 10.6-29.1zM96 168c-20.9 0-38.7-27.3-39.9-60.4 9.4-1 22.1-4.1 30.8-12.8 4.3-4.3 7.2-9.5 9.2-14.7 2 5.2 4.9 10.4 9.2 14.7 8.7 8.7 21.4 11.7 30.8 12.8-1.4 33.1-19.2 60.4-40.1 60.4z" fill="rgba(0,0,0,1)"/><circle cx="72" cy="120" r="4" fill="rgba(0,0,0,1)"/><circle cx="96" cy="120" r="4" fill="rgba(0,0,0,1)"/><circle cx="84" cy="136" r="4" fill="rgba(0,0,0,1)"/><circle cx="108" cy="136" r="4" fill="rgba(0,0,0,1)"/><circle cx="120" cy="120" r="4" fill="rgba(0,0,0,1)"/></svg>
