<?xml version="1.0" encoding="UTF-8"?>
<svg xmlns="http://www.w3.org/2000/svg" viewBox="0 0 192 192"><path d="M174.5 70.8C160.6 41.7 135 16 99.4 16 62 16 16 36.4 16 99.4c-.1 11.7 2.4 31.3 7.2 42.8.5 1.1 1.6 1.8 2.8 1.8h25.8c2.6 0 4.9-1.4 6.2-3.6l.4-.7 48.9 20.4v2.5c0 3.3 2.7 6.1 6.1 6.1h29.1c3.3 0 6.1-2.7 6.1-6.1v-13.1c0-3.3-2.7-6.1-6.1-6.1H140V94.5L172.8 76c1.8-1 2.6-3.3 1.7-5.2zM62.4 132.7l3.1-5.4 43.4 18.1c-1 1.1-1.6 2.5-1.6 4.1v2l-44.9-18.8zm53.6 7l-46.4-19.4c7.2-11.3 19.3-18.5 32.7-19.3l11.8-.7 1.9-.1v39.5zm23.4 19.7h-22.8v-6.8h22.8v6.8zm-15.4-16V99.8l2-.1c2-.1 4.1-.5 6-1.2v44.9h-8zm8-53.6c-2 1.1-4.2 1.8-6.5 1.9l-11.9.7-11.8.7c-16.9 1-31.9 10.3-40.3 25l-9.4 16.5-.8 1.4H29.5C26 125.7 24 109.7 24 99.4c0-26.1 8.3-45.9 24.7-59.1C66.4 26.1 88 24 99.4 24c14.8 0 28.5 5 40.7 14.7 10 8 18.8 19.1 25.5 32.2L132 89.8z" fill="rgba(0,0,0,1)"/><path d="M32 96h8c0-8.1 2.6-16.1 7.1-21.4L41 69.5c-5.7 6.6-9 16.6-9 26.5zM49.1 61.3l5.8 5.5C69.1 51.7 79.3 44 96 44v-8c-19.5 0-31.6 8.9-46.9 25.3z" fill="rgba(0,0,0,1)"/></svg>
