<?xml version="1.0" encoding="UTF-8"?>
<svg xmlns="http://www.w3.org/2000/svg" viewBox="0 0 192 192"><path d="M144 84c-3.7 0-7.3.6-10.6 1.8L118.5 56H136v-8h-30.5l8.5 17-34 10.1L74.5 64H80v-8H56v8h9.5l6.7 13.4-11.1 3.3-2.6 5.2C55.3 84.6 51.7 84 48 84c-17.6 0-32 14.4-32 32s14.4 32 32 32c16.3 0 29.8-12.2 31.7-28h14.5l25.5-43.5 6.4 12.9c-8.6 5.7-14.2 15.5-14.2 26.6 0 17.6 14.4 32 32 32s32-14.4 32-32-14.3-32-31.9-32zm-77.2 3.3l9.1-2.7L89.7 112h-9.9c-1.2-9.4-6.4-17.6-14-22.6l1-2.1zm4.9 24.7H54.5l7.7-15.4c4.9 3.7 8.4 9.1 9.5 15.4zM48 140c-13.2 0-24-10.8-24-24s10.8-24 24-24c2.4 0 4.8.4 7 1l-13.5 27h30.1c-1.9 11.3-11.7 20-23.6 20zm58.4-56.4l-6.9 2-8.1 12.1-7.7-15.3L112 74l-5.6 9.6zM144 140c-13.2 0-24-10.8-24-24 0-7.9 3.9-15 9.8-19.4l10.6 21.2 7.2-3.6L137 93c2.2-.7 4.6-1 7-1 13.2 0 24 10.8 24 24s-10.8 24-24 24z" fill="rgba(0,0,0,1)"/></svg>
