<?xml version="1.0" encoding="UTF-8"?>
<svg xmlns="http://www.w3.org/2000/svg" viewBox="0 0 192 192"><path d="M144 84c-3.7 0-7.3.6-10.6 1.8L118.5 56H136v-8h-30.5l8 16H77.6l-3.5-8H80v-8H56v8h9.4L71 68.7 60.5 86.6C56.7 84.9 52.4 84 48 84c-17.6 0-32 14.4-32 32s14.4 32 32 32c16.3 0 29.8-12.2 31.7-28h14.5l25.5-43.5 6.4 12.9c-8.6 5.7-14.2 15.5-14.2 26.6 0 17.6 14.4 32 32 32s32-14.4 32-32-14.3-32-31.9-32zm-96 56c-13.2 0-24-10.8-24-24s10.8-24 24-24c3 0 5.8.5 8.5 1.5L41 120h30.6c-1.9 11.3-11.7 20-23.6 20zm23.7-28H55l8.4-14.4c4.3 3.6 7.3 8.6 8.3 14.4zm8 0c-1.1-8.7-5.7-16.3-12.3-21.4l7.5-12.8 14.9 34-.1.2h-10zm15.1-8.7L81.1 72h32.1l-18.4 31.3zM144 140c-13.2 0-24-10.8-24-24 0-7.9 3.9-15 9.8-19.4l10.6 21.2 7.2-3.6L137 93c2.2-.7 4.6-1 7-1 13.2 0 24 10.8 24 24s-10.8 24-24 24z" fill="rgba(0,0,0,1)"/></svg>
