<?xml version="1.0" encoding="UTF-8"?>
<svg xmlns="http://www.w3.org/2000/svg" viewBox="0 0 192 192"><path d="M48 176H16V16h32v8H24v144h24v8zM176 16h-32v8h24v144h-24v8h32V16zM45.1 31.9c-4.2 0-7.7 1.9-9.8 5.2C33.2 40.3 32 45 32 49.7c0 11.3 5 18.2 13.2 18.2 4.1 0 7.7-1.9 9.8-5.2 2.1-3.4 3.3-7.8 3.3-12.8 0-11.1-5.1-18-13.2-18zm0 6c3.4 0 5.3 4.3 5.3 12s-1.9 12-5.2 12c-3.4 0-5.3-4.3-5.3-12.2 0-7.5 1.9-11.8 5.2-11.8zm23.1 29.4h21.6v-6.1h-6.6V32h-6.3c-.9 4-3.4 5.9-8.5 6.3v5.5c2.9 0 5.6-.3 7.2-1v18.3h-7.4v6.2zM113 31.9c-4.2 0-7.7 1.9-9.8 5.2-2.1 3.2-3.3 7.9-3.3 12.6 0 11.3 5 18.2 13.2 18.2 4.1 0 7.7-1.9 9.8-5.2 2.1-3.4 3.3-7.8 3.3-12.8-.1-11.1-5.2-18-13.2-18zm0 6c3.4 0 5.3 4.3 5.3 12s-1.9 12-5.2 12c-3.4 0-5.3-4.3-5.3-12.2-.1-7.5 1.8-11.8 5.2-11.8zm23 29.4h21.6v-6.1H151V32h-6.3c-.9 4-3.4 5.9-8.5 6.3v5.5c2.9 0 5.6-.3 7.2-1v18.3H136v6.2zM34.3 160H56v-6.1h-6.6v-29.2H43c-.9 4-3.4 5.9-8.5 6.3v5.5c2.9 0 5.6-.3 7.2-1v18.3h-7.4v6.2zM79 124.5c-4.2 0-7.7 1.9-9.8 5.2-2.1 3.2-3.3 7.9-3.3 12.6 0 11.3 5 18.2 13.2 18.2 4.1 0 7.7-1.9 9.8-5.2 2.1-3.4 3.3-7.8 3.3-12.8 0-11-5.1-18-13.2-18zm0 6.1c3.4 0 5.3 4.3 5.3 12s-1.9 12-5.2 12c-3.4 0-5.3-4.3-5.3-12.2 0-7.5 1.9-11.8 5.2-11.8zm23.1 29.4h21.6v-6.1h-6.6v-29.2h-6.3c-.9 4-3.4 5.9-8.5 6.3v5.5c2.9 0 5.6-.3 7.2-1v18.3h-7.4v6.2zm44.8-35.5c-4.2 0-7.7 1.9-9.8 5.2-2.1 3.2-3.3 7.9-3.3 12.6 0 11.3 5 18.2 13.2 18.2 4.1 0 7.7-1.9 9.8-5.2 2.1-3.4 3.3-7.8 3.3-12.8-.1-11-5.2-18-13.2-18zm0 6.1c3.4 0 5.3 4.3 5.3 12s-1.9 12-5.2 12c-3.4 0-5.3-4.3-5.3-12.2-.1-7.5 1.8-11.8 5.2-11.8zM45.1 78c-4.2 0-7.7 1.9-9.8 5.2C33.2 86.4 32 91 32 95.8c0 11.3 5 18.2 13.2 18.2 4.1 0 7.7-1.9 9.8-5.2 2.1-3.4 3.3-7.8 3.3-12.8 0-11-5.1-18-13.2-18zm0 6c3.4 0 5.3 4.3 5.3 12s-1.9 12-5.2 12c-3.4 0-5.3-4.3-5.3-12.2 0-7.4 1.9-11.8 5.2-11.8zM79 78c-4.2 0-7.7 1.9-9.8 5.2-2.1 3.2-3.3 7.9-3.3 12.6 0 11.3 5 18.2 13.2 18.2 4.1 0 7.7-1.9 9.8-5.2 2.1-3.4 3.3-7.8 3.3-12.8 0-11-5.1-18-13.2-18zm0 6c3.4 0 5.3 4.3 5.3 12s-1.9 12-5.2 12c-3.4 0-5.3-4.3-5.3-12.2 0-7.4 1.9-11.8 5.2-11.8zm23.1 29.7h21.6v-6.1h-6.6V78.3h-6.3c-.9 4-3.4 5.9-8.5 6.3v5.5c2.9 0 5.6-.3 7.2-1v18.3h-7.4v6.3zM146.9 78c-4.2 0-7.7 1.9-9.8 5.2-2.1 3.2-3.3 7.9-3.3 12.6 0 11.3 5 18.2 13.2 18.2 4.1 0 7.7-1.9 9.8-5.2 2.1-3.4 3.3-7.8 3.3-12.8-.1-11-5.2-18-13.2-18zm0 6c3.4 0 5.3 4.3 5.3 12s-1.9 12-5.2 12c-3.4 0-5.3-4.3-5.3-12.2-.1-7.4 1.8-11.8 5.2-11.8z" fill="rgba(0,0,0,1)"/></svg>
