<?xml version="1.0" encoding="UTF-8"?>
<svg xmlns="http://www.w3.org/2000/svg" viewBox="0 0 192 192"><path d="M171.4 36.6c-3-3-6.9-4.6-11.1-4.6s-8.1 1.6-11.1 4.6l-45.3 45.3-7.4 29.6 29.6-7.4 42.5-42.5 2.8-2.8c3-3 4.6-6.9 4.6-11.1 0-4.2-1.6-8.1-4.6-11.1zm-64 63.8l2.6-10 7.5 7.5-10.1 2.5zm58.7-47.6L124.9 94 114 83.1l41.2-41.2c1.4-1.2 3.2-1.9 5-1.9 2.1 0 4 .8 5.5 2.3s2.3 3.4 2.3 5.5c0 1.8-.7 3.6-1.9 5zM32 84h60v8H32zM32 104h40v8H32zM32 64h60v8H32z" fill="rgba(0,0,0,1)"/><path d="M152 128H62.5L40 147.3V128H24V52h97.1l8-8H16v92h16v28.7L65.5 136H160V82.9l-8 8z" fill="rgba(0,0,0,1)"/></svg>
