<?xml version="1.0" encoding="UTF-8"?>
<svg xmlns="http://www.w3.org/2000/svg" viewBox="0 0 192 192"><path d="M92 100H24V40h68v29.5l8 3.2V32H16v76h15.4L24 160h8l7.5-52h37l7.5 52h8l-7.4-52H100v-9.5l-8-3.2zm68.5-38.5c4.5-2.8 7.5-7.8 7.5-13.5 0-8.8-7.2-16-16-16s-16 7.2-16 16c0 5.7 3 10.7 7.5 13.5-5.9 2.2-10.9 6.8-13.5 12.9-1.1 2.5-9.4 23.2-9.7 24.1l7.4 3c3-7.4 8.8-22 9.6-23.9 2.5-5.8 8.3-9.6 14.7-9.6 8.8 0 16 7.2 16 16v20h-8v56h8v-48h8V84c0-10.3-6.5-19-15.5-22.5zM152 56c-4.4 0-8-3.6-8-8s3.6-8 8-8 8 3.6 8 8-3.6 8-8 8z" fill="rgba(0,0,0,1)"/><path d="M136 104h8v56h-8zM74.555 79.728l2.97-7.428 40.02 16.007-2.972 7.428z" fill="rgba(0,0,0,1)"/></svg>
