<?xml version="1.0" encoding="UTF-8"?>
<svg xmlns="http://www.w3.org/2000/svg" viewBox="0 0 192 192"><circle cx="56" cy="52" r="4" fill="rgba(0,0,0,1)"/><path d="M75.8 32.2l5.7-5.7c-14-14-36.9-14-50.9 0l5.7 5.7c10.8-10.9 28.6-10.9 39.5 0z" fill="rgba(0,0,0,1)"/><path d="M64.5 43.5l5.7-5.7C66.4 34.1 61.3 32 56 32s-10.4 2.1-14.1 5.9l5.7 5.7c2.3-2.3 5.3-3.5 8.5-3.5s6.1 1.1 8.4 3.4zM88 148h60V88H88v60zm8-52h44v44H96V96zM88 44h60v8H88z" fill="rgba(0,0,0,1)"/><path d="M160 15.9H81.3c3.2 2.3 6.1 5 8.6 8H160c4.4 0 8 3.6 8 8V160c0 4.4-3.6 8-8 8H76c-4.4 0-8-3.6-8-8V54.9c-.5 2.2-1.6 4.2-3.3 5.8-1.4 1.4-3 2.3-4.7 2.9V160c0 8.8 7.2 16 16 16h84c8.8 0 16-7.2 16-16V31.9c0-8.8-7.2-16-16-16z" fill="rgba(0,0,0,1)"/></svg>
