<?xml version="1.0" encoding="UTF-8"?>
<svg xmlns="http://www.w3.org/2000/svg" viewBox="0 0 192 192"><path d="M164 144c-4.8 0-8.9 2.8-10.8 6.9l-9.3-.9c-.6-5.9-3.8-11.1-8.5-14.4l2.9-7.7c.6.1 1.1.1 1.7.1 8.8 0 16-7.2 16-16s-7.2-16-16-16-16 7.2-16 16c0 5.4 2.7 10.2 6.8 13.1l-2.8 7.3c-1.3-.3-2.7-.4-4.1-.4-4.1 0-7.9 1.2-11 3.3l-6.2-6.2c.8-1.6 1.2-3.3 1.2-5.2 0-6.6-5.4-12-12-12s-12 5.4-12 12 5.4 12 12 12c1.8 0 3.6-.4 5.2-1.2l6.2 6.2c-2.1 3.2-3.3 6.9-3.3 11 0 .8.1 1.6.2 2.4l-6.7 2.2c-2.2-2.8-5.6-4.6-9.5-4.6-6.6 0-12 5.4-12 12s5.4 12 12 12c6.5 0 11.9-5.3 12-11.8l6.7-2.2c3.5 6 9.9 10 17.3 10 9 0 16.6-5.9 19.1-14.1l9.3.9c1.3 5.2 6 9.1 11.6 9.1 6.6 0 12-5.4 12-12 0-6.8-5-11.8-12-11.8zm-24-40c4.4 0 8 3.6 8 8s-3.6 8-8 8-8-3.6-8-8 3.6-8 8-8zm-52 64c-2.2 0-4-1.8-4-4s1.8-4 4-4 4 1.8 4 4-1.8 4-4 4zm8-40c-2.2 0-4-1.8-4-4s1.8-4 4-4 4 1.8 4 4-1.8 4-4 4zm28 36c-6.6 0-12-5.4-12-12s5.4-12 12-12 12 5.4 12 12-5.4 12-12 12zm40-4c-2.2 0-4-1.8-4-4s1.8-4 4-4c.9 0 4 .3 4 4 0 2.2-1.8 4-4 4z" fill="rgba(0,0,0,1)"/><path d="M85.9 144.1c-.6-.1-1.2-.1-1.9-.1H24V40h60c4.4 0 8 3.6 8 8v56.4c1.3-.3 2.6-.4 4-.4s2.7.1 4 .4V48c0-4.4 3.6-8 8-8h60v96.4c3 .6 5.7 1.8 8 3.4V32h-68c-4.8 0-9.1 2.1-12 5.5-2.9-3.3-7.2-5.5-12-5.5H16v120h56c3.3-4.3 8.2-7.3 13.9-7.9z" fill="rgba(0,0,0,1)"/></svg>
