<?xml version="1.0" encoding="UTF-8"?>
<svg xmlns="http://www.w3.org/2000/svg" viewBox="0 0 192 192"><path d="M56 64h8v8h-8zM56 80h8v8h-8zM56 96h8v8h-8zM104 84h8v8h-8zM104 104h8v8h-8z" fill="rgba(0,0,0,1)"/><path d="M176.3 153.7L138.6 35.6l-22.9 7.3 6.7 21.1H96V36H72v12H48V32H16v128h112V81.4l25.4 79.7 22.9-7.4zM120 72v64H96V72h24zM80 44h8v92h-8V44zm-40 92H24V56h16v80zm0-96v8H24v-8h16zM24 152v-8h16v8H24zm48 0H48V56h24v96zm8 0v-8h8v8h-8zm16 0v-8h24v8H96zm62.6-1l-2.4-7.6 7.6-2.4 2.4 7.6-7.6 2.4zm-4.9-15.3l-23.1-72.4 7.6-2.4 23.1 72.4-7.6 2.4zm-20.3-90.1l2.4 7.6-7.6 2.4-2.4-7.6 7.6-2.4z" fill="rgba(0,0,0,1)"/></svg>
