<?xml version="1.0" encoding="UTF-8"?>
<svg xmlns="http://www.w3.org/2000/svg" viewBox="0 0 192 192"><path d="M164 132h12v8h-12v-8zm-74.6 8h12v-8h-12v8zM136 96h-8v12h8V96zm-30.5 8.5l-5.7 5.7 8.7 8.7 5.7-5.7-8.7-8.7zm43.1 8.7l5.7 5.7 8.7-8.7-5.7-5.7-8.7 8.7zM124 176h16v-8h-16v8zm8-60c-5.9 0-11.4 2.3-15.6 6.4-8.6 8.6-8.6 22.5 0 31.1.6.6 1.2 1.1 1.8 1.6l.5.5c.2.2.4.3.7.5.2.1.4.3.6.4v3.4h8v-4c0-3.3-2.6-5.3-3.7-6.2-.1-.1-.2-.2-.3-.2l-.6-.5c-.5-.4-.9-.8-1.3-1.2-5.5-5.5-5.5-14.3 0-19.8 2.6-2.6 6.2-4.1 9.9-4.1s7.3 1.5 9.9 4.1c5.5 5.5 5.5 14.3 0 19.8-.4.4-.8.8-1.3 1.2l-.6.5c-.1.1-.2.1-.3.2-1.1.8-3.7 2.8-3.7 6.2v4h8v-3.4c.2-.1.4-.3.6-.4.3-.2.5-.4.7-.5l.5-.5c.6-.5 1.2-1 1.8-1.6 8.6-8.6 8.6-22.5 0-31.1-4.2-4.1-9.7-6.4-15.6-6.4zm-24-84c-4.8 0-9.1 2.1-12 5.5-2.9-3.3-7.2-5.5-12-5.5H16v120h64v-8H24V40h60c4.4 0 8 3.6 8 8v58.7l8-8V48c0-4.4 3.6-8 8-8h60v63.9l8 8.1V32h-68z" fill="rgba(0,0,0,1)"/></svg>
