<?xml version="1.0" encoding="UTF-8"?>
<svg xmlns="http://www.w3.org/2000/svg" viewBox="0 0 192 192"><path d="M148 128h-8v12h-12v8h12v12h8v-12h12v-8h-12z" fill="rgba(0,0,0,1)"/><path d="M144 112c-17.6 0-32 14.4-32 32s14.4 32 32 32 32-14.4 32-32-14.4-32-32-32zm0 56c-13.2 0-24-10.8-24-24s10.8-24 24-24 24 10.8 24 24-10.8 24-24 24z" fill="rgba(0,0,0,1)"/><path d="M112 168H48V32h12v62.5l20-10 20 10V32h44v72c2.7 0 5.4.3 8 .8V24h-52v-8H60v8H40v152h80c-3-2.3-5.7-5-8-8zM68 24h24v57.5l-12-6-12 6V24z" fill="rgba(0,0,0,1)"/></svg>
