<?xml version="1.0" encoding="UTF-8"?>
<svg xmlns="http://www.w3.org/2000/svg" viewBox="0 0 192 192"><path d="M153.2 105.2L96 162.3l-57.2-57.1-5.6 5.6L96 173.7l62.8-62.9z" fill="rgba(0,0,0,1)"/><path d="M133.6 84.9c0-5.6-1.5-10.7-4.3-14.6-3.4-4.6-7.1-7-14.6-9.1 9.7-4.3 13.8-10.5 13.8-20.5C128.4 24.5 118 16 98 16H64v96h37.9c19.6 0 31.7-10.3 31.7-27.1zM71.7 22.6h26.9c14.8 0 22 5.9 22 17.7 0 11.8-6.7 18.3-19.1 18.3H71.7v-36zm0 42.5h30.7c15.2 0 23.2 6.8 23.2 19.9 0 12.8-8.5 20.4-22.7 20.4H71.7V65.1z" fill="rgba(0,0,0,1)"/></svg>
