<?xml version="1.0" encoding="UTF-8"?>
<svg xmlns="http://www.w3.org/2000/svg" viewBox="0 0 192 192"><path d="M114.6 125.1c9.7-4.3 13.8-10.5 13.8-20.5C128.4 88.5 118 80 98 80H64v96h37.9c19.6 0 31.7-10.3 31.7-27.1 0-5.6-1.5-10.7-4.3-14.6-3.4-4.6-7.2-7-14.7-9.2zM71.7 86.6h26.9c14.8 0 22 5.9 22 17.7 0 11.8-6.7 18.3-19.1 18.3H71.7v-36zm31.2 82.8H71.7v-40.3h30.7c15.2 0 23.2 6.8 23.2 19.9 0 12.8-8.4 20.4-22.7 20.4z" fill="rgba(0,0,0,1)"/><path d="M96 18.3L33.2 81.2l5.6 5.6L96 29.7l57.2 57.1 5.6-5.6z" fill="rgba(0,0,0,1)"/></svg>
