<?xml version="1.0" encoding="UTF-8"?>
<svg xmlns="http://www.w3.org/2000/svg" viewBox="0 0 192 192"><circle cx="56" cy="52" r="4" fill="rgba(0,0,0,1)"/><path d="M75.8 32.2l5.7-5.7c-14-14-36.9-14-50.9 0l5.7 5.7c10.8-10.9 28.6-10.9 39.5 0z" fill="rgba(0,0,0,1)"/><path d="M64.5 43.5l5.7-5.7C66.4 34.1 61.3 32 56 32s-10.4 2.1-14.1 5.9l5.7 5.7c2.3-2.3 5.3-3.5 8.5-3.5s6.1 1.1 8.4 3.4zM176 68h-24v36h8v16c0 4.3-1.7 8.3-4.7 11.3s-7 4.7-11.3 4.7c-8.8 0-16-7.2-16-16V56c0-13.2-10.8-24-24-24-6.4 0-12.4 2.5-17 7-4.5 4.5-7 10.6-7 17v12H68v24.3C60.5 97 56 105.4 56 116v60h56v-60c0-10.6-4.5-18.9-12-23.7V68H88V56c0-4.3 1.7-8.3 4.7-11.3s7-4.7 11.3-4.7c8.8 0 16 7.2 16 16v64c0 13.2 10.8 24 24 24 6.4 0 12.4-2.5 17-7 4.5-4.5 7-10.6 7-17v-16h8V68zm-72 100H64v-52c0-12.3 7.7-20 20-20s20 7.7 20 20v52zM92 88.9c-2.5-.6-5.2-.9-8-.9s-5.5.3-8 .9V76h16v12.9zm76 7.1h-8V76h8v20z" fill="rgba(0,0,0,1)"/></svg>
