<?xml version="1.0" encoding="UTF-8"?>
<svg xmlns="http://www.w3.org/2000/svg" viewBox="0 0 192 192"><path d="M64 89.4v41.2l32 13.7 32-13.7V89.4L96 75.7 64 89.4zm49.8 2.7L96 99.7l-17.8-7.6L96 84.4l17.8 7.7zm-41.8 6l20 8.6v27.2l-20-8.6V98.1zm28 35.8v-27.2l20-8.6v27.2l-20 8.6zM58.4 144.3l-27 12 4.3-10.8-7.4-3-9.5 23.7 23.7 9.5 3-7.4-11.2-4.5 27.3-12.1zM92 33.7V64h8V33.7l9.2 9.1 5.6-5.6L96 18.3 77.2 37.2l5.6 5.6zM163.7 142.5l-7.4 3 4.3 10.8-27-12-3.2 7.4 27.3 12.1-11.2 4.5 3 7.4 23.7-9.5z" fill="rgba(0,0,0,1)"/></svg>
