<?xml version="1.0" encoding="UTF-8"?>
<svg xmlns="http://www.w3.org/2000/svg" viewBox="0 0 192 192"><path d="M128.6 52h12v8h-12zM54 52h12v8H54zM92 16h8v12h-8zM64.44 30.162l5.652-5.662 8.705 8.691-5.653 5.662zM113.139 33.136l8.697-8.697 5.657 5.657-8.698 8.697zM88 88h16v8H88zM96 36c-5.9 0-11.4 2.3-15.6 6.4-8.6 8.6-8.6 22.5 0 31.1.6.6 1.2 1.1 1.8 1.6l.5.5c.2.2.4.3.7.5.2.1.4.3.6.4V80h8v-4c0-3.3-2.6-5.3-3.7-6.2-.1-.1-.2-.2-.3-.2l-.6-.5c-.5-.4-.9-.8-1.3-1.2-5.5-5.5-5.5-14.3 0-19.8 2.6-2.6 6.2-4.1 9.9-4.1s7.3 1.5 9.9 4.1c5.5 5.5 5.5 14.3 0 19.8-.4.4-.8.8-1.3 1.2l-.6.5c-.1.1-.2.1-.3.2-1.1.8-3.7 2.8-3.7 6.2v4h8v-3.4c.2-.1.4-.3.6-.4.3-.2.5-.4.7-.5l.5-.5c.6-.5 1.2-1 1.8-1.6 8.6-8.6 8.6-22.5 0-31.1-4.2-4.2-9.7-6.5-15.6-6.5z" fill="rgba(0,0,0,1)"/><g><path fill="none" d="M90 114.2L37.8 96.8l-7.8 13 52.2 17.4zM100 126.4v36.1l52-17.4v-23.6l-45.8 15.3z"/><path fill="none" d="M40 121.6v23.6l52 17.3v-36.1l-6.2 10.4zM154.2 96.8L102 114.2l7.8 13 52.2-17.4z"/><path d="M158.7 88.7l-38.5-12.8c-.9 1.2-1.8 2.3-2.9 3.3-.4.4-.9.8-1.3 1.2v2.5l27.4 9.1L96 107.8 48.6 92 76 82.9v-2.5c-.4-.4-.9-.8-1.3-1.2-1-1.1-2-2.2-2.9-3.3L33.3 88.7 18 114.2l14 4.7V151l64 21.2 64-21.3v-32l14-4.7-15.3-25.5zM30 109.8l7.8-13L90 114.2l-7.8 13L30 109.8zm62 52.7l-52-17.3v-23.6l45.7 15.2 6.2-10.4v36.1zm60-17.4l-52 17.3v-36l6.2 10.4 45.8-15.3v23.6zm-42.2-17.9l-7.8-13 52.2-17.4 7.8 13-52.2 17.4z" fill="rgba(0,0,0,1)"/></g></svg>
