<?xml version="1.0" encoding="UTF-8"?>
<svg xmlns="http://www.w3.org/2000/svg" viewBox="0 0 192 192"><path d="M92.8 110c0-4.9 1.4-7.2 6.2-10.6 3.7-2.6 5-4.5 5-7.4 0-3.8-2.8-6.3-6.8-6.3-4.6 0-7.3 2.4-8.4 7.4l-6.2-1.2c.9-3.9 2.1-6.3 4.7-8.5S93.5 80 97.6 80c8.2 0 13.6 4.7 13.6 11.7 0 4.9-1.8 7.5-7.8 11.5-3.5 2.4-4.3 3.7-4.3 7.4v2.4h-6.2v-3zm7.8 13.2c0 2.6-2.2 4.8-4.8 4.8-2.6 0-4.8-2.2-4.8-4.8 0-2.6 2.2-4.8 4.9-4.8 2.5 0 4.7 2.2 4.7 4.8z" fill="rgba(0,0,0,1)"/><path fill="none" d="M137.2 61.3L96 40.5l-15.3 7.7 39.9 22z"/><path d="M96 31.5L40 59.8v71.4l56 29.4 56-29.4V59.8L96 31.5zm0 9l41.2 20.8-16.6 8.9-39.9-22L96 40.5zm48 85.8l-44 23.1v-14.1c-1.3.5-2.7.7-4.2.7-1.3 0-2.6-.2-3.8-.6v14l-44-23.1V66.7l29.6 15.9c1.1-1.8 2.5-3.5 4.4-5.1l1.2-.9-28.4-15.3L72 52.6l40.2 22.1c3.3 2.8 3.8 4.8 4.2 6.8L144 66.7v59.6z" fill="rgba(0,0,0,1)"/></svg>
