<?xml version="1.0" encoding="UTF-8"?>
<svg xmlns="http://www.w3.org/2000/svg" viewBox="0 0 192 192"><path d="M96 47.6L40 73.4V80h3.1L92 102.6v58.8l-44-23.1V136h-8v7.1l56 29.4 56-29.4V73.4L96 47.6zM138.5 76l-15.9 7.3-39.4-21L96 56.4 138.5 76zM96 95.6L53.5 76 74 66.5l39.4 21L96 95.6zm4 65.8v-58.8l44-20.3v56.1l-44 23z" fill="rgba(0,0,0,1)"/><path d="M16 88h32v8H16zM16 120h32v8H16zM24 104h24v8H24z" fill="rgba(0,0,0,1)"/><circle cx="56" cy="52" r="4" fill="rgba(0,0,0,1)"/><path d="M75.8 32.2l5.7-5.7c-14-14-36.9-14-50.9 0l5.7 5.7c10.8-10.9 28.6-10.9 39.5 0z" fill="rgba(0,0,0,1)"/><path d="M70.1 37.9C66.4 34.1 61.3 32 56 32s-10.4 2.1-14.1 5.9l5.7 5.7c2.3-2.3 5.3-3.5 8.5-3.5s6.2 1.2 8.5 3.5l5.5-5.7z" fill="rgba(0,0,0,1)"/></svg>
