<?xml version="1.0" encoding="UTF-8"?>
<svg xmlns="http://www.w3.org/2000/svg" viewBox="0 0 192 192"><path d="M96 64c-17.6 0-32 14.4-32 32s14.4 32 32 32 32-14.4 32-32-14.4-32-32-32zm0 56c-13.2 0-24-10.8-24-24s10.8-24 24-24 24 10.8 24 24-10.8 24-24 24z" fill="rgba(0,0,0,1)"/><path d="M176 96c0-44.1-35.9-80-80-80h-4v12.1C56.4 30.2 28 59.8 28 96c0 37.5 30.5 68 68 68 36.2 0 65.8-28.4 67.9-64H176v-4zm-80 60c-33.1 0-60-26.9-60-60 0-31.7 24.8-57.8 56-59.9V52h4c24.3 0 44 19.7 44 44v4h15.9c-2.1 31.2-28.2 56-59.9 56zm51.8-64c-1.9-25.5-22.4-45.9-47.8-47.8v-20c36.5 2 65.9 31.4 67.9 67.9h-20.1z" fill="rgba(0,0,0,1)"/><circle cx="96" cy="84" r="4" fill="rgba(0,0,0,1)"/><circle cx="108" cy="96" r="4" fill="rgba(0,0,0,1)"/><circle cx="96" cy="108" r="4" fill="rgba(0,0,0,1)"/><circle cx="84" cy="96" r="4" fill="rgba(0,0,0,1)"/></svg>
