<?xml version="1.0" encoding="UTF-8"?>
<svg xmlns="http://www.w3.org/2000/svg" viewBox="0 0 192 192"><path d="M147.8 128H160v-4c0-35.3-28.7-64-64-64h-4v12.2c-26.8 2-48 24.5-48 51.8 0 28.7 23.3 52 52 52 27.3 0 49.8-21.2 51.8-48zM100 68.1c27.7 2 49.9 24.2 51.9 51.9h-16.1c-1.9-18.9-16.9-33.9-35.8-35.8V68.1zM52 124c0-22.9 17.6-41.8 40-43.8V92h4c17.6 0 32 14.4 32 32v4h11.8c-2 22.4-20.9 40-43.8 40-24.3 0-44-19.7-44-44z" fill="rgba(0,0,0,1)"/><path d="M112 124c0-8.8-7.2-16-16-16s-16 7.2-16 16 7.2 16 16 16 16-7.2 16-16zm-24 0c0-4.4 3.6-8 8-8s8 3.6 8 8-3.6 8-8 8-8-3.6-8-8zM92 44v8h8v-8l8-8-12-12-12 12zM153.1 57.5c-.3 1.7-.8 3.4-1.5 5l7.4 3c.9-2.1 1.5-4.3 1.9-6.5l-7.8-1.5zM141.1 28.6l4.4-6.7c-2-1.3-4.1-2.4-6.3-3.3-2.2-.9-4.5-1.6-6.8-2l-1.5 7.9c1.8.3 3.5.9 5.3 1.6 1.7.7 3.4 1.5 4.9 2.5zM119.9 24.6l-1.7-7.8c-4.6 1-9.1 2.9-13 5.6l4.5 6.6c3.1-2.2 6.6-3.6 10.2-4.4zM161 44.9c-.9-4.7-2.8-9.1-5.4-13l-6.6 4.5c2.1 3.1 3.5 6.5 4.2 10.1l7.8-1.6zM40.4 62.5c-.7-1.7-1.2-3.3-1.5-5L31 59c.4 2.2 1.1 4.3 1.9 6.5l7.5-3zM55.8 26c1.7-.7 3.5-1.2 5.3-1.6l-1.5-7.9c-2.3.4-4.6 1.1-6.8 2-2.2.9-4.3 2-6.3 3.3l4.4 6.7c1.5-.9 3.2-1.7 4.9-2.5zM43.1 36.3l-6.6-4.5c-2.7 3.9-4.5 8.4-5.4 13l7.8 1.6c.7-3.5 2.2-7 4.2-10.1zM86.7 22.3c-3.9-2.7-8.3-4.6-13-5.6L72 24.5c3.6.8 7.1 2.2 10.1 4.3l4.6-6.5z" fill="rgba(0,0,0,1)"/></svg>
