<?xml version="1.0" encoding="UTF-8"?>
<svg xmlns="http://www.w3.org/2000/svg" viewBox="0 0 192 192"><path d="M92 20h8v28h-8zM148 96h28v8h-28zM16 96h28v8H16zM33.2 46.858l5.658-5.657 20.01 20.011-5.656 5.657zM133.2 61.142l20.011-20.01 5.657 5.656L138.857 66.8zM100 158.3V100h-8v58.3l-13.2-13.1-5.6 5.6L96 173.7l22.8-22.9-5.6-5.6z" fill="rgba(0,0,0,1)"/><path d="M96 56c-24.3 0-44 20-44 44.6 0 6.6 1.6 13.2 4.9 19.8l7.2-3.5c-2.7-5.5-4-11-4-16.3C60 80.4 76.1 64 96 64s36 16.4 36 36.6c0 5.3-1.4 10.8-4 16.3l7.2 3.5c3.2-6.6 4.9-13.2 4.9-19.8C140 76 120.3 56 96 56z" fill="rgba(0,0,0,1)"/></svg>
