<?xml version="1.0" encoding="UTF-8"?>
<svg xmlns="http://www.w3.org/2000/svg" viewBox="0 0 192 192"><circle cx="40" cy="80" r="4" fill="rgba(0,0,0,1)"/><circle cx="124" cy="64" r="4" fill="rgba(0,0,0,1)"/><circle cx="20" cy="120" r="4" fill="rgba(0,0,0,1)"/><circle cx="148" cy="36" r="4" fill="rgba(0,0,0,1)"/><circle cx="172" cy="88" r="4" fill="rgba(0,0,0,1)"/><circle cx="92" cy="48" r="4" fill="rgba(0,0,0,1)"/><path d="M72.4 103.2H51.8V42.3c0-5.7 4.6-10.3 10.3-10.3s10.3 4.6 10.3 10.3v60.9zm-12.6-8h4.6V42.3c0-1.3-1-2.3-2.3-2.3s-2.3 1-2.3 2.3v52.9z" fill="rgba(0,0,0,1)"/><path d="M88.2 118.9H36v-4c0-11.1 11.5-19.8 26.1-19.8 14.6 0 26.1 8.7 26.1 19.8v4zm-43.1-8h34c-2.6-4.5-9.3-7.8-17-7.8-7.7.1-14.4 3.4-17 7.8z" fill="rgba(0,0,0,1)"/><path d="M105.8 160H18.4l17.9-46.5 7.4 2.9L30 152h64.2l-13.7-35.6 7.4-2.9z" fill="rgba(0,0,0,1)"/><path d="M58.1 133.9h8V156h-8zM73.9 133.9h8v21.3h-8zM42.3 133.9h8V156h-8zM159.5 113.4v-1.2c0-13.3-10.8-24.2-24-24.2-7.3 0-14.2 3.4-18.7 9-1.4-.4-2.9-.5-4.5-.5-7.7 0-14.4 4.7-17.3 11.5.4 1.4.8 2.9.9 4.4l2.3 5.9 3.1-.2.2-3.5c.4-5.7 5.1-10.1 10.7-10.1 1.5 0 3 .3 4.4.9l3.3 1.5 1.8-3.1c2.9-4.9 8.1-7.8 13.7-7.8 8.8 0 16 7.3 16 16.2 0 .9-.1 1.8-.2 2.8l-.5 3 2.8 1.3c3.9 1.7 6.4 5.6 6.4 9.9 0 6-4.8 10.9-10.7 10.9h-42.6l3.1 8h39.5c10.3 0 18.7-8.5 18.7-18.9.1-6.5-3.1-12.4-8.4-15.8z" fill="rgba(0,0,0,1)"/></svg>
