<?xml version="1.0" encoding="UTF-8"?>
<svg xmlns="http://www.w3.org/2000/svg" viewBox="0 0 192 192"><path d="M155.5 36.5c-2.9-2.9-6.8-4.5-10.9-4.5s-8 1.6-10.9 4.5l-60.9 61-11.3 18.9c-5.8-1.2-12.1.4-16.6 4.9-3.1 3.1-5.3 6.8-6.1 10.2-1.1 4-6.6 23.1-6.6 23.3l-2 7 7-2c.2-.1 19.3-5.6 23.3-6.6 3.5-.8 7.2-3 10.2-6.1 4.5-4.5 6.1-10.8 4.9-16.6l18.9-11.3 61-60.9c2.9-2.9 4.5-6.8 4.5-10.9s-1.6-8-4.5-10.9zM65 141.5c-2 2-4.4 3.5-6.5 4h-.1c-2.5.6-10.6 3-16.6 4.7 1.7-6 4.1-14.1 4.7-16.6v-.1c.5-2 2-4.5 4-6.5s4.6-3 7.2-3c2.6 0 5.2 1 7.2 3 4.1 4 4.1 10.5.1 14.5zm5.7-20.2c-.6-.6-1.2-1.1-1.8-1.6l8-13.3 8.8 8.8-13.3 8c-.6-.7-1.2-1.3-1.7-1.9zm79.1-68.7L92 110.3 81.7 100l57.7-57.8c1.4-1.4 3.2-2.2 5.2-2.2s3.8.8 5.2 2.2c1.4 1.4 2.2 3.2 2.2 5.2s-.8 3.8-2.2 5.2z" fill="rgba(0,0,0,1)"/></svg>
