<?xml version="1.0" encoding="UTF-8"?>
<svg xmlns="http://www.w3.org/2000/svg" viewBox="0 0 192 192"><path d="M167 68H24.2c-4.5 0-8.2 3.6-8.2 8v48c0 4.4 3.7 8 8.2 8H34c1.8 2.4 4.7 4 8 4s6.2-1.6 8-4h96c1.8 2.4 4.7 4 8 4s6.2-1.6 8-4h6c4.5 0 8-3.5 8-8V99.4L167 68zm-.3 28H152V76h9l5.7 20zM144 124h-12V76h12v48zm-20-32H80V76h44v16zm0 8v24H80v-24h44zM24.2 76H52v16H24V76.1s0-.1.2-.1zm-.2 48v-24h28v24h-.2c-.9-4.6-5-8-9.8-8s-8.9 3.4-9.8 8h-8c-.1 0-.2-.1-.2 0zm36 0V76h12v48H60zm103.8 0c-.9-4.6-5-8-9.8-8-.7 0-1.4.1-2 .2V104h16v20h-4.2z" fill="rgba(0,0,0,1)"/></svg>
