<?xml version="1.0" encoding="UTF-8"?>
<svg xmlns="http://www.w3.org/2000/svg" viewBox="0 0 192 192"><path d="M75.2 118c-3.6-.5-13.2-2-13.2-2h-.6c-5.2 0-9.4 4.9-9.4 11v2c0 6.1 4.2 11 9.4 11h13.2c5.2 0 9.4-4.9 9.4-11 0-5.9-3.4-10.1-8.8-11zm-.6 14H61.4c-.4 0-1.4-1.1-1.4-3v-2c0-1.7.8-2.8 1.3-3 2 .3 9.6 1.5 12.7 1.9.9.1 2 .3 2 3 0 2-1 3.1-1.4 3.1zM130.6 116h-.6s-9.5 1.5-13.2 2c-5.4.8-8.8 5-8.8 11 0 6.1 4.2 11 9.4 11h13.2c5.2 0 9.4-4.9 9.4-11v-2c0-6.1-4.2-11-9.4-11zm1.4 13c0 1.9-1 3-1.4 3h-13.2c-.4 0-1.4-1.1-1.4-3 0-2.7 1.2-2.9 2-3 3.1-.5 10.7-1.6 12.7-1.9.5.2 1.3 1.3 1.3 3v1.9z" fill="rgba(0,0,0,1)"/><path d="M160 40c-2.3 0-4.2.6-5.8 1.4-1-4.4-2.6-8.7-5-11.8-4.4-6.3-14.9-10.5-31.1-12.5C107 15.8 97.2 16 96 16c-1.2 0-11-.2-22.1 1.2-16.2 2-26.7 6.2-31.1 12.5-2.4 3.1-4 7.4-5 11.8-1.6-.9-3.5-1.5-5.8-1.5-5.9 0-12 4.6-12 12.3v23.4c0 2.4 1.9 4.3 4.3 4.3H36v74c0 14.5 2.1 18.5 4 20.3 1.1 1.1 2.5 1.7 4 1.7h11c7 0 8.7-9.6 9-20h64c.3 10.4 1.9 20 9 20h11c1.5 0 2.9-.6 4-1.7 1.9-1.8 4-5.8 4-20.3V80h11.7c2.4 0 4.3-1.9 4.3-4.3V52.3c0-7.7-6.1-12.3-12-12.3zM49.2 34.5l.1-.2C55 26.1 80.9 23.7 95.9 24h.2c15-.4 41 2.1 46.6 10.3l.1.2c3.8 4.9 5 15.7 5.2 23V70c0 6.8-4.7 12.8-12.1 15.7C119.5 91.9 96.2 92 96 92c-.2 0-23.5-.1-39.9-6.3C48.7 82.8 44 76.9 44 70V56.6c.3-7.3 1.5-17.4 5.2-22.1zM28 72V52.3c0-3.1 2.4-4.3 4-4.3 3 0 3.8 2.6 4 3.6v4.6c-.1 3.5 0 6.2 0 7V72h-8zm118.7 96H138c-.6-1.1-1.9-4.9-1.9-16v-4H56v4c0 11.1-1.3 14.9-1.9 16h-8.7c-.5-1.4-1.3-5-1.3-14V87.6c2.6 2.3 5.7 4.2 9.3 5.6C71.1 99.9 95 100 96 100s24.9-.1 42.7-6.8c3.6-1.4 6.7-3.3 9.3-5.6V154c0 9-.9 12.6-1.3 14zM164 72h-8V63.1c0-.8.1-3.5 0-7v-4.6c.2-1.1 1.1-3.6 4-3.6 1.6 0 4 1.1 4 4.3V72z" fill="rgba(0,0,0,1)"/></svg>
