<?xml version="1.0" encoding="UTF-8"?>
<svg xmlns="http://www.w3.org/2000/svg" viewBox="0 0 192 192"><path d="M96 176c-20.5 0-41-7.8-56.6-23.4-31.2-31.2-31.2-81.9 0-113.1 31.2-31.2 81.9-31.2 113.1 0 31.2 31.2 31.2 81.9 0 113.1C137 168.2 116.5 176 96 176zm0-152c-19.2 0-37.3 7.5-50.9 21.1-28.1 28.1-28.1 73.7 0 101.8C58.7 160.5 76.8 168 96 168s37.3-7.5 50.9-21.1c28.1-28.1 28.1-73.8 0-101.8C133.3 31.5 115.2 24 96 24zM56.8 67c-1-1.6-2.2-2-4.3-2-1.9 0-2.9.6-2.9 1.8 0 1.1.8 1.7 3.3 2.1 3.6.7 5.1 1.1 6.5 2 1.9 1.2 2.8 2.9 2.8 5.5 0 4.9-3.3 7.6-9.3 7.6-5 0-8.3-1.3-10.2-4.7l5.4-2.6c.9 1.9 2.3 2.4 4.6 2.4 2.1 0 3.4-.7 3.4-2 0-1.1-.9-1.7-3.3-2.2-3.4-.6-4.7-1-6-1.8-2.1-1.2-3.1-3-3.1-5.7 0-4.6 3.3-7.4 8.8-7.4 4.3 0 7.4 1.3 9.3 4.4l-5 2.6zm7.4-1.5v-5.1h18.9v5.1h-6.2v18.1h-6.4V65.5h-6.3zm23.4 18.1h-5.9l8.4-23.2h7.5l8.2 23.2H99l-1.3-3.9h-8.9l-1.2 3.9zm2.8-8.5h6l-3-9.1-3 9.1zm28.9-14.7c5.3 0 8.4 2.5 8.4 6.8 0 3.2-1.2 4.9-4.1 5.9 2.3.7 3 1.7 3.8 5.7.7 2.9 1.1 4.1 1.5 4.7v.1h-6.6c-.5-.9-1-2.5-1.5-4.6-.6-3-1.2-3.7-3.1-3.7h-3v8.2h-6.4V60.4h11zm-.8 10.4c2 0 3.1-1 3.1-2.8 0-.9-.3-1.7-.8-2.1-.6-.5-1.1-.6-2.5-.6H115v5.5h3.5zm11.9-5.3v-5.1h18.9v5.1H143v18.1h-6.4V65.5h-6.2zM152 92H40v8h112v-8zm-86 23c-1-1.6-2.2-2-4.3-2-1.9 0-2.9.6-2.9 1.8 0 1.1.8 1.7 3.3 2.1 3.6.7 5.1 1.1 6.5 2 2 1.2 2.8 2.9 2.8 5.5 0 4.9-3.3 7.6-9.4 7.6-5 0-8.3-1.3-10.2-4.7l5.4-2.6c.9 1.9 2.3 2.4 4.7 2.4 2.1 0 3.4-.7 3.4-2 0-1.1-.9-1.7-3.3-2.2-3.4-.7-4.7-1-6-1.8-2.1-1.2-3.1-3-3.1-5.7 0-4.6 3.3-7.4 8.8-7.4 4.3 0 7.4 1.3 9.3 4.4l-5 2.6zm7.4-1.5v-5.1h18.9v5.1h-6.2v18.1h-6.4v-18.1h-6.3zm43.5 6.5c0 7.2-4.6 12-11.5 12s-11.5-4.8-11.5-12c0-3.7 1.3-7 3.7-9.2 2.1-2 4.7-2.9 8-2.9 6.7.1 11.3 5 11.3 12.1zm-16.4 0c0 4.5 1.7 6.9 4.9 6.9s4.9-2.4 4.9-6.8c0-4.6-1.7-6.9-5-6.9-3.1-.1-4.8 2.4-4.8 6.8zm30.9-11.6c5.5 0 8.7 2.9 8.7 7.8 0 4.7-3.2 7.5-8.4 7.5h-4.4v7.9h-6.4v-23.3h10.5zm-.6 10.7c2 0 3.2-1 3.2-3s-1.1-2.9-3.1-2.9h-3.5v5.9h3.4z" fill="rgba(0,0,0,1)"/></svg>
