<?xml version="1.0" encoding="UTF-8"?>
<svg xmlns="http://www.w3.org/2000/svg" viewBox="0 0 192 192"><path d="M140 120h-16v-16h8v-8h-8V80h8v-8h-8V56h8v-8h-8.3c-.7-4.7-2.5-9.1-5.3-12.8l6.4-6.4-5.7-5.7-6.4 6.4c-3.7-2.7-8-4.6-12.8-5.3V16h-8v8.3c-4.7.7-9.1 2.5-12.8 5.3l-6.4-6.4-5.7 5.7 6.4 6.4c-2.7 3.7-4.6 8-5.3 12.8H60v8h8v16h-8v8h8v16h-8v8h8v16H52v24h8.5l4 32h63.1l4-32h8.5V120zm-40-87.6c9.1 1.9 16 9.9 16 19.6v68h-16V32.4zM76 52c0-9.7 6.9-17.7 16-19.6V120H76V52zm-16 76h72v8H60v-8zm60.5 40h-49l-3-24h54.9l-2.9 24z" fill="rgba(0,0,0,1)"/></svg>
