<?xml version="1.0" encoding="UTF-8"?>
<svg xmlns="http://www.w3.org/2000/svg" viewBox="0 0 192 192"><path d="M132 151c-10.5 0-19-8.5-19-19s8.5-19 19-19 19 8.5 19 19-8.5 19-19 19zm0-30c-6.1 0-11 4.9-11 11s4.9 11 11 11 11-4.9 11-11-4.9-11-11-11zm0 55c-2.3 0-4.6-.2-6.9-.6l-2.6-.4-2.5-9.5c-1.1-.4-2.1-.8-3.2-1.3l-8.5 5-2.1-1.5c-3.8-2.7-7.1-6-9.8-9.8l-1.5-2.1 5-8.5c-.5-1-.9-2.1-1.3-3.2l-9.5-2.5-.4-2.6c-.4-2.3-.6-4.6-.6-6.9s.2-4.6.6-6.9l.4-2.6 9.5-2.5c.4-1.1.8-2.1 1.3-3.2l-5-8.5 1.5-2.1c2.7-3.8 6-7.1 9.8-9.8l2.1-1.5 8.5 5c1-.5 2.1-.9 3.2-1.3l2.5-9.5 2.6-.4c4.6-.7 9.3-.7 13.9 0l2.6.4 2.5 9.5c1.1.4 2.1.8 3.2 1.3l8.5-5 2.1 1.5c3.8 2.7 7.1 6 9.8 9.8l1.5 2.1-5 8.5c.5 1 .9 2.1 1.3 3.2l9.5 2.5.4 2.6c.4 2.3.6 4.6.6 6.9s-.2 4.6-.6 6.9l-.4 2.6-9.5 2.5c-.4 1.1-.8 2.1-1.3 3.2l5 8.5-1.5 2.1c-2.7 3.8-6 7.1-9.8 9.8l-2.1 1.5-8.5-5c-1 .5-2.1.9-3.2 1.3l-2.5 9.5-2.6.4c-2.4.4-4.7.6-7 .6zm-3.1-8.1c2.1.2 4.2.2 6.3 0l2.3-8.7 2.2-.6c2-.6 4-1.4 5.8-2.4l2-1.1 7.8 4.6c1.6-1.3 3.1-2.8 4.4-4.4l-4.6-7.8 1.1-2c1-1.8 1.8-3.8 2.4-5.8l.6-2.2 8.7-2.3c.1-1 .1-2.1.1-3.1s0-2.1-.1-3.1l-8.7-2.3-.6-2.2c-.6-2-1.4-4-2.4-5.8l-1.1-2 4.6-7.8a30.5 30.5 0 0 0-4.4-4.4l-7.8 4.6-2-1.1c-1.8-1-3.8-1.8-5.8-2.4l-2.2-.6-2.3-8.7c-2.1-.2-4.2-.2-6.3 0l-2.3 8.7-2.2.6c-2 .6-4 1.4-5.8 2.4l-2 1.1-7.8-4.6a30.5 30.5 0 0 0-4.4 4.4l4.6 7.8-1.1 2c-1 1.8-1.8 3.8-2.4 5.8l-.6 2.2-8.7 2.3c-.1 1-.1 2.1-.1 3.1s0 2.1.1 3.1l8.7 2.3.6 2.2c.6 2 1.4 4 2.4 5.8l1.1 2-4.6 7.8c1.3 1.6 2.8 3.1 4.4 4.4l7.8-4.6 2 1.1c1.8 1 3.8 1.8 5.8 2.4l2.2.6 2.3 8.7zM83 152H24V72h144v22.5c2.2 2.1 4.3 4.5 6.1 7l1.9 2.6V32h-40V20h-8v12H64V20h-8v12H16v128h72.3l-5.3-8zM24 40h32v7h8v-7h64v7h8v-7h32v24H24V40z" fill="rgba(0,0,0,1)"/></svg>
