<?xml version="1.0" encoding="UTF-8"?>
<svg xmlns="http://www.w3.org/2000/svg" viewBox="0 0 192 192"><path d="M136 32V20h-8v12H64V20h-8v12H16v128h91.3c-1.1-2.5-2-5.2-2.5-8H24V72h144v40c3 2.3 5.7 5 8 8V32h-40zM24 64V40h32v7h8v-7h64v7h8v-7h32v24H24z" fill="rgba(0,0,0,1)"/><path d="M144 176c-17.6 0-32-14.4-32-32s14.4-32 32-32 32 14.4 32 32-14.4 32-32 32zm0-56c-13.2 0-24 10.8-24 24s10.8 24 24 24 24-10.8 24-24-10.8-24-24-24z" fill="rgba(0,0,0,1)"/><path d="M156 148h-16v-20h8v12h8z" fill="rgba(0,0,0,1)"/></svg>
