<?xml version="1.0" encoding="UTF-8"?>
<svg xmlns="http://www.w3.org/2000/svg" viewBox="0 0 192 192"><path d="M136 32V20h-8v12H64V20h-8v12H16v128h91.3c-1.1-2.5-2-5.2-2.5-8H24V72h144v40c3 2.3 5.7 5 8 8V32h-40zM24 64V40h32v7h8v-7h64v7h8v-7h32v24H24z" fill="rgba(0,0,0,1)"/><path d="M144 112c-17.6 0-32 14.4-32 32s14.4 32 32 32 32-14.4 32-32-14.4-32-32-32zm0 56c-13.2 0-24-10.8-24-24s10.8-24 24-24 24 10.8 24 24-10.8 24-24 24z" fill="rgba(0,0,0,1)"/><path d="M155.9 132.5l-3.2 1.8c-1.3-1.2-2.9-2.2-4.7-2.7V128h-8v3.6c-1.8.6-3.4 1.5-4.7 2.7l-3.2-1.8-4 6.9 3.1 1.8c-.2.9-.3 1.8-.3 2.7s.1 1.8.3 2.7l-3.1 1.8 4 6.9 3.2-1.8c1.3 1.2 2.9 2.2 4.7 2.7v3.6h8v-3.6c1.8-.6 3.4-1.5 4.7-2.7l3.2 1.8 4-6.9-3.1-1.8c.2-.9.3-1.8.3-2.7s-.1-1.8-.3-2.7l3.1-1.8-4-6.9zM144 149c-2.8 0-5-2.2-5-5s2.2-5 5-5 5 2.2 5 5-2.2 5-5 5z" fill="rgba(0,0,0,1)"/></svg>
