<?xml version="1.0" encoding="UTF-8"?>
<svg xmlns="http://www.w3.org/2000/svg" viewBox="0 0 192 192"><path fill="none" stroke="rgba(0,0,0,1)" stroke-width="8" stroke-miterlimit="10" d="M76.6 147.4c26 26 52.1 24.6 52.1 24.6 1.4 0 2.6-.5 3.5-1.4l2.3-2.3 8.1-8.1c1.9-1.9 1.9-5 0-6.9l-13.9-13.9c-1.9-1.9-5-1.9-6.9 0l-8.1 8.1h0c-.9.9-2.1 1.4-3.5 1.4 0 0-8.1.9-22-13s-13-22-13-22c0-1.4.5-2.6 1.4-3.5h0l8.1-8.1c1.9-1.9 1.9-5 0-6.9l-13.9-14c-1.9-1.9-5-1.9-6.9 0l-8.1 8.1-2.3 2.3c-.9.9-1.5 2.2-1.5 3.5 0 0-1.4 26.1 24.6 52.1z"/><circle fill="none" cx="42" cy="56" r="8"/><circle fill="none" cx="150" cy="56" r="8"/><circle fill="none" cx="96" cy="40" r="16"/><path d="M106.5 61.6c8-3.9 13.5-12.1 13.5-21.6 0-13.2-10.8-24-24-24S72 26.8 72 40c0 9.5 5.5 17.7 13.5 21.6-4.9 1.5-9.3 4-13 7.2 2.5.8 4.8 2.1 6.8 4.1l.4.4C84.2 70 89.9 68 96 68c15.4 0 28 12.6 28 28h8c0-16.2-10.7-29.9-25.5-34.4zM80 40c0-8.8 7.2-16 16-16s16 7.2 16 16-7.2 16-16 16-16-7.2-16-16zM56.2 72.2c-1.8-1.1-3.6-2.1-5.6-2.8C55 66.6 58 61.7 58 56c0-8.8-7.2-16-16-16s-16 7.2-16 16c0 5.7 3 10.6 7.4 13.5C23.3 73 16 82.7 16 94v2h8v-2c0-9.9 8.1-18 18-18 2.9 0 5.8.7 8.3 2.1l5.2-5.2.7-.7zM42 64c-4.4 0-8-3.6-8-8s3.6-8 8-8 8 3.6 8 8-3.6 8-8 8zM158.6 69.5c4.4-2.8 7.4-7.8 7.4-13.5 0-8.8-7.2-16-16-16s-16 7.2-16 16c0 5.7 3 10.6 7.4 13.5-2.7 1-5.3 2.4-7.5 4.2 1.4 2.4 2.6 4.9 3.5 7.5 3.3-3.3 7.9-5.1 12.6-5.1 9.9 0 18 8.1 18 18v2h8v-2c0-11.4-7.3-21.1-17.4-24.6zM150 64c-4.4 0-8-3.6-8-8s3.6-8 8-8 8 3.6 8 8-3.6 8-8 8z" fill="rgba(0,0,0,1)"/></svg>
