<?xml version="1.0" encoding="UTF-8"?>
<svg xmlns="http://www.w3.org/2000/svg" viewBox="0 0 192 192"><path d="M172.45 138.09l-22.62-22.54a12.11 12.11 0 0 0-17.08 0l-15.84 15.3a4.08 4.08 0 0 1-2.67 1.2c-1.37-.26-11.94-2.87-31.65-22.58S60.27 79.13 60 77.76a4 4 0 0 1 1.15-2.63l15.3-14.83a12.11 12.11 0 0 0 .07-17.06L53.91 19.55a12.13 12.13 0 0 0-17.13 0L19.57 36.76A12 12 0 0 0 16 45.21c-.14 3-1.33 45.86 41.79 89C97.32 173.69 136.58 176 145.21 176h1.58a12 12 0 0 0 8.45-3.55l17.21-17.21a12.11 12.11 0 0 0 0-17.13zm-5.65 11.48l-17.21 17.21a4.08 4.08 0 0 1-2.91 1.2h-.22c-.41 0-41.71 1.83-83-39.45C22.36 87.42 24 45.95 24 45.54v-.22a4.08 4.08 0 0 1 1.2-2.91L42.44 25.2a4.1 4.1 0 0 1 5.75-.07l22.61 23.7a4.11 4.11 0 0 1 0 5.77L55.55 69.44A12 12 0 0 0 52 78v.29c.09 1.31 1.6 13.46 24.92 36.78S112.4 139.9 113.71 140h.29a12 12 0 0 0 8.51-3.5l15.84-15.3a4.11 4.11 0 0 1 5.82 0l22.62 22.54a4.11 4.11 0 0 1 0 5.81z" fill="rgba(0,0,0,1)"/><path d="M97.44 76.93l5.12 6.15L120 68.54v34.93l34.68-23.12L130.25 60l24.43-20.36L120 16.53v35l-17.7-14.6-5.09 6.17L117.73 60zM128 88.53v-20l13.32 11.1zm0-37.07v-20l13.32 8.88z" fill="rgba(0,0,0,1)"/></svg>
