<?xml version="1.0" encoding="UTF-8"?>
<svg xmlns="http://www.w3.org/2000/svg" viewBox="0 0 192 192"><circle fill="none" cx="144" cy="144" r="32"/><path d="M68.7 99.3C38.8 69.3 39.9 39.2 40 38.9v-.2c0-.7.4-1.2.6-1.4l12.7-12.7c.8-.8 2-.8 2.8 0L73 41.5c.8.8.8 2 0 2.8l-9.9 9.9c-1.8 1.8-2.9 4.3-2.9 6.9-.1 2.1.2 12.9 17 29.8 16.8 16.8 27.6 17.1 29.8 17 2.6 0 5.1-1.1 6.9-2.9l9.9-9.9c.5-.5 1.1-.6 1.4-.6.3 0 .9.1 1.4.6l9.7 9.7c2.5-.5 5.1-.8 7.8-.8.9 0 1.9 0 2.8.1l-14.7-14.7c-1.9-1.9-4.4-2.9-7.1-2.9-2.7 0-5.2 1-7.1 2.9l-9.9 9.9c-.2.2-.7.6-1.4.6h-.4c-.8 0-9.3-.5-23.6-14.7-14-14.2-14.5-22.7-14.6-23.6v-.4c0-.7.4-1.2.6-1.4l9.9-9.9c3.9-3.9 3.9-10.2 0-14.1L61.7 18.9c-3.9-3.9-10.2-3.9-14.1 0L34.9 31.6c-1.9 1.9-2.9 4.3-2.9 7-.1 2.5-.9 34.4 31.1 66.4 15.7 15.7 31.5 23.4 42.8 27.1.8-2.6 1.9-5 3.2-7.4-10.5-3.4-25.4-10.5-40.4-25.4z" fill="rgba(0,0,0,1)"/><path d="M144 176c-17.6 0-32-14.4-32-32s14.4-32 32-32 32 14.4 32 32-14.4 32-32 32zm0-56c-13.2 0-24 10.8-24 24s10.8 24 24 24 24-10.8 24-24-10.8-24-24-24z" fill="rgba(0,0,0,1)"/><path d="M160 140h-12v-12h-8v12h-12v8h12v12h8v-12h12z" fill="rgba(0,0,0,1)"/></svg>
