<?xml version="1.0" encoding="UTF-8"?>
<svg xmlns="http://www.w3.org/2000/svg" viewBox="0 0 192 192"><path d="M57.49 132H26.68A10.79 10.79 0 0 1 16 121.36V96a10.41 10.41 0 0 1 2.92-7.34C21.07 86.07 44.15 60 96 60s74.83 26.06 77 28.62a10.67 10.67 0 0 1 3 7.38v25.45A10.48 10.48 0 0 1 165.53 132h-30.85A10.8 10.8 0 0 1 124 121.34V102.5c-.65-1-5.36-6.5-28-6.5s-27.33 5.45-28 6.42v19.13a10.25 10.25 0 0 1-3 7.38 10.51 10.51 0 0 1-7.51 3.07zM96 68c-49.59 0-70.78 25.57-71 25.83l-.29.32A2.5 2.5 0 0 0 24 96v25.37a2.74 2.74 0 0 0 2.72 2.63h30.71a2.65 2.65 0 0 0 1.9-.73 2.29 2.29 0 0 0 .67-1.69v-19.65a8.59 8.59 0 0 1 2.82-5.75C66.52 92.45 75.28 88 96 88c34.87 0 36 12.54 36 14v19.34a2.75 2.75 0 0 0 2.71 2.69h30.76a2.62 2.62 0 0 0 1.8-.71 2.55 2.55 0 0 0 .74-1.84V96a2.71 2.71 0 0 0-.83-1.87l-.28-.31C166.69 93.56 145.17 68 96 68zm-28 33.9z" fill="rgba(0,0,0,1)"/></svg>
