<?xml version="1.0" encoding="UTF-8"?>
<svg xmlns="http://www.w3.org/2000/svg" viewBox="0 0 192 192"><path d="M96 176a80 80 0 1 1 80-80 80.09 80.09 0 0 1-80 80zm0-152a72 72 0 1 0 72 72 72.08 72.08 0 0 0-72-72z" fill="rgba(0,0,0,1)"/><path d="M124.89 120a9 9 0 0 1-8.89-8.92V96.91c-1-1.08-5.61-4.79-20-4.91s-19 3.76-20 4.85v14.4a8.6 8.6 0 0 1-2.53 6.19 8.76 8.76 0 0 1-6.25 2.56H44.93a9 9 0 0 1-8.93-8.89v-19a8.71 8.71 0 0 1 2.46-6.16C40.16 84 59 63.69 96 64s55.65 20.95 57.43 23a8.89 8.89 0 0 1 2.57 6.12v18a8.75 8.75 0 0 1-2.6 6.29A9 9 0 0 1 147 120zM95.31 84H96c22.86.2 27.94 8.71 28 12v15a1 1 0 0 0 .93 1h22.14a.93.93 0 0 0 .67-.28.85.85 0 0 0 .26-.6v-18a1 1 0 0 0-.32-.62l-.24-.26c-.16-.19-17.3-20-51.48-20.28S44.6 91.07 44.43 91.26l-.2.22a.79.79 0 0 0-.23.58v19a1 1 0 0 0 1 .93h22.18a1 1 0 0 0 .64-.22.66.66 0 0 0 .19-.5V96c0-2 1.37-3.85 2.54-5 2.61-2.65 9.3-7 24.76-7zM76 96z" fill="rgba(0,0,0,1)"/></svg>
