<?xml version="1.0" encoding="UTF-8"?>
<svg xmlns="http://www.w3.org/2000/svg" viewBox="0 0 192 192"><path d="M136 72c-8.8 0-16-7.2-16-16s7.2-16 16-16 16 7.2 16 16-7.2 16-16 16zm0-24c-4.4 0-8 3.6-8 8s3.6 8 8 8 8-3.6 8-8-3.6-8-8-8z" fill="rgba(0,0,0,1)"/><path d="M136 96c-2.1 0-4.2-.2-6.3-.5l-2.6-.4-2.3-8.6c-.8-.3-1.7-.7-2.5-1l-7.7 4.5-2.1-1.5c-3.4-2.5-6.4-5.5-8.9-8.9l-1.5-2.1 4.5-7.7c-.4-.8-.7-1.7-1-2.5L97 65.1l-.4-2.6c-.4-2.3-.6-4.4-.6-6.5 0-2.1.2-4.2.5-6.3l.4-2.6 8.6-2.3c.3-.8.7-1.7 1-2.5l-4.5-7.7 1.5-2.1c2.5-3.4 5.5-6.4 8.9-8.9l2.1-1.5 7.7 4.5c.8-.4 1.7-.7 2.5-1l2.2-8.6 2.6-.4c4.2-.7 8.4-.7 12.6 0l2.6.4 2.3 8.6c.8.3 1.7.7 2.5 1l7.7-4.5 2.1 1.5c3.4 2.5 6.4 5.5 8.9 8.9l1.5 2.1-4.5 7.7c.4.8.7 1.7 1 2.5l8.6 2.2.4 2.6c.3 2.1.5 4.2.5 6.3 0 2.1-.2 4.2-.5 6.3l-.4 2.6-8.6 2.3c-.3.8-.7 1.7-1 2.5l4.5 7.7-1.5 2.1c-2.5 3.4-5.5 6.4-8.9 8.9l-2.1 1.5-7.7-4.5c-.8.4-1.7.7-2.5 1l-2.2 8.6-2.6.4c-2 .5-4.1.7-6.2.7zm-2.5-8.1c1.7.1 3.3.1 5 0l2-7.8 2.2-.6c1.8-.5 3.5-1.2 5.1-2.1l2-1.1 7 4.1c1.3-1.1 2.5-2.3 3.5-3.5l-4.1-7 1.1-2c.9-1.6 1.6-3.3 2.1-5.1l.6-2.2 7.8-2c.1-.8.1-1.7.1-2.5s0-1.7-.1-2.5l-7.8-2-.6-2.2c-.5-1.8-1.2-3.5-2.1-5.1l-1.1-2 4.1-7c-1.1-1.3-2.3-2.5-3.5-3.5l-7 4.1-2-1.1c-1.6-.9-3.3-1.6-5.1-2.1l-2.2-.6-2-7.8c-1.7-.1-3.3-.1-5 0l-2 7.8-2.2.6c-1.8.5-3.5 1.2-5.1 2.1l-2 1.1-7-4.1c-1.3 1.1-2.5 2.3-3.5 3.5l4.1 7-1.1 2c-.9 1.6-1.6 3.3-2.1 5.1l-.6 2.2-7.8 2c-.1.8-.1 1.7-.1 2.5s0 1.7.1 2.5l7.8 2 .6 2.2c.5 1.8 1.2 3.5 2.1 5.1l1.1 2-4.1 7c1.1 1.3 2.3 2.5 3.5 3.5l7-4.1 2 1.1c1.6.9 3.3 1.6 5.1 2.1l2.2.6 2 7.8z" fill="rgba(0,0,0,1)"/><path d="M145.2 176c-8.6 0-47.9-2.3-87.4-41.8-43.1-43.1-41.9-86-41.8-89 0-3.2 1.3-6.2 3.5-8.5l17.2-17.2C39 17.2 42 16 45.3 16c3.2 0 6.3 1.3 8.6 3.5l22.6 23.7c2.2 2.2 3.5 5.3 3.5 8.5s-1.3 6.3-3.5 8.6L61.2 75.1c-.7.7-1.1 1.6-1.2 2.6.3 1.4 2.9 11.9 22.6 31.6s30.3 22.3 31.6 22.6c1-.1 1.9-.5 2.7-1.2l15.8-15.3c4.7-4.7 12.4-4.7 17.1 0l22.6 22.5c2.3 2.3 3.6 5.3 3.6 8.6 0 3.2-1.3 6.3-3.5 8.6l-17.2 17.2c-2.3 2.3-5.3 3.5-8.5 3.5-.3.2-.8.2-1.6.2zM45.3 24c-1.1 0-2.1.4-2.9 1.2L25.2 42.4c-.8.8-1.2 1.8-1.2 2.9v.2c0 .4-1.7 41.9 39.5 83 41.3 41.3 82.6 39.5 83 39.5h.2c1.1 0 2.1-.4 2.9-1.2l17.2-17.2c.8-.8 1.2-1.8 1.2-2.9 0-1.1-.4-2.1-1.2-2.9l-22.6-22.5c-1.6-1.6-4.2-1.6-5.8 0l-15.8 15.3c-2.2 2.2-5.3 3.5-8.5 3.5h-.3c-1.3-.1-13.5-1.6-36.8-24.9S52.1 79.6 52 78.3V78c0-3.2 1.3-6.3 3.5-8.6l15.3-14.8c1.6-1.6 1.6-4.2 0-5.8L48.2 25.1c-.7-.7-1.8-1.1-2.9-1.1z" fill="rgba(0,0,0,1)"/></svg>
