<?xml version="1.0" encoding="UTF-8"?>
<svg xmlns="http://www.w3.org/2000/svg" viewBox="0 0 192 192"><path d="M128 95.9h-8m32 0h-8M24 40h35.1l4-16h37.8l4 16H140v48h8V32h-36.9l-4-16H56.9l-4 16H16v84h72v-8H24V40zm84 34c0 14.3-11.6 26-25.9 26s-26-11.7-26-26S67.7 48 82 48s26 11.7 26 26zm-8 0c0-9.9-8-18-17.9-18s-17.9 8.1-17.9 18 8 18 17.9 18S100 83.9 100 74zm24 50h24v24h-24v-24zm8 16h8v-8h-8v8zm32-12v16h12v8h-12v12h-12v12.1h-8V164h-16v12.1h-8V164h-12v-12H96v-8h12v-16H96v-8h12v-12h12V96h8v12h16V96h8v12h12v12h12v8h-12zm-8 28v-40h-40v40h40z" fill="rgba(0,0,0,1)"/></svg>
