<?xml version="1.0" encoding="UTF-8"?>
<svg xmlns="http://www.w3.org/2000/svg" viewBox="0 0 192 192"><path d="M144 168c-6.9 0-13.4-3-17.9-8h9.9v-8h-24v24h8v-10.8c6 6.8 14.8 10.8 24 10.8 17.6 0 32-14.4 32-32h-8c0 13.2-10.8 24-24 24zM168 112v10.8c-6-6.8-14.8-10.8-24-10.8-17.6 0-32 14.4-32 32h8c0-13.2 10.8-24 24-24 6.9 0 13.4 3 17.9 8H152v8h24v-24h-8z" fill="rgba(0,0,0,1)"/><path d="M105.2 134.5c-2.9 1-6 1.5-9.2 1.5-15.4 0-28-12.6-28-28s12.6-28 28-28 28 12.6 28 28v1.4c2.5-1.5 5.2-2.6 8-3.5C130.8 87 115.1 72 96 72c-19.9 0-36 16.1-36 36s16.1 36 36 36c2.8 0 5.4-.3 8-.9.1-3 .5-5.9 1.2-8.6z" fill="rgba(0,0,0,1)"/><path d="M104 152H24V64h43.1l4-16h49.8l4 16H168v40h8V56h-44.9l-4-16H64.9l-4 16H16v104h88z" fill="rgba(0,0,0,1)"/></svg>
