<?xml version="1.0" encoding="UTF-8"?>
<svg xmlns="http://www.w3.org/2000/svg" viewBox="0 0 192 192"><path d="M48 104h8v56h-8z" fill="rgba(0,0,0,1)"/><path d="M48.6 61.4C53.1 58.6 56 53.6 56 48c0-8.8-7.2-16-16-16s-16 7.2-16 16c0 5.7 3 10.6 7.4 13.5C20.8 65.4 16.3 76.4 16 83.8c-.3 7 0 23.5 0 24.2l.1 3.9H24v48h8v-56h-8.1c-.1-5.4-.1-15.1.1-19.8C24 84 25.1 68 40 68c6.9 0 12.8 3.7 15.3 9.6 3.4 8 8.8 23.6 8.9 23.7l7.6-2.6c-.2-.6-5.6-16-9.1-24.3-2.7-6.2-7.8-10.8-14.1-13zM40 40c4.4 0 8 3.6 8 8s-3.6 8-8 8-8-3.6-8-8 3.6-8 8-8zM176 57.5l-24 12V52H80v25.5l8-3.2V60h56v44H88v-3.9l-7.5 3-.5.2v8.7h72V94.5l24 12v-49zm-8 36l-16-8v-7.1l16-8v23.1z" fill="rgba(0,0,0,1)"/><path d="M74.555 88.272l40.018-16.007 2.971 7.428L77.526 95.7z" fill="rgba(0,0,0,1)"/></svg>
