<?xml version="1.0" encoding="UTF-8"?>
<svg xmlns="http://www.w3.org/2000/svg" viewBox="0 0 192 192"><path d="M136 120c-8.8 0-16 7.2-16 16s7.2 16 16 16 16-7.2 16-16-7.2-16-16-16zm0 24c-4.4 0-8-3.6-8-8s3.6-8 8-8 8 3.6 8 8-3.6 8-8 8zm39.5-14.3l-.4-2.6-8.6-2.2c-.3-.8-.7-1.7-1-2.5l4.5-7.7-1.5-2.1c-2.5-3.4-5.5-6.4-8.9-8.9l-2.1-1.5-7.7 4.5c-.8-.4-1.6-.7-2.5-1l-2.3-8.6-2.6-.4c-4.2-.7-8.4-.7-12.6 0l-2.6.4-2.2 8.6c-.8.3-1.7.7-2.5 1l-7.7-4.5-2.1 1.5c-3.4 2.5-6.4 5.5-8.9 8.9l-1.5 2.1 4.5 7.7c-.4.8-.7 1.6-1 2.5l-8.6 2.3-.4 2.6c-.3 2.1-.5 4.2-.5 6.3 0 2.1.2 4.2.5 6.3l.4 2.6 8.6 2.2c.3.8.7 1.7 1 2.5l-4.5 7.7 1.5 2.1c2.5 3.4 5.5 6.4 8.9 8.9l2.1 1.5 7.7-4.5c.8.4 1.6.7 2.5 1l2.3 8.6 2.6.4c2.1.3 4.2.5 6.3.5 2.1 0 4.2-.2 6.3-.5l2.6-.4 2.2-8.6c.8-.3 1.7-.7 2.5-1l7.7 4.5 2.1-1.5c3.4-2.5 6.4-5.5 8.9-8.9l1.5-2.1-4.5-7.7c.4-.8.7-1.6 1-2.5l8.6-2.3.4-2.6c.3-2.1.5-4.2.5-6.3 0-2.1-.2-4.2-.5-6.3zm-7.6 8.8l-7.8 2-.6 2.2c-.5 1.8-1.2 3.5-2.1 5.1l-1.1 2 4.1 7c-1.1 1.3-2.3 2.5-3.5 3.5l-7-4.1-2 1.1c-1.6.9-3.3 1.6-5.1 2.1l-2.2.6-2 7.8c-1.7.1-3.3.1-5 0l-2-7.8-2.2-.6c-1.8-.5-3.5-1.2-5.1-2.1l-2-1.1-7 4.1c-1.3-1.1-2.5-2.3-3.5-3.5l4.1-7-1.1-2c-.9-1.6-1.6-3.3-2.1-5.1l-.6-2.2-7.8-2c-.1-.8-.1-1.7-.1-2.5s0-1.7.1-2.5l7.8-2 .6-2.2c.5-1.8 1.2-3.5 2.1-5.1l1.1-2-4.1-7c1.1-1.3 2.3-2.5 3.5-3.5l7 4.1 2-1.1c1.6-.9 3.3-1.6 5.1-2.1l2.2-.6 2-7.8c1.7-.1 3.3-.1 5 0l2 7.8 2.2.6c1.8.5 3.5 1.2 5.1 2.1l2 1.1 7-4.1c1.3 1.1 2.5 2.3 3.5 3.5l-4.1 7 1.1 2c.9 1.6 1.6 3.3 2.1 5.1l.6 2.2 7.8 2c.1.8.1 1.7.1 2.5s0 1.7-.1 2.5zM97 108c-2.3 3-4.2 6-5.5 8H16V32h36.9l4-16h50.2l4 16H148v57.4c-2.6-.6-5.3-1-8-1.3V40h-35.1l-4-16H63.1l-4 16H24v68h73zM82.1 48c-14.3 0-25.9 11.7-25.9 26s11.6 26 25.9 26c14.3 0 25.9-11.7 25.9-26S96.4 48 82.1 48zm0 44c-9.9 0-17.9-8.1-17.9-18s8-18 17.9-18S100 64.1 100 74s-8 18-17.9 18z" fill="rgba(0,0,0,1)"/></svg>
