<?xml version="1.0" encoding="UTF-8"?>
<svg xmlns="http://www.w3.org/2000/svg" viewBox="0 0 192 192"><path d="M120 80h-20v-8.6c7.5-2.3 12-11.1 12-19.4 0-5.6-2.4-17.4-4.4-21.7l-.4-.9C105.1 24.7 101.1 16 92 16h-4.6l.7 4.6C89 27 87 31.2 84.6 36c-2.2 4.3-4.6 9.3-4.6 16 0 10.2 5.7 17.2 12 19.3V80H72c-6.6 0-12 5.4-12 12v84h72V92c0-6.6-5.4-12-12-12zM88 52c0-4.9 1.7-8.4 3.7-12.5 1.9-3.8 3.9-8 4.4-13.3 1.4 1.6 2.6 4 3.8 6.6l.4 1c1.4 3 3.6 13.5 3.6 18.3 0 6.4-3.7 12-8 12S88 58.4 88 52zm36 116H68V92c0-2.2 1.8-4 4-4h48c2.2 0 4 1.8 4 4v76z" fill="rgba(0,0,0,1)"/></svg>
