<?xml version="1.0" encoding="UTF-8"?>
<svg xmlns="http://www.w3.org/2000/svg" viewBox="0 0 192 192"><path d="M44 160c-8.8 0-16-7.2-16-16s7.2-16 16-16 16 7.2 16 16-7.2 16-16 16zm0-24c-4.4 0-8 3.6-8 8s3.6 8 8 8 8-3.6 8-8-3.6-8-8-8zM140 160c-8.8 0-16-7.2-16-16s7.2-16 16-16 16 7.2 16 16-7.2 16-16 16zm0-24c-4.4 0-8 3.6-8 8s3.6 8 8 8 8-3.6 8-8-3.6-8-8-8z" fill="rgba(0,0,0,1)"/><path d="M56 140h72v8H56zM88 116c-7.7 0-14-6.3-14-14s6.3-14 14-14 14 6.3 14 14-6.3 14-14 14zm0-20c-3.3 0-6 2.7-6 6s2.7 6 6 6 6-2.7 6-6-2.7-6-6-6z" fill="rgba(0,0,0,1)"/><path d="M108 128h-8c0-6.6-5.4-12-12-12s-12 5.4-12 12h-8c0-11 9-20 20-20s20 9 20 20z" fill="rgba(0,0,0,1)"/><g><circle fill="none" cx="88" cy="102" r="14"/><path d="M52 88c-22 0-36 25.3-36 36v18.9l14.7 4.9 2.5-7.6-9.3-3.1V124c0-5.8 10.5-28 28-28h14.8c.8-3 2.3-5.7 4.2-8H52zM165 110.8l-37.4-6.6-14.9-10.9c-2-1.4-4.1-2.6-6.3-3.4 2.2 3.3 3.5 7.2 3.6 11.4l14.4 10.5 39.2 6.9c2.4.4 4.4 3.3 4.4 5.3v16h-16v8h24v-24c0-6.2-5.1-12.2-11-13.2z" fill="rgba(0,0,0,1)"/></g></svg>
