<?xml version="1.0" encoding="UTF-8"?>
<svg xmlns="http://www.w3.org/2000/svg" viewBox="0 0 192 192"><path d="M156.3 92c-15.7-1.6-35.6-3.6-39.3-3.9C112.7 86.3 87.5 76 72 76c-15.7 0-27.1 5.1-34.5 10.1l-3-6.1H16v8h13.5l1.6 3.2c-.8.7-1.5 1.4-2 2C26.6 95.9 24 96 24 96h-4v23.1l16.1 4c.6 7.2 6.6 12.9 13.9 12.9 7 0 12.9-5.2 13.8-12h60.3c1 6.8 6.8 12 13.8 12s12.9-5.2 13.8-12h19.5l.6-3.3c.5-2.9 1.3-5.3 2.1-7.6 1-3.1 2-6 2-9.1.1-10.3-16.1-11.8-19.6-12zM50 128c-3.3 0-6-2.7-6-6s2.7-6 6-6 6 2.7 6 6-2.7 6-6 6zm88 0c-3.3 0-6-2.7-6-6s2.7-6 6-6 6 2.7 6 6-2.7 6-6 6zm28.4-17.4c-.5 1.6-1.1 3.4-1.6 5.4h-14.2c-2.3-4.7-7.1-8-12.6-8s-10.4 3.3-12.6 8H62.6c-2.3-4.7-7.1-8-12.6-8-5.3 0-9.9 3-12.3 7.3l-9.7-2.4v-9.6c2-.7 4.5-2 6.9-4.5C39.1 94.3 51.1 84 72 84c15 0 42.2 11.6 42.4 11.7l.6.2.6.1c.2 0 22.6 2.2 40 4h.2c6.7.4 12.2 2.7 12.2 4 0 1.8-.7 3.9-1.6 6.6z" fill="rgba(0,0,0,1)"/></svg>
