<?xml version="1.0" encoding="UTF-8"?>
<svg xmlns="http://www.w3.org/2000/svg" viewBox="0 0 192 192"><path d="M154.9 124H132V95.4h8V116h14.9z" fill="rgba(0,0,0,1)"/><path d="M135 160c-22.1 0-40-17.9-40-40s17.9-40 40-40 40 17.9 40 40-17.9 40-40 40zm0-72c-17.6 0-32 14.4-32 32s14.4 32 32 32 32-14.4 32-32-14.4-32-32-32zM68 120H51c-6.1 0-11-4.9-11-11v-2c0-6.1 4.9-11 11-11h.5s12.3 1.5 17 2c6.5.8 10.5 5 10.5 11 0 6.1-4.9 11-11 11zm-17.2-16c-1.6.1-2.8 1.4-2.8 3v2c0 1.7 1.3 3 3 3h17c1.7 0 3-1.3 3-3 0-1 0-2.6-3.5-3-4.2-.5-14.8-1.8-16.7-2z" fill="rgba(0,0,0,1)"/><path fill="none" d="M135.1 140h-34.7c6.9 11.9 19.8 20 34.6 20 2.6 0 5.1-.3 7.5-.7-2.7-1.5-6.7-5.9-7.4-19.3zM172 135.2c1.9-4.7 3-9.8 3-15.2 0-5.7-1.2-11.1-3.3-16 .2 1.3.3 2.6.3 4v27.2z"/><path d="M49 132v4c0 11.4-2.3 15.1-3.1 16H30.6c-1-1.5-2.6-7-2.6-16v-28c0-8.4 7.1-17.4 7.1-17.5l5.2-6.5H28c-2.9 0-4-2.4-4-4 0-2.9 2.2-3.8 3.4-4h19.5l.9-2.7c0-.1 4.9-14.4 11.4-22.8l.1-.2c6.4-9.2 28.6-10.5 36.6-10.3h.2c8-.3 30.2 1.1 36.6 10.3l.1.2c5.9 7.6 10.4 20 11.2 22.4 3.5.7 6.9 1.7 10.1 3.1h10.5c1.2.3 3.4 1.1 3.4 4 0 1.1-.6 2.7-1.9 3.5 2.1 1.8 4 3.7 5.7 5.7 2.7-2.3 4.2-5.8 4.2-9.2 0-8.3-6.8-11.4-10.4-12h-14.8c-1.8-4.9-6.1-15.2-11.6-22.4-4.4-6.3-13.1-10.5-25.9-12.5C104.7 31.8 97.1 32 96 32c-1.1 0-8.6-.2-17.2 1.2-12.8 2-21.6 6.2-26 12.5C47.3 52.8 43 63.1 41.2 68H26.4c-3.6.6-10.4 3.7-10.4 12 0 5 3.3 10.2 8.9 11.6-2.4 4.3-4.9 10.3-4.9 16.4v28c0 7.2 1 24 10 24h17.3l.3-.1c7.1-1.2 8.8-12.8 9.2-19.9h34.5c-1.2-2.6-2.1-5.2-2.9-8H49z" fill="rgba(0,0,0,1)"/></svg>
