<?xml version="1.0" encoding="UTF-8"?>
<svg xmlns="http://www.w3.org/2000/svg" viewBox="0 0 192 192"><path d="M176 96h-8.3c-5-5.3-11.1-7.6-15.4-8l-41.6-3.5-7.4-14.8-.3-.4C95.6 60.7 83.5 60 80 60c-18.4 0-30.4 10.7-31.8 28.2-2.8.3-5.6 1-8.2 2.1V80h-8v12H16v8h10.7c-1 1.1-2 2.4-2.9 3.7-5.3 7.5-7.5 14.9-7.6 15.2l-1.5 5.1h21.8c1.8 6.9 8 12 15.5 12s13.7-5.1 15.5-12h77.1c1.8 6.9 8 12 15.5 12 8.8 0 16-7.2 16-16 0-6.5-1.2-11.7-3.1-16h3.1v-8zM80 68c1.9 0 11.2.3 16.7 6.3l5 10L93.9 96H80v-8h-4v-8h-8v8H56.2c1.4-12.9 9.7-20 23.8-20zm-28 60c-4.4 0-8-3.6-8-8s3.6-8 8-8 8 3.6 8 8-3.6 8-8 8zm92.5-12h-77c-1.8-6.9-8-12-15.5-12s-13.7 5.1-15.5 12H25.8c3.4-7.3 11.4-20 26.2-20h20v8h26.1l7.9-11.8 45.6 3.8c.5 0 8 .9 12.7 8.6-1.4-.4-2.8-.6-4.3-.6-7.4 0-13.7 5.1-15.5 12zm15.5 12c-4.4 0-8-3.6-8-8s3.6-8 8-8 8 3.6 8 8-3.6 8-8 8z" fill="rgba(0,0,0,1)"/></svg>
