<?xml version="1.0" encoding="UTF-8"?>
<svg xmlns="http://www.w3.org/2000/svg" viewBox="0 0 192 192"><path d="M164 160h-8V77.1l2-1.2c6.2-3.6 10-10.2 10-17.3 0-6.4-3.1-12.3-8-16v16c0 6.6-5.4 12-12 12s-12-5.4-12-12v-16c-4.9 3.7-8 9.6-8 16 0 7.1 3.8 13.7 10 17.3l2 1.2V160h-8V81.6c-7.5-5.2-12-13.8-12-23 0-11.8 7.5-22.5 18.7-26.4l5.3-1.9v28.3c0 2.2 1.8 4 4 4s4-1.8 4-4V30.3l5.3 1.9c11.2 3.9 18.7 14.6 18.7 26.4 0 9.2-4.5 17.8-12 23V160z" fill="rgba(0,0,0,1)"/><path d="M96 32c-1.1 0-8.6-.2-17.2 1.2-12.8 2-21.6 6.2-26 12.5C47.3 52.8 43 63.1 41.2 68H26.4c-3.6.6-10.4 3.7-10.4 12 0 5 3.3 10.2 8.9 11.6-2.4 4.3-4.9 10.3-4.9 16.4v28c0 7.2 1 24 10 24h17.3l.3-.1c7.1-1.2 8.8-12.8 9.2-19.9H124v-8H49v4c0 11.4-2.3 15.1-3.1 16H30.6c-1-1.5-2.6-7-2.6-16v-28c0-8.4 7.1-17.4 7.1-17.5l5.2-6.5H28c-2.9 0-4-2.4-4-4 0-2.9 2.2-3.8 3.4-4h19.5l.9-2.7c0-.1 4.9-14.4 11.4-22.8l.1-.2c6.4-9.2 28.6-10.5 36.6-10.3h.2c.1 0 9.8-.3 19.5 1.7 1.3-2.5 3-4.9 4.9-7.1C109.3 31.8 97.4 32 96 32z" fill="rgba(0,0,0,1)"/><path d="M68 120H51c-6.1 0-11-4.9-11-11v-2c0-6.1 4.9-11 11-11h.5s12.3 1.5 17 2c6.5.8 10.5 5 10.5 11 0 6.1-4.9 11-11 11zm-17.2-16c-1.6.1-2.8 1.4-2.8 3v2c0 1.7 1.3 3 3 3h17c1.7 0 3-1.3 3-3 0-1 0-2.6-3.5-3-4.2-.5-14.8-1.8-16.7-2z" fill="rgba(0,0,0,1)"/></svg>
