<?xml version="1.0" encoding="UTF-8"?>
<svg xmlns="http://www.w3.org/2000/svg" viewBox="0 0 192 192"><circle cx="56" cy="52" r="4" fill="rgba(0,0,0,1)"/><path d="M75.8 32.2c-10.9-10.9-28.7-10.9-39.6 0l-5.7-5.7c14-14 36.9-14 50.9 0l-5.6 5.7z" fill="rgba(0,0,0,1)"/><path d="M64.5 43.5C62.2 41.2 59.2 40 56 40s-6.2 1.2-8.5 3.5l-5.7-5.7C45.6 34.1 50.7 32 56 32s10.4 2.1 14.1 5.9l-5.6 5.6zM144 140.3L156.5 32H152c-13.6 0-25.2 9.3-28.2 22.6l-13.9 52.7v.2c-1 4.5-1.6 9-1.7 13.6-14.5-2.3-29.6-2.6-37-.8-10.3 2.6-15 12.1-15 19.9 0 5.9 3.2 11.1 8 13.8v22h76v-24.8c2.3-2.7 3.7-6.4 3.8-10.9zm-26.4-31.1l13.9-52.7v-.2c1.8-8.1 8.1-14.2 15.9-15.9L137 130.1c-4.9-3.3-12.6-5.8-21.1-7.7.2-4.4.7-8.8 1.7-13.2zM73 128c11.8-2.9 47.6.7 59.8 8.9 1.8 1.2 3 2.5 3.2 3.5-.1 5.8-4 7.2-6.6 7.6H70.9c-3.9-.6-6.9-3.9-6.9-7.9 0-4.8 2.8-10.6 9-12.1zm59 40H72v-11.9h56c.6 0 1.3 0 1.9-.1h2.1v12z" fill="rgba(0,0,0,1)"/></svg>
