<?xml version="1.0" encoding="UTF-8"?>
<svg xmlns="http://www.w3.org/2000/svg" viewBox="0 0 192 192"><path d="M176 104c0-9.3-15.2-16.7-21.4-19.3L134.1 56H28c-6.6 0-12 5.4-12 12v44c0 8.8 7.2 16 16 16h6.2c2.8 4.8 7.9 8 13.8 8s11.1-3.2 13.8-8h68.3c2.8 4.8 7.9 8 13.8 8s11.1-3.2 13.8-8H176v-24zm-32.5-21L120 80.4V64h9.9l13.6 19zM52 128c-4.4 0-8-3.6-8-8s3.6-8 8-8 8 3.6 8 8-3.6 8-8 8zm96 0c-4.4 0-8-3.6-8-8s3.6-8 8-8 8 3.6 8 8-3.6 8-8 8zm20-8h-4c0-8.8-7.2-16-16-16s-16 7.2-16 16H68c0-8.8-7.2-16-16-16s-16 7.2-16 16h-4c-4.4 0-8-3.6-8-8V68c0-2.2 1.8-4 4-4h84v23.6l39 4.3c9.8 4 17 9.6 17 12.1v16z" fill="rgba(0,0,0,1)"/></svg>
