<?xml version="1.0" encoding="UTF-8"?>
<svg xmlns="http://www.w3.org/2000/svg" viewBox="0 0 192 192"><path d="M160.4 32h-40.9C111 32 104 39 104 47.6v28.9c0 8.6 7 15.6 15.6 15.6h4.4v58.1l16 10.7 16-10.7V92h4.4c8.6 0 15.6-7 15.6-15.6V47.6c0-8.6-7-15.6-15.6-15.6zM148 145.9l-8 5.3-8-5.3V92h16v53.9zm20-69.5c0 4.2-3.4 7.6-7.6 7.6h-40.8c-4.2 0-7.6-3.4-7.6-7.6V47.6c0-4.2 3.4-7.6 7.6-7.6h40.9c4.2 0 7.6 3.4 7.6 7.6v28.8zM51.5 96H51c-6.1 0-11 4.9-11 11v2c0 6.1 4.9 11 11 11h17c6.1 0 11-4.9 11-11 0-6-4-10.2-10.5-11-4.7-.5-17-2-17-2zM71 109c0 1.7-1.3 3-3 3H51c-1.7 0-3-1.3-3-3v-2c0-1.6 1.2-2.9 2.8-3 1.9.2 12.5 1.5 16.7 2 3.5.4 3.5 2 3.5 3z" fill="rgba(0,0,0,1)"/><path d="M49 136c0 11.4-2.3 15.1-3.1 16H30.6c-1-1.5-2.6-7-2.6-16v-28c0-8.4 7.1-17.4 7.1-17.5l5.2-6.5H28c-2.9 0-4-2.4-4-4 0-2.9 2.2-3.8 3.4-4h19.5l.9-2.7c0-.1 4.9-14.4 11.4-22.8l.1-.2c6.4-9.2 28.6-10.5 36.6-10.3H97.3c1-3 2.6-5.7 4.6-8h-5.8c-.8 0-8.4-.2-17.3 1.2-12.8 2-21.6 6.2-26 12.5C47.3 52.8 43 63.1 41.2 68H26.4c-3.6.6-10.4 3.7-10.4 12 0 5 3.3 10.2 8.9 11.6-2.4 4.3-4.9 10.3-4.9 16.4v28c0 7.2 1 24 10 24h17.3l.3-.1c7.1-1.2 8.8-12.8 9.2-19.9H116v-8H49v4z" fill="rgba(0,0,0,1)"/></svg>
