<?xml version="1.0" encoding="UTF-8"?>
<svg xmlns="http://www.w3.org/2000/svg" viewBox="0 0 192 192"><path d="M176 116c0-16.7-12.8-28-31.9-28l-15.8-.5-30.2-18.9-4.2 6.8 18.5 11.5L68 85.4V76h-8v9.2l-28.8-1C25.1 84 19.9 88.4 19 94.4l-3 17.2v7.5l16.3 4.1c1.5 7.3 8 12.8 15.7 12.8 7.4 0 13.7-5.1 15.5-12h61.1c1.8 6.9 8 12 15.5 12s13.7-5.1 15.5-12H176v-8zM48 128c-4.4 0-8-3.6-8-8s3.6-8 8-8 8 3.6 8 8-3.6 8-8 8zm92 0c-4.4 0-8-3.6-8-8s3.6-8 8-8 8 3.6 8 8-3.6 8-8 8zm15.5-12c-1.8-6.9-8-12-15.5-12s-13.7 5.1-15.5 12h-61c-1.8-6.9-8-12-15.5-12-7.1 0-13.1 4.7-15.2 11.1l-8.8-2.2v-.5l2.9-16.6v-.1c.3-2 2-3.5 4-3.4l94.9 3.2 18 .6h.1c11.1 0 24 5.2 24 20h-12.4z" fill="rgba(0,0,0,1)"/></svg>
