<?xml version="1.0" encoding="UTF-8"?>
<svg xmlns="http://www.w3.org/2000/svg" viewBox="0 0 192 192"><path d="M176 100c0-6.2-5.1-12.2-11-13.2l-37.4-6.6-14.9-10.9c-4.8-3.5-10.5-5.4-16.5-5.4H52c-22 0-36 25.3-36 36v18.9l12.3 4.1c1.4 7.4 7.9 13 15.7 13 7.4 0 13.7-5.1 15.5-12h65.1c1.8 6.9 8 12 15.5 12s13.7-5.1 15.5-12H176V100zM44 128c-4.4 0-8-3.6-8-8s3.6-8 8-8 8 3.6 8 8-3.6 8-8 8zm96 0c-4.4 0-8-3.6-8-8s3.6-8 8-8 8 3.6 8 8-3.6 8-8 8zm28-12h-12.5c-1.8-6.9-8-12-15.5-12s-13.7 5.1-15.5 12h-65c-1.8-6.9-8-12-15.5-12-7 0-12.9 4.5-15.1 10.8l-4.9-1.6V100c0-5.8 10.5-28 28-28h44.2c4.3 0 8.3 1.3 11.8 3.8l16.4 12 39.2 6.9c2.4.4 4.4 3.3 4.4 5.3v16z" fill="rgba(0,0,0,1)"/></svg>
