<?xml version="1.0" encoding="UTF-8"?>
<svg xmlns="http://www.w3.org/2000/svg" viewBox="0 0 192 192"><path d="M96 24c21.8 0 41 9.9 54.7 28H136v8h28V32h-8v13.8C140.8 26.5 119.8 16 96 16c-44.1 0-80 35.9-80 80h8c0-39.7 32.3-72 72-72zM168 96c0 39.7-32.3 72-72 72-21.8 0-41-9.9-54.7-28H56v-8H28v28h8v-13.8C51.2 165.5 72.2 176 96 176c44.1 0 80-35.9 80-80h-8z" fill="rgba(0,0,0,1)"/><path d="M148 77.1c0-2.2-1.8-4-4-4h-10.5l-.7-1.4c-.4-.8-4.8-9.8-9.2-15C117 48.1 98.1 48 96 48c-2.1 0-21.1.1-27.6 8.7-4.4 5.2-8.8 14.2-9.2 15l-.7 1.4H48c-2.2 0-4 1.8-4 4s1.8 4 4 4h4.6c-2.4 2.5-4.9 6.2-4.9 10.3v17.9c0 9.4 2.8 14.7 7.7 14.7h11.1c1.6 0 6.5-.9 7.5-10.7h44c1 9.9 5.9 10.7 7.5 10.7h11.1c4.9 0 7.7-5.4 7.7-14.7V91.4c0-4.1-2.5-7.8-4.9-10.3h4.6c2.2 0 4-1.8 4-4zm-11.7 32.2c0 3.4-.5 5.7-.9 6.7h-8.6c-.3-.8-.9-2.7-.9-6.7v-4H66.2v4c0 4.1-.6 6-.9 6.7h-8.6c-.4-1.1-.9-3.3-.9-6.7V91.4c0-2.4 3.4-5.8 5.7-7.5l.8-.6 4.1-8v-.1c0-.1 4.3-8.9 8.2-13.5l.1-.2c2.9-3.9 14-5.6 21.1-5.6h.4c5.6 0 17.9 1.3 21.1 5.6l.1.2c3.9 4.6 8.2 13.4 8.2 13.5l4.2 8.1.8.6c2.3 1.6 5.7 5.1 5.7 7.5v17.9z" fill="rgba(0,0,0,1)"/></svg>
