<?xml version="1.0" encoding="UTF-8"?>
<svg xmlns="http://www.w3.org/2000/svg" viewBox="0 0 192 192"><path d="M16 168h160v8H16zM128.4 159.8c-.9 0-1.7-.3-2.4-.8l-10.7-8.2c-1.7-1.4-2.1-3.9-.7-5.6 1.4-1.7 3.9-2.1 5.6-.7l10.7 8.2c1.7 1.4 2.1 3.9.7 5.6-.8 1-2 1.5-3.2 1.5z" fill="rgba(0,0,0,1)"/><path d="M88.4 160c-12.1 0-26.7-11.1-28.5-12.5-2-1.5-19.9-15.5-19.5-28.3-.1-8.2 2.7-20.1 3-21.2l1.9-8.7c-.8-3.2-2.5-12.6 2.4-18.5l14.1-17.3c7-8.5 13.4-11.5 17.6-8.2l10.7 8.2c.6.5 1.9 1.8 2.2 4.4.3 3.1-1 6.8-4 11.2l43.6 33.7c8.5-9 13.6-6.4 15-5.3l10.7 8.2c1.3 1 2.1 2.5 2.4 4.3.6 4.9-3.9 11.2-6.6 14.5l-14.1 17.3c-4.8 5.9-14.5 6.4-17.9 6.4l-8.3 3.8c-1 .5-12.2 5.8-20.5 7.6-1.4.2-2.7.4-4.2.4zM75.2 52.1c-1.2.5-3.9 2.4-7.2 6.5L53.9 75.9c-2.5 3-1.2 10-.6 12.2l.3 1-2.3 10.8c0 .1-2.9 11.9-2.8 19.3v.2c-.3 6.5 9.9 16.8 16.4 21.8 6.5 5.1 19.2 12.4 25.7 10.6l.2-.1c7.5-1.6 18.7-7 18.8-7h.1l10.1-4.6h1c2.4.1 9.8-.3 12.3-3.4l14.1-17.3c3.2-3.9 4.5-6.7 4.8-8l-9.1-7c-.8.3-3.2 1.4-7.2 6.4l-2.5 3L77 70.4l2.6-3.2c3.8-4.7 4.6-7.2 4.7-8.1l-9.1-7z" fill="rgba(0,0,0,1)"/><path d="M46.7 96.7c-.9 0-1.7-.3-2.4-.8l-10.7-8.2c-1.7-1.4-2.1-3.9-.7-5.6 1.4-1.7 3.9-2.1 5.6-.7l10.7 8.2c1.7 1.4 2.1 3.9.7 5.6-.9.9-2 1.5-3.2 1.5zM126.9 64.7c10.5 8.7 20 7.3 20 7.3.5 0 .9-.3 1.2-.7l.8-.9 2.7-3.3c.6-.8.5-1.9-.2-2.6l-5.6-4.7c-.8-.6-1.9-.5-2.6.2l-2.7 3.3c-.3.4-.7.6-1.2.7 0 0-3 .6-8.6-4.1-5.6-4.7-5.6-7.7-5.6-7.7 0-.5.1-1 .4-1.3l2.7-3.3c.6-.8.5-1.9-.2-2.6l-5.6-4.7c-.8-.6-1.9-.5-2.6.2l-2.7 3.3-.8.9c-.3.4-.5.8-.4 1.3.1.2.5 9.9 11 18.7z" fill="rgba(0,0,0,1)"/></svg>
