<?xml version="1.0" encoding="UTF-8"?>
<svg xmlns="http://www.w3.org/2000/svg" viewBox="0 0 192 192"><path d="M176 98.3c0-7.8-6.2-15.2-13.8-16.5l-34.6-6.1-13.4-9.8c-5.3-3.9-11.5-5.9-18-5.9H50.8c-13.7 0-23.4 10.7-26.1 28H24V76h-8v32h8v10.9l12.3 4.1c1.4 7.4 7.9 13 15.7 13 7.4 0 13.7-5.1 15.5-12h61.1c1.8 6.9 8 12 15.5 12s13.7-5.1 15.5-12H176V98.3zM52 128c-4.4 0-8-3.6-8-8s3.6-8 8-8 8 3.6 8 8-3.6 8-8 8zm92 0c-4.4 0-8-3.6-8-8s3.6-8 8-8 8 3.6 8 8-3.6 8-8 8zm24-12h-8.5c-1.8-6.9-8-12-15.5-12s-13.7 5.1-15.5 12h-61c-1.8-6.9-8-12-15.5-12-7 0-12.9 4.5-15.1 10.8l-4.9-1.6v-15C32 79.9 39.4 68 50.8 68h45.4c4.8 0 9.4 1.5 13.3 4.4l14.9 10.9 36.5 6.4c3.7.6 7.1 4.7 7.1 8.6V116z" fill="rgba(0,0,0,1)"/></svg>
