<?xml version="1.0" encoding="UTF-8"?>
<svg xmlns="http://www.w3.org/2000/svg" viewBox="0 0 192 192"><path d="M158.7 39.6L124 16.5v35L106.6 37l-5.1 6.1L121.8 60l-20.3 16.9 5.1 6.1L124 68.5v35l34.7-23.1L134.2 60l24.5-20.4zM132 51.5v-20l13.3 8.9L132 51.5zm0 37v-20l13.3 11.1-13.3 8.9zM68 136H51c-6.1 0-11-4.9-11-11v-2c0-6.1 4.9-11 11-11h.5s12.3 1.5 17 2c6.5.8 10.5 5 10.5 11 0 6.1-4.9 11-11 11zm-17.2-16c-1.6.1-2.8 1.4-2.8 3v2c0 1.7 1.3 3 3 3h17c1.7 0 3-1.3 3-3 0-1 0-2.6-3.5-3-4.2-.5-14.8-1.8-16.7-2zM141 136h-17c-6.1 0-11-4.9-11-11 0-6 4-10.2 10.5-11 4.7-.5 17-2 17-2h.5c6.1 0 11 4.9 11 11v2c0 6.1-4.9 11-11 11zm.2-16c-1.9.2-12.5 1.5-16.7 2-3.5.4-3.5 2-3.5 3 0 1.7 1.3 3 3 3h17c1.7 0 3-1.3 3-3v-2c0-1.6-1.2-2.9-2.8-3z" fill="rgba(0,0,0,1)"/><path d="M176 96c0-7.2-5.2-10.6-8.9-11.6l-4 2.6-7.5 5h9c1.2.3 3.4 1.1 3.4 4 0 1.6-1.1 4-4 4h-12.3l5.2 6.5c2 2.5 7.1 10.4 7.1 17.5v28c0 9-1.6 14.5-2.6 16h-15.3c-.8-.9-3.1-4.6-3.1-16v-4H49v4c0 11.4-2.3 15.1-3.1 16H30.6c-1-1.5-2.6-7-2.6-16v-28c0-8.4 7.1-17.4 7.1-17.5l5.2-6.5H28c-2.9 0-4-2.4-4-4 0-2.9 2.2-3.8 3.4-4h19.5l.9-2.7c0-.1 4.9-14.4 11.4-22.8l.1-.2c6.4-9.2 28.6-10.5 36.6-10.3h.2s3.6-.1 8.6.3l-8.5-7-1.4-1.3c-2.6 0-9 .1-16.1 1.2-12.8 2-21.6 6.2-26 12.5C47.3 68.8 43 79.1 41.2 84H26.4c-3.6.6-10.4 3.7-10.4 12 0 5 3.3 10.2 8.9 11.6-2.4 4.3-4.9 10.2-4.9 16.4v28c0 7.2 1 24 10 24h17.3l.3-.1c7.1-1.2 8.8-12.8 9.2-19.9H135c.9 17.1 7.2 19.6 9.2 19.9l.3.1H162c9 0 10-16.8 10-24v-28c0-6.1-2.5-12.1-4.9-16.4 5.6-1.4 8.9-6.6 8.9-11.6z" fill="rgba(0,0,0,1)"/></svg>
