<?xml version="1.0" encoding="UTF-8"?>
<svg xmlns="http://www.w3.org/2000/svg" viewBox="0 0 192 192"><path fill="none" d="M0 0h192v192H0z"/><path d="M128 16c-24.3 0-44 19.7-44 44s19.7 44 44 44 44-19.7 44-44-19.7-44-44-44zm0 80c-19.9 0-36-16.1-36-36s16.1-36 36-36 36 16.1 36 36-16.2 36-36 36z" fill="rgba(0,0,0,1)"/><path d="M128 40c6 0 9.9 3 12.3 9.4l7.5-2.8C144.2 37 137.3 32 128 32c-6 0-15.3 2.4-18.7 16H104v8h4.1c-.1 1.3-.1 2.6-.1 4s0 2.7.1 4H104v8h5.3c3.4 13.6 12.7 16 18.7 16 9.2 0 16-5 19.7-14.5l-7.5-2.9C137.8 77 133.9 80 128 80c-2.2 0-7.7 0-10.4-8H132v-8h-15.9c-.1-1.2-.1-2.6-.1-4 0-1 0-2.4.1-4H132v-8h-14.4c1.5-4.3 4.5-8 10.4-8z" fill="rgba(0,0,0,1)"/><g><circle cx="128" cy="60" r="44" fill="none"/><path fill="none" d="M120 125c0 1.7 1.4 3 3.2 3h17.5c1.8 0 3.2-1.3 3.2-3v-2c0-1.6-1.3-2.9-3-3-1.9.2-12.9 1.5-17.3 2-3.6.4-3.6 2-3.6 3zM68.3 122c-4.4-.5-15.4-1.8-17.3-2-1.7.1-3 1.4-3 3v2c0 1.7 1.4 3 3.2 3h17.5c1.8 0 3.2-1.3 3.2-3 .1-1 .1-2.6-3.6-3z"/><path d="M69.2 114c-4.8-.5-17.5-2-17.5-2h-.5C45 112 40 116.9 40 123v2c0 6.1 5 11 11.2 11h17.5c6.2 0 11.2-4.9 11.2-11 .1-6-4-10.2-10.7-11zm-.4 14H51.2c-1.8 0-3.2-1.3-3.2-3v-2c0-1.6 1.3-2.9 3-3 1.9.2 12.9 1.5 17.3 2 3.7.4 3.7 2 3.7 3 0 1.7-1.4 3-3.2 3zM112 125c0 6.1 5 11 11.2 11h17.5c6.2 0 11.2-4.9 11.2-11v-2c0-6.1-5-11-11.2-11h-.5s-12.7 1.5-17.5 2c-6.6.8-10.7 5-10.7 11zm29-5c1.7.1 3 1.4 3 3v2c0 1.7-1.4 3-3.2 3h-17.5c-1.8 0-3.2-1.3-3.2-3 0-1 0-2.6 3.7-3 4.3-.5 15.3-1.8 17.2-2z" fill="rgba(0,0,0,1)"/><path d="M172.3 87.2c-1.4 2.3-3.1 4.5-4.8 6.6.3.6.6 1.3.6 2.2 0 1.6-1.1 4-4 4h-2.8c-1.9 1.6-3.9 3-6 4.3l1.7 2.2c2 2.5 7.1 10.4 7.1 17.5v28c0 9-1.6 14.5-2.6 16h-14.3c-.8-.9-3.1-4.6-3.1-16v-4H47.8v4c0 11.4-2.3 15.1-3.1 16H30.6c-1-1.5-2.6-7-2.6-16v-28c0-8.4 7.1-17.4 7.1-17.5l5.2-6.5H28c-2.9 0-4-2.4-4-4 0-2.9 2.2-3.8 3.4-4h19.5l.9-2.7c0-.1 4.9-14.4 11.4-22.8l.1-.2c2.6-3.8 8.5-6.7 16.8-8.5.1-2.8.5-5.6 1-8.4-11.9 2.1-20.1 6.2-24.3 12.2C47.3 68.8 43 79.1 41.2 84H26.4c-3.6.6-10.4 3.7-10.4 12 0 5 3.3 10.2 8.9 11.6-2.4 4.3-4.9 10.2-4.9 16.4v28c0 7.2 1 24 10 24h16.2l.3-.1c7.1-1.2 8.8-12.8 9.2-19.9h80.4c.9 17.1 7.2 19.6 9.2 19.9l.3.1H162c9 0 10-16.8 10-24v-28c0-6.1-2.5-12.1-4.9-16.4 5.6-1.4 8.9-6.6 8.9-11.6 0-4.1-1.6-6.9-3.7-8.8z" fill="rgba(0,0,0,1)"/></g></svg>
