<?xml version="1.0" encoding="UTF-8"?>
<svg xmlns="http://www.w3.org/2000/svg" viewBox="0 0 192 192"><path d="M117.2 176H74.8c-10.4 0-18.8-8.4-18.8-18.8V84h-9c-4.4 0-7-3.8-7-7.4v-8.1c0-2.8 1.8-5.2 4.3-6.1l11.7-5V39.5C56 26.5 66.5 16 79.5 16h33c13 0 23.5 10.5 23.5 23.5v17.9l11.7 5c2.6.9 4.3 3.4 4.3 6.1v8.1c0 3.6-2.6 7.4-7 7.4h-9v73.2c0 10.4-8.4 18.8-18.8 18.8zM48 76h16v81.2c0 6 4.9 10.8 10.8 10.8h42.3c6 0 10.8-4.9 10.8-10.8V76h16v-6.5l-16-6.9V39.5c0-8.5-7-15.5-15.5-15.5h-33C71 24 64 31 64 39.5v23.1l-16 6.9V76zm67.5 20h-39l-4.8-38.5 2.8-1.2C74.9 56.1 85 52 96 52s21.1 4.1 21.5 4.3l2.8 1.2-4.8 38.5zm-32-8h24.9l3.2-25.3c-3.4-1.1-9.4-2.7-15.6-2.7-6.2 0-12.2 1.6-15.6 2.7L83.5 88zM96 152c-10.5 0-21-4.1-21.5-4.3l-3.1-1.2 5.3-26.5h38.6l5.3 26.5-3.1 1.2c-.5.2-11 4.3-21.5 4.3zm-15.4-10.7c3.5 1.1 9.6 2.7 15.4 2.7 5.8 0 11.9-1.5 15.4-2.6l-2.7-13.4H83.3l-2.7 13.3z" fill="rgba(0,0,0,1)"/></svg>
