<?xml version="1.0" encoding="UTF-8"?>
<svg xmlns="http://www.w3.org/2000/svg" viewBox="0 0 192 192"><path d="M68.5 98c-4.7-.5-17-2-17-2H51c-6.1 0-11 4.9-11 11v2c0 6.1 4.9 11 11 11h17c6.1 0 11-4.9 11-11 0-6-4-10.2-10.5-11zm-.5 14H51c-1.7 0-3-1.3-3-3v-2c0-1.6 1.2-2.9 2.8-3 1.9.2 12.5 1.5 16.7 2 3.5.4 3.5 2 3.5 3 0 1.7-1.3 3-3 3z" fill="rgba(0,0,0,1)"/><path d="M176 80c0-8.3-6.8-11.4-10.4-12h-14.8c-1.8-4.9-6.1-15.2-11.6-22.4-4.4-6.3-13.1-10.5-25.9-12.5C104.7 31.8 97.1 32 96 32c-1.1 0-8.6-.2-17.2 1.2-12.8 2-21.6 6.2-26 12.5C47.3 52.8 43 63.1 41.2 68H26.4c-3.6.6-10.4 3.7-10.4 12 0 5 3.3 10.2 8.9 11.6-2.4 4.3-4.9 10.3-4.9 16.4v28c0 7.2 1 24 10 24h17.3l.3-.1c7.1-1.2 8.8-12.8 9.2-19.9H135c.9 17.1 7.2 19.6 9.2 19.9l.3.1H162c9 0 10-16.8 10-24v-28c0-6.1-2.5-12.1-4.9-16.4 5.6-1.4 8.9-6.6 8.9-11.6zm-68-8.2c.1-4.3 3.7-7.8 8-7.8 4 0 7.3 3 7.9 6.8-5.3.5-10.6.8-15.9 1zM59.2 50.5l.1-.2c6.4-9.2 28.6-10.5 36.6-10.3h.2c8-.3 30.2 1.1 36.6 10.3l.1.2c4.2 5.4 7.7 13.4 9.7 18.3-3.5.5-7.1.9-10.7 1.3-1-7.9-7.7-14.1-15.9-14.1-8.8 0-16 7.1-16 15.9-16.9.2-33.8-.9-50.5-3.2 2-4.9 5.5-12.8 9.8-18.2zM164 84h-12.3l5.2 6.5c2 2.5 7.1 10.4 7.1 17.5v28c0 9-1.6 14.5-2.6 16h-15.3c-.8-.9-3.1-4.6-3.1-16v-4H49v4c0 11.4-2.3 15.1-3.1 16H30.6c-1-1.5-2.6-7-2.6-16v-28c0-8.4 7.1-17.4 7.1-17.5l5.2-6.5H28c-2.9 0-4-2.4-4-4 0-2.9 2.2-3.8 3.4-4h16.4c17.3 2.7 34.8 4 52.3 4s34.9-1.3 52.3-4h16.3c1.2.3 3.4 1.1 3.4 4-.1 1.6-1.2 4-4.1 4z" fill="rgba(0,0,0,1)"/><path d="M141 96h-.5s-12.3 1.5-17 2c-6.5.8-10.5 5-10.5 11 0 6.1 4.9 11 11 11h17c6.1 0 11-4.9 11-11v-2c0-6.1-4.9-11-11-11zm3 13c0 1.7-1.3 3-3 3h-17c-1.7 0-3-1.3-3-3 0-1 0-2.6 3.5-3 4.3-.5 14.9-1.7 16.7-2 1.6.1 2.8 1.4 2.8 3v2z" fill="rgba(0,0,0,1)"/></svg>
