<?xml version="1.0" encoding="UTF-8"?>
<svg xmlns="http://www.w3.org/2000/svg" viewBox="0 0 192 192"><path d="M52 69.9c-9.6 0-17.3-7.9-17.3-17.5 0-9.7 7.8-17.5 17.3-17.5s17.3 7.9 17.3 17.5c0 9.7-7.7 17.5-17.3 17.5zm0-27c-5.1 0-9.3 4.3-9.3 9.5s4.2 9.5 9.3 9.5 9.3-4.3 9.3-9.5-4.2-9.5-9.3-9.5z" fill="rgba(0,0,0,1)"/><path d="M52 128l-3.5-5.9c-.2-.4-22-37.8-26.6-45.9C18.1 70 16 61.4 16 52.4 16 32.3 32.1 16 52 16s36 16.3 36 36.4c0 8.9-2.1 17.6-5.9 23.7-4.7 8.1-26.4 45.5-26.6 45.9l-3.5 6zm0-104c-15.4 0-28 12.8-28 28.4 0 7.4 1.8 14.7 4.7 19.5l.1.1c3.5 6.1 16.8 29 23.2 40 6.4-11 19.7-33.9 23.2-40l.1-.1c3-4.8 4.7-12.1 4.7-19.5C80 36.8 67.4 24 52 24zM141 124h-17c-6.1 0-11-4.9-11-11 0-6 4-10.2 10.5-11 4.7-.5 17-2 17-2h.5c6.1 0 11 4.9 11 11v2c0 6.1-4.9 11-11 11zm.2-16c-1.9.2-12.5 1.5-16.7 2-3.5.4-3.5 2-3.5 3 0 1.7 1.3 3 3 3h17c1.7 0 3-1.3 3-3v-2c0-1.6-1.2-2.9-2.8-3z" fill="rgba(0,0,0,1)"/><g><path fill="none" d="M24 96c0 1.2.7 2.9 2.3 3.7-.8-1.3-1.5-2.6-2.3-3.9v.2z"/><path d="M176 96c0-8.3-6.8-11.4-10.4-12h-14.8c-1.8-4.9-6.1-15.2-11.6-22.4-4.4-6.3-13.1-10.5-25.9-12.5C104.7 47.9 97.1 48 96 48h-.2c.1 1.3.2 2.7.2 4 0 1.3-.1 2.6-.1 4h.2c8-.3 30.2 1.1 36.6 10.3l.1.2c6.5 8.3 11.3 22.7 11.4 22.8l.9 2.7h19.5c1.2.3 3.4 1.1 3.4 4 0 1.6-1.1 4-4 4h-12.3l5.2 6.5c2 2.5 7.1 10.4 7.1 17.5v28c0 9-1.6 14.5-2.6 16h-15.3c-.8-.9-3.1-4.6-3.1-16v-4H49v4c0 11.4-2.3 15.1-3.1 16H30.6c-1-1.5-2.6-7-2.6-16v-28c0-5 2.5-10.2 4.5-13.6-2-3.5-4.2-7.2-6.2-10.7C24.7 99 24 97.3 24 96v-.3c-1.7-3-3.3-5.8-4.7-8.1-1.9 1.9-3.3 4.6-3.3 8.4 0 5 3.3 10.2 8.9 11.6-2.4 4.3-4.9 10.2-4.9 16.4v28c0 7.2 1 24 10 24h17.3l.3-.1c7.1-1.2 8.8-12.8 9.2-19.9H135c.9 17.1 7.2 19.6 9.2 19.9l.3.1H162c9 0 10-16.8 10-24v-28c0-6.1-2.5-12.1-4.9-16.4 5.6-1.4 8.9-6.6 8.9-11.6z" fill="rgba(0,0,0,1)"/><path fill="rgba(0,0,0,1)" d="M77.4 83.9l.2.1c.2-.4.5-.9.7-1.3l-.9 1.2z"/></g></svg>
