<?xml version="1.0" encoding="UTF-8"?>
<svg xmlns="http://www.w3.org/2000/svg" viewBox="0 0 192 192"><path d="M113 109c0 6.1 4.9 11 11 11h17c6.1 0 11-4.9 11-11v-2c0-6.1-4.9-11-11-11h-.5s-12.3 1.5-17 2c-6.5.8-10.5 5-10.5 11zm8 0c0-1 0-2.6 3.5-3 4.3-.5 14.9-1.7 16.7-2 1.6.1 2.8 1.4 2.8 3v2c0 1.7-1.3 3-3 3h-17c-1.7 0-3-1.3-3-3z" fill="rgba(0,0,0,1)"/><path d="M24.9 91.6C22.5 95.9 20 101.9 20 108v28c0 7.2 1 24 10 24h17.3l.3-.1c2-.3 8.4-2.8 9.2-19.9H135c.4 7.1 2.2 18.8 9.2 19.9l.3.1H162c9 0 10-16.8 10-24v-28c0-6.1-2.5-12.1-4.9-16.4 5.6-1.4 8.9-6.6 8.9-11.6 0-8.3-6.8-11.4-10.4-12H150.8c-1.8-4.9-6.1-15.2-11.6-22.4-4.4-6.3-13.1-10.5-26-12.5C104.6 31.8 97.1 32 96 32c-1.1 0-8.7-.2-17.3 1.2-12.8 2-21.5 6.2-25.9 12.5C47.3 52.8 43 63.1 41.2 68H26.4c-3.6.6-10.4 3.7-10.4 12 0 5 3.3 10.2 8.9 11.6zm43.2-20.8C68.7 67 72 64 76 64c4.3 0 7.9 3.5 8 7.8-5.3-.2-10.6-.5-15.9-1zm74.4-2.1c-16.8 2.3-33.7 3.4-50.5 3.2C92 63.1 84.8 56 76 56c-8.2 0-14.9 6.1-15.9 14.1-3.6-.4-7.1-.8-10.7-1.3 2-4.9 5.5-12.9 9.7-18.3l.1-.2c6.4-9.2 28.6-10.5 36.6-10.3h.2c8-.2 30.2 1.1 36.6 10.3l.1.2c4.4 5.4 7.9 13.3 9.8 18.2zM24 80c0-2.9 2.2-3.7 3.4-4h16.3C61 78.7 78.5 80 96 80s34.9-1.3 52.3-4h16.4c1.1.2 3.4 1.1 3.4 4 0 1.6-1.1 4-4 4h-12.3l5.2 6.5c.1.1 7.1 9.1 7.1 17.5v28c0 9-1.6 14.5-2.6 16h-15.3c-.8-.9-3.1-4.6-3.1-16v-4H49v4c0 11.4-2.3 15.1-3.1 16H30.6c-1-1.5-2.6-7-2.6-16v-28c0-7.1 5.1-15 7.1-17.5l5.2-6.5H28c-2.9 0-4-2.4-4-4z" fill="rgba(0,0,0,1)"/><path d="M40 107v2c0 6.1 4.9 11 11 11h17c6.1 0 11-4.9 11-11 0-6-4-10.2-10.5-11-4.7-.5-17-2-17-2H51c-6.1 0-11 4.9-11 11zm8 0c0-1.6 1.2-2.9 2.8-3 1.9.2 12.5 1.5 16.7 2 3.5.4 3.5 2 3.5 3 0 1.7-1.3 3-3 3H51c-1.7 0-3-1.3-3-3v-2z" fill="rgba(0,0,0,1)"/></svg>
