<?xml version="1.0" encoding="UTF-8"?>
<svg xmlns="http://www.w3.org/2000/svg" viewBox="0 0 192 192"><path d="M154.8 76h5.2c6.6 0 12-5.4 12-12v-4c0-10-9-16-24-16h-40.9l-16 8H36c-11 0-20 9-20 20v46l18.7 14h18.7c2.3 4.7 7.1 8 12.6 8s10.4-3.3 12.6-8h50.7c2.3 4.7 7.1 8 12.6 8s10.4-3.3 12.6-8h15l6.3-6.3V94.2l-21-18.2zM66 132c-3.3 0-6-2.7-6-6s2.7-6 6-6 6 2.7 6 6-2.7 6-6 6zm46-8H96V76h16v48zm30 8c-3.3 0-6-2.7-6-6s2.7-6 6-6 6 2.7 6 6-2.7 6-6 6zm26-9.7l-1.7 1.7h-10.5c-1-6.8-6.8-12-13.8-12s-12.9 5.2-13.8 12H120V68H88v56h-8.2c-1-6.8-6.8-12-13.8-12s-12.9 5.2-13.8 12H37.3L24 114V72c0-6.6 5.4-12 12-12h56.9l16-8H148c4.8 0 16 .8 16 8v4c0 2.2-1.8 4-4 4h-28v8h10.5L168 97.8v24.5zM36 96h40V68H36v28zm8-20h24v12H44V76z" fill="rgba(0,0,0,1)"/></svg>
