<?xml version="1.0" encoding="UTF-8"?>
<svg xmlns="http://www.w3.org/2000/svg" viewBox="0 0 192 192"><path d="M176 120c0-18.6-9.1-27.9-31.3-31.9l-22.8-3.8C117.6 80.1 104.4 68 96 68c-19.3 0-58.9 13.9-64.7 16H28c-6.6 0-12 5.4-12 12v22.9l12.3 4.1c1.4 7.4 7.9 13 15.7 13 7.4 0 13.7-5.1 15.5-12h69.1c1.8 6.9 8 12 15.5 12s13.7-5.1 15.5-12H176v-4zm-132 8c-4.4 0-8-3.6-8-8s3.6-8 8-8 8 3.6 8 8-3.6 8-8 8zm100 0c-4.4 0-8-3.6-8-8s3.6-8 8-8 8 3.6 8 8-3.6 8-8 8zm15.5-12c-1.8-6.9-8-12-15.5-12s-13.7 5.1-15.5 12h-69c-1.8-6.9-8-12-15.5-12-7 0-12.9 4.5-15.1 10.8l-4.9-1.6V96c0-2.2 1.8-4 4-4h4.7l.7-.2C33.8 91.6 76.9 76 96 76c3.9 0 14 7.7 21.2 14.8l.9.9 25.2 4.2c15 2.7 23.2 6.8 24.5 20.1h-8.3z" fill="rgba(0,0,0,1)"/></svg>
