<?xml version="1.0" encoding="UTF-8"?>
<svg xmlns="http://www.w3.org/2000/svg" viewBox="0 0 192 192"><path d="M158.6 84.8L150.5 74c3.3-2.1 5.5-5.9 5.5-10.1 0-6.6-5.4-12-12-12H24c-4.4 0-8 3.6-8 8v64h12.5c1.8 6.9 8 12 15.5 12s13.7-5.1 15.5-12h69.1c1.8 6.9 8 12 15.5 12s13.7-5.1 15.5-12h10.2l6.3-6.3V93.5l-17.5-8.7zM44 128c-4.4 0-8-3.6-8-8s3.6-8 8-8 8 3.6 8 8-3.6 8-8 8zm100 0c-4.4 0-8-3.6-8-8s3.6-8 8-8 8 3.6 8 8-3.6 8-8 8zm24-13.7l-1.7 1.7h-6.9c-1.8-6.9-8-12-15.5-12s-13.7 5.1-15.5 12H59.5c-1.8-6.9-8-12-15.5-12s-13.7 5.1-15.5 12H24V60h120c2.2 0 4 1.8 4 4s-1.8 4-4 4h-8l17.4 23.2 14.6 7.3v15.8zM104 68v28h39.1l-16.8-28H104zm8 20V76h9.7l7.2 12H112zm-80 8h64V68H32v28zm56-8H68V76h20v12zM40 76h20v12H40V76z" fill="rgba(0,0,0,1)"/></svg>
