<?xml version="1.0" encoding="UTF-8"?>
<svg xmlns="http://www.w3.org/2000/svg" viewBox="0 0 192 192"><path d="M68 120H51c-6.1 0-11-4.9-11-11v-2c0-6.1 4.9-11 11-11h.5s12.3 1.5 17 2c6.5.8 10.5 5 10.5 11 0 6.1-4.9 11-11 11zm-17.2-16c-1.6.1-2.8 1.4-2.8 3v2c0 1.7 1.3 3 3 3h17c1.7 0 3-1.3 3-3 0-1 0-2.6-3.5-3-4.2-.5-14.8-1.8-16.7-2zM141 120h-17c-6.1 0-11-4.9-11-11 0-6 4-10.2 10.5-11 4.7-.5 17-2 17-2h.5c6.1 0 11 4.9 11 11v2c0 6.1-4.9 11-11 11zm.2-16c-1.9.2-12.5 1.5-16.7 2-3.5.4-3.5 2-3.5 3 0 1.7 1.3 3 3 3h17c1.7 0 3-1.3 3-3v-2c0-1.6-1.2-2.9-2.8-3z" fill="rgba(0,0,0,1)"/><circle cx="56" cy="52" r="4" fill="rgba(0,0,0,1)"/><path d="M75.8 32.2c-10.9-10.9-28.7-10.9-39.6 0l-5.7-5.7c14-14 36.9-14 50.9 0l-5.6 5.7z" fill="rgba(0,0,0,1)"/><path d="M64.5 43.5C62.2 41.2 59.2 40 56 40s-6.2 1.2-8.5 3.5l-5.7-5.7C45.6 34.1 50.7 32 56 32s10.4 2.1 14.1 5.9l-5.6 5.6z" fill="rgba(0,0,0,1)"/><g><path d="M176 80c0-8.3-6.8-11.4-10.4-12h-14.8c-1.8-4.9-6.1-15.2-11.6-22.4-4.4-6.3-13.1-10.5-25.9-12.5C104.7 31.8 97.1 32 96 32c-.7 0-4.2-.1-8.9.3l-9.2 9.2c7-1.3 14.1-1.6 18-1.4h.2c8-.3 30.2 1.1 36.6 10.3l.1.2c6.5 8.3 11.3 22.7 11.4 22.8l.9 2.7h19.5c1.2.3 3.4 1.1 3.4 4 0 1.6-1.1 4-4 4h-12.3l5.2 6.5c2 2.5 7.1 10.4 7.1 17.5v28c0 9-1.6 14.5-2.6 16h-15.3c-.8-.9-3.1-4.6-3.1-16v-4H49v4c0 11.4-2.3 15.1-3.1 16H30.6c-1-1.5-2.6-7-2.6-16v-28c0-8.4 7.1-17.4 7.1-17.5l5.2-6.5H28c-2.9 0-4-2.4-4-4 0-2.9 2.2-3.8 3.4-4h19.5l.9-2.7c0-.1 1.5-4.6 4-10-1.6-.6-3.1-1.5-4.3-2.8-.8-.8-1.5-1.7-2-2.7-1.9 4-3.4 7.8-4.3 10.2H26.4C22.8 68.6 16 71.7 16 80c0 5 3.3 10.2 8.9 11.6-2.4 4.3-4.9 10.3-4.9 16.4v28c0 7.2 1 24 10 24h17.3l.3-.1c7.1-1.2 8.8-12.8 9.2-19.9H135c.9 17.1 7.2 19.6 9.2 19.9l.3.1H162c9 0 10-16.8 10-24v-28c0-6.1-2.5-12.1-4.9-16.4 5.6-1.4 8.9-6.6 8.9-11.6z" fill="rgba(0,0,0,1)"/></g></svg>
