<?xml version="1.0" encoding="UTF-8"?>
<svg xmlns="http://www.w3.org/2000/svg" viewBox="0 0 192 192"><path d="M68 120H51c-6.1 0-11-4.9-11-11v-2c0-6.1 4.9-11 11-11h.5s12.3 1.5 17 2c6.5.8 10.5 5 10.5 11 0 6.1-4.9 11-11 11zm-17.2-16c-1.6.1-2.8 1.4-2.8 3v2c0 1.7 1.3 3 3 3h17c1.7 0 3-1.3 3-3 0-1 0-2.6-3.5-3-4.2-.5-14.8-1.8-16.7-2z" fill="rgba(0,0,0,1)"/><path d="M162 160h-17.3l-.3-.1c-2-.3-8.4-2.8-9.2-19.9H56.9c-.4 7.1-2.2 18.8-9.2 19.9l-.3.1H30c-9 0-10-16.8-10-24v-28c0-6.1 2.5-12.1 4.9-16.4C19.3 90.2 16 85 16 80c0-8.3 6.8-11.4 10.4-12H41.2c1.8-4.9 6.1-15.2 11.6-22.4 4.4-6.3 13.1-10.5 26-12.5C87.4 31.8 94.9 32 96 32s8.7-.2 17.3 1.2c12.8 2 21.5 6.2 25.9 12.5 5.5 7.1 9.8 17.5 11.6 22.4h14.8c3.6.5 10.4 3.7 10.4 12 0 5-3.3 10.2-8.9 11.6 2.4 4.3 4.9 10.2 4.9 16.4v28c0 7.1-1 23.9-10 23.9zm-15.9-8h15.3c1-1.5 2.6-7 2.6-16v-28c0-7.1-5.1-15-7.1-17.5l-5.2-6.5H164c2.9 0 4-2.4 4-4 0-2.9-2.2-3.7-3.4-4h-19.5l-.9-2.7c0-.1-4.9-14.5-11.4-22.8l-.1-.2c-6.4-9.2-28.6-10.5-36.6-10.3h-.2c-8-.2-30.2 1.1-36.6 10.3l-.1.2c-6.5 8.4-11.3 22.7-11.4 22.8l-.9 2.7H27.4c-1.1.2-3.4 1.1-3.4 4 0 1.6 1.1 4 4 4h12.3l-5.2 6.5c0 .1-7.1 9.1-7.1 17.5v28c0 9 1.6 14.5 2.6 16h15.3c.8-.9 3.1-4.6 3.1-16v-4h94v4c0 11.4 2.3 15.1 3.1 16z" fill="rgba(0,0,0,1)"/><path d="M141 120h-17c-6.1 0-11-4.9-11-11 0-6 4-10.2 10.5-11 4.7-.5 17-2 17-2h.5c6.1 0 11 4.9 11 11v2c0 6.1-4.9 11-11 11zm.2-16c-1.9.2-12.5 1.5-16.7 2-3.5.4-3.5 2-3.5 3 0 1.7 1.3 3 3 3h17c1.7 0 3-1.3 3-3v-2c0-1.6-1.2-2.9-2.8-3z" fill="rgba(0,0,0,1)"/></svg>
