<?xml version="1.0" encoding="UTF-8"?>
<svg xmlns="http://www.w3.org/2000/svg" viewBox="0 0 192 192"><path d="M160 120h-11.5l-.9-1.7c-.4-.9-5.2-10.9-9.9-16.7-7-9.4-27.4-9.6-29.7-9.5-2.3 0-22.7.1-29.7 9.5-4.7 5.8-9.5 15.8-9.9 16.7l-.9 1.7H56c-2.2 0-4 1.8-4 4s1.8 4 4 4h5.9c-2.7 2.8-5.9 7.1-5.9 12v20c0 10.2 2.9 16 8 16h12c1.7 0 6.8-1 7.8-12h48.3c1 11 6.1 12 7.8 12h12c5.1 0 8-5.8 8-16v-20c0-4.9-3.2-9.2-5.9-12h5.9c2.2 0 4-1.8 4-4s-1.7-4-3.9-4zm-8 40c0 4.2-.6 6.9-1.1 8h-9.7c-.4-.8-1.2-3-1.2-8v-4H76v4c0 5-.8 7.2-1.2 8h-9.7c-.5-1.1-1.1-3.8-1.1-8v-20c0-3.1 4.3-7.3 6.3-8.8l.8-.6 4.4-8.9v-.1c0-.1 4.7-10 8.9-15.2l.1-.2c3.4-4.7 16.1-6.4 23.3-6.4 6 0 19.7 1.5 23.3 6.4l.1.2c4.2 5.2 8.9 15.1 8.9 15.2l4.5 9 .8.6c2.1 1.5 6.3 5.6 6.3 8.8v20zM172 44h-11.5l-.9-1.7c-.4-.9-5.2-10.9-9.9-16.7-7-9.4-27.4-9.6-29.7-9.5-2.3 0-22.7.1-29.7 9.5-1.8 2.2-3.5 4.9-5.1 7.6 3.1.6 5.8 1.3 8.1 2 1-1.7 2.2-3.3 3.2-4.6l.1-.2c3.4-4.7 16.1-6.4 23.3-6.4 6 0 19.7 1.5 23.3 6.4l.1.2c4.2 5.2 8.9 15.1 8.9 15.2l4.5 9 .8.6c2.1 1.5 6.3 5.6 6.3 8.8v20c0 4.2-.6 6.9-1.1 8H153c-.4-.8-1.2-3-1.2-8v-4h-19.1c-.6.7-1.3 1.3-2 1.8.7 2 1.1 4.1 1.1 6.2H144c1 11 6.1 12 7.8 12h12c5.1 0 8-5.8 8-16V64c0-4.9-3.2-9.2-5.9-12h5.9c2.2 0 4-1.8 4-4s-1.6-4-3.8-4z" fill="rgba(0,0,0,1)"/><path d="M62.6 112c1.2-2.5 2.6-5.2 4.3-8H40v4c0 5-.8 7.2-1.2 8h-9.7c-.5-1.1-1.1-3.8-1.1-8V88c0-3.1 4.3-7.3 6.3-8.8l.8-.6 4.4-8.9v-.1c0-.1 4.7-10 8.9-15.2l.1-.2c3.4-4.7 16.1-6.4 23.3-6.4 6 0 19.7 1.5 23.3 6.4l.1.2c4.2 5.2 8.9 15.1 8.9 15.2l4.5 9 .8.6c1.3.9 3.5 2.9 4.9 5 3.4.3 6.5.8 9.2 1.4-.8-3.9-3.4-7.3-5.7-9.6h5.9c2.2 0 4-1.8 4-4s-1.8-4-4-4h-11.5l-.9-1.7c-.4-.9-5.2-10.9-9.9-16.7C94.7 40.1 74.3 40 72 40c-2.3 0-22.7.1-29.7 9.5-4.7 5.8-9.5 15.8-9.9 16.7l-.9 1.8H20c-2.2 0-4 1.8-4 4s1.8 4 4 4h5.9c-2.7 2.8-5.9 7.1-5.9 12v20c0 10.2 2.9 16 8 16h12c.8 0 2.5-.2 4.1-1.8.4-2.4 1.5-4.6 3.1-6.4.3-1.1.5-2.4.6-3.8H62.6z" fill="rgba(0,0,0,1)"/></svg>
