<?xml version="1.0" encoding="UTF-8"?>
<svg xmlns="http://www.w3.org/2000/svg" viewBox="0 0 192 192"><g fill="none" stroke="#000" stroke-width="8" stroke-miterlimit="10"><path d="M68 148h60" fill="rgba(0,0,0,1)"/><circle cx="58" cy="146" r="10" fill="rgba(0,0,0,1)"/><circle cx="138" cy="146" r="10" fill="rgba(0,0,0,1)"/><path d="M100 148v-45.4c0-5.3 5.1-9.2 10.2-7.7L156 108v40h-8M68 144l3.5-48.6c.3-4.2-2.7-7.9-6.8-8.5l-12.6-1.8c-4.4-.6-8.5 2.5-9.1 6.9l-7 56h12M128 100l8-32M49 68l23.7 4M58.1 85.8L60.2 74" fill="rgba(0,0,0,1)"/></g><path d="M160 105l-27.2-7.8 7.1-28.2-7.8-1.9-7 28-13.8-4c-3.7-1-7.5-.3-10.5 2s-4.8 5.8-4.8 9.6V144H72l3.4-48.3c.4-6.3-4.1-11.8-10.3-12.7l-2.5-.4 1.4-8 8 1.4 1.3-7.9-23.7-4-1.3 7.9 7.9 1.3-1.4 8.2-2.2-.3c-3.2-.5-6.4.4-9 2.3-2.6 2-4.2 4.8-4.6 8L31.5 152h13.9c2.3 4.7 7.1 8 12.6 8s10.4-3.3 12.6-8h54.7c2.3 4.7 7.1 8 12.6 8s10.4-3.3 12.6-8h9.4v-47zM44.2 144h-3.6L47 92.6c.1-1.1.7-2 1.5-2.7.9-.7 1.9-.9 3-.8l12.6 1.8c2.1.3 3.6 2.2 3.4 4.2l-2.8 38.6c-2-1.1-4.3-1.7-6.7-1.7-7 0-12.9 5.2-13.8 12zm13.8 8c-3.3 0-6-2.7-6-6s2.7-6 6-6 6 2.7 6 6-2.7 6-6 6zm80 0c-3.3 0-6-2.7-6-6s2.7-6 6-6 6 2.7 6 6-2.7 6-6 6zm14-8h-.2c-1-6.8-6.8-12-13.8-12s-12.9 5.2-13.8 12H104v-41.4c0-1.3.6-2.4 1.6-3.2 1-.8 2.3-1 3.5-.7L152 111v33z" fill="rgba(0,0,0,1)"/></svg>
