<?xml version="1.0" encoding="UTF-8"?>
<svg xmlns="http://www.w3.org/2000/svg" viewBox="0 0 192 192"><path fill="rgba(0,0,0,1)" d="M96 24c39.7 0 72 32.3 72 72s-32.3 72-72 72-72-32.3-72-72 32.3-72 72-72m0-8c-44.2 0-80 35.8-80 80s35.8 80 80 80 80-35.8 80-80-35.8-80-80-80z"/><path fill="rgba(0,0,0,1)" d="M72.9 72.7h24.7c-1.7-5.5-6.3-8.3-13.3-8.3H66.1l6.8-8.3h53l-6.8 8.3h-12.6c1.6 2.4 2.7 5.1 3.2 8.3H126l-6.8 8.3h-9.3c-1.3 8.8-7 14.5-16.5 16.6 9.5 3.3 12.5 7.4 15 20.7 1.5 6.9 4.5 15.7 5.9 17v.6H102c-2.7-4.8-4-9-6-19.1-2.4-11.7-6.6-15.5-17.4-15.5h-6v-9.5h9.2c9.4 0 14.8-3.6 16.1-10.8H66.1l6.8-8.3z"/></svg>
