<?xml version="1.0" encoding="UTF-8"?>
<svg xmlns="http://www.w3.org/2000/svg" viewBox="0 0 192 192"><path d="M60 85h9.3c2.2-10.2 4.8-15.7 10-21.1C84.5 58.6 91 56 98.7 56c7.4 0 13.4 2.5 17.6 7.2 3 3.4 4.8 6.7 7.2 13.7l-7.9 2.2c-4-11.5-8.4-15.6-17.2-15.6-7.2 0-12.6 3.2-16.2 9.5-1.9 3.3-2.8 6.2-3.9 12h24.2v6.9H77.6c-.1 1.3-.1 2.4-.1 4.4 0 2.3 0 3.5.1 4.6h24.8v6.9h-24c2.9 14.5 9.1 20.9 20.2 20.9 9.4 0 14.4-4.6 18.2-16.4l7.9 2.7c-2.4 7.2-4.4 10.7-8.1 14.4-4.7 4.5-10.9 6.9-18.1 6.9-8.4 0-15.2-2.9-20.5-8.8-4.7-5.2-6.9-10-8.9-19.6H60V101h8.5c-.1-1.1-.2-2.5-.2-4.4l.1-4.6H60v-7z" fill="rgba(0,0,0,1)"/><path d="M96 176c-44.1 0-80-35.9-80-80s35.9-80 80-80 80 35.9 80 80-35.9 80-80 80zm0-152c-39.7 0-72 32.3-72 72s32.3 72 72 72 72-32.3 72-72-32.3-72-72-72z" fill="rgba(0,0,0,1)"/></svg>
