<?xml version="1.0" encoding="UTF-8"?>
<svg xmlns="http://www.w3.org/2000/svg" viewBox="0 0 192 192"><path d="M156 116v-4h-24v4h-16v60h56v-60zm8 52h-40v-44h8v4h24v-4h8z" fill="rgba(0,0,0,1)"/><path d="M108 168H65.66L24 126.34V65.66L65.66 24h60.68L168 65.66V108h8V62.34L129.66 16H62.34L16 62.34v67.32L62.34 176H108v-8z" fill="rgba(0,0,0,1)"/><path d="M103.11 128.89A7.16 7.16 0 0 1 96 136a7.11 7.11 0 0 1 0-14.22 7.16 7.16 0 0 1 7.11 7.11zm-12.22-48V56h10.22v24.89l-2.67 30.67h-4.88zM156 116v-4h-24v4h-16v60h56v-60zm8 52h-40v-44h8v4h24v-4h8z" fill="rgba(0,0,0,1)"/><path d="M132 136h24v8h-24zM132 152h24v8h-24z" fill="rgba(0,0,0,1)"/></svg>
