<?xml version="1.0" encoding="UTF-8"?>
<svg xmlns="http://www.w3.org/2000/svg" viewBox="0 0 192 192"><path d="M103.11 128.89A7.16 7.16 0 0 1 96 136a7.11 7.11 0 0 1 0-14.22 7.16 7.16 0 0 1 7.11 7.11zm-12.22-48V56h10.22v24.89l-2.67 30.67h-4.88zM144 176a32 32 0 1 1 32-32 32 32 0 0 1-32 32zm0-56a24 24 0 1 0 24 24 24 24 0 0 0-24-24z" fill="rgba(0,0,0,1)"/><path d="M112 168H65.66L24 126.34V65.66L65.66 24h60.69L168 65.66V112a40.34 40.34 0 0 1 8 8V62.34L129.66 16H62.34L16 62.34v67.31L62.34 176H120a40.34 40.34 0 0 1-8-8z" fill="rgba(0,0,0,1)"/><path d="M148 140v-12h-8v20h20v-8h-12z" fill="rgba(0,0,0,1)"/></svg>
