<?xml version="1.0" encoding="UTF-8"?>
<svg xmlns="http://www.w3.org/2000/svg" viewBox="0 0 192 192"><path d="M176 128h-16v-8h8V40H24v80h72v8H16V32h160z" fill="rgba(0,0,0,1)"/><path d="M152 160.3l-24-19.2-24 19.2V112h8v31.7l16-12.8 16 12.8V112h8zM135.7 108.6c-2 0-3.9-.8-5.4-1.6-.7-.3-1.8-.9-2.3-.9-.4 0-1.6.5-2.2.9-2.1 1-4.7 2.2-7.6 1.2-3-1-4.5-3.6-5.5-5.6-.4-.7-.9-1.7-1.2-1.9-.3-.2-1.4-.4-2.2-.6-2.2-.4-5.1-1-7-3.5-1.8-2.5-1.5-5.5-1.2-7.7.1-.8.2-2 .1-2.3s-.9-1.1-1.4-1.7c-1.5-1.6-3.6-3.9-3.6-7 0-3.2 2.1-5.4 3.6-7 .5-.5 1.3-1.4 1.4-1.7.1-.3 0-1.5-.1-2.3-.3-2.2-.6-5.2 1.2-7.7 1.8-2.5 4.8-3.1 7-3.5.8-.1 1.9-.4 2.2-.6.3-.2.8-1.2 1.2-1.9 1.1-1.9 2.6-4.6 5.5-5.6 2.9-.9 5.5.3 7.6 1.2.7.3 1.8.9 2.3.9.4 0 1.6-.5 2.2-.9 2.1-1 4.7-2.2 7.6-1.2 3 1 4.5 3.6 5.5 5.6.4.7.9 1.7 1.2 1.9s1.4.4 2.2.6c2.2.4 5.1 1 7 3.5 1.8 2.5 1.5 5.5 1.2 7.7-.1.8-.2 2-.1 2.3.1.3.9 1.1 1.4 1.7 1.5 1.6 3.6 3.9 3.6 7 0 3.2-2.1 5.4-3.6 7-.5.5-1.3 1.4-1.4 1.7-.1.3 0 1.5.1 2.3.3 2.2.6 5.2-1.2 7.7s-4.8 3.1-7 3.5c-.8.1-1.9.4-2.2.6s-.8 1.2-1.2 1.9c-1.1 1.9-2.6 4.6-5.5 5.6-.8.3-1.5.4-2.2.4zm-.6-7.8zm-14.8-.2zm7.7-2.4c2.1 0 4 .8 5.6 1.6.5.2 1.3.6 1.7.7.3-.4.7-1.2 1-1.7.9-1.5 1.8-3.3 3.5-4.5s3.6-1.6 5.4-2c.6-.1 1.4-.3 1.9-.4 0-.5-.1-1.3-.2-1.9-.2-1.8-.4-3.8.2-5.7.6-1.9 2-3.4 3.2-4.7.4-.4 1.1-1.1 1.4-1.6-.3-.4-.9-1.1-1.4-1.6-1.2-1.3-2.5-2.7-3.2-4.7-.6-2-.4-4-.2-5.7.1-.6.2-1.4.2-1.9-.5-.2-1.3-.3-1.9-.4-1.7-.3-3.7-.7-5.4-2-1.7-1.2-2.6-3-3.5-4.5-.3-.5-.7-1.3-1-1.7-.5.2-1.2.5-1.7.7-1.6.7-3.5 1.6-5.6 1.6s-4-.8-5.6-1.6c-.5-.2-1.3-.6-1.7-.7-.3.4-.7 1.2-1 1.7-.9 1.5-1.8 3.3-3.5 4.5s-3.6 1.6-5.4 2c-.6.1-1.4.3-1.9.4 0 .5.1 1.3.2 1.9.2 1.8.4 3.8-.2 5.7-.6 1.9-2 3.4-3.2 4.7-.4.4-1.1 1.1-1.4 1.6.3.4.9 1.1 1.4 1.6 1.2 1.3 2.5 2.7 3.2 4.7.6 2 .4 4 .2 5.7-.1.6-.2 1.4-.2 1.9.5.2 1.3.3 1.9.4 1.7.3 3.7.7 5.4 2 1.7 1.2 2.6 3 3.5 4.5.3.5.7 1.3 1 1.7.5-.2 1.2-.5 1.7-.7 1.6-.8 3.5-1.6 5.6-1.6zm19.1-5.9zm-38.2 0zm38.6-.5zm-43.4-13.6zm47.8-.4zm-43.4-13.6zm38.6-.5zm-38.2 0zm26.8-8.3zm-14.8-.2z" fill="rgba(0,0,0,1)"/></svg>
