<?xml version="1.0" encoding="UTF-8"?>
<svg xmlns="http://www.w3.org/2000/svg" viewBox="0 0 192 192"><path d="M16 32v96h80v-8H24V40h144v80h-8v8h16V32z" fill="rgba(0,0,0,1)"/><path d="M144 143.7l-16-12.8-16 12.8V112h-8v48.3l24-19.2 24 19.2V112h-8zM154.9 69.2c-.1-.3 0-1.5.1-2.3.3-2.2.6-5.2-1.2-7.7-1.9-2.5-4.8-3.1-7-3.5-.8-.2-1.9-.4-2.2-.6-.3-.2-.8-1.2-1.2-1.9-1-2-2.5-4.6-5.5-5.6-2.9-1-5.5.2-7.6 1.2-.6.4-1.8.9-2.2.9-.5 0-1.6-.6-2.3-.9-2.1-.9-4.7-2.1-7.6-1.2-2.9 1-4.4 3.7-5.5 5.6-.4.7-.9 1.7-1.2 1.9-.3.2-1.4.5-2.2.6-2.2.4-5.2 1-7 3.5-1.8 2.5-1.5 5.5-1.2 7.7.1.8.2 2 .1 2.3s-.9 1.2-1.4 1.7c-1.5 1.6-3.6 3.8-3.6 7 0 3.1 2.1 5.4 3.6 7 .5.6 1.3 1.4 1.4 1.7.1.3 0 1.5-.1 2.3-.3 2.2-.6 5.2 1.2 7.7 1.9 2.5 4.8 3.1 7 3.5.8.2 1.9.4 2.2.6s.8 1.2 1.2 1.9c1 2 2.5 4.6 5.5 5.6 2.9 1 5.5-.2 7.6-1.2.6-.4 1.8-.9 2.2-.9.5 0 1.6.6 2.3.9 1.5.8 3.4 1.6 5.4 1.6.7 0 1.4-.1 2.2-.4 2.9-1 4.4-3.7 5.5-5.6.4-.7.9-1.7 1.2-1.9.3-.2 1.4-.5 2.2-.6 2.2-.4 5.2-1 7-3.5 1.8-2.5 1.5-5.5 1.2-7.7-.1-.8-.2-2-.1-2.3.1-.3.9-1.2 1.4-1.7 1.5-1.6 3.6-3.8 3.6-7 0-3.1-2.1-5.4-3.6-7-.5-.6-1.3-1.4-1.4-1.7zm-4.6 10.4c-1.2 1.3-2.6 2.8-3.2 4.7-.6 1.9-.4 3.9-.2 5.7.1.6.2 1.4.2 1.9-.5.1-1.3.3-1.9.4-1.8.4-3.7.8-5.4 2-1.7 1.2-2.6 3-3.5 4.5-.3.5-.7 1.3-1 1.7-.4-.1-1.2-.5-1.7-.7-1.6-.8-3.5-1.6-5.6-1.6-2.1 0-4 .8-5.6 1.6-.5.2-1.2.5-1.7.7-.3-.4-.7-1.2-1-1.7-.9-1.5-1.8-3.3-3.5-4.5-1.7-1.3-3.7-1.7-5.4-2-.6-.1-1.4-.2-1.9-.4 0-.5.1-1.3.2-1.9.2-1.7.4-3.7-.2-5.7-.7-2-2-3.4-3.2-4.7-.5-.5-1.1-1.2-1.4-1.6.3-.5 1-1.2 1.4-1.6 1.2-1.3 2.6-2.8 3.2-4.7.6-1.9.4-3.9.2-5.7-.1-.6-.2-1.4-.2-1.9.5-.1 1.3-.3 1.9-.4 1.8-.4 3.7-.8 5.4-2s2.6-3 3.5-4.5c.3-.5.7-1.3 1-1.7.4.1 1.2.5 1.7.7 1.6.8 3.5 1.6 5.6 1.6 2.1 0 4-.9 5.6-1.6.5-.2 1.2-.5 1.7-.7.3.4.7 1.2 1 1.7.9 1.5 1.8 3.3 3.5 4.5 1.7 1.3 3.7 1.7 5.4 2 .6.1 1.4.2 1.9.4 0 .5-.1 1.3-.2 1.9-.2 1.7-.4 3.7.2 5.7.7 2 2 3.4 3.2 4.7.5.5 1.1 1.2 1.4 1.6-.3.5-1 1.2-1.4 1.6zM32 68v24h6.6v-8.1h4.5c5.4 0 8.7-3 8.7-7.8 0-5.1-3.3-8.1-9-8.1H32zm13.5 7.9c0 2-1.2 3.1-3.3 3.1h-3.5v-6.1h3.6c2.1 0 3.2 1 3.2 3zM55 68v24h6.6v-6.5l1.9-2.3 5.7 8.8h7.3l-8.7-13.8 8-10.2h-7.2l-7 9.3V68zM80 68h6.6v24H80z" fill="rgba(0,0,0,1)"/></svg>
