<?xml version="1.0" encoding="UTF-8"?>
<svg xmlns="http://www.w3.org/2000/svg" viewBox="0 0 192 192"><path d="M67.3 87.2c-.7-1.4-2-2.5-3.5-2.9-1.5-.5-3.2-.3-4.6.4-1.4.7-2.5 2-2.9 3.5-.5 1.5-.3 3.2.4 4.6 1.1 2 3.2 3.2 5.3 3.2.9 0 1.9-.2 2.8-.7 2.9-1.5 4.1-5.2 2.5-8.1zm104.4-44.7c-2.6-5.3-7.2-9.2-12.8-11-5.6-1.8-11.6-1.3-16.9 1.4L76.9 66.5c-1.4-1.3-3-2.3-4.8-2.8-3.1-1-6.6-.6-9.4 1.1l-5.3 3-10.6-10.6-5.7 5.7 9 9-9.8 5.6-4.1 24.8-21 25.2 9.1 16.8.3.5c2.3 3.1 5.9 4.8 9.6 4.8 2 0 4-.5 5.9-1.5l51.2-28.8c4.8-2.7 7-8.2 5.8-13.4l65.2-34.1c10.5-5.6 14.7-18.7 9.4-29.3zM36.2 141.1c-1.7.9-3.8.5-5-.9l-6.3-11.7 13.9-16.6 8.6 23-11.2 6.2zm51.2-28.9l-33.1 18.6-10.2-27.2 3.5-21.1 19-10.9c1-.6 2.1-.7 3.1-.4 1.1.3 1.9 1 2.4 2L89 107c1 1.9.3 4.2-1.6 5.2zm71.2-47.6l-64.8 34-4.4-8.9L146 59.5l-3.8-7.1-56.5 30.1-4.6-9.2 64.6-33.4c3.3-1.7 7.1-2 10.7-.9 3.6 1.2 6.5 3.7 8.1 7 3.4 6.8.7 15.1-5.9 18.6z" fill="rgba(0,0,0,1)"/></svg>
