<?xml version="1.0" encoding="UTF-8"?>
<svg xmlns="http://www.w3.org/2000/svg" viewBox="0 0 192 192"><path d="M16 160h72V88H16v72zm8-64h56v56H24V96zM140 88c-19.8 0-36 16.1-36 36s16.1 36 36 36 36-16.1 36-36-16.2-36-36-36zm0 64c-15.4 0-28-12.6-28-28s12.6-28 28-28 28 12.6 28 28-12.6 28-28 28z" fill="rgba(0,0,0,1)"/><path d="M56 107.2h-6.1c-.9 3.8-3.2 5.6-8.1 6.1v5.3c2.7 0 5.3-.3 6.9-.9V135h-7.1v5.8h20.6V135H56v-27.8zM144.9 128.6c3.4-3.2 5-6.5 5-10.2 0-5.5-3.7-9-9.8-9-5.4 0-8.7 2.6-10.2 7.9l5.6 1.4c.8-3 2.1-4.3 4.3-4.3 2.3 0 3.6 1.5 3.6 4 0 3.1-1.8 6.2-5.3 9.4-2.3 2-3.6 3-8.2 5.9v4.9h20.3v-4.9H138c3.5-2.2 5.2-3.5 6.9-5.1zM127.4 65.7l-8.5-8.5-5.7 5.7L132 81.7l18.8-18.8-5.7-5.7-9.5 9.5C133 47.1 116.3 32 96 32c-22.1 0-40 17.9-40 40h8c0-17.6 14.4-32 32-32 15.5 0 28.5 11.1 31.4 25.7z" fill="rgba(0,0,0,1)"/></svg>
