<?xml version="1.0" encoding="UTF-8"?>
<svg xmlns="http://www.w3.org/2000/svg" viewBox="0 0 192 192"><path d="M142.7 92l-7-17.5c-.6-1.6-2.2-2.6-3.9-2.5-1.7.1-3.2 1.2-3.7 2.8l-8.6 28.6-19.8-52.8c-.6-1.6-2.2-2.7-3.8-2.6-1.7 0-3.2 1.2-3.7 2.8l-24.4 76.8-12-33c-.6-1.5-2.1-2.6-3.8-2.6H40V48h-8v96h8v-44h9.2l15 41.4c.6 1.6 2.1 2.6 3.8 2.6h.1c1.7 0 3.2-1.2 3.7-2.8l24.5-77 19.9 53.2c.6 1.6 2.2 2.6 3.9 2.6 1.7-.1 3.2-1.2 3.7-2.8l8.7-29 3.7 9.4c.6 1.5 2.1 2.5 3.7 2.5h20v-8h-17.2z" fill="rgba(0,0,0,1)"/></svg>
