<?xml version="1.0" encoding="UTF-8"?>
<svg xmlns="http://www.w3.org/2000/svg" viewBox="0 0 192 192"><path d="M128 176H96V92h32v84zm-24-8h16v-68h-16v68zM176 176h-32V48h32v128zm-24-8h16V56h-16v112zM80 176H48v-40h32v40zm-24-8h16v-24H56v24zM66.1 45.6l-1.4-2.1c-6-9.3-9.8-15.7-9.8-15.7L48 16l-6.9 11.8c0 .1-3.8 6.4-9.8 15.7l-1.4 2.1C23.7 55.1 16 66.8 16 79.9 16 97.6 30.4 112 48 112s32-14.4 32-32.1c0-13.1-7.7-24.8-13.9-34.3zM48 104c-13.2 0-24-10.8-24-24.1 0-9.8 5.8-18.7 10.4-25.8l1-1.6c4.5-7 7.3-11.7 7.4-11.8L48 32l5.2 8.8s2.8 4.8 7.4 11.8l1 1.6C66.3 61.3 72 70.2 72 80c0 13.2-10.8 24-24 24z" fill="rgba(0,0,0,1)"/></svg>
