<?xml version="1.0" encoding="UTF-8"?>
<svg xmlns="http://www.w3.org/2000/svg" viewBox="0 0 192 192"><path d="M140 157.7l-10.8-10.9 5.6-5.6 5.2 5.1 13.2-13.1 5.6 5.6z" fill="rgba(0,0,0,1)"/><path d="M144 176c-17.6 0-32-14.4-32-32s14.4-32 32-32 32 14.4 32 32-14.4 32-32 32zm0-56c-13.2 0-24 10.8-24 24s10.8 24 24 24 24-10.8 24-24-10.8-24-24-24z" fill="rgba(0,0,0,1)"/><path fill="none" d="M144 144v-32c-2.8 0-5.4.4-8 1v31h-8v-27.7c-3 1.7-5.7 4-8 6.6V144h-8c0 2.8.4 5.4 1 8h6v8h-2.7c5.5 9.6 15.9 16 27.7 16 17.6 0 32-14.4 32-32 0-14.9-10.2-27.4-24-31v31h-8z"/><path d="M32 152v8h75.3c-1.1-2.5-2-5.2-2.5-8H32zM32 32h8v112h-8zM48 32h8v112h-8zM64 32h8v112h-8zM80 32h8v112h-8zM96 32h8v112h-8zM120 112V32h-8v88c2.3-3 5-5.7 8-8zM136 32h-8v75.3c2.5-1.1 5.2-2 8-2.5V32zM152 32h-8v72c2.7 0 5.4.3 8 .8V32z" fill="rgba(0,0,0,1)"/></svg>
