<?xml version="1.0" encoding="UTF-8"?>
<svg xmlns="http://www.w3.org/2000/svg" viewBox="0 0 192 192"><path d="M32 152v8h75.3c-1.1-2.5-2-5.2-2.5-8H32zM32 32h8v112h-8zM48 32h8v112h-8zM64 32h8v112h-8zM80 32h8v112h-8zM96 32h8v112h-8zM120 112V32h-8v88c2.3-3 5-5.7 8-8zM136 32h-8v75.3c2.5-1.1 5.2-2 8-2.5V32zM152 32h-8v72c2.7 0 5.4.3 8 .8V32zM176 144c0-17.6-14.4-32-32-32s-32 14.4-32 32 14.4 32 32 32 32-14.4 32-32zm-32-24v25h24c-.5 12.8-11.1 23-24 23v-23h-24v-1c0-13.2 10.8-24 24-24z" fill="rgba(0,0,0,1)"/></svg>
