<?xml version="1.0" encoding="UTF-8"?>
<svg xmlns="http://www.w3.org/2000/svg" viewBox="0 0 192 192"><path d="M80 60v68h50.3l33.7 33.7V128h12V60H80zm88 60h-12v22.3L133.7 120H88V68h80v52z" fill="rgba(0,0,0,1)"/><path d="M36 118.3V96H24V40h84v12h8V32H16v72h12v33.7L61.7 104H72v-8H58.3zM121.5 102.8h11.7l1.7 5.2h8.9L133 77.4h-10L112 108h7.8l1.7-5.2zm5.9-17.9l3.9 11.9h-7.9l4-11.9z" fill="rgba(0,0,0,1)"/><path d="M54.5 63.2h11.8l-.1.4c-.8 2.9-1.6 5.1-2.3 6.4-1.6 3.1-3.8 5.8-6.5 8.1 3.4 1.7 8.2 3.2 14.3 4.6l.4.1-.2.3c-.7 1.1-1 1.8-1.2 2.1-.1.3-.3.7-.5 1.4-.1.4-.2.8-.3 1.1l-.3-.1c-4-1.2-7-2.2-9.1-3-2.1-.8-4.7-2-7.7-3.5-3.2 1.6-6.2 2.9-8.9 3.9s-6 1.9-9.9 2.9v-.2c-.2-1-.4-1.6-.4-1.8-.1-.2-.3-.6-.6-1.1-.3-.5-.6-1.1-1-1.7l.4-.1c6.4-1.2 11.6-2.8 15.7-4.8-3-2.5-5.3-5.8-7.1-10.1h-4.4v-4.8h12.7v-3.8H32.9v-5.1h16.3V48h5.3v6.3h16.8v5.1H54.5v3.8zm-8.4 4.9c1.6 3.3 3.8 5.9 6.6 7.6 1.3-.9 2.6-2 3.8-3.4 1.2-1.4 2.2-2.8 2.9-4.2H46.1z" fill="rgba(0,0,0,1)"/></svg>
