<?xml version="1.0" encoding="UTF-8"?>
<svg xmlns="http://www.w3.org/2000/svg" viewBox="0 0 192 192"><path d="M84 125.7L57.2 98.8l5.7-5.7L84 114.3l45.2-45.2 5.7 5.7L84 125.7zm0 50.3h8v-23.1l7.6 23.1h6.5l7.7-23v23h9v-33.5h-13l-6.5 20.3-6.4-20.3H84V176zm46.1 0h9.2v-33.5h-9.2V176zm16.6 0h8.3v-20.7l11.5 20.7h9.4v-33.5h-8.3v19.6l-10.9-19.6h-10V176zM176 96c0-44.1-35.9-80-80-80S16 51.9 16 96c0 36.4 25 68.5 60 77.5v-8.3c-30.4-8.8-52-37.1-52-69.2 0-39.7 32.3-72 72-72s72 32.3 72 72c0 12.7-3.3 25.1-9.6 36h9.1c5.6-11.1 8.5-23.4 8.5-36z" fill="rgba(0,0,0,1)"/></svg>
