<?xml version="1.0" encoding="UTF-8"?>
<svg xmlns="http://www.w3.org/2000/svg" viewBox="0 0 192 192"><path d="M52 176c-19.9 0-36-16.1-36-36s16.1-36 36-36 36 16.1 36 36-16.1 36-36 36zm0-64c-15.4 0-28 12.6-28 28s12.6 28 28 28 28-12.6 28-28-12.6-28-28-28zm88-96c-19.9 0-36 16.1-36 36v.7c2.8.5 5.5 1.3 8.2 2.3-.1-1-.2-2-.2-3.1 0-15.4 12.6-28 28-28s28 12.6 28 28-12.6 28-28 28c-1 0-2.1-.1-3.1-.2 1 2.6 1.8 5.3 2.3 8.2h.7c19.9 0 36-16.1 36-36S159.9 16 140 16zM96 60c-19.9 0-36 16.1-36 36v.7c2.8.5 5.5 1.3 8.2 2.3-.1-1-.2-2-.2-3.1 0-15.4 12.6-28 28-28s28 12.6 28 28-12.6 28-28 28c-1 0-2.1-.1-3.1-.2 1 2.6 1.8 5.3 2.3 8.2h.7c19.9 0 36-16.1 36-36S115.9 60 96 60zm14.8 30.8l-5.7-5.7L92 98.3l-5.2-5.2-5.7 5.7L92 109.7l18.8-18.9zm-44 44l-5.7-5.7L48 142.3l-5.2-5.2-5.7 5.7L48 153.7l18.8-18.9zm88-88l-5.7-5.7L136 54.3l-5.2-5.2-5.7 5.7L136 65.7l18.8-18.9z" fill="rgba(0,0,0,1)"/></svg>
