<?xml version="1.0" encoding="UTF-8"?>
<svg xmlns="http://www.w3.org/2000/svg" viewBox="0 0 192 192"><path d="M165.8 87.6l-8.9 5.9-14-20.3 8.8-5.9-4.4-6.7-121.5 81.2 4.4 6.7 8.9-5.9 14 20.3-8.8 5.9 4.4 6.7 121.5-81.1-4.4-6.8zm-15.5 10.3l-17.6 11.8-14-20.3 17.6-11.8 14 20.3zm-56 7.7L112 93.8l14 20.3-17.6 11.8-14.1-20.3zm7.4 24.8L84 142.2l-14-20.3 17.6-11.8 14.1 20.3zm-56 7.7l17.6-11.8 14 20.3-17.6 11.8-14-20.3zM120 137.4V148h-8v28h8v-20h8v-24zM116 60c0-4.5-1.5-8.7-4-12h4c2.2 0 4-1.8 4-4s-1.8-4-4-4h-4V16H80v24h-4c-2.2 0-4 1.8-4 4s1.8 4 4 4h4c-2.5 3.3-4 7.5-4 12 0 7.5 4.2 14.1 10.3 17.5-12.5 4-21.7 15.5-22.3 29.1l9.2-6.1C76.4 90.9 85.4 84 96 84c.6 0 1.2 0 1.8.1L107 78c-.4-.2-.9-.3-1.3-.5 6.1-3.4 10.3-10 10.3-17.5zM88 24h16v16H88V24zm8 48c-6.6 0-12-5.4-12-12s5.4-12 12-12 12 5.4 12 12-5.4 12-12 12z" fill="rgba(0,0,0,1)"/></svg>
