<?xml version="1.0" encoding="UTF-8"?>
<svg xmlns="http://www.w3.org/2000/svg" viewBox="0 0 192 192"><path d="M96 32c-35.3 0-64 28.7-64 64s28.7 64 64 64 64-28.7 64-64-28.7-64-64-64zm0 120c-30.9 0-56-25.1-56-56s25.1-56 56-56 56 25.1 56 56-25.1 56-56 56z" fill="rgba(0,0,0,1)"/><path d="M37.3 54.4l-6.5-4.6C21.1 63.3 16 79.3 16 96c0 16.7 5.1 32.7 14.8 46.3l6.5-4.6C28.6 125.5 24 111 24 96c0-15 4.6-29.4 13.3-41.6zM161.2 49.7l-6.5 4.6C163.4 66.5 168 81 168 96c0 15-4.6 29.4-13.3 41.6l6.5 4.6c9.6-13.6 14.7-29.6 14.7-46.3.1-16.6-5-32.6-14.7-46.2zM120 73.1C120 61.5 109.2 52 96 52s-24 9.5-24 21.1V76h-8v56h64V76h-8v-2.9zm-40 0C80 65.9 87.2 60 96 60s16 5.9 16 13.1V76H80v-2.9zm40 50.9H72V84h48v40z" fill="rgba(0,0,0,1)"/><path d="M92 106.9v9.1h8v-9.1c2.4-1.4 4-4 4-6.9 0-4.4-3.6-8-8-8s-8 3.6-8 8c0 3 1.6 5.5 4 6.9z" fill="rgba(0,0,0,1)"/></svg>
