<?xml version="1.0" encoding="UTF-8"?>
<svg xmlns="http://www.w3.org/2000/svg" viewBox="0 0 192 192"><path d="M153.6 40.5c-14.2-14.7-33.2-23.4-53.6-24.4v8c38.2 2.1 68 33.4 68 71.9 0 39.7-32.3 72-72 72-18.9 0-36.8-7.3-50.3-20.5-13-12.7-20.6-29.5-21.6-47.5h-8c1 20.2 9.5 39.1 24 53.3C55.2 167.9 75 176 96 176c44.1 0 80-35.9 80-80 0-20.8-8-40.5-22.4-55.5z" fill="rgba(0,0,0,1)"/><path d="M55.7 55.7c9.8-9.8 22.6-15.6 36.3-16.5v-24c-20.1 1-39 9.4-53.3 23.6A80.801 80.801 0 0 0 15.1 92h24c1-13.7 6.8-26.5 16.6-36.3z" fill="rgba(0,0,0,1)"/></svg>
