<?xml version="1.0" encoding="UTF-8"?>
<svg xmlns="http://www.w3.org/2000/svg" viewBox="0 0 192 192"><path d="M96 32c-35.3 0-64 28.7-64 64s28.7 64 64 64 64-28.7 64-64-28.7-64-64-64zm0 120c-30.9 0-56-25.1-56-56s25.1-56 56-56 56 25.1 56 56-25.1 56-56 56z" fill="rgba(0,0,0,1)"/><path d="M63.8 75.8L52 108h6.5l2.2-6.3h13.1L76 108h7.3L71.6 75.8h-7.8zm-1.5 20.9l4.9-14.3 4.9 14.3h-9.8zM107.2 91.2c1.3-.6 2.2-1.2 2.9-2 1.1-1.2 1.7-2.9 1.7-5 0-2.9-1-5.1-2.9-6.5-1.8-1.3-4.4-2-7.6-2H87V108h14.8c3.1 0 5.5-.5 7.4-1.6 2.5-1.4 3.8-3.9 3.8-7.3 0-2.5-.7-4.4-2-5.7-.8-.9-2.1-1.6-3.8-2.2zM93.7 81h6.4c1.9 0 3.2.3 3.9 1 .7.7 1 1.6 1 3 0 1.3-.3 2.2-.8 2.9-.7.8-1.8 1.1-3.4 1.1h-7.1v-8zm11.4 20.6c-.8.8-2.1 1.3-3.8 1.3h-7.7v-9h7.4c3.5 0 5.2 1.5 5.2 4.4.1 1.4-.3 2.5-1.1 3.3zM139.1 91.1c-1.5-1-4.3-1.9-8.3-2.8-1.1-.2-2-.4-2.7-.7-.7-.2-1.3-.6-1.9-1-.7-.6-1.1-1.3-1.1-2.4 0-1.3.5-2.2 1.5-2.9.8-.5 1.9-.7 3.2-.7 1.9 0 3.5.4 4.6 1.3.7.5 1.4 1.4 2 2.6L142 82c-2.4-4.5-6.5-6.7-12.3-6.7-3 0-5.4.6-7.4 1.9-2.6 1.7-3.9 4.3-3.9 7.8 0 4 2.2 6.7 6.5 8.1 1 .3 2.7.8 5.1 1.3 1.2.3 2.3.6 3.2.9.7.2 1.2.5 1.8.9.8.6 1.1 1.5 1.1 2.6 0 1.4-.6 2.5-1.8 3.2-1.1.6-2.5 1-4.2 1-2.3 0-4.2-.5-5.6-1.6-1-.7-1.8-1.8-2.4-3.3l-6 2.5c.3.7.6 1.2.9 1.6.8 1.4 2 2.5 3.3 3.5 2.5 1.8 5.9 2.7 10 2.7 2 0 3.9-.2 5.5-.7 2.2-.6 3.9-1.6 5-3 1.4-1.7 2.1-3.8 2.1-6.3-.1-3.2-1.3-5.6-3.8-7.3zM37.3 54.4l-6.5-4.6C21.1 63.3 16 79.3 16 96c0 16.7 5.1 32.7 14.8 46.3l6.5-4.6C28.6 125.5 24 111 24 96c0-15 4.6-29.4 13.3-41.6zM161.2 49.7l-6.5 4.6C163.4 66.5 168 81 168 96c0 15-4.6 29.4-13.3 41.6l6.5 4.6c9.6-13.6 14.7-29.6 14.7-46.3.1-16.6-5-32.6-14.7-46.2z" fill="rgba(0,0,0,1)"/></svg>
