<?xml version="1.0" encoding="UTF-8"?>
<svg xmlns="http://www.w3.org/2000/svg" viewBox="0 0 192 192"><path d="M40 104h-4c-2.2 0-4 1.8-4 4s1.8 4 4 4h4c2.2 0 4-1.8 4-4s-1.8-4-4-4z" fill="rgba(0,0,0,1)"/><path d="M166 92.5L145.1 80H140v-4c0-6.4-5.5-12-12-12h-8V48c0-6.2-1.8-8-8-8H80c-2.6 0-4.7 0-6.3 1.7C72 43.3 72 45.4 72 48v16h-8c-6.5.1-12 5.6-12 12v4h-5.1L26 92.5c-1.3.7-10 5.8-10 15.5s8.7 14.8 10 15.5L46.9 136H52v4c0 6.4 5.5 12 12 12h64c6.5-.1 12-5.6 12-12v-4h5.1l20.9-12.5c1.3-.7 10-5.8 10-15.5s-8.7-14.8-10-15.5zM49.1 128l-19-11.4-.2-.1c-.1 0-5.8-3.2-5.8-8.4 0-5.3 5.8-8.4 5.8-8.4L49.1 88H52v40h-2.9zm82.9 12c0 2.1-1.9 4-4 4H64c-2.2 0-4-1.9-4-4V76c0-2.1 1.9-4 4-4h16v-4-20h32v24h16c2.2 0 4 1.9 4 4v64zm30.2-23.6L142.9 128H140V88h2.9L162 99.4l.2.1c.1 0 5.8 3.2 5.8 8.5s-5.8 8.4-5.8 8.4z" fill="rgba(0,0,0,1)"/><path d="M156 104h-4c-2.2 0-4 1.8-4 4s1.8 4 4 4h4c2.2 0 4-1.8 4-4s-1.8-4-4-4z" fill="rgba(0,0,0,1)"/></svg>
