<?xml version="1.0" encoding="UTF-8"?>
<svg xmlns="http://www.w3.org/2000/svg" viewBox="0 0 192 192"><path d="M116 70.3l-5.2-5.1-5.6 5.6L116 81.7l18.8-18.9-5.6-5.6zM116 98.3l-5.2-5.1-5.6 5.6 10.8 10.9 18.8-18.9-5.6-5.6zM116 126.3l-5.2-5.1-5.6 5.6 10.8 10.9 18.8-18.9-5.6-5.6z" fill="rgba(0,0,0,1)"/><path d="M124 24v-8H68v8H40v152h112V24h-28zm-48 0h40v8H76v-8zm68 144H48V32h20v8h56v-8h20v136z" fill="rgba(0,0,0,1)"/><path d="M56 68h40v8H56zM56 96h40v8H56zM56 124h40v8H56z" fill="rgba(0,0,0,1)"/></svg>
