<?xml version="1.0" encoding="UTF-8"?>
<svg xmlns="http://www.w3.org/2000/svg" viewBox="0 0 192 192"><path d="M129.2 57.2l5.7 5.7L116 81.7l-10.8-10.8 5.7-5.7 5.2 5.2 13.1-13.2zM116 98.3l-5.2-5.2-5.7 5.7 10.8 10.8 18.8-18.8-5.7-5.7-13 13.2zM56 76h40v-8H56v8zm0 28h40v-8H56v8zm0 28h40v-8H56v8zm120 12c0-17.6-14.4-32-32-32s-32 14.4-32 32 14.4 32 32 32 32-14.4 32-32zm-8 0c0 13.2-10.8 24-24 24s-24-10.8-24-24 10.8-24 24-24 24 10.8 24 24zm-11.3 2.7l3.1 1.8-4 6.9-3.2-1.8c-1.3 1.2-2.9 2.2-4.7 2.7v3.6h-8v-3.6c-1.8-.6-3.4-1.5-4.7-2.7l-3.2 1.8-4-6.9 3.1-1.8c-.2-.9-.3-1.8-.3-2.7s.1-1.8.3-2.7l-3.1-1.8 4-6.9 3.2 1.8c1.3-1.2 2.9-2.2 4.7-2.7V128h8v3.6c1.8.6 3.3 1.5 4.7 2.7l3.2-1.8 4 6.9-3.1 1.8c.2.9.3 1.8.3 2.7 0 1-.1 1.9-.3 2.8zM149 144c0-2.8-2.2-5-5-5s-5 2.2-5 5 2.2 5 5 5 5-2.2 5-5zm-29 32H40V24h28v-8h56v8h28v80.8c-2.6-.5-5.3-.8-8-.8V32h-20v8H68v-8H48v136h64c2.3 3 5 5.7 8 8zM76 32h40v-8H76v8z" fill="rgba(0,0,0,1)"/></svg>
