<?xml version="1.0" encoding="UTF-8"?>
<svg xmlns="http://www.w3.org/2000/svg" viewBox="0 0 192 192"><path d="M144 112c-17.6 0-32 14.4-32 32s14.4 32 32 32 32-14.4 32-32-14.4-32-32-32zm0 56c-13.2 0-24-10.8-24-24s10.8-24 24-24 24 10.8 24 24-10.8 24-24 24zM136 100H92V44h8v48h36z" fill="rgba(0,0,0,1)"/><path d="M136 136h16v16h-16z" fill="rgba(0,0,0,1)"/><circle cx="144" cy="144" r="32" fill="none"/><path d="M110.9 166.4c-4.9 1-9.9 1.6-14.9 1.6-39.7 0-72-32.3-72-72s32.3-72 72-72 72 32.3 72 72c0 5-.5 10-1.6 14.9 2.5 1.7 4.8 3.7 6.8 5.9 1.8-6.7 2.7-13.7 2.7-20.8 0-44.1-35.9-80-80-80S16 51.9 16 96s35.9 80 80 80c7 0 14-.9 20.8-2.7-2.2-2.1-4.2-4.4-5.9-6.9z" fill="rgba(0,0,0,1)"/></svg>
