<?xml version="1.0" encoding="UTF-8"?>
<svg xmlns="http://www.w3.org/2000/svg" viewBox="0 0 192 192"><path d="M159.8 72.2c.1-1.4.2-2.8.2-4.2 0-23.2-18.8-42-42-42-13.7 0-26.3 6.5-34.2 17.5-3.2-1-6.5-1.5-9.8-1.5-15.6 0-28.9 11.4-31.5 26.5C27.4 71.1 16 84.4 16 100c0 17.6 14.4 32 32 32h36v-8H48c-13.2 0-24-10.8-24-24 0-12.6 9.8-23.1 22.3-23.9l3.5-.2.2-3.5C50.9 59.8 61.4 50 74 50c3.4 0 6.7.7 9.8 2.1l3.2 1.4 1.8-3C95.1 40.2 106 34 118 34c18.7 0 34 15.3 34 34 0 1.9-.2 3.8-.5 5.8l-.5 3.1 2.8 1.3C162.4 82 168 90.6 168 100c0 13.2-10.8 24-24 24h-36v8h36c17.6 0 32-14.4 32-32 0-11.6-6.3-22.2-16.2-27.8z" fill="rgba(0,0,0,1)"/><path d="M117.2 114.8l5.6-5.6L96 82.3l-26.8 26.9 5.6 5.6L92 97.7V172h8V97.7z" fill="rgba(0,0,0,1)"/></svg>
