<?xml version="1.0" encoding="UTF-8"?>
<svg xmlns="http://www.w3.org/2000/svg" viewBox="0 0 192 192"><path d="M103.8 139.9c-1.6 3.9-3.2 6.2-5.9 8.1-2.9 2.2-6.6 3.3-10.9 3.3-11.6 0-19-7.9-19-20.3 0-12.1 7.7-20.6 18.8-20.6 4.9 0 9 1.4 12 4.2 1.9 1.8 3 3.4 4.5 6.9l-7.9 3.2c-1.9-5.1-4.4-7.2-8.6-7.2-6.1 0-9.5 4.8-9.5 13.3s3.5 13.3 9.8 13.3c4.4 0 7-2.3 8.8-7.5l7.9 3.3zM146.7 130.8c0 12.1-7.9 20.6-19.3 20.6-11.3 0-19.1-8.3-19.1-20.3s8.1-20.5 19.5-20.5c11-.1 18.9 8.4 18.9 20.2zm-29.2.1c0 8.3 3.8 13.3 10 13.3 6.3 0 9.9-4.9 9.9-13.3 0-8.2-3.8-13.3-9.9-13.3-6.3 0-10 4.9-10 13.3zM152.2 154.4c8.3-4.2 11.6-7.3 11.6-10.7 0-1.7-.8-2.6-2.2-2.6-1.5 0-2.3.9-2.8 2.9l-6.9-1.6c1.3-4.9 4.7-7.4 10.1-7.4 6 0 9.8 3.2 9.8 8.3 0 4.4-3 8-9.1 10.8h9.1v5.9H152v-5.6z" fill="rgba(0,0,0,1)"/><g><path d="M168 102.3c0-11-5.9-21.1-15.3-26.5.1-1.3.2-2.6.2-3.8 0-22.1-17.9-40-40-40-13 0-24.9 6.1-32.4 16.6-3-1-6.1-1.4-9.2-1.4-14.9 0-27.5 10.8-30 25.1-14.5 2.5-25.3 15.2-25.3 30 0 16.8 13.7 30.5 30.5 30.5h13.7V131c0-2.1.2-4.2.6-6.2H46.5c-12.4 0-22.5-10.1-22.5-22.5 0-11.8 9.2-21.7 21-22.5l3.5-.2.2-3.5c.8-11.8 10.7-21 22.5-21 3.2 0 6.3.7 9.2 2l3.2 1.4 1.8-3c5.9-9.7 16.1-15.5 27.4-15.5 17.6 0 32 14.4 32 32 0 1.8-.2 3.6-.5 5.4l-.5 3.1 2.8 1.3c8.1 3.6 13.3 11.7 13.3 20.6 0 6.6-2.8 12.6-7.6 16.9 1.1 2.6 1.8 5.4 2.1 8.5 8.6-5.8 13.6-15.2 13.6-25.5z" fill="rgba(0,0,0,1)"/></g></svg>
