<?xml version="1.0" encoding="UTF-8"?>
<svg xmlns="http://www.w3.org/2000/svg" viewBox="0 0 192 192"><path d="M144 149H48c-17.6 0-32-14.4-32-32 0-15.6 11.4-28.9 26.5-31.5C45.1 70.4 58.4 59 74 59c3.4 0 6.7.5 9.8 1.5C91.7 49.5 104.3 43 118 43c23.2 0 42 18.8 42 42 0 1.4-.1 2.8-.2 4.2 9.9 5.6 16.2 16.3 16.2 27.8 0 17.6-14.4 32-32 32zM74 67c-12.6 0-23.1 9.8-23.9 22.3l-.2 3.5-3.5.2c-12.6.9-22.4 11.4-22.4 24 0 13.2 10.8 24 24 24h96c13.2 0 24-10.8 24-24 0-9.4-5.6-18-14.2-21.9l-2.8-1.3.5-3.1c.3-1.9.5-3.9.5-5.8 0-18.7-15.3-34-34-34-12 0-22.9 6.2-29.2 16.5l-1.8 3-3.2-1.4c-3.1-1.3-6.4-2-9.8-2z" fill="rgba(0,0,0,1)"/></svg>
