<?xml version="1.0" encoding="UTF-8"?>
<svg xmlns="http://www.w3.org/2000/svg" viewBox="0 0 192 192"><path d="M168 102.3c0-11-5.9-21.1-15.3-26.5.1-1.3.2-2.6.2-3.8 0-22.1-17.9-40-40-40-13 0-24.9 6.1-32.4 16.6-3-1-6.1-1.4-9.2-1.4-14.9 0-27.5 10.8-30 25.1-14.5 2.5-25.3 15.2-25.3 30 0 16.8 13.7 30.5 30.5 30.5H61v-8H46.5c-12.4 0-22.5-10.1-22.5-22.5 0-11.8 9.2-21.7 21-22.5l3.5-.2.2-3.5c.8-11.8 10.7-21 22.5-21 3.2 0 6.3.7 9.2 2l3.2 1.4 1.8-3c5.9-9.7 16.1-15.5 27.4-15.5 17.6 0 32 14.4 32 32 0 1.8-.2 3.6-.5 5.4l-.5 3.1 2.8 1.3c8.1 3.6 13.3 11.7 13.3 20.6 0 6.6-2.8 12.6-7.6 16.9 1.1 2.6 1.8 5.4 2.1 8.5 8.6-5.8 13.6-15.2 13.6-25.5z" fill="rgba(0,0,0,1)"/><path d="M69 151.3v-40.2h10.6l8.4 14.7c2.4 4.2 4.8 9.2 6.6 13.8h.2c-.6-5.3-.8-10.7-.8-16.8v-11.7h8.4v40.2h-9.5l-8.6-15.5c-2.4-4.3-5-9.5-7-14.2l-.2.1c.2 5.3.4 11 .4 17.5v12.1H69zM147 130.8c0 13.2-8 21.2-19.7 21.2-11.9 0-18.9-9-18.9-20.5 0-12.1 7.7-21.1 19.6-21.1 12.3.1 19 9.3 19 20.4zm-29.1.6c0 7.9 3.7 13.4 9.8 13.4 6.1 0 9.7-5.8 9.7-13.7 0-7.2-3.5-13.4-9.7-13.4-6.2 0-9.8 5.8-9.8 13.7z" fill="rgba(0,0,0,1)"/><path d="M155.4 136l2.4 4c.7 1.2 1.3 2.5 2 3.6h.1c.6-1.3 1.2-2.5 1.9-3.7l2.1-3.9h8.1l-7.9 11.5 8 12.6h-8.5l-2.4-4.3c-.7-1.2-1.3-2.4-1.9-3.6h-.1c-.6 1.3-1.2 2.5-1.8 3.6L155 160h-8.2l8.2-12.2-8-11.8h8.4z" fill="rgba(0,0,0,1)"/></svg>
