<?xml version="1.0" encoding="UTF-8"?>
<svg xmlns="http://www.w3.org/2000/svg" viewBox="0 0 192 192"><path d="M144 176c-17.6 0-32-14.4-32-32s14.4-32 32-32 32 14.4 32 32-14.4 32-32 32zm0-56c-13.2 0-24 10.8-24 24s10.8 24 24 24 24-10.8 24-24-10.8-24-24-24z" fill="rgba(0,0,0,1)"/><path d="M156 148h-16v-20h8v12h8zM48 128c-13.2 0-24-10.5-24-23.4 0-12.3 9.8-22.5 22.3-23.4l3.5-.2.2-3.5c.9-12.2 11.4-21.8 24-21.8 3.4 0 6.7.7 9.8 2.1l3.2 1.4 1.8-3C95 46 105.9 40 118 40c18.7 0 34 14.9 34 33.2 0 1.8-.2 3.7-.5 5.6l-.5 3.1 2.9 1.3c8.6 3.8 14.2 12.2 14.2 21.4 0 2.3-.3 4.6-1 6.7 2.3 1.6 4.5 3.5 6.4 5.6 1.7-3.9 2.6-8.1 2.6-12.4 0-11.4-6.3-21.8-16.2-27.3.1-1.3.2-2.7.2-4 0-22.7-18.8-41.2-42-41.2-13.7 0-26.3 6.4-34.1 17.2-3.2-1-6.5-1.5-9.9-1.5-15.6 0-28.8 11.2-31.5 25.9-15.2 2.6-26.6 15.6-26.6 31 0 17.3 14.4 31.4 32 31.4h56.8c.6-2.8 1.4-5.5 2.5-8H48z" fill="rgba(0,0,0,1)"/></svg>
