<?xml version="1.0" encoding="UTF-8"?>
<svg xmlns="http://www.w3.org/2000/svg" viewBox="0 0 192 192"><path d="M175.8 106.7c-2.7-8-10-26.7-19.8-26.7H24.2c-4.5 0-8.2 3.6-8.2 8v36c0 4.4 3.7 8 8.2 8h8.9c1.4 2.4 4 4 6.9 4s5.5-1.6 6.9-4h2.2c1.4 2.4 4 4 6.9 4s5.5-1.6 6.9-4h66.2c1.4 2.4 4 4 6.9 4s5.5-1.6 6.9-4H168c4.5 0 8-3.5 8-8v-16.6l-.2-.7zm-34.5-2.7h-30.8c-2.4-4.5-6.1-10.9-10.3-16H128c2.3 0 8.2 7.2 13.3 16zm-40 0H70.4c-2.4-4.5-6.1-10.9-10.3-16H88c2.3 0 8.2 7.2 13.3 16zM24.2 88H48c2.3 0 8.2 7.2 13.3 16H24V88.1s0-.1.2-.1zm-.2 36v-12h120v12h-1.1c-1.4-2.4-4-4-6.9-4s-5.5 1.6-6.9 4H62.9c-1.4-2.4-4-4-6.9-4s-5.5 1.6-6.9 4h-2.2c-1.4-2.4-4-4-6.9-4s-5.5 1.6-6.9 4h-8.9c-.1 0-.2-.1-.2 0zm144 0h-16v-16.9l-.4-.8c-2.2-4.5-6.5-12.3-11.4-18.2H156c2 0 7.7 8.2 12 20.7V124z" fill="rgba(0,0,0,1)"/></svg>
