<?xml version="1.0" encoding="UTF-8"?>
<svg xmlns="http://www.w3.org/2000/svg" viewBox="0 0 192 192"><path d="M96 15.8c-31 0-56.2 36-56.2 80.2S65 176.2 96 176.2s56.2-36 56.2-80.2S127 15.8 96 15.8zM48.2 96c0-35.9 17.7-65.8 40.6-71-3.7 8.2-9 22.6-9 39 0 13.2 6.4 23.8 12.6 34.1 5.9 9.8 11.4 19 11.4 29.9 0 18.2-7.4 34.2-10.3 39.7-25.2-1.9-45.3-33.3-45.3-71.7zm55 71c3.7-8.2 9-22.6 9-39 0-13.2-6.4-23.8-12.6-34.1-5.9-9.8-11.4-19-11.4-29.9 0-18.2 7.4-34.2 10.3-39.7 25.3 1.9 45.4 33.4 45.4 71.7-.1 35.9-17.7 65.8-40.7 71z" fill="rgba(0,0,0,1)"/></svg>
