<?xml version="1.0" encoding="UTF-8"?>
<svg xmlns="http://www.w3.org/2000/svg" viewBox="0 0 192 192"><path d="M136 68H56v76c0 8.8 7.2 16 16 16h44c8.8 0 16-7.2 16-16v-32h4c8.8 0 16-7.2 16-16V84c0-8.8-7.2-16-16-16zm-12 76c0 4.4-3.6 8-8 8H72c-4.4 0-8-3.6-8-8V76h60v68zm20-48c0 4.4-3.6 8-8 8h-4V76h4c4.4 0 8 3.6 8 8v12zM68 60h7.9c0-2 .9-3.1 2.8-4.9 2.2-2 5.2-4.7 5.2-9.9s-3-7.9-5.2-9.9c-2-1.8-2.8-2.6-2.8-4.7s.9-2.9 2.8-4.7c2.2-2 5.2-4.7 5.2-9.9H76c0 2-.9 2.9-2.8 4.7-2.2 2-5.2 4.7-5.2 9.9s3 7.9 5.2 9.9c2 1.8 2.8 2.6 2.8 4.7s-.9 2.9-2.8 4.7C71 52 68 54.8 68 60zM88 60h8c0-2 1-3.1 2.9-4.9 2.2-2 5.2-4.7 5.2-9.9s-3-7.9-5.2-9.9c-2-1.8-2.8-2.6-2.8-4.7s.9-2.9 2.8-4.7c2.2-2 5.2-4.7 5.2-9.9H96c0 2-.9 2.9-2.8 4.7-2.2 2-5.2 4.7-5.2 9.9s3 7.9 5.2 9.9c2 1.8 2.8 2.6 2.8 4.7s-.9 2.9-2.8 4.7C91.1 52 88 54.8 88 60zM108 60h7.9c0-2 .9-3.1 2.8-4.9 2.2-2 5.2-4.7 5.2-9.9s-3-7.9-5.2-9.9c-2-1.8-2.8-2.6-2.8-4.7s.9-2.9 2.8-4.7c2.2-2 5.2-4.7 5.2-9.9H116c0 2-.9 2.9-2.8 4.7-2.2 2-5.2 4.7-5.2 9.9s3 7.9 5.2 9.9c2 1.8 2.8 2.6 2.8 4.7s-.9 2.9-2.8 4.7C111 52 108 54.8 108 60z" fill="rgba(0,0,0,1)"/></svg>
