<?xml version="1.0" encoding="UTF-8"?>
<svg xmlns="http://www.w3.org/2000/svg" viewBox="0 0 192 192"><path d="M25.2 73.2c-14.8 14.8-9.4 44.2 12 65.6 13.3 13.3 29.6 20.4 43.6 20.4 8.6 0 16.4-2.7 22.1-8.3 14.8-14.8 9.4-44.2-12-65.7-21.5-21.4-50.9-26.8-65.7-12zm17.6 59.9c-9.1-9.1-15.2-19.9-17.3-30.4-1.4-6.9-.9-13 1.3-18 2.5 6.1 7 14.8 14.4 22.1 6.9 6.9 15.1 8.1 22.3 9.1 6.8 1 12.7 1.8 17.7 6.9 8.5 8.5 12.7 19.2 14.3 23.9-12.3 9.6-35.3 3.9-52.7-13.6zm58.4 6.2c-2.5-6.1-7-14.8-14.4-22.1-6.9-6.9-15.1-8.1-22.3-9.1-6.8-1-12.7-1.8-17.7-6.9-8.5-8.5-12.7-19.2-14.3-23.9 3.9-3 8.9-4.6 14.7-4.6 2.4 0 4.8.3 7.4.8C65.2 75.6 76 81.8 85 90.8c9.1 9.1 15.2 19.9 17.3 30.4 1.6 7 1.1 13.1-1.1 18.1z" fill="rgba(0,0,0,1)"/><path d="M136 32c-20 0-36.6 20.6-39.5 47.5 2.7 2.7 5.2 5.5 7.4 8.5h.1c0-23.1 11-42.5 25.5-47-2.4 6.4-5.5 16.6-5.5 27 0 9.2 4.6 16.1 8.7 22.2 3.8 5.7 7.3 11 7.3 17.8 0 11.4-4.4 23-6.5 27.8-5.1-.6-10-3-14.3-7.1 0 3.3-.3 6.5-1 9.5 5.5 3.8 11.5 5.8 17.8 5.8 22.1 0 40-25.1 40-56s-17.9-56-40-56zm6.5 103c2.4-6.4 5.5-16.6 5.5-27 0-9.2-4.6-16.1-8.7-22.2-3.8-5.7-7.3-11-7.3-17.8 0-11.4 4.4-23 6.5-27.8C155 42.1 168 62.8 168 88c0 23.1-11 42.5-25.5 47z" fill="rgba(0,0,0,1)"/></svg>
