<?xml version="1.0" encoding="UTF-8"?>
<svg xmlns="http://www.w3.org/2000/svg" viewBox="0 0 192 192"><path d="M96 176c-44.1 0-80-35.9-80-80s35.9-80 80-80 80 35.9 80 80-35.9 80-80 80zm0-152c-39.7 0-72 32.3-72 72s32.3 72 72 72 72-32.3 72-72-32.3-72-72-72z" fill="rgba(0,0,0,1)"/><path d="M94.1 125.4c-10.5-.8-18.2-6.7-20.9-16.1l8-2.4c2.1 7 6.1 10.5 12.9 11.3v-21c-6-1.4-9-2.6-11.9-4.5-4.3-2.8-6.5-7.1-6.5-12.5 0-5.2 1.9-9.3 5.8-12.3 3.5-2.7 6.6-3.8 12.6-4.4V56h5.5v7.5c8.6.9 14.3 5.2 17.7 13.3l-7.5 2.9c-2.4-5.6-5.4-8.2-10.2-9v19.2c6.5 1.5 9.5 2.6 12.6 4.6 4.6 2.9 6.8 7.3 6.8 13.4 0 4.5-1.4 8.2-4.1 11.1-3.5 3.7-7.7 5.4-15.2 6.2V136h-5.5v-10.6h-.1zm0-55c-6.9.8-10.1 3.5-10.1 8.9 0 5.2 2.3 7.3 10.1 9.5V70.4zm5.4 47.7c7.3-.9 10.9-4.2 10.9-9.7 0-5.6-2.6-8-10.9-10.2v19.9z" fill="rgba(0,0,0,1)"/></svg>
