<?xml version="1.0" encoding="UTF-8"?>
<svg xmlns="http://www.w3.org/2000/svg" viewBox="0 0 192 192"><path d="M96 16c-44.1 0-80 35.9-80 80s35.9 80 80 80 80-35.9 80-80-35.9-80-80-80zm0 152c-39.7 0-72-32.3-72-72s32.3-72 72-72 72 32.3 72 72-32.3 72-72 72z" fill="rgba(0,0,0,1)"/><path d="M129.2 57.2l-13.6 13.6C110.2 66.5 103.4 64 96 64s-14.2 2.5-19.6 6.7L62.8 57.2l-5.7 5.7 13.6 13.6C66.5 81.8 64 88.6 64 96s2.5 14.2 6.7 19.6l-13.6 13.6 5.7 5.7 13.6-13.6c5.4 4.2 12.2 6.7 19.6 6.7s14.2-2.5 19.6-6.7l13.6 13.6 5.7-5.7-13.6-13.6c4.2-5.4 6.7-12.2 6.7-19.6s-2.5-14.2-6.7-19.6l13.6-13.6-5.7-5.6zM96 120c-13.2 0-24-10.8-24-24s10.8-24 24-24 24 10.8 24 24-10.8 24-24 24z" fill="rgba(0,0,0,1)"/></svg>
