<?xml version="1.0" encoding="UTF-8"?>
<svg xmlns="http://www.w3.org/2000/svg" viewBox="0 0 192 192"><path d="M166.8 25.2c-9.4-9.4-24.2-9.4-33.7 0L118 40.3l-10-10L86.3 52l10 10L49 109.3l-.3.3-26.9 44.1c-1.2 1.9-1.8 4.1-1.8 6.3 0 6.6 5.4 12 12 12 2.2 0 4.4-.6 6.2-1.7l44.3-27.1L130 95.7l10 10L161.7 84l-10-10 15.2-15.2c9.4-9.4 9.4-24.2-.1-33.6zM77.5 136.8l-43.4 26.6c-.6.4-1.3.6-2.1.6-2.2 0-4-1.8-4-4 0-.7.2-1.5.6-2.1L55 114.6l47-47L124.3 90l-46.8 46.8zm83.7-83.6L140.3 74l10 10L140 94.3 97.7 52 108 41.7l10 10 20.8-20.8c6.3-6.3 16.1-6.3 22.3 0 6.3 6.2 6.3 16 .1 22.3z" fill="rgba(0,0,0,1)"/></svg>
