<?xml version="1.0" encoding="UTF-8"?>
<svg xmlns="http://www.w3.org/2000/svg" viewBox="0 0 192 192"><path d="M66 106c-7.7 0-14 6.3-14 14s6.3 14 14 14 14-6.3 14-14-6.3-14-14-14zm0 20c-3.3 0-6-2.7-6-6s2.7-6 6-6 6 2.7 6 6-2.7 6-6 6zM60 92c0-7.7-6.3-14-14-14s-14 6.3-14 14 6.3 14 14 14 14-6.3 14-14zm-14 6c-3.3 0-6-2.7-6-6s2.7-6 6-6 6 2.7 6 6-2.7 6-6 6zM100 98c-7.7 0-14 6.3-14 14s6.3 14 14 14 14-6.3 14-14-6.3-14-14-14zm0 20c-3.3 0-6-2.7-6-6s2.7-6 6-6 6 2.7 6 6-2.7 6-6 6z" fill="rgba(0,0,0,1)"/><path d="M110.4 83.2c-.7.5-1.5.8-2.4.8-2.2 0-4-1.8-4-4 0-1.2.5-2.4 1.5-3.1l.2-.1c4-3.1 6.3-7.7 6.3-12.8 0-6.2-3.7-11.9-9.3-14.5l-.3-.1C94.1 45.8 85 44 76 44c-33.1 0-60 23.3-60 52s26.9 52 60 52 60-23.3 60-52c0-8.8-7.2-16-16-16-3.5 0-6.8 1.1-9.6 3.2zM76 140c-28.7 0-52-19.7-52-44s23.3-44 52-44c7.9 0 16 1.6 23.3 4.7h.1c2.8 1.3 4.6 4.2 4.6 7.3 0 2.5-1.1 4.8-3.1 6.3h-.1c-3 2.3-4.8 5.9-4.8 9.6 0 6.6 5.4 12 12 12 2.6 0 5.2-.8 7.3-2.4 1.4-1 3-1.6 4.7-1.6 4.4 0 8 3.6 8 8 0 24.4-23.3 44.1-52 44.1zM176 62c0-3.2-.8-6.4-2.2-8.7-1.5-2.6-8.3-14.3-8.3-14.3l-3.5-6-3.5 6s-6.8 11.7-8.3 14.3c-1.4 2.3-2.2 5.5-2.2 8.7 0 4.9 2.5 9.2 6.3 11.7L150 87.4V148c0 6.6 5.4 12 12 12s12-5.4 12-12V87.4l-4.3-13.7c3.8-2.5 6.3-6.8 6.3-11.7zm-18.9-4.5l.1-.1c.8-1.3 2.9-5 4.9-8.4 1.9 3.3 4.1 7.1 4.9 8.4l.1.1c.5.8 1.1 2.4 1.1 4.5 0 3.3-2.7 6-6 6s-6-2.7-6-6c-.2-2.1.3-3.7.9-4.5zM162 152c-2.2 0-4-1.8-4-4V92h8v56c0 2.2-1.8 4-4 4zm2.6-68h-5.1l2.5-8h.2l2.4 8z" fill="rgba(0,0,0,1)"/></svg>
