<?xml version="1.0" encoding="UTF-8"?>
<svg xmlns="http://www.w3.org/2000/svg" viewBox="0 0 192 192"><path d="M140 160c-11 0-20-9-20-20v-12H72v12c0 11-9 20-20 20s-20-9-20-20 9-20 20-20h12V72H52c-11 0-20-9-20-20s9-20 20-20 20 9 20 20v12h48V52c0-11 9-20 20-20s20 9 20 20-9 20-20 20h-12v48h12c11 0 20 9 20 20s-9 20-20 20zm-12-32v12c0 6.6 5.4 12 12 12s12-5.4 12-12-5.4-12-12-12h-12zm-76 0c-6.6 0-12 5.4-12 12s5.4 12 12 12 12-5.4 12-12v-12H52zm20-8h48V72H72v48zm56-56h12c6.6 0 12-5.4 12-12s-5.4-12-12-12-12 5.4-12 12v12zM52 40c-6.6 0-12 5.4-12 12s5.4 12 12 12h12V52c0-6.6-5.4-12-12-12z" fill="rgba(0,0,0,1)"/></svg>
