<?xml version="1.0" encoding="UTF-8"?>
<svg xmlns="http://www.w3.org/2000/svg" viewBox="0 0 192 192"><path d="M116.4 37.6l-4.1 6.9C122 50.2 128 60.7 128 72c0 10.7-5.3 20.7-14.2 26.6l4.5 6.6C129.4 97.8 136 85.4 136 72c0-14.1-7.5-27.3-19.6-34.4zM79.1 44.8L74.9 38C63.1 45.4 56 58.1 56 72c0 13.4 6.6 25.8 17.8 33.3l4.5-6.6c-9-6-14.3-16-14.3-26.7 0-11.1 5.6-21.3 15.1-27.2z" fill="rgba(0,0,0,1)"/><path d="M129.1 17.2L125 24c17 10.2 27.1 28.2 27.1 48S142 109.7 125 120l4.1 6.8C148.4 115.1 160 94.6 160 72c0-22.6-11.6-43.1-30.9-54.8zM40 72c0-19.5 9.9-37.3 26.5-47.6l-4.2-6.8C43.3 29.4 32 49.7 32 72c0 22.6 11.6 43.1 30.9 54.8L67 120c-16.9-10.3-27-28.2-27-48zM96 60c-6.6 0-12 5.4-12 12 0 5.2 3.3 9.7 8 11.3V176h8V83.3c4.7-1.6 8-6.1 8-11.3 0-6.6-5.4-12-12-12z" fill="rgba(0,0,0,1)"/></svg>
