<?xml version="1.0" encoding="UTF-8"?>
<svg xmlns="http://www.w3.org/2000/svg" viewBox="0 0 192 192"><path d="M174.3 117.8l-14.3 5.7v32.4l-44 16.4-44-16.4v-32.4l-14.3-5.7 15.9-21.2L116 83.8l42.4 12.7 15.9 21.3zm-71.7 9.3l7-9.4-32.3-12.9-7 9.4 32.3 12.9zm9.4.9l-6.6 8.9L80 126.7v23.6l32 11.9V128zm4-16.3l27.9-11.2-27.9-8.3-27.9 8.4 27.9 11.1zm36 15l-25.4 10.1-6.6-8.8v34.2l32-11.9v-23.6zm9.7-12.5l-7-9.4-32.3 12.9 7 9.4 32.3-12.9zM96 76H32V32h64v44zm-8-16H40v8h48v-8zm0-20H40v12h48V40zM24 160V24h80v55.1l8-2.4V16H16v152h65.5L60 160H24zm0 16h16v-8H24v8zm8-84h8v-8h-8v8zm28-4c0 2.2 1.8 4 4 4s4-1.8 4-4-1.8-4-4-4-4 1.8-4 4z" fill="rgba(0,0,0,1)"/></svg>
