<?xml version="1.0" encoding="UTF-8"?>
<svg xmlns="http://www.w3.org/2000/svg" viewBox="0 0 192 192"><path d="M119.2 84c9-7 14.8-17.8 14.8-30 0-21-17-38-38-38S58 33 58 54c0 12.2 5.8 23.1 14.8 30L56 78.5v35.1l40-13.3 40 13.3V78.5L119.2 84zM66 54c0-16.5 13.5-30 30-30s30 13.5 30 30-13.5 30-30 30-30-13.5-30-30zm-2 48.5v-13L83.4 96 64 102.5zm64 0L108.6 96l19.4-6.5v13zM38 176h8v-32c0-4.8.7-9.5 2-14v-18.6c-6.3 9.3-10 20.5-10 32.5V176zM144 111.5V130c1.3 4.4 2 9.1 2 14v32h8v-32c0-12-3.7-23.2-10-32.5z" fill="rgba(0,0,0,1)"/></svg>
