<?xml version="1.0" encoding="UTF-8"?>
<svg xmlns="http://www.w3.org/2000/svg" viewBox="0 0 192 192"><path d="M146 160c-7.7 0-14-6.3-14-14s6.3-14 14-14 14 6.3 14 14-6.3 14-14 14zm0-20c-3.3 0-6 2.7-6 6s2.7 6 6 6 6-2.7 6-6-2.7-6-6-6z" fill="rgba(0,0,0,1)"/><path d="M146 176c-16.5 0-30-13.5-30-30 0-3.6.6-7.1 1.9-10.5L59.1 76.8c-3.7 1.5-7.6 2.2-11.6 2.2C30.1 79 16 64.9 16 47.5c0-3.8.7-7.6 2-11.1l2.2-5.8 18.6 18.6c2.9 2.9 7.5 2.9 10.3 0s2.9-7.5 0-10.3L30.6 20.2l5.8-2.2c3.6-1.3 7.3-2 11.1-2C64.9 16 79 30.1 79 47.5c0 4-.7 7.9-2.2 11.6l58.8 58.8c3.3-1.2 6.8-1.9 10.5-1.9 16.5 0 30 13.5 30 30s-13.6 30-30.1 30zM60.8 67.1l66.7 66.7-1.3 2.6c-1.5 3-2.2 6.3-2.2 9.6 0 12.1 9.9 22 22 22s22-9.9 22-22-9.9-22-22-22c-3.4 0-6.6.7-9.6 2.2l-2.6 1.3-66.7-66.7 1.3-2.6c1.7-3.3 2.6-6.9 2.6-10.7C71 34.5 60.5 24 47.5 24c-.6 0-1.2 0-1.8.1l9.1 9.1c2.9 2.9 4.5 6.7 4.5 10.8s-1.6 7.9-4.5 10.8c-2.9 2.9-6.7 4.5-10.8 4.5s-7.9-1.6-10.8-4.5l-9.1-9.1c0 .6-.1 1.2-.1 1.8C24 60.5 34.5 71 47.5 71c3.8 0 7.3-.9 10.7-2.6l2.6-1.3z" fill="rgba(0,0,0,1)"/></svg>
