<?xml version="1.0" encoding="UTF-8"?>
<svg xmlns="http://www.w3.org/2000/svg" viewBox="0 0 192 192"><path d="M144 112c-17.6 0-32 14.4-32 32s14.4 32 32 32 32-14.4 32-32-14.4-32-32-32zm0 56c-13.2 0-24-10.8-24-24s10.8-24 24-24 24 10.8 24 24-10.8 24-24 24zM56 76h64v8H56zM56 56h64v8H56zM56 96h40v8H56z" fill="rgba(0,0,0,1)"/><path d="M140 146.3l-5.2-5.1-5.6 5.6 10.8 10.9 18.8-18.9-5.6-5.6z" fill="rgba(0,0,0,1)"/><path d="M112 168H48V24h96v80c2.7 0 5.4.3 8 .8V16H40v160h80c-3-2.3-5.7-5-8-8z" fill="rgba(0,0,0,1)"/></svg>
