<?xml version="1.0" encoding="UTF-8"?>
<svg xmlns="http://www.w3.org/2000/svg" viewBox="0 0 192 192"><path d="M173.7 123.8c-2.2-3.7-5.7-6.3-9.8-7.3-4.1-1-8.4-.4-12.1 1.8-2.2 1.3-4.1 3.2-5.4 5.3l-10.7-2.1c.2-1.8.4-3.6.4-5.5 0-17.7-11.6-32.8-27.6-38.1l2.8-13.9h.7c10.5 0 20.2-7 23.1-17.6 3.5-12.8-4-26-16.7-29.5-12.8-3.5-26 4-29.5 16.7-3.3 12 3.1 24.5 14.6 28.8l-2.7 13.7c-1.5-.2-3.1-.3-4.7-.3-10.7 0-20.5 4.3-27.7 11.2L51.1 72.7c.6-1.4.9-3 .9-4.6.1-6.6-5.3-12.1-11.9-12.1H40c-6.6 0-11.9 5.3-12 11.9 0 3.2 1.2 6.2 3.4 8.5s5.2 3.6 8.5 3.6h.1c2 0 3.9-.5 5.7-1.4l17.4 14.5c-4.5 6.5-7.2 14.3-7.2 22.8 0 6.4 1.5 12.5 4.2 17.9l-10.3 7.7c-6.4-6.1-16.3-7.5-24.2-2.7-9.4 5.7-12.5 18-6.8 27.5 3.8 6.2 10.4 9.7 17.2 9.7 3.5 0 7.1-.9 10.3-2.9 8.6-5.2 11.9-15.9 8.1-24.9l10.1-7.6C71.8 150 83.2 156 96 156c17.4 0 32.3-11.2 37.8-26.8l10.2 2c-.3 7.4 4.6 14.4 12.1 16.2 1.3.3 2.6.5 3.9.5 7.2 0 13.7-4.9 15.5-12.1 1.1-4.1.4-8.4-1.8-12zM96.6 35.7c2.4-8.5 11.2-13.5 19.7-11.2 8.5 2.4 13.5 11.2 11.2 19.7s-11.2 13.5-19.7 11.2c-8.6-2.3-13.6-11.2-11.2-19.7zM42.2 166.3c-5.7 3.4-13.1 1.6-16.5-4.1s-1.6-13.1 4.1-16.5c1.9-1.2 4.1-1.7 6.2-1.7 4.1 0 8 2.1 10.3 5.8 3.4 5.7 1.6 13.1-4.1 16.5zM40 72c-1.1 0-2.1-.4-2.8-1.2C36.4 70 36 69 36 68c0-2.2 1.8-4 4-4s4 1.8 4 4c0 1.1-.4 2.1-1.2 2.8C42 71.6 41 72 40 72zm56 76c-17.7 0-32.1-14.4-32.1-32.1 0-17.7 14.4-32.1 32.1-32.1s32.1 14.4 32.1 32.1c0 17.7-14.4 32.1-32.1 32.1zm71.8-14.1c-1.1 4.3-5.4 6.9-9.7 5.8-4.3-1.1-6.9-5.4-5.8-9.7.5-2.1 1.8-3.8 3.6-4.9s4-1.4 6.1-.9c2.1.5 3.8 1.8 4.9 3.6s1.4 4.1.9 6.1zm-59.8-26c0-6.6-5.4-12-12-12s-12 5.4-12 12v4.1h-4v20h32v-20h-4v-4.1zm-16 0c0-2.2 1.8-4 4-4s4 1.8 4 4v4.1h-8v-4.1z" fill="rgba(0,0,0,1)"/></svg>
