<?xml version="1.0" encoding="UTF-8"?>
<svg xmlns="http://www.w3.org/2000/svg" viewBox="0 0 192 192"><path d="M173.7 123.8c-2.2-3.7-5.7-6.3-9.8-7.3-4.1-1-8.4-.4-12.1 1.8-2.5 1.5-4.5 3.6-5.8 6.1l-22.1-5.5c.5-5-.3-10.1-2.5-14.7-3.2-6.7-8.7-11.8-15.7-14.4L111 64h1c10.5 0 20.2-7 23.1-17.6 3.5-12.8-4-26-16.7-29.5-12.8-3.5-26 4-29.5 16.7-3.3 11.9 3.1 24.3 14.3 28.7L97.8 88c-8-.5-15.8 2.5-21.5 8L53.1 74.4c1.9-3 2.9-6.5 2.9-10.2.1-5.3-2-10.4-5.7-14.2s-8.7-5.9-14.1-6c-5.4 0-10.4 2-14.2 5.7-3.8 3.7-5.9 8.7-6 14.1s2 10.4 5.7 14.2 8.7 5.9 14.1 6h.2c4.2 0 8.2-1.3 11.6-3.7l23.9 22.2c-.7 1.3-1.3 2.6-1.8 4-2.5 7-2.2 14.6 1 21.3 0 .1.1.1.1.2l-20.7 13.8c-6.4-6.3-16.4-7.8-24.4-2.9-9.4 5.7-12.5 18-6.8 27.5 3.8 6.2 10.4 9.7 17.2 9.7 3.5 0 7.1-.9 10.3-2.9 8.5-5.2 11.8-15.7 8.2-24.7l20.7-13.8c3.1 3.4 6.9 6 11.3 7.6 3.1 1.1 6.3 1.7 9.4 1.7 11.1 0 21.5-6.6 25.9-17.3l22.1 5.6c.1 7.1 4.9 13.6 12.1 15.4 1.3.3 2.6.5 3.9.5 7.2 0 13.7-4.9 15.5-12.1 1.1-4.4.4-8.7-1.8-12.3zM36 76h-.1c-3.2 0-6.2-1.3-8.4-3.6s-3.5-5.3-3.4-8.5c0-3.2 1.3-6.2 3.6-8.4s5.2-3.4 8.4-3.4h.1c3.2 0 6.2 1.3 8.4 3.6s3.5 5.3 3.4 8.5c0 3.2-1.3 6.2-3.6 8.4S39.2 76 36 76zm6.2 90.3c-5.7 3.4-13.1 1.6-16.5-4.1s-1.6-13.1 4.1-16.5c1.9-1.2 4.1-1.7 6.2-1.7 4.1 0 8 2.1 10.3 5.8 3.4 5.7 1.6 13.1-4.1 16.5zM96.6 35.7c2.4-8.5 11.2-13.5 19.7-11.2 8.5 2.4 13.5 11.2 11.2 19.7s-11.2 13.5-19.7 11.2c-8.6-2.3-13.6-11.2-11.2-19.7zm18.2 87c-3.7 10.3-15.2 15.7-25.6 12-5-1.8-9.1-5.5-11.3-10.3-2.3-4.8-2.5-10.2-.7-15.2C80.1 101.1 87.8 96 96 96c2.2 0 4.5.4 6.8 1.2 5 1.8 9.1 5.5 11.3 10.3 2.3 4.8 2.5 10.2.7 15.2zm53 11.2c-1.1 4.3-5.4 6.9-9.7 5.8-4.3-1.1-6.9-5.4-5.8-9.7.5-2.1 1.8-3.8 3.6-4.9s4-1.4 6.1-.9c2.1.5 3.8 1.8 4.9 3.6s1.4 4.1.9 6.1z" fill="rgba(0,0,0,1)"/></svg>
