<?xml version="1.0" encoding="UTF-8"?>
<svg xmlns="http://www.w3.org/2000/svg" viewBox="0 0 192 192"><path d="M162.8 34.8l-5.7-5.7-15.3 15.3c-6.6-5.4-15-8.4-23.8-8.4-10.1 0-19.7 3.9-26.9 11.1L84 54.3l-5.2-5.2-5.7 5.7L88.3 70 75.2 83.2l5.7 5.7L94 75.7 116.3 98l-13.2 13.2 5.7 5.7 13.2-13.2 15.2 15.2 5.7-5.7-5.2-5.2 7.2-7.2C152.1 93.6 156 84.1 156 74c0-8.8-3-17.1-8.4-23.9l15.2-15.3zm-23.6 60.4l-7.2 7.2L89.7 60l7.2-7.2C102.5 47.1 110 44 118 44s15.5 3.1 21.2 8.8C144.9 58.4 148 66 148 74s-3.1 15.5-8.8 21.2zM49.2 78.8l5.2 5.2-7.2 7.2C39.9 98.4 36 107.9 36 118c0 8.8 3 17.1 8.4 23.9l-15.3 15.3 5.7 5.7 15.3-15.3C56.8 153 65.2 156 74 156c10.1 0 19.7-3.9 26.9-11.1l7.2-7.2 5.2 5.2 5.7-5.7-64-64-5.8 5.6zm46 60.4C89.5 144.9 82 148 74 148s-15.5-3.1-21.2-8.8C47.1 133.6 44 126 44 118s3.1-15.5 8.8-21.2l7.2-7.2 42.4 42.4-7.2 7.2z" fill="rgba(0,0,0,1)"/></svg>
