<?xml version="1.0" encoding="UTF-8"?>
<svg xmlns="http://www.w3.org/2000/svg" viewBox="0 0 192 192"><path d="M86.6 24.4c2.2 4.3 5.3 7.8 7.9 10.2-2.5 9-1.7 18.1 2.5 25.4 4.2 7.3 11.4 12.6 20 14.9 2.3 8.6 7.6 15.8 14.9 20 4.4 2.5 10.2 3.8 17.8 3.8 2.9 0 5.5-.5 7.7-1.2 2.4 2.6 5.8 5.6 10 7.8-.4 2.9-1 5.6-1.8 8.6-.4 1.2-5 16.4-14.7 28.4-13.8 16.3-33.8 25.6-55 25.6h-2.6c-18.3-.6-35.5-8.2-48.5-21.4-13-13.1-20.4-30.4-20.9-48.7-.2-9 1.2-17.9 4.2-26.3l.1-.2.1-.2c0-.1 4.3-14.4 16.8-26.1l.1-.1.1-.1c12-11.8 25.9-18.7 41.3-20.4m3.1-8.3h-.2C69.7 17.4 53.1 26 39.7 39.2c-14.2 13.3-19 29.7-19 29.7-3.3 9.1-5 19-4.7 29.2 1.1 42 35.1 76.4 77.2 77.9H96c24.5 0 46.5-11.1 61.2-28.5 11.3-14 16.2-31.3 16.2-31.3 1.3-4.8 2.1-8.8 2.4-13.6.1-1.3-.7-2.6-2-3.1-4.8-1.7-9.3-5.5-12.5-9.6-.6-.7-1.5-1.2-2.4-1.2-.4 0-.7.1-1.1.2-2.6 1.1-5.2 1.8-8.1 1.8-4.4 0-9.9-.5-13.8-2.7-6.6-3.8-10.5-10.5-11.7-17.8-.2-1.3-1.2-2.3-2.5-2.5-7.3-1.2-14-5.2-17.8-11.7-3.8-6.6-3.5-14.9-.9-21.9.5-1.2.1-2.6-.9-3.4-4-3.2-7.9-7.8-9.6-12.6-.3-1.2-1.5-2-2.8-2z" fill="rgba(0,0,0,1)"/><path d="M132 128h-.1c-3.2 0-6.2-1.3-8.5-3.6-2.2-2.3-3.5-5.3-3.4-8.5 0-3.2 1.3-6.2 3.6-8.5 2.3-2.2 5.2-3.4 8.4-3.4h.1c3.2 0 6.2 1.3 8.5 3.6 2.2 2.3 3.5 5.3 3.4 8.5 0 3.2-1.3 6.2-3.6 8.5-2.3 2.2-5.2 3.4-8.4 3.4zm0-16c-1.1 0-2 .4-2.8 1.1-.8.7-1.2 1.7-1.2 2.8 0 1.1.4 2.1 1.1 2.8.7.8 1.7 1.2 2.8 1.2 1.1 0 2.1-.4 2.8-1.1.8-.7 1.2-1.7 1.2-2.8 0-1.1-.4-2.1-1.1-2.8-.7-.8-1.7-1.2-2.8-1.2zM148 56c0-1 .4-2.1 1.1-2.9.8-.7 1.8-1.2 2.8-1.2 1 0 2.1.4 2.9 1.1 1.5 1.5 1.5 4.2.1 5.7-.8.7-1.8 1.2-2.8 1.2-1 0-2.1-.4-2.9-1.1-.7-.7-1.2-1.7-1.2-2.8z" fill="rgba(0,0,0,1)"/><ellipse cx="128" cy="44" rx="8" ry="8" transform="rotate(-.769 127.997 44.012) scale(.99999)" fill="rgba(0,0,0,1)"/><path d="M60 144h-.1c-3.2 0-6.2-1.3-8.5-3.6-2.2-2.3-3.5-5.3-3.4-8.5 0-3.2 1.3-6.2 3.6-8.5 2.3-2.2 5.3-3.4 8.5-3.4s6.2 1.3 8.5 3.6c2.2 2.3 3.5 5.3 3.4 8.5 0 3.2-1.3 6.2-3.6 8.5-2.3 2.2-5.2 3.4-8.4 3.4zm0-16c-1.1 0-2 .4-2.8 1.1-.8.7-1.2 1.7-1.2 2.8 0 1.1.4 2.1 1.1 2.8.7.8 1.7 1.2 2.8 1.2 1.1 0 2.1-.4 2.8-1.1.8-.7 1.2-1.7 1.2-2.8 0-1.1-.4-2.1-1.1-2.8-.7-.8-1.7-1.2-2.8-1.2zM68 72h-.1c-3.2 0-6.2-1.3-8.5-3.6-2.2-2.3-3.5-5.3-3.4-8.5 0-3.2 1.3-6.2 3.6-8.5 2.3-2.2 5.3-3.4 8.5-3.4s6.2 1.3 8.5 3.6c2.2 2.3 3.5 5.3 3.4 8.5 0 3.2-1.3 6.2-3.6 8.5-2.3 2.2-5.2 3.4-8.4 3.4zm0-16c-1.1 0-2 .4-2.8 1.1-.8.8-1.2 1.8-1.2 2.9 0 1.1.4 2.1 1.1 2.8.7.8 1.7 1.2 2.8 1.2 1.1 0 2.1-.4 2.8-1.1.8-.7 1.2-1.7 1.2-2.8 0-1.1-.4-2.1-1.1-2.8-.7-.9-1.7-1.3-2.8-1.3zM96 92c0-1 .4-2.1 1.1-2.9.8-.7 1.8-1.2 2.8-1.2 1 0 2.1.4 2.9 1.1 1.5 1.5 1.5 4.2.1 5.7-.8.7-1.8 1.2-2.8 1.2-1 0-2.1-.4-2.9-1.1-.7-.7-1.2-1.7-1.2-2.8zM72 100c0-1 .4-2.1 1.1-2.9.8-.7 1.8-1.2 2.8-1.2 1 0 2.1.4 2.9 1.1 1.5 1.5 1.5 4.2.1 5.7-.8.7-1.8 1.2-2.8 1.2-1 0-2.1-.4-2.9-1.1-.7-.7-1.2-1.7-1.2-2.8zM40 96c0-1 .4-2.1 1.1-2.9.8-.7 1.8-1.2 2.8-1.2 1 0 2.1.4 2.9 1.1 1.5 1.5 1.5 4.2.1 5.7-.8.7-1.8 1.2-2.8 1.2-1 0-2.1-.4-2.9-1.1-.7-.7-1.2-1.7-1.2-2.8zM92 152c0-1 .4-2.1 1.1-2.9.8-.7 1.8-1.2 2.8-1.2 1 0 2.1.4 2.9 1.1 1.5 1.5 1.5 4.2.1 5.7-.8.7-1.8 1.2-2.8 1.2-1 0-2.1-.4-2.9-1.1-.7-.7-1.2-1.7-1.2-2.8zM108 128c0-1 .4-2.1 1.1-2.9.8-.7 1.8-1.2 2.8-1.2 1 0 2.1.4 2.9 1.1 1.5 1.5 1.5 4.2.1 5.7-.8.7-1.8 1.2-2.8 1.2-1 0-2.1-.4-2.9-1.1-.7-.7-1.2-1.7-1.2-2.8z" fill="rgba(0,0,0,1)"/></svg>
