<?xml version="1.0" encoding="UTF-8"?>
<svg xmlns="http://www.w3.org/2000/svg" viewBox="0 0 192 192"><path d="M127.9 118c-6.7 12-16.5 18-29.5 18-20.3 0-34.3-16.3-34.3-40.1C64.1 72 77.7 56 97.9 56c12.6 0 21.1 5 28.1 16.8l-6.7 4.3c-6.5-10.5-11.6-13.8-21.1-13.8-15.7 0-25.4 12.5-25.4 32.8 0 20.5 9.6 32.7 25.8 32.7 10.2 0 16.5-4.2 22.6-14.8l6.7 4z" fill="rgba(0,0,0,1)"/><path d="M96 176c-44.1 0-80-35.9-80-80s35.9-80 80-80 80 35.9 80 80-35.9 80-80 80zm0-152c-39.7 0-72 32.3-72 72s32.3 72 72 72 72-32.3 72-72-32.3-72-72-72z" fill="rgba(0,0,0,1)"/></svg>
