<?xml version="1.0" encoding="UTF-8"?>
<svg xmlns="http://www.w3.org/2000/svg" viewBox="0 0 192 192"><path d="M16 52v88h160V52H16zm152 80h-40v-8h-8v8H72v-8h-8v8H24V60h40v8h8v-8h48v8h8v-8h40v72zm-48-56h8v8h-8v-8zm0 16h8v8h-8v-8zm0 16h8v8h-8v-8zM64 76h8v8h-8v-8zm0 16h8v8h-8v-8zm0 16h8v8h-8v-8zm-18.7-1.5h5.9v5.5H32v-5.5h6.6V89.9c-1.5.6-3.9.9-6.4.9v-5c4.5-.4 6.7-2.1 7.5-5.8h5.6v26.5zm48.5.1h13.4v5.4H84.8v-5.4c5.1-3.2 6.5-4.2 9-6.5 3.9-3.5 5.9-7 5.9-10.4 0-2.7-1.5-4.4-4-4.4-2.4 0-3.8 1.4-4.7 4.8l-6.2-1.5c1.6-5.9 5.2-8.7 11.2-8.7 6.7 0 10.8 3.8 10.8 9.9 0 4.1-1.8 7.7-5.5 11.2-1.8 1.9-3.7 3.2-7.5 5.6zm59.2-4.3c0-2.6-1.8-4.2-5-4.2h-2.8v-4.9h2.6c2.9 0 4.6-1.5 4.6-4 0-2.4-1.6-3.9-4.1-3.9-2.7 0-4.4 1.3-5.6 4.3l-5.6-1.6c1.7-5.4 5.6-8.1 11.5-8.1 6.3 0 10.6 3.5 10.6 8.6 0 3-1.6 5.2-4.9 6.6 3.9 1.3 5.7 3.7 5.7 7.4 0 5.7-4.5 9.4-11.7 9.4-3.8 0-6.9-1-9.2-2.9-1.7-1.5-2.6-3.1-3.3-5.7l6-1.5c1 3.3 2.8 4.8 6.1 4.8 3.2.1 5.1-1.6 5.1-4.3z" fill="rgba(0,0,0,1)"/></svg>
