<?xml version="1.0" encoding="UTF-8"?>
<svg xmlns="http://www.w3.org/2000/svg" viewBox="0 0 192 192"><path d="M96 80c-3.7 0-6.8 1.6-8.7 4.6-1.9 2.8-3 7-3 11.2 0 10 4.5 16.2 11.7 16.2 3.6 0 6.8-1.6 8.7-4.6 1.9-3 3-6.9 3-11.4 0-9.8-4.5-16-11.7-16zm0 26.7c-3 0-4.7-3.8-4.7-10.8 0-6.6 1.7-10.5 4.7-10.5s4.7 3.9 4.7 10.6c0 6.8-1.7 10.7-4.7 10.7zM44.3 80c-3.7 0-6.8 1.6-8.7 4.6-1.9 2.8-3 7-3 11.2 0 10 4.5 16.2 11.7 16.2 3.6 0 6.8-1.6 8.7-4.6 1.9-3 3-6.9 3-11.4 0-9.8-4.5-16-11.7-16zm.1 26.7c-3 0-4.7-3.8-4.7-10.8 0-6.6 1.7-10.5 4.7-10.5s4.7 3.9 4.7 10.6c-.1 6.8-1.8 10.7-4.7 10.7zM16 52v88h160V52H16zm152 80h-17.5c1.5-7.3 4.9-14 9.5-18.8V108h-22.5v5.5h15.7c-4.8 4.9-8.3 11.3-10.1 18.5H24V60h40v8h8v-8h48v8h8v-8h10.2c-1 2.5-1.6 5.4-1.6 8.7 0 4.9 1 8.6 3.3 11.2 2.2 2.7 5.3 4.1 8.9 4.1 6.7 0 11.2-4.3 11.2-10.7 0-5.9-3.9-10-9.6-10-3.2 0-5.6 1.3-7.2 3.8.2-3.1.8-5.4 1.8-7.1h23v72zm-24.2-58.6c0-3.1 2-5.2 4.8-5.2 2.9 0 4.8 2.1 4.8 5.3 0 3.2-2 5.3-4.8 5.3s-4.8-2.1-4.8-5.4zM120 76h8v8h-8v-8zm0 16h8v8h-8v-8zm0 16h8v8h-8v-8zm0 16h8v8h-8v-8zM64 76h8v8h-8v-8zm0 16h8v8h-8v-8zm0 16h8v8h-8v-8zm0 16h8v8h-8v-8z" fill="rgba(0,0,0,1)"/></svg>
