<?xml version="1.0" encoding="UTF-8"?>
<svg xmlns="http://www.w3.org/2000/svg" viewBox="0 0 192 192"><path d="M144 112c-17.6 0-32 14.4-32 32s14.4 32 32 32 32-14.4 32-32-14.4-32-32-32zm0 56c-13.2 0-24-10.8-24-24s10.8-24 24-24 24 10.8 24 24-10.8 24-24 24zm9.2-34.8l5.7 5.7-18.9 18.8-10.8-10.8 5.7-5.7 5.2 5.2 13.1-13.2zM100 161.7V86.5l60-28.2v49c2.9 1.3 5.5 2.8 8 4.7V49.3L96 19.7 24 49.3v89.2l72 33.9 14.4-6.8c-1.4-2.2-2.7-4.6-3.6-7.1l-6.8 3.2zm-8 0l-60-28.2V58.3l60 28.2v75.2zM37.9 52.2L96 28.3l58.1 23.9L96 79.6 37.9 52.2z" fill="rgba(0,0,0,1)"/></svg>
