<?xml version="1.0" encoding="UTF-8"?>
<svg xmlns="http://www.w3.org/2000/svg" viewBox="0 0 192 192"><path d="M128 89.4v-40L96 35.6 64 49.4v40l-28 12v45.3l32 13.7 28-12 28 12 32-13.7v-45.3l-28-12zm-4 22.2l-17.8-7.6 5.8-2.5 12-5.1 17.8 7.6-17.8 7.6zm-32-45v31.3l-8-3.4-12-5.1V58.1l20 8.5zm16 27.9l-8 3.4V66.6l20-8.6v31.3l-12 5.2zm-28 7l5.8 2.5-17.8 7.6-17.8-7.6L68 96.4l12 5.1zm-8 17.1l20-8.6v31.3l-20 8.6v-31.3zM113.8 52L96 59.6 78.2 52 96 44.4l17.8 7.6zM44 110.1l20 8.6V150l-20-8.6v-31.3zm56 0l20 8.6V150l-20-8.6v-31.3zm28 39.8v-31.3l20-8.6v31.3l-20 8.6z" fill="rgba(0,0,0,1)"/></svg>
