<?xml version="1.0" encoding="UTF-8"?>
<svg xmlns="http://www.w3.org/2000/svg" viewBox="0 0 192 192"><path d="M153.2 72l20-24-22.1-26.6-6.2 5.2L162.8 48l-20 24 20 24-20 24 20 24-17.9 21.4 6.2 5.2 22.1-26.6-20-24 20-24zM29.2 48l17.9-21.4-6.2-5.2L18.8 48l20 24-20 24 20 24-20 24 22.1 26.6 6.2-5.2L29.2 144l20-24-20-24 20-24zM64 73.4v41.2l32 13.7 32-13.7V73.4L96 59.6 64 73.4zm49.8 2.6L96 83.6 78.2 76 96 68.4l17.8 7.6zM72 82.1l20 8.6v27.2l-20-8.6V82.1zm28 35.7V90.6l20-8.6v27.2l-20 8.6z" fill="rgba(0,0,0,1)"/></svg>
