<?xml version="1.0" encoding="UTF-8"?>
<svg xmlns="http://www.w3.org/2000/svg" viewBox="0 0 192 192"><path d="M96 15.8l-28 9.3v37.8l28 9.3 28-9.3V25.1l-28-9.3zM107.4 28L96 31.8 84.6 28 96 24.2l11.4 3.8zM76 33.5l16 5.3v23.6l-16-5.3V33.5zm24 29V38.9l16-5.3v23.6l-16 5.3zM96 87.8l-28 9.3v37.8l28 9.3 28-9.3V97.1l-28-9.3zm11.4 12.2L96 103.8 84.6 100 96 96.2l11.4 3.8zM76 105.5l16 5.3v23.6l-16-5.3v-23.6zm24 29v-23.6l16-5.3v23.6l-16 5.3z" fill="rgba(0,0,0,1)"/><path d="M120 132l-1.3-3.8-22.7 7.6-22.7-7.6L72 132h-4v34.9l28 9.3 28-9.3V132h-4zm-44 5.5l16 5.3v23.6l-16-5.3v-23.6zm24 29v-23.6l16-5.3v23.6l-16 5.3z" fill="rgba(0,0,0,1)"/></svg>
