<?xml version="1.0" encoding="UTF-8"?>
<svg xmlns="http://www.w3.org/2000/svg" viewBox="0 0 192 192"><path d="M128 114.5V73.4L96 59.6 64 73.4v41.2l32 13.7 32-13.8zm-28 3.3V90.6l20-8.6v27.2l-20 8.6zM113.8 76L96 83.6 78.2 76 96 68.4l17.8 7.6zM72 82.1l20 8.6v27.2l-20-8.6V82.1zM174.8 105.2L160 90.3l-14.8 14.8 5.7 5.7 4.2-4.2c-4.4 24.6-23.8 44-48.4 48.4l4.2-4.2-5.7-5.7L90.3 160l14.8 14.8 5.7-5.7-5.8-5.8c30.3-4 54.3-28.1 58.3-58.3l5.8 5.8 5.7-5.6zM85.4 37l-4.2 4.2 5.7 5.7L101.7 32 86.8 17.2l-5.7 5.7 5.8 5.8c-30.3 4-54.3 28.1-58.3 58.3l-5.8-5.8-5.7 5.7L32 101.7l14.8-14.8-5.7-5.7-4.1 4.2c4.4-24.6 23.8-44 48.4-48.4z" fill="rgba(0,0,0,1)"/></svg>
