<?xml version="1.0" encoding="UTF-8"?>
<svg xmlns="http://www.w3.org/2000/svg" viewBox="0 0 192 192"><path d="M112 96H32v44c0 8.8 7.2 16 16 16h44c8.8 0 16-7.2 16-16v-4h4c8.8 0 16-7.2 16-16v-8c0-8.8-7.2-16-16-16zm-12 44c0 4.4-3.6 8-8 8H48c-4.4 0-8-3.6-8-8v-36h60v36zm20-20c0 4.4-3.6 8-8 8h-4v-24h4c4.4 0 8 3.6 8 8v8z" fill="rgba(0,0,0,1)"/><path d="M112 48c-26.2 0-49.7 16.1-59.3 40h8.7c9.1-19.2 28.7-32 50.6-32 30.9 0 55.9 25.1 55.9 56s-25.1 56-55.9 56c-7.1 0-14.1-1.3-20.6-3.9H74.9C85.7 171.8 98.6 176 112 176c35.3 0 63.9-28.7 63.9-64 .1-35.3-28.6-64-63.9-64z" fill="rgba(0,0,0,1)"/><path d="M112 72c-12.8 0-24.5 6-32 16h10.8c5.7-5.1 13.2-8 21.2-8 17.6 0 32 14.3 32 32 0 16.4-12.4 29.9-28.3 31.7-.5 2.9-1.5 5.7-2.9 8.2 21.7-.4 39.1-18.2 39.1-39.9.1-22.1-17.8-40-39.9-40zM56.3 30.1c-3-4.6-4.9-7.7-4.9-7.7L48 16.6l-3.4 5.9s-1.9 3.2-4.9 7.7l-.7 1c-3.1 4.7-6.9 10.5-6.9 17C32.1 56.8 39.3 64 48 64s15.9-7.1 15.9-15.9c0-6.4-3.9-12.3-6.9-17l-.7-1zm-8.3 26c-4.4 0-7.9-3.6-7.9-7.9 0-4.1 3-8.6 5.7-12.7l.7-1.1c.6-.9 1.1-1.8 1.6-2.6.5.8 1.1 1.7 1.7 2.6l.7 1.1c2.6 4 5.7 8.5 5.7 12.6-.3 4.5-3.8 8-8.2 8z" fill="rgba(0,0,0,1)"/></svg>
