<?xml version="1.0" encoding="UTF-8"?>
<svg xmlns="http://www.w3.org/2000/svg" viewBox="0 0 192 192"><path d="M104 80H24v44c0 8.8 7.2 16 16 16h44c8.8 0 16-7.2 16-16v-4h4c8.8 0 16-7.2 16-16v-8c0-8.8-7.2-16-16-16zm-12 44c0 4.4-3.6 8-8 8H40c-4.4 0-8-3.6-8-8V88h60v36zm20-20c0 4.4-3.6 8-8 8h-4V88h4c4.4 0 8 3.6 8 8v8zm56-8.1c0 35.3-28.7 64-63.9 64-13.4 0-26.4-4.2-37.1-11.9h16.6c6.5 2.6 13.4 3.9 20.6 3.9 30.9 0 55.9-25.1 55.9-56s-25.1-56-55.9-56c-21.8 0-41.5 12.8-50.6 32h-8.7c9.7-23.9 33.1-40 59.3-40 35.1.1 63.8 28.8 63.8 64zm-24 0c0 21.8-17.5 39.5-39.1 39.9 1.4-2.5 2.4-5.3 2.9-8.2 15.9-1.8 28.3-15.4 28.3-31.7 0-17.6-14.3-32-32-32-8 0-15.4 2.9-21.2 8H72.1c7.5-10 19.2-16 32-16 22 .1 39.9 18 39.9 40zm-5.7-39.3c-.5-.1.8.3 2.1 1.2 1.3.9.5 1.7-1 1.4-1.6-.4-2.4.2-2.6.9-.3 1.1-.2 1.8.2 3.2.4 1.3.4 3.2-.7 3.5-1.1.4-4.7-1.5-5.6-3.2-.9-1.7 1.3-2.4 2.8-2.4 1.5 0 1.3-.6 1.5-2.1.2-1.5 1.2-2.4 1.9-2.6.5-.2 1.9.2 1.4.1zm-5.4 74c.2.5 0 .5 1.7.5s2 .9.9 1.6c-1.1.6-2.2.5-1.4 1.2.8.8 2.8 1.2 3.1 2.3.3 1.1-.8 2.5-2.3 2.2-1.6-.3-.2-1.1 0-2 .2-.9-.8-.8-2-1.2-1.2-.5-1.9-1-2.2-2.2-.4-1.7.4-2.9 1.2-3.3 1-.4.9.4 1 .9zM53.5 98.1c.3 1.1 0 1.5 0 1.5-.5 1.3-3.8-1.4-5.4-.1-1.6 1.3-1.1-1.9-.3-4.4.8-2.4 2.4-1.6 3.6-.6.2.2 1.8 2.5 2.1 3.6zM39.3 101c.3-.3 1-.1 1.2.5.2.4-.2 1.4.4 1.8.6.4 2.7-.8 3.6-.5.9.3-1.2 1.7-2.6 2.4-1.4.7-1.7-.4-2.6-.9-.9-.6-1.1-1.5-.9-2.1.3-.6.6-.9.9-1.2zm105.9-33.1c.6.1.7.3.7.3.5.5-1.5 1.7-1.2 2.8.3 1.1-1.2.2-2.3-.8-1.1-.9-.3-1.6.5-2 .2-.1 1.7-.4 2.3-.3zm3.3 11.7c0 .5.2 1.2.5 1.7s1.1.9.8 2c-.3 1.1-1.6.8-2.6.8-1.1 0-1.4-1.1-1.4-2.3 0-1.2 1-2.8 1.7-3 .6-.2 1 .3 1 .8zM98.4 73c.3-.3.7-1 .8-1.6.1-.6-.2-1.4.8-2 1-.6 1.7.5 2.5 1.2s.3 1.7-.5 2.7c-.8.9-2.6 1.4-3.2 1.1-.8-.4-.7-1-.4-1.4z" fill="rgba(0,0,0,1)"/></svg>
