<?xml version="1.0" encoding="UTF-8"?>
<svg xmlns="http://www.w3.org/2000/svg" viewBox="0 0 192 192"><path d="M104 64H24v44c0 8.8 7.2 16 16 16h44c8.8 0 16-7.2 16-16v-4h4c8.8 0 16-7.2 16-16v-8c0-8.8-7.2-16-16-16zm-12 44c0 4.4-3.6 8-8 8H40c-4.4 0-8-3.6-8-8V72h60v36zm20-20c0 4.4-3.6 8-8 8h-4V72h4c4.4 0 8 3.6 8 8v8zm56-8.1c0 35.3-28.7 64-63.9 64-13.4 0-26.4-4.2-37.1-11.9h16.6c6.5 2.6 13.4 3.9 20.6 3.9 30.9 0 55.9-25.1 55.9-56s-25.1-56-55.9-56c-21.8 0-41.5 12.8-50.6 32h-8.7c9.7-23.9 33.1-40 59.3-40 35.1.1 63.8 28.8 63.8 64zm-24 0c0 21.8-17.5 39.5-39.1 39.9 1.4-2.5 2.4-5.3 2.9-8.2 15.9-1.8 28.3-15.4 28.3-31.7 0-17.6-14.3-32-32-32-8 0-15.4 2.9-21.2 8H72.1c7.5-10 19.2-16 32-16 22 .1 39.9 18 39.9 40zm-92 76.5h8.3c4.4 0 7 2.4 7 6.4 0 3.8-2.5 6.1-6.9 6.1h-4.1v7.2H52v-19.7zm8 9.2c2 0 3-1 3-2.9s-1-2.8-3-2.8h-3.7v5.7H60zm10.4-3.9h4.2v2.4c.9-1.9 2.1-2.7 3.7-2.7.8 0 1.4.2 2.1.6l-1 3.8c-.6-.4-1-.5-1.7-.5-1.8 0-3 1.4-3 3.6v7.2h-4.2v-14.4zm16.5-4.2c0 1.3-1.1 2.3-2.4 2.3-1.3 0-2.4-1-2.4-2.3 0-1.3 1.1-2.3 2.4-2.3 1.4 0 2.4 1 2.4 2.3zm-4.5 4.2h4.2V176h-4.2v-14.3zm6.5 0h4.5l3 9.8 3-9.8h4.1l-5 14.3h-4.7l-4.9-14.3zm24.8 14.3c-.1-.4-.3-1-.4-1.7-1 1.3-2.3 2-4.1 2-2.7 0-4.5-1.6-4.5-4.1 0-3.3 2.7-4.9 8.4-4.9v-.4c0-1.6-.7-2.2-2.3-2.2-1.4 0-2.6.4-4.1 1.4l-1.8-2.7c1.9-1.5 3.8-2.1 6.4-2.1 2.3 0 3.9.6 4.9 1.9.7.9 1 2 1 3.8v6.5c0 .9.1 1.7.4 2.3v.2h-3.9zm-.5-6.2c-3 .1-4.3.7-4.3 2 0 .9.6 1.5 1.7 1.5 1.6 0 2.6-.9 2.6-2.2v-1.3zm6.7-8.1h2v-2.9l4.2-1.5v4.3h3v3.3h-3v6.3c0 1.1.4 1.6 1.2 1.6.5 0 .9-.1 1.5-.4l1 2.8c-1 .8-2.1 1.1-3.4 1.1-2.8 0-4.4-1.6-4.4-4.5v-6.9h-2v-3.2zm24.9 11.4c-1.3 2.1-3.4 3.2-6.2 3.2-4.4 0-7.4-3-7.4-7.3 0-4.5 3-7.6 7.2-7.6s6.7 2.8 6.7 7.5v1.1h-9.7c.2 1.3.4 1.8.9 2.3.6.7 1.3 1 2.4 1 1.4 0 2.2-.5 2.9-1.7l3.2 1.5zm-3.9-5.8c-.2-2.1-1-2.9-2.7-2.9-1.6 0-2.5.9-2.9 2.9h5.6z" fill="rgba(0,0,0,1)"/></svg>
