<?xml version="1.0" encoding="UTF-8"?>
<svg xmlns="http://www.w3.org/2000/svg" viewBox="0 0 192 192"><path d="M112 72H32v44c0 8.8 7.2 16 16 16h44c8.8 0 16-7.2 16-16v-4h4c8.8 0 16-7.2 16-16v-8c0-8.8-7.2-16-16-16zm-12 44c0 4.4-3.6 8-8 8H48c-4.4 0-8-3.6-8-8V80h60v36zm20-20c0 4.4-3.6 8-8 8h-4V80h4c4.4 0 8 3.6 8 8v8z" fill="rgba(0,0,0,1)"/><path d="M112 48c-12.7 0-24.5 6-32.1 16h10.9c5.8-5 13.3-7.9 21.2-7.9 17.7 0 32.2 14.4 32.2 32 0 16.4-12.4 29.9-28.4 31.8-.5 2.9-1.5 5.7-2.9 8.2 21.8-.4 39.3-18.2 39.3-40C152.1 66 134.1 48 112 48z" fill="rgba(0,0,0,1)"/><path d="M112 23.9c-26.1 0-49.7 16-59.4 40.1h8.7c9.2-19.4 28.9-32.1 50.7-32.1 30.9 0 56.1 25.1 56.1 56.1 0 22-12.9 41.6-32.1 50.7v5.3c0 .5 0 1.1-.1 1.6v.3c0 .5-.1 1-.2 1.6 23.9-9.5 40.3-33 40.3-59.5.1-35.3-28.7-64.1-64-64.1zM112 164H32c-8.8 0-16-7.2-16-16v-8h112v8c0 8.8-7.2 16-16 16zm-88-16c0 4.4 3.6 8 8 8h80c4.4 0 8-3.6 8-8H24z" fill="rgba(0,0,0,1)"/></svg>
