<?xml version="1.0" encoding="UTF-8"?>
<svg xmlns="http://www.w3.org/2000/svg" viewBox="0 0 192 192"><path d="M129.856 152.485l22.627-22.627 5.657 5.657-22.627 22.627z" fill="rgba(0,0,0,1)"/><path d="M144 176c-8.5 0-16.6-3.3-22.6-9.4S112 152.5 112 144s3.3-16.6 9.4-22.6 14.1-9.4 22.6-9.4 16.6 3.3 22.6 9.4c6 6 9.4 14.1 9.4 22.6s-3.3 16.6-9.4 22.6-14.1 9.4-22.6 9.4zm0-56c-6.4 0-12.4 2.5-17 7-4.5 4.5-7 10.6-7 17s2.5 12.4 7 17c4.5 4.5 10.6 7 17 7s12.4-2.5 17-7c4.5-4.5 7-10.6 7-17s-2.5-12.4-7-17c-4.6-4.5-10.6-7-17-7z" fill="rgba(0,0,0,1)"/><path d="M129.856 135.515l5.657-5.657 22.627 22.627-5.657 5.657z" fill="rgba(0,0,0,1)"/><path fill="none" d="M166.6 121.4c-6.2-6.2-14.4-9.4-22.6-9.4s-16.4 3.1-22.6 9.4c-12.5 12.5-12.5 32.8 0 45.3s32.8 12.5 45.3 0c12.4-12.5 12.4-32.9-.1-45.3z"/><path fill="none" d="M153.8 84.1l-2.8-1.3.5-3.1c.3-1.9.5-3.9.5-5.8 0-18.7-15.3-34-34-34-12 0-22.9 6.2-29.2 16.5l-1.8 3-3.2-1.4c-3.1-1.3-6.4-2-9.8-2-12.6 0-23.1 9.8-23.9 22.3l-.2 3.5-3.5.2C33.8 82.9 24 93.4 24 106c0 13.2 10.8 24 24 24h58.5c1.9-5.2 5-10.1 9.2-14.3 14-14 36-15.4 51.6-4.2.4-1.8.6-3.6.6-5.5.1-9.4-5.5-18-14.1-21.9z"/><path d="M48 130c-13.2 0-24-10.8-24-24 0-12.6 9.8-23.1 22.3-23.9l3.5-.2.2-3.5C50.9 65.8 61.4 56 74 56c3.4 0 6.7.7 9.8 2.1l3.2 1.4 1.8-3C95.1 46.2 106 40 118 40c18.7 0 34 15.3 34 34 0 1.9-.2 3.8-.5 5.8l-.5 3.1 2.8 1.3C162.4 88 168 96.6 168 106c0 1.9-.2 3.7-.6 5.5 1.7 1.2 3.4 2.6 4.9 4.2.6.6 1.1 1.1 1.6 1.7 1.4-3.6 2.1-7.5 2.1-11.4 0-11.6-6.3-22.2-16.2-27.8.1-1.4.2-2.8.2-4.2 0-23.2-18.8-42-42-42-13.7 0-26.3 6.5-34.2 17.5-3.2-1-6.5-1.5-9.8-1.5-15.6 0-28.9 11.4-31.5 26.5C27.4 77.1 16 90.4 16 106c0 17.6 14.4 32 32 32h56.5c.4-2.7 1.1-5.4 2.1-8H48z" fill="rgba(0,0,0,1)"/></svg>
