<?xml version="1.0" encoding="UTF-8"?>
<svg xmlns="http://www.w3.org/2000/svg" viewBox="0 0 192 192"><path d="M138.2 63.8l-9.4-43-70.3 15.4 9.4 43 70.3-15.4zm-15.5-33.4l6 27.4L74 69.7l-6-27.4 54.7-11.9zM144 176c-17.6 0-32-14.4-32-32s14.4-32 32-32 32 14.4 32 32-14.4 32-32 32zm0-56c-13.2 0-24 10.8-24 24s10.8 24 24 24 24-10.8 24-24-10.8-24-24-24z" fill="rgba(0,0,0,1)"/><path d="M140 157.7l-10.8-10.9 5.6-5.6 5.2 5.1 13.2-13.1 5.6 5.6z" fill="rgba(0,0,0,1)"/><path d="M144 176c-17.6 0-32-14.4-32-32s14.4-32 32-32 32 14.4 32 32-14.4 32-32 32zm0-56c-13.2 0-24 10.8-24 24s10.8 24 24 24 24-10.8 24-24-10.8-24-24-24zM104.9 152.5c-.6-2.6-.9-5.3-.9-8l-15.6 3.4c-3.1-7-10.1-11.9-18.2-11.9h-.4L46.7 30.1c-.9-4.2-3.4-7.7-7-10.1-3.6-2.3-7.9-3.1-12.1-2.2L16 20.5l1.7 7.8 11.7-2.6c2.1-.5 4.2-.1 6 1.1 1.8 1.2 3 2.9 3.5 5l23.2 105.9c-2.2 1-4.2 2.3-6 4.1-3.8 3.8-5.9 8.8-5.9 14.1 0 5.3 2 10.4 5.8 14.2 3.8 3.8 8.8 5.9 14.1 5.9h.1c11 0 19.9-8.9 20-19.9v-.4l14.7-3.2zM70.2 168c-.1 0-.1 0 0 0-3.3 0-6.3-1.3-8.5-3.6-2.3-2.3-3.5-5.3-3.5-8.5s1.3-6.2 3.6-8.5c2.3-2.2 5.3-3.5 8.4-3.5h.1c6.6 0 12 5.4 11.9 12.1-.1 6.7-5.4 12-12 12z" fill="rgba(0,0,0,1)"/><path d="M109.8 123.3l-23 5-7.7-35.2 66.4-14.5 5.7 26.1c3.1.6 6 1.5 8.8 2.7l-8.4-38.3-82 17.9 11.1 50.8 25-5.5c1-3.2 2.4-6.2 4.1-9z" fill="rgba(0,0,0,1)"/></svg>
