<?xml version="1.0" encoding="UTF-8"?>
<svg xmlns="http://www.w3.org/2000/svg" viewBox="0 0 192 192"><path d="M176 136V32H16v104h64v16H64v8h64v-8h-16v-16h64zM24 40h144v88H24V40zm80 112H88v-16h16v16z" fill="rgba(0,0,0,1)"/><path d="M127.6 66.2c-.7-1.4-2.2-2.3-3.8-2.2-1.6.1-3 1.1-3.5 2.6l-8.5 22.5-16.1-38.6c-.6-1.5-2.1-2.5-3.8-2.5-1.6 0-3.1 1.1-3.7 2.6L67.5 106 55.6 82.2c-.6-1.3-2-2.2-3.6-2.2H32v8h17.6l14.8 29.8c.7 1.4 2.1 2.2 3.6 2.2h.2c1.6-.1 3-1.1 3.5-2.6l20.5-54.5 16.1 38.7c.6 1.5 2.1 2.5 3.8 2.5 1.6 0 3.1-1.1 3.7-2.6l8.8-23.4 3.9 7.8c.7 1.4 2.1 2.2 3.6 2.2h28v-8h-25.5l-7-13.9z" fill="rgba(0,0,0,1)"/></svg>
