<?xml version="1.0" encoding="UTF-8"?>
<svg xmlns="http://www.w3.org/2000/svg" viewBox="0 0 192 192"><path d="M96 51.5L68 66.3v35.4l28 14.8 28-14.8V66.3L96 51.5zm15.5 17.2L96 76.9l-15.5-8.2L96 60.5l15.5 8.2zM76 75.4l16 8.5v21.5l-16-8.5V75.4zm24 30V83.9l16-8.5v21.5l-16 8.5zM144 176c-17.6 0-32-14.4-32-32s14.4-32 32-32 32 14.4 32 32-14.4 32-32 32zm0-56c-13.2 0-24 10.8-24 24s10.8 24 24 24 24-10.8 24-24-10.8-24-24-24z" fill="rgba(0,0,0,1)"/><path d="M136 131.1l20 12.9-20 12.9z" fill="rgba(0,0,0,1)"/><path d="M64 152v8h43.3c-1.1-2.5-2-5.2-2.5-8H88v-16h16.8c.6-2.8 1.4-5.5 2.5-8H24V40h144v72c3 2.3 5.7 5 8 8V32H16v104h64v16H64z" fill="rgba(0,0,0,1)"/></svg>
