<?xml version="1.0" encoding="UTF-8"?>
<svg xmlns="http://www.w3.org/2000/svg" viewBox="0 0 192 192"><path d="M144 112c-17.6 0-32 14.4-32 32s14.4 32 32 32 32-14.4 32-32-14.4-32-32-32zm0 56c-13.2 0-24-10.8-24-24s10.8-24 24-24 24 10.8 24 24-10.8 24-24 24z" fill="rgba(0,0,0,1)"/><path d="M148 146.3V128h-8v18.3l-5.2-5.1-5.6 5.6 14.8 14.9 14.8-14.9-5.6-5.6zM68 100H36V68h32v32zm-24-8h16V76H44v16zM112 100H80V68h32v32zm-24-8h16V76H88v16zM156 100h-32V68h32v32zm-24-8h16V76h-16v16z" fill="rgba(0,0,0,1)"/><path d="M16 32v104h64v16H64v8h43.3c-1.1-2.5-2-5.2-2.5-8H88v-16h16.8c.6-2.8 1.4-5.5 2.5-8H24V40h144v72c3 2.3 5.7 5 8 8V32H16z" fill="rgba(0,0,0,1)"/></svg>
