<?xml version="1.0" encoding="UTF-8"?>
<svg xmlns="http://www.w3.org/2000/svg" viewBox="0 0 192 192"><path d="M172.9 153.1l-35.8-35.8c1.9-4 2.9-8.5 2.9-13.3 0-17.6-14.4-32-32-32s-32 14.4-32 32 14.4 32 32 32c4.8 0 9.4-1.1 13.5-3l35.7 35.7c2.2 2.2 5 3.2 7.8 3.2s5.7-1.1 7.8-3.2c4.4-4.3 4.4-11.3.1-15.6zM84 104c0-13.2 10.8-24 24-24s24 10.8 24 24-10.8 24-24 24-24-10.8-24-24zm83.2 59.1c-1.2 1.2-3.2 1.2-4.4 0l-34.5-34.5c1.6-1.3 3-2.8 4.3-4.4l34.5 34.5c.6.6.9 1.4.9 2.2.1.8-.2 1.6-.8 2.2zM131 71.3l.7.5c5.6 4.1 10.1 9.7 12.9 16.2H160v-8h-17.1l-7.1-21.3c-.5-1.5-1.9-2.6-3.6-2.7-1.6-.1-3.2.8-3.9 2.3l-4.3 9.1c2.5 1.1 4.9 2.4 7 3.9z" fill="rgba(0,0,0,1)"/><path d="M105.7 109.8c.7 1.3 2.1 2.2 3.6 2.1 1.5 0 2.9-.9 3.5-2.3l7.5-15.8c-1.7-2.1-4-3.7-6.6-4.7L109 99l-5.4-10.4c-2.6.8-5 2.2-6.9 4l9 17.2zM75 81.4l5.9-19 4.5 8.6c2.2-1.5 4.5-2.8 7-3.9l-8.9-17c-.7-1.4-2.3-2.3-3.9-2.1-1.6.1-3 1.2-3.5 2.8l-15.7 50.4L55.9 83c-.4-1.8-2-3-3.9-3H32v8h16.9l7.2 29c.4 1.7 2 3 3.8 3h.1c1.7 0 3.3-1.1 3.8-2.8l4.2-13.4c0-8.3 2.6-16 7-22.4z" fill="rgba(0,0,0,1)"/><path d="M112 143.8c-1.3.1-2.7.2-4 .2-1.3 0-2.7-.1-4-.2v8.2H88v-13.4c-4.7-2.7-8.7-6.3-12-10.6H24V40h144v88h-8.9l8 8h8.9V32H16v104h64v16H64v8h64v-8h-16v-8.2z" fill="rgba(0,0,0,1)"/></svg>
