<?xml version="1.0" encoding="UTF-8"?>
<svg xmlns="http://www.w3.org/2000/svg" viewBox="0 0 192 192"><path d="M140 157.7l-10.8-10.9 5.6-5.6 5.2 5.1 13.2-13.1 5.6 5.6z" fill="rgba(0,0,0,1)"/><path d="M144 176c-17.6 0-32-14.4-32-32s14.4-32 32-32 32 14.4 32 32-14.4 32-32 32zm0-56c-13.2 0-24 10.8-24 24s10.8 24 24 24 24-10.8 24-24-10.8-24-24-24z" fill="rgba(0,0,0,1)"/><path d="M16 32v104h64v16H64v8h43.3c-1.1-2.5-2-5.2-2.5-8H88v-16h16.8c.6-2.8 1.4-5.5 2.5-8H24V40h144v72c3 2.3 5.7 5 8 8V32H16z" fill="rgba(0,0,0,1)"/><path d="M68 120c-1.5 0-2.9-.9-3.6-2.2L49.6 88H32v-8h20c1.5 0 2.9.9 3.6 2.2L67.5 106l20.8-55.4c.6-1.5 2-2.6 3.7-2.6 1.7 0 3.1.9 3.8 2.5l16.1 38.7 8.5-22.5c.6-1.5 1.9-2.5 3.5-2.6 1.6-.1 3.1.8 3.8 2.2l6.9 13.8H160v8h-28c-1.5 0-2.9-.9-3.6-2.2l-3.9-7.8-8.8 23.4c-.6 1.5-2 2.6-3.7 2.6-1.7 0-3.1-.9-3.8-2.5l-16-38.7-20.5 54.5c-.6 1.5-1.9 2.5-3.5 2.6H68z" fill="rgba(0,0,0,1)"/></svg>
