<?xml version="1.0" encoding="UTF-8"?>
<svg xmlns="http://www.w3.org/2000/svg" viewBox="0 0 192 192"><path d="M120 53.3V32h-8v-8.8c0-4-3.2-7.2-7.2-7.2H87.2c-4 0-7.2 3.2-7.2 7.2V32h-8v21.6c-9.6 9-28 30-28 58.4 0 35.4 8.9 52.5 12.7 58.2 2.7 4.1 6 5.8 11.3 5.8h56.2c.8 0 7.6-.5 11.1-5.8 3.1-4.7 12.7-19 12.7-58.2 0-29.5-16.7-48.9-28-58.7zM88 24h16v8H88v-8zm-8 16h31.9v8H80v-8zm48.7 125.8c-1.1 1.6-3.8 2.1-4.8 2.2H68c-2.9 0-3.6-.5-4.7-2.2C52.8 150 52 120.6 52 112c0-30 24.1-51.6 29.4-56h29.3c9.6 7.2 29.3 25.8 29.3 56 0 36.8-8.5 49.6-11.3 53.8zM32 48c-8.8 0-16-7.2-16-16s7.2-16 16-16 16 7.2 16 16-7.2 16-16 16zm0-24c-4.4 0-8 3.6-8 8s3.6 8 8 8 8-3.6 8-8-3.6-8-8-8z" fill="rgba(0,0,0,1)"/><circle cx="44" cy="60" r="4" fill="rgba(0,0,0,1)"/><path d="M118.5 128.2c-8.8 0-18.3-11.1-22.2-22.9-3-8.8-2.9-17.4.1-23 1.7-3.2 4.2-5.3 7.4-6.1 9.8-2.6 19.2 4.6 24.1 18.3 1.9 5.3 5.8 18.5 1.3 27-1.7 3.3-4.5 5.5-8.1 6.4-.9.2-1.8.3-2.6.3zm-11-44.6c-.6 0-1.2.1-1.8.2-.9.3-1.8 1-2.4 2.2-1.5 2.9-2.2 8.8.4 16.7 3.9 11.6 12.2 18.2 15.2 17.4 1.4-.4 2.4-1.1 3-2.4 2-3.8 1.3-11.9-1.8-20.6-2.8-8.4-7.8-13.5-12.6-13.5zM148 56c-6.6 0-12-5.4-12-12s5.4-12 12-12 12 5.4 12 12-5.4 12-12 12zm0-16c-2.2 0-4 1.8-4 4s1.8 4 4 4 4-1.8 4-4-1.8-4-4-4z" fill="rgba(0,0,0,1)"/></svg>
