<?xml version="1.0" encoding="UTF-8"?>
<svg xmlns="http://www.w3.org/2000/svg" viewBox="0 0 192 192"><path d="M58 83.4v-7.7l21-10.2v10l-10.9 4L79 83.9v9.7L58 83.4zM98.7 56h8.7l-15.2 48h-8.7l15.2-48zM113.1 83.6l10.9-4-10.9-4.4v-9.7l21 10.2v7.6l-21 10.2v-9.9z" fill="rgba(0,0,0,1)"/><path d="M164 118.7V48c0-6.6-5.4-12-12-12H40c-6.6 0-12 5.4-12 12v70.7l-12 16v9.3c0 6.6 5.4 12 12 12h136c6.6 0 12-5.4 12-12v-9.3l-12-16zM40 44h112c2.2 0 4 1.8 4 4v68H36V48c0-2.2 1.8-4 4-4zm-6 80h124l6 8H28l6-8zm130 24H28c-2.2 0-4-1.8-4-4v-4h144v4c0 2.2-1.8 4-4 4z" fill="rgba(0,0,0,1)"/></svg>
