<?xml version="1.0" encoding="UTF-8"?>
<svg xmlns="http://www.w3.org/2000/svg" viewBox="0 0 192 192"><path d="M96 72c-8.8 0-16-7.2-16-16s7.2-16 16-16 16 7.2 16 16-7.2 16-16 16zm0-23.9c-4.4 0-8 3.6-8 8s3.6 8 8 8 8-3.6 8-8-3.6-8-8-8zm39.4 1.7l-.4-2.6-8.6-2.2c-.3-.8-.7-1.7-1-2.5l4.5-7.7-1.5-2.1c-2.5-3.4-5.5-6.4-8.9-8.9l-2.1-1.5-7.7 4.5c-.8-.4-1.6-.7-2.5-1l-2.3-8.6-2.6-.4c-4.2-.7-8.4-.7-12.6 0l-2.6.2-2.2 8.6c-.8.3-1.7.7-2.5 1l-7.7-4.5-2.1 1.5c-3.4 2.5-6.4 5.5-8.9 8.9l-1.5 2.1 4.5 7.7c-.4.8-.7 1.6-1 2.5L57 47.2l-.4 2.6c-.3 2.1-.5 4.2-.5 6.3 0 2.1.2 4.2.5 6.3L57 65l8.6 2.2c.3.8.7 1.7 1 2.5l.4.9 7.1 2.1 1.7-2.8-1.1-2c-.9-1.6-1.6-3.3-2.1-5.1l-.6-2.2-7.8-2c-.1-.8-.1-1.7-.1-2.5s0-1.7.1-2.5l7.8-2 .6-2.2c.5-1.8 1.2-3.5 2.1-5.1l1.1-2-4.1-6.9c1.1-1.3 2.3-2.5 3.5-3.5l6.9 4.1 2-1.1c1.6-.9 3.3-1.6 5.1-2.1l2.2-.6 2-7.8c1.7-.1 3.3-.1 5 0l2 7.8 2.2.6c1.8.5 3.5 1.2 5.1 2.1l2 1.1 6.9-4.1c1.3 1.1 2.5 2.3 3.5 3.5l-4.1 6.9 1.1 2c.9 1.6 1.6 3.3 2.1 5.1l.6 2.2 7.8 2c.1.8.1 1.7.1 2.5s0 1.7-.1 2.5l-7.8 2-.6 2.2c-.5 1.8-1.2 3.5-2.1 5.1l-1.1 2 1.6 2.7 7.2-2.2.3-.7c.4-.8.7-1.6 1-2.5l8.6-2.3.4-2.6c.3-2.1.5-4.2.5-6.3.3-2 .2-4.2-.2-6.2zm23.2 18.9l-14-4.7-1.3 8L96 87.8 48.7 72h.1l-1-8.1-14.3 4.8-15.4 25.5 14 4.7v55.9L96 176.1l63.9-21.3V98.9l14-4.7-15.3-25.5zM30.1 89.8l7.8-13L90 94.2l-7.8 13-52.1-17.4zM92 166.4L40.1 149v-47.5l45.7 15.2 6.2-10.4v60.1zm59.9-17.4L100 166.4v-59.9l6.2 10.4 45.7-15.2V149zm-42.1-41.8l-7.8-13 52.2-17.4 7.8 13-52.2 17.4z" fill="rgba(0,0,0,1)"/></svg>
