<?xml version="1.0" encoding="UTF-8"?>
<svg xmlns="http://www.w3.org/2000/svg" viewBox="0 0 192 192"><path d="M176 120V32H48v40h8V40h112v72H80v8h24v16H92v8h48v-8h-12v-16h48zm-56 16h-8v-16h8v16z" fill="rgba(0,0,0,1)"/><path d="M56.5 80h-25C23 80 16 87 16 95.5v48.9c0 8.6 7 15.5 15.5 15.5h24.9c8.6 0 15.5-7 15.5-15.5V95.5C72 87 65 80 56.5 80zm7.5 64.5c0 4.2-3.4 7.5-7.5 7.5h-25c-4.2 0-7.5-3.4-7.5-7.5v-49c0-4.2 3.4-7.5 7.5-7.5h24.9c4.2 0 7.5 3.4 7.5 7.5l.1 49z" fill="rgba(0,0,0,1)"/><circle cx="44" cy="144" r="4" fill="rgba(0,0,0,1)"/></svg>
