<?xml version="1.0" encoding="UTF-8"?>
<svg xmlns="http://www.w3.org/2000/svg" viewBox="0 0 192 192"><path d="M159.2 32H52.8C43.4 32 36 39 36 48h8c0-4.6 3.8-8 8.8-8h106.5c4.8 0 8.8 3.8 8.8 8.6v62.9c0 4.7-3.9 8.6-8.8 8.6H84v8h75.2c9.2 0 16.8-7.4 16.8-16.6V48.6c0-9.2-7.5-16.6-16.8-16.6z" fill="rgba(0,0,0,1)"/><circle cx="156" cy="80" r="4" fill="rgba(0,0,0,1)"/><path d="M64 56H28c-6.6 0-12 5.4-12 12v80c0 6.6 5.4 12 12 12h36c6.6 0 12-5.4 12-12V68c0-6.6-5.4-12-12-12zm4 92c0 2.2-1.8 4-4 4H28c-2.2 0-4-1.8-4-4V68c0-2.2 1.8-4 4-4h36c2.2 0 4 1.8 4 4v80z" fill="rgba(0,0,0,1)"/><circle cx="46" cy="140" r="4" fill="rgba(0,0,0,1)"/><path d="M51 72h-9.5c-2.2 0-4 1.8-4 4s1.8 4 4 4H51c2.2 0 4-1.8 4-4s-1.8-4-4-4z" fill="rgba(0,0,0,1)"/></svg>
