<?xml version="1.0" encoding="UTF-8"?>
<svg xmlns="http://www.w3.org/2000/svg" viewBox="0 0 192 192"><path d="M116 16H76v40h40V16zm-8 32H84V24h24v24zM16 176h40v-40H16v40zm8-32h24v24H24v-24zm120-32c-17.6 0-32 14.4-32 32s14.4 32 32 32 32-14.4 32-32-14.4-32-32-32zm0 56c-13.2 0-24-10.8-24-24s10.8-24 24-24 24 10.8 24 24-10.8 24-24 24zm11.9-35.5l-3.2 1.8c-1.3-1.2-2.9-2.2-4.7-2.7V128h-8v3.6c-1.8.6-3.4 1.5-4.7 2.7l-3.2-1.8-4 6.9 3.1 1.8c-.2.9-.3 1.8-.3 2.7s.1 1.8.3 2.7l-3.1 1.8 4 6.9 3.2-1.8c1.3 1.2 2.9 2.2 4.7 2.7v3.6h8v-3.6c1.8-.6 3.4-1.5 4.7-2.7l3.2 1.8 4-6.9-3.1-1.8c.2-.9.3-1.8.3-2.7 0-.9-.1-1.8-.3-2.7l3.1-1.8-4-6.9zM144 149c-2.8 0-5-2.2-5-5s2.2-5 5-5 5 2.2 5 5-2.2 5-5 5zM40 128h-8V92h60V64h8v28h60v15.3c-2.5-1.1-5.2-2-8-2.5V100h-52v28h-8v-28H40v28zm72 40c1.2 1.6 2.5 3.1 4 4.5v3.5H76v-40h28.8c-.5 2.6-.8 5.3-.8 8H84v24h28z" fill="rgba(0,0,0,1)"/></svg>
