<?xml version="1.0" encoding="UTF-8"?>
<svg xmlns="http://www.w3.org/2000/svg" viewBox="0 0 192 192"><path d="M16 176h40v-40H16v40zm8-32h24v24H24v-24zm120-32c-17.6 0-32 14.4-32 32s14.4 32 32 32 32-14.4 32-32-14.4-32-32-32zm0 56c-13.2 0-24-10.8-24-24s10.8-24 24-24 24 10.8 24 24-10.8 24-24 24zm11.9-35.5l-3.2 1.8c-1.3-1.2-2.9-2.2-4.7-2.7V128h-8v3.6c-1.8.6-3.4 1.5-4.7 2.7l-3.2-1.8-4 6.9 3.1 1.8c-.2.9-.3 1.8-.3 2.7s.1 1.8.3 2.7l-3.1 1.8 4 6.9 3.2-1.8c1.3 1.2 2.9 2.2 4.7 2.7v3.6h8v-3.6c1.8-.6 3.4-1.5 4.7-2.7l3.2 1.8 4-6.9-3.1-1.8c.2-.9.3-1.8.3-2.7s-.1-1.8-.3-2.7l3.1-1.8-4-6.9zM144 149c-2.8 0-5-2.2-5-5s2.2-5 5-5 5 2.2 5 5-2.2 5-5 5zM73 72h45.7c9.5 0 17.3-7.9 17.3-17.7 0-5.9-2.9-11.4-7.6-14.7v-1c0-12.5-9.9-22.6-22.1-22.6-6.6 0-12.9 3.1-17.1 8.3-1.3-.3-2.5-.4-3.9-.4-8.2 0-15 5.3-16.9 12.7-7.3 2.1-12.8 9.4-12.8 17.7C55.7 64.1 63.5 72 73 72zm-.7-28l3.5-.2.2-3.5c.3-4.9 4.3-8.4 9.4-8.4 1.3 0 2.6.3 3.8.8l3.3 1.5 1.8-3.1c2.6-4.4 7.1-7 12-7 7.8 0 14.1 6.6 14.1 14.6 0 .8-.1 1.7-.2 2.5l-.5 3 2.8 1.3c3.4 1.6 5.6 5 5.6 8.9 0 5.4-4.2 9.7-9.3 9.7H73c-5.1 0-9.3-4.4-9.3-9.7 0-5.4 3.9-10.1 8.6-10.4zM120 176H76v-40h28.8c-.5 2.6-.8 5.3-.8 8H84v24h28c2.3 3 5 5.7 8 8zm40-68.7c-2.5-1.1-5.2-2-8-2.5V100h-52v28h-8v-28H40v28h-8V92h60V80h8v12h60v15.3z" fill="rgba(0,0,0,1)"/></svg>
