<?xml version="1.0" encoding="UTF-8"?>
<svg xmlns="http://www.w3.org/2000/svg" viewBox="0 0 192 192"><path d="M32 16h8v8h-8zM120 160h8v-8h16v-8h-24v16z" fill="rgba(0,0,0,1)"/><path d="M160 168h-24v-8h-8v8h-24v-16h8v-8h8v-8h16v-16h8v-8h-8v-8h8v-8h-16v8h-8v-8h-8v8h-8v8H88V88h8V72h-8v8h-8v8h-8v-8h-8v-8h-8v8H40V64h-8V40h-8V16h-8v160h160v-8h-8v-8h-8zM48 88h16v8H48zm-24 0h8v8h-8zm0 80v-8h8v8zm56 0v-16h-8v16h-8v-24H48v16h8v8H40v-16h-8v-8h-8v-8h16v8h8v-8h8v-8H40v-8h-8v8h-8v-24h8v8h8v8h24v-8h8v8h8v8h8v-8h40v8H88v8h8v8h-8v8h8v8h-8v8zM168 136h8v8h-8z" fill="rgba(0,0,0,1)"/><path d="M168 152h8v8h-8zM152 152v8h8v-8h8v-8h-16v8zM72 136h16v8H72zM64 16h8v8h-8z" fill="rgba(0,0,0,1)"/><path d="M64 32v8h16v-8h16v16h8v-8h8v-8h-8V16h-8v8h-8v-8h-8v8h-8v8h-8zM56 56V40h-8v24h16v-8h-8zM136 72h16v8h-16zM152 80v8h16v-8h8v-8h-16v8h-8zM152 104h8v8h16v-8h-8v-8h-16v8zM112 80h-8v8h16V72h-8v8zM152 128h-8v8h24v-8h8v-8h-16v-8h-8v16zM40 32h8v8h-8zM104 48h8v8h-8zM152 64h8v8h-8zM168 88h8v8h-8zM120 40h-8v8h8v16h8v8h8v-8h8v-8h8v-8h-16V16h-8v8h-8v-8h-8v16h8v8zM64 32v-8h-8v-8h-8v16h16z" fill="rgba(0,0,0,1)"/><path d="M80 72V56h8V40h-8v8h-8v16h-8v8h16zM168 32h8v-8h-8v-8h-8v8h-8v-8h-8v16h8v16h8v16h16v-8h-8v-8h8v-8h-16v-8h8z" fill="rgba(0,0,0,1)"/></svg>
