<?xml version="1.0" encoding="UTF-8"?>
<svg xmlns="http://www.w3.org/2000/svg" viewBox="0 0 192 192"><path d="M108.8 47.2c3 1.1 5.8 2.5 8.5 4.1C129 42.9 136 30 136 16H76v8h51c-2.3 9.6-8.8 17.9-18.2 23.2zM96.7 132.1c-9.1-1.7-17-6-22.8-12.1h38v-8H68.1c-2.6-4.9-4.1-10.3-4.1-16 0-5.7 1.5-11.1 4.1-16H112v-8H73.9c2.7-2.8 5.8-5.2 9.3-7.2-3-1.1-5.8-2.5-8.5-4.1C63.1 69.1 56 82 56 96c0 21.3 16.5 39.7 39.3 43.9 16 2.9 28.3 14.2 31.7 28.1H75v8h61c0-21.3-16.5-39.7-39.3-43.9z" fill="rgba(0,0,0,1)"/><path d="M95.3 59.9c17.5 3.2 30.6 16.4 32.5 32.1H76v8h51.7c-1.3 11.2-8.3 21.2-19 27.2 3 1.1 5.8 2.5 8.5 4.1C129 122.9 136 110 136 96c0-21.3-16.5-39.7-39.3-43.9-9.1-1.7-17-6-22.8-12.1h38v-8H68.1C65.5 27.1 64 21.7 64 16h-8c0 21.3 16.5 39.7 39.3 43.9zM83.2 144.8c-3-1.1-5.8-2.5-8.5-4.1C63 149.2 56 162.2 56 176h8c0-5.7 1.4-11.1 4-16h44v-8H73.9c2.6-2.8 5.8-5.2 9.3-7.2z" fill="rgba(0,0,0,1)"/></svg>
