<?xml version="1.0" encoding="UTF-8"?>
<svg xmlns="http://www.w3.org/2000/svg" viewBox="0 0 192 192"><path d="M96 16c-22.1 0-40 17.9-40 40v4h24v-4c0-8.8 7.2-16 16-16s16 7.2 16 16c0 6-2 12.7-16.9 16.1L56 80.8V176h80V56c0-22.1-17.9-40-40-40zm32 152H64V87.2l32.9-7.3C112.4 76.3 120 68.5 120 56c0-13.2-10.8-24-24-24-11.9 0-21.8 8.7-23.7 20h-8.1c2-15.8 15.5-28 31.8-28 17.6 0 32 14.4 32 32v112z" fill="rgba(0,0,0,1)"/><path d="M96 104c-13.2 0-24 10.8-24 24s10.8 24 24 24 24-10.8 24-24-10.8-24-24-24zm0 8c3 0 5.7.8 8.1 2.2l-21.9 21.9c-1.4-2.4-2.2-5.1-2.2-8.1 0-8.8 7.2-16 16-16zm0 32c-3 0-5.7-.8-8.1-2.2l21.9-21.9c1.4 2.4 2.2 5.1 2.2 8.1 0 8.8-7.2 16-16 16z" fill="rgba(0,0,0,1)"/></svg>
