<?xml version="1.0" encoding="UTF-8"?>
<svg xmlns="http://www.w3.org/2000/svg" viewBox="0 0 192 192"><path d="M156 140v-4c0-6.6-5.4-12-12-12s-12 5.4-12 12v4h-4v20h32v-20h-4zm-16-4c0-2.2 1.8-4 4-4s4 1.8 4 4v4h-8v-4z" fill="rgba(0,0,0,1)"/><path d="M144 176c-17.6 0-32-14.4-32-32s14.4-32 32-32 32 14.4 32 32-14.4 32-32 32zm0-56c-13.2 0-24 10.8-24 24s10.8 24 24 24 24-10.8 24-24-10.8-24-24-24z" fill="rgba(0,0,0,1)"/><path d="M121.8 16H40v160h80c-3-2.3-5.7-5-8-8H48V24h68v32h28v48c2.7 0 5.4.3 8 .8V50.5L121.8 16zm2.2 32V30.6L139.2 48H124z" fill="rgba(0,0,0,1)"/></svg>
