<?xml version="1.0" encoding="UTF-8"?>
<svg xmlns="http://www.w3.org/2000/svg" viewBox="0 0 192 192"><path d="M160 140h-12v-12h-8v12h-12v8h12v12h8v-12h12z" fill="rgba(0,0,0,1)"/><path d="M144 176c-17.6 0-32-14.4-32-32s14.4-32 32-32 32 14.4 32 32-14.4 32-32 32zm0-56c-13.2 0-24 10.8-24 24s10.8 24 24 24 24-10.8 24-24-10.8-24-24-24zM56 72h64v8H56zM56 92h64v8H56zM56 112h40v8H56z" fill="rgba(0,0,0,1)"/><path d="M121.8 16H40v160h80c-3-2.3-5.7-5-8-8H48V24h68v32h28v48c2.7 0 5.4.3 8 .8V50.5L121.8 16zm2.2 32V30.6L139.2 48H124z" fill="rgba(0,0,0,1)"/></svg>
