<?xml version="1.0" encoding="UTF-8"?>
<svg xmlns="http://www.w3.org/2000/svg" viewBox="0 0 192 192"><path d="M32.2 90.2h10.1c5.4 0 8.5 2.8 8.5 7.7 0 4.6-3.1 7.3-8.3 7.3h-5v8.7h-5.3V90.2zm9.7 11c2.4 0 3.7-1.2 3.7-3.5s-1.2-3.4-3.6-3.4h-4.5v6.9h4.4zM72.5 104.4c0 6.4-3.4 9.8-9.7 9.8-6.3 0-9.7-3.4-9.7-9.7V90.2h5.3v14.1c0 4 1.3 5.7 4.5 5.7s4.6-1.8 4.6-5.9V90.2h5v14.2zM76.8 90.2h10.7c5 0 7.8 2.2 7.8 6.3 0 2.6-.9 4-3.3 5.1 3 1 4.2 2.7 4.2 5.7 0 4.3-2.9 6.7-8.3 6.7H76.8V90.2zm10.4 9.5c2 0 2.9-.9 2.9-2.8s-1-2.7-3.1-2.7h-5v5.5h5.2zm.2 10.1c2.2 0 3.4-1.1 3.4-3.2 0-2-1.3-3.1-3.6-3.1H82v6.3h5.4z" fill="rgba(0,0,0,1)"/><g><path d="M141.8 16H60v56H16v60h44v44h112V50.5L141.8 16zm2.2 14.6L159.2 48H144V30.6zM24 80h80v44H24V80zm44 88v-36h44V72H68V24h68v32h28v112H68z" fill="rgba(0,0,0,1)"/></g></svg>
