<?xml version="1.0" encoding="UTF-8"?>
<svg xmlns="http://www.w3.org/2000/svg" viewBox="0 0 192 192"><path d="M38.4 102l-6.6-10.3h5.6l4 6.8 3.9-6.8h5.1L44 101.9l7.2 11.1h-5.7l-4.5-7.6-4.6 7.6h-5.1l7.1-11zM60.8 91.7l4.8 14.6 4.8-14.6h6.8V113h-4.7V97l-5.4 16h-3.5l-5.4-16v16H54V91.7h6.8zM82.2 91.7H87v17.4h9.4v3.8H82.2V91.7z" fill="rgba(0,0,0,1)"/><g><path d="M141.8 16H60v56H16v60h44v44h112V50.5L141.8 16zm2.2 14.6L159.2 48H144V30.6zM24 80h80v44H24V80zm44 88v-36h44V72H68V24h68v32h28v112H68z" fill="rgba(0,0,0,1)"/></g></svg>
