<?xml version="1.0" encoding="UTF-8"?>
<svg xmlns="http://www.w3.org/2000/svg" viewBox="0 0 192 192"><path d="M24 32.1V176h100V62.5L97.8 32l-73.8.1zm76 14.7L111.3 60H100V46.8zM32 168V40.1l60-.1v28h24v100H32zm62.8-74.9l14.8 14.9-14.8 14.9-5.7-5.6 9.2-9.2-9.2-9.2 5.7-5.8zm-36 5.6l-9.2 9.2 9.2 9.2-5.7 5.6L38.4 108l14.8-14.9 5.6 5.6zm21.5-16.2l7.4 3.1-20 48-7.4-3.1 20-48zM141.8 16l-69.8.1v8l64-.1v28h24v100h-28v8h36V46.5L141.8 16zm2.2 14.8L155.3 44H144V30.8zm-10.8 70.4l9.2-9.2-9.2-9.2 5.7-5.6L153.6 92l-14.8 14.9-5.6-5.7z" fill="rgba(0,0,0,1)"/></svg>
