<?xml version="1.0" encoding="UTF-8"?>
<svg xmlns="http://www.w3.org/2000/svg" viewBox="0 0 192 192"><path d="M32 90.8h8.1c6.9 0 10.9 4 10.9 10.9 0 7-4 11-11.1 11h-8V90.8zm8.2 18c3.7 0 5.7-2.5 5.7-7.1s-2-7-5.8-7h-3.3v14.1h3.4zM74.6 101.7c0 6.7-4.4 11.4-10.7 11.4-6.2 0-10.6-4.6-10.6-11.2S57.8 90.6 64 90.6c6.2-.1 10.6 4.6 10.6 11.1zm-16.1.1c0 4.6 2.1 7.3 5.5 7.3 3.5 0 5.5-2.7 5.5-7.3 0-4.5-2.1-7.3-5.4-7.3-3.6-.1-5.6 2.6-5.6 7.3zM96.7 106.7c-.9 2.2-1.7 3.4-3.2 4.5-1.6 1.2-3.6 1.8-6 1.8-6.4 0-10.5-4.4-10.5-11.2 0-6.7 4.3-11.4 10.4-11.4 2.7 0 5 .8 6.6 2.3 1 1 1.7 1.9 2.5 3.8l-4.3 1.8c-1-2.8-2.4-3.9-4.8-3.9-3.4 0-5.3 2.6-5.3 7.3 0 4.7 1.9 7.3 5.4 7.3 2.4 0 3.9-1.3 4.9-4.2l4.3 1.9z" fill="rgba(0,0,0,1)"/><g><path d="M141.8 16H60v56H16v60h44v44h112V50.5L141.8 16zm2.2 14.6L159.2 48H144V30.6zM24 80h80v44H24V80zm44 88v-36h44V72H68V24h68v32h28v112H68z" fill="rgba(0,0,0,1)"/></g></svg>
