<?xml version="1.0" encoding="UTF-8"?>
<svg xmlns="http://www.w3.org/2000/svg" viewBox="0 0 192 192"><path d="M121.8 16H40v160h112V50.5L121.8 16zm2.2 14.6L139.2 48H124V30.6zM48 168V24h68v32h28v112H48z" fill="rgba(0,0,0,1)"/><path d="M56 96h52v8H56zM56 112h52v8H56zM56 128h32v8H56zM84 71.4c1.9-2.3 3.1-5.2 3.1-8.4 0-7.2-5.9-13-13-13s-13 5.9-13 13c0 3.2 1.1 6.1 3 8.4C59.2 74.9 56 81 56 88h8c0-6.5 4.4-11.9 9.8-12h.5c5.4.2 9.7 5.5 9.7 12h8c0-6.9-3.2-13-8-16.6zM69 63c0-2.8 2.3-5 5-5s5 2.3 5 5-2.2 5-4.9 5h-.2-.1c-2.6-.1-4.8-2.3-4.8-5z" fill="rgba(0,0,0,1)"/></svg>
