<?xml version="1.0" encoding="UTF-8"?>
<svg xmlns="http://www.w3.org/2000/svg" viewBox="0 0 192 192"><path d="M34.2 90.2h10.4c5.1 0 8.1 2.6 8.1 6.8 0 1.7-.4 3.1-1.3 4.1-.8.9-1.6 1.4-3.2 1.9 2.3.7 3.2 1.9 3.8 4.7.9 3.7 1.4 5.3 1.9 6v.1h-5.4c-.7-1.2-1.1-2.7-1.8-5.7-.5-2.4-1.6-3.3-3.7-3.3h-3.6v9h-5.2V90.2zm9.6 10.7c2.4 0 3.7-1.2 3.7-3.3 0-2.1-1.2-3.2-3.4-3.2h-4.7v6.6h4.4zM62.1 94.4h-6.7v-4.3h18.7v4.3h-6.7v19.4h-5.3V94.4zM77.2 90.2h16.3v4.3h-11v6.3H91v4.1h-8.5v9h-5.3V90.2z" fill="rgba(0,0,0,1)"/><g><path d="M141.8 16H60v56H16v60h44v44h112V50.5L141.8 16zm2.2 14.6L159.2 48H144V30.6zM24 80h80v44H24V80zm44 88v-36h44V72H68V24h68v32h28v112H68z" fill="rgba(0,0,0,1)"/></g></svg>
