<?xml version="1.0" encoding="UTF-8"?>
<svg xmlns="http://www.w3.org/2000/svg" viewBox="0 0 192 192"><path d="M41.7 109.8c5.6 0 9.4-4 9.4-9.8 0-5.8-3.8-9.8-9.3-9.8-2.7 0-4.8.7-6.6 2.3-1.9 1.8-3 4.5-3 7.5 0 5.9 3.8 9.8 9.5 9.8zm0-15.4c2.5 0 4 2 4 5.6 0 3.7-1.4 5.6-4 5.6s-4-2-4-5.6c-.1-3.7 1.3-5.6 4-5.6zm17.7 15.1h-5.3V90.4h5.3v7.3h6.1v-7.3h5.3v19.1h-5.3V102h-6.1v7.5zM92 99.9c0-5.9-3.7-9.4-9.7-9.4h-7.5v19.1h7.4c6.1-.1 9.8-3.7 9.8-9.7zm-12-5.3h2.3c2.8 0 4.3 1.9 4.3 5.4 0 3.5-1.5 5.4-4.2 5.4H80V94.6zm64 17.4c-17.6 0-32 14.4-32 32s14.4 32 32 32 32-14.4 32-32-14.4-32-32-32zm0 56c-13.2 0-24-10.8-24-24s10.8-24 24-24 24 10.8 24 24-10.8 24-24 24zm9.2-26.8l5.7 5.7-14.9 14.8-14.8-14.8 5.7-5.7 5.2 5.2V128h8v18.3l5.1-5.1zM145.8 16H64v56H16v56h48v48h56c-3-2.3-5.7-5-8-8H72v-40h36V72H72V24h68v32h28v56c3 2.3 5.7 5 8 8V50.5L145.8 16zM100 80v40H24V80h76zm48-32V30.6L163.2 48H148z" fill="rgba(0,0,0,1)"/></svg>
