<?xml version="1.0" encoding="UTF-8"?>
<svg xmlns="http://www.w3.org/2000/svg" viewBox="0 0 192 192"><path d="M31.5 90.1H37l5.4 16.9 5.4-16.9h5.1l-8 23.2h-5.5l-7.9-23.2zM57.8 106.1c1 2.4 2.5 3.4 5.1 3.4s4.1-1.1 4.1-2.8c0-1.6-.8-2.2-4.2-2.9-3.7-.8-4.8-1.2-5.9-1.9-1.8-1.1-2.6-2.7-2.6-5 0-4.4 3.1-7.1 8.2-7.1 4.2 0 7.2 1.6 8.9 4.8l-4.2 2c-1.1-2-2.4-2.7-4.7-2.7-2.1 0-3.3.9-3.3 2.5 0 1.5 1 2.1 4 2.7 3.1.6 4.8 1.2 6.1 2 1.8 1.2 2.7 2.9 2.7 5.3 0 4.7-3.3 7.3-9.1 7.3-4.9 0-7.8-1.7-9.6-5.5l4.5-2.1zM76.2 90.1h8.6c7.3 0 11.6 4.2 11.6 11.5 0 7.4-4.3 11.7-11.7 11.7h-8.4V90.1zm8.7 19c4 0 6.1-2.6 6.1-7.5 0-4.8-2.1-7.4-6.1-7.4h-3.5v14.9h3.5z" fill="rgba(0,0,0,1)"/><g><path d="M141.8 16H60v56H16v60h44v44h112V50.5L141.8 16zm2.2 14.6L159.2 48H144V30.6zM24 80h80v44H24V80zm44 88v-36h44V72H68V24h68v32h28v112H68z" fill="rgba(0,0,0,1)"/></g></svg>
