<?xml version="1.0" encoding="UTF-8"?>
<svg xmlns="http://www.w3.org/2000/svg" viewBox="0 0 192 192"><path d="M53.9 102.1c0 6.9-4.5 11.7-11 11.7-6.4 0-10.9-4.7-10.9-11.6 0-6.8 4.6-11.7 11.1-11.7 6.3.1 10.8 4.9 10.8 11.6zm-16.6.1c0 4.7 2.1 7.5 5.7 7.5s5.6-2.8 5.6-7.5-2.1-7.6-5.6-7.6c-3.6.1-5.7 2.8-5.7 7.6zM57.1 90.9h5.7l8.3 15.3V90.9h4.6v22.5h-5.5l-8.6-15.6v15.6H57V90.9zM80 90.9h15.8V95H85v5.1h8.3v3.7H85v5.6h11.3v4.1H80V90.9z" fill="rgba(0,0,0,1)"/><g><path d="M141.8 16H60v56H16v60h44v44h112V50.5L141.8 16zm2.2 14.6L159.2 48H144V30.6zM24 80h80v44H24V80zm44 88v-36h44V72H68V24h68v32h28v112H68z" fill="rgba(0,0,0,1)"/></g></svg>
