<?xml version="1.0" encoding="UTF-8"?>
<svg xmlns="http://www.w3.org/2000/svg" viewBox="0 0 192 192"><path d="M157 144c0-.9-.1-1.8-.3-2.7l3.1-1.8-4-6.9-3.2 1.8c-1.3-1.2-2.9-2.2-4.7-2.7V128h-8v3.6c-1.8.6-3.4 1.5-4.7 2.7l-3.2-1.8-4 6.9 3.1 1.8c-.2.9-.3 1.8-.3 2.7s.1 1.8.3 2.7l-3.1 1.8 4 6.9 3.2-1.8c1.3 1.2 2.9 2.2 4.7 2.7v3.6h8v-3.6c1.8-.6 3.4-1.5 4.7-2.7l3.2 1.8 4-6.9-3.1-1.8c.2-.8.3-1.7.3-2.6zm-13 5c-2.8 0-5-2.2-5-5s2.2-5 5-5 5 2.2 5 5-2.2 5-5 5z" fill="rgba(0,0,0,1)"/><path d="M144 176c-17.6 0-32-14.4-32-32s14.4-32 32-32 32 14.4 32 32-14.4 32-32 32zm0-56c-13.2 0-24 10.8-24 24s10.8 24 24 24 24-10.8 24-24-10.8-24-24-24zM56 72h64v8H56zM56 92h64v8H56zM56 112h40v8H56z" fill="rgba(0,0,0,1)"/><path d="M121.8 16H40v160h80c-3-2.3-5.7-5-8-8H48V24h68v32h28v48c2.7 0 5.4.3 8 .8V50.5L121.8 16zm2.2 32V30.6L139.2 48H124z" fill="rgba(0,0,0,1)"/></svg>
