<?xml version="1.0" encoding="UTF-8"?>
<svg xmlns="http://www.w3.org/2000/svg" viewBox="0 0 192 192"><path d="M38.7 94.4H32v-4.3h18.7v4.3H44v19.4h-5.3V94.4zM60.5 101.7l-7.4-11.5h6.3l4.4 7.6 4.4-7.6h5.7l-7.2 11.3 8 12.4h-6.3l-5.1-8.5-5.1 8.5h-5.7l8-12.2zM83 94.4h-6.7v-4.3H95v4.3h-6.7v19.4H83V94.4z" fill="rgba(0,0,0,1)"/><g><path d="M141.8 16H60v56H16v60h44v44h112V50.5L141.8 16zm2.2 14.6L159.2 48H144V30.6zM24 80h80v44H24V80zm44 88v-36h44V72H68V24h68v32h28v112H68z" fill="rgba(0,0,0,1)"/></g></svg>
