<?xml version="1.0" encoding="UTF-8"?>
<svg xmlns="http://www.w3.org/2000/svg" viewBox="0 0 192 192"><path d="M148 56h-32V20h8v28h24zM99.4 135.2c-19.6 0-35.6-16-35.6-35.6S79.8 64 99.4 64 135 80 135 99.6s-16 35.6-35.6 35.6zm0-63.2c-15.2 0-27.6 12.4-27.6 27.6 0 15.2 12.4 27.6 27.6 27.6 15.2 0 27.6-12.4 27.6-27.6C127 84.4 114.6 72 99.4 72z" fill="rgba(0,0,0,1)"/><path d="M164 176c-3.2 0-6.2-1.2-8.5-3.5l-43-43 5.7-5.7 43 43c1.5 1.5 4.1 1.5 5.7 0 .8-.8 1.2-1.8 1.2-2.8s-.4-2.1-1.2-2.8l-43-43 5.7-5.7 43 43c2.3 2.3 3.5 5.3 3.5 8.5s-1.2 6.2-3.5 8.5c-2.4 2.3-5.4 3.5-8.6 3.5z" fill="rgba(0,0,0,1)"/><path d="M152 50.5L121.8 16H40v160h107.7l-8-8H48V24h70.2L144 53.5v62.2l8 8z" fill="rgba(0,0,0,1)"/></svg>
