<?xml version="1.0" encoding="UTF-8"?>
<svg xmlns="http://www.w3.org/2000/svg" viewBox="0 0 192 192"><path d="M63.4 89.7l-9 24.6h5.2l1.6-4.7h10l1.6 4.7h5.8l-8.8-24.6h-6.4zm-.9 16l3.7-10.8 3.6 10.8h-7.3zm14.1-16H96v4.4h-6.9v20.1h-5.5V94.1h-6.9v-4.4zm-35.5 0H32v24.6h8.9c7.9 0 12.4-4.5 12.4-12.4.1-7.7-4.4-12.2-12.2-12.2zm.1 20.2h-3.7V94.1h3.7c4.2 0 6.5 2.8 6.5 7.9-.1 5.1-2.3 7.9-6.5 7.9zM124 168h.5l-.5.1v-.1zm44.3-40.2l3-3c5.3-5.6 5.2-14.4-.2-19.9-5.6-5.6-14.6-5.6-20.1 0l-41.7 41.7-6.7 26.8 21.5-5.4h.5l4.8-1.2 38.9-39zM157 110.3c1.1-1 2.6-1.5 4.1-1.5 1.7 0 3.2.6 4.4 1.8 1.2 1.2 1.8 2.7 1.8 4.4 0 1.5-.5 2.9-1.5 4.1l-2.3 2.3-8.8-8.8 2.3-2.3zm-43.5 52.2l2.9-11.7 32.5-32.5 8.8 8.8-32.5 32.5-11.7 2.9zm54.8-34.7L128.1 168h-3.6l4.8-1.2 39-39zm7.7 3.6V176h-44.6l8-8H168v-28.6l8-8zm-7.7-3.6l3-3c-.1.1-.1.2-.2.3l-2.8 2.7zM72 132h40V72H72V24h68v32h28v37.9c2.9.9 5.6 2.5 8 4.7V50.4L145.8 16H64v56H16v60h48v44h29.6l2-8H72v-36zm76-101.4L163.2 48H148V30.6zM24 124V80h80v44H24z" fill="rgba(0,0,0,1)"/></svg>
