<?xml version="1.0" encoding="UTF-8"?>
<svg xmlns="http://www.w3.org/2000/svg" viewBox="0 0 192 192"><path d="M32 90.1h10.1c5.4 0 8.5 2.9 8.5 7.7 0 4.6-3.1 7.3-8.3 7.3h-5v8.7H32V90.1zm9.7 11.1c2.4 0 3.7-1.2 3.7-3.5s-1.2-3.4-3.6-3.4h-4.5v6.9h4.4zM54.6 90.1h8.8c7.5 0 11.8 4.3 11.8 11.8 0 7.6-4.4 11.9-12 11.9h-8.6V90.1zm8.9 19.5c4 0 6.2-2.7 6.2-7.7 0-4.9-2.2-7.6-6.2-7.6H60v15.3h3.5zM79.7 90.1H96v4.3H85v6.3h8.5v4.1H85v9h-5.3V90.1z" fill="rgba(0,0,0,1)"/><path d="M141.8 16H60v56H16v60h44v44h112V50.5L141.8 16zm2.2 14.6L159.2 48H144V30.6zM24 80h80v44H24V80zm44 88v-36h44V72H68V24h68v32h28v112H68z" fill="rgba(0,0,0,1)"/></svg>
