<?xml version="1.0" encoding="UTF-8"?>
<svg xmlns="http://www.w3.org/2000/svg" viewBox="0 0 192 192"><path d="M41.3 101.7l-7.4-11.5h6.3l4.4 7.6 4.4-7.6h5.7l-7.2 11.3 8 12.4h-6.3l-5.1-8.5-5.1 8.5h-5.7l8-12.2zM58.6 90.2h5.3v19.4h10.4v4.3H58.6V90.2zM80.9 106.6c1 2.4 2.6 3.4 5.2 3.4s4.2-1.1 4.2-2.9c0-1.6-.9-2.2-4.3-3-3.7-.9-4.9-1.3-6-2-1.8-1.2-2.7-2.8-2.7-5.1 0-4.5 3.2-7.3 8.4-7.3 4.3 0 7.4 1.6 9.1 4.9l-4.3 2c-1.2-2-2.5-2.7-4.8-2.7-2.2 0-3.4.9-3.4 2.6 0 1.5 1 2.2 4.1 2.8 3.2.7 4.9 1.2 6.2 2 1.9 1.2 2.7 2.9 2.7 5.4 0 4.8-3.3 7.4-9.3 7.4-5 0-8-1.8-9.9-5.7l4.8-1.8z" fill="rgba(0,0,0,1)"/><g><path d="M141.8 16H60v56H16v60h44v44h112V50.5L141.8 16zm2.2 14.6L159.2 48H144V30.6zM24 80h80v44H24V80zm44 88v-36h44V72H68V24h68v32h28v112H68z" fill="rgba(0,0,0,1)"/></g></svg>
