<?xml version="1.0" encoding="UTF-8"?>
<svg xmlns="http://www.w3.org/2000/svg" viewBox="0 0 192 192"><path d="M148 56h-32V20h8v28h24zM56 72h64v8H56zM56 92h64v8H56zM56 112h40v8H56z" fill="rgba(0,0,0,1)"/><circle fill="none" cx="144" cy="144" r="32"/><path fill="none" d="M118.2 24H48v144h64c-5-6.7-8-15-8-24 0-22.1 17.9-40 40-40V53.5L118.2 24z"/><path d="M112 168H48V24h70.2L144 53.5V104c2.7 0 5.4.3 8 .8V50.5L121.8 16H40v160h80c-3-2.3-5.7-5-8-8z" fill="rgba(0,0,0,1)"/><g><path d="M140 157.7l-10.8-10.9 5.6-5.6 5.2 5.1 13.2-13.1 5.6 5.6z" fill="rgba(0,0,0,1)"/></g><g><path d="M144 176c-17.6 0-32-14.4-32-32s14.4-32 32-32 32 14.4 32 32-14.4 32-32 32zm0-56c-13.2 0-24 10.8-24 24s10.8 24 24 24 24-10.8 24-24-10.8-24-24-24z" fill="rgba(0,0,0,1)"/></g></svg>
