<?xml version="1.0" encoding="UTF-8"?>
<svg xmlns="http://www.w3.org/2000/svg" viewBox="0 0 192 192"><path d="M141.8 16H60v56H16v60h44v44h112V50.5L141.8 16zm2.2 14.6L159.2 48H144V30.6zM24 124V80h80v44H24zm140 44H68v-36h44V72H68V24h68v32h28v112z" fill="rgba(0,0,0,1)"/><path d="M48.2 100.5c-1.3-.8-2.8-1.3-6.3-1.9-2.4-.5-3.2-1-3.2-2.1s1-1.7 2.8-1.7c2 0 3.1.6 4.1 2.2l4.8-2.5c-1.9-3-4.8-4.5-9-4.5-5.3 0-8.5 2.7-8.5 7.1 0 2.6 1 4.4 3 5.5 1.3.7 2.6 1.1 5.9 1.7 2.3.4 3.2 1 3.2 2.1 0 1.2-1.2 2-3.3 2-2.3 0-3.7-.8-4.6-2.7l-5.2 2.5c1.9 3.3 5.1 4.9 9.9 4.9 5.8 0 9.1-2.6 9.1-7.4 0-2.4-.8-4-2.7-5.2zM63.2 105.7l-4.8-15.4h-6.7l7.7 22.5h6.9l7.6-22.5h-6.1zM86 104.6h4.1v.1c0 2.2-1.7 3.7-4.3 3.7-3.3 0-5-2.3-5-6.7s1.7-6.8 4.7-6.8c2 0 3.3.9 4.1 3.2l5.7-2.3c-.8-1.7-1.4-2.5-2.4-3.4-1.8-1.6-4.3-2.4-7.2-2.4-6.7 0-11.3 4.8-11.3 11.7 0 6.9 4.3 11.5 10.6 11.5 3 0 5.1-1 6.8-3.3l1.1 3h3.2v-12.6H86v4.3z" fill="rgba(0,0,0,1)"/></svg>
