<?xml version="1.0" encoding="UTF-8"?>
<svg xmlns="http://www.w3.org/2000/svg" viewBox="0 0 192 192"><path d="M141.8 16H60v56H16v60h44v44h112V50.5L141.8 16zm2.2 14.6L159.2 48H144V30.6zM24 124V80h80v44H24zm140 44H68v-36h44V72H68V24h68v32h28v112z" fill="rgba(0,0,0,1)"/><path d="M38.2 90.9H32v22.6h15.5v-5h-9.3zM60.5 90.5c-3.2 0-5.7.9-7.8 2.8-2.3 2.1-3.6 5.3-3.6 8.9 0 6.9 4.6 11.6 11.2 11.6 6.7 0 11.2-4.7 11.2-11.7 0-6.8-4.5-11.6-11-11.6zm-.2 18.3c-3.1 0-4.7-2.3-4.7-6.6 0-4.4 1.6-6.7 4.8-6.7 3 0 4.7 2.4 4.7 6.7 0 4.3-1.7 6.6-4.8 6.6zM85.8 105.2h4.1v.1c0 2.2-1.7 3.8-4.4 3.8-3.3 0-5-2.3-5-6.7s1.7-6.8 4.7-6.8c2.1 0 3.3.9 4.1 3.2l5.7-2.3c-.8-1.7-1.4-2.5-2.4-3.4-1.8-1.6-4.3-2.4-7.2-2.4-6.7 0-11.3 4.8-11.3 11.7S78.4 114 84.8 114c3 0 5.2-1 6.8-3.4l1.1 3H96v-12.7H85.8v4.3z" fill="rgba(0,0,0,1)"/></svg>
