<?xml version="1.0" encoding="UTF-8"?>
<svg xmlns="http://www.w3.org/2000/svg" viewBox="0 0 192 192"><path d="M121.8 16H40v160h112V50.5L121.8 16zm2.2 14.6L139.2 48H124V30.6zM48 168V24h68v32h28v112H48z" fill="rgba(0,0,0,1)"/><path d="M79.7 84l-10.5 29.1h7.4l1.6-4.9h11.1l1.6 4.9h8.5L89.1 84h-9.4zm.3 18.5l3.8-11.4 3.7 11.4H80zM121 99.9c0-2.7-.4-4.3-1.5-5.7-1.5-2-4.1-2.9-7.9-2.9-4.2 0-7.3.9-10.3 3l3.1 5c1.8-1.3 4-2 6.2-2 2.1 0 2.9.8 2.9 2.7v.2c-8.8.2-12.4 2.4-12.4 7.3 0 3.8 2.5 6.1 6.7 6.1 2.7 0 4.7-1.1 6.1-3.1.1 1.1.4 2.1.6 2.6h7.3v-.2c-.4-1.1-.6-2.2-.6-3.7v-9.3zm-7.6 5.7c0 1.6-1.3 2.7-3 2.7-1.3 0-2-.7-2-1.7 0-1.1.7-1.7 2-2 .8-.2 1.3-.2 3-.3v1.3z" fill="rgba(0,0,0,1)"/></svg>
