<?xml version="1.0" encoding="UTF-8"?>
<svg xmlns="http://www.w3.org/2000/svg" viewBox="0 0 192 192"><path d="M33.2 90.2h10.1c5.4 0 8.5 2.8 8.5 7.7 0 4.6-3.1 7.3-8.3 7.3h-5v8.7h-5.3V90.2zm9.7 11c2.4 0 3.7-1.2 3.7-3.5s-1.2-3.4-3.6-3.4h-4.5v6.9h4.4zM55.3 90.2h10.1c5.4 0 8.5 2.8 8.5 7.7 0 4.6-3.1 7.3-8.3 7.3h-5v8.7h-5.3V90.2zm9.7 11c2.4 0 3.7-1.2 3.7-3.5s-1.2-3.4-3.6-3.4h-4.5v6.9H65zM82.6 94.4h-6.7v-4.3h18.7v4.3h-6.7v19.4h-5.3V94.4z" fill="rgba(0,0,0,1)"/><g><path d="M141.8 16H60v56H16v60h44v44h112V50.5L141.8 16zm2.2 14.6L159.2 48H144V30.6zM24 80h80v44H24V80zm44 88v-36h44V72H68V24h68v32h28v112H68z" fill="rgba(0,0,0,1)"/></g></svg>
