<?xml version="1.0" encoding="UTF-8"?>
<svg xmlns="http://www.w3.org/2000/svg" viewBox="0 0 192 192"><path d="M118.7 128H73.3c-9.5 0-17.3-7.7-17.3-17.3 0-7.9 5.4-14.7 12.9-16.7 2-7.4 8.8-12.9 16.7-12.9 1.3 0 2.6.1 3.9.4 4.1-5 10.4-8 17-8 12.1 0 22 9.9 22 22v.9c4.7 3.2 7.6 8.5 7.6 14.3-.1 9.6-7.8 17.3-17.4 17.3zM85.6 89.2c-4.9 0-8.9 3.8-9.2 8.6l-.2 3.5-3.5.2c-4.8.3-8.6 4.4-8.6 9.2 0 5.1 4.2 9.3 9.3 9.3h45.5c5.1 0 9.3-4.2 9.3-9.3 0-3.6-2.2-7-5.5-8.5l-2.8-1.3.5-3.1c.1-.8.2-1.6.2-2.4 0-7.7-6.3-14-14-14-5 0-9.4 2.5-12 6.8l-1.8 3-3.4-1.2c-1.2-.6-2.5-.8-3.8-.8z" fill="rgba(0,0,0,1)"/><path d="M121.8 16H40v160h112V50.5L121.8 16zm2.2 14.6L139.2 48H124V30.6zM48 168V24h68v32h28v112H48z" fill="rgba(0,0,0,1)"/></svg>
