<?xml version="1.0" encoding="UTF-8"?>
<svg xmlns="http://www.w3.org/2000/svg" viewBox="0 0 192 192"><path d="M160 64c0 5.8-4.1 11.9-11.8 12-1 .1-3 0-5.4-1.3-1.8-.9-3.4-1.9-5-2.8-3.3-2.1-6.2-3.8-9.8-3.8-13.6 0-26.5 8.4-33.5 21.8-5 9.5-5.3 18.9-.9 27.8 4 8.2 10.8 13.7 12.8 15.1l7 5.2-8.5 1.9c-.4.1-9.6 2.2-20.2 0-10.1-2-23.2-8.4-28.5-26.8l7.7-2.2c5.5 18.9 20.9 22.1 30.7 22.1-2.8-3-5.9-7-8.2-11.8-5.4-11.2-5.1-23.3 1-35C95.8 70 111.4 60 128 60c5.8 0 10.2 2.7 14 5 1.5.9 2.9 1.8 4.4 2.5l.2.1c.4.2.7.3.9.3l.5-.1v.1c3.1 0 4-2.5 4-4 0-.3-.1-3.2-4.8-4.1l-1.9-.4-.9-1.7C133.9 37.8 118.7 28 98 28c-5.8 0-12.3 1.4-16.1 3.5l-2.6 1.4-2.1-2.1c-3-3-7.7-6.9-13.2-6.9-3.4 0-6.6 1.3-10.1 4 2.7 2.8 5.4 6.8 6 11.4l.3 2.1-1.5 1.6C46.6 53.8 40 71.3 40 92c0 35.9 20.9 60 52 60 10.8 0 18.2-3.5 18.2-3.6l4.6-2.2 1.1 5c2.6 12 12.7 15.5 17.6 16.5 4.7-13-6.1-19.4-7.4-20.1l-3.6-1.9 1.9-3.5c.6-1.1 5.6-11.3-6.6-18.6l4.1-6.9c14 8.4 12.6 20.2 10.8 25.9 5.3 4.1 14.9 14.5 6.7 31.2l-1.2 2.4-2.6-.1c-7.2-.3-21.1-4.7-26.4-18.7-3.8 1.2-9.9 2.7-17.4 2.7-17.8 0-33-6.8-43.9-19.5C37.6 128.1 32 111.4 32 92c0-22 6.9-40.9 19.5-53.3-1.3-3.4-4.6-6.4-6.1-7.6L42 28.3l3.1-3.1c4-4 10.2-9.2 18.9-9.2 7.1 0 12.7 3.7 16.7 7.2C85.6 21.2 92 20 98 20c23.1 0 40.8 11 52.7 32.6 6.4 2 9.3 7 9.3 11.4zm-40-16c0-2.2-1.8-4-4-4s-4 1.8-4 4 1.8 4 4 4 4-1.8 4-4zM56.4 62.2l-9.6 19.2 2.9 2c5.2 3.4 9.8 4.6 13.8 4.6 3.9 0 7.1-1.1 9.6-2.5 9.3-5.1 15-17.2 14.9-25.5h-8c.1 5.2-4 14.7-10.7 18.4-3.7 2-7.7 2-12 0l6.3-12.6-7.2-3.6z" fill="rgba(0,0,0,1)"/></svg>
