<?xml version="1.0" encoding="UTF-8"?>
<svg xmlns="http://www.w3.org/2000/svg" viewBox="0 0 192 192"><circle cx="56" cy="52" r="4" fill="rgba(0,0,0,1)"/><path d="M75.8 32.2l5.7-5.7c-14-14-36.9-14-50.9 0l5.7 5.7c10.8-10.9 28.6-10.9 39.5 0z" fill="rgba(0,0,0,1)"/><path d="M70.1 37.9C66.4 34.1 61.3 32 56 32s-10.4 2.1-14.1 5.9l5.7 5.7c2.3-2.3 5.3-3.5 8.5-3.5s6.2 1.2 8.5 3.5l5.5-5.7z" fill="rgba(0,0,0,1)"/><path fill="none" d="M60 167.6l.4.4H132v-16H60v15.6z"/><path fill="none" d="M60 167.6l.4.4H132v-16H60v15.6z"/><path d="M132.1 32H88l-7.4 8H132c10.8 0 19.9 9 19.9 19.5V140c0 3-1 4-4 4H44c-3.3 0-4-.7-4-4V48l-8-8v100c0 7.7 4.3 12 12 12h8v16c0 3.9 4.1 8 8 8h72c1.6 0 3.4-.6 4.8-1.6 2.1-1.5 3.2-3.7 3.2-6.3V152h8c7.4 0 12-4.6 12-12V59.5c0-15.1-12.5-27.5-27.9-27.5zm-.1 136H60.4l-.4-.4V152h72v16z" fill="rgba(0,0,0,1)"/></svg>
