<?xml version="1.0" encoding="UTF-8"?>
<svg xmlns="http://www.w3.org/2000/svg" viewBox="0 0 192 192"><path d="M128 140h32v8h-32z" fill="rgba(0,0,0,1)"/><path d="M144 112c-17.6 0-32 14.4-32 32s14.4 32 32 32 32-14.4 32-32-14.4-32-32-32zm0 56c-13.2 0-24-10.8-24-24s10.8-24 24-24 24 10.8 24 24-10.8 24-24 24z" fill="rgba(0,0,0,1)"/><path d="M96 168c-26.5 0-48-21.5-48-48 0-39.5 37.5-79.9 48-90.4 9.1 9.1 38.4 40.6 46.1 74.5h1.9c2.2 0 4.3.2 6.4.5-3.6-18.1-13.3-37.5-28.7-57.7-11.8-15.4-22.5-25.4-22.9-25.8L96 18.6l-2.7 2.5C91.1 23.1 40 70.8 40 120c0 30.9 25.1 56 56 56 6.8 0 13.5-1.2 19.8-3.6-2-2-3.8-4.2-5.4-6.6-4.6 1.4-9.4 2.2-14.4 2.2z" fill="rgba(0,0,0,1)"/></svg>
