<?xml version="1.0" encoding="UTF-8"?>
<svg xmlns="http://www.w3.org/2000/svg" viewBox="0 0 192 192"><path d="M92 72h52V36H92v36zm8-28h36v20h-36V44zM132 80l-32 36h20l-12 28 32-36h-20z" fill="rgba(0,0,0,1)"/><path d="M139.9 16H96c-11 0-20 9-20 20v116H59.3c-4 0-7.3-3.2-7.3-7.2V79.5c6.9-1.8 12-8 12-15.5h-4V49.8h-8V64h-8V49.8h-8V64h-4c0 7.5 5.1 13.7 12 15.5v65.3c0 8.4 6.9 15.2 15.3 15.2H76v16h84V36.1C160 25 151 16 139.9 16zM152 168H84V36c0-6.6 5.4-12 12-12h43.9c6.7 0 12.1 5.4 12.1 12.1V168z" fill="rgba(0,0,0,1)"/></svg>
