<?xml version="1.0" encoding="UTF-8"?>
<svg xmlns="http://www.w3.org/2000/svg" viewBox="0 0 192 192"><path d="M151.9 100L124 128h16l-8.3 24 28.3-32h-16.8z" fill="rgba(0,0,0,1)"/><path d="M176 176V60c0-11-9-20-20-20h-32c-11 0-20 9-20 20v96H92c-3 0-4-1-4-4V95.5c5-1.4 8-5.5 8-11.5h-8v-8h-8v8h-8c0 6 3 10.1 8 11.5V152c0 7.4 4.6 12 12 12h12v12h72zM112 60c0-6.6 5.4-12 12-12h32c6.7 0 12 5.3 12 12v108h-56V60z" fill="rgba(0,0,0,1)"/><g><path d="M40.2 88v4c0 7.5-1.3 10.8-2.1 12h-9.7c-.6-1.4-1.5-4.9-1.5-10.7V72.8c0-4.8 3.6-10.4 5-12.2l5.2-6.5H25.9c-1.8 0-1.9-1.8-1.9-1.9 0-1 .5-1.6 1.5-1.9h15l.9-2.7c0-.1 3.5-10.4 8.2-16.4l.1-.2c3.9-5.6 18-7.3 25.9-7.1h.2c5.3-.2 21.5.8 25.9 7.1l.1.2c1.6 2.1 3.1 4.7 4.3 7.2 2.1-1.7 4.4-3.1 6.9-4.2-1.4-2.7-3-5.5-4.8-7.8-7.5-10.7-29.4-10.5-32.5-10.4-3.1-.1-25-.3-32.6 10.4-3.9 5-6.9 12.1-8.4 16H24.4c-3 .4-8.6 3-8.6 9.8 0 3.7 2.2 7.6 6 9.1-1.6 3.1-3.1 7.2-3.1 11.4v20.5c0 7 1.1 18.7 8.4 18.7h13.4l.8-.4c1.4-.7 5.8-3.7 6.6-15.6h20.8c-1.7-2.5-2.9-5.2-3.7-8H40.2z" fill="rgba(0,0,0,1)"/></g></svg>
