<?xml version="1.0" encoding="UTF-8"?>
<svg xmlns="http://www.w3.org/2000/svg" viewBox="0 0 192 192"><circle cx="96" cy="40" r="4" fill="rgba(0,0,0,1)"/><path d="M116 64V36c0-11-9-20-20-20-8.2 0-15.2 4.9-18.3 12H68c-11 0-20 9-20 20v4h28v12H16v4c0 9.8 7 17.9 16.3 19.7 1.5 8.1 7.9 14.5 16 16C50.1 113 58.2 120 68 120h8v14.3l-11.9 11.9c-2.4-1.4-5.2-2.2-8.1-2.2v8c2.1 0 4.2.8 5.7 2.3 1.5 1.5 2.3 3.5 2.3 5.7h8c0-2.9-.8-5.7-2.2-8.1l7.9-7.9c2.1 4.9 6.1 8.7 11.1 10.7L71.7 176h48.6l-17.1-21.4c5-1.9 9-5.8 11.1-10.7l7.9 7.9c-1.4 2.4-2.2 5.2-2.2 8.1h8c0-2.1.8-4.2 2.3-5.7 1.5-1.5 3.5-2.3 5.7-2.3v-8c-2.9 0-5.7.8-8.1 2.2L116 134.3V120h8c9.8 0 17.9-7 19.7-16.3 8.1-1.5 14.5-7.9 16-16C169 85.9 176 77.8 176 68v-4h-60zM56.7 44c1.7-4.7 6.1-8 11.3-8h8v8H56.7zM68 112c-5.2 0-9.7-3.3-11.3-8H68v-8H52c-5.2 0-9.7-3.3-11.3-8H60v-8H36c-5.2 0-9.7-3.3-11.3-8H76v40h-8zm35.7 56H88.3l7.7-9.6 7.7 9.6zm4.3-32c0 6.6-5.4 12-12 12s-12-5.4-12-12V69.7l4-4 8 8 8-8 4 4V136zm0-77.7l-4-4-8 8-8-8-4 4V36c0-6.6 5.4-12 12-12s12 5.4 12 12v22.3zM156 80h-24v8h19.3c-1.7 4.7-6.1 8-11.3 8h-16v8h11.3c-1.7 4.7-6.1 8-11.3 8h-8V72h51.3c-1.6 4.7-6.1 8-11.3 8z" fill="rgba(0,0,0,1)"/></svg>
