<?xml version="1.0" encoding="UTF-8"?>
<svg xmlns="http://www.w3.org/2000/svg" viewBox="0 0 192 192"><path d="M41.7 161.7l-11.3-11.3 120-120 11.3 11.3-120 120zM96 32c-31.2 0-48 28.4-48 40h8c0-6.6 12.4-32 40-32 9.5 0 18.2 3.1 25.1 8.3l5.7-5.7C118.4 36 107.7 32 96 32zm40 46.7c-.5 12.6-7.3 23.9-18.1 29.7-8.6 4.6-14.7 12.2-17.6 21.8l-.1.2c-.3 1.1-1.3 5.4-1.6 7.3C97.2 146 89.4 152 80 152c-4.7 0-9.1-1.8-12.6-4.8l-5.7 5.7c4.9 4.4 11.4 7 18.3 7 13.4 0 24.6-8.9 26.5-21.1.2-1.5 1.1-5.4 1.4-6.1l.1-.3c2.9-9.5 9.1-14.5 13.8-17.1 13.8-7.4 22.4-22 22.4-38.2 0-2.1-.2-4.1-.5-6.1l-7.7 7.7zm-40-28c-16 0-28 10.9-28 25.3h8c0-9.9 8.6-17.3 20-17.3 4.2 0 8.1 1.2 11.4 3.3l5.8-5.8c-4.8-3.4-10.8-5.5-17.2-5.5z" fill="rgba(0,0,0,1)"/></svg>
