<?xml version="1.0" encoding="UTF-8"?>
<svg xmlns="http://www.w3.org/2000/svg" viewBox="0 0 192 192"><path d="M102.8 98.4c-8.8 4.4-11.8 11.7-14 17-.5 1.2-.9 2.2-1.4 3.1-3.5 7-5.2 9.4-11.4 9.4v8c11.7 0 15.3-7.4 18.6-13.9.6-1.1 1.1-2.4 1.6-3.7 2-4.8 4-9.8 10.2-12.9C117.3 99.9 124 89.1 124 77c0-14.6-12.6-26.5-28-26.5-16 0-28 10.9-28 25.3h8c0-9.9 8.6-17.3 20-17.3 11 0 20 8.3 20 18.5 0 9.2-5.1 17.3-13.2 21.4z" fill="rgba(0,0,0,1)"/><path d="M96 32c-31.2 0-48 28.4-48 40h8c0-6.6 12.4-32 40-32 22.1 0 40 16.7 40 37.2 0 13.2-6.9 25.2-18.1 31.2-8.6 4.6-14.7 12.2-17.6 21.8l-.1.2c-.3 1.1-1.3 5.4-1.6 7.3C97.2 146 89.4 152 80 152c-10.6 0-20-9.3-20-20h-8c0 15.2 12.8 28 28 28 13.4 0 24.6-8.9 26.5-21.1.2-1.5 1.1-5.4 1.4-6.1l.1-.3c2.9-9.5 9.1-14.5 13.8-17.1 13.8-7.4 22.4-22 22.4-38.2C144 52.3 122.5 32 96 32z" fill="rgba(0,0,0,1)"/></svg>
