<?xml version="1.0" encoding="UTF-8"?>
<svg xmlns="http://www.w3.org/2000/svg" viewBox="0 0 192 192"><path d="M38.8 158.8l-5.7-5.7 120-120 5.7 5.7-120 120zM96 50.7c-16 0-28 10.9-28 25.3h8c0-9.9 8.6-17.3 20-17.3 5.7 0 10.9 2.2 14.5 5.8l5.7-5.7c-5.1-5-12.3-8.1-20.2-8.1zM96 32c-31.2 0-48 28.4-48 40h8c0-6.6 12.4-32 40-32 11 0 21 4.1 28.2 10.8l5.7-5.7C121.1 37 109.2 32 96 32zm39.8 41.2c.2 1.3.2 2.7.2 4 0 13.2-6.9 25.2-18.1 31.2-8.6 4.6-14.7 12.2-17.6 21.8l-.1.2c-.3 1.1-1.3 5.4-1.6 7.3C97.2 146 89.4 152 80 152c-6.1 0-11.7-3-15.4-7.6l-5.7 5.7c5.2 6 12.8 9.9 21.1 9.9 13.4 0 24.6-8.9 26.5-21.1.2-1.5 1.1-5.4 1.4-6.1l.1-.3c2.9-9.5 9.1-14.5 13.8-17.1 13.8-7.4 22.4-22 22.4-38.2 0-3.7-.5-7.4-1.4-10.8l-7 6.8z" fill="rgba(0,0,0,1)"/></svg>
