<?xml version="1.0" encoding="UTF-8"?>
<svg xmlns="http://www.w3.org/2000/svg" viewBox="0 0 192 192"><path d="M168 96c0 39.7-32.3 72-72 72-21.8 0-41-9.9-54.7-28H64v-8H28v36h8v-21.8C51.2 165.5 72.2 176 96 176c44.1 0 80-35.9 80-80h-8zM96 24c21.8 0 41 9.9 54.7 28H128v8h36V24h-8v21.8C140.8 26.5 119.8 16 96 16c-44.1 0-80 35.9-80 80h8c0-39.7 32.3-72 72-72z" fill="rgba(0,0,0,1)"/><path d="M96 136h8v-18.3l8.9-8.9c2.4 1 5.4 1.7 8.4 1.7 3.4 0 6.8-1 9.6-3.7 6.9-6.9 5.3-21.6 5.1-23.3l-.4-3.1-3.1-.4c-1.7-.2-16.4-1.7-23.3 5.1-5.2 5.2-4 12.8-2 18l-3.3 3.3c-.3-3.1-1.7-6.1-4-8.3l-2.7-2.7c3.7-6.5 6.5-17.4-2.4-26.2-11.9-11.9-34.3-9.3-35.3-9.2l-3.1.4-.4 3.1c-.1 1-2.8 23.4 9.1 35.3 4.4 4.4 9.2 5.9 13.8 5.9 4.8 0 9.3-1.7 12.6-3.6l2.7 2.6c1.1 1.1 1.8 2.6 1.8 4.2V136zm18.8-45.2c2.5-2.5 8.6-3.2 13.4-3.1.1 4.6-.5 10.9-3.1 13.4-2.5 2.5-7.6 1-10.2-.2-1.1-2.5-2.6-7.6-.1-10.1zm-44 2.4c-6.8-6.8-7.3-19.5-7.1-25.4 6-.2 18.6.2 25.4 7.1 3.3 3.3 4.3 7.2 3 11.9-.3 1-.6 1.9-1 2.8L78.8 77.2l-5.6 5.7 12.4 12.4c-3.8 1.6-9.7 2.9-14.8-2.1z" fill="rgba(0,0,0,1)"/></svg>
