<?xml version="1.0" encoding="UTF-8"?>
<svg xmlns="http://www.w3.org/2000/svg" viewBox="0 0 192 192"><path d="M42 16l9 14 9 14H24l9-14zM86 44l-9-14-9-14h36l-9 14zM176.3 164L156 138.6v-29.1c0-16.8-11.9-29.5-27.6-29.5-16.2 0-28.4 12.5-28.4 29v29.6L79.7 164h32.8c1.8 6.9 8 12 15.4 12s13.7-5.1 15.4-12h33zM108 141.4V109c0-12 8.8-21 20.4-21 11.4 0 19.6 9 19.6 21.5v31.9l11.7 14.6H96.3l11.7-14.6zm20 26.6c-2.9 0-5.5-1.6-6.9-4h13.8c-1.4 2.4-4 4-6.9 4z" fill="rgba(0,0,0,1)"/><path fill="none" d="M24 168h36V60H24z"/><path d="M68 168V60h36v21.1c2.4-2.1 5.1-4 8-5.4V52H16v124h94.1c-2.1-2.3-3.7-5-4.7-8H68zm-8-24v24H24V60h36v84z" fill="rgba(0,0,0,1)"/></svg>
