<?xml version="1.0" encoding="UTF-8"?>
<svg xmlns="http://www.w3.org/2000/svg" viewBox="0 0 192 192"><path d="M68 176H20V48h96v40h-8V56H28v112h40v8zM64.1 40l-8-12-8-12-8 12-8 12h32zM88 40l8-12 8-12H72.1l8 12L88 40zm12 136v-28h13.9l-9.9-24.8V108c0-6.5-5.5-12-12-12h-8c-6.5 0-12 5.5-12 12v15.3L62.1 148H76v28h8v-36H73.9l6.1-15.2V108c0-2.1 1.9-4 4-4h8c2.1 0 4 1.9 4 4v16.7l6.1 15.3H92v36h8zm0-100c0-6.6-5.4-12-12-12s-12 5.4-12 12 5.4 12 12 12 12-5.4 12-12zm-8 0c0 2.2-1.8 4-4 4s-4-1.8-4-4 1.8-4 4-4 4 1.8 4 4zm44 100v-43.9h-8V108c0-1.8 2.2-4 4-4h16c1.8 0 4.1 2.2 4.1 4v24h-8v44h7.9v-36h8v-32c0-6.2-5.7-11.9-12-11.9h-16.1c-6.3.1-11.9 5.8-11.9 12v32h8v36h8zm16-100c0-6.6-5.4-12-12-12s-12 5.4-12 12 5.4 12 12 12 12-5.4 12-12zm-8 0c0 2.2-1.8 4-4 4s-4-1.8-4-4 1.8-4 4-4 4 1.8 4 4z" fill="rgba(0,0,0,1)"/></svg>
