<?xml version="1.0" encoding="UTF-8"?>
<svg xmlns="http://www.w3.org/2000/svg" viewBox="0 0 192 192"><path d="M42 16l9 14 9 14H24l9-14zM86 44l-9-14-9-14h36l-9 14zM128 148.5c-11.3 0-20.5-9.2-20.5-20.5s9.2-20.5 20.5-20.5 20.5 9.2 20.5 20.5-9.2 20.5-20.5 20.5zm0-33c-6.9 0-12.5 5.6-12.5 12.5s5.6 12.5 12.5 12.5 12.5-5.6 12.5-12.5-5.6-12.5-12.5-12.5z" fill="rgba(0,0,0,1)"/><path d="M128 176c-2.5 0-5.1-.2-7.6-.6l-2.6-.4-2.7-10.5c-1.3-.5-2.6-1-3.8-1.6l-9.3 5.5-2.1-1.5c-4.1-3-7.7-6.6-10.7-10.7l-1.5-2.1 5.5-9.3c-.6-1.3-1.1-2.5-1.6-3.9L81 138.2l-.4-2.6c-.4-2.5-.6-5.1-.6-7.6s.2-5.1.6-7.6l.4-2.6 10.5-2.7c.5-1.3 1-2.6 1.6-3.8l-5.5-9.3 1.5-2.1c3-4.1 6.6-7.7 10.7-10.7l2.1-1.5 9.3 5.5c1.3-.6 2.5-1.1 3.9-1.6l2.7-10.4 2.6-.4c5-.8 10.1-.8 15.1 0l2.6.4 2.7 10.5c1.3.5 2.6 1 3.8 1.6l9.3-5.5 2.1 1.5c4.1 3 7.7 6.6 10.7 10.7l1.5 2.1-5.5 9.3c.6 1.3 1.1 2.5 1.6 3.9l10.4 2.7.4 2.6c.4 2.5.6 5.1.6 7.6s-.2 5.1-.6 7.6l-.4 2.6-10.5 2.7c-.5 1.3-1 2.6-1.6 3.8l5.5 9.3-1.5 2.1c-3 4.1-6.6 7.7-10.7 10.7l-2.1 1.5-9.3-5.5c-1.3.6-2.5 1.1-3.9 1.6l-2.7 10.4-2.6.4c-2.2.4-4.8.6-7.3.6zm-3.8-8.2c2.5.2 5 .2 7.5 0l2.5-9.6 2.2-.6c2.2-.6 4.4-1.5 6.4-2.7l2-1.1 8.6 5c1.9-1.6 3.7-3.4 5.3-5.3l-5-8.6 1.1-2c1.1-2 2-4.2 2.7-6.4l.6-2.2 9.6-2.5c.1-1.3.2-2.5.2-3.8 0-1.2-.1-2.5-.2-3.8l-9.6-2.5-.6-2.2c-.6-2.2-1.5-4.4-2.7-6.4l-1.1-2 5-8.6c-1.6-1.9-3.4-3.7-5.3-5.3l-8.6 5-2-1.1c-2-1.1-4.2-2-6.4-2.7l-2.2-.6-2.5-9.6c-2.5-.2-5-.2-7.5 0l-2.5 9.6-2.2.6c-2.2.6-4.4 1.5-6.4 2.7l-2 1.1-8.6-5c-1.9 1.6-3.7 3.4-5.3 5.3l5 8.6-1.1 2c-1.1 2-2 4.2-2.7 6.4l-.6 2.2-9.6 2.5c-.1 1.3-.2 2.5-.2 3.8 0 1.2.1 2.5.2 3.8l9.6 2.5.6 2.2c.6 2.2 1.5 4.4 2.7 6.4l1.1 2-5 8.6c1.6 1.9 3.4 3.7 5.3 5.3l8.6-5 2 1.1c2 1.1 4.2 2 6.4 2.7l2.2.6 2.5 9.6z" fill="rgba(0,0,0,1)"/><path fill="none" d="M24 60h36v108H24z"/><path d="M112 71.7V52H16v124h82.9c-3.8-2.5-7.1-5.1-10.1-8H68V60h36v19.5l5.2 3 2.8-10.8zM60 168H24V60h36v108z" fill="rgba(0,0,0,1)"/></svg>
