<?xml version="1.0" encoding="UTF-8"?>
<svg xmlns="http://www.w3.org/2000/svg" viewBox="0 0 192 192"><path d="M42 16l9 14 9 14H24l9-14zM86 44l-9-14-9-14h36l-9 14zM167.1 108.4C161.4 91.5 144.9 80 126 80c-18.9 0-35.4 11.5-41.1 28.4-5.1 1.3-8.9 5.7-8.9 11v17.2c0 6.3 5.4 11.4 12 11.4s12-5.1 12-11.4v-17.2c0-4.5-2.8-8.4-6.8-10.3C98.3 96.5 111.2 88 126 88c14.8 0 27.7 8.5 32.8 21.1-4 1.8-6.8 5.7-6.8 10.3v17.2c0 4.9 3.3 9.2 8 10.7v9.8c0 1.4-1.7 2.9-4.2 2.9h-4.3c-1.3-4.7-5-8-9.4-8h-12c-5.6 0-10 5.3-10 12s4.4 12 10 12h12c4.4 0 8.1-3.3 9.4-8h4.3c6.7 0 12.2-4.9 12.2-10.9v-9.8c4.7-1.6 8-5.8 8-10.7v-17.2c0-5.3-3.8-9.7-8.9-11zM92 136.6c0 1.9-1.8 3.4-4 3.4s-4-1.5-4-3.4v-17.2c0-1.9 1.8-3.4 4-3.4s4 1.5 4 3.4v17.2zm50 31.4h-12c-.7 0-2-1.5-2-4s1.3-4 2-4h12c.7 0 2 1.5 2 4s-1.3 4-2 4zm26-31.4c0 1.9-1.8 3.4-4 3.4s-4-1.5-4-3.4v-17.2c0-1.9 1.8-3.4 4-3.4s4 1.5 4 3.4v17.2z" fill="rgba(0,0,0,1)"/><path fill="none" d="M24 60h36v108H24z"/><path d="M112 73.9V52H16v124h96v-39.4c0 6.9-3.1 13.1-8 17.4v14H68V60h36v16.8c2.6-1.2 5.3-2.2 8-2.9zM60 168H24V60h36v108z" fill="rgba(0,0,0,1)"/></svg>
