<?xml version="1.0" encoding="UTF-8"?>
<svg xmlns="http://www.w3.org/2000/svg" viewBox="0 0 192 192"><path d="M125.7 75.3c.4-.6.9-1 1.6-1 .7 0 1.1.3 1.5.9.5-.6 1-.9 1.7-.9 1.1 0 1.7.8 1.7 2.1V80h-1.6v-3.4c0-.7-.3-1-.7-1-.5 0-.9.4-.9 1.1V80h-1.6v-3.4c0-.6-.3-1-.7-1-.5 0-.9.4-.9 1V80H124v-5.5h1.6v.8zm10.8 4.8c-.1-.1-.1-.4-.1-.7-.4.5-.9.8-1.6.8-1 0-1.7-.6-1.7-1.6 0-1.3 1-1.9 3.2-1.9v-.1c0-.6-.3-.9-.9-.9-.5 0-1 .2-1.6.5l-.7-1c.7-.6 1.5-.8 2.5-.8.9 0 1.5.2 1.9.7.3.4.4.8.4 1.5v2.5c0 .4.1.6.1.9v.1h-1.5zm-.2-2.3c-1.2 0-1.6.3-1.6.8 0 .3.2.6.7.6.6 0 1-.3 1-.9v-.5zm4.4-.5l-1.8-2.7h1.8l1 1.6 1-1.6h1.7l-1.8 2.6 2 2.9h-1.9l-1.1-1.8-1.1 1.8h-1.7l1.9-2.8zm-16.6 13.4h1.6v-3.9c-.4.1-.9.2-1.6.2v-1.2c1.1-.1 1.6-.5 1.8-1.4h1.4v6.3h1.4V92H124v-1.3zm5.9.1c1.2-.8 1.6-1 2.2-1.6.9-.8 1.3-1.6 1.3-2.4 0-.7-.3-1-.9-1-.6 0-.9.3-1.1 1.1l-1.5-.4c.4-1.4 1.2-2.1 2.7-2.1 1.6 0 2.6.9 2.6 2.4 0 1-.4 1.9-1.4 2.7-.4.4-.9.7-1.7 1.2h3.2V92H130v-1.2zm11.8-2.5c0 1.1-.3 2-.7 2.8-.5.7-1.2 1.1-2.1 1.1-1.8 0-2.8-1.5-2.8-3.9 0-1 .3-2 .7-2.7.5-.7 1.2-1.1 2.1-1.1 1.7-.1 2.8 1.4 2.8 3.8zm-4 0c0 1.7.4 2.6 1.1 2.6.7 0 1.1-.9 1.1-2.6 0-1.6-.4-2.6-1.1-2.6-.6 0-1.1 1-1.1 2.6zm10.3 0c0 1.1-.3 2-.7 2.8-.5.7-1.2 1.1-2.1 1.1-1.8 0-2.8-1.5-2.8-3.9 0-1 .3-2 .7-2.7.5-.7 1.2-1.1 2.1-1.1 1.7-.1 2.8 1.4 2.8 3.8zm-3.9 0c0 1.7.4 2.6 1.1 2.6.7 0 1.1-.9 1.1-2.6 0-1.6-.4-2.6-1.1-2.6-.7 0-1.1 1-1.1 2.6zm10.3 1.5l-.6.7v1.6h-1.6v-7.9h1.6v4.6l1.7-2.1h1.7l-1.8 2.2 2 3.3h-1.8l-1.2-2.4zm8.4-2.1c.1.3.1.4.1.7 0 1-.9 1.7-2.3 1.7-.4 0-.7 0-1-.1-.1.1-.2.2-.2.4 0 .3.2.4.7.4h1.4c1.3 0 2 .5 2 1.5 0 1.2-1.1 1.9-3 1.9-1.6 0-2.6-.5-2.6-1.4 0-.5.3-.8.9-1-.4-.3-.6-.6-.6-1 0-.5.3-.8.8-1.1-.5-.4-.7-.8-.7-1.3 0-1.1 1-1.9 2.3-1.9.5 0 .9.1 1.4.4l1.5-.3v1.2h-.7zm-2.7 4.3h-.4c-.2.2-.3.3-.3.5 0 .4.4.6 1.2.6 1 0 1.5-.2 1.5-.7 0-.3-.2-.4-.8-.4h-1.2zm-.3-3.7c0 .5.3.9.9.9.5 0 .8-.3.8-.9 0-.5-.3-.9-.8-.9-.6 0-.9.3-.9.9zm-34.2-13c.4-.6.9-1 1.6-1 .7 0 1.1.3 1.5.9.5-.6 1-.9 1.7-.9 1.1 0 1.7.8 1.7 2.1V80h-1.6v-3.4c0-.7-.3-1-.7-1-.5 0-.9.4-.9 1.1V80h-1.6v-3.4c0-.6-.3-1-.7-1-.5 0-.9.4-.9 1V80H124v-5.5h1.6v.8zm10.8 4.8c-.1-.1-.1-.4-.1-.7-.4.5-.9.8-1.6.8-1 0-1.7-.6-1.7-1.6 0-1.3 1-1.9 3.2-1.9v-.1c0-.6-.3-.9-.9-.9-.5 0-1 .2-1.6.5l-.7-1c.7-.6 1.5-.8 2.5-.8.9 0 1.5.2 1.9.7.3.4.4.8.4 1.5v2.5c0 .4.1.6.1.9v.1h-1.5zm-.2-2.3c-1.2 0-1.6.3-1.6.8 0 .3.2.6.7.6.6 0 1-.3 1-.9v-.5zm4.4-.5l-1.8-2.7h1.8l1 1.6 1-1.6h1.7l-1.8 2.6 2 2.9h-1.9l-1.1-1.8-1.1 1.8h-1.7l1.9-2.8zm-16.6 13.4h1.6v-3.9c-.4.1-.9.2-1.6.2v-1.2c1.1-.1 1.6-.5 1.8-1.4h1.4v6.3h1.4V92H124v-1.3zm5.9.1c1.2-.8 1.6-1 2.2-1.6.9-.8 1.3-1.6 1.3-2.4 0-.7-.3-1-.9-1-.6 0-.9.3-1.1 1.1l-1.5-.4c.4-1.4 1.2-2.1 2.7-2.1 1.6 0 2.6.9 2.6 2.4 0 1-.4 1.9-1.4 2.7-.4.4-.9.7-1.7 1.2h3.2V92H130v-1.2zm11.8-2.5c0 1.1-.3 2-.7 2.8-.5.7-1.2 1.1-2.1 1.1-1.8 0-2.8-1.5-2.8-3.9 0-1 .3-2 .7-2.7.5-.7 1.2-1.1 2.1-1.1 1.7-.1 2.8 1.4 2.8 3.8zm-4 0c0 1.7.4 2.6 1.1 2.6.7 0 1.1-.9 1.1-2.6 0-1.6-.4-2.6-1.1-2.6-.6 0-1.1 1-1.1 2.6zm10.3 0c0 1.1-.3 2-.7 2.8-.5.7-1.2 1.1-2.1 1.1-1.8 0-2.8-1.5-2.8-3.9 0-1 .3-2 .7-2.7.5-.7 1.2-1.1 2.1-1.1 1.7-.1 2.8 1.4 2.8 3.8zm-3.9 0c0 1.7.4 2.6 1.1 2.6.7 0 1.1-.9 1.1-2.6 0-1.6-.4-2.6-1.1-2.6-.7 0-1.1 1-1.1 2.6zm10.3 1.5l-.6.7v1.6h-1.6v-7.9h1.6v4.6l1.7-2.1h1.7l-1.8 2.2 2 3.3h-1.8l-1.2-2.4zm8.4-2.1c.1.3.1.4.1.7 0 1-.9 1.7-2.3 1.7-.4 0-.7 0-1-.1-.1.1-.2.2-.2.4 0 .3.2.4.7.4h1.4c1.3 0 2 .5 2 1.5 0 1.2-1.1 1.9-3 1.9-1.6 0-2.6-.5-2.6-1.4 0-.5.3-.8.9-1-.4-.3-.6-.6-.6-1 0-.5.3-.8.8-1.1-.5-.4-.7-.8-.7-1.3 0-1.1 1-1.9 2.3-1.9.5 0 .9.1 1.4.4l1.5-.3v1.2h-.7zm-2.7 4.3h-.4c-.2.2-.3.3-.3.5 0 .4.4.6 1.2.6 1 0 1.5-.2 1.5-.7 0-.3-.2-.4-.8-.4h-1.2zm-.3-3.7c0 .5.3.9.9.9.5 0 .8-.3.8-.9 0-.5-.3-.9-.8-.9-.6 0-.9.3-.9.9zM116 176H20V48h96v44h-8V56H28v112h80v-4h8v12zM64.1 40l-8-12-8-12-8 12-8 12h32zM88 40l8-12 8-12H72.1l8 12L88 40zm68 60h-16v-4h-8v4h-32v-4h-8v4H76v56h16v4h8v-4h32v4h8v-4h16v-56zm-72 48v-40h8v40h-8zm16 0v-40h32v40h-32zm48 0h-8v-40h8v40z" fill="rgba(0,0,0,1)"/></svg>
