<?xml version="1.0" encoding="UTF-8"?>
<svg xmlns="http://www.w3.org/2000/svg" viewBox="0 0 192 192"><path d="M64 56h32v57.3c2.5-1.3 5.2-2.3 8-2.9V48H16v116h49.6c-.9-2.6-1.5-5.3-1.6-8V56zM24 156V56h32v100H24zM56 40l-8-12-8-12-8 12-8 12h16zM80 40l8-12 8-12H64l8 12z" fill="rgba(0,0,0,1)"/><path d="M165.8 136.9c0-.6.1-1.1.1-1.7 0-15-12.6-27.3-28-27.3-8.8 0-16.8 3.9-22.1 10.5-1.8-.5-3.7-.7-5.7-.7-10.2 0-18.9 7-21.1 16.4-9.7 2.1-17 10.6-17 20.6 0 11.7 9.7 21.1 21.7 21.1h60.6c12 0 21.7-9.5 21.7-21.1 0-7.2-3.9-13.9-10.2-17.8zM154.3 168H93.7c-7.5 0-13.7-5.9-13.7-13.1 0-6.9 5.6-12.6 12.7-13.1l3.5-.2.2-3.5c.5-6.9 6.5-12.2 13.6-12.2 2 0 3.8.4 5.6 1.2l3.2 1.4 1.8-2.9c3.7-5.9 10.1-9.4 17.2-9.4 11 0 20 8.6 20 19.3 0 1.1-.1 2.2-.3 3.3l-.5 3.1 2.9 1.3c4.9 2.1 8.1 6.8 8.1 12 0 6.9-6.1 12.8-13.7 12.8z" fill="rgba(0,0,0,1)"/></svg>
