<?xml version="1.0" encoding="UTF-8"?>
<svg xmlns="http://www.w3.org/2000/svg" viewBox="0 0 192 192"><path d="M160 48V32h-52v-4c0-6.6-5.4-12-12-12s-12 5.4-12 12v4H32v16c-4.4 0-8 3.6-8 8v16c0 4.4 3.6 8 8 8v72c0 18.2 3.2 21.4 4.3 22.4 1.1 1 2.4 1.6 3.8 1.6H56c7.1 0 7.9-9.6 8-20h64c.1 10.4.9 20 8 20h16c1.4 0 2.7-.6 3.7-1.6 1.1-1 4.3-4.2 4.3-22.4V80c4.4 0 8-3.6 8-8V56c0-4.4-3.6-8-8-8zM92 28c0-2.2 1.8-4 4-4s4 1.8 4 4v4h-8v-4zM40 40h112v52H40V40zm-8 16v14.5V56zm118.4 112h-13.3c-.5-1.5-1.1-5.5-1.1-16v-4H56v4c0 10.5-.6 14.5-1.1 16H41.6c-.6-1.6-1.6-5.9-1.6-16v-52h112v52c0 10.1-1 14.4-1.6 16zM64 116c-6.6 0-12 5.4-12 12s5.4 12 12 12 12-5.4 12-12-5.4-12-12-12zm0 16c-2.2 0-4-1.8-4-4s1.8-4 4-4 4 1.8 4 4-1.8 4-4 4zm64-16c-6.6 0-12 5.4-12 12s5.4 12 12 12 12-5.4 12-12-5.4-12-12-12zm0 16c-2.2 0-4-1.8-4-4s1.8-4 4-4 4 1.8 4 4-1.8 4-4 4z" fill="rgba(0,0,0,1)"/></svg>
