<?xml version="1.0" encoding="UTF-8"?>
<svg xmlns="http://www.w3.org/2000/svg" viewBox="0 0 192 192"><path d="M96 176c-44.1 0-80-35.9-80-80s35.9-80 80-80 80 35.9 80 80-35.9 80-80 80zm0-152c-39.7 0-72 32.3-72 72s32.3 72 72 72 72-32.3 72-72-32.3-72-72-72z" fill="rgba(0,0,0,1)"/><circle cx="72" cy="80" r="8" fill="rgba(0,0,0,1)"/><circle cx="120" cy="80" r="8" fill="rgba(0,0,0,1)"/><path d="M133.2 134.8C133 134.7 118 120 96 120c-22.1 0-37 14.7-37.2 14.8l-5.7-5.7c.8-.6 17.5-17.1 42.9-17.1s42.1 16.5 42.8 17.2l-5.6 5.6zM49.509 64.869L69.5 48.877l4.998 6.247-19.991 15.992zM117.507 55.123l4.998-6.247 19.991 15.992-4.997 6.248z" fill="rgba(0,0,0,1)"/></svg>
