<?xml version="1.0" encoding="UTF-8"?>
<svg xmlns="http://www.w3.org/2000/svg" viewBox="0 0 192 192"><path d="M96 16c-44.1 0-80 35.9-80 80s35.9 80 80 80 80-35.9 80-80-35.9-80-80-80zm0 152c-39.7 0-72-32.3-72-72s32.3-72 72-72 72 32.3 72 72-32.3 72-72 72zM72 72c4.4 0 8 3.6 8 8s-3.6 8-8 8-8-3.6-8-8 3.6-8 8-8zm48 0c4.4 0 8 3.6 8 8s-3.6 8-8 8-8-3.6-8-8 3.6-8 8-8zm-24 56c-22 0-37-14.7-37.2-14.8l-5.7 5.7c.8.6 17.5 17.1 42.9 17.1s42.1-16.5 42.8-17.2l-5.7-5.7c-.1.2-15 14.9-37.1 14.9z" fill="rgba(0,0,0,1)"/></svg>
