<?xml version="1.0" encoding="UTF-8"?>
<svg xmlns="http://www.w3.org/2000/svg" viewBox="0 0 192 192"><path d="M176 168h-16v-8h7.4c-3.7-25.8-25.1-46-51.4-47.8v7.8h-8v-7.8c-26.3 1.9-47.7 22-51.4 47.8H64v8H48c0-35.3 28.7-64 64-64s64 28.7 64 64zM36 124V88H24V64h16V28c0-6.6 5.4-12 12-12s12 5.4 12 12v36h24V28c0-6.6 5.4-12 12-12s12 5.4 12 12v36h16v24h-12v8.1c-1.3-.1-2.6-.1-3.8-.1-1.4 0-2.8 0-4.2.1V80h12v-8H32v8h12v44c0 4.4 1.4 8.4 3.8 11.7-1.3 2.6-2.5 5.4-3.5 8.2-5.1-5.1-8.3-12.1-8.3-19.9zm60-60h8V28c0-2.2-1.8-4-4-4s-4 1.8-4 4v36zm-48 0h8V28c0-2.2-1.8-4-4-4s-4 1.8-4 4v36zm48 24H56v8h40v-8zm43 50.6L122.4 158c1.7 2.9 2.2 6.6.9 10.1-1.8 4.9-6.4 8-11.3 8-1.3 0-2.7-.2-4-.7-6.2-2.2-9.5-9.1-7.3-15.3 2.2-6.2 9.1-9.5 15.3-7.3.1 0 .2.1.2.1l16.6-19.4c1.4-1.7 4-1.9 5.6-.4 1.8 1.3 2 3.8.6 5.5zm-25.7 21.6c-.4-.2-.9-.2-1.3-.2-1.6 0-3.2 1-3.8 2.7-.7 2.1.3 4.4 2.4 5.1 2.1.7 4.4-.3 5.1-2.4.8-2.1-.3-4.4-2.4-5.2z" fill="rgba(0,0,0,1)"/></svg>
