<?xml version="1.0" encoding="UTF-8"?>
<svg xmlns="http://www.w3.org/2000/svg" viewBox="0 0 192 192"><path d="M132 96h-8v-8h-8v8h-8v-8h-8v8h-8v-8h-8v8h-8v-8h-8v8h-8v-8h-8v8h-2.5l-5.1 10.2 7.2 3.6 2.9-5.8H140V88h-8z" fill="rgba(0,0,0,1)"/><path d="M168 88v12h-8V84.3c0-4-2-7.8-5.3-10l-6.4-4.3c-2-1.3-4.3-2-6.7-2H69.2l-12-8H40c-6.6 0-12 5.4-12 12v5.1l-12 4v37.8l12.8 4.3 4.3 12.8H148c6.6 0 12-5.4 12-12v-16h8v12h8V88h-8zm-16 36c0 2.2-1.8 4-4 4H38.9l-3.7-11.2-11.2-3.7V86.9l12-4V72c0-2.2 1.8-4 4-4h14.8l12 8h74.8c.8 0 1.6.2 2.2.7l6.4 4.3c1.1.7 1.8 2 1.8 3.3V124z" fill="rgba(0,0,0,1)"/></svg>
