<?xml version="1.0" encoding="UTF-8"?>
<svg xmlns="http://www.w3.org/2000/svg" viewBox="0 0 192 192"><path d="M100 124c-8.8 0-16 7.2-16 16s7.2 16 16 16 16-7.2 16-16-7.2-16-16-16zm0 24c-4.4 0-8-3.6-8-8s3.6-8 8-8 8 3.6 8 8-3.6 8-8 8z" fill="rgba(0,0,0,1)"/><path d="M164 92h-7.4l5.8-40.6c.5-3.8-.7-7.6-3.5-10.3-2.8-2.7-6.5-3.9-10.4-3.3L135.7 40H56v8H28c-6.6 0-12 5.4-12 12v44c0 6.6 5.4 12 12 12h28v16c0 5.2 3.3 9.7 8 11.3V164c0 6.6 5.4 12 12 12h52c6.6 0 12-5.4 12-12h12c6.6 0 12-5.4 12-12v-4h12v-44c0-6.6-5.4-12-12-12zm4 12v8h-28v-12h24c2.2 0 4 1.8 4 4zm-18.1-58.3c1.3-.2 2.5.2 3.5 1.1.9.9 1.3 2.2 1.2 3.4l-6 41.7H140V47.4l9.9-1.7zM24 104V60c0-2.2 1.8-4 4-4h8v52h-8c-2.2 0-4-1.8-4-4zm20 4V56h12v52H44zm84 60H76c-2.2 0-4-1.8-4-4v-28h-4c-2.2 0-4-1.8-4-4V48h68v116c0 2.2-1.8 4-4 4zm28-28v12c0 2.2-1.8 4-4 4h-12v-36h28v20h-12z" fill="rgba(0,0,0,1)"/><path d="M80 60h36v8H80zM80 76h36v8H80zM80 92h36v8H80z" fill="rgba(0,0,0,1)"/></svg>
