<?xml version="1.0" encoding="UTF-8"?>
<svg xmlns="http://www.w3.org/2000/svg" viewBox="0 0 192 192"><path d="M152 176H40V16h112v160zm-104-8h96V24H48v144z" fill="rgba(0,0,0,1)"/><path d="M96 32h40v32H96zM56.1 32L56 64h35.9l.1-32H56.1zm23.6 7.5c.8-.8 2-.8 2.8 0s.8 2 0 2.8-2 .8-2.8 0-.8-2 0-2.8zM62 48c0-1.1.9-2 2-2s2 .9 2 2-.9 2-2 2-2-.9-2-2zm6.3 8.5c-.8.8-2 .8-2.8 0-.8-.8-.8-2 0-2.8.8-.8 2-.8 2.8 0 .8.7.8 2 0 2.8zm0-14.2c-.8.8-2 .8-2.8 0s-.8-2 0-2.8 2-.8 2.8 0 .8 2.1 0 2.8zM74 60c-1.1 0-2-.9-2-2s.9-2 2-2 2 .9 2 2-.9 2-2 2zm0-20c-1.1 0-2-.9-2-2s.9-2 2-2 2 .9 2 2-.9 2-2 2zm8.5 16.5c-.8.8-2 .8-2.8 0-.8-.8-.8-2 0-2.8.8-.8 2-.8 2.8 0 .8.7.8 2 0 2.8zM84 50c-1.1 0-2-.9-2-2s.9-2 2-2 2 .9 2 2-.9 2-2 2zM56 72h20v8H56zM56 92h32v8H56zM56 112h44v8H56zM56 132h56v8H56zM56 152h68v8H56zM124 72h12v8h-12z" fill="rgba(0,0,0,1)"/></svg>
