<?xml version="1.0" encoding="UTF-8"?>
<svg xmlns="http://www.w3.org/2000/svg" viewBox="0 0 192 192"><path d="M63 82.3c.3 0 .4-.3.4-.5-.3-.4-.7-1.1-1.4-.9-.4.1-.6.5-.6.8.1.8 1.1.5 1.6.6zM56.5 82.7c-1.9.1-2.1 2.1-2.4 3.4.8-1.1 3.2-2 2.4-3.4zM49.1 102.3c1.9-.5 1-1.7 2.5-1.5s2.5.5 2.9-.3.7-1.5.9-2.4-.3-2.6-.3-2.6c.8-.7 1.9-1.1 1.5-2.3-.3-1.1-1.3-2.8-3.4-2-.9.3-3 .9-2.2 1.5s.4 1.5-.4 1.2c-.8-.3-2.1-.7-2.1.5.1 1.2-1.5 1.3-.4 2s2.1.7 1.1 1.6c-1.1.9-2.3 1.2-2.1 2.3.1 1 .1 2.5 2 2z" fill="rgba(0,0,0,1)"/><path d="M56.6 85.8c.6 1.1 0 .9-.7 2.2-.7 1.2.8 1.2.8 2.1s1.5 1 1.3 1.6c-.1.6-.5 1.7.4 1.8.8 0 1.1.4 1.7 1.3l.1.2c.6 1.1 1.2 1.7.5 2.6-.8.9-2.3-.9-3.2 0s1.4 1.1 1.4 2.2-1.9 1-2.2 1.9 2 .7 3.3 1.1-.3 1.1-1.2 1.1c-.9-.1-1.3.5-1.7 1.2-.4.8-1.9 1-1.8 1.5.1.5 2.6-.2 3.2-.2.6 0 .5-.8 1-1.1s1.2.2 2.2 0 3-.5 4.2-.2c1.2.2 3.6-.3 3.5-1.1-.1-.8-.9-.6-1.2-1.2-.3-.6 2.2-1.6 1.3-3.5-.4-1-1.6 0-2.3-.8-.7-.8 0-2.4-1.1-3.4-.4-.4-.8-.9-1.2-1.5-.6-.9-1-2-1.6-2.8-.9-1.4-2.1.3-2.9-.8-.7-1 4.6-2.5 3.9-4.4-.4-1-3.2.5-4.1-.3-.8-.9 2.3-1.6 2-2.4-.5-1.1-3.3-.1-4.1.7-.8.9-2.1 1.2-1.5 2.2z" fill="rgba(0,0,0,1)"/><path d="M96 16c-44.1 0-80 35.9-80 80s35.9 80 80 80 80-35.9 80-80-35.9-80-80-80zm0 152c-39.7 0-72-32.3-72-72s32.3-72 72-72c19.4 0 37 7.7 49.9 20.2-.9 2 0 4.8-1.9 5.8-2 1-2-1-5-1s-6-3-8-4l-6-3c-2-1-5 0-9 0s-4 1-7 2-3 2-3 3-4 4-5 5-5 5-7 8-5 4-7 6-5 2-7 6-1 9-1 9c.6 2 2 1.9 3.2 1.9 1.1.1 2.3-1.2 3-1.7.6-.6 1.8-1.2 2.7-1.3.9-.1 1 1 1.1 2.3s.2 3.6.2 4.4c-.1.9.6 2.9.4 3.6s-.2 2.1.3 2.9c.6.7 1.2.6 1.9.2.7-.4 1.1-1.2 1.6-1.4.5-.2 1.2-.1 1.9-.4.8-.3 1.3-1.3 1.4-2s1.9-5 2.3-5.4 1.4-.4 2-.7c.6-.3 1-1.4 1.3-2.7.3-1.3.4-2.4.2-3-.2-.6-.8-.8-1.2-1-.4-.2-.9-1.1-.9-1.6s0-1.7 1.3-3.8 6.3-5.4 7-6.2c.7-.8.2-2.1.4-3.1.1-1 .9-1.6 1.7-2.2s2.8-.5 3.5.1 1.1 1.7-.7 4.9c-1.8 3.3-2.6 6.7-2.7 8.6-.1 1.8.7 2.4 1 2.9s.2 1.1 0 1.6-1.1 1-1.7 1.5-2.5.3-3.4.6c-1 .3-1.2.7-1.3 1.7-.1 1 1 1.6 1.5 2.7s.6 2.7.1 2.9c-.5.2-.8-.4-1.2-1-.4-.6-1.1-.8-1.6-.6s-.9.8-1.3 2.3c-.5 1.5 1 4.5 1 5.4 0 .8-.1.9-1.6 1.7-1.5.8-2.2-.5-2.6-.8s-1.1.6-1.9 1.3c-.7.8-4 2.4-4.6 2.1s-1.2-1.3-1.7-1.2c-.5.2-1.6 1-2.5 1s-.9-1-1.1-1.6.6-.8.4-1.5-.7-2.1-.7-2.5.8-.8.9-1.2c.1-.3-.8-.6-.9-.8-.1-.2-.2-.7.1-2 .2-1.2-.4-1.4-.6-1.3-.2.2-.3 1.1-.6 1.5-.3.5-.9.4-1.5.8s-.7 1.5-1.2 2.4.2 2.1.7 3.1c.4 1.1.7 2.9.9 3.5.2.6.2.4-.4.6s-.7-.3-1.2-.3-1.3.2-2.6.7-1.6 1.2-2.3 1.7c-.7.5-.6 1.5-.9 2.8-.4 1.3-3.2 1.7-4 1.8-.8.1-.7.7-.8 1.5-.1.8-.5 1.2-.9 1.3-.4.2-.9.6-1.4 1s-1 .6-1.3.6-.6-.3-1.4-1.2c-.7-.9-1 .5-.6 1.3s-.4 1-1 1.2-1-.1-1.5-.5-1.4-.5-2.5-.5c-1.1-.1-.6.7-1 1.7s.3 1 1.4 1.1c1.1.1 1.6.3 2.1 1.3.6 1 .3 2 .8 2.7.5.8 1.2 1.7 1.1 2.3-.1.6-.9 4.9-1.2 5.7-.3.8-1.3 1.1-2 1s-3.1-.8-4.6-1.2-5-2.1-5.6-2c-.6 0-.9.8-1.4.9s-.9-.2-1.4.1-.2 1-.1 2 .1 3.7-.6 5.4c-.7 1.7-2.5 4.7-2.5 5.5s1 1 1.2 1.3c.2.2 0 .6-.5 1.3-.5.8-1 2.1-.8 2.4.2.3.6 0 1-.3.4-.2.5-.4 1.6-.3s2.1.6 2.6 1.4c.6.8.2 2.3 1.1 2.7.9.4 2.2-.6 2.6-.6.4 0 1.2-1 2.2-.9 1 .2 1.9 1.3 2.9 1.1 1-.1 1-1.4 1.6-1.7.5-.2 1-.1 1.5-.3s.8-1.2.9-1.7c.2-.5 1.6-1 1.7-1.4s-.7-1-.7-1.7c0-.8.2-1.2.4-2s1-1.4 2.2-2.3c1.2-.9 3.1-1.3 3.9-1.5.8-.1.6-.9.7-1.6s-1.1-2.1-.8-2.9c.3-.8.8-.4 1.9-.3s3.1 2 3.4 1.9c.3-.1.4-.4.6-.8s.9-1.1 1.7-1.5 3.7-1.5 5.3-1.3c1.6.3 2.7 3.6 3.3 4.3.6.7 1.1.9 1.9 1.5s.7 1.4 1.2 2c.4.6 2.3.7 3 1s1 1.4 1.2 1.7c.2.2 1 .6 1.5 1 .5.5 1 .6 1.5 1.5.6.8.9 1.5.8 2.4s-1 1.4-.9 2.1c.2.7.9.4 1.2.2.3-.2 1.1-2.1 1.5-2.6s-.1-.6-.6-1.7-.3-2 .2-2.6 1.9.9 2.7 1.3c.8.5.6 0 .9-.4s-.5-1.6-1.1-2.2c-.6-.6-1.3-.4-2.5-.7-1.1-.4-1.9-1.3-2-1.4-.1-.1.1-1.4-.1-1.6-.2-.2-.7.6-1.3.7-.6.1-1.5-.7-2.3-1.1-.8-.4-1.6-3.2-1.8-4-.3-.8-1.8-.9-2-1.2-.2-.2-.5-.9-.6-1.9s.1-1.6.5-2.2 1.4-.6 1.8-.2c.5.4.3.9.3 1.8s.1 1.2.7 1.3c.6.1.3-.6.4-1.1s.2-1 .6-.7.4 1.4.3 2 .7.8 1.3 1.5 1.3 1.4 2.2 1.5c.8.1 1.7.2 2.9.9s3.2 2.5 3.8 3.5-.2 2.8 0 3.8 2.2 1.5 2.6 2.2.3 1.8.6 2.2c.3.3 2.4-.1 2.8 0s.4-.1.7.6c.3.7-1.1.7-1.6.7s-.3.6 0 1.2.6 1.8 1.3 3c.7 1.2 2.6-.1 3-.6s-.7-1.1-.9-2.1c-.2-1 .5-.3 1.2-.5.7-.1 1-1.4.9-2.3-.2-.9-2.8-1.7-3.1-2-.3-.3.3-1.1.7-1.6s-1-1.4-.8-2.5 1.3-.5 1.7-.9c.5-.4 1.5-.8 1.5-.8s2.4 1.5 3.4-.5-1-3-1-3 1-3 1-4 1-3 3-3 6 3 6 3 5 1 5 0 3 0 8 2c4.1 1.6 12.9 4.6 15.9 5.6-12.9 21.3-36 35.5-62.3 35.5z" fill="rgba(0,0,0,1)"/></svg>
