<?xml version="1.0" encoding="UTF-8"?>
<svg xmlns="http://www.w3.org/2000/svg" viewBox="0 0 192 192"><path d="M120 136H28c-6.6 0-12 5.4-12 12s5.4 12 12 12h92c6.6 0 12-5.4 12-12s-5.4-12-12-12zm0 16H28c-2.2 0-4-1.8-4-4s1.8-4 4-4h92c2.2 0 4 1.8 4 4s-1.8 4-4 4zM172.1 102.4l3.2-51.5c.2-3.8-1.1-7.7-3.8-10.5-2.6-2.8-6.4-4.4-10.2-4.4h-4.9c-.4-.1-.9-.1-1.3.1l-48.7 10.8C102.4 45 97.6 44 92 44H70.3L64 50.3V68H38.8L24 77.9V128h100V80c0-4.2-.5-8.4-1.5-12.4l28.2-6.3-2.4 38.7h-3.1l-10.7 32H156c8.2 0 16.2-5.9 19.1-14.1 2-5.8.9-11.4-3-15.5zM116 120H32V82.1l9.2-6.1H72V53.7l1.7-1.7H84v36h32v32zM92 80V52c21.7 0 24 19.6 24 28H92zm27.6-20c-1.2-2.5-2.8-4.7-4.6-6.8l36.7-8.2-.5 7.9-31.6 7.1zm40.2-16h1.6c1.7 0 3.2.7 4.4 1.9a6.1 6.1 0 0 1 1.6 4.5l-3.1 49.6h-8l3.5-56zm7.8 71.3c-1.5 4.3-6.2 8.7-11.6 8.7h-10.5l5.3-16h15.6c2.2 2.4 1.9 5.2 1.2 7.3z" fill="rgba(0,0,0,1)"/></svg>
