<?xml version="1.0" encoding="UTF-8"?>
<svg xmlns="http://www.w3.org/2000/svg" viewBox="0 0 192 192"><path d="M132 32v8h14.3l-21.1 21.2 5.6 5.6L152 45.7V60h8V32zM61.2 125.2L40 146.3V132h-8v28h28v-8H45.7l21.1-21.2zM152 146.3l-21.2-21.1-5.6 5.6 21.1 21.2H132v8h28v-28h-8zM40 45.7l21.2 21.1 5.6-5.6L45.7 40H60v-8H32v28h8zM81.2 53.2l5.6 5.6 5.2-5.1V76h8V53.7l5.2 5.1 5.6-5.6L96 38.3zM100 138.3V116h-8v22.3l-5.2-5.1-5.6 5.6L96 153.7l14.8-14.9-5.6-5.6zM133.2 105.2l5.6 5.6 15.2-15-15.2-14.7-5.6 5.8 5.4 5.1H116v8h22.4zM58.8 86.9l-5.6-5.8L38 95.8l15.2 15 5.6-5.6-5.2-5.2H76v-8H53.4z" fill="rgba(0,0,0,1)"/></svg>
