<?xml version="1.0" encoding="UTF-8"?>
<svg xmlns="http://www.w3.org/2000/svg" viewBox="0 0 192 192"><path d="M174.8 22.8l-152 152-5.7-5.7 152-152 5.7 5.7zm-4.7 95.9l2.2 1.8-1 2.6c-3.2 8.9-8 17.2-14.2 24.5l-1.8 2.1-2.6-1c-18.9-7-35.7-18.9-48.7-34.4-2.4 1.1-5.1 1.7-8 1.7-.9 0-1.9-.1-2.8-.2l22.2-22.2.5.1c19.8 3.4 38.6 12.1 54.2 25zm-7.4 4.4c-13.9-10.9-30.2-18.3-47.6-21.4-.9 3-2.5 5.8-4.6 8 11.4 13.5 25.9 24 42.3 30.5 4.1-5.2 7.4-11 9.9-17.1zM31.6 143.4l5.7-5.7c-3.2-4.6-5.9-9.5-8-14.6 12.7-10 27.5-17 43.2-20.5l3.8-3.8 1.3-1.3 21.3-21.3c-1-.1-2-.2-2.9-.2-1.6 0-3.1.2-4.6.6C87.2 64.9 85 52.6 85 40c0-5.4.7-10.7 1.6-15.4 6.4-.8 12.7-.8 19.1 0 .9 5.7 1.4 10.6 1.4 15.3 0 11.4-1.9 22.7-5.5 33.5l11.3-11.3c1.5-7.3 2.2-14.7 2.2-22.2 0-6-.6-12.2-2-19.6l-.5-2.7-2.7-.5c-9.1-1.6-18.2-1.6-27.3 0l-2.7.5-.5 2.7C78.1 26 77 32.8 77 40c0 13.7 2.4 27.2 7.1 40-4.3 3.2-7.3 8.1-7.9 13.7-19.9 3.4-38.6 12.1-54.2 25l-2.2 1.8 1 2.6c2.6 7.3 6.2 14.1 10.8 20.3z" fill="rgba(0,0,0,1)"/></svg>
