<?xml version="1.0" encoding="UTF-8"?>
<svg xmlns="http://www.w3.org/2000/svg" viewBox="0 0 192 192"><path d="M29.3 123.1c10.6-8.3 22.6-14.5 35.4-18.4l10.8-10.8c-19.6 3.5-38.1 12-53.6 24.8l-2.2 1.8 1 2.6c2.2 6 5 11.7 8.5 16.9l5.8-5.8c-2.2-3.4-4.1-7.2-5.7-11.1zM91.4 76.6C87.2 64.9 85 52.5 85 40c0-5.4.7-10.7 1.6-15.4 6.4-.8 12.7-.8 19.1 0 .9 5.7 1.4 10.6 1.4 15.3 0 8.6-1.1 17.2-3.2 25.6L114 55.4c.7-5.1 1.1-10.3 1.1-15.4 0-6-.6-12.2-2-19.6l-.5-2.7-2.7-.5c-4.6-.8-9.2-1.2-13.8-1.2-4.4 0-9 .4-13.5 1.2l-2.7.5-.5 2.7C78.1 26 77 32.8 77 40c0 13.7 2.4 27.2 7.1 40-4.2 3.1-7.1 7.8-7.9 13.2l16.9-16.9c-.5 0-1.1.1-1.7.3zM120.1 94.6l-21.2 21.2c1.8-.3 3.5-.7 5.1-1.4 12.9 15.4 29.7 27.4 48.7 34.5l2.6 1 1.8-2.1c6.2-7.3 10.9-15.5 14.2-24.5l1-2.6-2.2-1.8c-14.5-12.2-31.8-20.5-50-24.3zm32.7 45.7c-16.4-6.6-30.9-17.1-42.3-30.5 2.1-2.2 3.7-5 4.6-8 17.3 3.1 33.7 10.4 47.6 21.3-2.5 6.1-5.8 11.9-9.9 17.2z" fill="rgba(0,0,0,1)"/><g><path d="M18.36 162.326L162.324 18.36l11.313 11.314L29.673 173.64z" fill="rgba(0,0,0,1)"/></g></svg>
