<?xml version="1.0" encoding="UTF-8"?>
<svg xmlns="http://www.w3.org/2000/svg" viewBox="0 0 192 192"><path d="M148 128h-8v12h-12v8h12v12h8v-12h12v-8h-12z" fill="rgba(0,0,0,1)"/><path d="M144 112c-17.6 0-32 14.4-32 32s14.4 32 32 32 32-14.4 32-32-14.4-32-32-32zm0 56c-13.2 0-24-10.8-24-24s10.8-24 24-24 24 10.8 24 24-10.8 24-24 24zM110.5 109.7c2.1-2.2 3.7-5 4.6-8 5.6 1 11 2.4 16.4 4.3 3.9-1.3 8.1-2 12.5-2 1.3 0 2.5.1 3.8.2-10.1-5-20.8-8.6-31.9-10.5-.7-5.7-3.7-10.6-8.1-13.8 4.8-12.8 7.2-26.2 7.2-39.9 0-6-.6-12.2-2-19.6l-.5-2.7-2.7-.5c-9.1-1.6-18.2-1.6-27.3 0l-2.7.5-.5 2.7C78.1 26 77 32.8 77 40c0 13.7 2.4 27.2 7.1 40-4.3 3.2-7.3 8.1-7.9 13.7-19.9 3.4-38.6 12.1-54.2 25l-2.2 1.8 1 2.6c3.2 8.8 7.9 16.9 13.9 24.2l1.8 2.2 2.7-1c18.7-7.1 35.5-19 48.5-34.4 2.6 1.2 5.4 1.9 8.4 1.9 2.8 0 5.5-.6 8-1.7 2.1 2.6 4.4 5.1 6.8 7.5 1.5-2.2 3.2-4.3 5.1-6.2-2-1.9-3.8-3.9-5.5-5.9zM39 139.9c-4-5.2-7.3-10.8-9.7-16.9 13.9-10.9 30.2-18.3 47.6-21.4.9 2.9 2.4 5.5 4.3 7.7-11.5 13.5-26 24-42.2 30.6zM86.6 24.6c6.4-.8 12.7-.8 19.1 0 .9 5.7 1.4 10.6 1.4 15.3 0 12.5-2.2 24.8-6.5 36.5-1.6-.2-3.1-.4-4.6-.4-1.6 0-3.1.2-4.6.6C87.2 64.9 85 52.6 85 40c0-5.4.7-10.7 1.6-15.4zM96 108c-6.6 0-12-5.4-12-12s5.4-12 12-12 12 5.4 12 12-5.4 12-12 12z" fill="rgba(0,0,0,1)"/></svg>
