<?xml version="1.0" encoding="UTF-8"?>
<svg xmlns="http://www.w3.org/2000/svg" viewBox="0 0 192 192"><path d="M76.1 93.8c-19.8 3.5-38.6 12-54.2 25l-2.2 1.8 1 2.6c3.2 8.8 7.9 16.9 13.9 24.2l1.8 2.2 2.7-1c18.8-7.1 35.6-19.1 48.5-34.4 2.6 1.2 5.4 1.9 8.4 1.9 2.8 0 5.5-.6 8-1.7 12.9 15.4 29.7 27.4 48.7 34.5l2.6 1 1.8-2.1c6.2-7.3 10.9-15.5 14.2-24.5l1-2.6-2.2-1.8c-15.6-13-34.4-21.5-54.2-25-.6-5.7-3.7-10.7-8.1-13.9 4.8-12.7 7.3-26.2 7.3-39.8 0-6-.6-12.2-2-19.6l-.5-2.7-2.7-.5c-4.6-.8-9.2-1.2-13.8-1.2-4.4 0-9 .4-13.5 1.2l-2.7.5-.5 2.7C78.1 26 77 32.8 77 40c0 13.7 2.4 27.2 7.1 40-4.3 3.2-7.3 8.1-8 13.8zM39 139.9c-4-5.2-7.3-10.8-9.7-16.9 13.9-10.9 30.3-18.2 47.6-21.3.9 2.9 2.4 5.5 4.3 7.6-11.4 13.4-25.9 24-42.2 30.6zm113.8.4c-16.4-6.6-30.9-17.1-42.3-30.5 2.1-2.2 3.7-5 4.6-8 17.3 3.1 33.7 10.4 47.6 21.3-2.5 6.1-5.8 11.9-9.9 17.2zM85 40c0-5.4.7-10.7 1.6-15.4 6.4-.8 12.7-.8 19.1 0 .9 5.7 1.4 10.6 1.4 15.3 0 12.5-2.2 24.8-6.6 36.5-1.5-.2-3-.4-4.5-.4-1.6 0-3.1.2-4.6.6C87.2 64.9 85 52.5 85 40zm11 44c6.6 0 12 5.4 12 12s-5.4 12-12 12-12-5.4-12-12 5.4-12 12-12z" fill="rgba(0,0,0,1)"/></svg>
