<?xml version="1.0" encoding="UTF-8"?>
<svg xmlns="http://www.w3.org/2000/svg" viewBox="0 0 192 192"><path d="M136 119.5c.5.8 1.1 1.7 1.7 2.6l.7 1.1c2.6 4 5.7 8.6 5.7 12.7 0 4.4-3.6 8-8 8s-8-3.6-8-8c0-4.1 3-8.7 5.7-12.8l.7-1.1c.4-.8 1-1.7 1.5-2.5m33.2-102.3l-152 152 5.7 5.7 152-152-5.7-5.7zM119 32H32v111l8-8V64h71l8-8H72V40h47v-8zM40 56V40h24v16H40zm108 5l-5.8 5.8c4.9 2.9 8.3 7.7 9.4 13.2H129l-8 8h39v-4c0-9.3-4.6-17.8-12-23zM95 80H64v31l8-8V88h15l8-8zm41 24l-3.4 5.9s-1.9 3.2-4.9 7.8l-.7 1c-3.1 4.7-7 10.6-7 17.1 0 8.8 7.2 16 16 16s16-7.2 16-16c0-6.5-3.9-12.4-7-17.1l-.7-1c-3-4.6-4.9-7.8-4.9-7.8L136 104zm-64 33l-8 8v7h-7l-8 8h23v-23z" fill="rgba(0,0,0,1)"/></svg>
