<?xml version="1.0" encoding="UTF-8"?>
<svg xmlns="http://www.w3.org/2000/svg" viewBox="0 0 192 192"><path d="M132 56H72V40h47v-8H32v128h40V88h88v-4c0-15.4-12.6-28-28-28zM40 40h24v16H40V40zm24 40v72H40V64h92c9.7 0 17.7 6.9 19.6 16H64zM154 167.1c2.8-.9 5.4-2.4 7.5-4.4l7.2 4.2c2.7-3 4.8-6.5 6-10.4l-7.2-4.1c.3-1.4.5-2.8.5-4.3s-.2-2.9-.5-4.3l7.2-4.1c-1.2-3.9-3.3-7.4-6-10.4l-7.2 4.2c-2.1-2-4.7-3.5-7.5-4.4v-8.3c-1.9-.4-3.9-.7-6-.7s-4.1.2-6 .7v8.3c-2.8.9-5.4 2.4-7.5 4.4l-7.2-4.2c-2.7 3-4.8 6.5-6 10.4l7.2 4.1c-.3 1.4-.5 2.8-.5 4.3s.2 2.9.5 4.3l-7.2 4.1c1.2 3.9 3.3 7.4 6 10.4l7.2-4.2c2.1 2 4.7 3.5 7.5 4.4v8.3c1.9.4 3.9.7 6 .7s4.1-.2 6-.7v-8.3zM136 148c0-6.6 5.4-12 12-12s12 5.4 12 12-5.4 12-12 12-12-5.4-12-12z" fill="rgba(0,0,0,1)"/></svg>
