<?xml version="1.0" encoding="UTF-8"?>
<svg xmlns="http://www.w3.org/2000/svg" viewBox="0 0 192 192"><path d="M18.36 162.326L162.324 18.36l11.313 11.314L29.673 173.64zM64 80v25.4l8-8V88h9.4l8-8zM151.1 63.5l-5.7 5.7c3.1 2.8 5.3 6.6 6.2 10.8h-17l-8 8H160v-4c0-8.1-3.4-15.3-8.9-20.5zM54.6 160H72v-17.4z" fill="rgba(0,0,0,1)"/><path d="M40 129.4V64h65.4l8-8H72V40h47v-8H32v105.4l8-8zM40 40h24v16H40V40zM144.4 117.7c-3-4.6-4.9-7.8-4.9-7.8L136 104l-3.4 5.9s-1.9 3.2-4.9 7.8l-.7 1c-3.1 4.7-7 10.6-7 17.1 0 8.8 7.2 16 16 16s16-7.2 16-16c0-6.5-3.9-12.4-7-17.1l-.6-1zm-8.4 26.2c-4.4 0-8-3.6-8-8 0-4.1 3-8.7 5.7-12.8l.7-1.1c.6-.9 1.1-1.8 1.6-2.6.5.8 1.1 1.7 1.7 2.6l.7 1.1c2.6 4 5.7 8.6 5.7 12.7-.1 4.5-3.7 8.1-8.1 8.1z" fill="rgba(0,0,0,1)"/></svg>
