<?xml version="1.0" encoding="UTF-8"?>
<svg xmlns="http://www.w3.org/2000/svg" viewBox="0 0 192 192"><path d="M151.7 56h-19.8c-1.4-24.1-15.5-40-35.9-40S61.5 31.9 60.1 56H40.3L32 159.7v.3c0 8.8 7.2 16 16 16h96c8.8 0 16-7.2 16-16l-8.3-104zM96 24c19 0 26.7 16.4 27.9 32H68.1C69.3 40.4 77 24 96 24zm48 144H48c-4.4 0-7.9-3.5-8-7.9L47.7 64h96.6l7.7 96.1c-.1 4.4-3.6 7.9-8 7.9z" fill="rgba(0,0,0,1)"/><path d="M102.8 104L96 82.9 89.2 104H67l17.9 13.5-6.8 21.6L96 126l17.9 12.9-6.8-21.3L125 104z" fill="rgba(0,0,0,1)"/></svg>
