<?xml version="1.0" encoding="UTF-8"?>
<svg xmlns="http://www.w3.org/2000/svg" viewBox="0 0 192 192"><path d="M64 48c-8.8 0-16-7.2-16-16s7.2-16 16-16 16 7.2 16 16-7.2 16-16 16zm0-24c-4.4 0-8 3.6-8 8s3.6 8 8 8 8-3.6 8-8-3.6-8-8-8zm68 24c-8.8 0-16-7.2-16-16s7.2-16 16-16 16 7.2 16 16-7.2 16-16 16zm0-24c-4.4 0-8 3.6-8 8s3.6 8 8 8 8-3.6 8-8-3.6-8-8-8zm11.9 96h12V71.6c0-8.6-7.1-15.5-15.9-15.5h-16c-8.8 0-15.9 7-15.9 15.5V120h12v56h7.9v-63.9h-12V71.6c0-4.2 3.6-7.7 8.1-7.7h16c4.4 0 8.1 3.4 8.1 7.7v40.5h-12V176h7.9v-56zm-68 8h22l-14-32.7V71.6c0-8.6-7.1-15.5-15.9-15.5h-8c-8.8 0-15.9 7-15.9 15.5v23.6L30 128h22v48h7.9v-55.9H42l10-23.3V71.6c0-4.2 3.6-7.7 8.1-7.7h8c4.4 0 8.1 3.4 8.1 7.7v25.2l10 23.3h-18V176h7.9v-48z" fill="rgba(0,0,0,1)"/></svg>
