<?xml version="1.0" encoding="UTF-8"?>
<svg xmlns="http://www.w3.org/2000/svg" viewBox="0 0 192 192"><path d="M176 80v-8h-16V43.1l-12-24-12 24V72h-28V43.1l-12-24-12 24V72H56V43.1l-12-24-12 24V72H16v8h16v8H16v8h16v24H16v8h16v8H16v8h16v32h24v-32h28v32h24v-32h28v32h24v-32h16v-8h-16v-8h16v-8h-16V96h16v-8h-16v-8h16zM48 168h-8V44.9l4-8 4 8V168zm36-32H56v-8h28v8zm0-16H56V96h28v24zm0-32H56v-8h28v8zm16 80h-8V44.9l4-8 4 8V168zm36-32h-28v-8h28v8zm0-16h-28V96h28v24zm0-32h-28v-8h28v8zm16 80h-8V44.9l4-8 4 8V168z" fill="rgba(0,0,0,1)"/></svg>
