<?xml version="1.0" encoding="UTF-8"?>
<svg xmlns="http://www.w3.org/2000/svg" viewBox="0 0 192 192"><path d="M152 33.1V16h-8v12h-8V16h-8v20.8H64V16h-8v12h-8V16h-8v160h8v-12h8v12h8v-20.8h64V176h8v-12h8v12h8V33.1zm-8 2.9v8h-8v-8h8zM48 92v-8h8v8h-8zm80 16v34.4H64v-40h64v5.6zM64 68V49.6h64v40H64V68zM48 44v-8h8v8h-8zm0 16v-8h8v8h-8zm0 16v-8h8v8h-8zm0 32v-8h8v8h-8zm0 16v-8h8v8h-8zm0 16v-8h8v8h-8zm0 16v-8h8v8h-8zm96-8v8h-8v-8h8zm0-16v8h-8v-8h8zm0-16v8h-8v-8h8zm0-16v8h-8v-8h8zm0-16v8h-8v-8h8zm0-16v8h-8v-8h8zm0-16v8h-8v-8h8z" fill="rgba(0,0,0,1)"/></svg>
