<?xml version="1.0" encoding="UTF-8"?>
<svg xmlns="http://www.w3.org/2000/svg" viewBox="0 0 192 192"><path d="M148 128h-8v12h-12v8h12v12h8v-12h12v-8h-12z" fill="rgba(0,0,0,1)"/><path d="M144 112c-17.6 0-32 14.4-32 32s14.4 32 32 32 32-14.4 32-32-14.4-32-32-32zm0 56c-13.2 0-24-10.8-24-24s10.8-24 24-24 24 10.8 24 24-10.8 24-24 24z" fill="rgba(0,0,0,1)"/><path d="M88 160.5V86.8L47.4 24h97.3L104 86.8v48.3c1.4-6.1 4.2-11.8 8-16.5V89.2L159.4 16H32.6L80 89.2v86.3l25.6-17.1c-1-2.6-1.7-5.3-2.2-8.2L88 160.5z" fill="rgba(0,0,0,1)"/></svg>
