<?xml version="1.0" encoding="UTF-8"?>
<svg xmlns="http://www.w3.org/2000/svg" viewBox="0 0 192 192"><path d="M170.83 149.17L114 92.3A52 52 0 1 0 92.3 114l56.87 56.87a17.41 17.41 0 0 0 12.25 5.2 14.57 14.57 0 0 0 10.41-4.2c5.97-6.01 5.52-16.18-1-22.7zM68 112a44 44 0 1 1 44-44 44 44 0 0 1-44 44zm98.17 54.17a6.6 6.6 0 0 1-5.35 1.86 9.77 9.77 0 0 1-6-2.86l-55.6-55.61a52.44 52.44 0 0 0 10.34-10.34l55.61 55.61a9.77 9.77 0 0 1 2.86 6 6.61 6.61 0 0 1-1.86 5.34z" fill="rgba(0,0,0,1)"/><path d="M42.66 48h9v40h-9zM61.07 48h14.82c12.64 0 20 7.27 20 19.86C95.87 80.67 88.48 88 75.61 88H61.07zm15 32.89c6.82 0 10.46-4.53 10.46-12.92S82.83 55.11 76 55.11h-6v25.78z" fill="rgba(0,0,0,1)"/></svg>
