<?xml version="1.0" encoding="UTF-8"?>
<svg xmlns="http://www.w3.org/2000/svg" viewBox="0 0 192 192"><path d="M151.3 65.8c-.3-.5-1.2-2-2.2-3.7-4.3-7.4-13.2-22.9-22.2-32.8C121.3 23.1 112.6 16 96 16c-8.9 0-17.5 2.8-26.2 8.7-7.3 4.8-12.1 9.7-16.3 14-3.8 3.9-7.1 7.2-11.5 9.9-1.9 1.1-2.5 3.6-1.4 5.5s3.6 2.5 5.5 1.4c5.3-3.2 9.1-7 13.1-11.1 4.2-4.2 8.4-8.6 15-13 7.5-5 14.4-7.3 21.8-7.3 13.4 0 20 5.1 25.1 10.7 8.4 9.2 17 24.2 21.2 31.4 1.2 2.1 2 3.4 2.4 4.1.8 1.2 2 1.8 3.3 1.8.8 0 1.5-.2 2.2-.7 1.9-1.3 2.4-3.8 1.1-5.6z" fill="rgba(0,0,0,1)"/><path d="M48 72h.5c10.9-1.4 19.9-7.3 26.8-17.8 5.2-7.7 16.8-13.3 25.1-14.2 2.2-.2 3.8-2.2 3.5-4.4-.2-2.2-2.2-3.8-4.4-3.5-10 1.1-24.2 7.7-30.9 17.8C63.1 58.2 56 63 47.5 64c-2.2.3-3.7 2.3-3.5 4.5.3 2 2 3.5 4 3.5zM123.7 73.4c2.1-5.5 1.9-11.6-.6-16.6-2.1-4.3-5.8-7.5-10-8.7-8.6-2.4-16.5-1.1-31.8 12.9-2.3 2.1-4.6 4.3-6.7 6.5C65.5 76.4 57.7 84 48 84c-2.2 0-4 1.8-4 4s1.8 4 4 4c13 0 22.7-9.5 32.1-18.8 2.1-2.1 4.3-4.2 6.6-6.3 12.7-11.6 18.1-12.8 24.2-11.1 2.1.6 3.9 2.2 5 4.5 1.5 3.1 1.6 6.8.3 10.2-4.7 12.1-36.1 42-65.3 49.6-2.1.6-3.4 2.7-2.9 4.9.5 1.8 2.1 3 3.9 3 .3 0 .7 0 1-.1 32.6-8.4 65.4-40.4 70.8-54.5zM133 132.1c-2.2-.5-5.1-2.8-8.2-5.2-6.2-4.9-14-10.9-24.8-10.9-7.9 0-16.6 7.1-25 13.9-5.6 4.6-12 9.8-15.4 10.1-2.2.2-3.8 2.2-3.6 4.4.2 2.1 1.9 3.6 4 3.6h.4c5.8-.6 12.2-5.8 19.7-11.9 7-5.7 14.9-12.1 19.9-12.1 8 0 14.3 4.9 19.9 9.2 3.8 2.9 7.4 5.7 11.2 6.7 2.1.5 4.3-.8 4.9-2.9.4-2.2-.9-4.3-3-4.9z" fill="rgba(0,0,0,1)"/><path d="M125.4 148.3c-2.6-1-5.1-2.8-7.7-4.7-4.8-3.5-10.2-7.5-17.7-7.5-9.4 0-27.7 17.2-31.1 21.5-1.4 1.7-1.1 4.2.6 5.6.7.6 1.6.9 2.5.9 1.2 0 2.3-.5 3.1-1.5 4.3-5.4 20.2-18.5 24.9-18.5 4.9 0 8.8 2.9 13 6 3 2.2 6 4.4 9.6 5.8 2.1.8 4.4-.3 5.1-2.3s-.2-4.6-2.3-5.3z" fill="rgba(0,0,0,1)"/><path d="M118 168.3c-5.4-5.6-11.7-11.5-17.5-12.3-8.8-1.3-15.5 7.8-19.1 12.6l-.7 1c-1.3 1.8-1 4.3.8 5.6.7.5 1.6.8 2.4.8 1.2 0 2.4-.6 3.2-1.6.2-.3.5-.7.8-1 2.4-3.2 7.4-10 11.5-9.4 2.5.4 6.8 3.7 12.8 9.9l.9.9c1.6 1.6 4.1 1.6 5.7 0 1.6-1.6 1.6-4.1 0-5.7-.2-.1-.4-.4-.8-.8zM141.3 116.2c-8.7-2.9-13.9-9.4-16.7-12.9-.7-.9-1.3-1.6-1.8-2.1-1.6-1.6-4.1-1.6-5.7 0-1.6 1.6-1.6 4.1 0 5.7.2.2.7.8 1.2 1.4 3.1 3.9 9.4 11.9 20.4 15.6.4.1.8.2 1.3.2 1.7 0 3.2-1.1 3.8-2.7.7-2.2-.4-4.5-2.5-5.2zM145.5 100.3c-.4-.2-10-3.9-9.4-11.9.2-2.2-1.4-4.1-3.6-4.3-2.2-.2-4.1 1.4-4.3 3.6 0 .4-.3 3.8 1.4 8 1.6 3.8 5.1 9 13.1 12.1.5.2 1 .3 1.4.3 1.6 0 3.1-1 3.7-2.6.7-2.1-.3-4.4-2.3-5.2zM89.4 86.1c6.4-5.7 13-11.7 17.1-15 1.7-1.4 2-3.9.6-5.6-1.4-1.7-3.9-2-5.6-.6-4.3 3.4-11 9.4-17.4 15.3-6.1 5.5-12 10.8-14.5 12.7-7.2 5.3-18.5 7.1-21.6 7.1-2.2 0-4 1.8-4 4s1.8 4 4 4c4.8 0 17.5-2.2 26.4-8.8 2.8-2.1 8.5-7.2 15-13.1z" fill="rgba(0,0,0,1)"/></svg>
