<?xml version="1.0" encoding="UTF-8"?>
<svg xmlns="http://www.w3.org/2000/svg" viewBox="0 0 104 160"><path d="M87.33 53.78l-2.22-3.33-11.43 7.62a187.93 187.93 0 0 1-7.12-21.73C61.27 17.65 56.27 0 40 0h-4v4c0 18.45-8.17 32.5-16.82 47.38C9.75 67.61 0 84.4 0 108c0 30.13 21.87 52 52 52s52-21.87 52-52c0-20.07-8.64-42.17-16.67-54.22zM32 124c0-15.91 4.43-28.55 14.22-40.17 2.93 7.23 7.76 13.87 12.47 20.35C65.54 113.6 72 122.5 72 132a20 20 0 0 1-20 20c-11.78 0-20-11.51-20-28zm44.62 21.33A27.89 27.89 0 0 0 80 132c0-12.1-7.54-22.48-14.84-32.52-6-8.19-11.57-15.93-13.24-24.26l-1.46-7.33-5.29 5.28C30.53 87.81 24 103.49 24 124c0 8.86 2 16.59 5.56 22.6C16.24 139.39 8 125.48 8 108c0-21.45 9.2-37.28 18.1-52.6 8.12-14 16.48-28.36 17.74-46.68 6.88 2.8 10.43 13.58 15 29.8 2.62 9.25 5.33 18.83 9.55 27.27l2 4 12.33-8.22C89.65 73.46 96 92 96 108c0 16.51-7.35 29.83-19.38 37.33z" fill="rgba(0,0,0,1)"/></svg>
