<?xml version="1.0" encoding="UTF-8"?>
<svg xmlns="http://www.w3.org/2000/svg" viewBox="0 0 192 192"><path d="M176 99.6l-3.3-16.5C169.6 67.4 155.6 56 139.6 56H128v4.3l-6.1 2.9-6.8-14.5 8.4-4-3.4-7.2L16 86.7l3.4 7.2 8.4-4 6.8 14.5L27 108H16v36h20.1c1 9 8.6 16 17.9 16s16.9-7 17.9-16h56.2c1 9 8.6 16 17.9 16s16.9-7 17.9-16H176V99.6zM139.6 64c12.2 0 22.9 8.7 25.3 20.7l3.1 15.7v8.6h-32V64h3.6zM128 108H45.8L128 69.1V108zM89.9 78.3l-6.8-14.5 8.8-4.2 6.8 14.5-8.8 4.2zm-7.2 3.4l-8.8 4.2-6.8-14.5 8.8-4.2 6.8 14.5zm-16 7.6l-8.8 4.2L51.1 79l8.8-4.2 6.8 14.5zm48-22.7l-8.8 4.2-6.8-14.5 8.8-4.2 6.8 14.5zM35.1 86.5l8.8-4.2 6.8 14.5-8.8 4.2-6.8-14.5zM54 152c-5.5 0-10-4.5-10-10s4.5-10 10-10 10 4.5 10 10-4.5 10-10 10zm0-28c-7.8 0-14.5 5-16.9 12H24v-20h104v20H70.9c-2.4-7-9.1-12-16.9-12zm92 28c-5.5 0-10-4.5-10-10s4.5-10 10-10 10 4.5 10 10-4.5 10-10 10zm16.9-16c-2.5-7-9.1-12-16.9-12-3.7 0-7.1 1.1-10 3v-10h32v19h-5.1z" fill="rgba(0,0,0,1)"/></svg>
