<?xml version="1.0" encoding="UTF-8"?>
<svg xmlns="http://www.w3.org/2000/svg" viewBox="0 0 192 192"><path d="M135.3 176H56.7c-4 0-7.5-2.2-9.3-5.7-1.8-3.4-1.5-7.5.7-10.7L72 103V56h48v47l23.9 56.6c2.2 3.2 2.4 7.2.7 10.7-1.8 3.5-5.4 5.7-9.3 5.7zM80 64v41l-25.3 59.1c-.8 1.1-.4 2.2-.2 2.6.2.4.8 1.4 2.2 1.4h78.6c1.4 0 2-.9 2.2-1.4.2-.4.6-1.5-.2-2.6l-.3-.5-25-58.6V64H80zM74 48c-3.3 0-6-2.7-6-6s2.7-6 6-6 6 2.7 6 6-2.7 6-6 6zM114 40c-3.3 0-6-2.7-6-6s2.7-6 6-6 6 2.7 6 6-2.7 6-6 6zM90 28c-3.3 0-6-2.7-6-6s2.7-6 6-6 6 2.7 6 6-2.7 6-6 6z" fill="rgba(0,0,0,1)"/></svg>
