<?xml version="1.0" encoding="UTF-8"?>
<svg xmlns="http://www.w3.org/2000/svg" viewBox="0 0 192 192"><path d="M173.7 176L156 127.2c-.4-7.6-6.8-14.2-16-17.3V56c0-6.6-5.4-12-12-12s-12 5.4-12 12v53.9c-9.1 3.1-15.6 9.7-16 17.3L82.3 176h91.4zm-25.7-8v-20h-8v20h-8v-20h-8v20h-8v-20h-8v20H93.7l13.1-36h42.4l13.1 36H148zm-24-60V56c0-2.2 1.8-4 4-4s4 1.8 4 4v52h-8zm4 8c8.3 0 15.9 3.4 18.8 8h-37.5c2.8-4.6 10.4-8 18.7-8zm-42.6 28H32c-8.8 0-16-7.2-16-16V16h53.7l12 12H176v100c0 5.3-2.6 10-6.5 12.9l-3-8.2c1-1.3 1.5-2.9 1.5-4.7V36H78.3l-12-12H24v104c0 4.4 3.6 8 8 8h56.3l-2.9 8z" fill="rgba(0,0,0,1)"/></svg>
