<?xml version="1.0" encoding="UTF-8"?>
<svg xmlns="http://www.w3.org/2000/svg" viewBox="0 0 192 192"><path d="M140 157.7l-10.8-10.8 5.7-5.7 5.2 5.2 13.2-13.2 5.7 5.7-19 18.8zm36-13.7c0-17.6-14.4-32-32-32s-32 14.4-32 32 14.4 32 32 32 32-14.4 32-32zm-8 0c0 13.2-10.8 24-24 24s-24-10.8-24-24 10.8-24 24-24 24 10.8 24 24zM70.2 78.7c-4 0-7.1 1.1-9.8 3.5-2.9 2.7-4.5 6.6-4.5 11.2 0 8.7 5.7 14.6 14.1 14.6s14-5.9 14-14.6c.1-8.7-5.5-14.7-13.8-14.7zm0 6.3c3.8 0 5.9 3 5.9 8.4 0 5.5-2.1 8.4-6 8.4-3.8 0-5.9-2.9-5.9-8.3-.1-5.6 2-8.5 6-8.5zm18.4 22.5H110v-6.1H96.3V96h9.5v-5.9h-9.5v-4.8h13.1v-6.1H88.6v28.3zm46.7-23.1c-2.3-3.8-6.1-5.6-11.3-5.6-6.7 0-10.7 3.4-10.7 9 0 3.3 1.2 5.5 3.8 6.9 1.7.9 3.3 1.4 7.4 2.2 2.9.6 4 1.3 4 2.7 0 1.5-1.5 2.5-4.2 2.5-2.9 0-4.7-1.1-5.7-3.4l-6.5 3.2c2.3 4.2 6.4 6.2 12.5 6.2 7.4 0 11.4-3.3 11.4-9.3 0-3.2-1.1-5.3-3.4-6.7-1.7-1-3.6-1.6-7.9-2.4-3.1-.6-4-1.2-4-2.6 0-1.4 1.2-2.2 3.5-2.2 2.5 0 3.9.8 5.2 2.7l5.9-3.2zM104.8 152H32c-4.4 0-8-3.6-8-8V40h42.3l12 12H168v60c3 2.3 5.7 5 8 8V44H81.7l-12-12H16v112c0 8.8 7.2 16 16 16h75.3c-1.1-2.5-1.9-5.2-2.5-8z" fill="rgba(0,0,0,1)"/></svg>
