<?xml version="1.0" encoding="UTF-8"?>
<svg xmlns="http://www.w3.org/2000/svg" viewBox="0 0 192 192"><path d="M144 176c-17.6 0-32-14.4-32-32s14.4-32 32-32 32 14.4 32 32-14.4 32-32 32zm0-56c-13.2 0-24 10.8-24 24s10.8 24 24 24 24-10.8 24-24-10.8-24-24-24zm14.8 18.8l-5.7-5.7-13.1 13.2-5.2-5.2-5.7 5.7 10.8 10.8 18.9-18.8zM160 64V40H73.5l-9.1-8H16v92h.1c-.3 3.6.6 7.1 2.7 10.1 2.5 3.4 6.2 5.5 10.4 5.9h75c.3-2.8.8-5.4 1.6-8h-76c-1.8-.1-3.4-1.1-4.5-2.6-1.2-1.6-1.6-3.7-1.1-5.6L38.7 72h126.7l-9.5 34.3c2.6.9 5 2.1 7.3 3.5L176 64h-16zM32.7 64L24 94.9V40h37.4l9.1 8H152v16H32.7z" fill="rgba(0,0,0,1)"/></svg>
