<?xml version="1.0" encoding="UTF-8"?>
<svg xmlns="http://www.w3.org/2000/svg" viewBox="0 0 192 192"><path d="M176 28v100c0 4.5-1.9 8.9-5.3 11.9l-5.3-6c1.7-1.5 2.7-3.7 2.7-6V36H78.3l-12-12H24v104c0 4.4 3.6 8 8 8h54.9v8H32c-8.8 0-16-7.2-16-16V16h53.7l12 12H176zm-20 99.2l17.7 48.8H82.3l17.7-48.8c.4-7.6 6.8-14.2 16-17.3V56c0-6.6 5.4-12 12-12s12 5.4 12 12v53.9c9.1 3.1 15.6 9.7 16 17.3zM132 108V56c0-2.2-1.8-4-4-4s-4 1.8-4 4v52h8zm-22.8 16h37.5c-2.9-4.6-10.4-8-18.8-8s-15.8 3.4-18.7 8zm53.1 44l-13.1-36h-42.4l-13.1 36H108v-20h8v20h8v-20h8v20h8v-20h8v20h14.3zM46.8 81.7l-5.5 5.8 19.1 18.1 38.5-38.8-5.7-5.6-33 33.2-13.4-12.7z" fill="rgba(0,0,0,1)"/></svg>
