<?xml version="1.0" encoding="UTF-8"?>
<svg xmlns="http://www.w3.org/2000/svg" viewBox="0 0 192 192"><path d="M80 132h16v8H80z" fill="rgba(0,0,0,1)"/><path d="M172 164h-8v-42.6l-16-20V68h-28c-5.4 0-9.5 3.6-10.8 9.5l-9.2 42.9V160h-8v-40.4l9.4-43.8c2-9.5 9.5-15.8 18.6-15.8h36v38.6l16 20V164z" fill="rgba(0,0,0,1)"/><path d="M108 176c-8.8 0-16-7.2-16-16s7.2-16 16-16 16 7.2 16 16-7.2 16-16 16zm0-24c-4.4 0-8 3.6-8 8s3.6 8 8 8 8-3.6 8-8-3.6-8-8-8zM160 176c-6.6 0-12-5.4-12-12s5.4-12 12-12 12 5.4 12 12-5.4 12-12 12zm0-16c-2.2 0-4 1.8-4 4s1.8 4 4 4 4-1.8 4-4-1.8-4-4-4z" fill="rgba(0,0,0,1)"/><path d="M120 160h32v8h-32zM96 116h72v8H96z" fill="rgba(0,0,0,1)"/><path d="M112.048 119.373l3.994-23.97 7.892 1.316-3.995 23.97zM50 66.3c-9.1 0-16.5-7.4-16.5-16.4S40.9 33.4 50 33.4s16.5 7.4 16.5 16.4S59.1 66.3 50 66.3zm0-24.9c-4.7 0-8.5 3.8-8.5 8.4s3.8 8.4 8.5 8.4 8.5-3.8 8.5-8.4-3.8-8.4-8.5-8.4z" fill="rgba(0,0,0,1)"/><path d="M50 119.8l-3.4-5.8c-.2-.3-20.6-34.7-25-42.2-3.6-5.7-5.6-13.7-5.6-22C16 31.2 31.3 16 50 16s34 15.2 34 33.8c0 8.3-2 16.3-5.6 22-4.4 7.5-24.8 41.9-25 42.2l-3.4 5.8zM50 24c-14.3 0-26 11.6-26 25.8 0 6.8 1.6 13.4 4.4 17.8l.1.1C31.7 73.2 44 93.9 50 104.1c6.1-10.2 18.3-30.9 21.5-36.4l.1-.1c2.7-4.4 4.4-11 4.4-17.8C76 35.6 64.3 24 50 24z" fill="rgba(0,0,0,1)"/><path fill="none" d="M76.8 75c.5-.9 1-1.7 1.4-2.3l.1-.1c3.6-5.7 5.7-14.2 5.7-22.9C84 31.1 68.7 16 50 16S16 31.1 16 49.6c0 8.7 2.1 17.3 5.7 22.9l.1.1c4.3 7.2 20.9 35.3 28.2 47.5 6.3-10.7 19.8-33.3 26-43.8V75h.8z"/><path d="M76 160H44v8h40V78.6c-1.8 3.1-4.7 8-8 13.5V160z" fill="rgba(0,0,0,1)"/></svg>
