<?xml version="1.0" encoding="UTF-8"?>
<svg xmlns="http://www.w3.org/2000/svg" viewBox="0 0 192 192"><path d="M144 82.6V44h-36c-9.1 0-16.6 6.4-18.6 15.8L80 103.6V116h-8V32h-8v112H32v8h40v-28h8v20c0 8.8 7.2 16 16 16 5.9 0 11.1-3.2 13.8-8h26.9c1.7 4.7 6.1 8 11.3 8 6.6 0 12-5.4 12-12v-45.4l-16-20zM97.2 61.5c1.3-5.9 5.4-9.5 10.8-9.5h28v33.4l11.7 14.6h-39l3.2-19.3-7.9-1.3-3.4 20.7H88.9l8.3-38.6zM96 152c-4.4 0-8-3.6-8-8s3.6-8 8-8 8 3.6 8 8-3.6 8-8 8zm0-24c-2.9 0-5.6.8-8 2.2V108h64v28.7c-1.3-.4-2.6-.7-4-.7-5.2 0-9.6 3.3-11.3 8H112c0-8.8-7.2-16-16-16zm52 24c-2.2 0-4-1.8-4-4s1.8-4 4-4 4 1.8 4 4-1.8 4-4 4z" fill="rgba(0,0,0,1)"/></svg>
