<?xml version="1.0" encoding="UTF-8"?>
<svg xmlns="http://www.w3.org/2000/svg" viewBox="0 0 192 192"><path d="M148.3 16c-4.9 0-9.7 2.2-13.7 6.2-6.9 6.9-10.7 18.5-10.5 31.5v1.6c0 12.2 8.6 22.3 19.9 24.3V176h8V79.7c11.4-1.9 20-12.1 20-24.2V54c.1-21.7-10.2-38-23.7-38zM164 55.4c0 9.2-7.2 16.6-16 16.6s-16-7.5-16-16.6v-1.7c-.1-10.8 2.9-20.5 8.2-25.8 2.5-2.5 5.2-3.8 8-3.8C156 24.1 164 35.3 164 54v1.4zM44 52h-8V16h8v36zm32-36v32.4c0 7.4-3.5 15.4-9.7 21.9-4.4 4.6-9.6 7.9-14.3 9.1v96.5h-8V79.4c-11.2-2.9-24-16.8-24-31V16h8v32.4c0 5.4 2.7 11.4 7.5 16.4 4.7 5 9.7 7.2 12.5 7.2s7.8-2.2 12.5-7.2 7.5-11 7.5-16.4V16h8zM60 52h-8V16h8v36zm56 124h-8V96H84V32c0-8.8 8.3-16 18.4-16H116v160zM92 88h16V24h-5.6C96.7 24 92 27.6 92 32v56z" fill="rgba(0,0,0,1)"/></svg>
