<?xml version="1.0" encoding="UTF-8"?>
<svg xmlns="http://www.w3.org/2000/svg" viewBox="0 0 192 192"><path d="M176 64v-8h-44V40h-8v8h-8v8h8v24h-8v8h8v24h-8.9c-.8-3.1-2.3-8.2-4.2-13.4C106.2 85.7 101.6 80 96 80H72v24H56v8h-8V84h-8v28H28c-6.6 0-12 5.4-12 12v28h10.2c2.8 4.8 7.9 8 13.8 8s11.1-3.2 13.8-8h48.3c2.8 4.8 7.9 8 13.8 8 8.8 0 16-7.2 16-16V64h12v12h-4v48h36V76h-3.8V64h3.9zM80 88h15.9c2.7.7 7.6 11.6 11 24H80V88zm-40 64c-4.4 0-8-3.6-8-8s3.6-8 8-8 8 3.6 8 8-3.6 8-8 8zm60-8H56c0-8.8-7.2-16-16-16s-16 7.2-16 16v-20c0-2.2 1.8-4 4-4h96v10.2c-2.4-1.4-5.1-2.2-8-2.2-8.8 0-16 7.2-16 16zm16 8c-4.4 0-8-3.6-8-8s3.6-8 8-8 8 3.6 8 8-3.6 8-8 8zm52-36h-20V84h20v32zm-3.8-40H152V64h12.2v12z" fill="rgba(0,0,0,1)"/></svg>
