<?xml version="1.0" encoding="UTF-8"?>
<svg xmlns="http://www.w3.org/2000/svg" viewBox="0 0 192 192"><path d="M36 68c0-2.2 4.5-4 10-4s10 1.8 10 4-4.5 4-10 4-10-1.8-10-4zm52 24c2.2 0 4-2.7 4-6s-1.8-6-4-6-4 2.7-4 6 1.8 6 4 6zm58-28c-5.5 0-10 1.8-10 4s4.5 4 10 4 10-1.8 10-4-4.5-4-10-4zM36 108h120v-8H36v8zm36 16h48v-8H72v8zm32-32c2.2 0 4-2.7 4-6s-1.8-6-4-6-4 2.7-4 6 1.8 6 4 6zm72 12c0 31.5-59.4 48-80 48s-80-16.5-80-48c0-7.9 4.6-11.3 8.3-14 2.9-2.1 5.5-4 7-8-2.1-3.9-3.3-8.7-3.3-14 0-13.5 7.9-24 18-24 15 0 23.3 5 30.6 9.4C82.6 57 87.7 60 96 60s13.4-3.1 19.4-6.6C122.7 49 131 44 146 44c10.1 0 18 10.5 18 24 0 5.3-1.2 10.1-3.3 14 1.5 4 4.1 5.9 7 8 3.7 2.7 8.3 6.1 8.3 14zm-30-52c-5.4 0-10 7.3-10 16s4.6 16 10 16 10-7.3 10-16-4.6-16-10-16zM36 68c0 8.7 4.6 16 10 16s10-7.3 10-16-4.6-16-10-16-10 7.3-10 16zm132 36c0-3.7-1.5-4.9-5-7.5-2.4-1.8-5.5-4-7.8-7.7-2.7 2.1-5.8 3.2-9.1 3.2-10.1 0-18-10.5-18-24 0-5.1 1.1-9.8 3.1-13.6-4.4 1.5-7.9 3.7-11.6 5.9C113.1 64 106.4 68 96 68s-17.1-4-23.5-7.8c-3.7-2.2-7.3-4.3-11.6-5.9 2 3.9 3.1 8.5 3.1 13.6 0 13.5-7.9 24-18 24-3.4 0-6.5-1.2-9.1-3.2-2.3 3.8-5.4 6-7.8 7.7-3.6 2.6-5 3.8-5 7.5 0 14 17.6 24.1 28.2 28.9C68.1 140.1 86.6 144 96 144s27.9-3.9 43.8-11.1C150.4 128.1 168 118 168 104z" fill="rgba(0,0,0,1)"/></svg>
