<?xml version="1.0" encoding="UTF-8"?>
<svg xmlns="http://www.w3.org/2000/svg" viewBox="0 0 192 192"><path d="M86.5 140.7l-2.4 3.3H152v8H40v-8h28.6l2.9-8H32v24h128v-24H89.9zM77.3 120H40v-8h40.2l2.9-8H32v24h42.4zM61 88H40v-8h27.3l6.2-8H32v24h22.7zM86.1 56H40v-8h52.4l6.3-8H32v24h47.8zM119 40l-3.2 8H152v8h-39.4l-3.2 8H160V40zM131 80h21v8h-26.9l-5.8 8H160V72h-23.1zM107.5 112H152v8h-50.3l-5.9 8H160v-24h-46.6z" fill="rgba(0,0,0,1)"/><g><path d="M80 136l44-60H96l16-40-44 56h28z" fill="rgba(0,0,0,1)"/></g></svg>
