<?xml version="1.0" encoding="UTF-8"?>
<svg xmlns="http://www.w3.org/2000/svg" viewBox="0 0 192 192"><path d="M92 33.7V84h8V33.7l9.2 9.1 5.6-5.6L96 18.3 77.2 37.2l5.6 5.6zM140 18.3l-18.8 18.9 5.6 5.6 9.2-9.1V112h8V33.7l9.2 9.1 5.6-5.6zM52 18.3L33.2 37.2l5.6 5.6 9.2-9.1V112h8V33.7l9.2 9.1 5.6-5.6zM98.9 148.1h16.6v.8c0 11-7.7 19.1-18.3 19.1-12.4 0-20-10-20-25.9 0-16.2 7.7-26.2 20.2-26.2 8.4 0 13 3.8 16.6 13.5l8.7-3.4c-2.5-5.7-4.2-8.4-7.3-11.4-4.5-4.4-10.7-6.7-18.1-6.7-17.6 0-30 14.1-30 34.2 0 20 12 33.8 29.2 33.8 9.2 0 15.5-3.7 20.7-12.3l1.7 11.4h5.9v-34.7H98.9v7.8z" fill="rgba(0,0,0,1)"/></svg>
