<?xml version="1.0" encoding="UTF-8"?>
<svg xmlns="http://www.w3.org/2000/svg" viewBox="0 0 192 192"><path d="M104 80c6.6 0 12-5.4 12-12s-5.4-12-12-12-12 5.4-12 12 5.4 12 12 12zm0-15.9c2.2 0 4 1.8 4 4s-1.8 4-4 4-4-1.8-4-4c0-2.3 1.8-4 4-4zm.8 87.9H36v-8h68c0 2.7.3 5.4.8 8zm63.2-40V58h8v62c-2.3-3-5-5.7-8-8zm-60.7 16H24v-17.9L67.7 81l32 28 24.4-16.3 18.1 11.3h1.9c5.7 0 11.1 1.2 16 3.3V40H16v96h88.8c.6-2.8 1.4-5.5 2.5-8zM24 48h128v52.8l-28.1-17.5L100.3 99l-32-28L24 100.5V48zm136 100h-32v-8h32v8zm-16 28c-17.6 0-32-14.4-32-32s14.4-32 32-32 32 14.4 32 32-14.4 32-32 32zm0-56c-13.2 0-24 10.8-24 24s10.8 24 24 24 24-10.8 24-24-10.8-24-24-24z" fill="rgba(0,0,0,1)"/></svg>
