<?xml version="1.0" encoding="UTF-8"?>
<svg xmlns="http://www.w3.org/2000/svg" viewBox="0 0 192 192"><path d="M160 90.1C157.2 77.3 145.7 68 132.7 68H116v-4c0-6.6-5.4-12-12-12h-3.3c1.7-4.7 6.1-8 11.3-8h44c9.9 0 20-10.1 20-20h-8c0 5.5-6.5 12-12 12h-44c-9.7 0-17.7 6.9-19.6 16H88c-6.6 0-12 5.4-12 12v4H59.3c-13 0-24.5 9.3-27.3 22.1L19.6 147c-1.1 5.2.1 10.5 3.4 14.6s8.2 6.5 13.5 6.5c8 0 14.9-5.4 16.8-13.1l.4-1.6C56.9 140.7 68.1 132 81 132h30c12.9 0 24 8.7 27.2 21.2l.4 1.6c1.9 7.7 8.9 13.1 16.8 13.1 5.3 0 10.2-2.4 13.5-6.5 3.3-4.1 4.6-9.4 3.4-14.6L160 90.1zM84 64c0-2.2 1.8-4 4-4h16c2.2 0 4 1.8 4 4v4H84v-4zm78.7 92.5c-1.8 2.2-4.4 3.5-7.3 3.5-4.3 0-8-2.9-9.1-7.1l-.4-1.6c-4-16.1-18.4-27.3-34.9-27.3H81c-16.5 0-30.9 11.2-34.9 27.3l-.4 1.6c-1 4.2-4.8 7.1-9.1 7.1-2.8 0-5.5-1.3-7.3-3.5a9.36 9.36 0 0 1-1.9-7.9l12.4-56.9C41.8 82.6 50 76 59.3 76h73.4c9.3 0 17.6 6.6 19.5 15.8l12.4 56.9c.6 2.7-.1 5.6-1.9 7.8zM76 84h12v8H76v-8zm60 16h8v8h-8v8h-8v-8h-8v-8h8v-8h8v8zm-32-16h12v8h-12v-8zm-40 20c0 4.4-3.6 8-8 8s-8-3.6-8-8 3.6-8 8-8 8 3.6 8 8z" fill="rgba(0,0,0,1)"/></svg>
