<?xml version="1.0" encoding="UTF-8"?>
<svg xmlns="http://www.w3.org/2000/svg" viewBox="0 0 192 192"><path d="M176 108c0-19.9-11.1-40-36-40H56c-12.8 0-29.1 8.1-29.8 8.4l-1.9.9-8.3 62.2 4 .5v4h12c0 8.8 7.2 16 16 16 6 0 11.3-3.3 14-8.3 2.7 4.9 8 8.3 14 8.3 8.8 0 16-7.2 16-16h32c0 8.8 7.2 16 16 16s16-7.2 16-16v-.7l20-4V108zm-36-32c9.5 0 16.9 3.5 21.7 10.3 3.1 4.4 5.2 10.3 5.9 16.6L140 96.8V76zM34.2 136h-9.6l7.1-53.3c4.4-2 15.7-6.7 24.3-6.7h12.7c-3.6 6.3-6.1 15.5-8.6 25-2.9 10.8-7.2 27-12.1 27-5.9 0-11.1 3.2-13.8 8zM48 152c-4.4 0-8-3.6-8-8s3.6-8 8-8 8 3.6 8 8-3.6 8-8 8zm28 0c-4.4 0-8-3.6-8-8s3.6-8 8-8 8 3.6 8 8-3.6 8-8 8zm64 0c-4.4 0-8-3.6-8-8s3.6-8 8-8 8 3.6 8 8-3.6 8-8 8zm28-19.3l-14.4 2.9c-2.8-4.6-7.9-7.6-13.6-7.6-5.9 0-11.1 3.2-13.8 8H89.8c-2.8-4.8-7.9-8-13.8-8-6 0-11.3 3.3-14 8.3-1.2-2.1-2.8-3.9-4.7-5.3 4.8-6 7.6-16.8 10.6-27.9 2.9-10.8 7.2-27 12.1-27h52v27.2l36 8v21.4z" fill="rgba(0,0,0,1)"/></svg>
