<?xml version="1.0" encoding="UTF-8"?>
<svg xmlns="http://www.w3.org/2000/svg" viewBox="0 0 192 192"><circle cx="56" cy="52" r="4" fill="rgba(0,0,0,1)"/><path d="M75.8 32.2c-10.9-10.9-28.7-10.9-39.6 0l-5.7-5.7c14-14 36.9-14 50.9 0l-5.6 5.7z" fill="rgba(0,0,0,1)"/><path d="M64.5 43.5C62.2 41.2 59.2 40 56 40s-6.2 1.2-8.5 3.5l-5.7-5.7C45.6 34.1 50.7 32 56 32s10.4 2.1 14.1 5.9l-5.6 5.6zM67.3 48c.9 2.6.9 5.4 0 8H168v80H40V56h4.7c-.9-2.6-.9-5.4 0-8H32v8H16v80h16v8h32v16h8v-16h64v16h8v-16h32V48H67.3zM32 128h-8V64h8v64z" fill="rgba(0,0,0,1)"/></svg>
