<?xml version="1.0" encoding="UTF-8"?>
<svg xmlns="http://www.w3.org/2000/svg" viewBox="0 0 192 192"><path d="M114.8 101.8c-12.2 5.1-18.1 19.1-13 31.4 3.8 9.2 12.8 14.8 22.2 14.8 3.1 0 6.2-.6 9.2-1.8 12.2-5.1 18.1-19.1 13-31.4-5.1-12.2-19.2-18-31.4-13zm15.3 37c-8.2 3.4-17.5-.5-20.9-8.7-3.4-8.2.5-17.5 8.7-20.9 2-.8 4.1-1.2 6.1-1.2 6.3 0 12.3 3.7 14.8 9.9 3.4 8.1-.5 17.5-8.7 20.9z" fill="rgba(0,0,0,1)"/><path d="M167.8 127.9c.2-2.6.2-5.3 0-7.9l7.2-6.5-.6-2.3c-.6-2.5-1.4-4.9-2.4-7.1-.9-2.3-2.1-4.6-3.4-6.7l-1.2-2.1-9.7.5c-1.7-2-3.5-3.9-5.6-5.6l.5-9.7-2.1-1.2c-4.3-2.6-9-4.5-13.9-5.7l-2.3-.6-6.5 7.2c-2.6-.2-5.3-.2-7.9 0l-6.5-7.2-2.3.6c-2.5.6-4.9 1.4-7.1 2.4-2.3.9-4.6 2.1-6.7 3.4l-2.1 1.2.5 9.7c-2 1.7-3.9 3.5-5.6 5.6l-9.7-.5-1.2 2.1c-2.6 4.3-4.5 9-5.7 13.9l-.6 2.3 7.2 6.5c-.2 2.6-.2 5.3 0 7.9l-7.2 6.5.6 2.3c.6 2.5 1.4 4.9 2.4 7.1.9 2.3 2.1 4.6 3.4 6.7l1.2 2.1 9.7-.5c1.7 2 3.5 3.9 5.6 5.6l-.5 9.7 2.1 1.2c4.3 2.6 9 4.5 13.9 5.7l2.3.6 6.5-7.2c2.6.2 5.3.2 7.9 0l6.5 7.2 2.3-.6c2.5-.6 4.9-1.4 7.1-2.4 2.3-.9 4.6-2.1 6.7-3.4l2.1-1.2-.5-9.7c2-1.7 3.9-3.5 5.6-5.6l9.7.5 1.2-2.1c2.6-4.3 4.5-9 5.7-13.9l.6-2.3-7.2-6.5zm-4.8 16.6l-9-.5-1.3 1.7c-2 2.7-4.4 5-7 7L144 154l.5 8.9c-1.2.6-2.4 1.2-3.6 1.7-1.2.5-2.5 1-3.8 1.4l-6-6.6-2.1.3c-3.3.5-6.6.5-9.9 0l-2.1-.3-6 6.7c-2.6-.8-5-1.8-7.4-3.1l.5-9-1.7-1.3c-2.7-2-5-4.4-7-7L94 144l-8.9.5c-.6-1.2-1.2-2.4-1.7-3.6-.5-1.2-1-2.5-1.4-3.8l6.6-6-.3-2.1c-.5-3.3-.5-6.6 0-9.9l.3-2.1-6.7-6c.8-2.6 1.8-5 3.1-7.4l9 .5 1.3-1.7c2-2.7 4.4-5 7-7L104 94l-.5-8.9c1.2-.6 2.4-1.2 3.6-1.7 1.2-.5 2.5-1 3.8-1.4l6 6.6 2.1-.3c3.3-.5 6.6-.5 9.9 0l2.1.3 6-6.7c2.6.8 5 1.8 7.4 3.1l-.5 9 1.7 1.3c2.7 2 5 4.4 7 7l1.3 1.7 8.9-.5c.6 1.2 1.2 2.4 1.7 3.6.5 1.2 1 2.5 1.4 3.8l-6.6 6 .3 2.1c.5 3.3.5 6.6 0 9.9l-.3 2.1 6.7 6c-.8 2.6-1.8 5.1-3 7.5zM56 40c-8.8 0-16 7.2-16 16s7.2 16 16 16 16-7.2 16-16-7.2-16-16-16zm0 24c-4.4 0-8-3.6-8-8s3.6-8 8-8 8 3.6 8 8-3.6 8-8 8z" fill="rgba(0,0,0,1)"/><path d="M78.6 89c4.1-2.8 7.6-6.3 10.4-10.4l1.6-2.3-5.2-7.6c.2-.4.3-.7.4-1.1l9-1.7.5-2.7c.5-2.4.7-4.9.7-7.3s-.2-4.9-.7-7.3l-.5-2.6-9-1.7c-.1-.4-.3-.7-.4-1.1l5.2-7.6-1.6-2.2c-2.8-4.1-6.3-7.6-10.4-10.4l-2.3-1.6-7.6 5.2c-.4-.2-.7-.3-1.1-.4l-1.7-9-2.7-.5c-4.9-.9-9.8-.9-14.7 0l-2.5.5-1.7 9c-.4.1-.7.3-1.1.4l-7.6-5.2-2.2 1.6c-4.1 2.8-7.6 6.3-10.4 10.4l-1.6 2.3 5.2 7.6c-.2.4-.3.7-.4 1.1l-9 1.7-.5 2.7c-.5 2.3-.7 4.8-.7 7.2s.2 4.9.7 7.3l.5 2.7 9 1.7c.1.4.3.7.4 1.1l-5.2 7.6 1.6 2.3c2.8 4.1 6.3 7.6 10.4 10.4l2.3 1.6 7.6-5.2c.4.2.7.3 1.1.4l1.7 9 2.7.5c2.4.5 4.9.7 7.3.7s4.9-.2 7.3-.7l2.7-.5 1.7-9c.4-.1.7-.3 1.1-.4l7.6 5.2 2.1-1.7zm-9.2-12.9l-2.1 1.1c-1.4.7-2.8 1.3-4.2 1.8l-2.3.7-1.5 8.2c-2.1.2-4.2.2-6.4 0l-1.5-8.2L49 79c-1.5-.4-2.8-1-4.2-1.8l-2.1-1.1-6.8 4.7c-1.7-1.4-3.2-2.9-4.5-4.5l4.7-6.8-1.1-2.1c-.7-1.4-1.3-2.8-1.8-4.2l-.7-2.3-8.2-1.5c-.2-1.3-.3-2.3-.3-3.4s.1-2.1.2-3.2l8.2-1.5.6-2.3c.4-1.5 1-2.9 1.8-4.2l1.1-2.1-4.7-6.8c1.4-1.7 2.9-3.2 4.5-4.5l6.8 4.7 2.1-1.1c1.4-.7 2.8-1.3 4.2-1.8l2.3-.7 1.5-8.2c2.1-.2 4.2-.2 6.4 0l1.5 8.2 2.5.5c1.5.4 2.9 1 4.2 1.8l2.1 1.1 6.8-4.7c1.7 1.4 3.2 2.9 4.5 4.5l-4.7 6.8 1.1 2.1c.7 1.4 1.3 2.8 1.8 4.2l.7 2.3 8.2 1.5c.1 1.1.2 2.1.2 3.2s-.1 2.1-.2 3.2l-8.2 1.5L79 63c-.4 1.5-1 2.9-1.8 4.2l-1.1 2.1 4.7 6.8c-1.4 1.7-2.9 3.2-4.5 4.5l-6.9-4.5z" fill="rgba(0,0,0,1)"/></svg>
