<?xml version="1.0" encoding="UTF-8"?>
<svg xmlns="http://www.w3.org/2000/svg" viewBox="0 0 192 192"><path d="M116 160H88c-17.6 0-32-14.4-32-32v-4h60v8H64.3c1.9 11.3 11.8 20 23.7 20h28v8zM144 160h-28v-8h28c11.9 0 21.8-8.7 23.7-20H116v-8h60v4c0 17.6-14.4 32-32 32z" fill="rgba(0,0,0,1)"/><path d="M161.7 128.2l-7.7-2.3c.6-1.9.9-3.8.9-5.8 0-11-9-20-20-20s-20 9-20 20c0 2 .3 3.9.8 5.7l-7.7 2.3c-.8-2.6-1.2-5.3-1.2-8 0-15.4 12.6-28 28-28s28 12.6 28 28c.1 2.7-.3 5.4-1.1 8.1z" fill="rgba(0,0,0,1)"/><path d="M146.7 101.1c-6.6 0-11.9-2.1-12.2-2.2l-3.8-1.5 1.6-3.8c.2-.5 5.1-11.4 15.3-15.6 10.2-4.2 21.4.3 21.8.5l3.8 1.5-1.6 3.8c-.2.5-5.1 11.4-15.3 15.6-3.2 1.3-6.5 1.7-9.6 1.7zm-4.6-8.4c3.1.6 7.4.8 11.2-.8 3.8-1.6 6.7-4.7 8.6-7.3-3.1-.6-7.4-.8-11.2.8-3.9 1.6-6.7 4.7-8.6 7.3z" fill="rgba(0,0,0,1)"/><g><path d="M56 152H34l-9.5-88h43.1L62 116h8l6.4-60H15.5L26 152.8c.5 4.2 3.1 7.2 6.5 7.2h26.9c1.2 0 2.3-.4 3.3-1-2.5-2.1-4.7-4.4-6.7-7z" fill="rgba(0,0,0,1)"/></g></svg>
