<?xml version="1.0" encoding="UTF-8"?>
<svg xmlns="http://www.w3.org/2000/svg" viewBox="0 0 192 192"><path d="M144 32v8c13.233 0 24 10.766 24 24v42.868C162.132 100.211 153.551 96 144 96c-12.547 0-23.425 7.262-28.666 17.801C110.961 107.862 103.924 104 96 104s-14.961 3.862-19.334 9.801C71.425 103.262 60.547 96 48 96c-9.551 0-18.132 4.211-24 10.868V64c0-13.234 10.766-24 24-24v-8c-17.645 0-32 14.355-32 32v64c0 17.645 14.355 32 32 32s32-14.355 32-32c0-8.822 7.178-16 16-16s16 7.178 16 16c0 17.645 14.355 32 32 32s32-14.355 32-32V64c0-17.645-14.355-32-32-32zM48 152c-13.234 0-24-10.766-24-24s10.766-24 24-24c13.233 0 24 10.766 24 24s-10.767 24-24 24zm96 0c-13.233 0-24-10.766-24-24s10.767-24 24-24 24 10.766 24 24-10.767 24-24 24z" fill="rgba(0,0,0,1)"/></svg>
