<?xml version="1.0" encoding="UTF-8"?>
<svg xmlns="http://www.w3.org/2000/svg" viewBox="0 0 192 192"><path d="M172.58 156.06l-39.75-39.75a34 34 0 1 0-16.52 16.53l39.75 39.74a11.68 11.68 0 0 0 16.52-16.52zM76 102a26 26 0 1 1 26 26 26 26 0 0 1-26-26zm90.92 64.91a3.77 3.77 0 0 1-5.2 0l-38.44-38.41a34.28 34.28 0 0 0 5.21-5.21l38.43 38.43a3.68 3.68 0 0 1 0 5.2z" fill="rgba(0,0,0,1)"/><path d="M131 158.86a71.67 71.67 0 0 1-11.6 5.21 60.08 60.08 0 0 0 7-9.81l-6-6c-5.54 10.39-12.66 17.42-20.44 19.23V144a41.16 41.16 0 0 1-8-1.17v24.74C74.29 163.39 60 132.33 60 96s14.29-67.39 32-71.52v36.75a41.19 41.19 0 0 1 8-1.17V24.48c13.33 3.11 24.72 21.47 29.54 45.86a42.25 42.25 0 0 1 9.9 12.66c-2-23.46-9.47-43.22-20-55.07A72.13 72.13 0 0 1 167.88 92h-25.09a41.82 41.82 0 0 1 1.16 8h23.93a71.47 71.47 0 0 1-9 31l5.86 5.86a80.08 80.08 0 1 0-27.83 27.83zM72.58 27.93C60.71 41.27 52.77 64.62 52.06 92H24.12a72.13 72.13 0 0 1 48.46-64.07zM24.12 100h27.94c.71 27.38 8.65 50.73 20.52 64.07A72.13 72.13 0 0 1 24.12 100z" fill="rgba(0,0,0,1)"/><path d="M100 92v-7.87a17.88 17.88 0 0 0-8 2.93V92h-5a17.88 17.88 0 0 0-2.93 8H92v17a17.88 17.88 0 0 0 8 2.93V100h19.88a17.88 17.88 0 0 0-2.88-8z" fill="rgba(0,0,0,1)"/></svg>
