<?xml version="1.0" encoding="UTF-8"?>
<svg xmlns="http://www.w3.org/2000/svg" viewBox="0 0 192 192"><path d="M96 47.9c-26.5 0-48.1 21.6-48.1 48.1s21.6 48.1 48.1 48.1 48.1-21.6 48.1-48.1S122.5 47.9 96 47.9zM135.9 92h-12.8c-.6-12.6-3.7-23.6-8.6-31.5 11.7 6.1 20 17.8 21.4 31.5zM92 56.8V92H76.9c.9-15.5 6.7-31.3 15.1-35.2zm0 43.2v35.2c-8.4-3.9-14.2-19.7-15.1-35.2H92zm8 35.2V100h15.1c-.9 15.5-6.7 31.3-15.1 35.2zm0-43.2V56.8c8.4 3.9 14.2 19.7 15.1 35.2H100zM77.5 60.5c-4.9 7.9-8 19-8.6 31.5H56.1c1.4-13.7 9.7-25.4 21.4-31.5zM56.1 100h12.8c.6 12.6 3.7 23.6 8.6 31.5-11.7-6.1-20-17.8-21.4-31.5zm58.4 31.5c4.9-7.9 8-19 8.6-31.5h12.8c-1.4 13.7-9.7 25.4-21.4 31.5zM103.6 167.6l.8 8c7.6-.8 15.1-2.7 22.1-5.6l-3.1-7.4c-6.3 2.6-13 4.3-19.8 5zM130.1 159.4l3.8 7c7-3.8 13.4-8.5 18.9-14.2l-5.7-5.6c-5 5.2-10.7 9.5-17 12.8zM151.8 141.5l6.2 5.1c4.9-6.1 9-12.8 11.9-20l-7.4-3.1c-2.6 6.5-6.2 12.5-10.7 18zM168 96c0 7.1-1 14.1-3.1 20.8l7.7 2.3c2.3-7.5 3.4-15.3 3.4-23.2h-8z" fill="rgba(0,0,0,1)"/><path d="M24 96c0-39.7 32.3-72 72-72 18.4 0 34.8 6.9 47.8 20H132v8h24V28h-8v8.9C133.7 23.2 116 16 96 16c-44.1 0-80 35.9-80 80s35.9 80 80 80v-8c-39.7 0-72-32.3-72-72z" fill="rgba(0,0,0,1)"/></svg>
