<?xml version="1.0" encoding="UTF-8"?>
<svg xmlns="http://www.w3.org/2000/svg" viewBox="0 0 192 192"><path d="M101.7 152H24v-8h76.2c-.1-1.3-.2-2.7-.2-4 0-1.3.1-2.7.2-4H84V76h24v38.7c2.3-3.2 5-6.1 8-8.7V76h16v21.7c2.6-.7 5.3-1.2 8-1.5V76h16v21.7c2.8.8 5.5 1.8 8 3.1V76h12V57.1L96 31.8 16 56.7V76h12v60H16v24h88.8c-1.3-2.5-2.3-5.2-3.1-8zM52 136H36V76h16v60zm24 0H60V76h16v60zM24 68v-5.4l72-22.4 72 22.7V68H24zm156 72.2c0-19.7-16-35.8-35.7-36.1h-.3H143.7c-19.7 0-35.7 16.2-35.7 36.2 0 19.8 16.1 35.8 36 35.8 19.9-.1 36-16.2 36-35.9zm-8.3-4.2h-11.8c-.4-7.8-1.8-15.4-4.2-21.2 8.3 4 14.5 11.9 16 21.2zM144 168c-2.1 0-7.2-8.4-7.9-24h15.8c-.7 15.6-5.8 24-7.9 24zm-7.9-32c.7-15.5 5.7-23.8 7.8-24h.2c2.2.2 7.1 8.6 7.8 24h-15.8zm-3.7-21.6c-2.5 5.9-4 13.6-4.3 21.6h-11.8c1.4-9.6 7.6-17.7 16.1-21.6zM116.3 144h11.8c.4 7.9 1.8 15.6 4.3 21.5-8.6-3.9-14.8-11.9-16.1-21.5zm39.3 21.5c2.5-5.9 3.9-13.6 4.3-21.5h11.8c-1.3 9.6-7.5 17.6-16.1 21.5z" fill="rgba(0,0,0,1)"/></svg>
