<?xml version="1.0" encoding="UTF-8"?>
<svg xmlns="http://www.w3.org/2000/svg" viewBox="0 0 192 192"><path d="M140 157.7l-10.8-10.8 5.7-5.7 5.2 5.2 13.2-13.2 5.7 5.7-19 18.8zm36-13.7c0-17.6-14.4-32-32-32s-32 14.4-32 32 14.4 32 32 32 32-14.4 32-32zm-8 0c0 13.2-10.8 24-24 24s-24-10.8-24-24 10.8-24 24-24 24 10.8 24 24zm-51.2 29.3c-6.6 1.8-13.6 2.7-20.8 2.7-44.1 0-80-35.9-80-80s35.9-80 80-80 80 35.9 80 80c0 7.2-1 14.1-2.7 20.8-2-2.2-4.3-4.2-6.8-5.9.7-3.5 1.2-7.2 1.4-10.9H140c0 1.4-.1 2.8-.2 4.2-2.8.3-5.5.9-8.1 1.7l.3-6h-32v67.5c3.1-.7 6-2.2 8.8-4.5 2.1 4 4.8 7.4 8 10.4zm2.6-145.4c11.9 13.3 19.8 36.7 20.5 64.1h27.9c-1.6-29.8-21.3-54.7-48.4-64.1zM100 92h31.9c-1-34.6-14.9-63.5-31.9-67.5V92zm-75.9 0H52c.7-27.4 8.7-50.7 20.5-64.1-27 9.4-46.7 34.3-48.4 64.1zm48.5 72.1c-11.9-13.3-19.8-36.7-20.5-64.1h-28c1.7 29.8 21.4 54.7 48.5 64.1zM92 100H60.1c1 34.6 14.9 63.5 31.9 67.5V100zm0-75.5c-17.1 4-30.9 32.9-31.9 67.5H92V24.5zm43.5 106l.3.3c0-.2.1-.4.1-.6-.1.1-.3.2-.4.3z" fill="rgba(0,0,0,1)"/></svg>
