<?xml version="1.0" encoding="UTF-8"?>
<svg xmlns="http://www.w3.org/2000/svg" viewBox="0 0 192 192"><path d="M172 144V76h-16v-4c0-6.6-5.4-12-12-12s-12 5.4-12 12v4h-8c0-14.1-10.4-25.8-24-27.7V40h29.7l-12-12 12-12H92v32.3C78.4 50.2 68 61.9 68 76h-8v-4c0-6.6-5.4-12-12-12s-12 5.4-12 12v4H20v68h-4v24h160v-24h-4zm-32-72c0-2.2 1.8-4 4-4s4 1.8 4 4v4h-8v-4zm-29.7-48l-4 4 4 4H100v-8h10.3zM96 56c11 0 20 9 20 20H76c0-11 9-20 20-20zM44 72c0-2.2 1.8-4 4-4s4 1.8 4 4v4h-8v-4zM28 84h136v60H28V84zm140 76H24v-8h144v8z" fill="rgba(0,0,0,1)"/><path d="M112 92c-6.6 0-12 5.4-12 12v32h24v-32c0-6.6-5.4-12-12-12zm4 36h-8v-24c0-2.2 1.8-4 4-4s4 1.8 4 4v24zM48 92c-6.6 0-12 5.4-12 12v32h24v-32c0-6.6-5.4-12-12-12zm4 36h-8v-24c0-2.2 1.8-4 4-4s4 1.8 4 4v24zM144 92c-6.6 0-12 5.4-12 12v32h24v-32c0-6.6-5.4-12-12-12zm4 36h-8v-24c0-2.2 1.8-4 4-4s4 1.8 4 4v24zM80 92c-6.6 0-12 5.4-12 12v32h24v-32c0-6.6-5.4-12-12-12zm4 36h-8v-24c0-2.2 1.8-4 4-4s4 1.8 4 4v24z" fill="rgba(0,0,0,1)"/></svg>
