<?xml version="1.0" encoding="UTF-8"?>
<svg xmlns="http://www.w3.org/2000/svg" viewBox="0 0 192 192"><path d="M142.824 33.17l-12-12c-7.41-7.42-24.92 2.07-40.85 15.83l5.66 5.66c5.97-5.11 11.89-9.33 17.24-12.25 8.45-4.61 11.9-3.98 12.3-3.58.4.4 1.02 3.85-3.58 12.29-2.92 5.35-7.14 11.26-12.27 17.23-2.5 2.95-5.24 5.91-8.15 8.82s-5.87 5.65-8.81 8.16c-5.97 5.12-11.89 9.34-17.24 12.26-8.44 4.61-11.89 3.99-12.3 3.58-.4-.4-1.02-3.85 3.59-12.29 2.92-5.35 7.14-11.27 12.26-17.24l-5.68-5.68c-5.66 6.56-10.35 13.12-13.61 19.08-5.62 10.31-6.36 17.64-2.21 21.79l12 12c1.79 1.79 4.16 2.59 6.96 2.59 8.81 0 21.81-7.98 33.9-18.42 3.01-2.6 5.97-5.35 8.79-8.17 2.82-2.82 5.58-5.78 8.18-8.8 13.75-15.93 23.24-33.45 15.82-40.86zm-9.23 17.95c-2.92 5.35-7.14 11.26-12.27 17.23-2.5 2.95-5.24 5.91-8.15 8.82s-5.87 5.65-8.81 8.16c-5.97 5.12-11.89 9.34-17.24 12.26-8.44 4.61-11.89 3.98-12.3 3.58l-4.73-4.73c8.19-2.43 18.35-9.16 27.94-17.44 3.01-2.59 5.97-5.35 8.79-8.17 2.82-2.83 5.58-5.79 8.18-8.8 8.28-9.59 15-19.76 17.43-27.94l4.74 4.74c.4.4 1.02 3.85-3.58 12.29z" fill="rgba(0,0,0,1)"/><path d="M127.284 85.63c-.92.96-1.85 1.91-2.8 2.86-.94.94-1.89 1.87-2.86 2.79l17.02 17.02c-10.66 12.56-26.01 19.7-42.64 19.7-30.88 0-56-25.12-56-56 0-16.62 7.14-31.98 19.7-42.64l12.86 12.86 6.09 6.08 10.92 10.92v.01l3.07 3.07c.96-.9 1.92-1.84 2.87-2.79.96-.95 1.89-1.91 2.79-2.86l-37.93-37.93-2.77 2.08c-16.27 12.22-25.6 30.88-25.6 51.2 0 33.944 26.566 61.787 59.996 63.862V176h8v-40.127c18.756-1.14 35.79-10.276 47.204-25.473l2.08-2.77-22-22z" fill="rgba(0,0,0,1)"/></svg>
