<?xml version="1.0" encoding="UTF-8"?>
<svg xmlns="http://www.w3.org/2000/svg" viewBox="0 0 192 192"><path d="M148 64c-1.4 0-2.7.3-4 .7V56c0-6.6-5.4-12-12-12-1.4 0-2.7.3-4 .7V44c0-6.6-5.4-12-12-12s-12 5.4-12 12v4.7c-1.3-.4-2.6-.7-4-.7-6.6 0-12 5.4-12 12v48.1c-3.6-4.8-7.5-10-9-11.7-4.4-5.2-10.8-7-16.2-4.5-5.5 2.5-7.4 8.3-7.6 8.9l-.4 1.4 21.4 48.5C83.4 166.1 99 176 116 176c24.3 0 44-19.7 44-44V76c0-6.6-5.4-12-12-12zm4 46v22c0 19.9-16.1 36-36 36-13.9 0-26.7-8.1-32.6-20.6l-20-45.4c.5-.9 1.4-2.2 2.7-2.8 2.6-1.2 5.2.5 6.9 2.4 2.2 2.5 11.2 14.7 15.6 20.8l1.2 1.6H96V60c0-2.2 1.8-4 4-4s4 1.8 4 4v40h8V44c0-2.2 1.8-4 4-4s4 1.8 4 4v56h8V56c0-2.2 1.8-4 4-4s4 1.8 4 4v44h8V76c0-2.2 1.8-4 4-4s4 1.8 4 4v34z" fill="rgba(0,0,0,1)"/><path fill="none" d="M56 60c0 11 9 20 20 20 1.3 0 2.7-.1 4-.4V60c0-6.5 3.2-12.3 8-16-3.4-2.6-7.6-4-12-4-11 0-20 9-20 20z"/><path fill="none" d="M40 60c0 11.2 5.1 21.5 13.9 28.4 2-1.9 4.4-3.5 7.2-4.5.1 0 .2-.1.3-.1C53.4 78.9 48 70.1 48 60c0-15.4 12.6-28 28-28 7.5 0 14.5 2.9 19.8 8.2l-.3.3c.3-.1.5-.1.8-.2.5-2.8 1.6-5.4 3.1-7.6C93 27.1 84.7 24 76 24c-19.9 0-36 16.1-36 36z"/><path d="M40 60c0-19.9 16.1-36 36-36 8.7 0 17 3.1 23.5 8.7 1.5-2.2 3.5-4.1 5.8-5.6C97.2 20 86.9 16 76 16c-24.3 0-44 19.7-44 44 0 13.8 6.2 26.4 17.1 34.8 1.2-2.3 2.8-4.5 4.8-6.4C45.1 81.5 40 71.2 40 60z" fill="rgba(0,0,0,1)"/><path d="M76 32c-15.4 0-28 12.6-28 28 0 10.1 5.4 18.9 13.4 23.9 6.2-2.1 13-1 18.6 2.8v-7c-1.3.3-2.7.4-4 .4-11 0-20-9-20-20s9-20 20-20c4.4 0 8.6 1.4 12 4 2.2-1.7 4.8-2.9 7.5-3.5l.3-.3C90.5 34.9 83.5 32 76 32z" fill="rgba(0,0,0,1)"/></svg>
