<?xml version="1.0" encoding="UTF-8"?>
<svg xmlns="http://www.w3.org/2000/svg" viewBox="0 0 192 192"><path d="M144 112c-17.6 0-32 14.4-32 32s14.4 32 32 32 32-14.4 32-32-14.4-32-32-32zm0 56c-13.2 0-24-10.8-24-24s10.8-24 24-24 24 10.8 24 24-10.8 24-24 24z" fill="rgba(0,0,0,1)"/><path d="M148 128h-8v12h-12v8h12v12h8v-12h12v-8h-12zM133.9 82.1h-33.3l-2.3-1.4c1.1-.9 2.1-1.9 2.9-3.2l5.3-7.9-3.4-2.2c-.2-.1-22.1-14.6-25.1-16.7-4.4-3.2-9.7-3.3-13-2-1.5.6-9.4 2.8-14.4 4.2h-11c-1.4-5.1-6-8.9-11.6-8.9-6.6 0-12 5.4-12 12v24c0 6.6 5.4 12 12 12 5.8 0 10.6-4.1 11.7-9.5h10.5L86.9 104H144V92.3c0-5.6-4.5-10.2-10.1-10.2zM28 84c-2.2 0-4-1.8-4-4V56c0-2.2 1.8-4 4-4s4 1.8 4 4v24c0 2.2-1.8 4-4 4zm108 12H89.1L52.4 74.5H40V60.9h11.8l.5-.1c1.4-.4 13.3-3.7 15.7-4.6 1-.4 3.4-.3 5.4 1.1C75.8 59 89 67.8 95.4 72l-.8 1.2c-1.6 2.3-3.6 3-5.9 1.9l-20-12.2-4.2 6.8L84 81.4c.3.2.6.3.9.5l13.5 8.2h35.5c1.2 0 2.1 1 2.1 2.2V96z" fill="rgba(0,0,0,1)"/></svg>
