<?xml version="1.0" encoding="UTF-8"?>
<svg xmlns="http://www.w3.org/2000/svg" viewBox="0 0 192 192"><path d="M53.9 88.4c-2 1.9-3.6 4.1-4.8 6.4C38.2 86.4 32 73.8 32 60c0-24.3 19.7-44 44-44 10.9 0 21.2 4 29.3 11.2-2.3 1.5-4.2 3.3-5.8 5.6C93 27.1 84.7 24 76 24c-19.9 0-36 16.1-36 36 0 11.2 5.1 21.5 13.9 28.4zM76 32c-15.4 0-28 12.6-28 28 0 10.1 5.4 18.9 13.4 23.9 6.2-2.1 13-1 18.6 2.8v-7c-1.3.3-2.7.4-4 .4-11 0-20-9-20-20s9-20 20-20c4.4 0 8.6 1.4 12 4 2.2-1.7 4.8-2.9 7.5-3.5l.3-.3C90.5 34.9 83.5 32 76 32zm97.7-2.3l-11.3-11.3-144 144 11.3 11.3 144-144zM128 100V86.6l-8 8v5.4h8zM96 60c0-2.2 1.8-4 4-4s4 1.8 4 4v5.4l8-8V44c0-2.2 1.8-4 4-4s4 1.8 4 4v5.4l7.8-7.8c-1.1-5.5-6-9.6-11.8-9.6-6.6 0-12 5.4-12 12v4.7c-1.3-.4-2.6-.7-4-.7-6.6 0-12 5.4-12 12v21.4l8-8V60zm-32.6 42c.5-.9 1.4-2.2 2.7-2.8 1.3-.6 2.7-.4 3.9.1l5.8-5.8c-4-2.8-8.8-3.5-13-1.6-5.5 2.5-7.4 8.3-7.6 8.9l-.4 1.4 3.8 8.6 6.1-6.1-1.3-2.7zm87-37.8L136 78.6V100h8V76c0-2.2 1.8-4 4-4s4 1.8 4 4v56c0 19.9-16.1 36-36 36-13.9 0-26.7-8.1-32.6-20.6l-5-11.2-6.1 6.1 3.8 8.5C83.4 166.1 99 176 116 176c24.3 0 44-19.7 44-44V76c0-5.8-4.1-10.7-9.6-11.8z" fill="rgba(0,0,0,1)"/></svg>
