<?xml version="1.0" encoding="UTF-8"?>
<svg xmlns="http://www.w3.org/2000/svg" viewBox="0 0 192 192"><path d="M164 176c-6.6 0-12-5.4-12-12v-4h-16v4c0 6.6-5.4 12-12 12s-12-5.4-12-12 5.4-12 12-12h4v-16h-4c-6.6 0-12-5.4-12-12s5.4-12 12-12 12 5.4 12 12v4h16v-4c0-6.6 5.4-12 12-12s12 5.4 12 12c0 6.4-6.1 12-13 12h-3v16h4c6.6 0 12 5.4 12 12s-5.4 12-12 12zm-4-16v4c0 2.2 1.8 4 4 4s4-1.8 4-4-1.8-4-4-4h-4zm-36 0c-2.2 0-4 1.8-4 4s1.8 4 4 4 4-1.8 4-4v-4h-4zm12-8h16v-16h-16v16zm24-24h3c2.4 0 5-2.1 5-4 0-2.2-1.8-4-4-4s-4 1.8-4 4v4zm-36-8c-2.2 0-4 1.8-4 4s1.8 4 4 4h4v-4c0-2.2-1.8-4-4-4zm-19.7 47c-2.7.6-5.4 1-8.3 1-25.4 0-36.3-11.2-43.7-22.2l-.1-.1c-9.9-13.6-26-35.8-27.5-38.4-.3-.6-.7-2.2-.7-3.2 0-4.4 3.6-8 8-8 1.9 0 3.8.7 5.2 1.9L60 122.1V42c0-3.3 2.7-6 6-6s6 2.7 6 6v51h8V30c0-3.3 2.7-6 6-6s6 2.7 6 6v62h8V38c0-3.3 2.7-6 6-6s6 2.7 6 6v54h8V54c0-3.3 2.7-6 6-6s6 2.7 6 6v51.7c3.2 1.4 5.9 3.6 8 6.3V54c0-7.7-6.3-14-14-14-2.1 0-4.2.5-6 1.4V38c0-7.7-6.3-14-14-14-2.4 0-4.7.6-6.7 1.7C97.5 20.1 92.2 16 86 16c-7.5 0-13.6 6-14 13.4-1.8-.9-3.9-1.4-6-1.4-7.7 0-14 6.3-14 14v59.9l-9.1-9.6-.2-.2c-3-2.7-6.8-4.1-10.7-4.1-8.8 0-16 7.2-16 16 0 2.6.9 5.4 1.4 6.7.9 2 15.9 22.6 28.3 39.6 8 12 21 25.7 50.3 25.7 3.8 0 7.5-.5 11.1-1.4-1.5-2.3-2.4-4.8-2.8-7.6z" fill="rgba(0,0,0,1)"/></svg>
