<?xml version="1.0" encoding="UTF-8"?>
<svg xmlns="http://www.w3.org/2000/svg" viewBox="0 0 192 192"><path d="M61.3 84.8l-2.2-3.4-9.4 6.3c-2 1.4-3.6 3.1-4.8 5L42 87.9V44c0-6.6-5.4-12-12-12H16v73.1l28 48V176h36v-23.5c1.9-6.8 4.8-17.1 5.6-19.1 1.5-4 1.4-10.4-2.5-15.8-2.8-3.8-21.6-32.5-21.8-32.8zm16.8 45.8c-1.2 3.1-5.5 18.6-6 20.4l-.1.5V168H52v-17.1l-28-48V40h6c2.2 0 4 1.8 4 4v46.1l26.6 44 6.8-4.1L51 102.9l.2-.2c-.8-1.2-1-2.5-.5-4 .5-1.6 1.8-3.2 3.5-4.4l2.6-1.8c5.1 7.8 17.4 26.5 19.7 29.7 2.2 3.1 2.2 6.7 1.6 8.4zM162 32c-6.6 0-12 5.4-12 12v43.9l-2.9 4.8c-1.2-1.9-2.9-3.6-4.9-5l-9.3-6.3-2.2 3.4c-.2.3-19 29-21.8 32.9-3.8 5.4-4 11.8-2.5 15.8.8 2 3.7 12.3 5.6 19.1V176h36v-22.9l28-48V32h-14zm6 70.9l-28 48V168h-20v-16.5l-.1-.5c-.5-1.8-4.8-17.3-6-20.4-.6-1.6-.6-5.3 1.5-8.2 2.3-3.2 14.6-21.9 19.7-29.7l2.6 1.7c1.7 1.2 3 2.8 3.5 4.4.5 1.5.3 2.8-.5 4l.2.2-16.4 27.1 6.8 4.1 26.6-44V44c0-2.2 1.8-4 4-4h6l.1 62.9zM128 33.4L96 19.6 64 33.4v37.3l32 13.7 32-13.7V33.4zM113.8 36L96 43.6 78.2 36 96 28.4l17.8 7.6zM72 42.1l20 8.6V74l-20-8.6V42.1zm28 31.8V50.6l20-8.6v23.3l-20 8.6z" fill="rgba(0,0,0,1)"/></svg>
