<?xml version="1.0" encoding="UTF-8"?>
<svg xmlns="http://www.w3.org/2000/svg" viewBox="0 0 192 192"><path d="M60 120c-1.7 0-3.3-1.1-3.8-2.7L49.1 96H20v-8h32c1.7 0 3.3 1.1 3.8 2.7l4.2 12.6 12.2-36.6c.5-1.6 2.1-2.7 3.8-2.7s3.3 1.1 3.8 2.7L88 91.4l4.2-12.6c.5-1.6 2.1-2.7 3.8-2.7s3.3 1.1 3.8 2.7l3.1 9.3H120v8h-20c-1.7 0-3.3-1.1-3.8-2.7l-.2-.8-4.2 12.6c-.5 1.6-2.1 2.7-3.8 2.7s-3.3-1.1-3.8-2.7L76 80.6l-12.2 36.6c-.5 1.7-2.1 2.8-3.8 2.8z" fill="rgba(0,0,0,1)"/><path d="M129.8 24c-13 0-25.1 5.3-33.8 14.7C87.3 29.3 75.2 24 62.2 24 36.7 24 16 44.8 16 70.4c0 3.2.2 6.5.5 9.6h8c-.4-3.1-.6-6.3-.6-9.6C24 49.2 41.1 32 62.2 32c12.1 0 23.3 5.6 30.6 15.3l3.2 4.3 3.2-4.3c7.3-9.7 18.4-15.3 30.6-15.3 21.1 0 38.2 17.2 38.2 38.4 0 26.8-12.3 51.4-36.5 73.1-15.2 13.6-30.6 21.7-35.5 24.1-8.6-4.2-48.6-25.6-65-63.6h-8.6c6.4 16.4 17.5 31.8 32.9 45.6 19.2 17.2 38.2 25.7 39 26.1l1.6.7 1.6-.7c.8-.4 19.8-8.9 39-26.1 25.7-22.9 39.3-50.3 39.3-79.2.2-25.6-20.5-46.4-46-46.4z" fill="rgba(0,0,0,1)"/></svg>
