<?xml version="1.0" encoding="UTF-8"?>
<svg xmlns="http://www.w3.org/2000/svg" viewBox="0 0 192 192"><path d="M96 176.4l-1.6-.7c-.8-.4-19.8-8.9-39-26.1C29.6 126.6 16 99.2 16 70.4 16 44.8 36.7 24 62.2 24c13 0 25.1 5.3 33.8 14.7 8.7-9.4 20.8-14.7 33.8-14.7 25.5 0 46.2 20.8 46.2 46.4 0 28.9-13.6 56.3-39.3 79.2-19.2 17.2-38.2 25.7-39 26.1l-1.7.7zM62.2 32C41.1 32 24 49.2 24 70.4c0 59 61.2 91.9 72 97.2 4.9-2.4 20.3-10.5 35.5-24.1 24.2-21.7 36.5-46.3 36.5-73.1 0-21.1-17.1-38.4-38.2-38.4-12.1 0-23.3 5.6-30.6 15.3L96 51.6l-3.2-4.3C85.5 37.6 74.4 32 62.2 32z" fill="rgba(0,0,0,1)"/></svg>
