<?xml version="1.0" encoding="UTF-8"?>
<svg xmlns="http://www.w3.org/2000/svg" viewBox="0 0 192 192"><path d="M134 104c0 15.8-13.4 26.8-13.5 26.9l2.5 3.1-2.5-3.1 2.5 3.1 2.5 3.1c.7-.5 16.5-13.4 16.5-33.1 0-10.6-3.2-17.9-6.9-24.5l-5.9 5.9c2.7 5.2 4.8 10.9 4.8 18.6zM134.8 22.8l-5.7-5.7c-.5.6-13.1 13.5-13.1 32.9 0 1.1 0 2.2.1 3.3l8.2-8.2c1.9-13.4 10.4-22.2 10.5-22.3zM87.5 130.9L90 134l-2.5-3.1L90 134l2.5 3.1c.7-.5 15.6-12.7 16.5-31.5l-10.7 10.7c-3.9 8.9-10.7 14.5-10.8 14.6zM91 50c0-16 10.7-27.1 10.8-27.2l-5.7-5.7C95.6 17.7 83 30.6 83 50c0 12.3 4.3 20.2 8.7 27.6l5.8-5.8C94 65.6 91 59.3 91 50zM66.4 74.9C62.1 67.7 58 60.9 58 50c0-16 10.7-27.1 10.8-27.2l-5.7-5.7C62.6 17.7 50 30.6 50 50c0 13.1 4.9 21.2 9.6 29.1 4 6.6 7.8 13 8.3 22.4l7.1-7.1c-1.6-7.9-5.1-13.7-8.6-19.5z" fill="rgba(0,0,0,1)"/><g><path d="M18.36 162.326L162.324 18.36l11.313 11.314L29.673 173.64z" fill="rgba(0,0,0,1)"/></g><path d="M46.6 168H160v-8H54.6z" fill="rgba(0,0,0,1)"/></svg>
