<?xml version="1.0" encoding="UTF-8"?>
<svg xmlns="http://www.w3.org/2000/svg" viewBox="0 0 192 192"><path d="M40 152V40h112v72.2c2.8.3 5.5.9 8 1.8V32H32v128h82.1c-.9-2.5-1.5-5.2-1.8-8H40z" fill="rgba(0,0,0,1)"/><path d="M56 56h8v80h-8zM80 56h8v80h-8zM104 56h8v80h-8zM128 56v62.1c2.5-1.7 5.2-3 8-4V56h-8zM16 40h8v16h-8zM154 167.1c2.8-.9 5.4-2.4 7.5-4.4l7.2 4.2c2.7-3 4.8-6.5 6-10.4l-7.2-4.1c.3-1.4.5-2.8.5-4.3s-.2-2.9-.5-4.3l7.2-4.1c-1.2-3.9-3.3-7.4-6-10.4l-7.2 4.2c-2.1-2-4.7-3.5-7.5-4.4v-8.3c-1.9-.4-3.9-.7-6-.7s-4.1.2-6 .7v8.3c-2.8.9-5.4 2.4-7.5 4.4l-7.2-4.2c-2.7 3-4.8 6.5-6 10.4l7.2 4.1c-.3 1.4-.5 2.8-.5 4.3s.2 2.9.5 4.3l-7.2 4.1c1.2 3.9 3.3 7.4 6 10.4l7.2-4.2c2.1 2 4.7 3.5 7.5 4.4v8.3c1.9.4 3.9.7 6 .7s4.1-.2 6-.7v-8.3zM136 148c0-6.6 5.4-12 12-12s12 5.4 12 12-5.4 12-12 12-12-5.4-12-12z" fill="rgba(0,0,0,1)"/></svg>
