<?xml version="1.0" encoding="UTF-8"?>
<svg xmlns="http://www.w3.org/2000/svg" viewBox="0 0 192 192"><path d="M144 176c-17.6 0-32-14.4-32-32s14.4-32 32-32 32 14.4 32 32-14.4 32-32 32zm0-56c-13.2 0-24 10.8-24 24s10.8 24 24 24 24-10.8 24-24-10.8-24-24-24zm12 24l-20-12v24l20-12zm-44-37.8c0-11.3-6.5-20.1-12.8-28.6C93.4 69.8 88 62.4 88 53.8c0-17.6 18.1-30.3 18.3-30.5l-4.5-6.6c-.9.6-21.7 15.2-21.7 37 0 11.3 6.5 20.1 12.8 28.6 5.8 7.8 11.2 15.2 11.2 23.9 0 17.6-18.1 30.3-18.3 30.5L88 140l-2.3-3.3 4.5 6.6c1-.6 21.8-15.2 21.8-37.1zm-48 0c0-11.3-6.5-20.1-12.8-28.6C45.4 69.8 40 62.4 40 53.8c0-17.6 18.1-30.3 18.3-30.5l-4.5-6.6c-1 .6-21.8 15.2-21.8 37.1 0 11.3 6.5 20.1 12.8 28.6C50.6 90.2 56 97.6 56 106.2c0 17.6-18.1 30.3-18.3 30.5L40 140l-2.3-3.3 4.5 6.6c1-.6 21.8-15.2 21.8-37.1zm87.9-1.4c2.8.6 5.5 1.4 8 2.5v-1.1c0-11.3-6.5-20.1-12.8-28.6-5.8-7.8-11.2-15.2-11.2-23.9 0-17.6 18.1-30.3 18.3-30.5l-4.5-6.6c-.9.6-21.7 15.2-21.7 37 0 11.3 6.5 20.1 12.8 28.6 5.4 7.5 10.6 14.5 11.1 22.6zM104.8 152H16v8h91.3c-1.1-2.5-1.9-5.2-2.5-8z" fill="rgba(0,0,0,1)"/></svg>
