<?xml version="1.0" encoding="UTF-8"?>
<svg xmlns="http://www.w3.org/2000/svg" viewBox="0 0 192 192"><path d="M22.8 174.8l-5.7-5.7 152-152 5.7 5.7-152 152zM41 168h119v-8H49l-8 8zm83-117v-1c0-16 10.7-27.1 10.8-27.2l-5.7-5.7c-.5.6-13.1 13.5-13.1 32.9 0 2.9.2 5.6.7 8.3L124 51zm10 53c0 15.8-13.4 26.8-13.5 26.9l2.5 3.1-2.5-3.1 2.5 3.1 2.5 3.1c.7-.5 16.5-13.4 16.5-33.1 0-12.6-4.5-20.5-9-28.1l-5.8 5.8c3.7 6.4 6.8 12.8 6.8 22.3zM93.8 81.2l5.8-5.8c-.1-.1-.2-.3-.2-.4-4.3-7.3-8.4-14.1-8.4-25 0-16 10.7-27.1 10.8-27.2l-5.7-5.7C95.6 17.7 83 30.6 83 50c0 13.1 4.9 21.2 9.6 29.1l1.2 2.1zm-6.3 49.7L90 134l-2.5-3.1L90 134l2.5 3.1c.7-.5 16.5-13.4 16.5-33.1 0-1.3-.1-2.6-.2-3.9l-8.2 8.2c-2 13.4-13 22.5-13.1 22.6zM68 104c0 1.1-.1 2.1-.2 3.2l8-8c-1-10.4-5.2-17.5-9.3-24.3-4.4-7.2-8.5-14-8.5-24.9 0-16 10.7-27.1 10.8-27.2l-5.7-5.7C62.6 17.7 50 30.6 50 50c0 13.1 4.9 21.2 9.6 29.1 4.3 7.2 8.4 14 8.4 24.9z" fill="rgba(0,0,0,1)"/></svg>
