<?xml version="1.0" encoding="UTF-8"?>
<svg xmlns="http://www.w3.org/2000/svg" viewBox="0 0 192 192"><path d="M125.5 137.1l-5-6.2 2.5 3.1-2.5-3.1c.1-.1 13.5-11.1 13.5-26.9 0-10.9-4.1-17.7-8.4-24.9-4.7-7.8-9.6-16-9.6-29.1 0-19.4 12.6-32.3 13.2-32.8l5.7 5.7C134.7 22.9 124 34 124 50c0 10.9 4.1 17.7 8.4 24.9 4.7 7.8 9.6 16 9.6 29.1 0 19.7-15.8 32.6-16.5 33.1zM92.5 137.1l-5-6.2L90 134l-2.5-3.1c.1-.1 13.5-11.1 13.5-26.9 0-10.9-4.1-17.7-8.4-24.9-4.7-7.9-9.6-16-9.6-29.1 0-19.4 12.6-32.3 13.2-32.8l5.7 5.7C101.7 22.9 91 34 91 50c0 10.9 4.1 17.7 8.4 24.9 4.7 7.8 9.6 16 9.6 29.1 0 19.7-15.8 32.6-16.5 33.1zM59.5 137.1l-5-6.2L57 134l-2.5-3.1c.1-.1 13.5-11.1 13.5-26.9 0-10.9-4.1-17.7-8.4-24.9-4.7-7.9-9.6-16-9.6-29.1 0-19.4 12.6-32.3 13.2-32.8l5.7 5.7C68.7 22.9 58 34 58 50c0 10.9 4.1 17.7 8.4 24.9 4.7 7.8 9.6 16 9.6 29.1 0 19.7-15.8 32.6-16.5 33.1z" fill="rgba(0,0,0,1)"/><g><path d="M32 160h128v8H32z" fill="rgba(0,0,0,1)"/></g></svg>
