<?xml version="1.0" encoding="UTF-8"?>
<svg xmlns="http://www.w3.org/2000/svg" viewBox="0 0 192 192"><path d="M40 152V40h112v72.2c2.8.3 5.5.9 8 1.8V32H32v128h82.1c-.9-2.5-1.5-5.2-1.8-8H40z" fill="rgba(0,0,0,1)"/><path d="M56 56h8v80h-8zM80 56h8v80h-8zM104 56h8v80h-8zM128 56v62.1c2.5-1.7 5.2-3 8-4V56h-8zM16 40h8v16h-8z" fill="rgba(0,0,0,1)"/><g><path d="M148 120c-15.4 0-28 12.6-28 28s12.6 28 28 28 28-12.6 28-28-12.6-28-28-28zm0 48c-11 0-20-9-20-20s9-20 20-20 20 9 20 20-9 20-20 20z" fill="rgba(0,0,0,1)"/><path d="M152 136h-8v16h16.5v-8H152z" fill="rgba(0,0,0,1)"/></g></svg>
