<?xml version="1.0" encoding="UTF-8"?>
<svg xmlns="http://www.w3.org/2000/svg" viewBox="0 0 192 192"><path d="M172.6 156.1l-30.8-30.8c1.4-3.5 2.2-7.3 2.2-11.3 0-16.5-13.5-30-30-30s-30 13.5-30 30 13.5 30 30 30c4 0 7.8-.8 11.3-2.2l30.8 30.8c2.3 2.3 5.3 3.4 8.3 3.4s6-1.1 8.3-3.4c2.2-2.2 3.4-5.1 3.4-8.3s-1.3-6-3.5-8.2zM92 114c0-12.1 9.9-22 22-22s22 9.9 22 22-9.9 22-22 22-22-9.9-22-22zm74.9 52.9c-1.4 1.4-3.8 1.4-5.2 0l-29.3-29.3c1.9-1.5 3.7-3.3 5.2-5.2l29.3 29.3c.7.7 1.1 1.6 1.1 2.6s-.4 1.9-1.1 2.6z" fill="rgba(0,0,0,1)"/><path d="M127.8 116h-27.7c.4 3.1 1.9 5.9 4.1 8h19.6c2.1-2.1 3.6-4.9 4-8zM140.2 168H112v-16.1c-2.8-.1-5.4-.6-8-1.3V176h44.2l-8-8zM86.3 140H56v-16h21.3c-.7-2.6-1.1-5.2-1.3-8H48v24H16v36h72v-34.3l-1.7-1.7zM80 168H24v-20h56v20zM80.5 96H68V76h56v1.3c2.8.8 5.5 1.8 8 3.2V68h-32V52h32V16H60v36h32v16H60v36h17.3c.8-2.8 1.9-5.5 3.2-8zM68 44V24h56v20H68z" fill="rgba(0,0,0,1)"/></svg>
