<?xml version="1.0" encoding="UTF-8"?>
<svg xmlns="http://www.w3.org/2000/svg" viewBox="0 0 192 192"><path d="M160 176H32V82.3l64-64 64 64V176zm-120-8h112V85.7l-56-56-56 56V168z" fill="rgba(0,0,0,1)"/><path d="M96 108.4c-8.6 0-15.7-7.1-15.7-15.9s7-15.9 15.7-15.9 15.7 7.1 15.7 15.9-7.1 15.9-15.7 15.9zm0-23.8c-4.2 0-7.7 3.5-7.7 7.9s3.4 7.9 7.7 7.9 7.7-3.5 7.7-7.9-3.5-7.9-7.7-7.9z" fill="rgba(0,0,0,1)"/><path d="M96 160l-3.5-6c-.2-.3-19.2-33.2-23.3-40.4-3.3-5.4-5.2-13.1-5.2-21.1C64 74.6 78.4 60 96 60s32 14.6 32 32.5c0 7.9-1.9 15.6-5.2 21.1-4.1 7.2-23.1 40.1-23.3 40.4l-3.5 6zm0-92c-13.2 0-24 11-24 24.5 0 6.4 1.5 12.8 4.1 16.9l.1.1c3 5.2 14.1 24.5 19.9 34.4 5.7-9.9 16.9-29.2 19.9-34.4l.1-.1c2.6-4.2 4.1-10.5 4.1-16.9C120 79 109.2 68 96 68z" fill="rgba(0,0,0,1)"/></svg>
