<?xml version="1.0" encoding="UTF-8"?>
<svg xmlns="http://www.w3.org/2000/svg" viewBox="0 0 192 192"><path d="M96 18.9L16 82.06V176h160V82.06zM168 168H24V85.94L96 29.1l72 56.84z" fill="rgba(0,0,0,1)"/><path d="M56 98.19l-2.9 3.06c-.7.75-17.1 18.23-17.1 36.48C36 150 45 160 56 160s20-10 20-22.27c0-18.25-16.4-35.75-17.1-36.48zM136 160c11 0 20-10 20-22.27 0-18.25-16.4-35.75-17.1-36.48l-2.9-3.06-2.9 3.06c-.7.73-17.1 18.23-17.1 36.48C116 150 125 160 136 160zm0-49.82c4.34 5.47 12 16.67 12 27.55 0 7.87-5.38 14.27-12 14.27s-12-6.4-12-14.27c0-10.84 7.67-22.07 12-27.55zM93.1 49.25C92.4 50 76 67.48 76 85.73 76 98 85 108 96 108s20-10 20-22.27C116 67.48 99.6 50 98.9 49.25L96 46.19zM108 85.73c0 7.87-5.38 14.27-12 14.27s-12-6.4-12-14.27c0-10.84 7.67-22.07 12-27.55 4.34 5.47 12 16.67 12 27.55z" fill="rgba(0,0,0,1)"/></svg>
