<?xml version="1.0" encoding="UTF-8"?>
<svg xmlns="http://www.w3.org/2000/svg" viewBox="0 0 192 192"><path d="M96 18.9L16 82.1V176h160V82.1L96 18.9zM168 168H24V85.9l72-56.8 72 56.8V168zM86.6 84.7c-2.2-.6-4.5-1-6.9-1-11.8 0-21.8 8.4-24.1 19.6-11.2 2.4-19.6 12.4-19.6 24.1C36 141 47 152 60.6 152h70.7c13.6 0 24.6-11 24.6-24.6 0-8.7-4.6-16.6-11.9-21 .1-.8.1-1.7.1-2.5 0-17.6-14.4-31.9-32-31.9-10.1 0-19.4 4.7-25.5 12.7zm5 6.9C96 84.3 103.7 80 112.2 80c13.2 0 24 10.7 24 23.9l-72.5.1c1.9-7.1 8.4-12.2 16-12.2 2.4 0 4.6.5 6.8 1.4l3.2 1.4 1.9-3z" fill="rgba(0,0,0,1)"/></svg>
