<?xml version="1.0" encoding="UTF-8"?>
<svg xmlns="http://www.w3.org/2000/svg" viewBox="0 0 192 192"><path d="M119.8 22.4L63.7 78.2V160H176V78.2l-56.2-55.8zM168 152H71.7V81.6l48.2-47.9L168 81.6V152z" fill="rgba(0,0,0,1)"/><path d="M108 64c0 3.8 1.8 7.2 4.6 9.4-7.4 2.9-12.6 10.1-12.6 18.4V116h8v28h8v-32h-8V91.8c0-6.5 5.4-11.8 12-11.8s12 5.3 12 11.8V112h-8v32h8v-28h8V91.8c0-8.3-5.2-15.5-12.6-18.4 2.8-2.2 4.6-5.6 4.6-9.4 0-6.6-5.4-12-12-12s-12 5.4-12 12zm12-4c2.2 0 4 1.8 4 4s-1.8 4-4 4-4-1.8-4-4 1.8-4 4-4z" fill="rgba(0,0,0,1)"/></svg>
