<?xml version="1.0" encoding="UTF-8"?>
<svg xmlns="http://www.w3.org/2000/svg" viewBox="0 0 192 192"><path d="M119.8 22.4L63.7 78.2V160H176V78.2l-56.2-55.8zM168 152H71.7V81.6l48.2-47.9L168 81.6V152zM43.4 73.4c2.8-2.2 4.6-5.6 4.6-9.4 0-6.6-5.4-12-12-12s-12 5.4-12 12c0 3.8 1.8 7.2 4.6 9.4C21.2 76.3 16 83.5 16 91.8V116h8v28h8v-32h-8V91.8C24 85.3 29.4 80 36 80s12 5.3 12 11.8V112h-8v32h8v-28h8V91.8c0-8.3-5.2-15.5-12.6-18.4zM36 60c2.2 0 4 1.8 4 4s-1.8 4-4 4-4-1.8-4-4 1.8-4 4-4z" fill="rgba(0,0,0,1)"/></svg>
