<?xml version="1.0" encoding="UTF-8"?>
<svg xmlns="http://www.w3.org/2000/svg" viewBox="0 0 192 192"><path d="M165.1 36l-.9 2.7C160.9 48.5 136.7 72 96 72H48c-12.2 0-15.1 0-22.2-3.6l-.9-.4H16v36h8.9l.8-.4c6.6-3.3 9.6-3.6 19.8-3.6-6 3.8-9.5 8.6-9.5 14 0 12.5 18.9 22 44 22s44-9.5 44-22c0-4.3-2.3-8.3-6.2-11.6 27.5 6.2 43.8 23 46.4 30.9l.9 2.7H176V36h-10.9zM80 128c-20.6 0-36-7.4-36-14s15.4-14 36-14 36 7.4 36 14-15.4 14-36 14zm88-4.4c-4.3-6.1-11.3-12.3-19.7-17.5C137.8 99.7 120.2 92 96 92H48c-11.5 0-16.3 0-24 3.6V76.4C31.7 80 36.5 80 48 80h48c24.2 0 41.8-7.7 52.3-14.1 8.4-5.1 15.4-11.4 19.7-17.5v75.2z" fill="rgba(0,0,0,1)"/></svg>
