<?xml version="1.0" encoding="UTF-8"?>
<svg xmlns="http://www.w3.org/2000/svg" viewBox="0 0 192 192"><path d="M134.5 175.1l-5-6.2 2.5 3.1-2.5-3.1c.2-.1 18.5-15.2 18.5-36.9 0-14.9-5.6-24.1-11.4-33.9-6.2-10.3-12.6-21-12.6-38.1 0-25.4 16.5-42.1 17.2-42.8l5.7 5.7C146.7 23 132 38 132 60c0 14.9 5.6 24.1 11.4 33.9 6.2 10.3 12.6 21 12.6 38.1 0 25.6-20.6 42.4-21.5 43.1zM90.5 175.1l-5-6.2L88 172l-2.5-3.1c.2-.1 18.5-15.2 18.5-36.9 0-14.9-5.6-24.1-11.4-33.9C86.4 87.8 80 77.1 80 60c0-25.4 16.5-42.1 17.2-42.8l5.7 5.7C102.7 23 88 38 88 60c0 14.9 5.6 24.1 11.4 33.9 6.2 10.3 12.6 21 12.6 38.1 0 25.6-20.6 42.4-21.5 43.1zM46.5 175.1l-5-6.2L44 172l-2.5-3.1c.2-.2 18.5-15.2 18.5-36.9 0-14.9-5.6-24.1-11.4-33.9C42.4 87.8 36 77.1 36 60c0-25.4 16.5-42.1 17.2-42.8l5.7 5.7C58.7 23 44 38 44 60c0 14.9 5.6 24.1 11.4 33.9 6.2 10.3 12.6 21 12.6 38.1 0 25.6-20.6 42.4-21.5 43.1z" fill="rgba(0,0,0,1)"/></svg>
