<?xml version="1.0" encoding="UTF-8"?>
<svg xmlns="http://www.w3.org/2000/svg" viewBox="0 0 192 192"><path d="M128 64c2.9 0 5.6.6 8 1.6V36H40v56h68v-8H48V44h28v24h8v8h8v-8h8V44h28v20zm-36-4h-8V44h8v16zm-6.8 68l3.7 8H16V16h144v79.9l-8-3.3V24H24v104h61.2zm90.8-7.6c0-5.8-3.6-11-9.1-12.9l-15.6-6.5-.3-.1c-1.4-.4-2.8-.7-4.3-.7-2.4 0-4.7.6-6.7 1.6V84c0-6.6-5.4-12-12-12-5.8 0-12 4.6-12 12v34.1c-3-3.9-6.1-7.9-7.2-9.2-3.8-4.5-9.3-6-14.1-3.9-4.8 2.1-6.4 7.2-6.6 7.7l-.4 1.5 18.8 40.8c6 12.7 19 21 33 21 20.1 0 36.5-16.4 36.5-36.5v-19.1zm-8 19.1c0 15.7-12.8 28.5-28.5 28.5-11 0-21.1-6.4-25.8-16.4l-17.4-37.7c.4-.6 1-1.3 1.7-1.6 1.7-.8 3.6.5 4.7 1.7 1.8 2.1 9.9 12.8 13.9 18.1l1.2 1.6h6.1V84c0-2.8 2.3-4 4-4 2.5 0 4 2.1 4 4v29.9h8c0-2.9 3.3-5.8 6.7-5.8.6 0 1.1.1 1.7.2l15.5 6.5.2.1c2.3.8 3.8 3 3.8 5.4v1.6l.2 17.6z" fill="rgba(0,0,0,1)"/></svg>
