<?xml version="1.0" encoding="UTF-8"?>
<svg xmlns="http://www.w3.org/2000/svg" viewBox="0 0 192 192"><path d="M96 76c-11 0-20 9-20 20s9 20 20 20 20-9 20-20-9-20-20-20zm0 32c-6.6 0-12-5.4-12-12s5.4-12 12-12 12 5.4 12 12-5.4 12-12 12z" fill="rgba(0,0,0,1)"/><path d="M156 92h-8V76h-16V64h12v-8h-12.2c-1.9-16.7-15.1-29.9-31.8-31.8V16h-8v8.2C75.3 26.1 62.1 39.3 60.2 56H48v8h12v12H44v16h-8v8h8v16h16v36H48v24h96v-24h-12v-36h16v-16h8v-8zM96 32c14.1 0 25.8 10.4 27.7 24H68.3C70.2 42.4 81.9 32 96 32zm-44 76V84h8v24h-8zm84 52v8H56v-8h12V64h56v96h12zm4-52h-8V84h8v24z" fill="rgba(0,0,0,1)"/></svg>
