<?xml version="1.0" encoding="UTF-8"?>
<svg xmlns="http://www.w3.org/2000/svg" viewBox="0 0 192 192"><path d="M41.1 100H16v-8h25.1L28.5 70l6.9-4 14.8 26H83l-8 8H50.3l-14.8 26-6.9-4 12.5-22zm-1.3-41.4l29.9-.1 17.2 29.7 5.9-5.9-16.2-27.9 15.1-25.9-6.9-4-12.8 22-12.5-21.8-6.9 4 12.6 21.7-25.4.1v8.1zm112.4 74.8l-29.9.1-17.2-29.7-5.9 5.9 16.1 27.9-15.1 25.9 6.9 4 12.8-21.9 12.6 21.7 6.9-4-12.6-21.7 25.4-.1v-8.1zm17-116.2l-152 152 5.7 5.7 152-152-5.7-5.7zM176 92h-25.1l12.6-22-6.9-4-14.8 26H117l-8 8h32.7l14.8 26 6.9-4-12.6-22H176v-8zm-67.7-25.2l13.2-13.2 1.7-1.7 7-7 9.3-16.2-6.9-4L120 46.5l-12.8-21.9-6.9 4 15.1 25.9-7.1 12.3zm-24.6 58.4l-13.2 13.2-1.7 1.7-7 7-9.4 16.2 6.9 4L72 145.5l12.8 21.9 6.9-4-15.1-25.9 7.1-12.3z" fill="rgba(0,0,0,1)"/></svg>
