<?xml version="1.0" encoding="UTF-8"?>
<svg xmlns="http://www.w3.org/2000/svg" viewBox="0 0 192 192"><path d="M148 128h-8v12h-12v8h12v12h8v-12h12v-8h-12z" fill="rgba(0,0,0,1)"/><path d="M144 112c-17.6 0-32 14.4-32 32s14.4 32 32 32 32-14.4 32-32-14.4-32-32-32zm0 56c-13.2 0-24-10.8-24-24s10.8-24 24-24 24 10.8 24 24-10.8 24-24 24z" fill="rgba(0,0,0,1)"/><path d="M150.9 92l12.6-22-6.9-4-14.8 26H103l19.4-33.6 29.9.1v-8l-25.4-.1 12.6-21.7-6.9-4L120 46.5l-12.8-21.9-6.9 4 15.1 25.9L96 88 76.6 54.4l15.1-25.9-6.9-4-12.8 22-12.5-21.8-6.9 4 12.6 21.7-25.4.1v8l29.9-.1L89.1 92H50.3L35.5 66l-6.9 4 12.6 22H16v8h25.1l-12.6 22 6.9 4 14.8-26H89l-19.4 33.6-29.9-.1v8l25.4.1-12.6 21.7 6.9 4L72 145.5l12.8 21.9 6.9-4-15.1-25.9L96 104l12.5 21.6c1.4-2.7 3-5.1 5-7.4L102.9 100h38.8l2.3 4c3.4 0 6.7.4 9.9 1.2l-3-5.2H176v-8h-25.1z" fill="rgba(0,0,0,1)"/></svg>
