<?xml version="1.0" encoding="UTF-8"?>
<svg xmlns="http://www.w3.org/2000/svg" viewBox="0 0 192 192"><path d="M120 16v12h40V16zM157.2 40h2.8v-8h-40v8h2.8L112 81.5V160c0 8.8 7.2 16 16 16h24c8.8 0 16-7.2 16-16V81.5L157.2 40zm-8.3 0l2.1 8h-22l2.1-8h17.8zM160 160c0 4.4-3.6 8-8 8h-24c-4.4 0-8-3.6-8-8V82.5l6.9-26.5h26.2l6.9 26.5V160zM105.3 64h-6.4l3.8-5.7-6.7-4.4L89.3 64h-17L82 48.9l12.4-1-.7-7.9-6.4.5 4.1-6.3-6.8-4.4-4.3 6.9-2.9-6.3-7.3 3.3 5 11L65 60.6 55.1 45l4.5-11.5-7.4-3-2.5 6.1-4.3-6.8-6.7 4.3L43 41l-6.7-.4-.4 8 12.4.7L57.7 64H41.1l-7.5-9.9-6.4 4.8L31 64h-7v8h6.8l-3.4 4.4 6.3 5L41 72h16.7l-9.6 15.2-12.4 1 .7 8 6.2-.5-3.9 6.2 6.7 4.3 4-6.2 2 5.4 7.5-2.8-4.1-11.1 10.2-16 10.1 15.7-4.5 11.3 7.5 2.9 2.3-5.9 4.2 6.6 6.7-4.3-3.9-6.2 5.6.6.8-8L81.9 87l-9.6-15h17.1l7.5 10 6.4-4.8-3.9-5.2h5.9z" fill="rgba(0,0,0,1)"/></svg>
