<?xml version="1.0" encoding="UTF-8"?>
<svg xmlns="http://www.w3.org/2000/svg" viewBox="0 0 192 192"><path d="M18.36 162.326L162.324 18.36l11.313 11.314L29.673 173.64zM39.8 58.6l29.9-.2 15.1 26.2 5.8-5.9-14-24.3 15.1-25.8-6.9-4L72 46.5 59.5 24.7l-7 4 12.6 21.8-25.4.1zM163.5 70l-7-4-14.8 26h-19.1l-8 8h27.1l14.8 26 7-4-12.6-22H176v-8h-25.1zM137.8 31.5l1.7-2.8-7-4L120 46.5l-12.8-21.9-6.9 4 14.9 25.6zM28.5 122l7 4 14.8-26h19.1l8-8H50.3L35.5 66l-7 4 12.6 22H16v8h25.1zM54.2 160.5l-1.7 2.8 7 4L72 145.5l12.8 21.9 6.9-4-14.9-25.6zM152.2 133.4l-29.9.2-15.1-26.2-5.8 5.9 14 24.3-15.1 25.8 6.9 4 12.8-21.9 12.5 21.8 7-4-12.6-21.8 25.4-.1z" fill="rgba(0,0,0,1)"/></svg>
