<?xml version="1.0" encoding="UTF-8"?>
<svg xmlns="http://www.w3.org/2000/svg" viewBox="0 0 192 192"><path fill="rgba(0,0,0,1)" d="M176 92h-25.1l12.6-22-7-4-14.8 26h-38.8l19.4-33.6 29.9.2.1-8-25.4-.1 12.6-21.8-7-4L120 46.5l-12.8-21.9-6.9 4 15.1 25.8L96 88 76.6 54.4l15.1-25.8-6.9-4L72 46.5 59.5 24.7l-7 4 12.6 21.8-25.4.1.1 8 29.9-.2L89.1 92H50.3L35.5 66l-7 4 12.6 22H16v8h25.1l-12.6 22 7 4 14.8-26h38.8l-19.4 33.6-29.9-.2-.1 8 25.4.1-12.6 21.8 7 4L72 145.5l12.8 21.9 6.9-4-15.1-25.8L96 104l19.4 33.6-15.1 25.8 6.9 4 12.8-21.9 12.5 21.8 7-4-12.6-21.8 25.4-.1-.1-8-29.9.2-19.4-33.6h38.8l14.8 26 7-4-12.6-22H176z"/></svg>
