<?xml version="1.0" encoding="UTF-8"?>
<svg xmlns="http://www.w3.org/2000/svg" viewBox="0 0 192 192"><path d="M144 176c-17.6 0-32-14.4-32-32s14.4-32 32-32 32 14.4 32 32-14.4 32-32 32zm0-56c-13.2 0-24 10.8-24 24s10.8 24 24 24 24-10.8 24-24-10.8-24-24-24z" fill="rgba(0,0,0,1)"/><circle fill="none" cx="116" cy="72" r="8"/><path d="M104.1 142H24v-19.9L71.9 89l35.8 27.8 28.2-16.1 5.1 3.4c1-.1 2-.1 3-.1 6 0 11.6 1.3 16.7 3.7l-24.6-16.4-27.8 15.9L72.1 79 24 112.4V50h144v62c3 2.3 5.7 5 8 8V42H16v108h88.5c-.3-2-.5-4-.5-6 0-.7 0-1.3.1-2z" fill="rgba(0,0,0,1)"/><path d="M116 56c-8.8 0-16 7.2-16 16s7.2 16 16 16 16-7.2 16-16-7.2-16-16-16zm0 24c-4.4 0-8-3.6-8-8s3.6-8 8-8 8 3.6 8 8-3.6 8-8 8z" fill="rgba(0,0,0,1)"/><g><path d="M128 140h32v8h-32z" fill="rgba(0,0,0,1)"/></g></svg>
