<?xml version="1.0" encoding="UTF-8"?>
<svg xmlns="http://www.w3.org/2000/svg" viewBox="0 0 192 192"><path d="M144 112c-17.6 0-32 14.4-32 32s14.4 32 32 32 32-14.4 32-32-14.4-32-32-32zm0 56c-13.2 0-24-10.8-24-24s10.8-24 24-24 24 10.8 24 24-10.8 24-24 24zm-16-28h32v8h-32v-8zm48-98v78c-2.3-3-5-5.7-8-8V50H24v62.4L72.1 79l36.2 28.2 27.8-15.9 24.6 16.4c-5.1-2.4-10.8-3.7-16.7-3.7-1 0-2 .1-3 .1l-5.1-3.4-28.2 16.1L71.9 89 24 122.1V142h80.1c0 .7-.1 1.3-.1 2 0 2 .2 4 .5 6H16V42h160zm-76 30c0 8.8 7.2 16 16 16s16-7.2 16-16-7.2-16-16-16-16 7.2-16 16zm24 0c0 4.4-3.6 8-8 8s-8-3.6-8-8 3.6-8 8-8 8 3.6 8 8z" fill="rgba(0,0,0,1)"/></svg>
