<?xml version="1.0" encoding="UTF-8"?>
<svg xmlns="http://www.w3.org/2000/svg" viewBox="0 0 192 192"><circle cx="96" cy="96" r="12" fill="rgba(0,0,0,1)"/><path d="M124.3 124.3l-5.7-5.7c6-6 9.4-14.1 9.4-22.6 0-8.5-3.3-16.6-9.4-22.6l5.7-5.7C131.8 75.3 136 85.3 136 96s-4.2 20.7-11.7 28.3zM67.7 124.3C60.2 116.7 56 106.7 56 96s4.2-20.7 11.7-28.3l5.7 5.7c-6 6-9.4 14.1-9.4 22.6s3.3 16.6 9.4 22.6l-5.7 5.7zM152.6 152.6l-5.7-5.7C160.5 133.3 168 115.2 168 96c0-19.1-7.4-37.1-20.8-50.7l5.7-5.6C167.8 54.8 176 74.8 176 96c0 21.4-8.3 41.5-23.4 56.6zM39.4 152.6C24.3 137.5 16 117.4 16 96s8.3-41.5 23.4-56.6l5.7 5.7C31.5 58.7 24 76.8 24 96s7.5 37.3 21.1 50.9l-5.7 5.7z" fill="rgba(0,0,0,1)"/><path d="M53.6 138.4C42.2 127.1 36 112 36 96s6.2-31.1 17.6-42.4l5.7 5.7C49.4 69.1 44 82.1 44 96c0 13.9 5.4 26.9 15.2 36.8l-5.6 5.6zM138.4 138.4l-5.7-5.7c9.8-9.8 15.2-22.9 15.2-36.8s-5.4-26.9-15.2-36.8l5.7-5.7C149.8 64.9 156 80 156 96s-6.2 31.1-17.6 42.4z" fill="rgba(0,0,0,1)"/></svg>
