<?xml version="1.0" encoding="UTF-8"?>
<svg xmlns="http://www.w3.org/2000/svg" viewBox="0 0 192 192"><path d="M144.1 176.1c-17.7 0-32.1-14.4-32.1-32.1s14.4-32.1 32.1-32.1 32.1 14.4 32.1 32.1-14.5 32.1-32.1 32.1zm0-56.1c-13.3 0-24.1 10.8-24.1 24.1s10.8 24.1 24.1 24.1 24.1-10.8 24.1-24.1-10.9-24.1-24.1-24.1zM36 112.1h32v8H36zM80 112.1h24v8H80z" fill="rgba(0,0,0,1)"/><path d="M160 148h-20v-20h8v12h12z" fill="rgba(0,0,0,1)"/><circle fill="none" cx="144.1" cy="144.1" r="32.1"/><path d="M24 152.1V94.3l24-15v20l32-20v20l32-20v16.8h19.6l8-72h12.8l8 72h7.6V112c3 2.3 5.7 4.9 8 8V88.1h-8.4l-8-72h-27.2l-8 72H120V64.9l-32 20v-20l-32 20v-20l-40 25v70.2h91.4c-1.1-2.5-2-5.2-2.6-8H24z" fill="rgba(0,0,0,1)"/></svg>
