<?xml version="1.0" encoding="UTF-8"?>
<svg xmlns="http://www.w3.org/2000/svg" viewBox="0 0 192 192"><circle cx="56" cy="52" r="4" fill="rgba(0,0,0,1)"/><path d="M75.8 32.2c-10.9-10.9-28.7-10.9-39.6 0l-5.7-5.7c14-14 36.9-14 50.9 0l-5.6 5.7z" fill="rgba(0,0,0,1)"/><path d="M64.5 43.5C62.2 41.2 59.2 40 56 40s-6.2 1.2-8.5 3.5l-5.7-5.7C45.6 34.1 50.7 32 56 32s10.4 2.1 14.1 5.9l-5.6 5.6zM176 160H16V89.8l40-25v20l32-20v20l32-20V88h4.4l8-72h27.2l8 72h8.4v72zm-152-8h144V96h-7.6l-8-72h-12.8l-8 72H112V79.2l-32 20v-20l-32 20v-20l-24 15V152z" fill="rgba(0,0,0,1)"/><path d="M36 112h32v8H36z" fill="rgba(0,0,0,1)"/><g><path d="M80 112h32v8H80z" fill="rgba(0,0,0,1)"/></g><g><path d="M124 112h32v8h-32z" fill="rgba(0,0,0,1)"/></g></svg>
