<?xml version="1.0" encoding="UTF-8"?>
<svg xmlns="http://www.w3.org/2000/svg" viewBox="0 0 192 192"><path d="M101.4 53.4c0 3-2.5 5.4-5.4 5.4-3 0-5.4-2.5-5.4-5.4 0-3 2.5-5.4 5.4-5.4 3 0 5.4 2.5 5.4 5.4zm-9.3 15.1h8.2V120h-8.2V68.5z" fill="rgba(0,0,0,1)"/><path d="M96 174.9l-21.5-30.3C46.2 135.9 28 112.2 28 84c0-37.5 30.5-68 68-68s68 30.5 68 68c0 28.2-18.2 51.9-46.5 60.7L96 174.9zM96 24c-33.1 0-60 26.9-60 60 0 25 16.5 46 42.1 53.4l1.3.4L96 161.1l16.5-23.3 1.3-.4C139.5 130 156 109 156 84c0-33.1-26.9-60-60-60z" fill="rgba(0,0,0,1)"/></svg>
