<?xml version="1.0" encoding="UTF-8"?>
<svg xmlns="http://www.w3.org/2000/svg" viewBox="0 0 192 192"><path d="M96 30c21 0 23.3 0 31.8.8 7.8 0 11.7 1.6 14.8 2.3 3.9 1.6 6.2 3.1 9.3 6.2s4.7 5.4 6.2 9.3c.8 3.1 2.3 7 2.3 14.8 0 8.5.8 10.9.8 31.8s0 23.3-.8 31.8c0 7.8-1.6 11.7-2.3 14.8-1.6 3.9-3.1 6.2-6.2 9.3-3.1 3.1-5.4 4.7-9.3 6.2-3.1.8-7 2.3-14.8 2.3-8.5 0-10.9.8-31.8.8s-23.3 0-31.8-.8c-7.8 0-11.7-1.6-14.8-2.3-3.9-1.6-6.2-3.1-9.3-6.2-3.1-3.1-4.7-5.4-6.2-9.3-.8-3.1-2.3-7-2.3-14.8 0-8.5-.8-10.9-.8-31.8s0-23.3.8-31.8c0-7.8 1.6-11.7 2.3-14.8 1.6-3.9 3.1-6.2 6.2-9.3 3.1-3.1 5.4-4.7 9.3-6.2 3.1-.8 7-2.3 14.8-2.3C72.7 30 75 30 96 30m0-14c-21 0-24.1 0-32.6.8-8.5 0-14 1.6-19.4 3.9s-9.3 4.7-14 9.3c-4.7 4.7-7 8.5-9.3 14-2.3 4.7-3.1 10.9-3.9 19.4 0 8.5-.8 10.9-.8 32.6 0 21 0 24.1.8 32.6 0 8.5 1.6 14 3.9 19.4 2.3 5.4 4.7 9.3 9.3 14 4.7 4.7 8.5 7 14 9.3 4.7 2.3 10.9 3.1 19.4 3.9 8.5 0 10.9.8 32.6.8s24.1 0 32.6-.8c8.5 0 14-1.6 19.4-3.9 5.4-2.3 9.3-4.7 14-9.3 4.7-4.7 7-8.5 9.3-14 2.3-4.7 3.1-10.9 3.9-19.4 0-8.5.8-10.9.8-32.6s0-24.1-.8-32.6c0-8.5-1.6-14-3.9-19.4s-4.7-9.3-9.3-14c-4.7-4.7-8.5-7-14-9.3-4.7-2.3-10.9-3.1-19.4-3.9C120.1 16 117 16 96 16z" fill="rgba(0,0,0,1)"/><path d="M96 54.1c-22.5 0-40.4 17.9-40.4 40.4s17.9 40.4 40.4 40.4 40.4-17.9 40.4-40.4S118.5 54.1 96 54.1zm0 66.8c-14.8 0-26.4-11.7-26.4-26.4S81.2 68 96 68s26.4 11.7 26.4 26.4c0 14-11.6 26.5-26.4 26.5z" fill="rgba(0,0,0,1)"/><circle cx="137.9" cy="52.5" r="9.3" fill="rgba(0,0,0,1)"/></svg>
