<?xml version="1.0" encoding="UTF-8"?>
<svg xmlns="http://www.w3.org/2000/svg" viewBox="0 0 192 192"><path d="M96 16c-44.1 0-80 35.9-80 80s35.9 80 80 80 80-35.9 80-80-35.9-80-80-80zm0 152c-39.7 0-72-32.3-72-72s32.3-72 72-72 72 32.3 72 72-32.3 72-72 72z" fill="rgba(0,0,0,1)"/><circle cx="36" cy="96" r="4" fill="rgba(0,0,0,1)"/><circle cx="96" cy="156" r="4" fill="rgba(0,0,0,1)"/><circle cx="44" cy="126" r="4" fill="rgba(0,0,0,1)"/><path d="M96 32v64h64c0-35.3-28.7-64-64-64z" fill="rgba(0,0,0,1)"/><circle cx="66" cy="148" r="4" fill="rgba(0,0,0,1)"/><circle cx="44" cy="66" r="4" fill="rgba(0,0,0,1)"/><circle cx="66" cy="44" r="4" fill="rgba(0,0,0,1)"/><circle cx="126" cy="148" r="4" fill="rgba(0,0,0,1)"/><circle cx="148" cy="126" r="4" fill="rgba(0,0,0,1)"/></svg>
