<?xml version="1.0" encoding="UTF-8"?>
<svg xmlns="http://www.w3.org/2000/svg" viewBox="0 0 192 192"><path d="M16 32v128h160V32H16zm152 120H24V40h144v112z" fill="rgba(0,0,0,1)"/><circle cx="96" cy="133" r="4" fill="rgba(0,0,0,1)"/><path d="M105.4 125.5c1.7 2.1 2.6 4.7 2.6 7.5 0 2.4-.7 4.8-2.1 6.7l6.6 4.5c2.3-3.3 3.5-7.2 3.5-11.3 0-4.5-1.6-9-4.4-12.5l-6.2 5.1zM80.9 120.5c-2.8 3.5-4.4 8-4.4 12.5 0 4 1.2 7.9 3.5 11.3l6.6-4.5c-1.4-2-2.1-4.3-2.1-6.7 0-2.8.9-5.4 2.6-7.5l-6.2-5.1zM156 52H36v60h120V52zm-8 52H44V60h104v44z" fill="rgba(0,0,0,1)"/></svg>
