<?xml version="1.0" encoding="UTF-8"?>
<svg xmlns="http://www.w3.org/2000/svg" viewBox="0 0 192 192"><path d="M168.5 116.9c-.8-.6-1.6-1.3-2.5-1.9 1.2-1.8 2-4.1 2-7 0-18.9-33.5-32.4-41.4-35.3l-8.8-13.2L99 64.1l1.9 7.8 13.3-3.3 5 7.4-4.8 7.2-9.7-3.2h-.7c-4.4 0-8.7 2.8-13.4 5.7C86 88.7 80.7 92 76 92c-7.1 0-14.6-7.5-16.8-10.4L58 80H32v9.7l1.2 1.2c1.7 1.7 5.3 5.2 8.1 8l-3 1.5c-6.2 3-8.9 9.9-9.8 13.2-2 1-3.6 2.2-5 3.3-2.4 1.9-3.9 3.1-7.5 3.1v8c6.4 0 9.8-2.7 12.5-4.9 2.4-1.9 3.9-3.1 7.5-3.1s5.1 1.2 7.5 3.1c2.7 2.2 6.1 4.9 12.5 4.9s9.8-2.7 12.5-4.9c2.4-1.9 3.9-3.1 7.5-3.1s5.1 1.2 7.5 3.1c2.7 2.2 6.1 4.9 12.5 4.9s9.8-2.7 12.5-4.9c2.4-1.9 3.9-3.1 7.5-3.1s5.1 1.2 7.5 3.1c2.7 2.2 6.1 4.9 12.5 4.9s9.8-2.7 12.5-4.9c2.4-1.9 3.9-3.1 7.5-3.1s5.1 1.2 7.5 3.1c2.7 2.2 6.1 4.9 12.5 4.9v-8c-3.6 0-5.1-1.2-7.5-3.1zm-25 0c-2.4 1.9-3.9 3.1-7.5 3.1s-5.1-1.2-7.5-3.1c-2.7-2.2-6.1-4.9-12.5-4.9s-9.8 2.7-12.5 4.9c-2.4 1.9-3.9 3.1-7.5 3.1s-5.1-1.2-7.5-3.1c-2.7-2.2-6.1-4.9-12.5-4.9s-9.8 2.7-12.5 4.9c-2.4 1.9-3.9 3.1-7.5 3.1s-5.1-1.2-7.5-3.1c-2.5-2-5.5-4.4-10.8-4.8 1-1.8 2.3-3.6 4.1-4.5 1.8-.9 7.8-3.9 8.1-4l4.9-2.5-3.9-3.9-9.2-9.2h12.5c3.2 3.6 11.8 12 21.9 12 7.1 0 13.4-4 18.9-7.5 3.2-2 6.5-4.1 8.6-4.4l14.2 4.7 7.9-11.9C140 86.4 160 97.7 160 108c0 3.2-2.2 4-4 4-6.4 0-9.8 2.7-12.5 4.9z" fill="rgba(0,0,0,1)"/></svg>
