<?xml version="1.0" encoding="UTF-8"?>
<svg xmlns="http://www.w3.org/2000/svg" viewBox="0 0 192 192"><path d="M16 56v64c0 8.8 7.2 16 16 16h128c8.8 0 16-7.2 16-16V56H16zm152 64c0 4.4-3.6 8-8 8H32c-4.4 0-8-3.6-8-8V64h144v56z" fill="rgba(0,0,0,1)"/><path d="M58.5 112h75v8h-75zM32 72h12v8H32zM52 72h12v8H52zM72 72h12v8H72zM92 72h12v8H92zM112 72h12v8h-12zM152 72h8v8h-8zM132 72h12v8h-12zM32 89h8v8h-8zM48 89h12v8H48zM68 89h12v8H68zM88 89h12v8H88zM108 89h12v8h-12zM148 89h12v8h-12zM128 89h12v8h-12z" fill="rgba(0,0,0,1)"/></svg>
