<?xml version="1.0" encoding="UTF-8"?>
<svg xmlns="http://www.w3.org/2000/svg" viewBox="0 0 192 192"><path d="M156.7 124c1-1.8 1.9-3.8 2.4-5.8 1.7-6.2.8-12.7-2.4-18.2-2.1-3.7-5.2-6.7-8.8-8.8V90c0-14.3-11.7-26-26-26S96 75.7 96 90c0 1.3.1 2.6.3 3.9-3.6 3.1-6.2 7.2-7.5 11.9-1.6 6.1-.8 12.5 2.3 18l-10.7 14.3-3.7 11L69 153l-5.5 11 6 12h20.7l24.1-40.1c3.4-.3 6.6-1.4 9.7-3.1 1.8 1 3.7 1.9 5.8 2.4 1.2.3 2.4.5 3.7.7l7.3 14.7 7.3 7.2v7.2l5.5 11.1H176V155l-19.3-31zM122 72c9.4 0 17.1 7.2 17.9 16.3-5.5-.9-11 .1-15.9 2.9-6.1-3.6-13.4-4.2-20-1.8.4-9.7 8.3-17.4 18-17.4zm-25.5 35.9c1.1-4.1 3.8-7.6 7.5-9.7 4.1-2.4 9-2.8 13.3-1.2-2.1 2.6-3.6 5.6-4.5 8.9-1.7 6.2-.8 12.7 2.4 18.2.6 1.1 1.4 2.1 2.1 3.1-3 1.1-6.3 1.2-9.5.4-4.1-1.1-7.6-3.8-9.7-7.5-2.1-3.8-2.7-8.1-1.6-12.2zM85.7 168H74.5l-2-4 2.5-5 8.3-4.1 4.3-13 8.8-11.7c2.6 2.3 5.7 3.9 9.1 4.9L85.7 168zm36.4-48c-2.1-3.7-2.7-8-1.6-12.1s3.8-7.6 7.5-9.7c2.5-1.4 5.2-2.1 8-2.1 1.1 0 2.1.1 3.2.3-1 3.4-2.9 6.2-5.7 8.6-1.7 1.4-1.9 3.9-.5 5.6.8 1 1.9 1.5 3.1 1.5.9 0 1.8-.3 2.5-.9 3.7-3.1 6.3-6.8 7.9-11.2 1.3 1.2 2.5 2.5 3.4 4.1 2.1 3.7 2.7 8 1.6 12.1s-3.8 7.6-7.5 9.7c-3.7 2.1-8 2.7-12.1 1.6-4.2-1.2-7.6-3.8-9.8-7.5zm45.9 48h-9.5l-2.5-4.9v-8.7l-8.7-8.6-5.2-10.6c2.1-.5 4.1-1.4 5.9-2.4 1.2-.7 2.3-1.5 3.3-2.3l16.7 26.7V168zM88.3 85.8c.4-3.2 1.2-6.3 2.5-9.2-4.2-4.1-9.1-7.3-14.6-9.5C83.5 62 88.3 53.6 88.3 44c0-15.4-12.6-28-28-28s-28 12.6-28 28c0 9.5 4.7 17.9 12 22.9C27.7 73.3 16 89.3 16 108h8c0-19.9 16.1-36 36-36 11.5 0 21.7 5.4 28.3 13.8zM40.3 44c0-11 9-20 20-20s20 9 20 20-9 20-20 20-20-9-20-20z" fill="rgba(0,0,0,1)"/></svg>
