<?xml version="1.0" encoding="UTF-8"?>
<svg xmlns="http://www.w3.org/2000/svg" viewBox="0 0 192 192"><path d="M139.9 102.2c1.5-2.7 2.6-5.6 3.3-8.6 2-8.9.5-18-4.3-25.7-3.7-5.9-9-10.3-15-13 .1-1 .2-2 .2-3 0-17.6-14.4-32-32-32S60 34.4 60 52c0 3.1.3 5.4.9 7.4-6 4.8-10.3 11.4-12 19-1.9 8.2-.7 16.7 3.4 24L32 130.7v14.8l-17.4 8.7 11.2 22.4 20.6-5.2L80.8 120h.5c4.8 0 9.6-1.1 14.2-3.3 4.5 2.1 9.5 3.2 14.5 3.2 1.2 0 2.4-.1 3.6-.2l19.4 31.1 10.9 7.3V176H171l5.2-20.8-36.3-53zM92 28c13.2 0 24 10.8 24 24v.5c-6.8-1.2-13.9-.4-20.5 2.7-9-4.2-18.6-4.3-27.4-.3-.1-.8-.1-1.7-.1-2.9 0-13.2 10.8-24 24-24zM41.5 164.5l-11.4 2.8-4.8-9.6 14.6-7.3v-17.2l17.2-24c4.2 4.6 9.4 7.7 14.9 9.4l-30.5 45.9zM60 99.8c-3.7-5.9-4.9-12.9-3.3-19.6S62.3 67.7 68.2 64c6-3.8 12.6-4.8 19-3.2-5.2 4.6-8.8 10.7-10.4 17.6-2 8.9-.5 18 4.3 25.7 1.7 2.7 3.8 5.1 6.1 7.2-10.3 2.5-21.1-1.8-27.2-11.5zm28 0c-3.7-5.9-4.9-12.9-3.3-19.6S90.3 67.7 96.2 64c4.3-2.7 9.1-4 13.8-4 1.4 0 2.9.1 4.3.4-1.6 3.7-4.1 6.6-6.4 8.6-1.1-.6-2.4-1-3.8-1-4.4 0-8 3.6-8 8s3.6 8 8 8 8-3.6 8-8v-.1c3.7-3 7.5-7.4 9.8-13 4 2.1 7.6 5.2 10.2 9.3 3.7 5.9 4.9 12.9 3.3 19.6s-5.6 12.5-11.5 16.2c-12.2 7.6-28.3 4-35.9-8.2zm76.9 68.2H152v-14.1l-13.1-8.7-17.1-27.3c2.1-.8 4.2-1.8 6.2-3 2.6-1.6 4.9-3.5 6.9-5.7l32.8 47.6-2.8 11.2z" fill="rgba(0,0,0,1)"/></svg>
