<?xml version="1.0" encoding="UTF-8"?>
<svg xmlns="http://www.w3.org/2000/svg" viewBox="0 0 192 192"><path d="M101.2 76.4L48.9 24 46 21.2c-6.9-6.9-18-6.9-24.9 0s-6.9 18 0 24.9l55.2 55.2 33.1 8.3-8.2-33.2zM78.4 91.9L36 49.6l13.6-13.5 42.3 42.3-13.5 13.5zM26.8 26.8c3.6-3.6 9.3-3.7 13.1-.5l4 4-13.5 13.6-4-4c-3.3-3.8-3.2-9.5.4-13.1zm59.4 68.6l9.2-9.2 3.1 12.3-12.3-3.1zM160 60V32h-57.7l-17 17.1 5.7 5.7L105.7 40H152v20h-8.5c-1.8-6.9-8-12-15.5-12-8.8 0-16 7.2-16 16s7.2 16 16 16c7.4 0 13.7-5.1 15.5-12h8.5v18.3l-76 76L29.7 116l25.1-25.1-5.7-5.7L18.3 116 76 173.7l84-84V68h16v-8h-16zm-25.1 8c-1.4 2.4-4 4-6.9 4-4.4 0-8-3.6-8-8s3.6-8 8-8c3 0 5.5 1.6 6.9 4H128v8h6.9z" fill="rgba(0,0,0,1)"/></svg>
