<?xml version="1.0" encoding="UTF-8"?>
<svg xmlns="http://www.w3.org/2000/svg" viewBox="0 0 192 192"><path d="M124 172c-19.9 0-36-16.1-36-36s16.1-36 36-36 36 16.1 36 36-16.1 36-36 36zm0-64c-15.4 0-28 12.6-28 28s12.6 28 28 28 28-12.6 28-28-12.6-28-28-28zm4 48h-8v-28h8v28zm-4-40c-2.2 0-4 1.8-4 4s1.8 4 4 4 4-1.8 4-4-1.8-4-4-4zm36-56V32h-57.7l-84 84L76 173.7l12.2-12.2c-1.6-2.2-3-4.6-4.2-7.2l-8 8L29.7 116l76-76H152v20h-8.5c-1.8-6.9-8-12-15.5-12-8.8 0-16 7.2-16 16s7.2 16 16 16c7.4 0 13.7-5.1 15.5-12h8.5v18.3l-9.7 9.7c2.5 1.2 4.9 2.6 7.2 4.2L160 89.7V68h16v-8h-16zm-25.1 8c-1.4 2.4-4 4-6.9 4-4.4 0-8-3.6-8-8s3.6-8 8-8c3 0 5.5 1.6 6.9 4H128v8h6.9z" fill="rgba(0,0,0,1)"/></svg>
