<?xml version="1.0" encoding="UTF-8"?>
<svg xmlns="http://www.w3.org/2000/svg" viewBox="0 0 192 192"><path d="M52.5 128.3l5.1-5.1c2.2-2.2 4.5-2.4 6.3-.6 1.1 1.1 1.3 2.2.7 3.8 1.8-.8 3.1-.6 4.3.7 1.9 1.9 1.7 4.3-.8 6.7l-5.1 5.1-10.5-10.6zm8.9-.6c.8-.8.8-1.4.1-2.1s-1.3-.6-2.1.1l-1.8 1.8 1.9 1.9 1.9-1.7zm4.3 4.2c.8-.8.9-1.7.1-2.4-.7-.7-1.6-.7-2.5.2l-1.9 1.9 2.2 2.2 2.1-1.9zM63.1 117.8l4.9-4.9c2.4-2.4 5-2.7 6.9-.7 1.4 1.4 1.7 2.8.8 4.6 1.4-.7 2.1-.6 4.3.9 1.6 1 2.4 1.4 2.8 1.4l.2-.1-3 3c-.7-.2-1.6-.7-2.8-1.4-1.7-1.1-2.2-1.1-3.1-.3l-1.3 1.3 3.8 3.8-2.9 2.9-10.6-10.5zm9.3.2c.9-.9.9-1.8.1-2.7-.4-.4-.9-.6-1.4-.6s-.8.3-1.4.9l-1.5 1.5 2.5 2.5 1.7-1.6zM84.9 113.5l1.2 2.4-2.7 2.7-6.8-14.4 3.4-3.4 14.3 6.8-3.1 3.1-2.4-1.2-3.9 4zm-4.1-8.2l2.7 5.5 2.7-2.7-5.4-2.8zM85 95.9l3.2-3.2 9.6 2.7-6.2-6.2 2.6-2.6 10.6 10.6-3 3-10.2-2.9 6.5 6.5-2.6 2.6L85 95.9zM96.4 84.4l4.2-4.2c3.4-3.4 7.4-3.4 10.6-.2 3.3 3.3 3.3 7.4-.1 10.8L107 95 96.4 84.4zm12.5 4.1c1.5-1.5 1.3-3.4-.7-5.4s-3.8-2.2-5.4-.6l-1.3 1.3 6 6 1.4-1.3z" fill="rgba(0,0,0,1)"/><path d="M176 60h-16V32h-57.7l-84 84L76 173.7l84-84V68h16v-8zm-24 26.3l-76 76L29.7 116l76-76H152v20h-8.5c-1.8-6.9-8-12-15.5-12-8.8 0-16 7.2-16 16s7.2 16 16 16c7.4 0 13.7-5.1 15.5-12h8.5v18.3zM134.9 68c-1.4 2.4-4 4-6.9 4-4.4 0-8-3.6-8-8s3.6-8 8-8c3 0 5.5 1.6 6.9 4H128v8h6.9z" fill="rgba(0,0,0,1)"/></svg>
