<?xml version="1.0" encoding="UTF-8"?>
<svg xmlns="http://www.w3.org/2000/svg" viewBox="0 0 192 192"><path d="M180.8 156l-34.7-39.7-14.9-2.7L114.1 88H77.5l-7.3 14.5-8.9-1.6-21.5-69.5-24.5 4.7 1.5 7.9 17.5-3.3L49 88H16v51.1l30.9 7.7c2.5 7.6 9.6 13.1 18.1 13.1 4.4 0 8.4-1.5 11.6-4h50.5c2.2 2.4 5.4 4 8.9 4s6.7-1.6 8.9-4h35.9zM82.5 96h27.4l10.4 15.6-41.8-7.6 4-8zM24 96h27.5l8.3 26.7c-7.1 2-12.6 8.2-13.6 15.7L24 132.9V96zm41 56c-6.1 0-11-4.9-11-11s4.9-11 11-11 11 4.9 11 11-4.9 11-11 11zm17.6-4c.9-2.2 1.4-4.5 1.4-7 0-9.4-6.9-17.3-16-18.7l-4-12.7 77.8 14.2 21.3 24.3H148c0-6.6-5.4-12-12-12s-12 5.4-12 12H82.6zm53.4 4c-2.2 0-4-1.8-4-4s1.8-4 4-4 4 1.8 4 4-1.8 4-4 4z" fill="rgba(0,0,0,1)"/></svg>
