<?xml version="1.0" encoding="UTF-8"?>
<svg xmlns="http://www.w3.org/2000/svg" viewBox="0 0 192 192"><path d="M156.1 39.4l-.4-3.2-3.2-.4c-1.4-.2-35.2-3.9-50.8-3.9-24.9 0-43 6.5-57 20.5-12.9 12.9-16.6 34.9-8.5 51.1l.1.2c5.5 10 19 16.2 27 19.2l-30.2 30.2 5.7 5.7L69 128.6c3 8.1 9.2 21.5 19.2 27l.2.1c5.8 2.9 12.3 4.3 18.9 4.3 11.8 0 23.8-4.5 32.1-12.8 14-14 20.5-32.1 20.5-57 .1-15.5-3.6-49.3-3.8-50.8zm-22.3 102.2c-11.6 11.6-30.3 12.7-41.8 7-8.5-4.8-14.4-19-16.7-26.3l9.8-9.8 37.7 11.3 2.3-7.7L91.5 106l17.6-17.6 25.7 7.4 2.2-7.7-21.4-6.1 19.2-19.2-5.7-5.7L110 76.4l-6.1-21.5-7.7 2.2 7.4 25.7L86 100.4 75.8 66.9l-7.7 2.3 11.3 37.7-9.8 9.8c-7.3-2.3-21.5-8.2-26.3-16.7-5.7-11.4-4.6-30.1 7-41.8C62.8 45.8 79.2 40 101.8 40c12.4 0 37.8 2.6 46.7 3.5.9 8.9 3.5 34.3 3.5 46.7 0 22.6-5.8 39-18.2 51.4z" fill="rgba(0,0,0,1)"/></svg>
