<?xml version="1.0" encoding="UTF-8"?>
<svg xmlns="http://www.w3.org/2000/svg" viewBox="0 0 192 192"><path d="M159.9 35.3l-.5-2.7-2.7-.5c-.7-.1-16.7-3.1-37.5-1.6-27.8 2-50.6 11.3-66 26.7C39 71.3 34.5 89.9 40.1 111c3 11.1 8 20.1 10.7 24.5l-21.7 21.7 5.7 5.7 21.7-21.7c4.4 2.7 13.3 7.8 24.5 10.7 5.9 1.6 11.6 2.4 17.1 2.4 14.1 0 26.6-5.2 36.8-15.4 15.4-15.4 24.6-38.2 26.7-66 1.4-20.9-1.5-37-1.7-37.6zm-30.7 97.9c-12.1 12.1-27.6 15.8-45.9 11-9-2.4-16.5-6.3-20.9-8.9l60.5-60.5-5.7-5.7-60.5 60.5c-6.5-11.1-21.8-42.9 2.1-66.8 29.9-29.9 81.2-25 93.7-23.3 1.7 12.4 6.6 63.7-23.3 93.7z" fill="rgba(0,0,0,1)"/></svg>
