<?xml version="1.0" encoding="UTF-8"?>
<svg xmlns="http://www.w3.org/2000/svg" viewBox="0 0 192 192"><path d="M115.5 175.9c-.8 0-1.7-.1-2.5-.3-5.6-1.2-19.8-4.7-31.9-11.7-10.6-6.2-19.7-13.2-25.7-19.9-4.1-4.6-4.1-11.6-.1-16.1 5.9-6.6 15-13.6 25.5-19.7 12.1-6.9 26.3-10.3 31.8-11.5 5.8-1.2 11.6 1.9 13.8 7.4 3.6 8.7 5.6 20.1 5.6 32.1.1 12-1.8 23.4-5.3 32.1-1.8 4.7-6.3 7.6-11.2 7.6zm-1.2-71.4c-4 .8-18.1 4-29.4 10.5-9.7 5.6-18.2 12.2-23.5 18.1-1.4 1.6-1.4 3.9 0 5.5 5.3 6 14 12.7 23.7 18.3 11.4 6.7 25.5 10 29.5 10.8 2 .4 3.9-.6 4.7-2.5 3.1-7.8 4.8-18.1 4.7-29.1-.1-11-1.8-21.3-5-29.1-.7-1.8-2.7-2.9-4.7-2.5zM140 112h36v8h-36zM140 132h36v8h-36zM140 152h36v8h-36z" fill="rgba(0,0,0,1)"/><path d="M24 101.8c0-31.1 28.9-62.9 38-72.2 8.1 8.3 32 34.5 37 62.1 2.5-.8 5.1-1.5 7.7-2.2-2.6-13.6-9.5-28.2-20.5-43.6-10.6-14.7-21-24.4-21.5-24.8L62 18.5 59.3 21c-.5.5-10.9 10.2-21.5 25C23.3 66.1 16 84.8 16 101.8c0 12.1 4.7 23.6 13.1 32.3 4.9 5.1 10.8 8.8 17.3 11.2-1.4-2.7-2.1-6.2-2-9.7-12.1-6.5-20.4-19.2-20.4-33.8z" fill="rgba(0,0,0,1)"/></svg>
