<?xml version="1.0" encoding="UTF-8"?>
<svg xmlns="http://www.w3.org/2000/svg" viewBox="0 0 192 192"><path d="M96 44c-25.3 0-45.5 11.7-55.3 18.7C25.7 73.5 16 86.5 16 96s9.7 22.5 24.7 33.3c9.8 7 30 18.7 55.3 18.7 16.6 0 24-37.7 24-52 0-14.3-7.4-52-24-52zm0 96c-16.9 0-35.3-6.3-50.7-17.3-14-10-21.3-21-21.3-26.7s7.3-16.7 21.3-26.7C60.7 58.3 79.1 52 96 52c6.3 0 16 23.6 16 44s-9.7 44-16 44zM126.646 68.238l43.982-15.997 2.735 7.519-43.983 15.996zM126.646 92.238l43.983-15.996 2.734 7.518-43.982 15.997zM126.647 116.239l43.982-15.997 2.735 7.519-43.983 15.996z" fill="rgba(0,0,0,1)"/></svg>
