<?xml version="1.0" encoding="UTF-8"?>
<svg xmlns="http://www.w3.org/2000/svg" viewBox="0 0 192 192"><path d="M39.588 141.156l14.279-14.147 5.63 5.684-14.279 14.146zM132.334 49.318l14.423-14.285 5.63 5.684-14.423 14.285zM132.474 132.728l5.63-5.683 14.28 14.146-5.63 5.683zM39.622 40.76l5.63-5.683 14.422 14.287-5.63 5.683zM72 152h48v8H72zM76 168h40v8H76zM129.9 57.7C120.8 48.9 108.8 44 96 44c-12.8 0-24.8 4.9-33.9 13.7C53 66.6 48 78.4 48 90.9c0 12.6 5 24.3 14.1 33.2 1.4 1.4 2.7 2.5 4 3.6.4.4.9.8 1.4 1.1.3.2.6.5.9.7 1.4 1.1 3.6 2.9 3.6 4.4v10h8v-10c0-5.4-4.3-8.8-6.6-10.7-.3-.2-.5-.4-.7-.6-.5-.4-1-.8-1.4-1.2-1.2-1-2.4-2-3.6-3.1-7.6-7.2-11.7-17-11.7-27.4 0-10.4 4.1-20.1 11.7-27.5C75.2 56.1 85.3 52 96 52s20.8 4.1 28.3 11.4c7.5 7.3 11.7 17.1 11.7 27.5 0 10.4-4.1 20.1-11.7 27.5-1.2 1.1-2.3 2.1-3.6 3.1-.5.4-.9.8-1.4 1.2-.2.2-.4.4-.7.6-2.3 1.9-6.6 5.3-6.6 10.7v10h8v-10c0-1.5 2.3-3.4 3.6-4.4.3-.3.6-.5.9-.7.5-.4.9-.8 1.4-1.1 1.3-1.1 2.6-2.2 4-3.6C139 115.3 144 103.5 144 91c0-12.6-5-24.4-14.1-33.3zM152 88h19.9v8H152zM20.1 88H40v8H20.1zM92 16h8v20h-8z" fill="rgba(0,0,0,1)"/></svg>
