<?xml version="1.0" encoding="UTF-8"?>
<svg xmlns="http://www.w3.org/2000/svg" viewBox="0 0 192 192"><path d="M96 19.7c20.4.2 39.1 5.5 55.4 18.1 11 8.5 19.1 19.1 22.7 32.7 4.3 16 1.2 30.7-7.9 44.3-6.5 9.7-15.1 17.3-24 24.6-14.3 11.8-29.6 22.1-45.8 30.8-1.4.8-2.9 1.5-4.5 1.9-2.6.7-4.4-.9-3.9-3.6.2-1.3.9-2.4 1.1-3.7.8-3.9 1.8-7.7 2.2-11.6.3-3-1.2-4.3-4.2-4.6-18.5-1.7-35.3-7.8-49.5-20-12.3-10.5-20-23.7-21.3-40-1.2-14.1 3-26.8 11.6-37.9 11.6-15.2 27.4-23.9 45.7-28.4 7.2-1.8 14.7-2.6 22.4-2.6zm-1.3 60.7c.6.7.8 1 1.1 1.3 4.9 6.6 9.7 13.2 14.6 19.8 1.5 2 3.3 2.7 5.1 2.1 1.8-.6 2.9-2.1 2.9-4.5V68.3c0-2.5-1.9-4.4-4.2-4.4-2.4 0-4.2 1.9-4.2 4.6v16.8c0 .5-.1 1-.2 1.8-.5-.7-.8-1-1.1-1.4-4.7-6.4-9.5-12.9-14.2-19.3-1.6-2.2-3.2-2.9-5.2-2.3-2 .6-3 2.2-3 5 0 9.9-.1 19.7-.1 29.6 0 3.1 1.6 5 4.2 5s4.3-1.8 4.3-4.9V87.5v-7.1zm37.7-8.1h10.7c3 0 4.8-1.6 4.9-4.1.1-2.6-1.8-4.4-4.8-4.4h-14.4c-3.4 0-4.9 1.6-5 5.1v29.9c0 3.3 1.6 4.8 4.8 4.8h15.2c2 0 3.4-1 4.1-2.8 1-2.7-1.1-5.5-4.2-5.6-3.7-.1-7.5 0-11.3 0v-7.3h11.2c2.6 0 4.4-1.7 4.5-4.1.1-2.5-1.7-4.2-4.4-4.3h-11.2c-.1-2.4-.1-4.7-.1-7.2zM52.5 95.4v-2.7c0-8 0-16-.1-24 0-3-1.7-4.8-4.2-4.8s-4.1 1.9-4.2 4.8c0 10-.1 20.1 0 30.1 0 3.2 1.6 4.8 4.8 4.8h14.6c2.9 0 4.8-1.6 4.8-4.1 0-2.5-2-4.2-5-4.2-3.4.1-6.9.1-10.7.1zM72 83.7c-.1 5.1-.1 10.1 0 15.2 0 2.9 1.7 4.8 4.2 4.8s4.2-1.8 4.2-4.7c0-10.2 0-20.4-.1-30.5 0-.8-.2-1.8-.7-2.5-1-1.7-2.7-2.2-4.6-1.7-1.9.5-3 2.1-3 4.4v15z" fill="rgba(0,0,0,1)"/></svg>
