<?xml version="1.0" encoding="UTF-8"?>
<svg xmlns="http://www.w3.org/2000/svg" viewBox="0 0 192 192"><path d="M36 116h8v8h-8v-8zm140 28c0-17.6-14.4-32-32-32s-32 14.4-32 32 14.4 32 32 32 32-14.4 32-32zm-8 0c0 13.2-10.8 24-24 24s-24-10.8-24-24 10.8-24 24-24 24 10.8 24 24zm-9.2-5.2l-5.7-5.7-13.1 13.2-5.2-5.2-5.7 5.7 10.8 10.8 18.9-18.8zm-54-2.8c-.5 2.6-.8 5.3-.8 8H56v16h-8v-16h-8c-13.2 0-24-10.8-24-24s10.8-24 24-24V76h32v20h12V76h32v20h12V76h32v21.4c9.3 3.3 16 12.2 16 22.6-3.3-4.3-7.4-8-12.1-10.7-2.9-3.2-7.2-5.3-11.9-5.3H40c-8.8 0-16 7.2-16 16s7.2 16 16 16h64.8zM136 96h16V84h-16v12zm-44 0h16V84H92v12zm-44 0h16V84H48v12zm66.8-78.8l-5.7 5.7L122.3 36H56v8h66.3l-13.2 13.2 5.7 5.7L137.7 40l-22.9-22.8z" fill="rgba(0,0,0,1)"/></svg>
