<?xml version="1.0" encoding="UTF-8"?>
<svg xmlns="http://www.w3.org/2000/svg" viewBox="0 0 192 192"><path d="M32 152h128v8H32zM32 136h128v8H32z" fill="rgba(0,0,0,1)"/><g><path d="M68 128c-1.7 0-3.2-1-3.8-2.6L49.2 84H32v-8h20c1.7 0 3.2 1.1 3.8 2.6l12 33 24.4-76.8c.5-1.6 2-2.7 3.7-2.8 1.7-.1 3.2 1 3.8 2.6l19.8 52.9 8.6-28.6c.5-1.6 2-2.8 3.7-2.8 1.7-.1 3.3.9 3.9 2.5l7 17.5H160v8h-20c-1.6 0-3.1-1-3.7-2.5l-3.7-9.4-8.7 29c-.5 1.6-2 2.8-3.7 2.8-1.7.1-3.3-1-3.9-2.6l-20-53.2-24.5 77c-.5 1.6-2 2.8-3.8 2.8.1 0 0 0 0 0z" fill="rgba(0,0,0,1)"/></g></svg>
