<?xml version="1.0" encoding="UTF-8"?>
<svg xmlns="http://www.w3.org/2000/svg" viewBox="0 0 192 192"><path d="M108 121.5c-2.2 0-4.4-.2-6.5-.6-.1.1-.1.2-.2.2l-24 24c-8.4 8.4-22 8.4-30.4 0-8.4-8.4-8.4-22 0-30.4l24-24c8.4-8.4 22-8.4 30.4 0 1.9 1.9 3.4 4.1 4.5 6.5.7.1 1.5.2 2.3.2 2.1 0 4.1-.5 5.9-1.3-1.5-4.1-3.8-7.9-7-11-11.5-11.5-30.2-11.5-41.7 0l-24 24c-11.5 11.5-11.5 30.2 0 41.7 5.6 5.6 13 8.6 20.9 8.6s15.3-3.1 20.9-8.6l24-24c1.7-1.7 3.1-3.5 4.3-5.5-1.3.1-2.3.2-3.4.2z" fill="rgba(0,0,0,1)"/><path d="M152.9 39.1c-11.5-11.5-30.2-11.5-41.7 0l-24 24c-1.7 1.7-3.1 3.5-4.3 5.5 1.1-.1 2.1-.1 3.2-.1 2.2 0 4.4.2 6.5.6.1-.1.1-.2.2-.2l24-24c8.4-8.4 22-8.4 30.4 0s8.4 22 0 30.4l-24 24c-8.4 8.4-22 8.4-30.4 0-1.9-1.9-3.4-4.1-4.5-6.5-.7-.1-1.5-.2-2.3-.2-2.1 0-4.1.5-5.9 1.3 1.5 4.1 3.8 7.9 7 11.1 5.8 5.8 13.3 8.6 20.9 8.6s15.1-2.9 20.9-8.6l24-24c11.5-11.7 11.5-30.4 0-41.9z" fill="rgba(0,0,0,1)"/></svg>
