<?xml version="1.0" encoding="UTF-8"?>
<svg xmlns="http://www.w3.org/2000/svg" viewBox="0 0 192 192"><path d="M140.3 107.9H160v8h-19.7zM108 140.2h8V160h-8zM129 134.532l5.656-5.657 14.142 14.142-5.657 5.657zM32 76.1h19.7v8H32zM76 32h8v19.8h-8zM43.2 48.983l5.656-5.657 14.142 14.142-5.657 5.657zM77.2 145.2c-8.4 8.4-22 8.4-30.4 0s-8.4-22 0-30.4l24-24-5.7-5.7-24 24c-11.5 11.5-11.5 30.2 0 41.7 5.8 5.8 13.3 8.6 20.9 8.6s15.1-2.9 20.9-8.6l24-24-5.7-5.7-24 24.1zM152.9 39.1c-11.5-11.5-30.2-11.5-41.7 0l-26 26 5.7 5.7 26-26c8.4-8.4 22-8.4 30.4 0s8.4 22 0 30.4l-26 26 5.7 5.7 26.1-26c11.3-11.6 11.3-30.3-.2-41.8z" fill="rgba(0,0,0,1)"/></svg>
