<?xml version="1.0" encoding="UTF-8"?>
<svg xmlns="http://www.w3.org/2000/svg" viewBox="0 0 192 192"><path d="M140 157.7l-10.8-10.8 5.7-5.7 5.2 5.2 13.2-13.2 5.7 5.7-19 18.8zm36-13.7c0-17.6-14.4-32-32-32s-32 14.4-32 32 14.4 32 32 32 32-14.4 32-32zm-8 0c0 13.2-10.8 24-24 24s-24-10.8-24-24 10.8-24 24-24 24 10.8 24 24zM157.7 26.3C151 19.5 142 15.9 132.3 16c-9.6.1-18.7 4-25.6 10.9L78.8 54.8c-1.8 1.8-3.4 3.7-4.7 5.7 2-.3 4-.5 6-.5 1.5 0 3.1 0 4.6.2l27.6-27.6c5.4-5.4 12.5-8.4 20-8.5h.4c7.3 0 14.2 2.8 19.3 7.9 5.2 5.2 8 12.2 7.9 19.7-.1 7.5-3.1 14.6-8.5 20l-27.7 27.7-.2.2c-2.3 2.3-4.9 4.2-7.7 5.5-2.7 1.3-5.5 2.2-8.3 2.6-2.7.4-5.5.5-8.2.1-5.7-.8-11.2-3.3-15.5-7.6-4.3-4.3-6.9-9.8-7.7-15.6-2.7.6-5.2 1.8-7.5 3.4 1.3 6.6 4.5 12.8 9.5 17.8s11.2 8.2 17.7 9.5c2.4.5 4.8.7 7.2.7h1.7c3.1-.1 6.3-.7 9.3-1.7 3.2-1 6.3-2.5 9.2-4.4 2.1-1.4 4-2.9 5.8-4.8l27.9-27.9c6.9-6.9 10.7-16 10.9-25.6.3-9.6-3.3-18.6-10.1-25.3zm-58.6 97.5l-27.6 27.6c-11.1 11.1-28.9 11.4-39.6.6-5.2-5.2-8-12.2-7.9-19.6.1-7.5 3.1-14.6 8.5-20l27.7-27.7.2-.2c2.3-2.3 4.9-4.1 7.6-5.5 2.6-1.3 5.4-2.2 8.3-2.7 1.3-.2 2.7-.3 4.1-.3h.4c1.3 0 2.5.1 3.7.3 5.9.8 11.3 3.4 15.5 7.7 4.3 4.3 6.9 9.8 7.6 15.6 2.7-.6 5.3-1.8 7.5-3.4-1.3-6.6-4.5-12.8-9.5-17.8-4.9-4.9-11.1-8.2-17.8-9.5-2.5-.5-5-.7-7.6-.7h-1.3c-3.2.2-6.3.7-9.3 1.7-3.3 1-6.4 2.5-9.2 4.4-2 1.4-4 2.9-5.8 4.7l-27.9 27.9c-6.9 6.9-10.7 15.9-10.9 25.6-.1 9.6 3.5 18.7 10.2 25.4 6.8 6.8 15.8 10.2 24.9 10.2 9.4 0 18.8-3.6 26.1-10.9l27.9-27.9c1.8-1.8 3.3-3.7 4.7-5.7-2.2.3-4.4.5-6.6.5-1.2-.1-2.5-.2-3.9-.3z" fill="rgba(0,0,0,1)"/></svg>
