<?xml version="1.0" encoding="UTF-8"?>
<svg xmlns="http://www.w3.org/2000/svg" viewBox="0 0 192 192"><circle cx="80" cy="80" r="4" fill="rgba(0,0,0,1)"/><path d="M155.9 56.8c1.3-3.9 2.7-7 3.9-9.7 2.2-5 4.1-9.3 4.1-15.1 0-2.8-1.2-5.1-3.4-6.5-5-3.2-14.5-.3-19.7 1.8-6.1-7.8-16-12.3-25.4-11.2-6.5.7-15.3 2.6-19.6 3.8-4.2-1.2-13.1-3.1-19.6-3.8C67 15 57.1 19.5 51 27.3c-5.2-2.1-14.7-5-19.7-1.8-2.1 1.4-3.3 3.7-3.3 6.5 0 5.9 1.9 10.2 4.1 15.1 1.2 2.7 2.6 5.8 3.9 9.7-7.6 17.5-16 40-16 55.2 0 14.5 7.4 27.3 18.5 31.7 11.4 4.6 46.1 18.4 54.2 30.5l3.3 5 3.3-5c8-12.1 42.8-25.9 54.2-30.5 11.1-4.4 18.5-17.2 18.5-31.7 0-15.2-8.4-37.7-16.1-55.2zm.1-24.7c0 4.1-1.4 7.2-3.5 11.8-.4.9-.8 1.8-1.2 2.8-2.5-5.4-4.7-9.7-6.1-12.5 4.6-1.6 9.2-2.6 10.8-2.1zM39.5 43.9c-2.1-4.6-3.4-7.7-3.5-11.8 1.6-.5 6.2.5 10.8 2.1-1.4 2.7-3.6 7.1-6.1 12.5-.4-1-.8-1.9-1.2-2.8zm111 92.4c-20.1 8-43.7 18.4-54.5 29.5-10.8-11-34.4-21.4-54.5-29.5-8-3.2-13.5-13.2-13.5-24.3 0-22.7 22-67.2 27.5-77.1 3.7-6.7 11-11.1 18.2-11.1.6 0 1.3 0 1.9.1 6.8.8 16.5 2.9 19.2 3.8l1.3.4 1.3-.4c2.7-.9 12.4-3.1 19.2-3.8 7.7-.9 16 3.6 20.1 11C142 44.8 164 89.3 164 112c0 11.1-5.5 21.1-13.5 24.3z" fill="rgba(0,0,0,1)"/><path d="M121.5 52.3c-4.1-1.6-10.4-.1-18.8 2.2-2.4.7-5.7 1.6-6.6 1.6s-4.2-.9-6.6-1.6c-8.4-2.3-14.7-3.8-18.8-2.2-7.1 2.7-16.6 16.6-18.6 26.9-1.2 5.9.7 9.7 2.5 11.8 3.1 3.7 7.7 4.9 9.4 4.9h3.4c-.4 3.8-.5 9.1.8 13.3 1.4 4.2 4.3 7.5 6.4 9.8.5.5 1.1 1.2 1.4 1.7.3 15.9 11 19.2 20 19.2s19.7-3.4 20-19.2c.3-.4 1-1.1 1.4-1.7 2.1-2.3 4.9-5.5 6.4-9.8 1.4-4.1 1.2-9.4.8-13.3h3.4c1.8 0 6.4-1.2 9.4-4.9 1.8-2.2 3.6-6 2.5-11.8-2-10.3-11.5-24.2-18.4-26.9zM96 132c-9.2 0-11.5-4.4-11.9-9.6l11.9-6 11.9 6c-.4 5.2-2.7 9.6-11.9 9.6zm35.4-46.3c-1.1 1.5-3 2.1-3.6 2.3H120c-1.2 0-2.3.5-3.1 1.5s-1.1 2.1-.8 3.3c.5 2.3 1.5 9.9.1 14-.9 2.7-3 5.1-4.7 7-.3.4-.6.7-.9 1.1l-9.7-4.8c.9-2.9 3.4-6.7 5.9-8.6 1.8-1.4 2.6-3.9 1.8-6.1-.8-2.2-2.9-3.7-5.2-3.7H88.6c-2.3 0-4.4 1.5-5.2 3.7-.8 2.2 0 4.7 1.8 6.1 2.5 2 5 5.7 5.9 8.6l-9.7 4.8c-.3-.3-.6-.7-.9-1.1-1.7-1.9-3.8-4.3-4.7-7-1.4-4.1-.4-11.5.1-14 .2-1.2-.1-2.4-.8-3.3S73.2 88 72 88h-7.8c-.6-.1-2.6-.7-3.6-2.3-.8-1.2-1.1-2.9-.6-5 1.8-9.1 10.2-19.7 13.6-21.1 2-.8 10.2 1.5 13.8 2.4 4.3 1.2 6.9 1.8 8.7 1.8s4.4-.7 8.7-1.8c3.5-1 11.8-3.2 13.8-2.4 3.3 1.3 11.7 11.9 13.6 21.1.3 2.2.1 3.9-.8 5z" fill="rgba(0,0,0,1)"/><circle cx="112" cy="80" r="4" fill="rgba(0,0,0,1)"/></svg>
