<?xml version="1.0" encoding="UTF-8"?>
<svg xmlns="http://www.w3.org/2000/svg" viewBox="0 0 192 192"><path d="M152 174l-27.6-11.5c-9 3.6-18.6 5.5-28.4 5.5-41.9 0-76-34.1-76-76s34.1-76 76-76 76 34.1 76 76c0 19.1-7.1 37.3-20 51.4V174zm-27.6-20.2L144 162v-21.8l1.1-1.2c12.2-12.7 18.9-29.4 18.9-47 0-37.5-30.5-68-68-68S28 54.5 28 92s30.5 68 68 68c9.3 0 18.3-1.8 26.8-5.5l1.6-.7z" fill="rgba(0,0,0,1)"/><circle cx="96" cy="92" r="8" fill="rgba(0,0,0,1)"/><circle cx="68" cy="92" r="8" fill="rgba(0,0,0,1)"/><circle cx="124" cy="92" r="8" fill="rgba(0,0,0,1)"/></svg>
