<?xml version="1.0" encoding="UTF-8"?>
<svg xmlns="http://www.w3.org/2000/svg" viewBox="0 0 192 192"><path d="M96 92c-13.2 0-24-10.8-24-24s10.8-24 24-24 24 10.8 24 24-10.8 24-24 24zm0-40c-8.8 0-16 7.2-16 16s7.2 16 16 16 16-7.2 16-16-7.2-16-16-16z" fill="rgba(0,0,0,1)"/><path d="M96 175.9l-3.4-5.8c-.3-.6-33-56-40-68C47.1 93.3 44 80.9 44 68c0-28.7 23.3-52 52-52s52 23.3 52 52c0 12.9-3.1 25.3-8.6 34.1-7 12-39.6 67.4-40 68l-3.4 5.8zM96 24c-24.3 0-44 19.7-44 44 0 11.3 2.8 22.5 7.4 29.9l.1.1c5.6 9.5 27.9 47.5 36.5 62.1 8.6-14.7 31-52.6 36.5-62.1l.1-.1c4.6-7.4 7.4-18.6 7.4-29.9 0-24.3-19.7-44-44-44z" fill="rgba(0,0,0,1)"/></svg>
