<?xml version="1.0" encoding="UTF-8"?>
<svg xmlns="http://www.w3.org/2000/svg" viewBox="0 0 192 192"><path d="M96 124c-16.5 0-30-13.5-30-30s13.5-30 30-30 30 13.5 30 30-13.5 30-30 30zM92 16h8v17h-8zM92 159h8v17h-8zM16 92h17v8H16zM159 92h17v8h-17zM140 157.7l-10.8-10.9 5.6-5.6 5.2 5.1 13.2-13.1 5.6 5.6z" fill="rgba(0,0,0,1)"/><path d="M144 176c-17.6 0-32-14.4-32-32s14.4-32 32-32 32 14.4 32 32-14.4 32-32 32zm0-56c-13.2 0-24 10.8-24 24s10.8 24 24 24 24-10.8 24-24-10.8-24-24-24z" fill="rgba(0,0,0,1)"/><path fill="none" d="M149.5 112.5c-1.8-.3-3.6-.5-5.5-.5-17.6 0-32 14.4-32 32 0 1.9.2 3.7.5 5.5 17.6-5.4 31.6-19.4 37-37z"/><path fill="none" d="M144 104c2.5 0 4.9.2 7.3.7.4-2.8.7-5.7.7-8.7 0-30.9-25.1-56-56-56S40 65.1 40 96s25.1 56 56 56c3 0 5.9-.2 8.7-.7-.4-2.4-.7-4.8-.7-7.3 0-22.1 17.9-40 40-40zM114.8 157.2c5 11.1 16.2 18.8 29.2 18.8 17.6 0 32-14.4 32-32 0-13-7.7-24.1-18.8-29.2-6.3 20.2-22.2 36.1-42.4 42.4z"/><path d="M96 152c-30.9 0-56-25.1-56-56s25.1-56 56-56 56 25.1 56 56c0 3-.2 5.9-.7 8.7 2.7.5 5.3 1.3 7.7 2.3.6-3.6 1-7.2 1-10.9 0-35.3-28.7-64-64-64S32 60.7 32 96s28.7 64 64 64c3.7 0 7.4-.3 10.9-1-1-2.5-1.8-5-2.3-7.7-2.7.5-5.6.7-8.6.7z" fill="rgba(0,0,0,1)"/></svg>
