<?xml version="1.0" encoding="UTF-8"?>
<svg xmlns="http://www.w3.org/2000/svg" viewBox="0 0 192 192"><path d="M92.6 118.1l3.4 5.6 3.4-5.6c.2-.4 22-36.3 26.6-44.1 3.8-5.9 5.9-14.2 5.9-22.9C132 31.8 115.9 16 96 16S60 31.8 60 51.1c0 8.6 2.2 17 5.9 22.9 4.7 7.8 26.5 43.7 26.7 44.1zM96 24c15.4 0 28 12.2 28 27.1 0 7.1-1.8 14-4.7 18.6l-.1.1c-3.5 5.8-16.9 27.9-23.2 38.4-6.4-10.5-19.7-32.6-23.2-38.4l-.1-.1C69.8 65.1 68 58.2 68 51.1 68 36.2 80.6 24 96 24zM160 152h-44v-16H76v16H32v8h44v16h40v-16h44v-8zm-52 16H84v-24h24v24z" fill="rgba(0,0,0,1)"/><path d="M80 41h7.4v27H80zM100.8 58.8h5.1c6.1 0 9.8-3.3 9.8-8.7 0-5.7-3.8-9.1-10.2-9.1H93.3v27h7.4v-9.2zm0-12.2h4.1c2.4 0 3.6 1.2 3.6 3.4s-1.3 3.4-3.7 3.4h-4v-6.8z" fill="rgba(0,0,0,1)"/></svg>
