<?xml version="1.0" encoding="UTF-8"?>
<svg xmlns="http://www.w3.org/2000/svg" viewBox="0 0 192 192"><path d="M160 152h-44v-16H98.3l1.2-1.9c.2-.4 22-36.3 26.6-44.1 3.8-5.9 5.9-14.2 5.9-22.9C132 47.8 115.9 32 96 32S60 47.8 60 67.1c0 8.6 2.2 17 5.9 22.9 4.7 7.8 26.4 43.7 26.6 44.1l1.2 1.9H76v16H32v8h44v16h40v-16h44v-8zM72.8 85.8l-.1-.1C69.8 81.1 68 74.2 68 67.1 68 52.2 80.6 40 96 40s28 12.2 28 27.1c0 7.1-1.8 14-4.7 18.6l-.1.1c-3.5 5.8-16.9 27.9-23.2 38.4-6.4-10.5-19.7-32.5-23.2-38.4zM108 168H84v-24h24v24z" fill="rgba(0,0,0,1)"/><path d="M80 57h7.4v27H80zM100.8 74.8h5.1c6.1 0 9.8-3.3 9.8-8.7 0-5.7-3.8-9.1-10.2-9.1H93.3v27h7.4v-9.2zm0-12.2h4.1c2.4 0 3.6 1.2 3.6 3.4s-1.3 3.4-3.7 3.4h-4v-6.8z" fill="rgba(0,0,0,1)"/></svg>
