<?xml version="1.0" encoding="UTF-8"?>
<svg xmlns="http://www.w3.org/2000/svg" viewBox="0 0 192 192"><path d="M140 72V60c0-24.3-19.7-44-44-44-14 0-26.8 6.4-35.2 17.6l6.4 4.8C74.1 29.2 84.6 24 96 24c19.9 0 36 16.1 36 36v12H32v104h128V72h-20zm12 96H40V80h112v88z" fill="rgba(0,0,0,1)"/><path d="M84 148h24v-21.4c2.6-2.9 4-6.7 4-10.6 0-4.5-1.9-8.9-5.3-11.9s-7.9-4.5-12.5-4c-7.4.8-13.3 6.8-14.1 14.2-.5 4.5.9 8.9 3.9 12.3V148zm4-32.9c.4-3.6 3.4-6.7 7-7.1 2.3-.3 4.5.5 6.3 2 1.7 1.5 2.7 3.7 2.7 6s-1 4.4-2.7 5.9l-1.3 1.2V140h-8v-16.9l-1.3-1.2c-2-1.7-2.9-4.2-2.7-6.8z" fill="rgba(0,0,0,1)"/></svg>
