<?xml version="1.0" encoding="UTF-8"?>
<svg xmlns="http://www.w3.org/2000/svg" viewBox="0 0 192 192"><path d="M96 16c-44.1 0-80 35.9-80 80s35.9 80 80 80 80-35.9 80-80-35.9-80-80-80zm0 152c-39.7 0-72-32.3-72-72s32.3-72 72-72 72 32.3 72 72-32.3 72-72 72z" fill="rgba(0,0,0,1)"/><path d="M96 44c-4.9 0-9.8 1.3-14 3.8l4 6.9c3-1.8 6.5-2.7 10-2.7 11 0 20 9 20 20H56v64h80V72h-12c0-15.4-12.6-28-28-28zm32 36v48H64V80h64z" fill="rgba(0,0,0,1)"/><path d="M92 105.7V116h8v-10.3c1.8-1.3 3-3.4 3-5.7 0-3.9-3.1-7-7-7s-7 3.1-7 7c0 2.4 1.2 4.5 3 5.7z" fill="rgba(0,0,0,1)"/></svg>
