<?xml version="1.0" encoding="UTF-8"?>
<svg xmlns="http://www.w3.org/2000/svg" viewBox="0 0 192 192"><path d="M140 157.7l-10.8-10.8 5.7-5.7 5.2 5.2 13.2-13.2 5.7 5.7-19 18.8zm36-13.7c0-17.6-14.4-32-32-32s-32 14.4-32 32 14.4 32 32 32 32-14.4 32-32zm-8 0c0 13.2-10.8 24-24 24s-24-10.8-24-24 10.8-24 24-24 24 10.8 24 24zm-84 4v-21.4c-3-3.4-4.4-7.7-3.9-12.3.8-7.4 6.7-13.4 14.1-14.2 4.5-.5 9.1 1 12.5 4 3.4 3 5.3 7.4 5.3 11.9 0 1.8-.3 3.6-.9 5.3-1.1 1.6-2.2 3.4-3 5.2-2.6 5.3-4 11.2-4 17.4 0 1.3.1 2.7.2 4H84zm6.7-26.1l1.3 1.2V140h8v-16.9l1.3-1.2c1.7-1.5 2.7-3.7 2.7-5.9 0-2.3-1-4.4-2.7-6-1.7-1.5-3.9-2.2-6.3-2-3.6.4-6.6 3.4-7 7.1-.2 2.6.7 5.1 2.7 6.8zM160 72v35.3c-2.5-1.1-5.2-2-8-2.5V80H40v88h72c2.3 3 5 5.7 8 8H32V72h20V60c0-24.3 19.7-44 44-44s44 19.7 44 44v12h20zM60 72h72V60c0-19.9-16.1-36-36-36S60 40.1 60 60v12z" fill="rgba(0,0,0,1)"/></svg>
