<?xml version="1.0" encoding="UTF-8"?>
<svg xmlns="http://www.w3.org/2000/svg" viewBox="0 0 192 192"><path d="M140 157.7l-10.8-10.8 5.7-5.7 5.2 5.2 13.2-13.2 5.7 5.7-19 18.8zm36-13.7c0-17.6-14.4-32-32-32s-32 14.4-32 32 14.4 32 32 32 32-14.4 32-32zm-8 0c0 13.2-10.8 24-24 24s-24-10.8-24-24 10.8-24 24-24 24 10.8 24 24zm-56 24H40V80h112v24.8c2.8.6 5.5 1.4 8 2.5V72h-20V60c0-24.3-19.7-44-44-44-14 0-26.8 6.4-35.2 17.6l6.4 4.8C74.1 29.2 84.6 24 96 24c19.9 0 36 16.1 36 36v12H32v104h88c-3-2.3-5.7-5-8-8zm-28-20v-21.4c-3-3.4-4.4-7.7-3.9-12.3.8-7.4 6.7-13.4 14.1-14.2 4.5-.5 9.1 1 12.5 4 3.4 3 5.3 7.4 5.3 11.9 0 1.8-.3 3.6-.9 5.3-1.1 1.6-2.2 3.4-3 5.2-2.6 5.3-4 11.2-4 17.4 0 1.3.1 2.7.2 4H84zm6.7-26.1l1.3 1.2V140h8v-16.9l1.3-1.2c1.7-1.5 2.7-3.7 2.7-5.9 0-2.3-1-4.4-2.7-6-1.7-1.5-3.9-2.2-6.3-2-3.6.4-6.6 3.4-7 7.1-.2 2.6.7 5.1 2.7 6.8z" fill="rgba(0,0,0,1)"/></svg>
