<?xml version="1.0" encoding="UTF-8"?>
<svg xmlns="http://www.w3.org/2000/svg" viewBox="0 0 192 192"><path d="M69.2 121.2c-4.4 4.4-11.3 3-14.3 0s-4.4-9.9 0-14.3L105.7 56 80 30.3 29.2 81.2c-8.7 8.7-13.4 20.5-13.2 33.3.2 12.3 5 24.1 13.2 32.4 8.2 8.2 20 13.1 32.4 13.2h.6c12.5 0 24.1-4.7 32.7-13.2L145.7 96 120 70.3l-50.8 50.9zM94.3 56L86 64.3 71.7 50l8.3-8.3L94.3 56zm-5.1 85.2c-14.5 14.5-39.9 14.5-54.3 0s-14.5-39.9 0-54.3L66 55.7 80.3 70l-31.2 31.2c-7.6 7.6-6.1 19.6 0 25.7 6.1 6.1 18.1 7.6 25.7 0L106 95.7l14.3 14.3-31.1 31.2zm36.8-36.9L111.7 90l8.3-8.3L134.3 96l-8.3 8.3zM176 44h-44l8 8-20 8h44l-12-8z" fill="rgba(0,0,0,1)"/></svg>
