<?xml version="1.0" encoding="UTF-8"?>
<svg xmlns="http://www.w3.org/2000/svg" viewBox="0 0 192 192"><path d="M100.3 52H16v8h78.5c1.6-2.9 3.6-5.5 5.8-8zM136 44c-22.1 0-40 17.9-40 40 0 6.5 1.6 12.6 4.3 18l-35.1 35.1c-3.7 3.7-5.5 12.2 0 17.7 2.5 2.5 5.6 3.5 8.6 3.5 3.6 0 7.1-1.4 9.1-3.5l35.1-35.1c5.4 2.8 11.5 4.3 18 4.3 22.1 0 40-17.9 40-40s-17.9-40-40-40zM77.2 149.2c-.6.7-4.2 2.2-6.3 0-2.2-2.2-.7-5.7 0-6.3l33.9-33.9c1.9 2.3 4 4.5 6.3 6.3l-33.9 33.9zM136 116c-17.6 0-32-14.4-32-32s14.4-32 32-32 32 14.4 32 32-14.4 32-32 32zM89.5 72H24v8h64.2c.2-2.7.7-5.4 1.3-8z" fill="rgba(0,0,0,1)"/><path d="M88.7 92H32v8h58.8c-1-2.6-1.7-5.2-2.1-8z" fill="rgba(0,0,0,1)"/></svg>
