<?xml version="1.0" encoding="UTF-8"?>
<svg xmlns="http://www.w3.org/2000/svg" viewBox="0 0 192 192"><path d="M161.622 84.036l13.207-13.207-5.657-5.657-13.207 13.207c-21.569-18.655-54.326-17.74-74.826 2.76-20.5 20.5-21.414 53.257-2.76 74.826l-13.207 13.207 5.657 5.657 13.207-13.207c10.274 8.886 23.079 13.343 35.899 13.343 14.092 0 28.192-5.369 38.927-16.104 20.499-20.5 21.413-53.257 2.76-74.825zm-21.693 50.236L125.657 120l29.907-29.907c5.006 10.084-1.405 28.577-15.635 44.179zm9.978-49.836L120 114.343l-14.27-14.27c12.056-10.995 25.839-17.333 36.136-17.333 3.028 0 5.748.559 8.041 1.696zm-29.842-11.404c5.002 0 10 .804 14.794 2.387-11.029 2.004-23.485 8.557-34.795 18.989L89.753 84.096c8.729-7.368 19.519-11.064 30.312-11.064zM75.419 134.86c-4.999-15.137-2.105-32.332 8.677-45.107l10.312 10.312c-10.432 11.31-16.985 23.766-18.989 34.795zm24.652-29.132L114.343 120l-29.907 29.907c-5.006-10.084 1.405-28.577 15.635-44.179zm-9.978 49.836L120 125.657l14.272 14.272c-15.601 14.23-34.095 20.641-44.179 15.635zm15.03 9.012c11.035-2 23.499-8.54 34.816-18.979l10.307 10.307c-12.779 10.786-29.981 13.679-45.123 8.672zm50.781-14.329l-10.312-10.312c10.432-11.31 16.985-23.766 18.989-34.795 5 15.137 2.106 32.331-8.677 45.107z" fill="rgba(0,0,0,1)"/><path d="M63.051 146.966C39.912 137.19 24 114.281 24 88c0-16.188 6.053-30.981 16-42.264V64h8V38.093C58.966 29.286 72.874 24 88 24c26.281 0 49.19 15.912 58.966 39.051a62.283 62.283 0 0 1 10.612 6.36C149.33 38.344 121.031 16 88 16c-17.102 0-32.82 6.004-45.185 16H16v8h18.392C22.966 52.748 16 69.573 16 88c0 33.031 22.344 61.33 53.411 69.578a62.412 62.412 0 0 1-6.36-10.612z" fill="rgba(0,0,0,1)"/></svg>
