<?xml version="1.0" encoding="UTF-8"?>
<svg xmlns="http://www.w3.org/2000/svg" viewBox="0 0 192 192"><circle cx="118" cy="60" r="8" fill="rgba(0,0,0,1)"/><path d="M175.9 169.8L159.4 92c-.5-2.3-2.6-4-4.9-4H140c-1.6 2.7-3.3 5.5-4.7 8h16.8l11.2 53L64 96h36.7c-1.4-2.5-3.1-5.3-4.7-8H33.4c-2.5 0-4.6 1.8-5 4.3L16 170.1c-.2 1.5.2 3 1.2 4.1 1 1.1 2.4 1.8 3.8 1.8h149.9c1.5 0 2.9-.7 3.9-1.9s1.4-2.8 1.1-4.3zm-50.7-32.1l-27 30.3H58.7L86 116.8l39.2 20.9zM35.9 96H47l31.9 17-29.3 55H24.5l11.4-72zm73 72l23.5-26.4 33 17.6 1.9 8.8h-58.4z" fill="rgba(0,0,0,1)"/><path d="M118 109.5l-3.4-5.8c-.1-.2-13.7-23.2-16.6-28.3-2.5-4-3.9-9.6-3.9-15.4 0-13.2 10.8-24 24-24s24 10.8 24 24c0 5.8-1.4 11.4-3.9 15.4-2.9 5.1-16.5 28.1-16.6 28.3l-3.6 5.8zm0-65.5c-8.8 0-16 7.2-16 16 0 4.3 1 8.5 2.7 11.2l.1.1c2 3.4 8.9 15.2 13.2 22.5 4.3-7.3 11.2-19.1 13.2-22.5l.1-.1c1.7-2.7 2.7-6.9 2.7-11.2 0-8.8-7.2-16-16-16z" fill="rgba(0,0,0,1)"/></svg>
