<?xml version="1.0" encoding="UTF-8"?>
<svg xmlns="http://www.w3.org/2000/svg" viewBox="0 0 192 192"><path d="M116.6 99.7l3.4 5.8 3.4-5.8c.1-.2 13.7-23.2 16.6-28.3 2.5-4 3.9-9.6 3.9-15.4 0-13.2-10.8-24-24-24S96 42.8 96 56c0 5.8 1.4 11.4 3.9 15.4 3 5.1 16.5 28.1 16.7 28.3zM120 40c8.8 0 16 7.2 16 16 0 4.3-1 8.5-2.7 11.2l-.1.1c-2 3.4-8.9 15.2-13.2 22.5-4.3-7.3-11.2-19.1-13.2-22.5l-.1-.1C105 64.5 104 60.3 104 56c0-8.8 7.2-16 16-16z" fill="rgba(0,0,0,1)"/><circle cx="120" cy="56" r="8" fill="rgba(0,0,0,1)"/><path d="M147 38.8c1.4 2.3 2.6 4.7 3.5 7.3l17.6-4.5v95.6l-44 13.3v-35.9h-8v35.9l-40-13.3V41.5L89.7 46c.8-2.6 2-5 3.5-7.3l-21-7L16 49.1v112.4l56-17.3 48 16 56-17.3V30.5l-29 8.3zm-79 98.3l-44 13.3V54.9l44-13.3v95.5z" fill="rgba(0,0,0,1)"/></svg>
