<?xml version="1.0" encoding="UTF-8"?>
<svg xmlns="http://www.w3.org/2000/svg" viewBox="0 0 192 192"><path d="M172 155l-46.3-46.3c1.5-4 2.3-8.2 2.3-12.7 0-19.9-16.1-36-36-36S56 76.1 56 96s16.1 36 36 36c6.6 0 12.8-1.8 18.1-4.9L155 172c2.7 2.7 6.1 4 9.5 4 3 0 6-1.1 8.2-3.3 4.6-4.7 4.3-12.6-.7-17.7zM64 96c0-15.4 12.6-28 28-28s28 12.6 28 28-12.6 28-28 28-28-12.6-28-28zm103 71c-1.7 1.7-4.6 1-6.3-.7l-44.1-44.1c1.9-1.8 3.7-3.9 5.2-6.1l44.5 44.5c1.7 1.8 2.5 4.7.7 6.4zM92 88c-5.7 0-11.1-1.5-15.8-4.2-1.9 2.5-3.3 5.5-3.9 8.7 8.2 4.9 14 13.2 15.4 23 1.4.3 2.8.5 4.3.5s2.9-.2 4.3-.5c1.4-9.8 7.2-18.2 15.4-23-.6-3.2-1.9-6.2-3.9-8.7C103.1 86.5 97.7 88 92 88zm41.1-7.7C152.8 82.9 168 99.7 168 120c0 5.8-1.2 11.3-3.5 16.3l-6.2-6.2c1.1-3.2 1.6-6.6 1.6-10.1 0-15.1-10.5-27.8-24.6-31.1-.4-3-1.1-5.8-2.2-8.6zM90.6 140c-6.9 12-19.9 20-34.6 20-22.1 0-40-17.9-40-40 0-20.3 15.2-37.1 34.9-39.7-1 2.7-1.8 5.6-2.3 8.5C34.5 92.2 24 104.9 24 120c0 17.6 14.4 32 32 32 10.6 0 20-5.2 25.9-13.2 2.8.7 5.7 1.1 8.7 1.2zM55.3 71.8C53.2 67 52 61.6 52 56c0-22.1 17.9-40 40-40s40 17.9 40 40c0 5.6-1.2 11-3.3 15.8-1.7-2.6-3.7-5-5.9-7.2.8-2.7 1.2-5.6 1.2-8.6 0-17.6-14.4-32-32-32S60 38.4 60 56c0 3 .4 5.9 1.2 8.6-2.2 2.2-4.2 4.6-5.9 7.2zm76.3 88c-1.2.1-2.4.2-3.6.2-14.8 0-27.7-8.1-34.6-20 3-.1 5.9-.5 8.8-1.2 5 6.8 12.6 11.6 21.3 12.9l8.1 8.1z" fill="rgba(0,0,0,1)"/></svg>
