<?xml version="1.0" encoding="UTF-8"?>
<svg xmlns="http://www.w3.org/2000/svg" viewBox="0 0 192 192"><path d="M128 140h32v8h-32z" fill="rgba(0,0,0,1)"/><path d="M144 176c-17.6 0-32-14.4-32-32s14.4-32 32-32 32 14.4 32 32-14.4 32-32 32zm0-56c-13.2 0-24 10.8-24 24s10.8 24 24 24 24-10.8 24-24-10.8-24-24-24z" fill="rgba(0,0,0,1)"/><circle fill="none" cx="144" cy="144" r="32"/><path d="M120 96h-.6c2.9-4.8 4.6-10.4 4.6-16.4 0-17.6-14.3-32-32-32s-32 14.3-32 32c0 6 1.7 11.7 4.6 16.5h-.7c-17.6 0-32 14.4-32 32s14.4 32 32 32c12 0 22.5-6.7 28-16.5 3.2 5.8 8.1 10.5 14.1 13.4-1.2-3.5-1.9-7.1-2.1-10.9-5-4.4-8-10.8-8-18 0-8.5 4.4-15.9 11.1-20.2.6-.3 1.3-.7 1.9-1.1 3.3-1.7 7.1-2.7 11.1-2.7 3.7 0 7.3.8 10.5 2.4 3.4-1.2 7.1-2 10.8-2.2-5.7-5.4-13.2-8.3-21.3-8.3zM92 55.6c13.2 0 24 10.8 24 24 0 8.5-4.4 15.9-11.1 20.2-.6.3-1.3.7-1.9 1.1-3.3 1.7-7.1 2.7-11.1 2.7-13.2 0-24-10.8-24-24s10.9-24 24.1-24zM64 152c-13.2 0-24-10.8-24-24s10.8-24 24-24 24 10.8 24 24-10.8 24-24 24z" fill="rgba(0,0,0,1)"/></svg>
