<?xml version="1.0" encoding="UTF-8"?>
<svg xmlns="http://www.w3.org/2000/svg" viewBox="0 0 192 192"><path d="M144 176a32 32 0 1 1 32-32 32 32 0 0 1-32 32zm0-56a24 24 0 1 0 24 24 24 24 0 0 0-24-24z" fill="rgba(0,0,0,1)"/><path d="M128 140h32v8h-32zM145.06 16l9.06 27.41L163.19 16H176v40h-8.78V25.9L157 56h-6.6l-10.2-30.15V56h-8V16z" fill="rgba(0,0,0,1)"/><path d="M140 128h8v32h-8zM104 144c0-.9 0-1.78.1-2.66a28 28 0 1 1 37.24-37.24c.88-.06 1.77-.1 2.66-.1a40.14 40.14 0 0 1 6.09.46A36.06 36.06 0 0 0 116 80c-.71 0-1.42 0-2.13.07a36 36 0 1 0-59.75 0C53.42 80 52.71 80 52 80a36 36 0 1 0 32 52.46 36.19 36.19 0 0 0 20.46 17.62A40.14 40.14 0 0 1 104 144zm-52 0a28 28 0 1 1 28-28 28 28 0 0 1-28 28zm4-84a28 28 0 1 1 28 28 28 28 0 0 1-28-28z" fill="rgba(0,0,0,1)"/></svg>
