<?xml version="1.0" encoding="UTF-8"?>
<svg xmlns="http://www.w3.org/2000/svg" viewBox="0 0 192 192"><path d="M132 136h24v8h-24z" fill="rgba(0,0,0,1)"/><path d="M156 116v-4h-24v4h-16v60h56v-60zm8 52h-40v-44h8v4h24v-4h8z" fill="rgba(0,0,0,1)"/><path d="M132 152h24v8h-24zM164 104h4.65a40 40 0 0 0-40.85-23.78 40 40 0 1 0-63.61 0A40 40 0 1 0 96 137.42 40.26 40.26 0 0 0 108 152v-10.87A32 32 0 1 1 159.69 104zM60 152a32 32 0 1 1 32-32 32 32 0 0 1-32 32zm36-64a32 32 0 1 1 32-32 32 32 0 0 1-32 32z" fill="rgba(0,0,0,1)"/></svg>
