<?xml version="1.0" encoding="UTF-8"?>
<svg xmlns="http://www.w3.org/2000/svg" viewBox="0 0 192 192"><path fill="none" d="M96 91.4l1.7-.9L145.5 64h-99l47.8 26.5zM44 24h104v32H44zM86.5 124H69.7l15 15.1-9.1 21.3 20.4-8.8 20.4 8.8-9.1-21.3 15-15.1h-16.8L96 104.9z"/><path d="M36 16v51.4l54.7 30.3-9.2 18.3H50.3l24.9 24.9-14.9 34.7L96 160.4l35.6 15.3-14.9-34.7 24.9-24.9h-31.2l-9.2-18.4L156 67.4V16H36zm8 8h104v32H44V24zm61.5 100h16.8l-15.1 15.1 9.1 21.3-20.3-8.8-20.4 8.7 9.1-21.3-15-15h16.8l9.5-19.1 9.5 19.1zm-7.8-33.5l-1.7.9-1.7-.9L46.5 64h99.1L97.7 90.5z" fill="rgba(0,0,0,1)"/></svg>
