<?xml version="1.0" encoding="UTF-8"?>
<svg xmlns="http://www.w3.org/2000/svg" viewBox="0 0 192 192"><path d="M96 88c-19.9 0-36-16.1-36-36s16.1-36 36-36 36 16.1 36 36-16.1 36-36 36zm0-64c-15.4 0-28 12.6-28 28s12.6 28 28 28 28-12.6 28-28-12.6-28-28-28zM60 168h72v8H60z" fill="rgba(0,0,0,1)"/><path d="M123.1 160H68.9l-8.5-33.7L40 109.9V48h12v8h-4v50.1l19.6 15.6 7.5 30.3h41.8l7.5-30.3 19.6-15.6V56h-4v-8h12v61.9l-20.4 16.4z" fill="rgba(0,0,0,1)"/><path d="M126.5 104h-61l-9.1-18.2 7.2-3.6L70.5 96h51l6.9-13.8 7.2 3.6z" fill="rgba(0,0,0,1)"/><g><path d="M104 61s4-4 4-9-4-9-4-9H88s-4 4-4 9 4 9 4 9h16z" fill="rgba(0,0,0,1)"/></g></svg>
