<?xml version="1.0" encoding="UTF-8"?>
<svg xmlns="http://www.w3.org/2000/svg" viewBox="0 0 192 192"><path d="M176 113.8c0-5.2-3.3-9.7-8.2-11.4l-7.8-1.6V88h-30.5l-8 16.1c-2.4.2-4.8.6-7 1.2l8.4-25.3h18.5l30-24H98.3L78.2 76.1 16 80.3v17.4l29.1 29.1C42 130.3 40 135 40 140.1c0 11 9 20 20 20s20-9 20-20h24c0 11 9 20 20 20 8.4 0 15.6-5.2 18.5-12.5l33.5-8.4v-25.4zM60 152c-6.6 0-12-5.4-12-12s5.4-12 12-12 12 5.4 12 12-5.4 12-12 12zm18.3-20c-3.1-7.1-10.1-12-18.3-12-3 0-5.9.7-8.4 1.9L24 94.3v-6.6l57.8-3.9L101.7 64h46.9l-10 8h-21.5l-12.6 37.7c-7.8 5-13.5 13-15.6 22.3H78.3zm45.7 20c-6.6 0-12-5.4-12-12s5.4-12 12-12 12 5.4 12 12-5.4 12-12 12zm44-19.1l-24.1 6c-.6-10.5-9.3-18.9-19.9-18.9-8.2 0-15.2 4.9-18.3 12h-8.5c3.5-11.6 14.2-20 26.8-20h2.5l8-16H152v11.3l13.4 2.8c1.5.6 2.6 2.1 2.6 3.7v19.1z" fill="rgba(0,0,0,1)"/></svg>
