<?xml version="1.0" encoding="UTF-8"?>
<svg xmlns="http://www.w3.org/2000/svg" viewBox="0 0 192 192"><path d="M164 112.5v-33c6.9-1.8 12-8 12-15.5 0-8.8-7.2-16-16-16-4.8 0-9.1 2.1-12 5.5l-36.3-18.2c.2-1.1.4-2.2.4-3.3 0-8.8-7.2-16-16-16s-16 7.2-16 16c0 1.1.1 2.3.4 3.3L44 53.5c-2.9-3.4-7.2-5.5-12-5.5-8.8 0-16 7.2-16 16 0 7.4 5.1 13.7 12 15.5v33.1c-6.9 1.8-12 8-12 15.5 0 8.8 7.2 16 16 16 4.8 0 9.1-2.1 12-5.5l36.3 18.2c-.2 1.1-.4 2.2-.4 3.3 0 8.8 7.2 16 16 16s16-7.2 16-16c0-1.1-.1-2.3-.4-3.3l36.3-18.2c2.9 3.4 7.2 5.5 12 5.5 8.8 0 16-7.2 16-16 .2-7.5-4.9-13.8-11.8-15.6zM160 56c4.4 0 8 3.6 8 8s-3.6 8-8 8-8-3.6-8-8 3.6-8 8-8zM96 24c4.4 0 8 3.6 8 8s-3.6 8-8 8-8-3.6-8-8 3.6-8 8-8zM84 42.5c2.9 3.4 7.2 5.5 12 5.5s9.1-2.1 12-5.5l36.3 18.2c-.2 1.1-.4 2.2-.4 3.3s.1 2.3.4 3.3L108 85.4c-2.9-3.4-7.3-5.5-12.1-5.5s-9.1 2.2-12.1 5.5L47.6 67.3c.2-1.1.4-2.2.4-3.3s-.1-2.3-.4-3.3L84 42.5zM96 104c-4.4 0-8-3.6-8-8s3.6-8 8-8 8 3.6 8 8-3.6 8-8 8zM24 64c0-4.4 3.6-8 8-8s8 3.6 8 8-3.6 8-8 8-8-3.6-8-8zm8 72c-4.4 0-8-3.6-8-8s3.6-8 8-8 8 3.6 8 8-3.6 8-8 8zm15.6-4.7c.2-1.1.4-2.2.4-3.3 0-7.4-5.1-13.7-12-15.5v-33c3.2-.8 6-2.6 8-5l36.3 18.2c-.2 1-.3 2.1-.3 3.3 0 7.4 5.1 13.7 12 15.5v33.1c-3.2.8-6 2.6-8 5l-36.4-18.3zM96 168c-4.4 0-8-3.6-8-8s3.6-8 8-8 8 3.6 8 8-3.6 8-8 8zm12-18.5c-2.1-2.4-4.9-4.2-8-5v-33.1c6.9-1.8 12-8 12-15.5 0-1.1-.1-2.2-.4-3.3L148 74.5c2.1 2.4 4.9 4.2 8 5v33.1c-6.9 1.8-12 8-12 15.5 0 1.1.1 2.3.4 3.3L108 149.5zm52-13.5c-4.4 0-8-3.6-8-8s3.6-8 8-8 8 3.6 8 8-3.6 8-8 8z" fill="rgba(0,0,0,1)"/></svg>
