<?xml version="1.0" encoding="UTF-8"?>
<svg xmlns="http://www.w3.org/2000/svg" viewBox="0 0 192 192"><path d="M176 136H16V56h160v80zm-152-8h144V64H24v64z" fill="rgba(0,0,0,1)"/><path d="M94.9 113.4c-6.8-.5-12-3.4-14.4-8l7.7-3.9c1.6 2.9 3.6 4.2 6.7 4.7v-7.3c-4.2-.8-6.2-1.5-8.2-2.8-3-1.9-4.4-4.7-4.4-8.5 0-6.6 4.3-10.4 12.6-11.1v-4.4h3.9v4.5c5.3.6 9 2.9 11.7 6.9l-7 4.2c-1.6-2.1-2.8-3.1-4.7-3.7v7c4.4.8 6.5 1.5 8.5 2.8 2.9 1.8 4.2 4.4 4.2 8.3 0 3.2-1.1 6-3.1 7.9-2.1 2-4.9 3-9.6 3.5v6.3h-3.9v-6.4zm0-29.7c-3 .3-4.4 1.3-4.4 3.2 0 1.8 1.2 2.8 4.4 3.5v-6.7zm3.9 22.5c2.8-.4 4.2-1.4 4.2-3.2 0-1.8-1.1-2.7-4.2-3.5v6.7z" fill="rgba(0,0,0,1)"/></svg>
