<?xml version="1.0" encoding="UTF-8"?>
<svg xmlns="http://www.w3.org/2000/svg" viewBox="0 0 192 192"><path d="M94.6 140c-7.3-.6-12.8-4.2-15.1-9.9l7.3-3.3c1.7 3.8 4 5.7 7.8 6.3v-10.8c-4.1-.9-6.2-1.6-8.3-2.9-3.3-2-5-5.3-5-9.4 0-4.6 2.2-8.4 6.2-10.4 1.9-1 3.9-1.5 7-1.7v-5h4.3V98c6 .8 9.7 3.3 12.5 8.3l-6.8 3.6c-1.7-3-3.2-4.4-5.7-5v10.2c4.1.9 6.5 1.6 8.4 2.7 3.5 2 5.2 5 5.2 9.6 0 4.4-1.8 7.8-5.3 10.1-2.1 1.3-4.5 2.1-8.3 2.5v7.2h-4.3V140h.1zm0-35.5c-3.7.5-5.4 2-5.4 4.8 0 2.6 1.4 3.9 5.4 4.9v-9.7zm4.3 28.7c3.7-.6 5.4-2.2 5.4-5 0-2.6-1.4-3.9-5.4-5v10z" fill="rgba(0,0,0,1)"/><path d="M137.1 72.5c-7.5-9.6-15.1-15.2-19.5-18l20.1-32.2-3.9-2c-.4-.2-8.9-4.4-17.8-4.4-4.6 0-8.2 1.2-11.3 2.2-2.9 1-5.4 1.8-8.7 1.8s-5.8-.8-8.7-1.8c-3.1-1-6.6-2.2-11.3-2.2-8.8 0-17.4 4.2-17.8 4.4l-3.9 2 20.1 32.2c-4.4 2.8-12 8.4-19.5 18C44.4 85.8 32 109.7 32 148c0 15.4 12.6 28 28 28h72c15.4 0 28-12.6 28-28 0-38.3-12.4-62.2-22.9-75.5zM76 24c3.4 0 5.8.8 8.7 1.8 3.1 1 6.6 2.2 11.3 2.2s8.2-1.2 11.3-2.2c2.9-1 5.4-1.8 8.7-1.8 3.6 0 7.4 1 10.1 1.9L109.8 52H82.2L65.9 25.9c2.9-1 6.6-1.9 10.1-1.9zm56 144H60c-11 0-20-9-20-20 0-35.8 11.3-57.9 20.8-70.1C69.6 66.6 78.4 61.3 81 60h30c5.5 2.9 41 24.4 41 88 0 11-9 20-20 20z" fill="rgba(0,0,0,1)"/></svg>
