<?xml version="1.0" encoding="UTF-8"?>
<svg xmlns="http://www.w3.org/2000/svg" viewBox="0 0 192 192"><path d="M176 136H16V56h160v80zm-152-8h144V64H24v64z" fill="rgba(0,0,0,1)"/><path d="M115.6 96c0-3.9-1.2-7.6-3.2-10.7l6.5-6.5-5.7-5.7-6.5 6.5c-3.1-2-6.7-3.2-10.7-3.2s-7.6 1.2-10.7 3.2l-6.5-6.5-5.7 5.7 6.5 6.5c-2 3.1-3.2 6.7-3.2 10.7s1.2 7.6 3.2 10.7l-6.5 6.5 5.7 5.7 6.5-6.5c3.1 2 6.7 3.2 10.7 3.2s7.6-1.2 10.7-3.2l6.5 6.5 5.7-5.7-6.5-6.5c2-3.1 3.2-6.8 3.2-10.7zM96 107.6c-6.4 0-11.6-5.2-11.6-11.6S89.6 84.4 96 84.4s11.6 5.2 11.6 11.6-5.2 11.6-11.6 11.6z" fill="rgba(0,0,0,1)"/></svg>
