<?xml version="1.0" encoding="UTF-8"?>
<svg xmlns="http://www.w3.org/2000/svg" viewBox="0 0 192 192"><path d="M117.2 93.2l-7.3 7.3C106 97.7 101.2 96 96 96s-10 1.7-13.9 4.4l-7.3-7.3-5.7 5.7 7.3 7.3C73.7 110 72 114.8 72 120s1.7 10 4.4 13.9l-7.3 7.3 5.7 5.7 7.3-7.3c3.9 2.8 8.7 4.4 13.9 4.4s10-1.7 13.9-4.4l7.3 7.3 5.7-5.7-7.3-7.3c2.8-3.9 4.4-8.7 4.4-13.9s-1.7-10-4.4-13.9l7.3-7.3-5.7-5.6zM96 136c-8.8 0-16-7.2-16-16s7.2-16 16-16 16 7.2 16 16-7.2 16-16 16z" fill="rgba(0,0,0,1)"/><path d="M137.1 72.5c-7.5-9.6-15.1-15.2-19.5-18l20.1-32.2-3.9-2c-.4-.2-8.9-4.4-17.8-4.4-4.6 0-8.2 1.2-11.3 2.2-2.9 1-5.4 1.8-8.7 1.8s-5.8-.8-8.7-1.8c-3.1-1-6.6-2.2-11.3-2.2-8.8 0-17.4 4.2-17.8 4.4l-3.9 2 20.1 32.2c-4.4 2.8-12 8.4-19.5 18C44.4 85.8 32 109.7 32 148c0 15.4 12.6 28 28 28h72c15.4 0 28-12.6 28-28 0-38.3-12.4-62.2-22.9-75.5zM76 24c3.4 0 5.8.8 8.7 1.8 3.1 1 6.6 2.2 11.3 2.2s8.2-1.2 11.3-2.2c2.9-1 5.4-1.8 8.7-1.8 3.6 0 7.4 1 10.1 1.9L109.8 52H82.2L65.9 25.9c2.9-1 6.6-1.9 10.1-1.9zm56 144H60c-11 0-20-9-20-20 0-35.8 11.3-57.9 20.8-70.1C69.6 66.6 78.4 61.3 81 60h30c5.5 2.9 41 24.4 41 88 0 11-9 20-20 20z" fill="rgba(0,0,0,1)"/></svg>
