<?xml version="1.0" encoding="UTF-8"?>
<svg xmlns="http://www.w3.org/2000/svg" viewBox="0 0 192 192"><path d="M97.8 159.1c-7.2 0-14.5-1.2-21.5-3.8-16.8-6.1-30-18.5-37.1-34.9-7.1-16.4-7-34.5.1-50.9C50 45.1 75.2 29.7 102 31.3l11.6.7-9.6 6.6c-9.1 6.2-15.8 15.1-19.4 25.7-8.1 24.1 3.6 51.3 26.7 62 10 4.6 21 5.9 31.7 3.6l11.4-2.4-7.5 8.9c-12.4 14.7-30.6 22.7-49.1 22.7zM90.4 39.7c-19.1 2.7-35.9 15-43.7 33-6.3 14.4-6.3 30.2-.1 44.6 6.2 14.4 17.7 25.2 32.4 30.5 18.3 6.6 38.8 3 53.8-8.9-8.5 0-16.9-1.8-24.8-5.5-13-6-23.4-16.7-29.1-30-5.7-13.3-6.4-28.2-1.8-41.8 2.8-8.2 7.3-15.7 13.3-21.9z" fill="rgba(0,0,0,1)"/></svg>
