<?xml version="1.0" encoding="UTF-8"?>
<svg xmlns="http://www.w3.org/2000/svg" viewBox="0 0 192 192"><path d="M162.7 90.5l10.1-4.2-1-3.4C163.1 52.4 128.4 52 128 52h-5.5l4.7 14-2.3 1.2-11.4-11.4-22.6 3.8c-3.3.5-6.2 2.4-8 5.2l-5 7.2H57.7l-8-8H28v8h18.3l6.4 6.4 4 8 1.6 1.6-4.7 4.7c-3.9-2.8-8.7-4.3-13.7-4.3C27 88.4 16.4 99 16.4 112S27 135.6 40 135.6c12.7 0 23-10 23.6-22.6l5.8-.7-2.3 11.7h64.1c4.2 7.2 11.9 12 20.8 12 13.2 0 24-10.8 24-24 0-9.4-5.4-17.5-13.3-21.5zM40 128.4c-9 0-16.4-7.3-16.4-16.4S31 95.6 40 95.6c3 0 5.9.8 8.4 2.3l-6.3 6.3c-.7-.2-1.3-.3-2.1-.3-4.4 0-8 3.6-8 8s3.6 8 8 8c3.3 0 6.2-2 7.4-4.9l8.9-1.1c-1.1 8.2-8 14.5-16.3 14.5zm11.1-21.8L64 93.7l7.7 7.7-.6 2.8-20 2.4zm25.8 9.4l3.5-17.3-17.1-17.1-.8-1.6h19.7l7.3-10.9c.6-.9 1.6-1.5 2.7-1.7l18.6-3.1 12.6 12.6 13.7-6.8-3.1-9.4c8.3 1.4 23.2 5.9 29.3 21.2l-16.6 6.9c-10.5 2.5-18.4 12-18.4 23.3 0 1.4.1 2.7.3 4H76.9zm75.1 12c-8.8 0-16-7.2-16-16 0-6.1 3.4-11.3 8.4-14.1l2.1 8.3c-1.5 1.5-2.4 3.5-2.4 5.7 0 4.4 3.6 8 8 8s8-3.6 8-8c0-3.7-2.5-6.7-5.8-7.7l-2.1-8.3c8.8.1 15.9 7.2 15.9 16-.1 8.9-7.3 16.1-16.1 16.1z" fill="rgba(0,0,0,1)"/></svg>
