<?xml version="1.0" encoding="UTF-8"?>
<svg xmlns="http://www.w3.org/2000/svg" viewBox="0 0 192 192"><path d="M146 88c-2.6 0-5 .3-7.4.9l-3.2-8.9h4.6v-8h-7.5l-5.7-16H108v8h13.2l2.9 8h-6.2l-9.4 14.1L97.4 112h-2.9l-8-16H76v8h5.5l4 8H70.8C67.4 100.4 56.7 92 44 92c-15.4 0-28 12.6-28 28s12.6 28 28 28 28-12.6 28-28h17.5l8 16H108v-8h-5.5l-4-8h3.6L128 83l3.2 8.9c-9 5.2-15.2 14.9-15.2 26.1 0 16.5 13.5 30 30 30s30-13.5 30-30-13.5-30-30-30zM44 140c-11 0-20-9-20-20s9-20 20-20c8.2 0 15.2 4.9 18.3 12H48v8h16c0 11-9 20-20 20zm102 0c-12.1 0-22-9.9-22-22 0-7.7 3.9-14.4 9.9-18.4l6.3 17.7 7.5-2.7-6.5-18.1c1.5-.3 3.1-.5 4.7-.5 12.1 0 22 9.9 22 22s-9.8 22-21.9 22z" fill="rgba(0,0,0,1)"/><path d="M44 84h.5c6.7 0 10.3 1.8 13.7 3.6l2.6 1.3L73.7 76H44c-9.3.1-17.6 3.5-22.9 9.3l5.9 5.4c3.7-4.2 10.1-6.7 17-6.7z" fill="rgba(0,0,0,1)"/></svg>
