<?xml version="1.0" encoding="UTF-8"?>
<svg xmlns="http://www.w3.org/2000/svg" viewBox="0 0 192 192"><path d="M96.4 104h-.7C87 104 80 111 80 119.6v40.7c0 8.6 7 15.6 15.6 15.6h.7c8.6 0 15.6-7 15.6-15.6v-40.7C112 111 105 104 96.4 104zm7.6 56.4c0 4.2-3.4 7.6-7.6 7.6h-.7c-4.2 0-7.6-3.4-7.6-7.6v-40.7c0-4.2 3.4-7.6 7.6-7.6h.7c4.2 0 7.6 3.4 7.6 7.6v40.7z" fill="rgba(0,0,0,1)"/><path d="M144.3 35.9l-21.6 3.6-7.8-23.5H77.1l-7.8 23.5-21.6-3.6-13 4.3 2.6 7.6 11-3.7 15.4 2.6-11.9 11.8 4.3 46.6 7.9 15.8V140h8v-20.9l-8.1-16.2-3.7-41.4 15.3-15.3L82.9 24h26.2l7.4 22.2 15.3 15.3-3.7 41.4-8.1 16.2V140h8v-19.1l7.9-15.8 4.3-46.6-11.9-11.8 15.4-2.6 11 3.7 2.6-7.6z" fill="rgba(0,0,0,1)"/><path d="M120 59.1l-24 4.8-24-4.8v9.5l4.7 14.2L96 92.5l19.3-9.6 4.7-14.2v-9.6zm-11.3 18.1L96 83.5l-12.7-6.4-2.8-8.1L96 72.1l15.5-3.1-2.8 8.2z" fill="rgba(0,0,0,1)"/></svg>
