<?xml version="1.0" encoding="UTF-8"?>
<svg xmlns="http://www.w3.org/2000/svg" viewBox="0 0 192 192"><path d="M173.5 92.3l-60-24c-1.1-.4-2.3-.4-3.3.1L96 75.5l-14.2-7.1c-1-.5-2.2-.6-3.3-.1l-60 24c-1.5.6-2.5 2.1-2.5 3.8 0 1.7 1.1 3.1 2.7 3.7 2.3.8 4.4 2.9 7.1 5.6 9 9 22.7 22.6 70.2 22.6s61.1-13.6 70.2-22.6c2.7-2.7 4.8-4.8 7.1-5.6 1.6-.5 2.7-2 2.7-3.7 0-1.7-1-3.2-2.5-3.8zM79.8 76.4l14.4 7.2c1.1.6 2.5.6 3.6 0l14.4-7.2L155 93.5C129.9 95.3 97.8 96 96 96c-1.8 0-33.9-.7-59-2.5l42.8-17.1zM33 101.2c26.1 2 61.1 2.7 62.9 2.8h.2c1.7 0 36.8-.7 62.9-2.8-8.2 8-21.5 18.8-63 18.8s-54.8-10.7-63-18.8z" fill="rgba(0,0,0,1)"/></svg>
