<?xml version="1.0" encoding="UTF-8"?>
<svg xmlns="http://www.w3.org/2000/svg" viewBox="0 0 192 192"><path d="M112 160h-8v-52c0-4.4-3.6-8-8-8s-8 3.6-8 8v52h-8v-52c0-8.8 7.2-16 16-16s16 7.2 16 16v52z" fill="rgba(0,0,0,1)"/><path fill="none" d="M116.4 95.4c11.4-.4 25.9-1 38.6-1.9l-42.8-17.1-14.4 7.2c-.6.3-1.2.4-1.8.4 9.3 0 16.4 4.9 20.4 11.4zM96 84c-.6 0-1.2-.1-1.8-.4l-14.4-7.2L37 93.5c12.7.9 27.2 1.5 38.6 1.9C79.6 88.9 86.7 84 96 84z"/><path d="M173.5 92.3l-60-24c-1.1-.4-2.3-.4-3.3.1L96 75.5l-14.2-7.1c-1-.5-2.2-.6-3.3-.1l-60 24c-1.5.6-2.5 2.1-2.5 3.8 0 1.7 1.1 3.1 2.7 3.7 2.3.8 4.4 2.9 7.1 5.6 7.3 7.3 17.6 17.5 46.2 21.2v-8.1c-23.2-3.2-32.6-11.1-39-17.3-4.9-.4-9.5-.8-13.5-1.3l.9-7.9c4.8.6 10.4 1.1 16.5 1.5l42.8-17.1 14.4 7.2c.6.3 1.2.4 1.8.4.6 0 1.2-.1 1.8-.4l14.4-7.2L155 93.5c6.1-.4 11.8-.9 16.5-1.5l.9 7.9c-4 .5-8.6.9-13.5 1.3-6.3 6.2-15.8 14-39 17.3v8.1c28.6-3.7 38.9-14 46.2-21.2 2.7-2.7 4.8-4.8 7.1-5.6 1.6-.5 2.7-2 2.7-3.7.1-1.7-.9-3.2-2.4-3.8z" fill="rgba(0,0,0,1)"/><path d="M75.6 95.4c-11.4-.4-25.9-1-38.6-1.9l-8.4 3.4c1 .9 1.9 1.8 2.9 2.8.5.5 1 1 1.6 1.5 12.7 1 27.4 1.6 39.5 2.1.5-2.7 1.5-5.4 3-7.9zM119.5 103.3c12-.4 26.8-1.1 39.5-2.1.5-.5 1.1-1 1.6-1.5 1-1 1.9-1.9 2.9-2.8l-8.4-3.4c-12.7.9-27.2 1.5-38.6 1.9 1.4 2.5 2.4 5.2 3 7.9z" fill="rgba(0,0,0,1)"/><path d="M28.6 96.9l8.4-3.4c-6.1-.4-11.8-.9-16.5-1.5l-.9 7.9c4 .5 8.6.9 13.5 1.3-.5-.5-1.1-1-1.6-1.5-1-1-2-1.9-2.9-2.8zM160.5 99.7c-.5.5-1 1-1.6 1.5 4.9-.4 9.5-.8 13.5-1.3l-.9-7.9c-4.8.6-10.4 1.1-16.5 1.5l8.4 3.4c-.9.9-1.9 1.8-2.9 2.8z" fill="rgba(0,0,0,1)"/><path fill="rgba(0,0,0,1)" d="M96 84z"/></svg>
