<?xml version="1.0" encoding="UTF-8"?>
<svg xmlns="http://www.w3.org/2000/svg" viewBox="0 0 192 192"><path d="M96 52c-9.9 0-18-8.1-18-18s8.1-18 18-18 18 8.1 18 18-8.1 18-18 18zm0-28c-5.5 0-10 4.5-10 10s4.5 10 10 10 10-4.5 10-10-4.5-10-10-10z" fill="rgba(0,0,0,1)"/><path d="M124 72h-8c0-9.9-9-18-20-18s-20 8.1-20 18h-8c0-14.3 12.6-26 28-26s28 11.7 28 26zM44 156c-9.9 0-18-8.1-18-18s8.1-18 18-18 18 8.1 18 18-8.1 18-18 18zm0-28c-5.5 0-10 4.5-10 10s4.5 10 10 10 10-4.5 10-10-4.5-10-10-10z" fill="rgba(0,0,0,1)"/><path d="M72 176h-8c0-9.9-9-18-20-18s-20 8.1-20 18h-8c0-14.3 12.6-26 28-26s28 11.7 28 26zM148 156c-9.9 0-18-8.1-18-18s8.1-18 18-18 18 8.1 18 18-8.1 18-18 18zm0-28c-5.5 0-10 4.5-10 10s4.5 10 10 10 10-4.5 10-10-4.5-10-10-10z" fill="rgba(0,0,0,1)"/><path d="M176 176h-8c0-9.9-9-18-20-18s-20 8.1-20 18h-8c0-14.3 12.6-26 28-26s28 11.7 28 26zM96 148c-9.5 0-18.4-2.4-26.2-6.5-.4 2.8-1.2 5.4-2.3 7.8C76 153.6 85.7 156 96 156s20-2.4 28.6-6.8c-1.2-2.4-2-5-2.3-7.8-7.9 4.2-16.8 6.6-26.3 6.6zM40 92c0-22 12.7-41 31.2-50.2-.8-2.5-1.2-5.1-1.2-7.8v-.5C47.6 43.5 32 66 32 92c0 7.5 1.3 14.7 3.7 21.4 2.5-.9 5.2-1.3 8-1.4-2.4-6.2-3.7-13-3.7-20zM120.8 41.8C139.3 51 152 70 152 92c0 7-1.3 13.8-3.7 20 2.8 0 5.5.5 8 1.4 2.4-6.7 3.7-13.9 3.7-21.4 0-26-15.6-48.5-38-58.5v.5c0 2.7-.4 5.3-1.2 7.8z" fill="rgba(0,0,0,1)"/></svg>
