<?xml version="1.0" encoding="UTF-8"?>
<svg xmlns="http://www.w3.org/2000/svg" viewBox="0 0 192 192"><path d="M37.5 71.9c.1-.3.3-.5.6-.7.2-.2 1 .2 1.3 0s.2-.9.5-1.1c.4-.2.8-.3 1.3-.3 2.1 0 2.9-1.5 4-.5s5.3 1.5 6.4 1.5 4.1 1 5.2 0 2.1-2.1 4.1-2.1h5.2c2.1 0 1-2.1 3.1-1s3.1 1 6.2 2.1c3.1 1 6.2 1 7.2 2.1s2.1 2.1 4.1 2.1h11.4c3.1 0 2.1 1 5.2 0s4.1-2.1 6.2-2.1 3.1-1 4.1 0 3.1 3.1 4.1 2.1 3.1-4.1 4.1-2.1 3.1 3.1 1 4.1-8.3 3.1-10.3 5.2-3.1 3.1-3.1 5.2 5.2 2.1 7.2 4.1 3.1 4.1 4.1 4.1 2.1-1 3.1-2.1 2.1-4.1 2.1-5.2-1-3.1 1-4.1 2.1-1 4.1 0 2.1 1 3.1 2.1-1 2.1 0 3.1 3.1 0 4.1 0 3.1 0 4.1 2.1 1 3.1 2.1 3.1 5.2 1 4.1 3.1-1 4.1-4.1 4.1-8.3 0-7.2 1 6.2 1 7.2 2.1c.5.5-1 1.3-1 2.1s1.6 1.6 1 2.1c-1 1-5.2 2.1-6.2 2.1s-2.1-1-3.1 0-6.2 5.2-6.2 6.2 1 2.1 0 3.1l-4.1 4.1c-1 1-3.1 2.1-2.1 3.1s2.1 4.1 2.1 5.2-1 2.1-2.1 1 1-4.1-3.1-5.2c-4.1-1-3.1 0-5.2 0s-1 0-2.1 1c-1 1-3.1-1-5.2 0s-3.1 1-4.1 4.1 0 6.2 1 8.3 1 1 3.1 1 2.7.3 3.5-1 .3-3.1 2.3-3.1 3.2.1 2.9 1.2c-.1.5-.4.4-.5.6-.2.3-.3 1-.9 2.2-1 2.1-1 3.1 0 3.1s2-1.7 4.1-.6 2.2.6 2.2 1.7-1.4 3-.8 4.1 1.4 1.8 2 2.4 3-.3 1.9.8-3.7 1.6-5.8-.4c-2.1-2.1-1.5-4.7-3.6-4.7s-3.1 1-5.2 0-1.7-3.5-3.8-3.5-1.4 1.3-4.5.2-8.3-4-9.3-5.1.4-1.9.4-4-3.3-4.3-4.8-7.5c-1.6-3.2-2.2-5.4-3.3-5.4s1.4 7.6 2.5 9.6 1 4.1 0 4.1-6.2-11.4-6.2-14.5 1-3.1 0-4.1c-.3-.3-1-1.2-1.3-2.3-.4-1.3-.5-3.1-1-4.7-.5-1.3-2.3-2.3-2.7-3.2-1-3.1-2.7-6.4-3.8-7.4-.4-.4-1.1-1-.6-1.3.5-.2 1.2-.2 1.4-1 .2-.8-7.5-2-8.5-3-.6-.6-1.3-3-2.8-4.6-1.2-1.2-3.2-1.7-4.1-1.7-1.1 0-2.5-.9-4.1-1.4-1.3-.4-2.8-.6-4.4 0-1.3.5-2 1-3.1 1.4s-.2-1.5-.5-1.5c-.4-.1-1.3 1.4-1.6 2S41 92 38.9 93s-5.7 1.6-4.6.6 6.6-2.4 5.6-3.4-3.1 0-4.1-2.1-2.1-4.1 0-5.2c.8-.4 1.8-.1 2.5-.3 1-.3 1.6-1.1 1.6-1.7 0-1-2.4.6-3.4-.4s-.6-2.2.3-2.7c.4-.2 1-.5 1.6-.2.7.3 1 1.3 1.5.9s-.6-1.3-.7-2.3c0-.6-.3-1.7-.9-2.7 0-.6-.8-1.2-.8-1.6zM103.4 53.2c2.1-2.1 2.1-3.1 5.2-4.1s3.1-3.1 4.1-4.1 2.1 0 6.2 1 7.2 1 10.3 1 5.2-2.1 5.2 0 2.1 2.1-1 4.1-6.2 4.1-8.3 3.1-3.1-1-3.1 0 0 2.1-2.1 2.1-1 0-3.1 1 1 2.1 0 3.1-5.2 1-7.2 0-1-2.1-3.1-2.1-3.1 0-4.1-1-.1-3 1-4.1z" fill="rgba(0,0,0,1)"/><path d="M119.1 137c0-1 2.9-1.6 5-.5.9.5 1.9 1.4 3.1 1.9 1.5.7 3.1.9 3.1 1.5 0 1-3 1-4 0-.3-.3-.2-.7-.6-1.1-.6-.5-1.7-.8-2.9-1.4-1.6-.6-3.7 0-3.7-.4zM131.3 140.2c.5-.3 2.6.2 3.9.8.5.2 1.1.4 1.1.7 0 .6-.7.5-2 .5-.8 0-1.8.2-3 .2-2.1-.1-1.4-1.4-.4-1.2s.2-.9.4-1zM114.8 65.4c-.5 0-1.3-1.4-1.6-1.2l-.6.3c-1.2.9-1.3 2.6-.9 3.5 1.1 2.5 5.2 3.6 7.2 2.5.9-.4 1.1-1.1 2.1-1.1s1.4 1 2.5 1.7 5 1 5 2 .8 2.8-.2 3.9c-.4.4-1.9.7-2.2 1.1-.5.6-.6 1.3 0 1.9 1 1 3.1-2.1 6.2-1s6.2 3.1 7.2 2.1c.4-.4-.3-1.3.1-1.7.6-.7 2-.9 1.5-1.8-.9-1.5-8.2-2.3-7.2-4.4.6-1.1 3.5.6 4.6.7.9 0 .4-1.6-.5-2.5-1-1-5.6-1.3-7.1-2.1-1.6-.9-1.8-2.9-2.8-2.9-.6 0-1.6-.3-2.9-.4s-2.8-.8-4.3-1c-.5-.1-1.9 1.4-2.3 1.4-.3 0-.3-1.1-.5-1.6-.2-.6-.7-.8-.9-.8-2.4-.2-2.1 1.4-2.4 1.4zM103.5 70.8c-.1-1.1-3.9-.5-4.9-2.5s-1.9-3.4-3.2-2.8c-1.3.6 1.2 2.5-.9 2.5-.9 0-1.8-1.2-2.8-1.7-1.4-.6-3-.6-4.5 0-1.3.5-.5 1.8-.5 3-.1 1.2-.6 1.1-.3 1.8.3.6 3.7 3.1 6.8 2.1 1.5-.5 2.9-1 3.9-1s1 .8 2.1.7c.6 0 2-.2 2.5-.9s1.8-.7 1.8-1.2zM103.5 61.8c-3.7-1.9-7 .1-6 1.1s4.1.3 4.1 1.4c0 .3.8 1.1.8 1.5s-1.2.5-1.1 1c.2.8.9 1 1.9 1.5.5.3.8.9 1.2 1.1.8.5 1.8.4 1.8-2 0-1.2-1.3-1.5-1.7-2.3-.7-1.4.3-2.6-1-3.3zM84.6 59c-3.1 1-6.1 1.9-6.8 2.9s2.8 1.7 4.9.7 4.9-1.7 3.8-2.8-1.9-.8-1.9-.8zM81.1 64.4c-.6.1-1.2 1-1.9 1.7-.4.4-1 .5-1 1.3 0 2.1.9 3 2.1 2.7 2.3-.5 1.4-2.3 2.4-2.3s3.3-1.2 2.3-2.2-2.9-1.5-3.9-1.2zM85.8 64.6c0-1 .6-1.8 1.6-2.8s2-.3 3.2 0 1.6-.4 2.6 0c1 .3 2.4.6 2.1 1.3s-2.5.3-2.5.3-1.6-.9-3-.1-3.1 2.5-3.1 2.5-.9-.2-.9-1.2zM108.8 66.1c-1-.5-.9-.8-.4-1.4s3.3-1.8 2.8-.9-1.4 2.8-2.4 2.3zM125.1 141.4c.1-.6 1.8-.1 1.8-.1s1.2.1 1.1.4c-.1.3-.9.4-1.5.4-.6-.1-1.5-.2-1.4-.7z" fill="rgba(0,0,0,1)"/><path d="M96 176c-44.1 0-80-35.9-80-80s35.9-80 80-80 80 35.9 80 80-35.9 80-80 80zm0-152c-39.7 0-72 32.3-72 72s32.3 72 72 72 72-32.3 72-72-32.3-72-72-72z" fill="rgba(0,0,0,1)"/></svg>
