<?xml version="1.0" encoding="UTF-8"?>
<svg xmlns="http://www.w3.org/2000/svg" viewBox="0 0 192 192"><path d="M58.7 176.1c-7.1 0-13.4-3-19.4-9.1-6.2-6.3-7.2-14.6-7.3-20.2-.3-10.5 6.3-18.5 12.1-24.4l.4-.4c14.7-14.9 34.9-35.2 84.2-108.3l6.6 4.5c-49.8 73.7-70.2 94.3-85.2 109.4l-.4.4c-6.9 7-9.9 12.7-9.7 18.5.2 6.9 1.7 11.4 5 14.8 8 8.1 15.8 8.8 28 2.3 18.3-9.8 35.4-10.1 50.9-1 11.5 6.8 18.4 7.1 24.5.9 2.5-2.5 3.6-6.1 3.6-11.6 0-8.8-7.2-16-16-16v-8c13.2 0 24 10.8 24 24 0 4.8-.6 11.8-5.9 17.2-11.4 11.6-24.3 6.3-34.3.4-13.1-7.7-27.2-7.3-43.1 1.1-6.6 3.7-12.6 5.5-18 5.5z" fill="rgba(0,0,0,1)"/></svg>
