<?xml version="1.0" encoding="UTF-8"?>
<svg xmlns="http://www.w3.org/2000/svg" viewBox="0 0 192 192"><path d="M170.8 81.2c-6-6-15.7-6-21.7 0l-44.7 44.7-10.8 32.5 32.5-10.8 44.7-44.7c6-6 6-15.8 0-21.7zm-61.1 54.2l6.8 6.8-10.3 3.4 3.5-10.2zm55.5-38.2L124 138.3 113.7 128l41.2-41.2c2.9-2.9 7.5-2.9 10.3 0 2.8 2.9 2.8 7.5 0 10.4zM56 64h64v8H56zM56 84h64v8H56zM56 104h40v8H56z" fill="rgba(0,0,0,1)"/><path d="M144 141v27H48V32h20v8h8v-8h16v8h8v-8h16v8h8v-8h20v43.1c2.3-2.2 5.1-3.9 8-5V24h-28v-8h-8v8h-16v-8h-8v8H76v-8h-8v8H40v152h112v-43l-8 8z" fill="rgba(0,0,0,1)"/></svg>
