<?xml version="1.0" encoding="UTF-8"?>
<svg xmlns="http://www.w3.org/2000/svg" viewBox="0 0 192 192"><path d="M144 176c-17.6 0-32-14.4-32-32s14.4-32 32-32 32 14.4 32 32-14.4 32-32 32zm0-56c-13.2 0-24 10.8-24 24s10.8 24 24 24 24-10.8 24-24-10.8-24-24-24z" fill="rgba(0,0,0,1)"/><path d="M140 128h8v32h-8z" fill="rgba(0,0,0,1)"/><path d="M128 140h32v8h-32z" fill="rgba(0,0,0,1)"/><g><path fill="none" d="M172 156h-52.3c-.4 2.2-1 4.3-2 6.2 5.8 8.3 15.4 13.8 26.3 13.8 17.6 0 32-14.4 32-32s-14.4-32-32-32v6.7l28 37.3z"/><path fill="none" d="M136 121.3V113c-13.8 3.6-24 16.1-24 31 0 1.4.1 2.7.3 4H156l-20-26.7z"/><path d="M96 168c-7.4 0-13.7-5.1-15.5-12h25.3c-.8-2.6-1.4-5.2-1.6-8H36l20-26.7V64c0-22.1 17.9-40 40-40s40 17.9 40 40v40.8c2.6-.5 5.3-.8 8-.8V64c0-26.5-21.5-48-48-48S48 37.5 48 64v54.7L20 156h52.3c1.9 11.3 11.8 20 23.7 20 6.6 0 12.5-2.7 16.9-6.9-1.7-2.1-3.2-4.5-4.5-6.9-3 3.5-7.4 5.8-12.4 5.8z" fill="rgba(0,0,0,1)"/></g></svg>
