<?xml version="1.0" encoding="UTF-8"?>
<svg xmlns="http://www.w3.org/2000/svg" viewBox="0 0 192 192"><path d="M139.1 136L124 110.9V80c0-15.4-12.6-28-28-28S68 64.6 68 80v30.9L52.9 136h31.8c1.7 4.7 6.1 8 11.3 8s9.6-3.3 11.3-8h31.8zM76 113.1V80c0-11 9-20 20-20s20 9 20 20v33.1l8.9 14.9H67.1l8.9-14.9z" fill="rgba(0,0,0,1)"/><path d="M24 96c0 39.7 32.3 72 72 72s72-32.3 72-72-32.3-72-72-72c-21.8 0-41 9.9-54.7 28H72v1.2c-2.2 2-4.2 4.3-5.9 6.8H28V16h8v29.8C51.2 26.5 72.2 16 96 16c44.1 0 80 35.9 80 80s-35.9 80-80 80-80-35.9-80-80h8z" fill="rgba(0,0,0,1)"/></svg>
