<?xml version="1.0" encoding="UTF-8"?>
<svg xmlns="http://www.w3.org/2000/svg" viewBox="0 0 192 192"><path d="M172.7 156L144 118.5V64c0-26.5-21.5-48-48-48S48 37.5 48 64v54.5L19.3 156h53c1.9 11.3 11.8 20 23.7 20s21.7-8.7 23.7-20h53zM56 121.5V64c0-22.1 17.9-40 40-40s40 17.9 40 40v57.5l19.3 26.5H36.7L56 121.5zM96 168c-7.4 0-13.7-5.1-15.5-12h30.9c-1.7 6.9-8 12-15.4 12z" fill="rgba(0,0,0,1)"/><path d="M31.9 118.7C29.3 111.4 28 103.8 28 96s1.3-15.4 3.9-22.7l-7.5-2.7C21.5 78.8 20 87.3 20 96s1.5 17.2 4.3 25.3l7.6-2.6zM167.7 121.3c2.9-8.1 4.3-16.6 4.3-25.3s-1.5-17.2-4.3-25.3l-7.5 2.7c2.6 7.3 3.9 14.9 3.9 22.7s-1.3 15.4-3.9 22.7l7.5 2.5z" fill="rgba(0,0,0,1)"/></svg>
