<?xml version="1.0" encoding="UTF-8"?>
<svg xmlns="http://www.w3.org/2000/svg" viewBox="0 0 192 192"><path d="M172.5 155.5l-26.9-26.9c1.6-3.8 2.5-8 2.5-12.4 0-17.7-14.4-32-32-32-17.7 0-32 14.4-32 32s14.4 32 32 32c4.5 0 8.8-.9 12.6-2.6l26.8 26.8c2.3 2.3 5.3 3.5 8.5 3.5s6.2-1.2 8.5-3.5c4.7-4.6 4.7-12.2 0-16.9zM92 116.2c0-13.3 10.8-24 24-24s24 10.8 24 24-10.8 24-24 24-24-10.7-24-24zm74.8 50.6c-1.5 1.5-4.1 1.5-5.7 0l-25.4-25.4c2.1-1.7 4-3.6 5.6-5.7l25.4 25.4c1.7 1.6 1.7 4.2.1 5.7zM102 76.1l-7.3-3.3L128 16.1l44.8 76.1-1.5 2.1c-.4.5-5.8 8-15.9 14.1-.6-2.8-1.4-5.4-2.5-8 4.9-3.2 8.4-6.7 10.3-8.8L128 31.9l-26 44.2zm2 50.7v-21.1c2.1-2.4 4.9-4.1 8-4.9v31c-3.1-.9-5.9-2.7-8-5zm-9.7 23L68 161.7v-47.1l8.4-3.8c.5-3.5 1.4-6.9 2.7-10L64 107.6 29.7 92 64 76.4l24.3 11c2.2-2.1 4.6-4 7.2-5.5L64 67.6 16 89.4v61.2l48 21.7 39.7-18c-3.3-1.1-6.5-2.6-9.4-4.5zM60 161.7l-36-16.3V98.2l36 16.4v47.1z" fill="rgba(0,0,0,1)"/></svg>
