<?xml version="1.0" encoding="UTF-8"?>
<svg xmlns="http://www.w3.org/2000/svg" viewBox="0 0 192 192"><path d="M168 92V68h-25.2l-34.3 22.9-6.9-6.9H72v-8h8v-8H56v8h8v8H48V72H16v24h24v32h69.4l44-36H168zM24 88v-8h16v8H24zm82.6 32H48V92h50.3l9.1 9.1L145.2 76H160v8h-9.4l-44 36zm58.1-19l-2.7-2.4-2.7 2.4c-1.2 1.1-11.3 10.6-11.3 21.1 0 7.6 6.3 13.8 14 13.8s14-6.2 14-13.8c0-10.5-10.2-20-11.3-21.1zm-2.7 27c-3.3 0-6-2.6-6-5.8 0-4.3 3.3-9.2 6-12.4 2.7 3.2 6 8.1 6 12.4 0 3.2-2.7 5.8-6 5.8z" fill="rgba(0,0,0,1)"/></svg>
