<?xml version="1.0" encoding="UTF-8"?>
<svg xmlns="http://www.w3.org/2000/svg" viewBox="0 0 192 192"><path d="M124 124c0-12.4-8.1-22.9-19.3-26.6 4.4-2.9 7.3-7.8 7.3-13.4 0-8.8-7.2-16-16-16s-16 7.2-16 16c0 5.6 2.9 10.5 7.3 13.4C76.1 101.1 68 111.6 68 124h8c0-11 9-20 20-20s20 9 20 20h8zM96 76c4.4 0 8 3.6 8 8s-3.6 8-8 8-8-3.6-8-8 3.6-8 8-8zM16 52h8v20h-8zM32 52h8v40h-8z" fill="rgba(0,0,0,1)"/><path d="M56 60h20v-8H48v88h28v-8H56zM168 120h8v20h-8zM152 100h8v40h-8zM116 60h20v72h-20v8h28V52h-28z" fill="rgba(0,0,0,1)"/></svg>
