<?xml version="1.0" encoding="UTF-8"?>
<svg xmlns="http://www.w3.org/2000/svg" viewBox="0 0 192 192"><path d="M96 176c-44.1 0-80-35.9-80-80s35.9-80 80-80 80 35.9 80 80-35.9 80-80 80zm0-152c-39.7 0-72 32.3-72 72s32.3 72 72 72 72-32.3 72-72-32.3-72-72-72z" fill="rgba(0,0,0,1)"/><path d="M65.7 114.7V73.2H76l15.6 29.4V73.2h8.2v41.5h-9.9L73.8 84.2v30.5h-8.1zm48.7-33.3c3.2 0 5.8 1.1 7.9 3.2 2.1 2.2 3.2 5 3.2 8.5s-1 6.3-3.1 8.5-4.8 3.3-8.1 3.3-6-1.1-8-3.2c-2.1-2.1-3.2-4.9-3.2-8.4s1.1-6.4 3.3-8.7c2-2.1 4.7-3.2 8-3.2zm-11.3 31.3v-5.6h22.5v5.6h-22.5zm11.2-25.5c-1.3 0-2.2.5-2.9 1.6-.7 1-1 2.5-1 4.4 0 4 1.3 5.9 4 5.9s4-2 4-5.9c-.1-4-1.4-6-4.1-6z" fill="rgba(0,0,0,1)"/></svg>
