<?xml version="1.0" encoding="UTF-8"?>
<svg xmlns="http://www.w3.org/2000/svg" viewBox="0 0 192 192"><path d="M175 132h-11.1l11-55.2-7.8-1.6-11.4 56.8H35.3L23.9 75.2l-7.8 1.6 11 55.2H16v8h23.1c-1.9 2.1-3.1 4.9-3.1 8 0 6.6 5.4 12 12 12s12-5.4 12-12c0-3.1-1.2-5.9-3.1-8h77.2c-1.9 2.1-3.1 4.9-3.1 8 0 6.6 5.4 12 12 12s12-5.4 12-12c0-3.1-1.2-5.9-3.1-8H175v-8zM48 152c-2.2 0-4-1.8-4-4s1.8-4 4-4 4 1.8 4 4-1.8 4-4 4zm95 0c-2.2 0-4-1.8-4-4s1.8-4 4-4 4 1.8 4 4-1.8 4-4 4z" fill="rgba(0,0,0,1)"/><path d="M44 116.1h103v8H44z" fill="rgba(0,0,0,1)"/><circle cx="56" cy="52" r="4" fill="rgba(0,0,0,1)"/><path d="M75.8 32.2c-10.9-10.9-28.7-10.9-39.6 0l-5.7-5.7c14-14 36.9-14 50.9 0l-5.6 5.7z" fill="rgba(0,0,0,1)"/><path d="M64.5 43.5C62.2 41.2 59.2 40 56 40s-6.2 1.2-8.5 3.5l-5.7-5.7C45.6 34.1 50.7 32 56 32s10.4 2.1 14.1 5.9l-5.6 5.6z" fill="rgba(0,0,0,1)"/></svg>
