<?xml version="1.0" encoding="UTF-8"?>
<svg xmlns="http://www.w3.org/2000/svg" viewBox="0 0 192 192"><path d="M176 132h-11.1l11-55.2-7.8-1.6-11.4 56.8H35.3L23.9 75.2l-7.8 1.6 11 55.2H16v8h23.1c-1.9 2.1-3.1 4.9-3.1 8 0 6.6 5.4 12 12 12s12-5.4 12-12c0-3.1-1.2-5.9-3.1-8h78.2c-1.9 2.1-3.1 4.9-3.1 8 0 6.6 5.4 12 12 12s12-5.4 12-12c0-3.1-1.2-5.9-3.1-8H176v-8zM48 152c-2.2 0-4-1.8-4-4s1.8-4 4-4 4 1.8 4 4-1.8 4-4 4zm96 0c-2.2 0-4-1.8-4-4s1.8-4 4-4 4 1.8 4 4-1.8 4-4 4z" fill="rgba(0,0,0,1)"/><path d="M44 116.1h104v8H44z" fill="rgba(0,0,0,1)"/></svg>
