<?xml version="1.0" encoding="UTF-8"?>
<svg xmlns="http://www.w3.org/2000/svg" viewBox="0 0 192 192"><path d="M63 160c-8.3 0-16.1-3.2-21.9-9.1C35.2 145 32 137.3 32 129s3.2-16.1 9.1-21.9l67.8-68.2c9.2-9.2 24.1-9.2 33.2 0 9.2 9.2 9.2 24.1 0 33.2l-58.8 59.2c-6.2 6.2-16.4 6.2-22.6 0s-6.2-16.4 0-22.6l37.9-37.9 5.7 5.7-37.9 37.9c-3.1 3.1-3.1 8.2 0 11.3 3.1 3.1 8.2 3.1 11.3 0l58.8-59.2c6.1-6.1 6.1-15.9 0-21.9-6-6-15.9-6-21.9 0l-67.8 68.2c-4.4 4.4-6.7 10.1-6.7 16.3s2.4 11.9 6.7 16.3c4.3 4.3 10.1 6.7 16.3 6.7s11.9-2.4 16.3-6.7l46.9-46.9 5.7 5.7-46.9 46.9c-6 5.7-13.8 8.9-22.1 8.9z" fill="rgba(0,0,0,1)"/></svg>
