<?xml version="1.0" encoding="UTF-8"?>
<svg xmlns="http://www.w3.org/2000/svg" viewBox="0 0 192 192"><path d="M134.3 104.3C147.1 98.2 156 85.1 156 70c0-21-17-38-38-38S80 49 80 70c0 15.1 8.9 28.2 21.7 34.3-24 7.1-41.7 29.4-41.7 55.7h8c0-27.6 22.4-50 50-50s50 22.4 50 50h8c0-26.3-17.7-48.6-41.7-55.7zM88 70c0-16.5 13.5-30 30-30s30 13.5 30 30-13.5 30-30 30-30-13.5-30-30z" fill="rgba(0,0,0,1)"/><path d="M65.8 119.7c1.7-2.1 3.4-4.2 5.3-6.1-2.7-1.7-5.6-3.1-8.6-4C70.5 105.7 76 97.5 76 88c0-13.2-10.8-24-24-24S28 74.8 28 88c0 9.5 5.5 17.7 13.5 21.6C26.7 114.1 16 127.8 16 144h8c0-15.4 12.6-28 28-28 4.9 0 9.6 1.3 13.8 3.7zM36 88c0-8.8 7.2-16 16-16s16 7.2 16 16-7.2 16-16 16-16-7.2-16-16z" fill="rgba(0,0,0,1)"/></svg>
