<?xml version="1.0" encoding="UTF-8"?>
<svg xmlns="http://www.w3.org/2000/svg" viewBox="0 0 192 192"><path fill="none" stroke="rgba(0,0,0,1)" stroke-miterlimit="10" stroke-width="8" d="M168 144s-14.7 28-44 28-44-28-44-28 14.7-28 44-28 44 28 44 28z"/><circle cx="124" cy="144" r="12" fill="none" stroke="rgba(0,0,0,1)" stroke-miterlimit="10" stroke-width="8"/><path d="M44.9 132l7.2-36H92v17.4c2.4-1.6 5.1-3.1 8-4.4V96h39.9l2.3 11.4c3.2 1.1 6.2 2.4 9 4L135.3 32H56.7L35.1 140h31.7c1.6-2.3 3.8-5.1 6.5-8H44.9zM100 40h28.7l3.2 16H100V40zm0 24h33.5l4.8 24H100V64zM63.3 40H92v16H60.1l3.2-16zm-4.8 24H92v24H53.7l4.8-24z" fill="rgba(0,0,0,1)"/></svg>
