<?xml version="1.0" encoding="UTF-8"?>
<svg xmlns="http://www.w3.org/2000/svg" viewBox="0 0 192 192"><path d="M92 72h52V36H92v36zm8-28h36v20h-36V44z" fill="rgba(0,0,0,1)"/><path d="M139.9 16H96c-11 0-20 9-20 20v116H48c-4 0-8-4-8-8V90.6c1.8.9 3.9 1.4 6 1.4 7.7 0 14-6.3 14-14 0-5.3-2.9-9.9-7.2-12.3l10.2-11-5.9-5.4L32 76.4V144c0 8.4 7.6 16 16 16h28v16h84V36.1C160 25 151 16 139.9 16zM52 78c0 3.3-2.7 6-6 6-2.8 0-5.2-2-5.8-4.6l6.7-7.3c2.9.4 5.1 2.9 5.1 5.9zm100 90H84V36c0-6.6 5.4-12 12-12h43.9c6.7 0 12.1 5.4 12.1 12.1V168z" fill="rgba(0,0,0,1)"/></svg>
