<?xml version="1.0" encoding="UTF-8"?>
<svg xmlns="http://www.w3.org/2000/svg" viewBox="0 0 192 192"><path d="M159.7 80c-1.4-10-8.2-19.3-19.2-26.2l4.2-20.9-3.6-1c-5.7-1.6-13.7-1-21 1.5-7.1 2.4-12.2 6.1-14.7 10.6H56c-12.2 0-23.3 6.3-31.3 17.7-10.2 14.5-11.8 30.3-4.9 48.2L37.2 160h26l4-16H101l4 16h26.3l8-36c8-.2 27.9-1.9 36.1-13.7l.7-1V80h-16.4zm8.3 26.7c-7 8.3-25.2 9.6-31.9 9.3l-3.3-.1-8 36.1h-13.7l-4-16H60.9l-4 16h-14l-15.5-44.8v-.1c-5.9-15.5-4.7-28.4 4-40.8C37.8 56.9 46.4 52 56 52h55.1l.8-2.9c.8-3.1 4.9-6.1 10.7-8.1 4.2-1.4 8.9-2.1 12.7-1.9l-3.7 18.7 2.5 1.4c15.6 8.8 18 19.3 18 24.8v4h16v18.7z" fill="rgba(0,0,0,1)"/><path d="M60 60h36v8H60zM122 72c-3.3 0-6 2.7-6 6s2.7 6 6 6 6-2.7 6-6-2.7-6-6-6z" fill="rgba(0,0,0,1)"/></svg>
