<?xml version="1.0" encoding="UTF-8"?>
<svg xmlns="http://www.w3.org/2000/svg" viewBox="0 0 192 192"><path d="M29.6 97.9c.3.1.5.3.8.4l19.4 9.5 3.1 1.5 37.4 9.4c18.3 4.6 37.5 9.3 42 10.5l11.2 2.8c13.1 3.3 24.4-1.5 26.9-11.4S165.1 101.2 152 98l-37-9.2-9.8-26.3c-1.4-4.3-2.9-8.7-8.5-10.1L87.1 50l-.6 31.7-9.8-2.4-25.5-2.6-7.4-12.3c-3.2-5.3-4.9-6.4-9-7.4l-8.1-2-4.1 30.4c-.4 2.9-.1 8.7 7 12.5zm.9-11.7l2.9-21.6c1.5.4 1.8.7 3.5 3.6L46.4 84l28.9 3 11.1 2.8-.2 11.8 8 2 .7-43.6c.8.2 1.3.6 2.7 4.9l16.1 43.5 9.4 2.3-4.8-13 31.7 7.9c8.7 2.2 13.9 7.5 12.6 12.9-1.4 5.4-8.4 7.7-17.2 5.5l-89.2-22.2c-.1 0-.2-.1-.3-.1L33.9 91c-3.5-1.6-3.6-3.2-3.4-4.8zM16 152.5h160v7H16z" fill="rgba(0,0,0,1)"/></svg>
