<?xml version="1.0" encoding="UTF-8"?>
<svg xmlns="http://www.w3.org/2000/svg" viewBox="0 0 192 192"><path d="M40 128.5h.9l21.5-.7 3.4-.1 37.4-9.3c18.3-4.6 37.5-9.3 42-10.5l11.2-2.8c13.1-3.3 20.8-12.8 18.4-22.6-2.5-9.9-13.8-14.6-26.9-11.4l-37 9.2L90 61.6c-3.3-3.1-6.7-6.3-12.2-4.9l-9.6 2.4 14.4 28.3-9.8 2.4L49 99.5l-12.3-7.4c-5.3-3.2-7.3-3.4-11.4-2.3l-8.1 2 10.7 28.8c1 2.9 4 7.9 12.1 7.9zm-7.4-29.6l15.8 9.5 26.9-10.9 11.1-2.8 5.3 10.5 8-2-19.9-38.7c.8-.2 1.4-.1 4.7 3l34.7 30.8 9.4-2.3-10.4-9.2 31.7-7.9c8.7-2.2 15.8.1 17.2 5.5 1.4 5.4-3.8 10.8-12.6 12.9l-89.2 22.2c-.1 0-.2.1-.3.1l-24.4.8c-3.9.2-4.7-1.2-5.3-2.7l-7.6-20.4c1.6-.3 1.9-.1 4.9 1.6zM16 152.5h160v7H16z" fill="rgba(0,0,0,1)"/></svg>
