<?xml version="1.0" encoding="UTF-8"?>
<svg xmlns="http://www.w3.org/2000/svg" viewBox="0 0 192 192"><path d="M152 84h-39.6L96 59.9C93.5 56 90.9 52 85 52H75l7.4 32H71.7l-26.3 3.8-10.6-10.6C30.3 72.7 28.4 72 24 72h-8.5l3.5 31.4c.4 4.1 2.7 9.4 11 11.1l26 5.5h96c13.9 0 24-7.6 24-18s-10.1-18-24-18zm0 28H56.4l-24.7-5.3c-4.1-.8-4.6-2.6-4.7-4.2L24.5 80c1.9 0 2.1.2 4.7 2.8l13.4 13.4L72.3 92h11.9l2.8 12h8.2L85 60c1.1 0 1.5 0 4.2 4.3l27.2 39.7h9.7l-8.2-12H152c9.4 0 16 4.1 16 10s-6.6 10-16 10z" fill="rgba(0,0,0,1)"/></svg>
