<?xml version="1.0" encoding="UTF-8"?>
<svg xmlns="http://www.w3.org/2000/svg" viewBox="0 0 192 192"><path fill="none" d="M0 0h192v192H0z"/><path d="M108 124H48v4c0 17.6 14.4 32 32 32h65c17.6 0 32-14.4 32-32v-4h-69zm37 28H80c-11.9 0-21.8-8.7-23.7-20h112.4c-1.9 11.3-11.8 20-23.7 20z" fill="rgba(0,0,0,1)"/><path fill="none" d="M38.1 56L27.5 72h22.4l10.6-16zM40 40h24v8H40zM59.5 72h17L68 59.2z"/><path d="M72 50.8V32H32v18.8l-16 24V160h39.9c-2.9-2.2-5.5-4.9-7.8-8H24V80h24v36h8V80h24v36h8V74.8l-16-24zM40 40h24v8H40v-8zm9.9 32H27.5l10.7-16h22.4L49.9 72zm9.6 0L68 59.2 76.5 72h-17z" fill="rgba(0,0,0,1)"/></svg>
