<?xml version="1.0" encoding="UTF-8"?>
<svg xmlns="http://www.w3.org/2000/svg" viewBox="0 0 192 192"><path d="M144 128H16v12c0 2.9.8 5.6 2.2 8H16v12c0 8.8 7.2 16 16 16h96c8.8 0 16-7.2 16-16v-12h-2.2c1.4-2.4 2.2-5.1 2.2-8v-12zm-8 32c0 4.4-3.6 8-8 8H32c-4.4 0-8-3.6-8-8v-4h112v4zM32 148c-4.4 0-8-3.6-8-8v-4h112v4c0 4.4-3.6 8-8 8H32z" fill="rgba(0,0,0,1)"/><path d="M108 48c-35.3 0-64 28.7-64 64 0 2.7.2 5.4.5 8h8.1c-.4-2.6-.6-5.3-.6-8 0-30.9 25.1-56 56-56s56 25.1 56 56c0 12.9-4.3 25.1-12 34.7v11.8c12.6-11.9 20-28.5 20-46.5 0-35.3-28.7-64-64-64z" fill="rgba(0,0,0,1)"/><path d="M77 120c-.7-2.6-1-5.3-1-8 0-17.6 14.3-32 32-32 17.6 0 32 14.3 32 32 0 2.7-.3 5.4-1 8h8.2c.5-2.6.8-5.3.8-8 0-22-17.9-40-40-40-22 0-40 17.9-40 40 0 2.7.3 5.4.8 8H77z" fill="rgba(0,0,0,1)"/></svg>
