<?xml version="1.0" encoding="UTF-8"?>
<svg xmlns="http://www.w3.org/2000/svg" viewBox="0 0 192 192"><path d="M64 92V65.7l5.9-5.9c.7.2 1.3.3 2.1.3 4.4 0 8-3.6 8-8s-3.6-8-8-8-8 3.6-8 8c0 .7.1 1.4.3 2.1L56 62.3V92h-8v36.3l8 47.7h8l-7.3-44h50.6l-7.3 44h8l8-47.7V92H64zm44 8v24H56v-24h52z" fill="rgba(0,0,0,1)"/><path d="M121.7 53.5c6.2-3.4 10.3-10 10.3-17.5 0-11-9-20-20-20s-20 9-20 20c0 7.5 4.2 14.1 10.3 17.5C89.4 57.6 80 69.7 80 84h8c0-13.2 10.8-24 24-24s24 10.8 24 24v40h-8v52h8v-44h8V84c0-14.3-9.4-26.4-22.3-30.5zM112 24c6.6 0 12 5.4 12 12s-5.4 12-12 12-12-5.4-12-12 5.4-12 12-12z" fill="rgba(0,0,0,1)"/></svg>
