<?xml version="1.0" encoding="UTF-8"?>
<svg xmlns="http://www.w3.org/2000/svg" viewBox="0 0 192 192"><path d="M96 176c-1.9 0-3.6-1.4-4-3.3-.7-3.3-9-13.1-18.1-12.8-11.4.4-22-3.6-30-11.2-7.6-7.3-11.8-17.2-11.9-27.9-.1-22.9 5.9-36.5 10.7-47.3 3-6.6 5.3-11.9 5.3-17.4 0-9.5-2.2-12.2-9.9-16.5L33.5 37l22.7-22.7 2.8 3c4.1 4.3 10.4 6.8 17.3 6.7 6.8 0 12.9-2.5 16.9-6.7l2.9-3.2 2.9 3.2c3.9 4.2 10.1 6.7 16.9 6.7 6.9 0 13.2-2.4 17.3-6.7l2.8-3L158.7 37l-4.6 2.6c-7.7 4.3-9.9 7-9.9 16.5 0 5.6 2.3 10.8 5.3 17.4 4.8 10.9 10.9 24.4 10.7 47.3-.1 10.7-4.3 20.6-11.9 27.9-7.9 7.6-18.6 11.6-30 11.2-9.2-.3-17.4 9.5-18.1 12.8-.6 1.9-2.3 3.3-4.2 3.3zm-21.7-24.1c9.1 0 17.1 5.9 21.7 11.8 4.7-6 13-12.1 22.4-11.8 9.2.3 17.8-2.9 24.2-9 6-5.8 9.4-13.7 9.4-22.2.1-21.2-5.5-33.9-10-44-3.2-7.2-6-13.4-6-20.7 0-11 3.1-16.3 9.6-20.8l-9.7-9.7c-5.4 4.2-12.4 6.5-19.9 6.5h-.2c-7.5 0-14.5-2.4-19.8-6.6-5.3 4.2-12.3 6.6-19.8 6.6H76c-7.5 0-14.6-2.3-19.9-6.5l-9.7 9.7C52.9 39.7 56 45 56 56c0 7.2-2.8 13.5-6 20.7-4.5 10.2-10.2 22.8-10 44 .1 8.5 3.4 16.4 9.4 22.2 6.4 6.1 14.9 9.3 24.2 9h.7z" fill="rgba(0,0,0,1)"/><path d="M119.9 131.2L96 118.9l-23.9 12.3 4.6-26.1-19.4-18.5 26.8-3.8L96 59.1l11.9 23.7 26.8 3.8-19.4 18.6 4.6 26zM96 109.9l13.2 6.8-2.5-14.4 10.6-10.1-14.7-2.1L96 76.9l-6.6 13.2-14.7 2.1 10.6 10.1-2.5 14.4 13.2-6.8z" fill="rgba(0,0,0,1)"/></svg>
