<?xml version="1.0" encoding="UTF-8"?>
<svg xmlns="http://www.w3.org/2000/svg" viewBox="0 0 192 192"><path d="M132 156H60c-15.4 0-28-12.6-28-28 0-11.9 7.3-22.2 18.1-26.2-1.4-3.1-2.1-6.4-2.1-9.8 0-13.2 10.8-24 24-24h.1c.9-13.5 6.5-21.2 11.2-25.5 5.7-5.1 11.3-6.3 11.9-6.4l5.4-1.1-.7 5.5c0 .1-1.8 15.4 5.1 23.1 2.6 3 6.2 4.4 11 4.4h4c13.2 0 24 10.8 24 24 0 3.4-.7 6.7-2.1 9.8 10.8 4 18.1 14.3 18.1 26.2 0 15.4-12.6 28-28 28zM72 76c-8.8 0-16 7.2-16 16 0 3.6 1.2 7 3.4 9.8l4.2 5.4-6.7 1.1C47.1 109.8 40 118.1 40 128c0 11 9 20 20 20h72c11 0 20-9 20-20 0-9.9-7.1-18.2-16.9-19.8l-6.7-1.1 4.2-5.4c2.2-2.8 3.4-6.2 3.4-9.8 0-8.8-7.2-16-16-16h-4c-7.1 0-12.8-2.4-17-7.1-5.8-6.6-7.1-16.3-7.3-22.7C86.8 49.2 80 56.3 80 72v4h-8z" fill="rgba(0,0,0,1)"/></svg>
