<?xml version="1.0" encoding="UTF-8"?>
<svg xmlns="http://www.w3.org/2000/svg" viewBox="0 0 192 192"><path d="M176 148H16V44h160v104zm-152-8h144V52H24v88z" fill="rgba(0,0,0,1)"/><path d="M96 72h64v8H96zM96 92h64v8H96zM96 112h48v8H96zM60 96c-6.6 0-12-5.4-12-12s5.4-12 12-12 12 5.4 12 12-5.4 12-12 12zm0-16c-2.2 0-4 1.8-4 4s1.8 4 4 4 4-1.8 4-4-1.8-4-4-4z" fill="rgba(0,0,0,1)"/><path d="M60 134l-3.5-6s-13.7-23.5-16.6-28.6c-2.5-4-3.9-9.6-3.9-15.4 0-13.2 10.8-24 24-24s24 10.8 24 24c0 5.8-1.4 11.4-3.9 15.4-3 5.1-16.6 28.6-16.6 28.6l-3.5 6zm0-66c-8.8 0-16 7.2-16 16 0 4.3 1 8.5 2.7 11.2l.1.1c2 3.4 8.9 15.4 13.2 22.7 4.3-7.4 11.2-19.3 13.2-22.7l.1-.1C75 92.5 76 88.3 76 84c0-8.8-7.2-16-16-16z" fill="rgba(0,0,0,1)"/></svg>
