<?xml version="1.0" encoding="UTF-8"?>
<svg xmlns="http://www.w3.org/2000/svg" viewBox="0 0 192 192"><path d="M146.8 158.8l-5.7-5.7 5.2-5.2H128v-8h18.3l-5.2-5.2 5.7-5.7 14.8 14.8-14.8 15zM144 112c-17.6 0-32 14.4-32 32s14.4 32 32 32 32-14.4 32-32-14.4-32-32-32zm0 56c-13.2 0-24-10.8-24-24s10.8-24 24-24 24 10.8 24 24-10.8 24-24 24zm0-56zm-16-72V16H64v24H16v80c0 8.8 7.2 16 16 16h28v40h60c-3-2.3-5.7-5-8-8H68v-56h52c6.7-5 15-8 23.9-8H40v8h20v16H32c-4.4 0-8-3.6-8-8V48h144v64c3 2.3 5.7 5 8 8V40h-48zm-8 0H72V24h48v16zm36 26c0-3.3-2.7-6-6-6s-6 2.7-6 6 2.7 6 6 6 6-2.7 6-6zm-12 38z" fill="rgba(0,0,0,1)"/></svg>
