<?xml version="1.0" encoding="UTF-8"?>
<svg xmlns="http://www.w3.org/2000/svg" viewBox="0 0 192 192"><path d="M76 56h40v-8h16V16H60v32h16v8zm-8-16V24h56v16H68zM116 140h-8v-16c0-6.6-5.4-12-12-12s-12 5.4-12 12v18.4l-1.7-1.7c-3.3-3.3-8.3-4.1-12.5-2-3.6 1.8-5.8 5.4-5.8 9.4 0 4.5 1.7 8.2 4.4 13.8 1.2 2.5 6.6 11.3 7.2 12.3l1.2 1.9H132v-20c0-8.9-7.2-16.1-16-16.1zm-34.7 28c-2-3.3-4.9-8.3-5.7-9.8-2.5-5-3.6-7.5-3.6-10.2 0-.9.5-1.8 1.4-2.2 1.1-.6 2.4-.3 3.3.5l8.4 8.5 1.3 1.2H92v-32c0-2.2 1.8-4 4-4s4 1.8 4 4v24h16c4.4 0 8 3.6 8 8v12H81.3zM64.86 69.384l3.578-7.155 7.156 3.578-3.579 7.155zM43.35 112.34l3.579-7.156 7.155 3.578-3.578 7.156zM36.394 126.212l3.399-6.797 7.155 3.577-3.399 6.798zM50.535 97.987l3.579-7.155 7.155 3.578-3.579 7.155zM57.72 83.64l3.579-7.155 7.155 3.579-3.578 7.155zM116.444 65.807l7.155-3.578 3.578 7.155-7.155 3.579zM145.009 122.996l7.155-3.577 3.399 6.797-7.155 3.578zM137.926 108.697l7.155-3.579 3.578 7.156-7.155 3.578zM123.546 80.125l7.155-3.578 3.578 7.155-7.155 3.578zM130.735 94.415l7.155-3.578 3.579 7.155-7.156 3.578zM116 96h8v8h-8zM68 96h8v8h-8zM84 96h8v8h-8zM100 96h8v8h-8z" fill="rgba(0,0,0,1)"/><path d="M68 124h8v8h-8zM52 124h8v8h-8zM116 124h8v8h-8zM132 124h8v8h-8z" fill="rgba(0,0,0,1)"/></svg>
