<?xml version="1.0" encoding="UTF-8"?>
<svg xmlns="http://www.w3.org/2000/svg" viewBox="0 0 192 192"><path d="M89 79c0 12-6.6 20.1-16.5 20.1-9.8 0-16.5-8-16.5-19.9C56 67 62.6 59 72.7 59 82.4 59 89 67.1 89 79zm-25.3.2c0 8.9 2.9 13.3 8.7 13.3 6 0 8.9-4.3 8.9-13.4 0-9-3-13.6-8.7-13.6-6 .1-8.9 4.5-8.9 13.7zm48.9-19.6h7l-40 72.9h-7.1l40.1-72.9zM136 113c0 12-6.6 20.1-16.5 20.1-9.8 0-16.5-8-16.5-19.9 0-12.2 6.6-20.3 16.7-20.3 9.7 0 16.3 8.1 16.3 20.1zm-25.3.2c0 8.9 2.9 13.2 8.7 13.2 6 0 8.9-4.3 8.9-13.4 0-9-3-13.6-8.7-13.6-6 .1-8.9 4.5-8.9 13.8z" fill="rgba(0,0,0,1)"/><path d="M96 24c39.7 0 72 32.3 72 72s-32.3 72-72 72-72-32.3-72-72 32.3-72 72-72m0-8c-44.2 0-80 35.8-80 80s35.8 80 80 80 80-35.8 80-80-35.8-80-80-80z" fill="rgba(0,0,0,1)"/></svg>
