<?xml version="1.0" encoding="UTF-8"?>
<svg xmlns="http://www.w3.org/2000/svg" viewBox="0 0 192 192"><path d="M166.8 129.2l5.2-5.2-24-8 8 24 5.2-5.2 6.5 6.5 5.6-5.6zM64 116V60H32v56h32zM40 68h16v40H40V68z" fill="rgba(0,0,0,1)"/><path d="M96 132h12v-8H24V52h116v40h8V44H16v88h52v12H55.9v8h52.2v-8H96v-12zm-20 0h12v12H76v-12z" fill="rgba(0,0,0,1)"/><path d="M72 60h60v8H72zM88 76H72v16h8v-8h8zM96 76h12v8H96zM72 100v16h16v-8h-8v-8zM132 92V76h-16v8h8v8zM96 108h12v8H96zM124 132v-24h40v4.9l8 2.7V100h-56v40h31.6l-2.7-8z" fill="rgba(0,0,0,1)"/></svg>
