<?xml version="1.0" encoding="UTF-8"?>
<svg xmlns="http://www.w3.org/2000/svg" viewBox="0 0 192 192"><path d="M72 60h8v8h-8z" fill="rgba(0,0,0,1)"/><path d="M88 68h-8v8H64v8h16v8h8v8h8v-8h-8V68h15.9v-8H88V40H72v8h8v12h8z" fill="rgba(0,0,0,1)"/><path d="M96 40h16v8h-8v12h8V48h8V16H96v8H80v8h16v8zm8-16h8v8h-8v-8zM40 112h8v-8h8v-8h-8v8h-8v-8h-8v-8h20v-8H36v-8h-8v8H16v8h8v8h-8v24h24v-8zm-8 0h-8v-8h8v8zM80 128h8v-8h8v-12h-8v12h-8v-20H64v12h-8v8h16v8zM160 76h8v8h-8zM160 92h8v8h-8zM168 100h8v8h-8zM152 132v-8h-8v-8h-8v12h-8v8h8v4h16v12h8v-8h8v-20h-8v8z" fill="rgba(0,0,0,1)"/><path d="M152 72h-8v44h8v8h8v-24h-8zM120 76h-8v8h-8v-8h-8v16h8v8h-8v8h8v12h-8v8h12v8h12v-12h-8v-16h8v8h8V84h8v-8h-8v8h-8v-8zm0 24h-8v-8h8v8zM144 160v8h8v8h16v-8h-8v-8h-8v-8h-8zM136 152h-16v-8h-8v8h-12v-16H76v40h28v-8H84v-24h8v16h12v8h8v8h8v-8h8v8h16v-8h-8zM112 60h8v8h-8zM16 176h48v-48H16v48zm8-40h32v32H24v-32z" fill="rgba(0,0,0,1)"/><path d="M32 144h16v16H32zM64 16H16v48h48V16zm-8 40H24V24h32v32z" fill="rgba(0,0,0,1)"/><path d="M32 32h16v16H32zM128 16v48h48V16h-48zm40 40h-32V24h32v32z" fill="rgba(0,0,0,1)"/><path d="M144 32h16v16h-16z" fill="rgba(0,0,0,1)"/></svg>
