<?xml version="1.0" encoding="UTF-8"?>
<svg xmlns="http://www.w3.org/2000/svg" viewBox="0 0 192 192"><path d="M46 88c-16.5 0-30 13.5-30 30s13.5 30 30 30 30-13.5 30-30-13.5-30-30-30zm0 52c-12.1 0-22-9.9-22-22s9.9-22 22-22 22 9.9 22 22-9.9 22-22 22zM150 96c-14.3 0-26 11.7-26 26s11.7 26 26 26 26-11.7 26-26-11.7-26-26-26zm0 44c-9.9 0-18-8.1-18-18s8.1-18 18-18 18 8.1 18 18-8.1 18-18 18z" fill="rgba(0,0,0,1)"/><path d="M166.4 91.7l8.6 3.7L158.8 52h-23.9l-2.7 1.6-11.3-15-15.1 10.1 4.4 6.7 8.9-5.9 6.2 8.3-10.4 6.2H79c-2.2-5.3-7.8-12-19-12H34L19.3 71.6l6.9 13.7 3.6-1.7c4.9-2.4 10.5-3.6 16.5-3.6 15.9 0 30.3 10.2 36 25.4l1 2.6h35.1l1.1-2.1c.6-1.1 15.6-27.6 46.9-14.2zm-52.6 8.3H88.7c-7.5-16.9-24.2-28-42.4-28-5.8 0-11.3 1-16.3 2.8l-1.2-2.4L38 60h22c10.1 0 11.9 7.8 12.1 8.7l.6 3.3h44.5l20-12h16.1l8 21.5c-15.5-4-27.2.6-34.7 5.6-6.6 4.5-10.8 10-12.8 12.9z" fill="rgba(0,0,0,1)"/></svg>
