<?xml version="1.0" encoding="UTF-8"?>
<svg xmlns="http://www.w3.org/2000/svg" viewBox="0 0 192 192"><path d="M87.3 116.7c0-16.7 3.5-22.6 21.3-36.2 12.7-9.7 16.7-16.5 16.7-28.1 0-15.6-10.8-25.7-27.2-25.7-17.3 0-28.3 9.4-32.7 28.3l-11.6-2c2.6-12.5 6.6-20 14.7-26.8C76.4 19.5 86.7 16 98.3 16c23.7 0 39.9 14.7 39.9 36.2 0 9.9-3.1 18.2-9.2 25.2-3.5 4-6.1 6.1-14.3 12.1C100.9 99.6 98 104.4 98 117.8v12.9H87.3v-14zm15.4 49.2c0 5.5-4.6 10.1-10.1 10.1s-10.1-4.6-10.1-10.1c0-5.7 4.4-10.1 10.1-10.1 5.5 0 10.1 4.6 10.1 10.1z" fill="rgba(0,0,0,1)"/></svg>
