<?xml version="1.0" encoding="UTF-8"?>
<svg xmlns="http://www.w3.org/2000/svg" viewBox="0 0 192 192"><path d="M96 16c-21.4 0-41.5 8.3-56.6 23.4-1 1-2 2-2.9 3.1l3 2.7L88.3 94c-.2.6-.3 1.3-.3 2 0 4.4 3.6 8 8 8s8-3.6 8-8-3.6-8-8-8c-.7 0-1.4.1-2.1.3l-9-9c3.2-2.2 7-3.3 11-3.3 11 0 20 9 20 20s-9 20-20 20c-5.3 0-10.4-2.1-14.1-5.9l-5.7 5.7c5.3 5.3 12.3 8.2 19.8 8.2 15.4 0 28-12.6 28-28s-12.6-28-28-28c-6.1 0-12 2-16.8 5.6L65 59.4C73.7 52 84.5 48 96 48c26.5 0 48 21.5 48 48s-21.5 48-48 48c-12.8 0-24.9-5-33.9-14.1l-5.7 5.7C67 146.2 81 152 96 152c30.9 0 56-25.1 56-56s-25.1-56-56-56c-13.6 0-26.5 4.8-36.7 13.7L48 42.3C61.2 30.5 78.1 24 96 24c39.7 0 72 32.3 72 72s-32.3 72-72 72c-19.2 0-37.3-7.5-50.9-21.1l-5.7 5.7C54.5 167.7 74.6 176 96 176c44.1 0 80-35.9 80-80s-35.9-80-80-80z" fill="rgba(0,0,0,1)"/></svg>
