<?xml version="1.0" encoding="UTF-8"?>
<svg xmlns="http://www.w3.org/2000/svg" viewBox="0 0 192 192"><path d="M104.8 113.7l-7.2-3.4c2.9-6.2 4.4-12.8 4.4-19.4 0-2.1-.2-4.2-.6-6.6-3.6-.3-7.1-.3-10.6 0-.4 2.1-.7 4.3-.7 6.6 0 6.7 1.5 13.3 4.3 19.5l-7.3 3.3c-3.4-7.3-5.1-15-5.1-22.9 0-4.1.8-8.1 1.6-11.2l.6-2.7 2.7-.4c6.1-.8 12.2-.8 18.4 0l2.7.5.6 2.7c.9 4.1 1.4 7.7 1.4 11.1 0 7.9-1.7 15.6-5.2 22.9zM131.2 152.5l-2.7-.6c-4.1-1-7.5-2.1-10.6-3.6-7.1-3.4-13.2-8.4-18.3-14.7l6.2-5c4.3 5.4 9.6 9.6 15.6 12.5 1.8.9 3.9 1.6 6.2 2.3.9-1.6 1.8-3.1 2.6-4.7s1.5-3.2 2.1-4.8c-1.7-1.3-3.6-2.5-5.6-3.5-6-2.9-12.6-4.5-19.4-4.6l.2-8c8 .2 15.7 2 22.8 5.4 3.7 1.8 6.8 4.2 9.4 6.3l2.1 1.7-.8 2.6c-1 2.9-2.1 5.8-3.4 8.5-1.3 2.7-2.9 5.5-4.6 8.1l-1.8 2.1zM60.9 152.5l-1.5-2.3c-1.7-2.5-3.3-5.2-4.6-7.9-1.4-2.7-2.5-5.6-3.5-8.6l-.9-2.6 2.1-1.7c3.2-2.6 6.3-4.7 9.3-6.2 7-3.5 14.7-5.3 22.8-5.5l.2 8c-6.9.1-13.4 1.7-19.4 4.7-1.8.9-3.7 2-5.6 3.5.7 1.7 1.4 3.3 2.2 4.9.8 1.6 1.6 3.1 2.6 4.6 2-.6 4.2-1.3 6.2-2.3 6-3 11.2-7.2 15.6-12.5l6.2 5c-5 6.2-11.2 11.2-18.2 14.7-3.7 1.8-7.5 2.8-10.7 3.6l-2.8.6z" fill="rgba(0,0,0,1)"/><path d="M96 136c-7.7 0-14-6.3-14-14s6.3-14 14-14 14 6.3 14 14-6.3 14-14 14zm0-20c-3.3 0-6 2.7-6 6s2.7 6 6 6 6-2.7 6-6-2.7-6-6-6z" fill="rgba(0,0,0,1)"/><g><path d="M83.978 36L96 23.98 108.02 36 96 48.021zM153.1 57.5c-.3 1.7-.8 3.4-1.5 5l7.4 3c.9-2.1 1.5-4.3 1.9-6.5l-7.8-1.5zM105.3 22.3l4.5 6.6c3-2.1 6.5-3.6 10.1-4.3l-1.7-7.8c-4.6 1-9 2.8-12.9 5.5zM161 44.9c-.9-4.7-2.8-9.1-5.4-13l-6.6 4.5c2.1 3.1 3.5 6.5 4.2 10.1l7.8-1.6zM132.4 16.6l-1.5 7.9c1.8.3 3.5.9 5.3 1.6 1.8.7 3.4 1.6 4.9 2.6l4.4-6.7c-2-1.3-4.1-2.4-6.3-3.3-2.3-1-4.5-1.6-6.8-2.1zM31 59c.4 2.2 1.1 4.3 1.9 6.5l7.4-3c-.7-1.7-1.2-3.3-1.5-5L31 59zM31 44.9l7.8 1.6c.7-3.6 2.2-7.1 4.2-10.1l-6.6-4.5c-2.6 3.9-4.4 8.3-5.4 13zM52.8 18.6c-2.2.9-4.3 2-6.3 3.3l4.4 6.7c1.5-1 3.2-1.9 4.9-2.6 1.7-.7 3.5-1.2 5.3-1.6l-1.5-7.9c-2.3.6-4.5 1.2-6.8 2.1zM73.8 16.8l-1.7 7.8c3.6.8 7.1 2.2 10.1 4.3l4.5-6.6c-3.9-2.7-8.3-4.5-12.9-5.5zM92 56h8v12h-8z" fill="rgba(0,0,0,1)"/></g><g><path fill="none" d="M96 142c-.7.7-1.3 1.4-2 2h4l-2-2zM118.1 91.3c-.1 1.7-.2 3.3-.3 4.7H168V80h-51.2c.8 4.1 1.4 8.4 1.3 11.3z"/><path d="M115 72c.6 2.1 1.3 5 1.9 8H168v16h-50.3c-.3 3-.6 5.6-1.2 8H168v16h-27.7c4 2.8 7.9 6.1 9.9 8H168v16h-22.6c-.3.6-.5 1.1-.8 1.7-1 2.1-2.1 4.2-3.4 6.3H168v16H24v-16h27c-1.3-2-2.4-4-3.4-6-.3-.6-.6-1.3-.9-2H24v-16h17.7c2.1-2 6-5.3 9.9-8H24v-16h51.4c-.5-2.4-.9-4.9-1.1-8H24V80h51.3c.6-3 1.3-5.9 1.9-8H16v104h160V72h-61z" fill="rgba(0,0,0,1)"/><path d="M94 144c-3.2 3.2-5.9 5.4-10 8h24.1c-4-2.5-6.9-4.8-10.1-8h-4z" fill="rgba(0,0,0,1)"/></g></svg>
