<?xml version="1.0" encoding="UTF-8"?>
<svg xmlns="http://www.w3.org/2000/svg" viewBox="0 0 192 192"><path d="M103.8 89.1c2.5-2.2 4.2-5.4 4.2-9.1 0-6.6-5.4-12-12-12s-12 5.4-12 12c0 3.6 1.6 6.9 4.2 9.1l-34 86.9h15.1L96 158.1l26.8 17.9h15.1l-34.1-86.9zm-37 78.9h-.9l9.3-23.8 13.6 9.1-22 14.7zm11.4-31.3l-.2.3 17.6-45h.8l17.6 45-.2-.4L96 148.5l-17.8-11.8zm25 16.6l13.6-9.1 9.3 23.8h-.9l-22-14.7z" fill="rgba(0,0,0,1)"/><path d="M70.9 111.1l3.1-7.9C67.9 97.4 64 89.1 64 80c0-17.6 14.4-32 32-32s32 14.4 32 32c0 9.1-3.9 17.4-10 23.2l3.1 7.9c9.1-7.3 14.9-18.6 14.9-31.1 0-22.1-17.9-40-40-40S56 57.9 56 80c0 12.6 5.8 23.8 14.9 31.1z" fill="rgba(0,0,0,1)"/><path d="M61.9 134.2l3-7.6c-3-2-5.9-4.4-8.5-7C45.8 109 40 95 40 80s5.8-29 16.4-39.6C67 29.8 81 24 96 24s29 5.8 39.6 16.4C146.2 51 152 65 152 80s-5.8 29-16.4 39.6c-2.6 2.6-5.5 5-8.5 7l3 7.6c4-2.5 7.7-5.5 11.2-8.9 12-12.1 18.7-28.2 18.7-45.3s-6.7-33.2-18.7-45.3S113.1 16 96 16s-33.2 6.7-45.3 18.7S32 62.9 32 80s6.7 33.2 18.7 45.3c3.5 3.4 7.2 6.3 11.2 8.9z" fill="rgba(0,0,0,1)"/></svg>
