<?xml version="1.0" encoding="UTF-8"?>
<svg xmlns="http://www.w3.org/2000/svg" viewBox="0 0 192 192"><path d="M176 135h-8c0-39.7-32.3-72-72-72s-72 32.3-72 72h-8c0-44.1 35.9-80 80-80s80 35.9 80 80z" fill="rgba(0,0,0,1)"/><path d="M160 135h-8c0-30.9-25.1-56-56-56s-56 25.1-56 56h-8c0-35.3 28.7-64 64-64s64 28.7 64 64z" fill="rgba(0,0,0,1)"/><path d="M144 135h-8c0-22.1-17.9-40-40-40s-40 17.9-40 40h-8c0-26.5 21.5-48 48-48s48 21.5 48 48z" fill="rgba(0,0,0,1)"/><path d="M128 135h-8c0-13.2-10.8-24-24-24s-24 10.8-24 24h-8c0-17.6 14.4-32 32-32s32 14.4 32 32z" fill="rgba(0,0,0,1)"/></svg>
