<?xml version="1.0" encoding="UTF-8"?>
<svg xmlns="http://www.w3.org/2000/svg" viewBox="0 0 192 192"><path d="M176 96c0-44.1-35.9-80-80-80v8c39.7 0 72 32.3 72 72 0 21.8-9.9 41-28 54.7V128h-8v36h36v-8h-21.8c19.3-15.2 29.8-36.2 29.8-60zM24 96c0-21.8 9.9-41 28-54.7V64h8V28H24v8h21.8C26.5 51.2 16 72.2 16 96c0 44.1 35.9 80 80 80v-8c-39.7 0-72-32.3-72-72z" fill="rgba(0,0,0,1)"/><path d="M128.4 88.4v-.9c0-12.1-9.9-22-22-22-6.6 0-12.8 3-17 8-1.3-.3-2.6-.4-3.9-.4-7.9 0-14.7 5.4-16.7 12.9-7.4 2-12.8 8.8-12.8 16.7 0 9.5 7.7 17.3 17.3 17.3h45.5c9.5 0 17.3-7.7 17.3-17.3-.1-5.7-3-11.1-7.7-14.3zm-9.7 23.6H73.3c-5.1 0-9.3-4.2-9.3-9.3 0-4.9 3.8-8.9 8.6-9.2l3.5-.2.2-3.5c.3-4.8 4.4-8.6 9.2-8.6 1.3 0 2.6.3 3.8.8l3.2 1.4 1.8-3c2.6-4.3 7-6.8 12-6.8 7.7 0 14 6.3 14 14 0 .8-.1 1.6-.2 2.4l-.5 3.1 2.8 1.3c3.3 1.5 5.5 4.8 5.5 8.5.1 4.9-4.1 9.1-9.2 9.1z" fill="rgba(0,0,0,1)"/></svg>
