<?xml version="1.0" encoding="UTF-8"?>
<svg xmlns="http://www.w3.org/2000/svg" viewBox="0 0 192 192"><path d="M146.2 156H168v8h-36v-36h8v22.7c18.1-13.7 28-32.9 28-54.7 0-39.7-32.3-72-72-72v-8c44.1 0 80 35.9 80 80 0 23.8-10.5 44.8-29.8 60zM24 96c0-21.8 9.9-41 28-54.7V64h8V28H24v8h21.8C26.5 51.2 16 72.2 16 96c0 44.1 35.9 80 80 80v-8c-39.7 0-72-32.3-72-72zm48.1 36c1.7 0 3.2-1.2 3.7-2.8L92.1 77l12.1 36.2c.5 1.6 2 2.7 3.7 2.7 1.7 0 3.2-1 3.8-2.6l8.8-23.4 3.9 7.8c.7 1.4 2.1 2.2 3.6 2.2h24v-8h-21.5l-6.9-13.8c-.7-1.4-2.2-2.3-3.8-2.2-1.6.1-3 1.1-3.5 2.6l-8 21.4-12.5-37.2c-.6-1.6-2.1-2.7-3.8-2.7-1.7 0-3.3 1.2-3.8 2.8l-16.5 52.9-7.9-21.1C63.2 93 61.7 92 60 92H44v8h13.2l11 29.4c.6 1.6 2.1 2.6 3.7 2.6h.2z" fill="rgba(0,0,0,1)"/></svg>
