<?xml version="1.0" encoding="UTF-8"?>
<svg xmlns="http://www.w3.org/2000/svg" viewBox="0 0 192 192"><path d="M76 80zm44 32V76H92.6c-.4 1.4-.6 2.7-.6 4 0 1.4.1 2.7.4 4H112v36c2.3-3 5-5.7 8-8zm-96 24h80.8c-.5 2.6-.8 5.3-.8 8H80v8h8v8H48v-8h8v-8H16V76h52.2c-.1 1.3-.2 2.7-.2 4 0 1.3.1 2.7.2 4H24v52zm40 8v8h8v-8h-8zm26.8-46.8C86.5 92.8 84 86.6 84 80c0-13.2 10.8-24 24-24h2.3l-9.2 9.2 5.7 5.7L125.7 52l-18.9-18.8-5.7 5.7 9.2 9.2H108c-17.6 0-32 14.4-32 32 0 8.7 3.3 17 9.2 22.8l5.6-5.7zM176 144c0 17.6-14.4 32-32 32s-32-14.4-32-32 14.4-32 32-32 32 14.4 32 32zm-8 0c0-13.2-10.8-24-24-24s-24 10.8-24 24 10.8 24 24 24 24-10.8 24-24zm-20-16h-8v12h-12v8h12v12h8v-12h12v-8h-12v-12zM72 16v46.9c2-4.1 4.7-7.9 8-11.1V24h88v52h-40v24h16v-8h-8v-8h40V16H72z" fill="rgba(0,0,0,1)"/></svg>
