<?xml version="1.0" encoding="UTF-8"?>
<svg xmlns="http://www.w3.org/2000/svg" viewBox="0 0 192 192"><circle cx="96" cy="52" r="4" fill="rgba(0,0,0,1)"/><path d="M96 24c7.5 0 14.5 2.9 19.8 8.2l5.7-5.7C114.7 19.7 105.6 16 96 16s-18.7 3.7-25.5 10.5l5.7 5.7C81.5 26.9 88.5 24 96 24z" fill="rgba(0,0,0,1)"/><path d="M110.1 37.9c-3.8-3.8-8.8-5.9-14.1-5.9s-10.4 2.1-14.1 5.9l5.7 5.7c2.3-2.3 5.3-3.5 8.5-3.5s6.2 1.2 8.5 3.5l5.5-5.7zM68 64v96h56V64H68zm48 88H76V72h40v80z" fill="rgba(0,0,0,1)"/><path d="M84 92h8v12h-8zM100 92h8v12h-8zM84 112h8v12h-8zM100 112h8v12h-8zM84 132h8v12h-8zM100 132h8v12h-8z" fill="rgba(0,0,0,1)"/></svg>
