<?xml version="1.0" encoding="UTF-8"?>
<svg xmlns="http://www.w3.org/2000/svg" viewBox="0 0 192 192"><path d="M104 104v56h56v-56h-56zm48 48h-40v-40h40v40zM88 32H32v56h56V32zm-8 48H40V40h40v40zM131.7 82l-4.9-4.9-5.7 5.7L136 97.7l14.8-14.8-5.7-5.7-5.4 5.4c-1-11.8-5.4-21.4-12.8-28.1C119.3 47.6 108.6 44 96 44v8c10.1 0 32.8 3.1 35.7 30zM60.3 110l4.9 4.9 5.7-5.7L56 94.3l-14.8 14.8 5.7 5.7 5.4-5.4c1 11.8 5.4 21.4 12.8 28.1 7.7 6.9 18.4 10.5 31 10.5v-8c-10.2 0-32.9-3.1-35.8-30z" fill="rgba(0,0,0,1)"/></svg>
