<?xml version="1.0" encoding="UTF-8"?>
<svg xmlns="http://www.w3.org/2000/svg" viewBox="0 0 192 192"><path d="M164 16H63.4c-3.2 0-6.3 1.3-8.6 3.6L19.4 55.9c-2.2 2.3-3.4 5.2-3.4 8.4V164c0 6.6 5.4 12 12 12h136c6.6 0 12-5.4 12-12V28c0-6.6-5.4-12-12-12zm4 148c0 2.2-1.8 4-4 4H28c-2.2 0-4-1.8-4-4V64.3c0-1 .4-2 1.1-2.8l35.4-36.3c.7-.8 1.8-1.2 2.9-1.2H164c2.2 0 4 1.8 4 4v136zM74.3 44H148v88H64V82.3L82.3 64H128v40h-20v8H84V88h24v8h12V72H85.7L72 85.7V124h68V52H77.7L52 77.7V144h96v8H44V74.3L74.3 44z" fill="rgba(0,0,0,1)"/></svg>
