<?xml version="1.0" encoding="UTF-8"?>
<svg xmlns="http://www.w3.org/2000/svg" viewBox="0 0 192 192"><path d="M140 157.7l-10.8-10.8 5.7-5.7 5.2 5.2 13.2-13.2 5.7 5.7-19 18.8zm36-13.7c0-17.6-14.4-32-32-32s-32 14.4-32 32 14.4 32 32 32 32-14.4 32-32zm-8 0c0 13.2-10.8 24-24 24s-24-10.8-24-24 10.8-24 24-24 24 10.8 24 24zm-56 24H28c-2.2 0-4-1.8-4-4V64.3c0-1 .4-2 1.1-2.8l35.4-36.3c.7-.8 1.8-1.2 2.9-1.2H164c2.2 0 4 1.8 4 4v84c3 2.3 5.7 5 8 8V28c0-6.6-5.4-12-12-12H63.4c-3.2 0-6.3 1.3-8.6 3.6L19.4 55.9c-2.2 2.3-3.4 5.2-3.4 8.4V164c0 6.6 5.4 12 12 12h92c-3-2.3-5.7-5-8-8zm-60-24V77.7L77.7 52H140v52.2c1.3-.1 2.7-.2 4-.2s2.7.1 4 .2V44H74.3L44 74.3V152h60.8c-.5-2.6-.8-5.3-.8-8H52zm20-58.3L85.7 72H120v24h-12v-8H84v24h24v-8h20V64H82.3L64 82.3V132h41.8c.9-2.8 2.1-5.5 3.5-8H72V85.7z" fill="rgba(0,0,0,1)"/></svg>
