<?xml version="1.0" encoding="UTF-8"?>
<svg xmlns="http://www.w3.org/2000/svg" viewBox="0 0 192 192"><path d="M176 112c0-1.4 0-5.1-11.6-10.4l4-28.1-57-21.9-5.9 4.4-5.8-6 7.2-7.2-5.7-5.7-20 20 5.7 5.7 7.2-7.2 5.1 5.1-5.5 4.1c-4.7 3.5-5.1 9.2-1.2 17l5 10.2H86.6c-1.1-2.4-2.8-6.1-4.9-9.9C76.4 72.2 72.3 68 68 68H56V52c0-6.6-5.4-12-12-12H32v42.7C20 99.9 20 102.9 20 104c0 4.4 3.7 9.2 6.5 12.2C20.2 120.5 16 127.8 16 136c0 13.2 10.8 24 24 24 11.9 0 21.7-8.7 23.7-20H132c0 11 9 20 20 20s20-9 20-20c0-4.2-1.3-8.2-3.6-11.4 2.7-4 7.6-12 7.6-16.6zM44 48c2.2 0 4 1.8 4 4v24h19.7c1.9 1 5.9 7.3 9.6 14.8L40 84.6V48h4zm-4 104c-8.8 0-16-7.2-16-16s7.2-16 16-16 16 7.2 16 16-7.2 16-16 16zm93.7-20h-70c-1.9-11.3-11.8-20-23.7-20-2 0-3.9.2-5.7.7-2.9-2.6-6-6.6-6.3-8.4.6-1.8 3.8-6.9 7.4-12.3l48.3 8h26.8L99.6 78.2c-1.3-2.6-2.6-6-1.2-7l14.2-10.7 47 18.1-4 27.9 2.9 1.2c3.9 1.6 7.9 3.8 9.4 5.1-.6 2-2.7 6.1-5.3 10.2-3.1-1.9-6.7-3-10.5-3-8.3 0-15.3 4.9-18.4 12zm18.3 20c-6.6 0-12-5.4-12-12s5.4-12 12-12 12 5.4 12 12-5.4 12-12 12z" fill="rgba(0,0,0,1)"/></svg>
