<?xml version="1.0" encoding="UTF-8"?>
<svg xmlns="http://www.w3.org/2000/svg" viewBox="0 0 192 192"><path d="M72 120h48c6.6 0 12-5.4 12-12V96H60v12c0 6.6 5.4 12 12 12zm12-8v-8h8v8h-8zm16-8h8v8h-8v-8zm24 4c0 2.2-1.8 4-4 4h-4v-8h8v4zm-56-4h8v8h-4c-2.2 0-4-1.8-4-4v-4zM74 84c7.7 0 14-6.3 14-14s-6.3-14-14-14-14 6.3-14 14 6.3 14 14 14zm0-20c3.3 0 6 2.7 6 6s-2.7 6-6 6-6-2.7-6-6 2.7-6 6-6z" fill="rgba(0,0,0,1)"/><path d="M176 88c0-11.9-8.7-21.7-20-23.7V40h-56v-9.1c2.4-1.4 4-4 4-6.9 0-4.4-3.6-8-8-8s-8 3.6-8 8c0 3 1.6 5.5 4 6.9V40H36v24.3c-11.3 2-20 11.8-20 23.7s8.7 21.7 20 23.7V136h32v16H36v24h120v-24h-36v-16h36v-24.3c11.3-2 20-11.8 20-23.7zM24 88c0-7.4 5.1-13.7 12-15.5v30.9c-6.9-1.7-12-8-12-15.4zm124 72v8H44v-8h104zm-36-8H76v-16h36v16zm36-24H44V48h104v80zm8-24.5v-31c6.9 1.8 12 8 12 15.5s-5.1 13.7-12 15.5z" fill="rgba(0,0,0,1)"/><path d="M118 84c7.7 0 14-6.3 14-14s-6.3-14-14-14-14 6.3-14 14 6.3 14 14 14zm0-20c3.3 0 6 2.7 6 6s-2.7 6-6 6-6-2.7-6-6 2.7-6 6-6z" fill="rgba(0,0,0,1)"/></svg>
