<?xml version="1.0" encoding="UTF-8"?>
<svg xmlns="http://www.w3.org/2000/svg" viewBox="0 0 192 192"><path d="M159.5 56.3l-6-5.3-15.9 17.9-8.3 1.7-11.1-19.3 5.6-6.3 23.5-4.8-1.6-7.8-26.1 5.3L114 44l-1.2-2.1-20.8 12 4 6.9-30 17.4c-3-1.4-6.4-2.2-10-2.2-13.2 0-24 10.8-24 24s10.8 24 24 24c1.3 0 2.6-.1 3.9-.3l8.3 8.3H56v28h80v-28h-28.2l-28.1-28.1c.1-.4.1-.9.2-1.3L110 85.1l4 6.9 20.8-12-1.2-2.1 8.3-1.7 17.6-19.9zM40 100c0-8.8 7.2-16 16-16s16 7.2 16 16-7.2 16-16 16-16-7.2-16-16zm88 52H64v-12h64v12zm-31.5-20h-17l-11.3-11.3c3.5-2.1 6.4-5 8.5-8.5L96.5 132zm9.5-53.8L79.2 93.7c-1.1-4-3.2-7.5-6-10.4L100 67.8l4.9 8.5 1.1 1.9zm10.9 2.9l-5.4-9.4-8.6-14.8 6.9-4 14 24.2-6.9 4z" fill="rgba(0,0,0,1)"/></svg>
