<?xml version="1.0" encoding="UTF-8"?>
<svg xmlns="http://www.w3.org/2000/svg" viewBox="0 0 192 192"><path d="M132 151c-10.5 0-19-8.5-19-19s8.5-19 19-19 19 8.5 19 19-8.5 19-19 19zm0-30c-6.1 0-11 4.9-11 11s4.9 11 11 11 11-4.9 11-11-4.9-11-11-11zm0 55c-2.3 0-4.6-.2-6.9-.5l-2.6-.4-2.5-9.5c-1.1-.4-2.1-.8-3.2-1.3l-8.5 5-2.1-1.5c-3.8-2.7-7.1-6-9.8-9.8l-1.5-2.1 5-8.5c-.5-1-.9-2.1-1.3-3.2l-9.5-2.5-.4-2.6c-.4-2.3-.6-4.6-.6-6.9 0-2.3.2-4.6.6-6.9l.4-2.6 9.5-2.5c.4-1.1.8-2.1 1.3-3.2l-5-8.5 1.5-2.1c2.7-3.8 6-7.1 9.8-9.8l2.1-1.5 8.5 5c1-.5 2.1-.9 3.2-1.3l2.5-9.5 2.6-.4c4.6-.7 9.3-.7 13.9 0l2.6.4 2.5 9.5c1.1.4 2.1.8 3.2 1.3l8.5-5 2.1 1.5c3.8 2.7 7.1 6 9.8 9.8l1.5 2.1-5 8.5c.5 1 .9 2.1 1.3 3.2l9.5 2.5.4 2.6c.4 2.3.6 4.6.6 6.9 0 2.3-.2 4.6-.6 6.9l-.4 2.6-9.5 2.5c-.4 1.1-.8 2.1-1.3 3.2l5 8.5-1.5 2.1c-2.7 3.8-6 7.1-9.8 9.8l-2.1 1.5-8.5-5c-1 .5-2.1.9-3.2 1.3l-2.5 9.5-2.6.4c-2.4.3-4.7.5-7 .5zm-3.1-8.1c2.1.2 4.2.2 6.3 0l2.3-8.7 2.2-.6c2-.6 4-1.4 5.8-2.4l2-1.1 7.8 4.6c1.6-1.3 3.1-2.8 4.4-4.4l-4.6-7.8 1.1-2c1-1.8 1.8-3.8 2.4-5.8l.6-2.2 8.7-2.3c.1-1 .1-2.1.1-3.1s0-2.1-.1-3.1l-8.7-2.3-.6-2.2c-.6-2-1.4-4-2.4-5.8l-1.1-2 4.6-7.8a30.5 30.5 0 0 0-4.4-4.4l-7.8 4.6-2-1.1c-1.8-1-3.8-1.8-5.8-2.4l-2.2-.6-2.3-8.7c-2.1-.2-4.2-.2-6.3 0l-2.3 8.7-2.2.6c-2 .6-4 1.4-5.8 2.4l-2 1.1-7.8-4.6a30.5 30.5 0 0 0-4.4 4.4l4.6 7.8-1.1 2c-1 1.8-1.8 3.8-2.4 5.8l-.6 2.2-8.7 2.3c-.1 1-.1 2.1-.1 3.1s0 2.1.1 3.1l8.7 2.3.6 2.2c.6 2 1.4 3.9 2.4 5.8l1.1 2-4.6 7.8c1.3 1.6 2.8 3.1 4.4 4.4l7.8-4.6 2 1.1c1.8 1 3.8 1.8 5.8 2.4l2.2.6 2.3 8.7zM132 151c-10.5 0-19-8.5-19-19s8.5-19 19-19 19 8.5 19 19-8.5 19-19 19zm0-30c-6.1 0-11 4.9-11 11s4.9 11 11 11 11-4.9 11-11-4.9-11-11-11zm-88 39h44l-6.1-8H52v-16h28.2c-.1-1.3-.2-2.7-.2-4 0-1.3.1-2.7.2-4H69.7L58 116.3c4.3-2.5 7.9-6.1 10.3-10.3l10.8 10.8 9-2.3-16.7-16.8c.3-1.4.5-2.9.6-4.4l32.3-18.7 4.5 7.9 22.7-13.1-1.5-2.6 10-2 19-22.2-6.1-5.2-17.2 20.2-9.9 2-13.1-22.7 6.8-7.4 25.3-5.5-1.7-7.8-27.8 6-6.9 7.5-1.8-3L84 39.6l4.9 8.5-32.5 18.8C52.6 65 48.4 64 44 64c-15.4 0-28 12.6-28 28s12.6 28 28 28c2 0 3.9-.2 5.7-.6l8.6 8.6H44v32zm59.8-122.5l16.8 29.1-8.8 5.1-.5-.9-15.4-26.7-.9-1.5 8.8-5.1zM92.9 55l7.4 12.8L71 84.7c-1.3-4.9-3.9-9.3-7.5-12.7l29.4-17zM44 112c-11 0-20-9-20-20s9-20 20-20 20 9 20 20-9 20-20 20z" fill="rgba(0,0,0,1)"/></svg>
