<?xml version="1.0" encoding="UTF-8"?>
<svg xmlns="http://www.w3.org/2000/svg" viewBox="0 0 192 192"><path d="M160 35.5l-.4-3.2-3.2-.3c-1.3-.1-31.1-3-47.2 13.2L58.3 96h-40l38.8 38.8L96 173.7v-40l50.8-50.8c16.7-16.8 13.3-46.1 13.2-47.4zM50.3 104l-6.3 6.3-6.3-6.3h12.6zM88 154.3l-6.3-6.3 6.3-6.3v12.6zm-12-12l-13.2-13.2L49.7 116l65.2-65.2c10.6-10.6 29.8-11.3 37.4-11 .3 7.6-.1 26.4-11.1 37.4L76 142.3zM33.18 153.16l15.98-15.98 5.657 5.656-15.98 15.98zM53.104 157.186l7.99-7.99 5.657 5.656-7.99 7.99zM29.105 133.186l7.99-7.99 5.657 5.656-7.99 7.99z" fill="rgba(0,0,0,1)"/><path d="M124 56c-6.6 0-12 5.4-12 12s5.4 12 12 12 12-5.4 12-12-5.4-12-12-12zm0 16c-2.2 0-4-1.8-4-4s1.8-4 4-4 4 1.8 4 4-1.8 4-4 4z" fill="rgba(0,0,0,1)"/></svg>
