<?xml version="1.0" encoding="UTF-8"?>
<svg xmlns="http://www.w3.org/2000/svg" viewBox="0 0 192 192"><path d="M111.7 115.5l.5 8c5.6-.4 11.1-1 16.3-1.7l-1.2-7.9c-4.9.7-10.2 1.2-15.6 1.6zM135.2 112.5l1.5 7.9c6.1-1.2 11.7-2.6 16.5-4.3l-2.6-7.6c-4.4 1.5-9.6 2.9-15.4 4z" fill="rgba(0,0,0,1)"/><path d="M174.3 89.7c-.9-1.5-2.1-3-3.5-4.4C159.4 74.8 130.1 68 96.1 68c-38.7 0-79.9 9.8-79.9 28 0 16.7 34.7 26.3 70.3 27.8l-17.3 17.3 5.7 5.7 26.8-26.8-26.9-26.9-5.7 5.7 17 17c-38.7-1.6-62-12.1-62-19.8 0-8.4 27.4-20 71.9-20 31.1 0 59.6 6.3 69.2 15.2.9.8 1.6 1.7 2 2.5.5.8.7 1.6.7 2.3 0 2.9-3.6 6.3-9.8 9.4l3.5 7.2c11.8-5.8 14.2-12.2 14.2-16.5.2-2.2-.4-4.3-1.5-6.4z" fill="rgba(0,0,0,1)"/></svg>
