<?xml version="1.0" encoding="UTF-8"?>
<svg xmlns="http://www.w3.org/2000/svg" viewBox="0 0 192 192"><path d="M88.4 24.4l-.8-8c-7.6.8-15.1 2.7-22.1 5.6l3.1 7.4c6.3-2.6 13-4.3 19.8-5zM61.9 32.6l-3.8-7c-7 3.8-13.4 8.5-18.9 14.2l5.7 5.6c5-5.1 10.7-9.4 17-12.8zM40.2 50.5l-6.2-5c-4.9 6.1-9 12.8-11.9 20l7.4 3.1C32.1 62 35.7 56 40.2 50.5zM16 96h8c0-7.1 1-14.1 3.1-20.8l-7.7-2.3C17.1 80.3 16 88.1 16 96zM96 16v8c39.7 0 72 32.3 72 72s-32.3 72-72 72c-21.8 0-41-9.9-54.7-28H72v-8H28v44h8v-29.8C51.2 165.5 72.2 176 96 176c44.1 0 80-35.9 80-80s-35.9-80-80-80z" fill="rgba(0,0,0,1)"/><g><path d="M48.4 89.1c1.9-5.8 6.1-8.8 12.4-8.8 6.9 0 11.5 3.8 11.5 9.4 0 3.3-1.7 5.6-5.4 7.1 4.2 1.4 6.2 4 6.2 8 0 6.2-4.9 10.2-12.7 10.2-4.1 0-7.5-1.1-9.9-3.2-1.9-1.6-2.9-3.3-3.5-6.2l6.5-1.6c1 3.6 3.1 5.2 6.6 5.2 3.4 0 5.5-1.8 5.5-4.8 0-2.9-2-4.5-5.5-4.5H57v-5.3h2.9c3.2 0 5-1.6 5-4.3 0-2.6-1.7-4.2-4.4-4.2-2.9 0-4.8 1.5-6.1 4.7l-6-1.7zM95.3 89.7c-1.6-2.7-2.8-3.6-5-3.6-4 0-6.4 3.6-6.8 10.5 1.7-2.7 4.3-4.1 7.8-4.1 6.2 0 10.4 4.4 10.4 10.9 0 6.9-4.8 11.6-12.1 11.6-4 0-7.3-1.5-9.7-4.4-2.4-2.9-3.5-6.8-3.5-12.1 0-11 5.5-18.1 14-18.1 4.6 0 7.9 1.9 10.2 6l-5.3 3.3zm-11.2 13.8c0 3.5 2.1 5.8 5.2 5.8s5.2-2.3 5.2-5.7-2.1-5.7-5.2-5.7c-3 0-5.2 2.3-5.2 5.6zM129.9 97.6c0 4.8-1.1 9.1-3.2 12.4-2 3.2-5.5 5-9.4 5-7.9 0-12.7-6.7-12.7-17.6 0-4.6 1.2-9.1 3.2-12.1 2.1-3.2 5.5-5 9.5-5 7.7 0 12.6 6.7 12.6 17.3zm-17.8-.1c0 7.6 1.8 11.7 5.1 11.7 3.2 0 5-4.2 5-11.6 0-7.3-1.8-11.5-5.1-11.5-3.1 0-5 4.2-5 11.4zM151 88.7c0 4.9-3.7 8.6-8.6 8.6-4.9 0-8.5-3.6-8.5-8.4 0-4.9 3.6-8.6 8.7-8.6 4.8 0 8.4 3.6 8.4 8.4zm-12 0c0 2.8 1.3 4.5 3.5 4.5 2.1 0 3.4-1.6 3.4-4.3 0-2.6-1.4-4.4-3.4-4.4-2.2-.1-3.5 1.5-3.5 4.2z" fill="rgba(0,0,0,1)"/></g></svg>
