<?xml version="1.0" encoding="UTF-8"?>
<svg xmlns="http://www.w3.org/2000/svg" viewBox="0 0 192 192"><path d="M63.6 121.7c5.2.8 10.7 1.3 16.3 1.7l.5-8c-5.4-.4-10.7-.9-15.7-1.7l-1.1 8zM38.9 116c4.9 1.7 10.4 3.1 16.5 4.3l1.5-7.9c-5.7-1.1-10.9-2.5-15.5-4l-2.5 7.6z" fill="rgba(0,0,0,1)"/><path d="M176 96c0-18.2-41.2-28-79.9-28-34 0-63.3 6.8-74.6 17.4-1.5 1.4-2.7 2.9-3.5 4.4-1.1 2-1.7 4.1-1.7 6.3 0 4.4 2.5 10.8 14.2 16.5l3.5-7.2c-6.2-3.1-9.8-6.5-9.8-9.4 0-.7.2-1.5.7-2.3.5-.8 1.1-1.6 2-2.5C36.5 82.3 65 76 96.1 76c44.5 0 71.9 11.6 71.9 20 0 7.7-23.4 18.3-62.1 19.8l17-17-5.7-5.7L90.3 120l26.8 26.8 5.7-5.7-17.4-17.4c35.8-1.3 70.6-11 70.6-27.7z" fill="rgba(0,0,0,1)"/></svg>
