<?xml version="1.0" encoding="UTF-8"?>
<svg xmlns="http://www.w3.org/2000/svg" viewBox="0 0 192 192"><path d="M115.5 80.4l8-.5c-.4-5.6-1-11.1-1.7-16.3l-7.9 1.2c.7 4.9 1.2 10.2 1.6 15.6zM112.5 56.9l7.9-1.5c-1.2-6.1-2.6-11.7-4.3-16.5l-7.6 2.6c1.5 4.4 2.9 9.6 4 15.4z" fill="rgba(0,0,0,1)"/><path d="M146.8 117.2L120 90.3l-26.8 26.8 5.7 5.7 17-17c-1.6 38.7-12.1 62-19.8 62-8.4 0-20-27.4-20-71.9 0-31.1 6.3-59.6 15.2-69.2.8-.9 1.7-1.6 2.5-2 .8-.5 1.6-.7 2.3-.7 2.9 0 6.3 3.6 9.4 9.8l7.2-3.5c-5.8-11.8-12.2-14.2-16.5-14.2-2.1 0-4.2.6-6.3 1.7-1.5.9-3 2.1-4.4 3.5C74.8 32.7 68 62 68 96c0 38.7 9.8 79.9 28 79.9 16.7 0 26.3-34.8 27.8-70.4l17.4 17.4 5.6-5.7z" fill="rgba(0,0,0,1)"/></svg>
