<?xml version="1.0" encoding="UTF-8"?>
<svg xmlns="http://www.w3.org/2000/svg" viewBox="0 0 192 192"><path d="M111.9 127.4l7.9 1.1c.7-5.2 1.2-10.7 1.6-16.3l-8-.5c-.4 5.4-.9 10.7-1.5 15.7zM107 150.7l7.6 2.4c1.5-4.9 2.8-10.4 3.9-16.5l-7.9-1.4c-1 5.7-2.2 11-3.6 15.5z" fill="rgba(0,0,0,1)"/><path d="M96 167.9c-.7 0-1.5-.2-2.3-.7-.8-.5-1.6-1.1-2.5-2-9-9.6-15.2-38-15.2-69.2 0-44.5 11.6-71.9 20-71.9 7.7 0 18.2 23.4 19.8 62.1l-17-17-5.7 5.7 26.8 26.8 26.8-26.8-5.7-5.7-17.4 17.4c-1.5-35.7-11.1-70.5-27.8-70.5-18.2 0-28 41.2-28 79.9 0 34 6.8 63.3 17.4 74.6 1.4 1.5 2.9 2.7 4.4 3.5 2 1.1 4.1 1.7 6.3 1.7 4.4 0 10.8-2.5 16.5-14.2l-7.2-3.5c-2.9 6.2-6.3 9.8-9.2 9.8z" fill="rgba(0,0,0,1)"/></svg>
