<?xml version="1.0" encoding="UTF-8"?>
<svg xmlns="http://www.w3.org/2000/svg" viewBox="0 0 192 192"><path d="M88.4 24.4l-.8-8c-7.6.8-15.1 2.7-22.1 5.6l3.1 7.4c6.3-2.6 13-4.3 19.8-5zM61.9 32.6l-3.8-7c-7 3.8-13.4 8.5-18.9 14.2l5.7 5.6c5-5.1 10.7-9.4 17-12.8zM40.2 50.5l-6.2-5c-4.9 6.1-9 12.8-11.9 20l7.4 3.1C32.1 62 35.7 56 40.2 50.5zM16 96h8c0-7.1 1-14.1 3.1-20.8l-7.7-2.3C17.1 80.3 16 88.1 16 96zM96 16v8c39.7 0 72 32.3 72 72s-32.3 72-72 72c-21.8 0-41-9.9-54.7-28H72v-8H28v44h8v-29.8C51.2 165.5 72.2 176 96 176c44.1 0 80-35.9 80-80s-35.9-80-80-80z" fill="rgba(0,0,0,1)"/></svg>
