<?xml version="1.0" encoding="UTF-8"?>
<svg xmlns="http://www.w3.org/2000/svg" viewBox="0 0 192 192"><path d="M68 112V68h-8v44H32v48h144v-48H68zm100 40H40v-32h128v32z" fill="rgba(0,0,0,1)"/><path d="M48 132h8v8h-8zM64 132h8v8h-8zM80 132h8v8h-8zM152 132h8v8h-8zM81 85.1l5.7 5.7c6-6 9.4-14.1 9.4-22.6s-3.3-16.6-9.4-22.6L81 51.1c4.5 4.5 7 10.6 7 17s-2.5 12.5-7 17zM41.4 90.7l5.7-5.7c-4.5-4.5-7-10.6-7-17s2.5-12.4 7-17l-5.7-5.7c-6 6-9.4 14.1-9.4 22.6s3.3 16.8 9.4 22.8z" fill="rgba(0,0,0,1)"/><path d="M92.3 96.4l5.7 5.7c9-9.1 14-21.2 14-34s-5-24.9-14.1-33.9l-5.7 5.7c7.6 7.6 11.7 17.6 11.7 28.3s-4.1 20.6-11.6 28.2zM24 68.1c0-10.7 4.2-20.7 11.7-28.3L30 34.1c-9 9.1-14 21.2-14 34S21 93 30.1 102l5.7-5.7C28.2 88.8 24 78.8 24 68.1z" fill="rgba(0,0,0,1)"/></svg>
