<?xml version="1.0" encoding="UTF-8"?>
<svg xmlns="http://www.w3.org/2000/svg" viewBox="0 0 192 192"><path d="M100.1 52h-8c0-12.5 3.7-24.7 10.6-35.1l6.7 4.4c-6.1 9.2-9.3 19.8-9.3 30.7zm45.6 103.1l2.4-3.5-3.6-2.2c-16.2-10-23.8-22.3-23.8-38.6 0-16.6 8.2-32.1 22-41.5l3-2.1-1.8-3.2-.2-.4C138.5 56.4 130 52 121 52c-5 0-9.9 1.3-14.2 3.9l-.4.2C103.3 58 99.7 59 96 59c-3.6 0-7.2-1-10.3-2.8l-.4-.2C81 53.4 76 52 71 52c-8.8 0-17.2 4.2-22.5 11.3l-3.2 3.2 4.1 2.7c14 9.3 22.3 24.9 22.3 41.6 0 15.4-6.7 26.9-21.7 37.2l-3.1 2.1 1.9 3.2c5.1 8.4 14.3 13.6 24 13.6 5 0 9.9-1.3 14.2-3.9l.4-.2c3.1-1.9 6.7-2.9 10.4-2.9 3.6 0 7.2 1 10.3 2.8l.4.2c4.3 2.6 9.3 3.9 14.3 3.9 9.2.2 17.7-4.2 22.9-11.7zM97.9 152c-5.1 0-10.1 1.4-14.5 4l-.4.2c-3.1 1.8-6.6 2.8-10.2 2.8-5.7 0-11.2-2.5-14.9-6.8 14.8-11.3 21.8-24.5 21.8-41.4 0-17.9-8.2-34.7-22.2-45.6C61.2 61.9 66 60 71 60c3.6 0 7.2 1 10.2 2.8l.4.2c4.4 2.6 9.3 4 14.4 4s10.1-1.4 14.5-4l.4-.2c3.1-1.8 6.6-2.8 10.2-2.8 5.1 0 10 2 13.7 5.4-13.8 11-21.9 27.6-21.9 45.4 0 17.7 7.8 31.8 23.7 42.8-3.6 3.4-8.5 5.3-13.6 5.3-3.6 0-7.2-1-10.2-2.8l-.4-.2c-4.5-2.5-9.5-3.9-14.5-3.9zm4.1 16h-8v8h8v-8z" fill="rgba(0,0,0,1)"/></svg>
