<?xml version="1.0" encoding="UTF-8"?>
<svg xmlns="http://www.w3.org/2000/svg" viewBox="0 0 192 192"><path d="M58.5 114.4c1.2.4 2.6.5 4.1.5 8.5 0 21.5-5 25.3-11.5 3.3-5.7-.9-12.8-11.7-20.1 1.3-2.1 2.8-4.3 4.5-6.5 3.9 3.6 8.6 6 12.9 7.9l3.1-7.4c-4.3-1.8-8-3.9-10.8-6.6 1.9-1.9 3.9-3.8 6.1-5.7 5.2 5.8 12.6 9.2 19.9 11.8l2.6-7.6c-6.7-2.3-12.2-5.1-16.1-9.1 2.7-1.8 5.5-3.4 8.6-4.9 3.5 4 7.9 6.5 12.2 8.6l3.5-7.2c-3.1-1.5-5.6-3-7.7-4.8 3.5-1.2 7.2-2.2 11.1-3 1.8 6 6.5 13.3 10.9 15.8 1.3.8 2.7 1.1 4 1.1 1.3 0 2.5-.4 3.6-1.1 4.5-3.1 2.5-9 1.2-12.9-.5-1.4-1.2-3.4-1.1-4.2 0-.9.7-2.8 1.3-4.4 1.5-4.3 3.6-10.1-.5-13.7-2-1.8-4.9-2.2-7.8-1-4.5 1.8-9.4 7.3-11.3 12.2-5.5.9-10.9 2.4-16.1 4.4-.8-2.1-1.4-4.6-1.5-7.5l-8 .5c.2 4 1 7.4 2.2 10.3-3 1.5-5.9 3.2-8.7 5-1.7-4.3-2.2-9.7-1.2-16.6l-7.9-1.1c-1.3 9.6-.2 16.9 2.5 22.5-2.2 1.8-4.4 3.7-6.4 5.7-1.2-2.9-1.9-6.4-1.8-10.6l-8-.1c-.1 7.1 1.5 12.7 4.1 17-2.3 2.8-4.3 5.7-6.2 8.7-10.9-6-17.7-6.8-19.9-6.2-1.5.4-2.6 1.2-3.3 2.4-3.9 6.7-1.8 17.9 1.2 25.5 1.6 4.7 5.3 12.1 11.1 13.9zm81.3-77.8c-.3 1.3-.9 3.1-1.3 4.2-.8 2.4-1.6 4.6-1.7 6.7-.1 2.3.7 4.8 1.6 7.2.1.2.2.5.3.8-2.5-3.2-5.2-8.5-5-10.6.1-2.3 3.8-6.7 6.1-8.3zM52.5 80.8c2.9.5 9.4 3 16.7 7.4 9.6 5.9 12 10.2 11.8 11.1-2.5 4.3-15.8 8.7-20.1 7.4-1.2-.4-3.8-3-6.1-8.8-2.5-6.2-3.3-13.2-2.3-17.1z" fill="rgba(0,0,0,1)"/><path d="M59.4 94.2c1.3.8 3.1.3 3.8-1 .8-1.3.3-3.1-1-3.8-1.3-.8-3.1-.3-3.8 1-.8 1.3-.4 3 1 3.8z" fill="rgba(0,0,0,1)"/><path d="M155.9 32v120c0 8.9-8 15.9-18.3 15.9H54.3c-10 0-18.1-7.4-18.1-16.6V32h-8.3v119.3c0 13.7 11.8 24.9 26.4 24.9h83.3c14.9 0 26.6-10.6 26.6-24.1V32h-8.3z" fill="rgba(0,0,0,1)"/></svg>
