<?xml version="1.0" encoding="UTF-8"?>
<svg xmlns="http://www.w3.org/2000/svg" viewBox="0 0 192 192"><path d="M125.9 38.3l-6.4-4.5c6-8.6 12-12.3 19.7-15.3l2.9 7.3c-7.8 3-11.9 6.2-16.2 12.5zM100.2 124c-4.4 0-8.7-1.3-12.4-3.9-3.2-2.2-5.7-5.3-7.4-8.8l-.2-.3c-1-2.3-2.7-4.3-4.7-5.7-2.1-1.5-4.5-2.3-7.1-2.5H68c-3.8-.3-7.5-1.6-10.7-3.8-6.2-4.3-9.7-11.7-9.2-19.3l.2-3.7h4c13 0 21.6-4 27.9-13.1 6.9-9.9 8.4-22.6 3.9-33.9l-1.8-4.5 4.5-.7c6.5-2.1 13.6-1.1 19.2 2.8 3.2 2.2 5.7 5.3 7.4 8.8l.2.3c1 2.3 2.7 4.3 4.7 5.7 2.1 1.5 4.5 2.3 7.1 2.5h.4c3.8.3 7.5 1.6 10.7 3.8 5.7 4 9.2 10.5 9.3 17.5v.2l-.4 3.8h-3.5c-12.1-.2-23.3 5.6-30.2 15.5-6.7 9.6-7.3 20-1.8 32.7l1.7 3.8-3.9 1.4c-2.5.9-5 1.4-7.5 1.4zm-12.8-16.3l.2.3c1 2.3 2.7 4.2 4.7 5.7 2.6 1.8 5.6 2.6 8.7 2.5-4.6-13.3-3.2-25.1 4.2-35.8 7.5-10.8 19.3-17.5 32.2-18.7-.9-3-2.8-5.7-5.4-7.5-2-1.4-4.4-2.3-6.9-2.5h-.3c-3.9-.3-7.7-1.6-11-3.8-3.2-2.2-5.8-5.3-7.4-8.8l-.2-.3c-1-2.3-2.7-4.2-4.7-5.7-2.6-1.8-5.6-2.6-8.7-2.5 3.5 12.5 1.3 26-6.2 36.9C79.5 77.8 69.7 83 56.1 83.8c.7 3.6 2.6 6.7 5.7 8.8 2 1.4 4.4 2.3 6.9 2.5h.3c3.9.3 7.7 1.6 11 3.8 3.2 2.2 5.7 5.2 7.4 8.8zM63.275 114.5l4.817-6.385 6.227 4.697-4.817 6.386z" fill="rgba(0,0,0,1)"/><path d="M137.6 176.1H54.3c-14.6 0-26.4-11.2-26.4-24.9V32h8.3v119.3c0 9.1 8.1 16.6 18.1 16.6h83.3c10.3 0 18.3-7 18.3-15.9V32h8.3v120c-.1 13.5-11.7 24.1-26.6 24.1z" fill="rgba(0,0,0,1)"/></svg>
