<?xml version="1.0" encoding="UTF-8"?>
<svg xmlns="http://www.w3.org/2000/svg" viewBox="0 0 192 192"><path d="M50.9 107.334l1.39-7.879 43.33 7.643-1.389 7.878zM54.7 83.9l-1.4 7.9 26.6 4.7 1.4-7.9" fill="rgba(0,0,0,1)"/><path d="M155.6 74.8l-.8-2.2-78.9-13.2.1 14c-7.2-3.3-13.6-8.5-13.6-8.6l-1.3-1-1.6.1c-1 .1-10.2 1.2-19.8 13.9-10.7 14-7.5 31.7-6 35.6 2.1 5.7 9.5 7.9 10.9 8.2h.2l94.1 16.6c2.7 1.1 5.5 1.7 8.3 1.7h1.2c5-.3 9-2.6 11.7-6.6 10.3-15.4-3-54.2-4.5-58.5zM41.2 110.7c-.9-2.4-3.5-17 4.9-28.1 5.5-7.2 10.5-9.6 12.8-10.4 3.1 2.3 10.3 7.4 17.8 10.1 15 5.3 36.6 7.9 49.2 9-2.9 5.9-4.3 14.6-4.1 21.9.2 5.2 1.9 10.4 4.9 14.9l-80.2-14.2c-2.2-.7-4.9-2.1-5.3-3.2zM135.1 92c1.6.9 3.6 7.1 4.5 14.8l-9.3-2.2c1-6.8 3.3-11.9 4.8-12.6zm18.4 37c-1.3 1.9-3 2.9-5.5 3-3.9.2-7.9-1.3-11.2-4.4-4.1-3.8-6.8-9.4-6.9-14.7v-.2l18.4 4.3-.2-5.2c-.3-7.5-2-25.3-11-27.6-.7-.2-1.4-.2-2.1-.2-6.1-.4-32.3-2.4-50.8-7.7l-.2-7.5 64.8 10.8c1.2 3.6 3.5 11.2 5.2 19.5 2.8 14.4 2.7 25-.5 29.9z" fill="rgba(0,0,0,1)"/></svg>
