<?xml version="1.0" encoding="UTF-8"?>
<svg xmlns="http://www.w3.org/2000/svg" viewBox="0 0 192 192"><circle cx="44" cy="64" r="4" fill="rgba(0,0,0,1)"/><path d="M172.2 116.1c-5.3-4.2-15.8-6.2-22.8-4.7-6-7.4-12.9-14-20.5-19.7 2.2-2.9 5.2-5.7 9.2-8.3l-4.4-6.7c-5 3.3-8.7 6.8-11.3 10.4-4.6-3-9.5-5.7-14.5-8.1 4.2-5.8 10.9-11.1 21.3-15.3l-3-7.4c-12.9 5.2-21 12-25.9 19.5-4-1.6-8.1-2.9-12.2-4 2.9-4.5 7.2-8.7 13.7-12.3l-3.9-7c-9 5-14.5 11-17.9 17.4-5.3-1-10.7-1.6-16.1-1.8-.1-11-1.6-25.7-6-30.2-1.5-1.5-3.1-1.9-4.2-1.9C44 36 32 45.5 24.5 55c-3.9 4.9-10.2 14.3-8.4 21.9C18.5 87.4 36.9 104 49 104c8.5 0 13.7-9.9 14.8-27.9 4.2.2 8.7.7 13.3 1.5-2.2 7.8-1.9 15.8-1 22.9l7.9-1c-.8-6.8-1-13.8.9-20.3 3.9 1 8 2.2 12 3.8-4 10.7-3.1 22.5-1 33.7l7.9-1.5c-1.8-9.6-3-19.8.5-29.1 4.8 2.2 9.6 4.9 14.3 7.9-3.1 7.5-3 15.1-2.5 22.2l8-.6c-.5-6.5-.3-12 1.3-16.9 6 4.6 11.8 10.1 17 16.5-6.2 5.8-12.4 17.5-12.4 24.6 0 5 2.7 7 4.3 7.8 1.1.5 2.2.8 3.2.8 4.5 0 8.3-4.4 11.5-8 1.7-1.9 3.6-4.1 4.9-4.8 1.4-.7 4.2-1.2 6.8-1.7 6.2-1.1 13.9-2.6 15.2-9 .4-1.9.4-5.5-3.7-8.8zM56 71.9C55.6 83.6 53.1 96 49 96c-8 0-23.5-13.9-25.1-20.9-.6-2.5 1.3-8.2 6.9-15.2 6.8-8.5 15.9-15.1 21.8-15.9 1.5 3.1 3.7 14 3.4 27.9zM159.2 126c-3.4.6-6.6 1.2-9.1 2.5-2.6 1.3-4.9 3.9-7.2 6.6-1.3 1.5-3.7 4.2-5 5-.5-4.1 6.9-18.2 11.8-20.5 1-.5 2.6-.7 4.5-.7 3.2 0 7.3.7 10.5 2 2.3 1 3.2 1.9 3.3 2.3-.2.8-3.2 1.7-8.8 2.8z" fill="rgba(0,0,0,1)"/></svg>
