<?xml version="1.0" encoding="UTF-8"?>
<svg xmlns="http://www.w3.org/2000/svg" viewBox="0 0 192 192"><path d="M137.6 176.1H54.3c-14.6 0-26.4-11.2-26.4-24.9V32h8.3v119.3c0 9.1 8.1 16.6 18.1 16.6h83.3c10.3 0 18.3-7 18.3-15.9V32h8.3v120c-.1 13.5-11.7 24.1-26.6 24.1zM76.5 92.6l-6.4-4.8-7.7 10.4 6.4 4.8 7.7-10.4zm-2 14.6l6.4 4.8 22.6-30.4-6.4-4.8-22.6 30.4zm72.2-57.7c-1.1 2.6-3 5-5.5 6.9l-49.6 66.3-.2.2c-.9.9-5.2 5-10.1 5-.3 0-.7 0-1-.1-4.1-.5-20.6-5.1-27.2-18.9-5.8-12.1-5.4-20.6-5.4-21l.1-2.5 2.2-1c.1 0 5.9-2.7 11-6.6l-13.2-6.5 44-55.3 2.3.3c4.5.6 43.7 6.6 52 21.4 2.1 3.9 2.3 7.9.6 11.8zM60.2 68.6l7 3.5c13-13.7 28-35.7 28.1-35.9.1-.1.2-.3.3-.4 5.5-6.3 20-.6 26 2.1l4.7 2.2-10.4 12.5c4.4 1.8 10.6 1.8 15.8-.2 3.7-1.4 6.3-3.6 7.4-6.1.7-1.6.6-3-.2-4.5-4.6-8.2-28.5-14.6-43.9-17.1L60.2 68.6zM102 41c.4 1.5 3.1 4.6 7.1 7.6l4.4-5.3c-5.2-1.9-9.9-2.8-11.5-2.3zm25.2 20.8c-5.3.6-10.8-.1-15-2.1-5.7-2.7-11.8-7.1-15.3-11.7-6.4 8.9-17.6 23.8-27.4 33.2-4.5 4.4-10.5 7.7-13.8 9.4.3 2.8 1.3 8.1 4.5 14.8 5 10.4 18.5 14.1 21 14.4.8.1 2.8-1.1 4.2-2.4l41.8-55.6z" fill="rgba(0,0,0,1)"/></svg>
