<?xml version="1.0" encoding="UTF-8"?>
<svg xmlns="http://www.w3.org/2000/svg" viewBox="0 0 192 192"><path d="M48 132h-8c0 11 9 20 20 20v-8c-6.6 0-12-5.4-12-12z" fill="rgba(0,0,0,1)"/><path d="M32 132h-8c0 19.9 16.1 36 36 36v-8c-15.4 0-28-12.6-28-28zM136 94.3l-10 10-6.3-6.3 16-16L110 56.3l-16 16-6.3-6.3 10-10L60 18.3 34.3 44 72 81.7l10-10 6.3 6.3-14.7 14.7c-8.7-1.1-17.8 1.7-24.5 8.4l-2.8 2.8 18 18-7.2 7.2 5.7 5.7 7.2-7.2 18 18 2.8-2.8c6.7-6.7 9.5-15.8 8.4-24.5l14.7-14.7 6.3 6.3-10 10 37.7 37.7 25.7-25.7L136 94.3zM45.7 44L60 29.7 86.3 56 72 70.3 45.7 44zm42.1 90.1l-29.9-29.9c8.4-5.7 19.9-4.9 27.3 2.6s8.3 18.9 2.6 27.3zm3.1-33c-2.5-2.5-5.4-4.5-8.4-5.9L110 67.7 124.3 82l-27.6 27.6c-1.4-3.1-3.3-5.9-5.8-8.5zm30.8 18.9l14.3-14.3 26.3 26.3-14.3 14.3-26.3-26.3z" fill="rgba(0,0,0,1)"/></svg>
