<?xml version="1.0" encoding="UTF-8"?>
<svg xmlns="http://www.w3.org/2000/svg" viewBox="0 0 192 192"><path d="M157.8 52h2.2v-8h-48.5c-1.8-6.9-8-12-15.5-12s-13.7 5.1-15.5 12H32v8h2.2L16 103.3v.7c0 13.2 10.8 24 24 24s24-10.8 24-24v-.7L45.7 52h34.9C82 57.6 86.4 62 92 63.5V152H52v8h88v-8h-40V63.5c5.6-1.5 10-5.9 11.5-11.5h34.9L128 103.3v.7c0 13.2 10.8 24 24 24s24-10.8 24-24v-.7L157.8 52zM40 59.8L54.3 100H25.7L40 59.8zm0 60.2c-7.4 0-13.7-5.1-15.5-12h31c-1.8 6.9-8.1 12-15.5 12zm56-64c-4.4 0-8-3.6-8-8s3.6-8 8-8 8 3.6 8 8-3.6 8-8 8zm56 3.8l14.3 40.2h-28.7L152 59.8zm0 60.2c-7.4 0-13.7-5.1-15.5-12h31c-1.8 6.9-8.1 12-15.5 12z" fill="rgba(0,0,0,1)"/></svg>
