<?xml version="1.0" encoding="UTF-8"?>
<svg xmlns="http://www.w3.org/2000/svg" viewBox="0 0 192 192"><path d="M157.1 53.7L143.8 42c-1-5.7-6-10-12.1-10H60.2c-6.1 0-11.1 4.3-12.1 10L34.9 53.7C31 57.1 28 63.8 28 69.1v53.8c0 5.3 3 12 6.9 15.4L48.2 150c1 5.7 6 10 12.1 10h71.5c6.1 0 11.1-4.3 12.1-10l13.3-11.6c3.9-3.5 6.9-10.1 6.9-15.4V69.1c-.1-5.3-3.1-12-7-15.4zM36 122.9V69.1c0-3 2-7.5 4.2-9.4l7.8-6.9v86.3l-7.8-6.9c-2.2-1.8-4.2-6.3-4.2-9.3zM136 148c0 2.2-1.9 4-4.2 4H60.2c-2.3 0-4.2-1.8-4.2-4V44c0-2.2 1.9-4 4.2-4h71.5c2.3 0 4.2 1.8 4.2 4v104zm20-25.1c0 3-2 7.5-4.2 9.4l-7.8 6.9V52.8l7.8 6.9c2.2 1.9 4.2 6.4 4.2 9.4v53.8z" fill="rgba(0,0,0,1)"/><path d="M112 80H80c-6.8 0-12-5.3-12-12.4v-3.2C68 57.3 73.2 52 80 52h32c6.8 0 12 5.3 12 12.4v3.2c0 7.1-5.2 12.4-12 12.4zM80 60c-2.8 0-4 2.2-4 4.4v3.2c0 2.2 1.2 4.4 4 4.4h32c2.8 0 4-2.2 4-4.4v-3.2c0-2.2-1.2-4.4-4-4.4H80zM112 140H80c-7 0-12-5-12-12v-28c0-7 5-12 12-12h32c7 0 12 5 12 12v28c0 7-5 12-12 12zM80 96c-2.5 0-4 1.5-4 4v28c0 2.5 1.5 4 4 4h32c2.5 0 4-1.5 4-4v-28c0-2.5-1.5-4-4-4H80z" fill="rgba(0,0,0,1)"/></svg>
