<?xml version="1.0" encoding="UTF-8"?>
<svg xmlns="http://www.w3.org/2000/svg" viewBox="0 0 192 192"><path d="M156 120c-11 0-20 9-20 20s9 20 20 20 20-9 20-20-9-20-20-20zm0 32c-6.6 0-12-5.4-12-12s5.4-12 12-12 12 5.4 12 12-5.4 12-12 12z" fill="rgba(0,0,0,1)"/><path d="M156 112c6.9 0 10.4.8 13.6 3.2l4.8-6.4c-4.7-3.5-9.8-4.6-15.9-4.8l-10-20h7.5v-8h-11.5l-6-12H120v8h10.3l-4.4 12.1c-5 13.7-17.8 29.4-34.2 31.9H88V88H51v8h-3c-17.6 0-32 14.4-32 32v8h4.4c-.3 1.3-.4 2.7-.4 4 0 11 9 20 20 20 8.2 0 15.2-4.9 18.3-12H116c5.8 0 10.7-4.2 11.7-10 2.6-15.6 14-26 28.3-26zM40 152c-6.6 0-12-5.4-12-12 0-1.4.3-2.7.7-4H52v4c0 6.6-5.4 12-12 12zm79.8-15.3c-.3 1.9-1.9 3.3-3.8 3.3H60v-12H24c0-13.2 10.8-24 24-24h32v20h12.6c14.4-2.1 32.6-14.3 40.9-37.2l3.2-8.7 13.2 26.4c-15.3 2.7-27.2 15.2-30.1 32.2z" fill="rgba(0,0,0,1)"/></svg>
