<?xml version="1.0" encoding="UTF-8"?>
<svg xmlns="http://www.w3.org/2000/svg" viewBox="0 0 192 192"><path d="M155.9 155.5l4-6.9-3.2-1.8c.2-.9.3-1.8.3-2.7 0-1-.1-1.9-.3-2.8l3.1-1.8-4-6.9-3.1 1.8c-1.3-1.2-2.9-2.1-4.7-2.7V128h-8v3.6c-1.8.6-3.3 1.5-4.7 2.7l-3.1-1.8-4 6.9 3.1 1.8c-.2.9-.3 1.8-.3 2.7 0 1 .1 1.9.3 2.8l-3.1 1.8 4 6.9 3.1-1.8c1.3 1.2 2.9 2.1 4.7 2.7v3.6h8v-3.6c1.8-.6 3.3-1.5 4.7-2.7l3.2 1.9zM144 149c-2.8 0-5-2.2-5-5s2.2-5 5-5 5 2.2 5 5-2.2 5-5 5z" fill="rgba(0,0,0,1)"/><path d="M144 176c-17.6 0-32-14.4-32-32s14.4-32 32-32 32 14.4 32 32-14.4 32-32 32zm0-56c-13.2 0-24 10.8-24 24s10.8 24 24 24 24-10.8 24-24-10.8-24-24-24z" fill="rgba(0,0,0,1)"/><path d="M66.3 144l12-20h31.1c1.7-2.9 3.7-5.6 6.1-8H32V48h128v59.3c2.9 1.3 5.5 2.8 8 4.7V48h8V24h-76v-8h-8v8H16v24h8v76h44.9l-32.4 53.9 6.9 4.1 18-30.1h43.3c-.5-2.6-.8-5.3-.8-8H66.3v.1zM24 32h144v8H24v-8z" fill="rgba(0,0,0,1)"/></svg>
