<?xml version="1.0" encoding="UTF-8"?>
<svg xmlns="http://www.w3.org/2000/svg" viewBox="0 0 192 192"><path d="M136 176H56c-6.6 0-12-5.4-12-12V80h8v-8h-8V28c0-6.6 5.4-12 12-12h59.7L148 48.3V164c0 6.6-5.4 12-12 12zM52 88v76c0 2.2 1.8 4 4 4h80c2.2 0 4-1.8 4-4V51.7L112.3 24H56c-2.2 0-4 1.8-4 4v36h8v24h-8z" fill="rgba(0,0,0,1)"/><path d="M60 36h8v16h-8zM76 36h8v16h-8zM92 36h8v16h-8zM108 36h8v16h-8zM124 52h8v16h-8zM73.8 138.2c1.3 3.1 3.3 4.4 6.6 4.4 3.4 0 5.4-1.4 5.4-3.7 0-2-1.1-2.8-5.5-3.8-4.8-1.1-6.2-1.6-7.6-2.5-2.3-1.5-3.4-3.5-3.4-6.4 0-5.7 4-9.2 10.7-9.2 5.5 0 9.3 2.1 11.6 6.2l-5.4 2.6c-1.5-2.6-3.1-3.5-6.1-3.5-2.7 0-4.3 1.2-4.3 3.2 0 1.9 1.3 2.8 5.2 3.5 4.1.8 6.3 1.6 7.9 2.6 2.4 1.6 3.5 3.7 3.5 6.9 0 6.1-4.2 9.4-11.9 9.4-6.3 0-10.2-2.2-12.5-7.2l5.8-2.5zM97.8 117.3H109c9.5 0 15 5.5 15 14.9 0 9.6-5.6 15.1-15.2 15.1h-11v-30zm11.3 24.8c5.1 0 7.9-3.4 7.9-9.7 0-6.3-2.8-9.7-7.9-9.7h-4.5v19.4h4.5z" fill="rgba(0,0,0,1)"/></svg>
