<?xml version="1.0" encoding="UTF-8"?>
<svg xmlns="http://www.w3.org/2000/svg" viewBox="0 0 192 192"><path d="M153.2 133.2l5.7 5.7-18.9 18.8-10.8-10.8 5.7-5.7 5.2 5.2 13.1-13.2zM176 144c0 17.6-14.4 32-32 32s-32-14.4-32-32 14.4-32 32-32 32 14.4 32 32zm-8 0c0-13.2-10.8-24-24-24s-24 10.8-24 24 10.8 24 24 24 24-10.8 24-24zm-63.1 8.2c.3 1.3.6 2.6 1 3.9-6.3 2.6-13 3.9-19.9 3.9-29.8 0-54-24.9-54-55.5V39.4l54-23.8 54 23.8v64.8c-1.4.1-2.7.3-4 .6-1.4.3-2.7.6-4 1-16.2 5.1-28 20.3-28 38.1 0 1.4.1 2.8.2 4.1.2 1.5.4 2.9.7 4.2zM86 24.4L40 44.7v59.9c0 26.2 20.6 47.5 46 47.5V24.4z" fill="rgba(0,0,0,1)"/></svg>
