<?xml version="1.0" encoding="UTF-8"?>
<svg xmlns="http://www.w3.org/2000/svg" viewBox="0 0 192 192"><path d="M96 15.65L36 41.36V116c0 33.65 26.35 60 60 60s60-26.35 60-60V41.36zm-52 31l52-22.3 48.75 20.9L47.48 135A53.25 53.25 0 0 1 44 116zM96 168a51.47 51.47 0 0 1-44.9-25.42L148 53.14V116a51.45 51.45 0 0 1-52 52z" fill="rgba(0,0,0,1)"/><path d="M60.29 77.49A4 4 0 0 0 64 80a3.91 3.91 0 0 0 1.49-.29 4 4 0 0 0 2.22-5.2l-8-20a4 4 0 0 0-7.42 3zM80 72a3.91 3.91 0 0 0 1.49-.29l20-8a4 4 0 0 0-3-7.42l-20 8A4 4 0 0 0 80 72zM52.8 106.4a4 4 0 0 0 5.6.8l16-12a4 4 0 1 0-4.8-6.4l-16 12a4 4 0 0 0-.8 5.6zM90.21 43.58l16 8A4.12 4.12 0 0 0 108 52a4 4 0 0 0 1.79-7.58l-16-8a4 4 0 0 0-3.58 7.16zM109.6 107.2l16 12a4 4 0 1 0 4.8-6.4l-16-12a4 4 0 0 0-4.8 6.4zM134.29 77.06l-13 12a4 4 0 1 0 5.42 5.88l13-12a4 4 0 0 0-5.42-5.88zM74.83 137.17a4 4 0 0 0-5.66 5.66l12 12a4 4 0 1 0 5.66-5.66zM95.58 133.79l8-16a4 4 0 1 0-7.16-3.58l-8 16a4 4 0 0 0 1.79 5.37A4.12 4.12 0 0 0 92 136a4 4 0 0 0 3.58-2.21zM130.27 135.7l-16-11a4 4 0 1 0-4.54 6.6l16 11a4.07 4.07 0 0 0 2.27.7 4 4 0 0 0 2.27-7.3zM110.21 144.42l-16 8A4 4 0 0 0 96 160a4.12 4.12 0 0 0 1.79-.42l16-8a4 4 0 1 0-3.58-7.16z" fill="rgba(0,0,0,1)"/></svg>
