<?xml version="1.0" encoding="UTF-8"?>
<svg xmlns="http://www.w3.org/2000/svg" viewBox="0 0 192 192"><path d="M96 15.6L36 42v72.4c0 33.9 26.9 61.5 60 61.5s60-27.6 60-61.5V42L96 15.6zm-52 98.9V47.3l52-22.9V56c13.3 0 24.1 10.7 24.1 23.7 0 8.1-4.2 15.3-10.5 19.6 13.1 5.3 22.3 18 22.3 32.7h-8c0-15.1-12.6-27.4-28-27.4V168C67.3 168 44 144 44 114.5z" fill="rgba(0,0,0,1)"/><path d="M71.9 79.7c0 8.1 4.2 15.3 10.5 19.6-13.2 5.3-22.4 18-22.4 32.7h8c0-15.1 12.6-27.4 28-27.4v-9.2c-8.9 0-16.1-7.1-16.1-15.7S87.1 64 96 64v-8c-13.3 0-24.1 10.7-24.1 23.7zM112.1 79.7C112.1 71 104.9 64 96 64v31.5c8.9 0 16.1-7.1 16.1-15.8z" fill="rgba(0,0,0,1)"/></svg>
