<?xml version="1.0" encoding="UTF-8"?>
<svg xmlns="http://www.w3.org/2000/svg" viewBox="0 0 192 192"><path d="M96 15.65L36 41.36V116c0 33.65 26.35 60 60 60s60-26.35 60-60V41.36zM44 116V46.64l52-22.29 48.75 20.9L47.48 135A53.25 53.25 0 0 1 44 116zm104 0a51.45 51.45 0 0 1-52 52 51.47 51.47 0 0 1-44.9-25.42L148 53.14z" fill="rgba(0,0,0,1)"/><path d="M128.67 110.22l6.66-4.44-3.86-5.78H140v-8h-8.53l3.86-5.78-6.61-4.41-.05-.03-.12.18L121.86 92h-4.18l-8.67 8h12.85l6.81 10.22zM63.33 81.78l-6.66 4.44L60.53 92H52v8h8.53l-3.86 5.78 6.23 4.15 1.61-1.48 5.63-8.45h3.52l8.67-8H70.14l-6.81-10.22zM91.98 60.6l-7.17-3.55-3.08 6.23-4.27-7.38-6.92 4 4.26 7.38-6.94-.45-.51 7.98 12.26.8 7.12 12.33 6.02-5.56-6.22-10.77 5.45-11.01zM100.02 131.4l7.17 3.55 3.08-6.23 4.27 7.38 6.92-4-4.26-7.38 6.94.45.51-7.98-12.26-.8-7.35-12.73-6.02 5.56 6.45 11.17-5.45 11.01zM114.54 55.9l-4.27 7.38-3.08-6.23-7.17 3.55 5.12 10.34 13.64-12.59-4.24-2.45zM81.73 128.72l3.08 6.23 7.17-3.55-5.33-10.76-13.84 12.78 4.65 2.68 4.27-7.38z" fill="rgba(0,0,0,1)"/></svg>
