<?xml version="1.0" encoding="UTF-8"?>
<svg xmlns="http://www.w3.org/2000/svg" viewBox="0 0 192 192"><path d="M56 92.3c-11.3 1.9-20 11.8-20 23.7v16c0 11-9 20-20 20v8c15.4 0 28-12.6 28-28v-16c0-7.4 5.1-13.7 12-15.5V120h80V72H56v20.3zM64 80h64v32H64V80zm112 16c0 9.9-3.1 19.1-8.8 26.5l-6.3-4.9c4.7-6 7.2-13.4 7.2-21.5s-2.5-15.5-7.2-21.5l6.3-4.9c5.7 7.2 8.8 16.4 8.8 26.3zm-24.8-14.4c3.1 4.2 4.8 9.2 4.8 14.4s-1.7 10.2-4.8 14.4l-6.4-4.8c2.1-2.8 3.2-6.1 3.2-9.6s-1.1-6.8-3.2-9.6l6.4-4.8z" fill="rgba(0,0,0,1)"/></svg>
