<?xml version="1.0" encoding="UTF-8"?>
<svg xmlns="http://www.w3.org/2000/svg" viewBox="0 0 192 192"><path d="M124 83.9c-5.3 0-9.7 3.4-11.4 8.1H66.7l-7-17.5C59.1 73 57.6 72 56 72s-3.1 1-3.7 2.5L40 105.2l-4.3-10.7C35.1 93 33.6 92 32 92H16v8h13.3l7 17.5c.6 1.5 2.1 2.5 3.7 2.5s3.1-1 3.7-2.5L56 86.8l4.3 10.7c.6 1.5 2.1 2.5 3.7 2.5h48.6c1.7 4.7 6.1 8.1 11.4 8.1 6.7 0 12.1-5.4 12.1-12.1s-5.4-12.1-12.1-12.1zm0 16.2c-2.2 0-4.1-1.8-4.1-4.1s1.8-4.1 4.1-4.1 4.1 1.8 4.1 4.1-1.9 4.1-4.1 4.1z" fill="rgba(0,0,0,1)"/><path d="M124 64c-13 0-24.8 8.1-29.7 20h8.9c4.2-7.3 12.1-12 20.8-12 13.2 0 24 10.8 24 24s-10.8 24-24 24c-8.6 0-16.5-4.7-20.8-12h-8.9c4.8 11.9 16.6 20 29.7 20 17.6 0 32-14.4 32-32s-14.4-32-32-32z" fill="rgba(0,0,0,1)"/><path d="M124 44c-24.4 0-45.1 16.6-50.6 40h8.3C86.9 65.2 104 52 124 52c24.3 0 44 19.7 44 44s-19.7 44-44 44c-20 0-37.1-13.2-42.3-32h-8.3c5.5 23.4 26.2 40 50.6 40 28.7 0 52-23.3 52-52s-23.3-52-52-52z" fill="rgba(0,0,0,1)"/></svg>
