<?xml version="1.0" encoding="UTF-8"?>
<svg xmlns="http://www.w3.org/2000/svg" viewBox="0 0 192 192"><path d="M96 160v-8c30.9 0 56-25.1 56-56s-25.1-56-56-56v-8c35.3 0 64 28.7 64 64s-28.7 64-64 64zm40-64c0-22.1-17.9-40-40-40v8c17.6 0 32 14.4 32 32s-14.4 32-32 32v8c22.1 0 40-17.9 40-40zm-24 0c0-8.8-7.2-16-16-16v8c4.4 0 8 3.6 8 8s-3.6 8-8 8v8c8.8 0 16-7.2 16-16zm-24 0c0 8.8-7.2 16-16 16v34.5c0 7.4-6.2 13.5-13.8 13.5H32V32h26.2C65.8 32 72 38.1 72 45.5V80c8.8 0 16 7.2 16 16zM64 45.5c0-3-2.6-5.5-5.8-5.5H40v112h18.2c3.2 0 5.8-2.5 5.8-5.5v-101zM80 96c0-4.4-3.6-8-8-8v16c4.4 0 8-3.6 8-8z" fill="rgba(0,0,0,1)"/></svg>
