<?xml version="1.0" encoding="UTF-8"?>
<svg xmlns="http://www.w3.org/2000/svg" viewBox="0 0 192 192"><path d="M56 156h-8v-8h8v8zm16-8h-8v8h8v-8zM56 92h-8v8h8v-8zm16 0h-8v8h8v-8zm88-76H32v48h128V16zM40 24h112v32H40V24zm16 12h-8v8h8v-8zm16 0h-8v8h8v-8zm80 96c0-11-9-20-20-20s-20 9-20 20 9 20 20 20 20-9 20-20zm-8 0c0 6.6-5.4 12-12 12s-12-5.4-12-12 5.4-12 12-12 12 5.4 12 12zm-5.1 43.4l2.6-.4 2.5-9.5c1.1-.4 2.1-.8 3.2-1.3l8.5 5 2.1-1.5c3.8-2.7 7.1-6 9.8-9.8l1.5-2.1-5-8.5c.5-1 .9-2.1 1.3-3.2l9.5-2.5.4-2.6c.4-2.3.5-4.6.5-6.9 0-2.3-.2-4.6-.6-6.9l-.4-2.6-9.5-2.5c-.4-1.1-.8-2.1-1.3-3.2l5-8.5-1.5-2.1c-2.7-3.8-6-7.1-9.8-9.8l-2.1-1.5-8.5 5c-1-.5-2.1-.9-3.2-1.3l-2.5-9.5-2.6-.4c-4.6-.7-9.3-.7-13.9 0l-2.6.4-2.5 9.5c-1.1.4-2.1.8-3.2 1.3l-8.5-5-2.1 1.5c-3.8 2.7-7.1 6-9.8 9.8l-1.5 2.1 5 8.5c-.5 1-.9 2.1-1.3 3.2l-9.5 2.5-.4 2.6c-.4 2.3-.6 4.6-.6 6.9 0 2.3.2 4.6.5 6.9l.4 2.6 9.5 2.5c.4 1.1.8 2.1 1.3 3.2l-5 8.5 1.5 2.1c2.7 3.8 6 7.1 9.8 9.8l2.1 1.5 8.5-5c1 .5 2.1.9 3.2 1.3l2.5 9.5 2.6.4c2.3.4 4.6.6 6.9.6s4.9-.2 7.2-.6zm-12.3-16.3l-2.2-.6c-2-.6-3.9-1.4-5.8-2.4l-2-1.1-7.8 4.6a30.5 30.5 0 0 1-4.4-4.4l4.6-7.8-1.1-2c-1-1.8-1.8-3.8-2.4-5.8l-.6-2.2-8.7-2.3c-.1-1-.1-2.1-.1-3.1s0-2.1.1-3.1l8.7-2.3.6-2.2c.6-2 1.4-3.9 2.4-5.8l1.1-2-4.6-7.8c1.3-1.6 2.8-3.1 4.4-4.4l7.8 4.6 2-1.1c1.8-1 3.8-1.8 5.8-2.4l2.2-.6 2.3-8.7c2.1-.2 4.2-.2 6.3 0l2.3 8.7 2.2.6c2 .6 3.9 1.4 5.8 2.4l2 1.1 7.8-4.6c1.6 1.3 3.1 2.8 4.4 4.4l-4.6 7.8 1.1 2c1 1.8 1.8 3.8 2.4 5.8l.6 2.2 8.7 2.3c.1 1 .1 2.1.1 3.1s0 2.1-.1 3.1l-8.7 2.3-.6 2.2c-.6 2-1.4 3.9-2.4 5.8l-1.1 2 4.6 7.8a30.5 30.5 0 0 1-4.4 4.4l-7.8-4.6-2 1.1c-1.8 1-3.8 1.8-5.8 2.4l-2.2.6-2.3 8.7c-2.1.2-4.2.2-6.3 0l-2.3-8.7zM83.2 112H40V80h112v3l8 5.1V72H32v48h49.3l1.9-8zm18.3 62.1c-2.5-1.8-4.9-3.9-7-6.1H40v-32h40.2c-.1-1.3-.1-6.7 0-8H32v48h72.1l-2.6-1.9zm58.4 1.9h.1v-.1l-.1.1z" fill="rgba(0,0,0,1)"/></svg>
