<?xml version="1.0" encoding="UTF-8"?>
<svg xmlns="http://www.w3.org/2000/svg" viewBox="0 0 192 192"><path d="M48 148h8v8h-8v-8zm16 8h8v-8h-8v8zM56 36h-8v8h8v-8zm16 0h-8v8h8v-8zm36.2 54.5l-5.7 5.7 15.8 15.8H72v8h46.3l-15.8 15.8 5.7 5.7 25.5-25.5-25.5-25.5zm-18.7 5.3L73.7 80H120v-8H73.7l15.8-15.8-5.7-5.7L58.3 76l25.5 25.5 5.7-5.7zM32 16v48h27l8-8H40V24h112v32h-51l-8 8h67V16H32zm96 56v8h24v32h-11l4 4-4 4h19V72h-32zm-64 40H40V80h11l-4-4 4-4H32v48h32v-8zm69 16l-8 8h27v32H40v-32h51l8-8H32v48h128v-48h-27z" fill="rgba(0,0,0,1)"/></svg>
