<?xml version="1.0" encoding="UTF-8"?>
<svg xmlns="http://www.w3.org/2000/svg" viewBox="0 0 192 192"><path d="M136 100H92V44h8v48h36z" fill="rgba(0,0,0,1)"/><path d="M96 176c-4.2 0-8.4-.3-12.6-1l-2.6-.4-4.6-17.7c-3.1-1-6.2-2.3-9.1-3.8l-15.8 9.3-2.1-1.5A80 80 0 0 1 31.3 143l-1.5-2.1 9.3-15.8c-1.5-3-2.8-6-3.8-9.2l-17.7-4.6-.4-2.6c-.7-4.2-1-8.4-1-12.6s.3-8.4 1-12.6l.4-2.6 17.7-4.6c1-3.1 2.3-6.2 3.8-9.1l-9.3-15.8 1.5-2.1a80 80 0 0 1 17.9-17.9l2.1-1.5 15.7 9c3-1.5 6-2.8 9.2-3.8l4.6-17.7 2.6-.4c8.4-1.3 16.9-1.3 25.3 0l2.6.4 4.6 17.7c3.1 1 6.2 2.3 9.1 3.8l15.8-9.3 2.1 1.5A80 80 0 0 1 160.8 49l1.5 2.1-9.2 15.9c1.5 3 2.8 6 3.8 9.2l17.7 4.6.4 2.6c.7 4.2 1 8.4 1 12.6s-.3 8.4-1 12.6l-.4 2.6-17.7 4.6c-1 3.1-2.3 6.2-3.8 9.1l9.3 15.8-1.5 2.1a80 80 0 0 1-17.9 17.9l-2.1 1.5-15.8-9.3c-3 1.5-6 2.8-9.2 3.8l-4.6 17.7-2.6.4c-4.3.9-8.5 1.2-12.7 1.2zm-8.8-8.5c5.9.7 11.7.7 17.6 0l4.4-17 2.2-.6c4.1-1.2 8-2.8 11.7-4.9l2-1.1 15.2 8.9c4.6-3.6 8.8-7.8 12.5-12.5l-8.9-15.2 1.1-2c2.1-3.7 3.7-7.6 4.9-11.7l.6-2.2 17-4.4c.4-2.9.5-5.9.5-8.8 0-2.9-.2-5.9-.5-8.8l-17-4.4-.6-2.2c-1.2-4.1-2.8-8-4.9-11.7l-1.1-2 8.9-15.2c-3.6-4.6-7.8-8.8-12.5-12.5l-15.2 8.9-2-1.1c-3.7-2.1-7.6-3.7-11.7-4.9l-2.2-.6-4.4-17c-5.9-.7-11.7-.7-17.6 0l-4.4 17-2.2.6c-4.1 1.2-8 2.8-11.7 4.9l-2 1.1-15.2-8.9c-4.6 3.6-8.8 7.8-12.5 12.5l8.9 15.2-1.1 2c-2.1 3.7-3.7 7.6-4.9 11.7l-.6 2.2-17 4.4c-.3 2.9-.5 5.9-.5 8.8 0 2.9.2 5.9.5 8.8l17 4.4.6 2.2c1.2 4.1 2.8 8 4.9 11.7l1.1 2-8.9 15.2c3.6 4.6 7.8 8.8 12.5 12.5l15.2-8.9 2 1.1c3.7 2.1 7.6 3.7 11.7 4.9l2.2.6 4.4 17z" fill="rgba(0,0,0,1)"/></svg>
