<?xml version="1.0" encoding="UTF-8"?>
<svg xmlns="http://www.w3.org/2000/svg" viewBox="0 0 192 192"><path d="M48 148h8v8h-8zM160 64H32V16h128v48zM40 56h112V24H40v32z" fill="rgba(0,0,0,1)"/><path d="M48 36h8v8h-8zM64 36h8v8h-8zM48 92h8v8h-8zM64 92h8v8h-8zM96 176c-1.8 0-3.3-1.2-3.8-2.9L81 136H64v-8h20c1.8 0 3.3 1.2 3.8 2.9l8 26.7 16.3-58.4c.5-1.6 1.9-2.8 3.6-2.9 1.7-.1 3.3.9 3.9 2.4l15.6 37.3 4.9-17c.4-1.5 1.7-2.6 3.2-2.9 1.5-.2 3.1.4 3.9 1.7L154 128h22v8h-24c-1.3 0-2.6-.7-3.3-1.8l-3.2-4.8-5.6 19.7c-.5 1.6-1.9 2.8-3.6 2.9-1.7.1-3.3-.9-3.9-2.4l-15.6-37.2-16.9 60.7c-.5 1.7-2.1 2.9-3.9 2.9z" fill="rgba(0,0,0,1)"/><g><path d="M160 72H32v48h66l2.2-8H40V80h112v30.4l6.4 9.6h1.6z" fill="rgba(0,0,0,1)"/></g><g><path d="M40 168v-32h16v-8H32v48h52.7l-2.4-8z" fill="rgba(0,0,0,1)"/></g></svg>
