<?xml version="1.0" encoding="UTF-8"?>
<svg xmlns="http://www.w3.org/2000/svg" viewBox="0 0 192 192"><path d="M170.7 81.3c-7-7-18.4-7-25.4 0l-55 55-12.7 38.1 38.1-12.7 55-55c7-7 7-18.4 0-25.4zm-80.4 80.4l5.3-15.9 10.6 10.6-15.9 5.3zm74.8-60.7l-51.5 51.5-14.1-14.1L151 86.9c3.9-3.8 10.2-3.8 14.1 0 3.9 3.9 3.9 10.2 0 14.1zm5.6-19.7c-7-7-18.4-7-25.4 0l-55 55-12.7 38.1 38.1-12.7 55-55c7-7 7-18.4 0-25.4zm-80.4 80.4l5.3-15.9 10.6 10.6-15.9 5.3zm74.8-60.7l-51.5 51.5-14.1-14.1L151 86.9c3.9-3.8 10.2-3.8 14.1 0 3.9 3.9 3.9 10.2 0 14.1zM67 153.1l-15.8 9.3-2.1-1.5A80 80 0 0 1 31.2 143l-1.5-2.1 9.3-15.8c-1.5-3-2.8-6-3.8-9.2l-17.7-4.6-.4-2.6c-.7-4.2-1-8.4-1-12.6s.3-8.4 1-12.6l.4-2.6 17.7-4.6c1-3.1 2.3-6.2 3.8-9.1l-9.3-15.8 1.5-2.1a80 80 0 0 1 17.9-17.9l2.1-1.5 15.8 9c3-1.5 6-2.8 9.2-3.8l4.6-17.7 2.6-.4c8.4-1.3 16.9-1.3 25.3 0l2.6.4 4.6 17.7c3.1 1 6.2 2.3 9.1 3.8l15.8-9.3 2.1 1.5A80 80 0 0 1 160.8 49l1.5 2.1-9.2 15.9c.2.5.4.9.7 1.4-2.7.4-5.3 1.3-7.7 2.6-.3-.7-.7-1.4-1.1-2.1l-1.1-2 8.9-15.2c-3.6-4.6-7.8-8.8-12.5-12.5l-15.2 8.9-2-1.1c-3.7-2.1-7.6-3.7-11.7-4.9l-2.2-.6-4.4-17c-5.9-.7-11.7-.7-17.6 0l-4.4 17-2.2.6c-4.1 1.2-8 2.8-11.7 4.9l-2 1.1-15.2-8.9c-4.6 3.6-8.8 7.8-12.5 12.5l8.9 15.2-1.1 2c-2.1 3.7-3.7 7.6-4.9 11.7l-.6 2.2-17 4.4c-.3 2.9-.5 5.9-.5 8.8 0 2.9.2 5.9.5 8.8l17 4.4.6 2.2c1.2 4.1 2.8 8 4.9 11.7l1.1 2-8.9 15.2c3.6 4.6 7.8 8.8 12.5 12.5l15.2-8.9 2 1.1c2.8 1.6 5.8 2.9 8.8 4l-2.5 7.6c-2.8-1-5.6-2.2-8.2-3.5zM64 96c0-17.6 14.4-32 32-32 15 0 27.6 10.3 31 24.2l-7.1 7.1C119.6 82.4 109 72 96 72c-13.2 0-24 10.8-24 24 0 13 10.4 23.6 23.3 24l-7.1 7.1C74.3 123.6 64 111 64 96z" fill="rgba(0,0,0,1)"/></svg>
