<?xml version="1.0" encoding="UTF-8"?>
<svg xmlns="http://www.w3.org/2000/svg" viewBox="0 0 192 192"><path d="M96 128.5c-17.9 0-32.5-14.6-32.5-32.5S78.1 63.5 96 63.5s32.5 14.6 32.5 32.5-14.6 32.5-32.5 32.5zm0-57c-13.5 0-24.5 11-24.5 24.5s11 24.5 24.5 24.5 24.5-11 24.5-24.5-11-24.5-24.5-24.5z" fill="rgba(0,0,0,1)"/><circle cx="56" cy="52" r="4" fill="rgba(0,0,0,1)"/><path d="M64.5 43.5C62.2 41.2 59.2 40 56 40s-6.2 1.2-8.5 3.5l-5.7-5.7C45.6 34.1 50.7 32 56 32s10.4 2.1 14.1 5.9l-5.6 5.6z" fill="rgba(0,0,0,1)"/><path d="M75.8 32.2c-10.9-10.9-28.7-10.9-39.6 0l-5.7-5.7c14-14 36.9-14 50.9 0l-5.6 5.7z" fill="rgba(0,0,0,1)"/><path d="M175 83.4l-.4-2.6-17.7-4.6c-1-3.2-2.3-6.2-3.8-9.2l9.3-15.8-1.5-2.1A80 80 0 0 0 143 31.2l-2.1-1.5-15.9 9.2c-2.9-1.5-6-2.8-9.1-3.8l-4.6-17.7-2.6-.4c-5.1-.8-10.2-1.1-15.3-.9 2.4 2.5 4.5 5.2 6.4 8 1.7.1 3.4.2 5.1.4l4.4 17 2.2.6c4.1 1.2 8 2.8 11.7 4.9l2 1.1 15.2-8.9c4.6 3.6 8.8 7.8 12.5 12.5L144 66.9l1.1 2c2.1 3.7 3.7 7.7 4.9 11.7l.6 2.2 17 4.4c.4 2.9.5 5.9.5 8.8 0 2.9-.2 5.9-.5 8.8l-17 4.4-.6 2.2c-1.2 4.1-2.8 8-4.9 11.7l-1.1 2 8.9 15.2c-3.6 4.6-7.8 8.8-12.5 12.5l-15.2-8.9-2 1.1c-3.7 2.1-7.7 3.7-11.7 4.9l-2.2.6-4.4 17c-5.9.7-11.7.7-17.6 0l-4.4-17-2.2-.6c-4.1-1.2-8-2.8-11.7-4.9l-2-1.1-15.2 8.9c-4.6-3.6-8.8-7.8-12.5-12.5l8.9-15.2-1.1-2c-2.1-3.7-3.7-7.7-4.9-11.7l-.6-2.2-17-4.4c-.4-2.9-.5-5.9-.5-8.8 0-2.9.2-5.9.5-8.8l17-4.4.6-2.2c.7-2.6 1.7-5.1 2.8-7.6-1.6-.9-3.1-2.1-4.5-3.4-.6-.6-1.2-1.3-1.8-2-1.4 2.8-2.6 5.7-3.5 8.6l-17.7 4.6-.5 2.6c-.7 4.2-1 8.4-1 12.6s.3 8.4 1 12.6l.4 2.6 17.7 4.6c1 3.2 2.3 6.2 3.8 9.2l-9.3 15.8 1.5 2.1A80 80 0 0 0 49 160.8l2.1 1.5 15.8-9.3c2.9 1.5 6 2.8 9.1 3.8l4.6 17.7 2.6.4c4.2.7 8.4 1 12.6 1s8.4-.3 12.6-1l2.6-.4 4.6-17.7c3.2-1 6.2-2.3 9.2-3.8l15.8 9.3 2.1-1.5a80 80 0 0 0 17.9-17.9l1.5-2.1-9.3-15.8c1.5-2.9 2.8-6 3.8-9.1l17.7-4.6.4-2.6c.7-4.2 1-8.4 1-12.6s0-8.5-.7-12.7z" fill="rgba(0,0,0,1)"/></svg>
