<?xml version="1.0" encoding="UTF-8"?>
<svg xmlns="http://www.w3.org/2000/svg" viewBox="0 0 192 192"><path d="M24 96h-8c0-44.1 35.9-80 80-80 26.2 0 49 12.7 64.3 35.8l-6.7 4.4C139.9 35.4 119.4 24 96 24c-39.7 0-72 32.3-72 72z" fill="rgba(0,0,0,1)"/><path d="M164 60h-28v-8h20V32h8zM96 176c-26.2 0-49-12.7-64.3-35.8l6.7-4.4C52.1 156.6 72.6 168 96 168c39.7 0 72-32.3 72-72h8c0 44.1-35.9 80-80 80z" fill="rgba(0,0,0,1)"/><path d="M36 160h-8v-28h28v8H36z" fill="rgba(0,0,0,1)"/><circle fill="none" cx="96" cy="96" r="14"/><path d="M96 74c-12.1 0-22 9.9-22 22s9.9 22 22 22 22-9.9 22-22-9.9-22-22-22zm0 36c-7.7 0-14-6.3-14-14s6.3-14 14-14 14 6.3 14 14-6.3 14-14 14z" fill="rgba(0,0,0,1)"/><path d="M147.3 87.8l-.4-2.6-11.4-2.9c-.5-1.5-1.2-3.1-1.9-4.5l1-1.7h-9.3l-.9 1.6 1.1 2c1.3 2.3 2.2 4.6 2.9 7.1l.6 2.2 10.6 2.7c.1 1.5.2 2.9.2 4.4 0 1.5-.1 2.9-.2 4.4l-10.6 2.8-.6 2.2c-.7 2.5-1.7 4.8-2.9 7.1l-1.1 2 5.5 9.4c-1.9 2.3-3.9 4.4-6.2 6.2l-9.4-5.5-2 1.1c-2.3 1.3-4.6 2.2-7.1 2.9l-2.2.6-2.7 10.6c-2.9.3-5.8.3-8.8 0l-2.8-10.6-2.2-.6c-2.5-.7-4.8-1.7-7.1-2.9l-2-1.1-5.6 3.3v9.3l5.7-3.4c1.5.7 3 1.3 4.5 1.9l3 11.4 2.6.4c2.7.4 5.5.7 8.2.7 2.7 0 5.5-.2 8.2-.7l2.6-.4 2.9-11.4c1.5-.5 3-1.2 4.5-1.9l10.1 5.9 2.1-1.5c4.5-3.2 8.4-7.1 11.6-11.6l1.5-2.1-5.9-10.1c.7-1.5 1.3-3 1.9-4.5l11.4-3 .4-2.6c.4-2.7.7-5.5.7-8.2.2-2.9 0-5.7-.5-8.4zM67.5 114.4l-1.1-2c-1.3-2.3-2.2-4.6-2.9-7.1l-.6-2.2-10.6-2.7c-.2-1.5-.3-2.9-.3-4.4 0-1.5.1-2.9.2-4.4l10.6-2.8.6-2.2c.7-2.5 1.7-4.8 2.9-7.1l1.1-2-5.5-9.4c1.9-2.3 3.9-4.4 6.2-6.2l9.4 5.5 2-1.1c2.3-1.3 4.6-2.2 7.1-2.9l2.2-.6 2.7-10.6c2.9-.3 5.8-.3 8.8 0l2.8 10.6 2.2.6c2.5.7 4.8 1.7 7.1 2.9l2 1.1 5.6-3.3v-9.3l-5.7 3.4c-1.5-.7-3-1.3-4.5-1.9l-3-11.4-2.6-.4c-5.4-.9-11-.9-16.4 0l-2.6.4-2.9 11.4c-1.5.5-3 1.2-4.5 1.9l-10.1-5.9-2.1 1.5C61 57.1 57.1 61 53.9 65.5l-1.5 2.1 5.9 10.1c-.7 1.5-1.3 3-1.9 4.5l-11.4 3-.4 2.6c-.4 2.7-.6 5.5-.6 8.2 0 2.7.2 5.5.7 8.2l.4 2.6 11.4 2.9c.5 1.5 1.2 3.1 1.9 4.5l-3.4 5.7h9.3l3.2-5.5z" fill="rgba(0,0,0,1)"/></svg>
