<?xml version="1.0" encoding="UTF-8"?>
<svg xmlns="http://www.w3.org/2000/svg" viewBox="0 0 192 192"><path d="M175 83.4l-.4-2.6-17.7-4.6c-1-3.2-2.3-6.2-3.8-9.2l9.3-15.8-1.5-2.1A80 80 0 0 0 143 31.2l-2.1-1.5-15.9 9.2c-2.9-1.5-6-2.8-9.1-3.8l-4.6-17.7-2.6-.4c-8.4-1.3-16.9-1.3-25.3 0l-2.6.4-4.6 17.7c-3.2 1-6.2 2.3-9.2 3.8l-15.8-9.3-2.1 1.5A80 80 0 0 0 31.2 49l-1.5 2.1L38.9 67c-1.5 2.9-2.8 6-3.8 9.1l-17.7 4.6-.4 2.7c-.7 4.2-1 8.4-1 12.6s.3 8.4 1 12.6l.4 2.6 17.7 4.6c1 3.2 2.3 6.2 3.8 9.2l-9.3 15.8 1.5 2.1A80 80 0 0 0 49 160.8l2.1 1.5 15.8-9.3c2.9 1.5 6 2.8 9.1 3.8l4.6 17.7 2.6.4c4.2.7 8.4 1 12.6 1s8.4-.3 12.6-1l2.6-.4 4.6-17.7c3.2-1 6.2-2.3 9.2-3.8l15.8 9.3 2.1-1.5a80 80 0 0 0 17.9-17.9l1.5-2.1-9.3-15.8c1.5-2.9 2.8-6 3.8-9.1l17.7-4.6.4-2.6c.7-4.2 1-8.4 1-12.6s0-8.5-.7-12.7zm-7.5 21.4l-17 4.4-.6 2.2c-1.2 4.1-2.8 8-4.9 11.7l-1.1 2 8.9 15.2c-3.6 4.6-7.8 8.8-12.5 12.5l-15.2-8.9-2 1.1c-3.7 2.1-7.7 3.7-11.7 4.9l-2.2.6-4.4 17c-5.9.7-11.7.7-17.6 0l-4.4-17-2.2-.6c-4.1-1.2-8-2.8-11.7-4.9l-2-1.1-15.2 8.9c-4.6-3.6-8.8-7.8-12.5-12.5l8.9-15.2-1.1-2c-2.1-3.7-3.7-7.7-4.9-11.7l-.6-2.2-17-4.4c-.4-2.9-.5-5.9-.5-8.8 0-2.9.2-5.9.5-8.8l17-4.4.6-2.2c1.2-4.1 2.8-8 4.9-11.7l1.1-2-8.9-15.2c3.6-4.6 7.8-8.8 12.5-12.5l15.2 8.9 2-1.1c3.7-2.1 7.7-3.7 11.7-4.9l2.2-.6 4.4-17c5.9-.7 11.7-.7 17.6 0l4.4 17 2.2.6c4.1 1.2 8 2.8 11.7 4.9l2 1.1 15.2-8.9c4.6 3.6 8.8 7.8 12.5 12.5l-8.9 15.2 1.1 2c2.1 3.7 3.7 7.7 4.9 11.7l.6 2.2 17 4.4c.4 2.9.5 5.9.5 8.8 0 2.9-.2 5.9-.5 8.8z" fill="rgba(0,0,0,1)"/><path d="M120 77.1C120 65.5 109.2 56 96 56s-24 9.5-24 21.1V80h-8v56h64V80h-8v-2.9zm-40 0C80 69.9 87.2 64 96 64s16 5.9 16 13.1V80H80v-2.9zm40 50.9H72V88h48v40z" fill="rgba(0,0,0,1)"/><path d="M92 110.9v9.1h8v-9.1c2.4-1.4 4-4 4-6.9 0-4.4-3.6-8-8-8s-8 3.6-8 8c0 3 1.6 5.5 4 6.9z" fill="rgba(0,0,0,1)"/></svg>
