<?xml version="1.0" encoding="UTF-8"?>
<svg xmlns="http://www.w3.org/2000/svg" viewBox="0 0 192 192"><path d="M116 88c8.8 0 16-7.2 16-16s-7.2-16-16-16-16 7.2-16 16c0 1.1.1 2.3.4 3.3L80 85.5c-2.9-3.4-7.2-5.5-12-5.5-8.8 0-16 7.2-16 16s7.2 16 16 16c4.8 0 9.1-2.1 12-5.5l20.3 10.2c-.2 1.1-.4 2.2-.4 3.3 0 8.8 7.2 16 16 16s16-7.2 16-16-7.2-16-16-16c-4.8 0-9.1 2.1-12 5.5L83.6 99.3c.2-1.1.4-2.2.4-3.3s-.1-2.3-.4-3.3L104 82.5c2.9 3.4 7.2 5.5 12 5.5zm0 24c4.4 0 8 3.6 8 8s-3.6 8-8 8-8-3.6-8-8 3.6-8 8-8zm-48-8c-4.4 0-8-3.6-8-8s3.6-8 8-8 8 3.6 8 8-3.6 8-8 8zm48-40c4.4 0 8 3.6 8 8s-3.6 8-8 8-8-3.6-8-8 3.6-8 8-8z" fill="rgba(0,0,0,1)"/><path d="M96 16c-44.1 0-80 35.9-80 80s35.9 80 80 80 80-35.9 80-80-35.9-80-80-80zm0 152c-39.7 0-72-32.3-72-72s32.3-72 72-72 72 32.3 72 72-32.3 72-72 72z" fill="rgba(0,0,0,1)"/></svg>
