<?xml version="1.0" encoding="UTF-8"?>
<svg xmlns="http://www.w3.org/2000/svg" viewBox="0 0 192 192"><path d="M174 58.2l-7 1.9c-.8.2-17.6 5-25.2 22.6-20.2-8.1-36.4-10.6-37-10.7-6-1-5.8-16.5-4.7-23.4l1.2-7.6-6.9 3.5c-16.9 8.4-23.3 22.1-25.3 28-19.6 2.8-38.7 10.4-47.2 16.3l-2.4 1.7.8 2.8c4.7 15.6 19.3 33.7 45.4 34.8 3.3 5.8 13.5 20.5 33.8 24l9.5 1.6-5.5-7.9c-.1-.1-5-7.3-6.8-17.8 6.3-.2 16.4-1 23.6-3.7l14.4 4.8 4.7-14.2 3.2-1.6c7.3 10.7 19.9 14.4 20.4 14.6l6.9 2-2-6.9c0-.1-3.8-13.6-3.8-22.9 0-7.7 5.6-27.8 7.8-34.8l2.1-7.1zM158.2 117c-3.7-2.2-8-5.7-10.6-10.8l-1.8-3.6-13.1 6.5-3.3 9.8-9.6-3.2-1.4.6c-6.3 2.7-17.8 3.7-26.4 3.7h-4.3l.3 4.3c.5 6.9 2.3 12.8 4.2 17.3-14.3-6-20.2-18.6-20.5-19.2l-1.1-2.4H68c-12.1 0-21.4-4.3-28.1-10.2l4.1-4.1 5.2 5.2c.8.7 1.8 1.1 2.8 1.1s2-.4 2.8-1.2l8-8-5.7-5.7-5.2 5.2-5.2-5.2c-1.6-1.6-4.1-1.6-5.7 0l-6.7 6.7c-2.5-3.3-4.4-6.7-5.7-10.2 8.3-4.8 25.4-11.5 43.7-13.7l2.8-.3.6-2.8c0-.1 2.9-12.3 15.5-21.4-.2 9.1 1.3 22.7 12.1 24.5.2 0 18 2.7 39 11.7l4.1 1.7 1.3-4.2c2.9-9.3 9-14.8 13.9-17.9-2.3 8.8-5.6 22-5.6 28.8 0 5.5 1.1 12 2.2 17z" fill="rgba(0,0,0,1)"/></svg>
