<?xml version="1.0" encoding="UTF-8"?>
<svg xmlns="http://www.w3.org/2000/svg" viewBox="0 0 192 192"><path d="M132.3 32H59.7L23.4 96l36.3 64h72.7l36.3-64-36.4-64zm-4.6 120H64.3L32.6 96l31.7-56h63.3l31.7 56-31.6 56z" fill="rgba(0,0,0,1)"/><path d="M65.2 94.7c-1.6-1-3.3-1.5-7.4-2.3-2.8-.6-3.8-1.2-3.8-2.5 0-1.4 1.1-2.1 3.3-2.1 2.3 0 3.6.7 4.8 2.6l5.7-3c-2.2-3.6-5.7-5.4-10.6-5.4-6.2 0-10 3.3-10 8.6 0 3.1 1.1 5.3 3.6 6.6 1.6.9 3 1.3 6.9 2.1 2.7.5 3.7 1.2 3.7 2.5 0 1.5-1.4 2.4-3.9 2.4-2.7 0-4.4-1-5.4-3.2l-6.1 3c2.2 4 6 6 11.7 6 6.9 0 10.7-3.1 10.7-8.9.1-3-.9-5-3.2-6.4zM70.5 88.4h7.1v21.1h7.3V88.4H92v-6H70.5zM106.9 82c-3.8 0-6.7 1.1-9.1 3.3-2.7 2.5-4.2 6.3-4.2 10.7 0 8.3 5.3 14 13.1 14s13.1-5.7 13.1-14-5.2-14-12.9-14zm-.2 22c-3.6 0-5.6-2.8-5.6-8 0-5.3 1.9-8 5.7-8 3.5 0 5.5 2.8 5.5 8s-1.9 8-5.6 8zM135.9 82.4H124v27.1h7.3v-9.2h5c6 0 9.6-3.3 9.6-8.8 0-5.7-3.7-9.1-10-9.1zm-.6 12.5h-4V88h4c2.3 0 3.6 1.2 3.6 3.4s-1.3 3.5-3.6 3.5z" fill="rgba(0,0,0,1)"/></svg>
