<?xml version="1.0" encoding="UTF-8"?>
<svg xmlns="http://www.w3.org/2000/svg" viewBox="0 0 192 192"><circle cx="96" cy="68" r="8" fill="rgba(0,0,0,1)"/><path d="M166.1 148.3c-2.7-4.6-9.3-7.6-16.8-7.6s-14 3-16.8 7.6c-.6 1-2.2 2.1-4.4 2.8l21.3-49.6-25.4-8.4V44h-16V24H84v20H68v49.1l-25.4 8.5 21.3 49.6c-2.2-.7-3.8-1.8-4.4-2.8-2.7-4.6-9.3-7.6-16.8-7.6s-14 3-16.8 7.6c-1.1 1.8-4.9 3.7-9.9 3.7v8c7.5 0 14-3 16.8-7.6 1.1-1.8 4.9-3.7 9.9-3.7s8.8 1.9 9.9 3.7c2.7 4.6 9.3 7.6 16.8 7.6s14-3 16.8-7.6c1.1-1.8 4.9-3.7 9.9-3.7s8.8 1.9 9.9 3.7c2.7 4.6 9.3 7.6 16.8 7.6s14-3 16.8-7.6c1.1-1.8 4.9-3.7 9.9-3.7s8.8 1.9 9.9 3.7c2.7 4.6 9.3 7.6 16.8 7.6v-8c-5.2-.1-9-2-10.1-3.8zM92 32h8v12h-8V32zM76 52h40v38.5l-20-6.7-20 6.7V52zm36.8 96.3c-2.7-4.6-9.3-7.6-16.8-7.6s-14 3-16.8 7.6c-.8 1.3-3.2 2.7-6.4 3.3l-19.4-45.3L96 92.2l42.6 14.2-19.4 45.3c-3.3-.6-5.6-2-6.4-3.4z" fill="rgba(0,0,0,1)"/></svg>
