<?xml version="1.0" encoding="UTF-8"?>
<svg xmlns="http://www.w3.org/2000/svg" viewBox="0 0 192 192"><path d="M166.1 148.3c-1.9-3.2-5.6-5.6-10.2-6.8l18.2-41.6H148V60h-12V44h-24v16h-12v36H40v16H15.5l4.4 39.6c-1.2.3-2.5.4-3.9.4v8c7.5 0 14-3 16.8-7.6 1.1-1.8 4.9-3.7 9.9-3.7s8.8 1.9 9.9 3.7c2.7 4.6 9.3 7.6 16.8 7.6s14-3 16.8-7.6c1.1-1.8 4.9-3.7 9.9-3.7s8.8 1.9 9.9 3.7c2.7 4.6 9.3 7.6 16.8 7.6s14-3 16.8-7.6c1.1-1.8 4.9-3.7 9.9-3.7s8.8 1.9 9.9 3.7c2.7 4.6 9.3 7.6 16.8 7.6v-8c-5.2 0-9-1.9-10.1-3.7zM120 52h8v8h-8v-8zm-12 16h32v32h-6.1l-8 12H108V68zm-60 36h52v8H48v-8zm84.6 44.3c-1.1 1.8-4.9 3.7-9.9 3.7s-8.8-1.9-9.9-3.7c-2.7-4.6-9.3-7.6-16.8-7.6s-14 3-16.8 7.6c-1.1 1.8-4.9 3.7-9.9 3.7s-8.8-1.9-9.9-3.7c-2.7-4.6-9.3-7.6-16.8-7.6-6.3 0-12 2.1-15.3 5.6L24.5 120h105.7l8-12h23.7l-14.4 32.8c-6.7.5-12.4 3.3-14.9 7.5z" fill="rgba(0,0,0,1)"/></svg>
