<?xml version="1.0" encoding="UTF-8"?>
<svg xmlns="http://www.w3.org/2000/svg" viewBox="0 0 192 192"><path d="M120 87.5l-20 11.6V76h-8v23.1L72 87.5l-4 7L88 106l-20 11.5 4 7 20-11.6V136h8v-23.1l20 11.6 4-7-20-11.5 20-11.5z" fill="rgba(0,0,0,1)"/><path d="M125.1 16.1l-3.6-1-1.3 3.5C120 19.4 113.7 36 96 36S72 19.4 71.8 18.7l-1.2-3.5-54.6 15v46.9l32-8V176h96V69.1l32 8V30.2l-50.9-14.1zM168 66.9l-32-8V168H56V58.9l-32 8V36.3l41.7-11.5c4.2 8 14 19.2 30.3 19.2s26.1-11.2 30.3-19.2L168 36.3v30.6z" fill="rgba(0,0,0,1)"/></svg>
