<?xml version="1.0" encoding="UTF-8"?>
<svg xmlns="http://www.w3.org/2000/svg" viewBox="0 0 192 192"><path d="M116 76h16v8h-16z" fill="rgba(0,0,0,1)"/><path d="M144.4 40h-11.7l-14.4-24H73.7L59.3 40H48.7L16 45.6v48.1l28-5V176h104V88.8l28 5V45.7L144.4 40zm-28.9-13.1l7.9 13.1-8.4 14-13.2-10.6 13.7-16.5zM96 37.8L84.5 24h22.9L96 37.8zM76.5 26.9l13.8 16.5L77.1 54l-8.4-14 7.8-13.1zM24 84.2V52.4L49.3 48H64v-.2L74.9 66 92 52.3V168H52V79.2l-28 5zm144 0l-28-5V168h-40V52.3L117.1 66 128 47.8v.2h15.6l24.4 4.3v31.9z" fill="rgba(0,0,0,1)"/></svg>
