<?xml version="1.0" encoding="UTF-8"?>
<svg xmlns="http://www.w3.org/2000/svg" viewBox="0 0 192 192"><path d="M148 128h-8v12h-12v8h12v12h8v-12h12v-8h-12z" fill="rgba(0,0,0,1)"/><path d="M144 112c-17.6 0-32 14.4-32 32s14.4 32 32 32 32-14.4 32-32-14.4-32-32-32zm0 56c-13.2 0-24-10.8-24-24s10.8-24 24-24 24 10.8 24 24-10.8 24-24 24z" fill="rgba(0,0,0,1)"/><g><path d="M44 128h63.3c1.3-2.9 2.8-5.5 4.7-8H44c-3.5 0-6.7-2.4-7.7-5.8L24.3 74c-.2-.6-.3-1.3-.3-2 0-4.4 3.6-8 8-8h104.5l-12.6 45.4c2.9-1.7 6.1-3.1 9.4-4L147.9 53c.5-1.7 1.8-3.3 3.8-4.4 2.3-1.2 5-1.6 7.1-.9l12 4 2.5-7.6-12-4c-4.1-1.4-9.1-.8-13.4 1.4-4 2.1-6.7 5.4-7.7 9.3l-1.4 5.1H32c-8.8 0-16 7.2-16 16 0 1.4.2 2.8.5 4.1l12.1 40.3c2 6.9 8.3 11.7 15.4 11.7zM104.2 148H63.5c-1.8-6.9-8-12-15.5-12-8.8 0-16 7.2-16 16s7.2 16 16 16c7.4 0 13.7-5.1 15.5-12h42.4c-.7-1.9-1.4-4.9-1.7-8zM48 160c-4.4 0-8-3.6-8-8s3.6-8 8-8 8 3.6 8 8-3.6 8-8 8z" fill="rgba(0,0,0,1)"/></g></svg>
