<?xml version="1.0" encoding="UTF-8"?>
<svg xmlns="http://www.w3.org/2000/svg" viewBox="0 0 192 192"><path d="M171.8 104H144c-.1-18.3-1.5-36-22-36s-21.9 17.7-22 36H72.2l-4.6 72 108.6-.1-4.4-71.9zM122 76c12 0 13.8 7.8 14 28h-28c.2-20.2 2-28 14-28zm-45.8 92l3.6-56h84.5l3.5 55.9-91.6.1z" fill="rgba(0,0,0,1)"/><path fill="none" d="M70 24c-14.6 0-20.7 12.2-21.8 24h43.6C90.7 36.2 84.6 24 70 24z"/><path d="M28.1 136c-1.1 0-2.2-.5-3-1.3-.8-.9-1.2-2.1-1.1-3.3L30.9 56h77.4l.7 6.5c2.4-1 5-1.8 7.8-2.1L115.5 48H99.9c-1.4-19.3-13-32-29.9-32S41.5 28.7 40.1 48H23.6L16 130.7c-.3 3.4.8 6.9 3.1 9.4s5.5 3.9 8.9 3.9h33.6l.5-8h-34zM70 24c14.6 0 20.7 12.2 21.8 24H48.2c1.1-11.8 7.2-24 21.8-24z" fill="rgba(0,0,0,1)"/></svg>
