<?xml version="1.0" encoding="UTF-8"?>
<svg xmlns="http://www.w3.org/2000/svg" viewBox="0 0 192 192"><path d="M156 28v8h-48v-8h20V16h8v12h20zm-21.8 15.9c0-1.2-1.1-2.3-2.3-2.3-1.2 0-2.3 1.1-2.3 2.3 0 1.2 1.1 2.3 2.3 2.3 1.3 0 2.3-1.1 2.3-2.3m0 9.1c0-1.2-1.1-2.3-2.3-2.3-1.2 0-2.3 1.1-2.3 2.3 0 1.2 1.1 2.3 2.3 2.3 1.3.1 2.3-1 2.3-2.3m0 9.2c0-1.2-1.1-2.3-2.3-2.3-1.2 0-2.3 1.1-2.3 2.3 0 1.2 1.1 2.3 2.3 2.3 1.3 0 2.3-1.1 2.3-2.3m0 9.1c0-1.2-1.1-2.3-2.3-2.3-1.2 0-2.3 1.1-2.3 2.3 0 1.2 1.1 2.3 2.3 2.3 1.3 0 2.3-1.1 2.3-2.3m0 9.2c0-1.2-1.1-2.3-2.3-2.3-1.2 0-2.3 1.1-2.3 2.3 0 1.2 1.1 2.3 2.3 2.3 1.3 0 2.3-1.1 2.3-2.3m0 9.1c0-1.2-1.1-2.3-2.3-2.3-1.2 0-2.3 1.1-2.3 2.3 0 1.2 1.1 2.3 2.3 2.3 1.3 0 2.3-1.1 2.3-2.3m0 9.1c0-1.2-1.1-2.3-2.3-2.3-1.2 0-2.3 1.1-2.3 2.3 0 1.2 1.1 2.3 2.3 2.3 1.3.1 2.3-1 2.3-2.3m0 9.2c0-1.2-1.1-2.3-2.3-2.3-1.2 0-2.3 1.1-2.3 2.3 0 1.2 1.1 2.3 2.3 2.3 1.3 0 2.3-1.1 2.3-2.3m0 9.4c0-1.2-1.1-2.3-2.3-2.3-1.2 0-2.3 1.1-2.3 2.3 0 1.2 1.1 2.3 2.3 2.3 1.3 0 2.3-1.1 2.3-2.3m0 9.4c0-1.2-1.1-2.3-2.3-2.3-1.2 0-2.3 1.1-2.3 2.3 0 1.2 1.1 2.3 2.3 2.3 1.3 0 2.3-1.1 2.3-2.3m0 9.4c0-1.2-1.1-2.3-2.3-2.3-1.2 0-2.3 1.1-2.3 2.3 0 1.2 1.1 2.3 2.3 2.3 1.3.1 2.3-1 2.3-2.3m0 9.5c0-1.2-1.1-2.3-2.3-2.3-1.2 0-2.3 1.1-2.3 2.3 0 1.2 1.1 2.3 2.3 2.3 1.3 0 2.3-1.1 2.3-2.3m0 9.4c0-1.2-1.1-2.3-2.3-2.3-1.2 0-2.3 1.1-2.3 2.3 0 1.2 1.1 2.3 2.3 2.3 1.3 0 2.3-1.1 2.3-2.3m0 9.4c0-1.2-1.1-2.3-2.3-2.3-1.2 0-2.3 1.1-2.3 2.3 0 1.2 1.1 2.3 2.3 2.3 1.3 0 2.3-1.1 2.3-2.3m0 9.4c0-1.2-1.1-2.3-2.3-2.3-1.2 0-2.3 1.1-2.3 2.3 0 1.2 1.1 2.3 2.3 2.3 1.3 0 2.3-1 2.3-2.3m9.5-130.1c-.1-1.2-1.2-2.2-2.5-2.1-1.2.1-2.2 1.2-2.1 2.4.1 1.2 1.2 2.2 2.5 2.1 1.2 0 2.2-1.1 2.1-2.4m.6 9.2c-.1-1.2-1.2-2.2-2.5-2.1-1.2.1-2.2 1.2-2.1 2.4.1 1.2 1.2 2.2 2.5 2.1 1.2-.1 2.2-1.2 2.1-2.4m.7 9.1c-.1-1.2-1.2-2.2-2.5-2.1-1.2.1-2.2 1.2-2.1 2.4.1 1.2 1.2 2.2 2.5 2.1 1.2 0 2.2-1.2 2.1-2.4m.6 9.1c-.1-1.2-1.2-2.2-2.5-2.1-1.2.1-2.2 1.2-2.1 2.4.1 1.2 1.2 2.2 2.5 2.1 1.2 0 2.2-1.2 2.1-2.4m.6 9.1c-.1-1.2-1.2-2.2-2.5-2.1-1.2.1-2.2 1.2-2.1 2.4.1 1.2 1.2 2.2 2.5 2.1 1.2 0 2.2-1.2 2.1-2.4m.7 9.1c-.1-1.2-1.2-2.2-2.5-2.1-1.2.1-2.2 1.2-2.1 2.4.1 1.2 1.2 2.2 2.5 2.1 1.2 0 2.2-1.2 2.1-2.4m.6 9.1c-.1-1.2-1.2-2.2-2.5-2.1-1.2.1-2.2 1.2-2.1 2.4.1 1.2 1.2 2.2 2.5 2.1 1.2 0 2.2-1.1 2.1-2.4m.7 9.2c-.1-1.2-1.2-2.2-2.5-2.1-1.2.1-2.2 1.2-2.1 2.4.1 1.2 1.2 2.2 2.5 2.1 1.1-.1 2.2-1.2 2.1-2.4m.6 9.4c-.1-1.2-1.2-2.2-2.5-2.1-1.2.1-2.2 1.2-2.1 2.4.1 1.2 1.2 2.2 2.5 2.1 1.2-.1 2.2-1.2 2.1-2.4m.7 9.4c-.1-1.2-1.2-2.2-2.5-2.1-1.2.1-2.2 1.2-2.1 2.4.1 1.2 1.2 2.2 2.5 2.1 1.2-.1 2.2-1.2 2.1-2.4m.6 9.4c-.1-1.2-1.2-2.2-2.5-2.1-1.2.1-2.2 1.2-2.1 2.4.1 1.2 1.2 2.2 2.5 2.1 1.2-.1 2.2-1.2 2.1-2.4m.7 9.4c-.1-1.2-1.2-2.2-2.5-2.1-1.2.1-2.2 1.2-2.1 2.4.1 1.2 1.2 2.2 2.5 2.1 1.2-.1 2.2-1.2 2.1-2.4m.6 9.4c-.1-1.2-1.2-2.2-2.5-2.1-1.2.1-2.2 1.2-2.1 2.4.1 1.2 1.2 2.2 2.5 2.1 1.2-.1 2.2-1.2 2.1-2.4m.7 9.4c-.1-1.2-1.2-2.2-2.5-2.1-1.2.1-2.2 1.2-2.1 2.4.1 1.2 1.2 2.2 2.5 2.1 1.2-.1 2.2-1.2 2.1-2.4m.7 9.4c-.1-1.2-1.2-2.2-2.5-2.1-1.2.1-2.2 1.2-2.1 2.4.1 1.2 1.2 2.2 2.5 2.1 1.1-.1 2.2-1.2 2.1-2.4m.2-129.8c-.2-1.2-1.4-2.1-2.6-1.9-1.2.2-2.1 1.4-2 2.6.2 1.2 1.4 2.1 2.6 2 1.3-.3 2.2-1.5 2-2.7m1.3 9c-.2-1.2-1.4-2.1-2.6-1.9-1.2.2-2.1 1.4-2 2.6.2 1.2 1.4 2.1 2.6 2 1.2-.2 2.2-1.5 2-2.7m1.3 9.1c-.2-1.2-1.4-2.1-2.6-1.9-1.2.2-2.1 1.4-2 2.6.2 1.2 1.4 2.1 2.6 2 1.2-.3 2.1-1.5 2-2.7m1.2 9c-.2-1.2-1.4-2.1-2.6-1.9-1.2.2-2.1 1.4-2 2.6.2 1.2 1.4 2.1 2.6 2 1.3-.2 2.2-1.5 2-2.7m1.3 9.1c-.2-1.2-1.4-2.1-2.6-1.9-1.2.2-2.1 1.4-2 2.6.2 1.2 1.4 2.1 2.6 2 1.3-.3 2.2-1.5 2-2.7m1.3 9c-.2-1.2-1.4-2.1-2.6-1.9-1.2.2-2.1 1.4-2 2.6.2 1.2 1.4 2.1 2.6 2 1.2-.2 2.2-1.5 2-2.7m1.2 9.1c-.2-1.2-1.4-2.1-2.6-1.9-1.2.2-2.1 1.4-2 2.6.2 1.2 1.4 2.1 2.6 2 1.3-.3 2.2-1.5 2-2.7m1.3 9c-.2-1.2-1.4-2.1-2.6-1.9-1.2.2-2.1 1.4-2 2.6.2 1.2 1.4 2.1 2.6 2 1.3-.2 2.2-1.5 2-2.7m1.3 9.3c-.2-1.2-1.4-2.1-2.6-1.9-1.2.2-2.1 1.4-2 2.6.2 1.2 1.4 2.1 2.6 2 1.3-.2 2.2-1.4 2-2.7m1.3 9.4c-.2-1.2-1.4-2.1-2.6-1.9-1.2.2-2.1 1.4-2 2.6.2 1.2 1.4 2.1 2.6 2 1.3-.3 2.2-1.5 2-2.7m1.3 9.3c-.2-1.2-1.4-2.1-2.6-1.9-1.2.2-2.1 1.4-2 2.6.2 1.2 1.4 2.1 2.6 2 1.3-.3 2.2-1.5 2-2.7m1.4 9.3c-.2-1.2-1.4-2.1-2.6-1.9-1.2.2-2.1 1.4-2 2.6.2 1.2 1.4 2.1 2.6 2 1.2-.2 2.1-1.5 2-2.7m1.3 9.4c-.2-1.2-1.4-2.1-2.6-1.9-1.2.2-2.1 1.4-2 2.6.2 1.2 1.4 2.1 2.6 2 1.2-.3 2.2-1.5 2-2.7m1.3 9.3c-.2-1.2-1.4-2.1-2.6-1.9-1.2.2-2.1 1.4-2 2.6.2 1.2 1.4 2.1 2.6 2 1.2-.3 2.2-1.5 2-2.7m1.3 9.3c-.2-1.2-1.4-2.1-2.6-1.9-1.2.2-2.1 1.4-2 2.6.2 1.2 1.4 2.1 2.6 2 1.3-.2 2.2-1.5 2-2.7M120.2 43.7c-.1 1.2.9 2.4 2.1 2.5 1.2.1 2.4-.9 2.5-2.1.1-1.2-.9-2.4-2.1-2.4-1.3-.2-2.4.8-2.5 2m-.6 9.2c-.1 1.2.9 2.4 2.1 2.5 1.2.1 2.4-.9 2.5-2.1.1-1.2-.9-2.4-2.1-2.4-1.3-.3-2.5.7-2.5 2m-.7 9.1c-.1 1.2.9 2.4 2.1 2.5 1.2.1 2.4-.9 2.5-2.1.1-1.2-.9-2.4-2.1-2.4-1.3-.2-2.4.7-2.5 2m-.6 9.1c-.1 1.2.9 2.4 2.1 2.5 1.2.1 2.4-.9 2.5-2.1.1-1.2-.9-2.4-2.1-2.4-1.3-.2-2.4.8-2.5 2m-.7 9.1c-.1 1.2.9 2.4 2.1 2.5 1.2.1 2.4-.9 2.5-2.1.1-1.2-.9-2.4-2.1-2.4-1.2-.2-2.4.8-2.5 2m-.6 9.1c-.1 1.2.9 2.4 2.1 2.5 1.2.1 2.4-.9 2.5-2.1.1-1.2-.9-2.4-2.1-2.4-1.3-.2-2.4.8-2.5 2m-.6 9.1c-.1 1.2.9 2.4 2.1 2.5 1.2.1 2.4-.9 2.5-2.1.1-1.2-.9-2.4-2.1-2.4-1.3-.2-2.4.8-2.5 2m-.7 9.2c-.1 1.2.9 2.4 2.1 2.5 1.2.1 2.4-.9 2.5-2.1.1-1.2-.9-2.4-2.1-2.4-1.3-.3-2.4.7-2.5 2m-.6 9.4c-.1 1.2.9 2.4 2.1 2.5 1.2.1 2.4-.9 2.5-2.1.1-1.2-.9-2.4-2.1-2.4-1.3-.3-2.4.7-2.5 2m-.7 9.4c-.1 1.2.9 2.4 2.1 2.5 1.2.1 2.4-.9 2.5-2.1.1-1.2-.9-2.4-2.1-2.4-1.3-.3-2.4.7-2.5 2m-.6 9.4c-.1 1.2.9 2.4 2.1 2.5 1.2.1 2.4-.9 2.5-2.1.1-1.2-.9-2.4-2.1-2.4-1.3-.3-2.5.7-2.5 2m-.7 9.4c-.1 1.2.9 2.4 2.1 2.5 1.2.1 2.4-.9 2.5-2.1.1-1.2-.9-2.4-2.1-2.4-1.3-.3-2.4.7-2.5 2m-.7 9.4c-.1 1.2.9 2.4 2.1 2.5 1.2.1 2.4-.9 2.5-2.1.1-1.2-.9-2.4-2.1-2.4-1.2-.3-2.4.7-2.5 2m-.6 9.4c-.1 1.2.9 2.4 2.1 2.5 1.2.1 2.4-.9 2.5-2.1.1-1.2-.9-2.4-2.1-2.4-1.3-.3-2.4.7-2.5 2m-.7 9.4c-.1 1.2.9 2.4 2.1 2.5 1.2.1 2.4-.9 2.5-2.1.1-1.2-.9-2.4-2.1-2.4-1.3-.3-2.4.7-2.5 2m-.2-129.8c-.2 1.2.7 2.4 2 2.6 1.2.2 2.4-.7 2.6-2 .2-1.2-.7-2.4-2-2.6-1.3-.2-2.5.7-2.6 2m-1.3 9c-.2 1.2.7 2.4 2 2.6 1.2.2 2.4-.7 2.6-2 .2-1.2-.7-2.4-2-2.6-1.2-.1-2.4.8-2.6 2m-1.3 9.1c-.2 1.2.7 2.4 2 2.6 1.2.2 2.4-.7 2.6-2 .2-1.2-.7-2.4-2-2.6-1.2-.2-2.4.7-2.6 2m-1.2 9c-.2 1.2.7 2.4 2 2.6 1.2.2 2.4-.7 2.6-2 .2-1.2-.7-2.4-2-2.6-1.3-.1-2.5.8-2.6 2m-1.3 9.1c-.2 1.2.7 2.4 2 2.6 1.2.2 2.4-.7 2.6-2 .2-1.2-.7-2.4-2-2.6-1.2-.2-2.4.7-2.6 2m-1.3 9c-.2 1.2.7 2.4 2 2.6 1.2.2 2.4-.7 2.6-2 .2-1.2-.7-2.4-2-2.6-1.2-.1-2.4.8-2.6 2m-1.3 9.1c-.2 1.2.7 2.4 2 2.6 1.2.2 2.4-.7 2.6-2 .2-1.2-.7-2.4-2-2.6-1.2-.2-2.4.7-2.6 2m-1.2 9c-.2 1.2.7 2.4 2 2.6 1.2.2 2.4-.7 2.6-2 .2-1.2-.7-2.4-2-2.6-1.3-.1-2.5.8-2.6 2m-1.3 9.3c-.2 1.2.7 2.4 2 2.6 1.2.2 2.4-.7 2.6-2 .2-1.2-.7-2.4-2-2.6-1.3-.1-2.5.8-2.6 2m-1.4 9.4c-.2 1.2.7 2.4 2 2.6 1.2.2 2.4-.7 2.6-2 .2-1.2-.7-2.4-2-2.6-1.2-.2-2.4.8-2.6 2m-1.3 9.3c-.2 1.2.7 2.4 2 2.6 1.2.2 2.4-.7 2.6-2 .2-1.2-.7-2.4-2-2.6-1.2-.1-2.4.8-2.6 2m-1.3 9.3c-.2 1.2.7 2.4 2 2.6 1.2.2 2.4-.7 2.6-2 .2-1.2-.7-2.4-2-2.6-1.2-.1-2.4.8-2.6 2m-1.3 9.4c-.2 1.2.7 2.4 2 2.6 1.2.2 2.4-.7 2.6-2 .2-1.2-.7-2.4-2-2.6-1.2-.2-2.4.8-2.6 2m-1.3 9.3c-.2 1.2.7 2.4 2 2.6 1.2.2 2.4-.7 2.6-2 .2-1.2-.7-2.4-2-2.6-1.2-.1-2.4.8-2.6 2m-1.3 9.3c-.2 1.2.7 2.4 2 2.6 1.2.2 2.4-.7 2.6-2 .2-1.2-.7-2.4-2-2.6-1.2-.1-2.4.8-2.6 2M80 32c0-8.8-7.2-16-16-16s-16 7.2-16 16 7.2 16 16 16 16-7.2 16-16zm-8 0c0 4.4-3.6 8-8 8s-8-3.6-8-8 3.6-8 8-8 8 3.6 8 8zm4 144h-8v-64h12V72c0-4.4-3.6-8-8-8H56c-4.4 0-8 3.6-8 8v40h12v64h-8v-56H40V72c0-8.8 7.2-16 16-16h16c8.8 0 16 7.2 16 16v48H76v56z" fill="rgba(0,0,0,1)"/></svg>
