<?xml version="1.0" encoding="UTF-8"?>
<svg xmlns="http://www.w3.org/2000/svg" viewBox="0 0 192 192"><path d="M120 28v8H72v-8h20V16h8v12h20zM98.2 43.9c0-1.2-1.1-2.3-2.3-2.3-1.2 0-2.3 1.1-2.3 2.3 0 1.2 1.1 2.3 2.3 2.3 1.3 0 2.3-1.1 2.3-2.3m0 9.1c0-1.2-1.1-2.3-2.3-2.3-1.2 0-2.3 1.1-2.3 2.3 0 1.2 1.1 2.3 2.3 2.3 1.3.1 2.3-1 2.3-2.3m0 9.2c0-1.2-1.1-2.3-2.3-2.3-1.2 0-2.3 1.1-2.3 2.3 0 1.2 1.1 2.3 2.3 2.3 1.3 0 2.3-1.1 2.3-2.3m0 9.1c0-1.2-1.1-2.3-2.3-2.3-1.2 0-2.3 1.1-2.3 2.3 0 1.2 1.1 2.3 2.3 2.3 1.3 0 2.3-1.1 2.3-2.3m0 9.2c0-1.2-1.1-2.3-2.3-2.3-1.2 0-2.3 1.1-2.3 2.3 0 1.2 1.1 2.3 2.3 2.3 1.3 0 2.3-1.1 2.3-2.3m0 9.1c0-1.2-1.1-2.3-2.3-2.3-1.2 0-2.3 1.1-2.3 2.3 0 1.2 1.1 2.3 2.3 2.3 1.3 0 2.3-1.1 2.3-2.3m0 9.1c0-1.2-1.1-2.3-2.3-2.3-1.2 0-2.3 1.1-2.3 2.3 0 1.2 1.1 2.3 2.3 2.3 1.3.1 2.3-1 2.3-2.3m0 9.2c0-1.2-1.1-2.3-2.3-2.3-1.2 0-2.3 1.1-2.3 2.3 0 1.2 1.1 2.3 2.3 2.3 1.3 0 2.3-1.1 2.3-2.3m0 9.4c0-1.2-1.1-2.3-2.3-2.3-1.2 0-2.3 1.1-2.3 2.3 0 1.2 1.1 2.3 2.3 2.3 1.3 0 2.3-1.1 2.3-2.3m0 9.4c0-1.2-1.1-2.3-2.3-2.3-1.2 0-2.3 1.1-2.3 2.3 0 1.2 1.1 2.3 2.3 2.3 1.3 0 2.3-1.1 2.3-2.3m0 9.4c0-1.2-1.1-2.3-2.3-2.3-1.2 0-2.3 1.1-2.3 2.3 0 1.2 1.1 2.3 2.3 2.3 1.3.1 2.3-1 2.3-2.3m0 9.5c0-1.2-1.1-2.3-2.3-2.3-1.2 0-2.3 1.1-2.3 2.3 0 1.2 1.1 2.3 2.3 2.3 1.3 0 2.3-1.1 2.3-2.3m0 9.4c0-1.2-1.1-2.3-2.3-2.3-1.2 0-2.3 1.1-2.3 2.3 0 1.2 1.1 2.3 2.3 2.3 1.3 0 2.3-1.1 2.3-2.3m0 9.4c0-1.2-1.1-2.3-2.3-2.3-1.2 0-2.3 1.1-2.3 2.3 0 1.2 1.1 2.3 2.3 2.3 1.3 0 2.3-1.1 2.3-2.3m0 9.4c0-1.2-1.1-2.3-2.3-2.3-1.2 0-2.3 1.1-2.3 2.3 0 1.2 1.1 2.3 2.3 2.3 1.3 0 2.3-1 2.3-2.3m9.5-130.1c-.1-1.2-1.2-2.2-2.5-2.1-1.2.1-2.2 1.2-2.1 2.4.1 1.2 1.2 2.2 2.5 2.1 1.2 0 2.2-1.1 2.1-2.4m.6 9.2c-.1-1.2-1.2-2.2-2.5-2.1-1.2.1-2.2 1.2-2.1 2.4.1 1.2 1.2 2.2 2.5 2.1 1.2-.1 2.2-1.2 2.1-2.4m.7 9.1c-.1-1.2-1.2-2.2-2.5-2.1-1.2.1-2.2 1.2-2.1 2.4.1 1.2 1.2 2.2 2.5 2.1 1.2 0 2.2-1.2 2.1-2.4m.6 9.1c-.1-1.2-1.2-2.2-2.5-2.1-1.2.1-2.2 1.2-2.1 2.4.1 1.2 1.2 2.2 2.5 2.1 1.2 0 2.2-1.2 2.1-2.4m.6 9.1c-.1-1.2-1.2-2.2-2.5-2.1-1.2.1-2.2 1.2-2.1 2.4.1 1.2 1.2 2.2 2.5 2.1 1.2 0 2.2-1.2 2.1-2.4m.7 9.1c-.1-1.2-1.2-2.2-2.5-2.1-1.2.1-2.2 1.2-2.1 2.4.1 1.2 1.2 2.2 2.5 2.1 1.2 0 2.2-1.2 2.1-2.4m.6 9.1c-.1-1.2-1.2-2.2-2.5-2.1-1.2.1-2.2 1.2-2.1 2.4.1 1.2 1.2 2.2 2.5 2.1 1.2 0 2.2-1.1 2.1-2.4m.7 9.2c-.1-1.2-1.2-2.2-2.5-2.1-1.2.1-2.2 1.2-2.1 2.4.1 1.2 1.2 2.2 2.5 2.1 1.1-.1 2.2-1.2 2.1-2.4m.6 9.4c-.1-1.2-1.2-2.2-2.5-2.1-1.2.1-2.2 1.2-2.1 2.4.1 1.2 1.2 2.2 2.5 2.1 1.2-.1 2.2-1.2 2.1-2.4m.7 9.4c-.1-1.2-1.2-2.2-2.5-2.1-1.2.1-2.2 1.2-2.1 2.4.1 1.2 1.2 2.2 2.5 2.1 1.2-.1 2.2-1.2 2.1-2.4m.6 9.4c-.1-1.2-1.2-2.2-2.5-2.1-1.2.1-2.2 1.2-2.1 2.4.1 1.2 1.2 2.2 2.5 2.1 1.2-.1 2.2-1.2 2.1-2.4m.7 9.4c-.1-1.2-1.2-2.2-2.5-2.1-1.2.1-2.2 1.2-2.1 2.4.1 1.2 1.2 2.2 2.5 2.1 1.2-.1 2.2-1.2 2.1-2.4m.6 9.4c-.1-1.2-1.2-2.2-2.5-2.1-1.2.1-2.2 1.2-2.1 2.4.1 1.2 1.2 2.2 2.5 2.1 1.2-.1 2.2-1.2 2.1-2.4m.7 9.4c-.1-1.2-1.2-2.2-2.5-2.1-1.2.1-2.2 1.2-2.1 2.4.1 1.2 1.2 2.2 2.5 2.1 1.2-.1 2.2-1.2 2.1-2.4m.7 9.4c-.1-1.2-1.2-2.2-2.5-2.1-1.2.1-2.2 1.2-2.1 2.4.1 1.2 1.2 2.2 2.5 2.1 1.1-.1 2.2-1.2 2.1-2.4m.2-129.8c-.2-1.2-1.4-2.1-2.6-1.9-1.2.2-2.1 1.4-2 2.6.2 1.2 1.4 2.1 2.6 2 1.3-.3 2.2-1.5 2-2.7m1.3 9c-.2-1.2-1.4-2.1-2.6-1.9-1.2.2-2.1 1.4-2 2.6.2 1.2 1.4 2.1 2.6 2 1.2-.2 2.2-1.5 2-2.7m1.3 9.1c-.2-1.2-1.4-2.1-2.6-1.9-1.2.2-2.1 1.4-2 2.6.2 1.2 1.4 2.1 2.6 2 1.2-.3 2.1-1.5 2-2.7m1.2 9c-.2-1.2-1.4-2.1-2.6-1.9-1.2.2-2.1 1.4-2 2.6.2 1.2 1.4 2.1 2.6 2 1.3-.2 2.2-1.5 2-2.7m1.3 9.1c-.2-1.2-1.4-2.1-2.6-1.9-1.2.2-2.1 1.4-2 2.6.2 1.2 1.4 2.1 2.6 2 1.3-.3 2.2-1.5 2-2.7m1.3 9c-.2-1.2-1.4-2.1-2.6-1.9-1.2.2-2.1 1.4-2 2.6.2 1.2 1.4 2.1 2.6 2 1.2-.2 2.2-1.5 2-2.7m1.2 9.1c-.2-1.2-1.4-2.1-2.6-1.9-1.2.2-2.1 1.4-2 2.6.2 1.2 1.4 2.1 2.6 2 1.3-.3 2.2-1.5 2-2.7m1.3 9c-.2-1.2-1.4-2.1-2.6-1.9-1.2.2-2.1 1.4-2 2.6.2 1.2 1.4 2.1 2.6 2 1.3-.2 2.2-1.5 2-2.7m1.3 9.3c-.2-1.2-1.4-2.1-2.6-1.9-1.2.2-2.1 1.4-2 2.6.2 1.2 1.4 2.1 2.6 2 1.3-.2 2.2-1.4 2-2.7m1.3 9.4c-.2-1.2-1.4-2.1-2.6-1.9-1.2.2-2.1 1.4-2 2.6.2 1.2 1.4 2.1 2.6 2 1.3-.3 2.2-1.5 2-2.7m1.3 9.3c-.2-1.2-1.4-2.1-2.6-1.9-1.2.2-2.1 1.4-2 2.6.2 1.2 1.4 2.1 2.6 2 1.3-.3 2.2-1.5 2-2.7m1.4 9.3c-.2-1.2-1.4-2.1-2.6-1.9-1.2.2-2.1 1.4-2 2.6.2 1.2 1.4 2.1 2.6 2 1.2-.2 2.1-1.5 2-2.7m1.3 9.4c-.2-1.2-1.4-2.1-2.6-1.9-1.2.2-2.1 1.4-2 2.6.2 1.2 1.4 2.1 2.6 2 1.2-.3 2.2-1.5 2-2.7m1.3 9.3c-.2-1.2-1.4-2.1-2.6-1.9-1.2.2-2.1 1.4-2 2.6.2 1.2 1.4 2.1 2.6 2 1.2-.3 2.2-1.5 2-2.7m1.3 9.3c-.2-1.2-1.4-2.1-2.6-1.9-1.2.2-2.1 1.4-2 2.6.2 1.2 1.4 2.1 2.6 2 1.3-.2 2.2-1.5 2-2.7M84.2 43.7c-.1 1.2.9 2.4 2.1 2.5 1.2.1 2.4-.9 2.5-2.1.1-1.2-.9-2.4-2.1-2.4-1.3-.2-2.4.8-2.5 2m-.6 9.2c-.1 1.2.9 2.4 2.1 2.5 1.2.1 2.4-.9 2.5-2.1.1-1.2-.9-2.4-2.1-2.4-1.3-.3-2.5.7-2.5 2m-.7 9.1c-.1 1.2.9 2.4 2.1 2.5 1.2.1 2.4-.9 2.5-2.1.1-1.2-.9-2.4-2.1-2.4-1.3-.2-2.4.7-2.5 2m-.6 9.1c-.1 1.2.9 2.4 2.1 2.5 1.2.1 2.4-.9 2.5-2.1.1-1.2-.9-2.4-2.1-2.4-1.3-.2-2.4.8-2.5 2m-.7 9.1c-.1 1.2.9 2.4 2.1 2.5 1.2.1 2.4-.9 2.5-2.1.1-1.2-.9-2.4-2.1-2.4-1.2-.2-2.4.8-2.5 2m-.6 9.1c-.1 1.2.9 2.4 2.1 2.5 1.2.1 2.4-.9 2.5-2.1.1-1.2-.9-2.4-2.1-2.4-1.3-.2-2.4.8-2.5 2m-.6 9.1c-.1 1.2.9 2.4 2.1 2.5 1.2.1 2.4-.9 2.5-2.1.1-1.2-.9-2.4-2.1-2.4-1.3-.2-2.4.8-2.5 2m-.7 9.2c-.1 1.2.9 2.4 2.1 2.5 1.2.1 2.4-.9 2.5-2.1.1-1.2-.9-2.4-2.1-2.4-1.3-.3-2.4.7-2.5 2m-.6 9.4c-.1 1.2.9 2.4 2.1 2.5 1.2.1 2.4-.9 2.5-2.1.1-1.2-.9-2.4-2.1-2.4-1.3-.3-2.4.7-2.5 2m-.7 9.4c-.1 1.2.9 2.4 2.1 2.5 1.2.1 2.4-.9 2.5-2.1.1-1.2-.9-2.4-2.1-2.4-1.3-.3-2.4.7-2.5 2m-.6 9.4c-.1 1.2.9 2.4 2.1 2.5 1.2.1 2.4-.9 2.5-2.1.1-1.2-.9-2.4-2.1-2.4-1.3-.3-2.5.7-2.5 2m-.7 9.4c-.1 1.2.9 2.4 2.1 2.5 1.2.1 2.4-.9 2.5-2.1.1-1.2-.9-2.4-2.1-2.4-1.3-.3-2.4.7-2.5 2m-.7 9.4c-.1 1.2.9 2.4 2.1 2.5 1.2.1 2.4-.9 2.5-2.1.1-1.2-.9-2.4-2.1-2.4-1.2-.3-2.4.7-2.5 2m-.6 9.4c-.1 1.2.9 2.4 2.1 2.5 1.2.1 2.4-.9 2.5-2.1.1-1.2-.9-2.4-2.1-2.4-1.3-.3-2.4.7-2.5 2m-.7 9.4c-.1 1.2.9 2.4 2.1 2.5 1.2.1 2.4-.9 2.5-2.1.1-1.2-.9-2.4-2.1-2.4-1.3-.3-2.4.7-2.5 2m-.2-129.8c-.2 1.2.7 2.4 2 2.6 1.2.2 2.4-.7 2.6-2 .2-1.2-.7-2.4-2-2.6-1.3-.2-2.5.7-2.6 2m-1.3 9c-.2 1.2.7 2.4 2 2.6 1.2.2 2.4-.7 2.6-2 .2-1.2-.7-2.4-2-2.6-1.2-.1-2.4.8-2.6 2m-1.3 9.1c-.2 1.2.7 2.4 2 2.6 1.2.2 2.4-.7 2.6-2 .2-1.2-.7-2.4-2-2.6-1.2-.2-2.4.7-2.6 2m-1.2 9c-.2 1.2.7 2.4 2 2.6 1.2.2 2.4-.7 2.6-2 .2-1.2-.7-2.4-2-2.6-1.3-.1-2.5.8-2.6 2m-1.3 9.1c-.2 1.2.7 2.4 2 2.6 1.2.2 2.4-.7 2.6-2 .2-1.2-.7-2.4-2-2.6-1.2-.2-2.4.7-2.6 2m-1.3 9c-.2 1.2.7 2.4 2 2.6 1.2.2 2.4-.7 2.6-2 .2-1.2-.7-2.4-2-2.6-1.2-.1-2.4.8-2.6 2m-1.3 9.1c-.2 1.2.7 2.4 2 2.6 1.2.2 2.4-.7 2.6-2 .2-1.2-.7-2.4-2-2.6-1.2-.2-2.4.7-2.6 2m-1.2 9c-.2 1.2.7 2.4 2 2.6 1.2.2 2.4-.7 2.6-2 .2-1.2-.7-2.4-2-2.6-1.3-.1-2.5.8-2.6 2m-1.3 9.3c-.2 1.2.7 2.4 2 2.6 1.2.2 2.4-.7 2.6-2 .2-1.2-.7-2.4-2-2.6-1.3-.1-2.5.8-2.6 2m-1.4 9.4c-.2 1.2.7 2.4 2 2.6 1.2.2 2.4-.7 2.6-2 .2-1.2-.7-2.4-2-2.6-1.2-.2-2.4.8-2.6 2m-1.3 9.3c-.2 1.2.7 2.4 2 2.6 1.2.2 2.4-.7 2.6-2 .2-1.2-.7-2.4-2-2.6-1.2-.1-2.4.8-2.6 2m-1.3 9.3c-.2 1.2.7 2.4 2 2.6 1.2.2 2.4-.7 2.6-2 .2-1.2-.7-2.4-2-2.6-1.2-.1-2.4.8-2.6 2m-1.3 9.4c-.2 1.2.7 2.4 2 2.6 1.2.2 2.4-.7 2.6-2 .2-1.2-.7-2.4-2-2.6-1.2-.2-2.4.8-2.6 2m-1.3 9.3c-.2 1.2.7 2.4 2 2.6 1.2.2 2.4-.7 2.6-2 .2-1.2-.7-2.4-2-2.6-1.2-.1-2.4.8-2.6 2m-1.3 9.3c-.2 1.2.7 2.4 2 2.6 1.2.2 2.4-.7 2.6-2 .2-1.2-.7-2.4-2-2.6-1.2-.1-2.4.8-2.6 2" fill="rgba(0,0,0,1)"/></svg>
