<?xml version="1.0" encoding="UTF-8"?>
<svg xmlns="http://www.w3.org/2000/svg" viewBox="0 0 192 192"><path d="M144 176c-17.6 0-32-14.4-32-32s14.4-32 32-32 32 14.4 32 32-14.4 32-32 32zm0-56c-13.2 0-24 10.8-24 24s10.8 24 24 24 24-10.8 24-24-10.8-24-24-24z" fill="rgba(0,0,0,1)"/><path d="M148.1 155.9c0 2.3-1.8 4.1-4.1 4.1s-4.1-1.8-4.1-4.1 1.9-4.1 4.2-4.1c2.2-.1 4 1.8 4 4.1zm-7.9-18.5V128h7.5v9.4l-1.6 11.6h-4.4l-1.5-11.6zM20 132h8v28h-8zM92 92h8v68h-8zM56 112h8v48h-8z" fill="rgba(0,0,0,1)"/><circle fill="none" cx="144" cy="144" r="32"/><path d="M168 52h-4v57.4c1.4.8 2.7 1.7 4 2.6 1.4 1.1 2.7 2.2 4 3.4V52h-4zM132 72h-4v35.3c1.3-.6 2.6-1.1 4-1.5 1.3-.4 2.6-.8 4-1V72h-4z" fill="rgba(0,0,0,1)"/></svg>
