<?xml version="1.0" encoding="UTF-8"?>
<svg xmlns="http://www.w3.org/2000/svg" viewBox="0 0 192 192"><path d="M86.8 89.2L77.7 80l9.1-9.2-5.6-5.6-9.2 9.1-9.2-9.1-5.6 5.6 9.1 9.2-9.1 9.2 5.6 5.6 9.2-9.1 9.2 9.1zM129.2 65.2l-9.2 9.1-9.2-9.1-5.6 5.6 9.1 9.2-9.1 9.2 5.6 5.6 9.2-9.1 9.2 9.1 5.6-5.6-9.1-9.2 9.1-9.2zM81.14 113.202l7.99-7.99 5.657 5.656-7.99 7.99zM97.14 110.798l5.656-5.657 7.99 7.99-5.656 5.657z" fill="rgba(0,0,0,1)"/><path d="M96 16c-35.3 0-64 28.7-64 64 0 21.3 10.4 40.9 28 52.9V164c0 6.6 5.4 12 12 12h48c6.6 0 12-5.4 12-12v-31.1c17.6-12 28-31.6 28-52.9 0-35.3-28.7-64-64-64zm24 152H72c-2.2 0-4-1.8-4-4v-12h8v8h8v-8h8v8h8v-8h8v8h8v-8h8v12c0 2.2-1.8 4-4 4zm5.9-40.6l-1.9 1.2V144h-8v-8h-8v8h-8v-8h-8v8h-8v-8h-8v8h-8v-15.5l-1.9-1.2C49.8 117 40 99.3 40 80c0-30.9 25.1-56 56-56s56 25.1 56 56c0 19.3-9.8 37-26.1 47.4z" fill="rgba(0,0,0,1)"/></svg>
