<?xml version="1.0" encoding="UTF-8"?>
<svg xmlns="http://www.w3.org/2000/svg" viewBox="0 0 192 192"><path d="M122.7 93.5c-6.1-4.6-13.2-7.9-20.7-9.5-3.7-.8-7.3-1.9-10.8-3.2-1.5-.5-2.9-1.3-4.1-2.4-.6-.8-.9-1.9-.9-3 0-1.3.6-2.4 1.7-3.1 1.9-1.1 4.1-1.7 6.3-1.5 7.3.4 14.3 3.1 20.1 7.6l2.1 1.5 12.1-17.6-1.8-1.5c-9.1-7.1-20.5-10.9-32-10.6-5.5-.1-10.9 1.1-15.9 3.4-4.5 2.1-8.4 5.4-11.2 9.5-2.8 4.3-4.2 9.4-4.1 14.5-.2 4.9 1.1 9.8 3.7 14 2.5 3.6 6 6.5 10 8.2 5 2.1 10.2 3.8 15.4 5 3.4.8 6.8 1.9 10 3.1 1.4.5 2.7 1.2 3.8 2.3.6.8.8 1.8.8 2.8.1 1.5-.7 2.8-2 3.6-2.2 1.2-4.8 1.8-7.3 1.7-4 0-8-.8-11.6-2.4-4-1.8-7.8-4.1-11.2-6.9l-1.9-1.6L59.4 124l1.8 1.6c5 4.4 10.8 7.8 17.1 10 6.2 2.3 12.7 3.5 19.4 3.5 8.5.4 16.8-2.2 23.6-7.3 6.2-5.2 9.5-12.9 9-21 .1-6.4-2.6-12.9-7.6-17.3z" fill="rgba(0,0,0,1)"/><path d="M168 106.1c.9-6.8.8-13.6-.2-20.3-2.9-19-13.1-35.7-28.6-47-14.9-10.9-33.1-15.6-51.4-13.3-16.7-13-40-12.5-56.2 1.4C13.5 42.4 10.9 69.4 25.4 88c-.8 6.6-.7 13.3.3 19.9 2.9 19 13.1 35.7 28.6 47 15 11 33.2 15.7 51.5 13.3 7.4 5.1 16.2 7.9 25.2 7.9h.4c9.7 0 19.3-3.2 27-9.1 9.5-7.2 15.6-17.7 17.1-29.5 1.5-11.2-1.1-22.2-7.5-31.4zm-56.3 48l-1.9-1.6-2.2.4a59.2 59.2 0 0 1-21.4 0C55.3 147 34.9 117 40.8 86l.5-2.5-1.9-1.9C28 70 28 51.5 39.4 39.9c11.5-11.7 30.4-11.9 42.1-.4l1.9 1.9 2.6-.5c7-1.3 14.1-1.3 21.1 0 31 5.9 51.4 35.8 45.5 66.9l-.5 2.4 1.6 1.9c9.7 11.2 9.7 27.9 0 39.1-10.8 12.3-29.6 13.7-42 2.9z" fill="rgba(0,0,0,1)"/></svg>
