<?xml version="1.0" encoding="UTF-8"?>
<svg xmlns="http://www.w3.org/2000/svg" viewBox="0 0 192 192"><path d="M40 32h56v128H40V32zm48 8H48v112h40V40zM104 160h48V64h-48v8h40v80h-40z" fill="rgba(0,0,0,1)"/><path d="M72 52h8v16h-8zM56 52h8v16h-8zM72 76h8v16h-8zM56 76h8v16h-8zM72 100h8v16h-8zM56 100h8v16h-8zM112 80h8v16h-8zM112 104h8v16h-8z" fill="rgba(0,0,0,1)"/><path fill="none" stroke="rgba(0,0,0,1)" stroke-width="8" stroke-miterlimit="10" d="M132 80v16M132 104v16"/><path d="M128 80h8v16h-8zM128 104h8v16h-8z" fill="rgba(0,0,0,1)"/></svg>
