<?xml version="1.0" encoding="UTF-8"?>
<svg xmlns="http://www.w3.org/2000/svg" viewBox="0 0 192 192"><path d="M80 32h56v128H80V32zm48 8H88v112h40V40z" fill="rgba(0,0,0,1)"/><circle cx="48" cy="52" r="4" fill="rgba(0,0,0,1)"/><path d="M28.2 32.2c10.9-10.9 28.7-10.9 39.6 0l5.7-5.7c-14-14-36.9-14-50.9 0l5.6 5.7z" fill="rgba(0,0,0,1)"/><path d="M39.5 43.5c2.3-2.3 5.3-3.5 8.5-3.5s6.2 1.2 8.5 3.5l5.7-5.7C58.4 34.1 53.3 32 48 32s-10.4 2.1-14.1 5.9l5.6 5.6zM144 160h32V64h-32v8h24v80h-24zM48 66.3l24 24v11.4l-24-24-24 24V152h48v8H16V98.3zM112 52h8v16h-8zM96 52h8v16h-8zM112 76h8v16h-8zM96 76h8v16h-8zM112 100h8v16h-8zM96 100h8v16h-8z" fill="rgba(0,0,0,1)"/><path d="M152 80h8v16h-8zM152 104h8v16h-8zM52 104h8v16h-8zM36 104h8v16h-8z" fill="rgba(0,0,0,1)"/><g><path d="M52 128h8v16h-8z" fill="rgba(0,0,0,1)"/></g><g><path d="M36 128h8v16h-8z" fill="rgba(0,0,0,1)"/></g></svg>
