<?xml version="1.0" encoding="UTF-8"?>
<svg xmlns="http://www.w3.org/2000/svg" viewBox="0 0 192 192"><path d="M156 88V72c0-8.8-7.2-16-16-16V16H92v40c-8.8 0-16 7.2-16 16v48c0 8.8 7.2 16 16 16v40h48v-40c8.8 0 16-7.2 16-16v-16h8V88h-8zm-56-64h32v32h-32V24zm32 144h-32v-32h32v32zm16-48c0 4.4-3.6 8-8 8H92c-4.4 0-8-3.6-8-8V72c0-4.4 3.6-8 8-8h48c4.4 0 8 3.6 8 8v48zM58.8 49.2c1.6 1.6 1.6 4.1 0 5.7-1.6 1.6-4.1 1.6-5.7 0-1.6-1.6-1.6-4.1 0-5.7 1.6-1.6 4.2-1.6 5.7 0zm22.7-22.7l-5.7 5.7c-10.9-10.9-28.7-10.9-39.6 0l-5.7-5.7c14.1-14 36.9-14 51 0zM56 32c5.3 0 10.4 2.1 14.1 5.9l-5.7 5.7C62.2 41.2 59.2 40 56 40s-6.2 1.2-8.5 3.5l-5.7-5.7C45.6 34.1 50.7 32 56 32z" fill="rgba(0,0,0,1)"/></svg>
