<?xml version="1.0" encoding="UTF-8"?>
<svg xmlns="http://www.w3.org/2000/svg" viewBox="0 0 192 192"><circle cx="96" cy="152" r="8" fill="rgba(0,0,0,1)"/><path d="M104 40H88c-2.2 0-4-1.8-4-4s1.8-4 4-4h16c2.2 0 4 1.8 4 4s-1.8 4-4 4z" fill="rgba(0,0,0,1)"/><path d="M56 119V28c0-2.2 1.8-4 4-4h72c2.2 0 4 1.8 4 4v11l8-8v-3c0-6.6-5.4-12-12-12H60c-6.6 0-12 5.4-12 12v99l8-8zM136 73v91c0 2.2-1.8 4-4 4H60c-2.2 0-4-1.8-4-4v-11l-8 8v3c0 6.6 5.4 12 12 12h72c6.6 0 12-5.4 12-12V65l-8 8zM169.2 17.2l5.7 5.7-152 152-5.7-5.7 152-152" fill="rgba(0,0,0,1)"/></svg>
