<?xml version="1.0" encoding="UTF-8"?>
<svg xmlns="http://www.w3.org/2000/svg" viewBox="0 0 192 192"><path d="M120 36H80V16h-8v20c-6.6 0-12 5.4-12 12v116c0 6.6 5.4 12 12 12h48c6.6 0 12-5.4 12-12V48c0-6.6-5.4-12-12-12zm4 128c0 2.2-1.8 4-4 4H72c-2.2 0-4-1.8-4-4V48c0-2.2 1.8-4 4-4h48c2.2 0 4 1.8 4 4v116z" fill="rgba(0,0,0,1)"/><path d="M76 96h40V52H76v44zm8-36h24v28H84V60zM76 104h8v8h-8zM92 104h8v8h-8zM108 104h8v8h-8zM76 120h8v8h-8zM92 120h8v8h-8zM108 120h8v8h-8zM76 136h8v8h-8zM92 136h8v8h-8zM84 152h24v8H84zM108 136h8v8h-8z" fill="rgba(0,0,0,1)"/></svg>
