<?xml version="1.0" encoding="UTF-8"?>
<svg xmlns="http://www.w3.org/2000/svg" viewBox="0 0 192 192"><path d="M132 16H60c-6.6 0-12 5.4-12 12v136c0 6.6 5.4 12 12 12h72c6.6 0 12-5.4 12-12V28c0-6.6-5.4-12-12-12zm4 148c0 2.2-1.8 4-4 4H60c-2.2 0-4-1.8-4-4V72.3L71.8 85l7.2-4.8 7.7 5.1L72.5 110l6.9 4 5.4-9.5 21.8 7.3 2.5-7.6-20.3-6.8 8.4-14.7-11.1-7.4 12-8-4.4-6.7L72.2 75 56 62.1V28c0-2.2 1.8-4 4-4h72c2.2 0 4 1.8 4 4v136z" fill="rgba(0,0,0,1)"/><circle cx="96" cy="152" r="8" fill="rgba(0,0,0,1)"/><path d="M104 32H88c-2.2 0-4 1.8-4 4s1.8 4 4 4h16c2.2 0 4-1.8 4-4s-1.8-4-4-4z" fill="rgba(0,0,0,1)"/></svg>
