<?xml version="1.0" encoding="UTF-8"?>
<svg xmlns="http://www.w3.org/2000/svg" viewBox="0 0 192 192"><path d="M29.7 173.7l-11.3-11.3 144-144 11.3 11.3-144 144zM96 160c4.4 0 8-3.6 8-8s-3.6-8-8-8-8 3.6-8 8 3.6 8 8 8zm8-128H88c-2.2 0-4 1.8-4 4s1.8 4 4 4h16c2.2 0 4-1.8 4-4s-1.8-4-4-4zm-48-4c0-2.2 1.8-4 4-4h72c2.2 0 4 1.8 4 4v5.3l7.8-7.8c-1.1-5.5-6-9.6-11.8-9.6H60c-6.6 0-12 5.4-12 12v93.3l8-8V28zm80 136c0 2.2-1.8 4-4 4H60c-2.2 0-4-1.8-4-4v-5.3l-7.8 7.8c1.1 5.5 6 9.6 11.8 9.6h72c6.6 0 12-5.4 12-12V70.7l-8 8V164z" fill="rgba(0,0,0,1)"/></svg>
