<?xml version="1.0" encoding="UTF-8"?>
<svg xmlns="http://www.w3.org/2000/svg" viewBox="0 0 192 192"><circle cx="128" cy="152" r="8" fill="rgba(0,0,0,1)"/><path d="M136 40h-16c-2.2 0-4-1.8-4-4s1.8-4 4-4h16c2.2 0 4 1.8 4 4s-1.8 4-4 4zM97.2 85H37.4C25.6 85 16 75.4 16 63.6c0-10.1 7.1-18.7 16.7-20.9C34.9 33.1 43.5 26 53.6 26c1.9 0 3.8.2 5.6.7C64.4 20 72.5 16 81 16c15.2 0 27.7 12.4 27.7 27.7 0 .6 0 1.2-.1 1.8 6.2 3.9 10 10.7 10 18.1 0 11.8-9.6 21.4-21.4 21.4zM53.6 34c-7 0-12.9 5.5-13.4 12.5l-.2 3.4-3.5.2c-7 .5-12.5 6.4-12.5 13.4C24 71 30 77 37.4 77h59.8c7.4 0 13.4-6 13.4-13.4 0-5.3-3.1-10.1-7.9-12.3L99.8 50l.5-3.1c.2-1.1.3-2.2.3-3.3C100.7 32.8 91.8 24 81 24c-7 0-13.3 3.6-16.9 9.5l-1.8 3-3.2-1.4c-1.7-.7-3.6-1.1-5.5-1.1z" fill="rgba(0,0,0,1)"/><path d="M164 16h-60.7c2.9 2.3 5.4 5 7.4 8H164c2.2 0 4 1.8 4 4v136c0 2.2-1.8 4-4 4H92c-2.2 0-4-1.8-4-4V92h-8v72c0 6.6 5.4 12 12 12h72c6.6 0 12-5.4 12-12V28c0-6.6-5.4-12-12-12z" fill="rgba(0,0,0,1)"/></svg>
