<?xml version="1.0" encoding="UTF-8"?>
<svg xmlns="http://www.w3.org/2000/svg" viewBox="0 0 192 192"><path d="M163.7 114.5l-7.4 3 4.1 10.2-23.5-11.7 27.1-13.5v-37l-36-18-28 14V33.7l9.2 9.2 5.7-5.7L96 18.3 77.2 37.2l5.7 5.7 9.2-9.2v27.9l-28-14-36 18v36.9l27 13.5-23.4 11.7 4.1-10.2-7.4-3-9.5 23.7 23.7 9.5 3-7.4-11.7-4.7L60 122.5v28l36 18 36-18v-28l26.2 13.1-11.7 4.7 3 7.4 23.7-9.5-9.5-23.7zm-67.7 13L72.9 116l18.7-9.3c1.3.8 2.8 1.3 4.4 1.3s3.1-.5 4.4-1.3l18.7 9.3L96 127.5zm28-18l-20-10c-.2-2.8-1.7-5.1-4-6.4V74.5l24 12v23zM92 93.1c-2.3 1.3-3.8 3.7-4 6.4l-20 10v-23l24-12v18.6zm40 16.4v-23l24-12v23.1l-24 11.9zM151.1 68L128 79.5 104.9 68 128 56.5 151.1 68zm-64 0L64 79.5 40.9 68 64 56.5 87.1 68zM36 74.5l24 12v23.1l-24-12V74.5zm32 48l24 12v23.1l-24-12v-23.1zm32 35v-23.1l24-12v23.1l-24 12z" fill="rgba(0,0,0,1)"/></svg>
