<?xml version="1.0" encoding="UTF-8"?>
<svg xmlns="http://www.w3.org/2000/svg" viewBox="0 0 192 192"><circle cx="112" cy="152" r="8" fill="rgba(0,0,0,1)"/><path fill="none" stroke="rgba(0,0,0,1)" stroke-linecap="round" stroke-miterlimit="10" stroke-width="8" d="M104 36h16"/><circle cx="56" cy="52" r="4" fill="rgba(0,0,0,1)"/><path fill="none" stroke="rgba(0,0,0,1)" stroke-miterlimit="10" stroke-width="8" d="M33.4 29.4c12.5-12.5 32.8-12.5 45.3 0M44.7 40.7c6.2-6.2 16.4-6.2 22.6 0"/><path d="M148 16H79.5c3.4 2.2 6.5 4.9 9.1 8H148c2.2 0 4 1.8 4 4v136c0 2.2-1.8 4-4 4H76c-2.2 0-4-1.8-4-4V55h-4.4c-.6 2.3-1.9 4.4-3.6 5.9V164c0 6.6 5.4 12 12 12h72c6.6 0 12-5.4 12-12V28c0-6.6-5.4-12-12-12z" fill="rgba(0,0,0,1)"/></svg>
