<?xml version="1.0" encoding="UTF-8"?>
<svg xmlns="http://www.w3.org/2000/svg" viewBox="0 0 192 192"><path d="M132 16H60c-6.6 0-12 5.4-12 12v136c0 6.6 5.4 12 12 12h72c6.6 0 12-5.4 12-12V28c0-6.6-5.4-12-12-12zm4 148c0 2.2-1.8 4-4 4H60c-2.2 0-4-1.8-4-4V28c0-2.2 1.8-4 4-4h72c2.2 0 4 1.8 4 4v136z" fill="rgba(0,0,0,1)"/><circle cx="96" cy="152" r="8" fill="rgba(0,0,0,1)"/><path d="M104 32H88c-2.2 0-4 1.8-4 4s1.8 4 4 4h16c2.2 0 4-1.8 4-4s-1.8-4-4-4z" fill="rgba(0,0,0,1)"/><g><path d="M23.4 33.9l-6.8 4.2L27.3 56l-12 20 12 20-12 20 12 20-10.7 17.9 6.8 4.2L36.7 136l-12-20 12-20-12-20 12-20zM164.7 96l12-20-12-20 10.7-17.9-6.8-4.2L155.3 56l12 20-12 20 12 20-12 20 13.3 22.1 6.8-4.2-10.7-17.9 12-20z" fill="rgba(0,0,0,1)"/></g></svg>
