<?xml version="1.0" encoding="UTF-8"?>
<svg xmlns="http://www.w3.org/2000/svg" viewBox="0 0 192 192"><path d="M53.4 41.4l-4.2 6.8c4.4 2.7 8.4 5.9 11.9 9.7C70.7 68.3 76 81.8 76 96s-5.3 27.7-14.9 38.1c-3.5 3.8-7.5 7.1-11.9 9.7l4.2 6.8c5-3.1 9.5-6.8 13.6-11.1 10.9-11.9 17-27.3 17-43.5s-6.1-31.6-17.1-43.5c-4-4.3-8.5-8.1-13.5-11.1z" fill="rgba(0,0,0,1)"/><path d="M52 96c0-11.2-5.7-21.4-15.3-27.3l-4.2 6.8C39.7 79.9 44 87.6 44 96s-4.3 16.1-11.5 20.5l4.2 6.8C46.3 117.4 52 107.2 52 96z" fill="rgba(0,0,0,1)"/><path d="M68 96c0-16.8-8.6-32.2-23-41l-4.2 6.8C52.8 69.2 60 82 60 96c0 14-7.2 26.8-19.1 34.1L45 137c14.4-8.8 23-24.2 23-41z" fill="rgba(0,0,0,1)"/><path d="M148 16H76c-6.6 0-12 5.4-12 12v10.4c2.4 1.9 4.7 4 6.8 6.2.4.4.8.8 1.2 1.3V28c0-2.2 1.8-4 4-4h72c2.2 0 4 1.8 4 4v136c0 2.2-1.8 4-4 4H76c-2.2 0-4-1.8-4-4v-17.9c-.4.4-.8.9-1.2 1.3-2.1 2.2-4.4 4.3-6.8 6.2V164c0 6.6 5.4 12 12 12h72c6.6 0 12-5.4 12-12V28c0-6.6-5.4-12-12-12z" fill="rgba(0,0,0,1)"/><circle cx="112" cy="152" r="8" fill="rgba(0,0,0,1)"/><path d="M104 40h16c2.2 0 4-1.8 4-4s-1.8-4-4-4h-16c-2.2 0-4 1.8-4 4s1.8 4 4 4z" fill="rgba(0,0,0,1)"/></svg>
