<?xml version="1.0" encoding="UTF-8"?>
<svg xmlns="http://www.w3.org/2000/svg" viewBox="0 0 192 192"><path d="M171.5 132.3c-8.2-1.3-19.8-6.6-29.1-24.3-.3-.5-.5-.9-.7-1.2-.8-1.7-.8-2.8-.5-3.8 1.7-2.5 5-4 6.8-4.4 1.1 0 1.9-.4 2.6-.7l.8-.2c6.3-2.4 9.5-5.4 9.5-9.1 0-3.4-2-6.1-5.4-7.5-1.7-1.1-3.7-1.1-4.6-1.1-.9 0-2.9 0-4.1 1.3-1.9 1.3-4.6 1.7-5.9 1.5V80c0-2.3.1-4.8.1-7.2.3-9.2.5-18.8-2.6-25.1-10.5-23.3-31.9-25.8-41.3-25.8h-2.9c-8.7 0-30.1 2.5-40.5 25.7-3.8 7.7-3.4 19.8-2.5 32.5V82c-1.4.5-4.1.1-6.7-1.1-.7-.8-1.9-1.6-4-1.6-3.5 0-7.9 2.3-9.1 6l-.2 1.1c0 5 5 7.8 9.3 9.7l1 .3c.4.2 1 .5 1.8.6l1.1.4c2.5.9 5.8 2.2 6.4 3.7.4 1.3.5 2.4-.5 4.4l-.4.8v.2c-1.2 2.6-10.3 21.3-28.7 24.3-2.7 0-5 2.3-5 5.7l.2 1.1c1.4 4.3 7.7 7.2 20.7 9.3.2.5.4 1.2.6 2.2 0 1.3.1 2.5.8 4.2.3 1.5 1.5 3.9 5.6 3.9 1 0 1.8-.3 2.9-.7 1.1 0 2.3-.1 3.7-.3 2.1-.3 4.8-.5 7.6-.1 1.3.2 2.5.4 3.2.4 3.5.6 7.2 2.4 10.9 5.2l1.7 1.1c5.4 3.5 11.6 7.4 21 7.4h2.2c6.7 0 11.9-2.3 16.4-4.4 1.8-.8 3.6-1.6 6-2.5 1.4-.7 2.7-1.5 4-2.2 2.6-1.5 4.9-2.8 7.7-3.3 3.9-1.3 9.5-.8 12.3-.1 1.6 1 3.6 1 4.5 1 3.7 0 5.7-2.6 5.9-5.7.2-.6.5-1.6.5-2.2l.3-1.6c.1-.3.1-.6.1-.8 13-2.1 19.5-5 21-9.4l.2-1.9c-.2-2.6-2.7-4.8-4.7-4.8z" fill="rgba(0,0,0,1)"/></svg>
