<?xml version="1.0" encoding="UTF-8"?>
<svg xmlns="http://www.w3.org/2000/svg" viewBox="0 0 192 192"><path d="M175.9 111l-7.8 1.9c.7 2.7.1 5.4-1.6 7.6-1.1 1.4-2.4 2.3-4 2.9l-5.7-14.3 17-7.3-2.4-3.9c-12.1-20.2-41.3-28.7-45.1-29.7L108.9 60H96v8h11.1l12 5.7c-2.4 2.8-7.1 6.3-15.2 6.3H68.8l-20-8H48c-13.6 0-25.8 15.8-27.2 17.6l-3.7 5 50 10.9C53.3 106.6 35 108 28 108c-4.9 0-7.9 2-9.6 3.7-2.2 2.2-3.4 5.2-3.4 8.3 0 6 4.5 12 13 12h40c9.6 0 15-3.9 19.6-14.3l3.5-7 24.4 5.3h25.3l8.6-3.7 4.7 11.7H128v8h31.5c5.2 0 10.1-2.4 13.3-6.5 3.2-4.1 4.3-9.4 3.1-14.5zm-95.5 3.2l-.1.2c-3.7 8.3-6.7 9.6-12.3 9.6H28c-3.7 0-5-2.2-5-4 0-1 .4-2 1.1-2.7.9-.9 2.2-1.3 3.9-1.3 10.4 0 43.2-2.8 53.4-3.8l-1 2zm58.8-6.2h-22.7l-85-18.5c4.2-4.2 10.3-9.1 15.8-9.5l19.9 8H104c13.1 0 19.9-7 22.9-11.3 7 2.3 25.1 9 35.1 21.5l-22.8 9.8z" fill="rgba(0,0,0,1)"/></svg>
