<?xml version="1.0" encoding="UTF-8"?>
<svg xmlns="http://www.w3.org/2000/svg" viewBox="0 0 192 192"><path d="M174 107.3c-1.5-5.5-5-10.1-9.9-12.9l-37.3-21.5c-.1-.1-.2-.1-.4-.2s-.4-.2-.5-.3c-.4-.2-.9-.4-1.3-.6-.2-.1-.3-.1-.5-.2-.5-.2-1-.4-1.5-.5-.1 0-.3-.1-.4-.1-.5-.2-1.1-.3-1.6-.4-.1 0-.3 0-.4-.1-.6-.1-1.1-.2-1.7-.3h-.5c-.5 0-1.1-.1-1.6-.1h-.7c-.4 0-.9 0-1.3.1-.4 0-.7.1-1 .1-.1 0-.3 0-.4.1.5-1.1 1-2.3 1.3-3.6 1.5-5.4.7-11-2.1-15.9l-.3-.5c-2.8-4.8-7.3-8.3-12.7-9.7-5.4-1.4-11-.7-15.9 2.1L46.1 64.3c-10.3 5.9-13.8 19.1-7.9 29.4.5.9 1.1 1.7 1.7 2.4h-1.3c-11.7 0-21.2 9.5-21.2 21.2v1.5c0 11.7 9.5 21.2 21.2 21.2h46.3c11.7 0 21.2-9.5 21.2-21.2v-1.5c0-3.1-.7-6-1.8-8.6.3.2.5.4.8.5.2.1.4.3.6.4l37.3 21.5c3.3 1.9 6.9 2.8 10.5 2.8 1.9 0 3.7-.2 5.6-.7 5.5-1.5 10.1-5 12.9-9.9 2.7-4.8 3.5-10.5 2-16zM93.7 48.1c7.3 0 13.2 5.9 13.2 13.2 0 7.3-5.9 13.2-13.2 13.2-7.3 0-13.2-5.9-13.2-13.2 0-7.3 5.9-13.2 13.2-13.2zM50.1 71.2l22.7-13.1c-.2 1-.3 2.1-.3 3.2 0 9 5.6 16.6 13.5 19.7L62.8 94.4c-3 1.7-6.5 2.2-9.8 1.3-3.3-.9-6.1-3-7.9-6-3.7-6.5-1.4-14.7 5-18.5zm46.2 13.1c-.1.2-.2.5-.3.7-.2.7-.4 1.3-.5 2v.1c-.1.6-.2 1.3-.3 2v.3c-.1.6-.1 1.2-.1 1.8V91.8c0 .5 0 1 .1 1.5 0 .3.1.6.1.9.1.4.1.8.2 1.1.1.3.1.7.2 1 .1.3.2.6.2.9.1.4.2.7.3 1.1l.3.9c.1.3.2.5.3.8-3.4-2.4-7.6-3.8-12.1-3.8h-9l20.6-11.9zm-57 47.7c-7.7 0-13.9-6.3-13.9-13.9s6.3-13.9 13.9-13.9 13.9 6.3 13.9 13.9S47 132 39.3 132zm58.8-13.2c0 7.3-5.9 13.2-13.2 13.2H56.2c3.1-3.8 5-8.7 5-13.9 0-5.3-1.9-10.1-5-13.9h28.7c7.3 0 13.2 5.9 13.2 13.2v1.4zm11.2-16.3c-.2-.1-.4-.3-.6-.4-.2-.1-.4-.3-.6-.4-.1-.1-.3-.2-.4-.3-.2-.2-.4-.4-.7-.6l-.2-.2c-.2-.2-.4-.5-.6-.7-.1-.1-.1-.2-.2-.2-.2-.2-.4-.5-.6-.7-.1-.1-.1-.2-.2-.3-.2-.2-.3-.5-.4-.7-.1-.1-.1-.3-.2-.4-.1-.2-.2-.5-.3-.7-.1-.2-.1-.3-.2-.5s-.2-.5-.2-.7c-.1-.2-.1-.4-.2-.5-.1-.2-.1-.5-.2-.7 0-.2-.1-.3-.1-.5-.1-.3-.1-.6-.1-.9v-.3c0-.4-.1-.8-.1-1.1v-.1c0-4.9 2.8-9.3 6.8-11.5.1 0 .1-.1.2-.1.2-.1.5-.3.8-.4.2-.1.4-.2.5-.2.2-.1.4-.1.5-.2.3-.1.5-.2.8-.2.2-.1.4-.1.6-.2.2 0 .3-.1.5-.1.3-.1.7-.1 1-.2h.3c.4 0 .8-.1 1.2-.1h.5c.3 0 .7 0 1 .1.2 0 .5.1.7.1.3 0 .5.1.8.2.2.1.5.1.7.2.3.1.5.2.8.3.2.1.5.2.7.3.4.2.8.4 1.1.6 4.1 2.3 6.8 6.6 6.8 11.6 0 7.3-5.9 13.2-13.2 13.2-2.6-.5-4.9-1.2-7-2.5zm55.7 16.9c-1.8 3-4.6 5.2-8 6.1-3.4.9-7 .5-10-1.3L124 111c7.9-3.1 13.5-10.8 13.5-19.7 0-1.1-.1-2.1-.3-3.2l22.9 13.2c3 1.8 5.2 4.6 6.1 8 1 3.5.5 7.1-1.2 10.1z" fill="rgba(0,0,0,1)"/></svg>
