<?xml version="1.0" encoding="UTF-8"?>
<svg xmlns="http://www.w3.org/2000/svg" viewBox="0 0 192 192"><path d="M37.9 74.08h30.6L74.7 92h8.5L57.6 20h-8L23.7 92h8.1zm15.3-44.41l12.9 37.46H40.3zM76.61 108.36V100H31.8v6.95h36.3l-38.4 57.5V172h47.5v-6.95H38.8l37.81-56.69zM140 18.34l-34.83 34.83 5.66 5.66L136 33.66V120h8V33.66l25.17 25.17 5.66-5.66L140 18.34z" fill="rgba(0,0,0,1)"/><path d="M120 154.34V68h-8v86.34l-25.17-25.17-5.66 5.66L116 169.66l34.83-34.83-5.66-5.66L120 154.34z" fill="rgba(0,0,0,1)"/></svg>
