<?xml version="1.0" encoding="UTF-8"?>
<svg xmlns="http://www.w3.org/2000/svg" viewBox="0 0 192 192"><path d="M96 176c-44.1 0-80-35.9-80-80s35.9-80 80-80 80 35.9 80 80-35.9 80-80 80zm0-152c-39.7 0-72 32.3-72 72s32.3 72 72 72 72-32.3 72-72-32.3-72-72-72z" fill="rgba(0,0,0,1)"/><path d="M75 47s2-3 7-3 7 2 7 2h5c2 0 5 2 6 3s0 1 2 2 5-1 9 2 3 4 4 6 4 3 4 3 13 6 16 9 4 5 4 9-4 11-4 11-2 4-5 6-3 3-5 4-4 2-5 4-11 15-12 17-5 3-7 4-5 4-6 8-1 8 1 10c0 0 2 0 2 3s-7 3-11 1-4-3-6-10c-1-3.3-1.7-11.6-1-20 .7-9.2 3-16 3-22s-6-6-6-6-4-2-5-7-3-4-5-6-5-7-3-10c.7-1.1.9-3 2-4 2-1.8 4-2.7 4-4 0-2-1-5 1-7 .6-.6 1.2-2.3 1.8-3 1.2-1.6 2.2-2 2.2-2z" fill="rgba(0,0,0,1)"/></svg>
