<?xml version="1.0" encoding="UTF-8"?>
<svg xmlns="http://www.w3.org/2000/svg" viewBox="0 0 192 192"><path d="M16 60h16v95.1l20 5 20-5V60h16V32H16v28zm24-8V40h24v12H40zm0 65.1l24 6v7.8l-24-6v-7.8zm0-8.2v-7.8l24 6v7.8l-24-6zm24-10l-24-6v-7.8l24 6v7.8zm-12 53l-12-3v-15.8l24 6v9.8l-12 3zm12-69l-24-6V60h24v22.9zM80 52h-8V40h8v12zM24 40h8v12h-8V40zM140 53.3l-36 22.5v40.4l36 22.5 36-22.5V75.8l-36-22.5zm28 58.5l-28 17.5-28-17.5V80.2l28-17.5 28 17.5v31.6z" fill="rgba(0,0,0,1)"/><path d="M120 96c0 11 9 20 20 20s20-9 20-20-9-20-20-20-20 9-20 20zm32 0c0 6.6-5.4 12-12 12s-12-5.4-12-12 5.4-12 12-12 12 5.4 12 12z" fill="rgba(0,0,0,1)"/></svg>
