<?xml version="1.0" encoding="UTF-8"?>
<svg xmlns="http://www.w3.org/2000/svg" viewBox="0 0 192 192"><path d="M156.3 42.7l-6.5-6.5-5.7 5.7 6.5 6.5c3.1 3.1 3.1 8.2 0 11.3l-6.7 6.7-6.3-6.3 7.2-7.2-5.7-5.7-7.2 7.2-12-12-32 32-6-6L60.3 90l6 6-16 16 6 6-20 20 6 6-9.2 9.2 5.7 5.7 9.2-9.2 6 6 20-20 6 6 16-16 6 6 21.7-21.7-6-6 29.2-29.2 9.5-9.5c3-3 4.7-7 4.7-11.3s-1.7-8.3-4.8-11.3zM54 144.3l-6.3-6.3L62 123.7l6.3 6.3L54 144.3zm26-14l-.3-.3L62 112.3l-.3-.3L72 101.7 90.3 120 80 130.3zm32.3-20.3L102 120.3l-.3-.3L72 90.3l-.3-.3L82 79.7l.3.3 29.7 29.7.3.3zm-.3-11.7L93.7 80 120 53.7 138.3 72 112 98.3z" fill="rgba(0,0,0,1)"/></svg>
