<?xml version="1.0" encoding="UTF-8"?>
<svg xmlns="http://www.w3.org/2000/svg" viewBox="0 0 192 192"><path d="M92.3 134.6c-.2.4-.3.9-.3 1.4 0 2.2 1.8 4 4 4 1.7 0 3.2-1.1 3.7-2.6l14.1-37.4-7.5-2.8-14 37.4zM135.3 102c8.2 9.4 12.7 21.5 12.7 34h8c0-14.4-5.2-28.4-14.6-39.3l-6.1 5.3zM99.7 84.1c11.3.8 21.7 5.1 30.3 12.5l5.2-6c-9.9-8.6-22-13.6-35-14.5l-.5 8zM91.7 76.2c-13 .9-25.1 5.9-34.9 14.4l5.2 6.1c8.5-7.4 19-11.7 30.3-12.5l-.6-8zM36 136h8c0-12.5 4.5-24.6 12.7-34.1l-6-5.2C41.2 107.6 36 121.5 36 136z" fill="rgba(0,0,0,1)"/><path d="M96 56c-44.1 0-80 35.9-80 80h8c0-39.7 32.3-72 72-72s72 32.3 72 72h8c0-44.1-35.9-80-80-80z" fill="rgba(0,0,0,1)"/></svg>
