<?xml version="1.0" encoding="UTF-8"?>
<svg xmlns="http://www.w3.org/2000/svg" viewBox="0 0 192 192"><path d="M166.1 120.3c-2-3.3-6-5.8-10.9-6.9l17.3-21.7-18.5.6-28.6-28.6-30 5L99.6 94l-72.4 2.2 3.9 19.4c-2.2 1.2-4 2.9-5.1 4.8-1 1.8-4.9 3.7-9.9 3.7v8c7.5 0 14-3 16.8-7.6 1.1-1.8 4.9-3.7 9.9-3.7s8.8 1.9 9.9 3.7c2.7 4.6 9.3 7.6 16.8 7.6s14-3 16.8-7.6c1-1.8 4.9-3.7 9.9-3.7s8.8 1.9 9.9 3.7c2.7 4.6 9.3 7.6 16.8 7.6s14-3 16.8-7.6c1-1.8 4.9-3.7 9.9-3.7s8.8 1.9 9.9 3.7c2.7 4.6 9.3 7.6 16.8 7.6v-8c-5.3-.1-9.1-2-10.2-3.8zm-61.5-45l18-3L143 92.6l-35.3 1.1-3.1-18.4zm28 45c-1 1.8-4.9 3.7-9.9 3.7s-8.8-1.9-9.9-3.7c-2.7-4.6-9.3-7.6-16.8-7.6s-14 3-16.8 7.6c-1 1.8-4.9 3.7-9.9 3.7s-8.8-1.9-9.9-3.7c-2.7-4.6-9.3-7.6-16.8-7.6-1.4 0-2.7.1-4 .3l-1.8-9.2 118.6-3.6-10.2 12.8c-5.7.9-10.4 3.6-12.6 7.3z" fill="rgba(0,0,0,1)"/></svg>
