<?xml version="1.0" encoding="UTF-8"?>
<svg xmlns="http://www.w3.org/2000/svg" viewBox="0 0 192 192"><path d="M120.2 128.1c-14.2-9.5-28.7-19-42.8-28.2l-.6-.4L106.3 48H140V16H68v32h29.1L69.5 96.2c-2.4-.4-4.9-.3-7.3.6-4.4 1.5-7.8 4.9-9.4 9.3-2.3 6.5.4 11.7 2.6 15 6.5 9.7 13 19.6 19.3 29.3 2.8 4.3 5.6 8.6 8.4 12.8 5.6 8.5 13.2 12.7 23.2 12.8h.6c.2 0 .4 0 .7-.1 1-.1 2.5-.2 4-.6 11.2-2.9 18.1-10.3 19.9-21.2 1.8-10.6-2.2-19.9-11.3-26zM76 24h56v16H76V24zm47.7 128.8c-1.3 7.8-5.9 12.6-14 14.7-.8.2-1.8.3-2.6.4-.3 0-.5 0-.7.1-7.3-.2-12.3-3-16.4-9.2-2.8-4.3-5.6-8.5-8.4-12.8-6.3-9.6-12.8-19.6-19.3-29.3-2.1-3.2-2.6-5.4-1.7-7.9.7-2.1 2.3-3.7 4.4-4.4.7-.2 1.5-.4 2.2-.4 1.3 0 2.6.4 3.8 1.1l2.3 1.5c14 9.2 28.5 18.6 42.7 28.1 6.3 4.4 9 10.5 7.7 18.1z" fill="rgba(0,0,0,1)"/><path d="M164 112c0-13.2-10.8-24-24-24s-24 10.8-24 24h8c0-8.8 7.2-16 16-16s16 7.2 16 16c0 5.9-3.2 11.1-8 13.8V120h-8v20h20v-8h-6.8c6.5-4.3 10.8-11.7 10.8-20z" fill="rgba(0,0,0,1)"/></svg>
