<?xml version="1.0" encoding="UTF-8"?>
<svg xmlns="http://www.w3.org/2000/svg" viewBox="0 0 192 192"><path d="M96 16c-44.1 0-80 35.9-80 80s35.9 80 80 80 80-35.9 80-80-35.9-80-80-80zm0 8c31.7 0 58.6 20.6 68.2 49-18.5-5.8-42.7-9-68.2-9-25.4 0-49.7 3.2-68.2 9C37.4 44.5 64.3 24 96 24zm-71.5 80c10.2 0 27.3.7 38.2 8.4 12.7 8.9 13.3 26.5 13.3 52.8-27.5-8-48.3-32-51.5-61.2zM84 167c0-28.8-.5-49.7-16.7-61.2C54.2 96.6 35 96 24 96c0-4.7.5-9.3 1.3-13.7C43.5 75.7 69 72 96 72c27.1 0 52.5 3.7 70.7 10.2.9 4.5 1.3 9 1.3 13.7-11 0-30.2.6-43.3 9.8-16.2 11.6-16.7 32.5-16.7 61.3-3.9.7-7.9 1-12 1s-8.1-.4-12-1zm32-1.8c0-26.3.7-43.9 13.3-52.8 10.9-7.7 28-8.3 38.2-8.4-3.2 29.2-24 53.2-51.5 61.2z" fill="rgba(0,0,0,1)"/><path d="M96 84c-6.6 0-12 5.4-12 12s5.4 12 12 12 12-5.4 12-12-5.4-12-12-12zm0 16c-2.2 0-4-1.8-4-4s1.8-4 4-4 4 1.8 4 4-1.8 4-4 4z" fill="rgba(0,0,0,1)"/></svg>
