<?xml version="1.0" encoding="UTF-8"?>
<svg xmlns="http://www.w3.org/2000/svg" viewBox="0 0 192 192"><circle cx="56" cy="52" r="4" fill="rgba(0,0,0,1)"/><path d="M75.8 32.2c-10.9-10.9-28.7-10.9-39.6 0l-5.7-5.7c14-14 36.9-14 50.9 0l-5.6 5.7z" fill="rgba(0,0,0,1)"/><path d="M64.5 43.5C62.2 41.2 59.2 40 56 40s-6.2 1.2-8.5 3.5l-5.7-5.7C45.6 34.1 50.7 32 56 32s10.4 2.1 14.1 5.9l-5.6 5.6zM104 32c-5 0-9.8.5-14.5 1.5L77 46c8.2-3.8 17.4-6 27-6 35.3 0 64 28.7 64 64s-28.7 64-64 64-64-28.7-64-64c0-15.2 5.4-29.2 14.3-40.2-2.5-.4-4.9-1.5-6.7-3.4-.2-.2-.3-.3-.4-.5C37.7 72.1 32 87.4 32 104c0 39.7 32.3 72 72 72s72-32.3 72-72-32.3-72-72-72z" fill="rgba(0,0,0,1)"/><path d="M104 116c-6.6 0-12-5.4-12-12s5.4-12 12-12 12 5.4 12 12-5.4 12-12 12zm0-16c-2.2 0-4 1.8-4 4s1.8 4 4 4 4-1.8 4-4-1.8-4-4-4z" fill="rgba(0,0,0,1)"/><path d="M170.4 95.3C154.1 88.1 129.9 84 104 84c-25.3 0-49.1 4-65.4 10.9l-3.1-7.4C52.7 80.2 77.7 76 104 76c27 0 52.3 4.4 69.6 12l-3.2 7.3z" fill="rgba(0,0,0,1)"/><g><path d="M124 170h-8v-8.7c-.2-22.8-.3-39.2 13.4-48.9 12.3-8.7 30.6-8.5 40.4-8.4h2.2v8h-2.3c-8.3-.1-25.5-.2-35.7 7-9.9 6.9-10.2 19.3-10 42.3v8.7z" fill="rgba(0,0,0,1)"/></g><g><path d="M92 170h-8v-8.4c.2-21.2.3-35.3-10.1-42.6-10.3-7.2-27.4-7.1-35.7-7H36v-8h2.2c9.8-.1 28-.2 40.4 8.5 13.8 9.7 13.7 26.3 13.5 49.2-.1 2.6-.1 5.4-.1 8.3z" fill="rgba(0,0,0,1)"/></g></svg>
