<?xml version="1.0" encoding="UTF-8"?>
<svg xmlns="http://www.w3.org/2000/svg" viewBox="0 0 192 192"><circle cx="96" cy="72" r="8" fill="rgba(0,0,0,1)"/><path d="M47.6 63.7l-3.1-7.4C57.3 50.8 74.7 48 96.1 48c22.1 0 39 2.7 51.6 8.3l-3.2 7.3c-11.6-5.1-27.4-7.6-48.4-7.6-20.1.1-36.9 2.7-48.5 7.7zM147.4 176c-7.5 0-12.1-.6-19.8-7.1-1.5-1.2-2.8-2.6-4.1-4l-15.1-17.6c-2.6-3-3.7-7-2.9-11 .8-3.9 3.3-7.2 6.9-9 5-2.5 11-1.5 14.9 2.4l.6.6V120c0-14.4 8-24 20-24 15.4 0 28 14.4 28 32v24.9c0 12.7-10.2 23.1-22.7 23.1h-5.8zm-29.2-42.1c-.8 0-1.5.2-2.2.5-1.4.7-2.3 1.9-2.6 3.4-.3 1.5.1 3 1.1 4.2l15.1 17.6c.9 1.1 2 2.1 3.1 3.1 6.3 5.3 8.4 5.3 17.1 5.2h3.4c8.1 0 14.7-6.8 14.7-15.1V128c0-11.5-7.6-24-20-24-5.5 0-12 4.2-12 16v29.7l-14.3-14.3c-.8-1-2.1-1.5-3.4-1.5zM43.6 176h-6C25.2 176 15 165.7 15 152.9V128c0-17.6 12.6-32 28-32 12 0 20 9.6 20 24v10.3l.6-.6c3.9-3.9 9.9-4.9 14.9-2.4 3.6 1.8 6.1 5.1 6.9 9 .8 3.9-.2 7.9-2.9 11l-15.1 17.6c-1.2 1.4-2.6 2.8-4.1 4-7.6 6.5-12.1 7.1-19.7 7.1zm-.6-72c-12.4 0-20 12.5-20 24v24.9c0 8.3 6.6 15.1 14.7 15.1h3.4c8.8.1 10.8.1 17.1-5.2 1.1-.9 2.2-2 3.1-3.1l15.1-17.6c1-1.2 1.4-2.7 1.1-4.2-.3-1.5-1.3-2.8-2.6-3.4-1.9-1-4.2-.6-5.7.9L55 149.7V120c0-11.8-6.5-16-12-16z" fill="rgba(0,0,0,1)"/><path fill="none" d="M114.9 77.7c8.8-6.2 21.2-6 29.1-5.8-.1-26.4-21.6-47.9-48-47.9S48.1 45.5 48 71.9c7.9-.2 20.3-.4 29.1 5.8 11.1 7.8 11 21.2 10.9 39.8v1.8c2.6.4 5.3.7 8 .7s5.4-.2 8-.7v-1.8c-.1-18.6-.2-32 10.9-39.8z"/><path d="M51.2 89.2c-1.1-3-2-6.1-2.5-9.3h-1.3c-1.4.1-2.5.1-3.4.1v-8c.9 0 1.9 0 3.1-.1h.9C48.1 45.5 69.6 24 96 24s47.9 21.5 48 47.9h.9c1.2 0 2.2.1 3.1.1v8c-.9 0-2 0-3.3-.1h-1.3c-.5 3.1-1.3 6.1-2.4 9 2.4-.6 5-1 7.7-1h1.1c1.5-5.1 2.3-10.4 2.3-16 0-30.9-25.1-56-56-56S40 41.1 40 72c0 5.5.8 10.9 2.3 15.9h.1c3.1 0 6.1.5 8.8 1.3z" fill="rgba(0,0,0,1)"/><path d="M77.1 77.7c-8.8-6.2-21.2-6-29.1-5.8v.1c0 2.7.2 5.3.7 7.9 6.9-.2 17.3-.2 23.8 4.3 7.7 5.4 7.6 16 7.6 32.6 1.1.6 5.6 2.1 8 2.5v-1.8c0-18.6.1-32-11-39.8z" fill="rgba(0,0,0,1)"/><path d="M48 71.9h-.9c-1.2.1-2.2.1-3.1.1v8c.9 0 2 0 3.3-.1h1.3c-.4-2.6-.6-5.2-.6-7.9v-.1zM112 116.9c-.1-16.4 0-27.3 7.6-32.6 6.5-4.6 16.9-4.6 23.8-4.3.4-2.6.7-5.2.7-7.9V72c-7.9-.2-20.3-.4-29.1 5.8-11.1 7.8-11 21.2-10.9 39.8v1.8c1.4-.3 6.2-1.8 7.9-2.5z" fill="rgba(0,0,0,1)"/><path d="M143.3 79.9h1.3c1.3 0 2.4.1 3.3.1v-8c-.9 0-1.9 0-3.1-.1h-.9v.1c.1 2.7-.1 5.3-.6 7.9z" fill="rgba(0,0,0,1)"/></svg>
