<?xml version="1.0" encoding="UTF-8"?>
<svg xmlns="http://www.w3.org/2000/svg" viewBox="0 0 192 192"><path d="M96 44c-28.7 0-52 23.3-52 52s23.3 52 52 52 52-23.3 52-52-23.3-52-52-52zm0 8c18.3 0 34.1 11.3 40.7 27.2C125.3 76 111 74.3 96 74.3c-14.9 0-29.3 1.8-40.7 4.9C61.9 63.3 77.7 52 96 52zm-43.5 50.5c6.3.1 15.6.8 21.6 5 7.1 5 7.7 15.1 7.8 30.1-15.4-5.2-27-18.6-29.4-35.1zm37.4 37.1c0-18-.5-31.1-11.2-38.6-8-5.7-19.4-6.4-26.7-6.5.1-2.1.3-4.1.6-6.1 11.3-3.9 26.8-6.1 43.3-6.1 16.5 0 32.1 2.2 43.3 6.1.3 2 .6 4 .6 6.1-7.2.1-18.6.8-26.7 6.5-10.6 7.5-11.2 20.6-11.2 38.6-2 .3-4 .4-6.1.4s-3.9-.2-5.9-.4zm20.2-1.9c.1-15 .7-25.1 7.8-30.1 6-4.2 15.3-4.9 21.6-5-2.4 16.4-14 29.8-29.4 35.1z" fill="rgba(0,0,0,1)"/><path d="M168 96c0 39.7-32.3 72-72 72s-72-32.3-72-72 32.3-72 72-72c21.8 0 41 9.9 54.7 28h-13.9c2.6 2.4 5.1 5.1 7.2 8h20V16h-8v29.8C140.8 26.5 119.8 16 96 16c-44.1 0-80 35.9-80 80s35.9 80 80 80 80-35.9 80-80h-8z" fill="rgba(0,0,0,1)"/></svg>
