<?xml version="1.0" encoding="UTF-8"?>
<svg xmlns="http://www.w3.org/2000/svg" viewBox="0 0 192 192"><path d="M58 60c-14.6 0-26 22-26 50 0 8.8 2.6 21.1 4.1 27l.8 3h42.2l.8-3c1.5-5.9 4.1-18.2 4.1-27 0-28-11.4-50-26-50zm14.9 72H43.1c-1.6-6.9-3.1-15.9-3.1-22 0-24.8 9.5-42 18-42s18 17.2 18 42c0 6.1-1.5 15.1-3.1 22zM36 154c0 12.1 9.9 22 22 22s22-9.9 22-22v-6H36v6zm35.9 2c-1 6.8-6.8 12-13.9 12s-12.9-5.2-13.9-12h27.8zM112.9 96h42.2l.8-3c1.5-5.9 4.1-18.2 4.1-27 0-28-11.4-50-26-50s-26 22-26 50c0 8.8 2.6 21.1 4.1 27l.8 3zM134 24c8.5 0 18 17.2 18 42 0 6.1-1.5 15.1-3.1 22h-29.7c-1.6-6.9-3.1-15.9-3.1-22-.1-24.8 9.4-42 17.9-42zM112 110c0 12.1 9.9 22 22 22s22-9.9 22-22v-6h-44v6zm35.9 2c-1 6.8-6.8 12-13.9 12s-12.9-5.2-13.9-12h27.8z" fill="rgba(0,0,0,1)"/></svg>
