<?xml version="1.0" encoding="UTF-8"?>
<svg xmlns="http://www.w3.org/2000/svg" viewBox="0 0 192 192"><path d="M148 116.5V98c0-12.1-9.9-22-22-22s-22 9.9-22 22v50c0 11-9 20-20 20s-20-9-20-20v-44.3c13.6-1.9 24-13.6 24-27.7V28c0-6.6-5.4-12-12-12h-4v8h4c2.2 0 4 1.8 4 4v48c0 11-9 20-20 20s-20-9-20-20V28c0-2.2 1.8-4 4-4h4v-8h-4c-6.6 0-12 5.4-12 12v48c0 14.1 10.4 25.8 24 27.7V148c0 15.4 12.6 28 28 28s28-12.6 28-28V98c0-7.7 6.3-14 14-14s14 6.3 14 14v18.5c-6.9 1.8-12 8-12 15.5 0 8.8 7.2 16 16 16s16-7.2 16-16c0-7.4-5.1-13.7-12-15.5zm-4 23.5c-4.4 0-8-3.6-8-8s3.6-8 8-8 8 3.6 8 8-3.6 8-8 8z" fill="rgba(0,0,0,1)"/></svg>
