<?xml version="1.0" encoding="UTF-8"?>
<svg xmlns="http://www.w3.org/2000/svg" viewBox="0 0 192 192"><path d="M159.8 72c-2.1-26.8-24.5-48-51.8-48h-4v48H69.7l-24-24H32v8h10.3l16 16H48v22.9c0 11.6 9.5 21.1 21.1 21.1h25.2l-8.4 8.4C82 121.7 77.2 120 72 120c-13.2 0-24 10.8-24 24s10.8 24 24 24 24-10.8 24-24c0-5.2-1.7-10-4.4-13.9l12.4-12.4 12.4 12.4c-2.8 3.9-4.4 8.7-4.4 13.9 0 13.2 10.8 24 24 24s24-10.8 24-24-10.8-24-24-24c-5.2 0-10 1.7-13.9 4.4l-8.4-8.4h25.2c11.6 0 21.1-9.5 21.1-21.1V72h-.2zM112 32.2c21.1 1.9 37.9 18.7 39.8 39.8H112V32.2zM56 94.9V80h10.3l28 28H69.1c-7.2 0-13.1-5.9-13.1-13.1zM88 144c0 8.8-7.2 16-16 16s-16-7.2-16-16 7.2-16 16-16c3 0 5.7.8 8.1 2.2l-10.9 10.9 5.7 5.7 10.9-10.9c1.4 2.4 2.2 5.1 2.2 8.1zm48-16c8.8 0 16 7.2 16 16s-7.2 16-16 16-16-7.2-16-16c0-3 .8-5.7 2.2-8.1l10.9 10.9 5.7-5.7-10.9-10.9c2.4-1.4 5.1-2.2 8.1-2.2zm16-33.1c0 7.2-5.9 13.1-13.1 13.1h-33.2l-28-28H152v14.9z" fill="rgba(0,0,0,1)"/></svg>
