<?xml version="1.0" encoding="UTF-8"?>
<svg xmlns="http://www.w3.org/2000/svg" viewBox="0 0 192 192"><path d="M25.7 177.7l-11.3-11.3 152-152 11.3 11.3-152 152zM32 112h25.3l8-8H32v8zm0 8c-4.4 0-8-3.6-8-8V48c0-4.4 3.6-8 8-8h97.3l8-8H32c-8.8 0-16 7.2-16 16v64c0 8.8 7.2 16 16 16h9.3l8-8H32zm128-16h-49.3l-8 8H160v-8zM32 96h41.3l8-8H32v8zm92-5.3l-5.3 5.3h5.3v-5.3zm36-2.7h-28v8h28v-8zm7.9-41.2c.1.4.1.8.1 1.2v64c0 4.4-3.6 8-8 8h-16v22.3L121.7 120h-27l-8 8h31.7l33.7 33.7V128h8c8.8 0 16-7.2 16-16V48c0-2.7-.7-5.2-1.9-7.5l-6.3 6.3z" fill="rgba(0,0,0,1)"/></svg>
