<?xml version="1.0" encoding="UTF-8"?>
<svg xmlns="http://www.w3.org/2000/svg" viewBox="0 0 192 192"><path d="M170.8 26.8l-144 144-5.7-5.7 144-144 5.7 5.7zm-4.7 16.1c1.2 1.4 1.9 3.2 1.9 5.1v64c0 4.4-3.6 8-8 8h-16v22.3L121.7 120H89l-8 8h37.3l33.7 33.7V128h8c8.8 0 16-7.2 16-16V48c0-4.1-1.6-7.9-4.2-10.8l-5.7 5.7zM32 120c-4.4 0-8-3.6-8-8V48c0-4.4 3.6-8 8-8h103l8-8H32c-8.8 0-16 7.2-16 16v64c0 8.8 7.2 16 16 16h15l8-8H32zm0-8h31l8-8H32v8zm128-8h-55l-8 8h63v-8zm-36-16h-3l-8 8h11v-8zm-92 8h47l8-8H32v8zm128-8h-28v8h28v-8z" fill="rgba(0,0,0,1)"/></svg>
