<?xml version="1.0" encoding="UTF-8"?>
<svg xmlns="http://www.w3.org/2000/svg" viewBox="0 0 192 192"><path d="M167.4 100.3l-25.8 15.1L108 96l33.6-19.4 25.8 15.1 4-6.9L149.5 72l21.8-12.5-4-7-21.8 12.6-.1-25.4-8 .1.2 29.9L104 89.1V50.3l26-14.8-4-7-22 12.6V16h-8v160h8v-25.1l22 12.6 4-7-26-14.8v-38.8l33.6 19.4-.2 29.9 8 .1.1-25.4 21.8 12.6 4-7-21.8-12.5 21.9-12.8zM61.626 23.736l7.391-3.062 9.185 22.174-7.391 3.061zM20.477 122.997l22.173-9.185 3.062 7.391-22.174 9.185zM61.64 168.442l8.956-21.62 7.39 3.062-8.954 21.62zM20.423 69.177l3.061-7.391 21.62 8.955-3.062 7.39zM52 96c0 21.5 15.5 39.5 36 43.3v-8.2c-16-3.6-28-18-28-35.1s12-31.4 28-35.1v-8.2C67.5 56.5 52 74.5 52 96z" fill="rgba(0,0,0,1)"/></svg>
