<?xml version="1.0" encoding="UTF-8"?>
<svg xmlns="http://www.w3.org/2000/svg" viewBox="0 0 192 192"><path d="M100 48h-8V16h8v32zm0 96h-8v32h8v-32zm76-52h-32v8h32v-8zM48 92H16v8h32v-8zm107.4 57.7l-22.6-22.6-5.7 5.7 22.6 22.6 5.7-5.7zM64.9 59.2L42.3 36.6l-5.7 5.7 22.6 22.6 5.7-5.7zm109.9-36.4l-5.7-5.7-152 152 5.7 5.7 152-152zm-49.3 60.7c1.7 3.9 2.5 8.2 2.5 12.5 0 17.6-14.4 32-32 32-4.3 0-8.6-.9-12.5-2.5l-6 6c5.7 3 12 4.5 18.5 4.5 22.1 0 40-17.9 40-40 0-6.5-1.6-12.8-4.5-18.5l-6 6zM64 96c0-17.6 14.4-32 32-32 4.3 0 8.6.9 12.5 2.5l6-6c-5.7-3-12-4.5-18.5-4.5-22.1 0-40 17.9-40 40 0 6.5 1.6 12.8 4.5 18.5l6-6c-1.6-3.9-2.5-8.2-2.5-12.5z" fill="rgba(0,0,0,1)"/></svg>
