<?xml version="1.0" encoding="UTF-8"?>
<svg xmlns="http://www.w3.org/2000/svg" viewBox="0 0 192 192"><path d="M92 16h8v32h-8zM92 144h8v32h-8zM144 92h32v8h-32zM16 92h32v8H16z" fill="rgba(0,0,0,1)"/><g><path d="M127.111 59.167l22.627-22.627 5.657 5.657-22.627 22.627zM36.602 149.803l22.627-22.627 5.657 5.657L42.26 155.46zM36.539 42.26l5.656-5.657 22.628 22.628-5.657 5.656z" fill="rgba(0,0,0,1)"/></g><g><path d="M148 128h-8v12h-12v8h12v12h8v-12h12v-8h-12z" fill="rgba(0,0,0,1)"/><path d="M144 112c-17.6 0-32 14.4-32 32s14.4 32 32 32 32-14.4 32-32-14.4-32-32-32zm0 56c-13.2 0-24-10.8-24-24s10.8-24 24-24 24 10.8 24 24-10.8 24-24 24z" fill="rgba(0,0,0,1)"/></g><path d="M96 128c-17.6 0-32-14.4-32-32s14.4-32 32-32 32 14.4 32 32c0 4.4-.9 8.6-2.6 12.6 3-1.6 6.2-2.8 9.6-3.6.7-2.9 1-6 1-9 0-22.1-17.9-40-40-40S56 73.9 56 96s17.9 40 40 40c3.1 0 6.1-.4 9-1 .8-3.4 2-6.6 3.6-9.6-4 1.7-8.2 2.6-12.6 2.6z" fill="rgba(0,0,0,1)"/></svg>
