<?xml version="1.0" encoding="UTF-8"?>
<svg xmlns="http://www.w3.org/2000/svg" viewBox="0 0 192 192"><path d="M108 32h8v24h-8zM152 92h24v8h-24zM56 92h16v8H56z" fill="rgba(0,0,0,1)"/><g><path d="M137.171 65.21l17.253-17.253 5.657 5.657-17.253 17.253zM63.916 138.386l17.253-17.253 5.657 5.657-17.253 17.253zM137.132 126.83l5.656-5.658 17.254 17.254-5.657 5.657zM63.955 53.574l5.657-5.656L86.866 65.17l-5.657 5.657z" fill="rgba(0,0,0,1)"/></g><path d="M112 64.1c-17.6 0-31.9 14.3-31.9 31.9 0 16.2 12.2 29.7 27.9 31.6V144c0 4-4 8-8 8H44c-4 0-8-4-8-8v-20.5c6.9-1.8 12-8 12-15.5v-8h-4V88h-8v12h-8V88h-8v12h-4v8c0 7.5 5.1 13.7 12 15.5V144c0 8.4 7.6 16 16 16h56c8.4 0 16-7.6 16-16v-16.4c15.7-2 27.9-15.4 27.9-31.6 0-17.6-14.3-31.9-31.9-31.9zm0 56c-13.3 0-24.1-10.8-24.1-24.1S98.7 71.9 112 71.9s24.1 10.8 24.1 24.1-10.8 24.1-24.1 24.1z" fill="rgba(0,0,0,1)"/></svg>
