<?xml version="1.0" encoding="UTF-8"?>
<svg xmlns="http://www.w3.org/2000/svg" viewBox="0 0 192 192"><path d="M96 56c-22.1 0-40 17.9-40 40s17.9 40 40 40 40-17.9 40-40-17.9-40-40-40zM64 96c0-17.6 14.4-32 32-32v64c-17.6 0-32-14.4-32-32zM92 16h8v32h-8zM92 144h8v32h-8zM144 92h32v8h-32zM16 92h32v8H16zM127.111 59.167l22.627-22.627 5.657 5.657-22.627 22.627zM36.602 149.803l22.627-22.627 5.657 5.657L42.26 155.46zM127.175 132.77l5.657-5.657 22.627 22.627-5.657 5.657zM36.539 42.26l5.656-5.657 22.628 22.628-5.657 5.656z" fill="rgba(0,0,0,1)"/></svg>
