<?xml version="1.0" encoding="UTF-8"?>
<svg xmlns="http://www.w3.org/2000/svg" viewBox="0 0 192 192"><path d="M143.9 152.5c-14-6.5-21-22.9-16.2-37.5 2.1-6.4 6.2-11.8 11.7-15.5l9.6-6.6-11.6-.7c-17.6-1.1-34.2 9-41.2 25.1-4.7 10.8-4.7 22.7-.1 33.4 4.6 10.8 13.3 18.9 24.3 22.9 4.6 1.7 9.4 2.5 14.1 2.5 12.2 0 24.1-5.3 32.3-14.9l7.5-8.9-11.4 2.4c-6.3 1.4-13 .6-19-2.2zm-20.7 13.6c-9-3.2-16-9.8-19.7-18.6-3.8-8.7-3.7-18.3.1-27.1 4.2-9.6 12.6-16.6 22.5-19.2-2.6 3.3-4.6 7.1-5.9 11.2-6.3 18.7 2.5 39 20.4 47.3 3.8 1.8 7.9 2.9 12 3.4-8.8 5.3-19.6 6.6-29.4 3zM17.157 169.185L169.184 17.158l5.656 5.657L22.814 174.842zM60 80c11 0 20-9 20-20s-9-20-20-20-20 9-20 20 9 20 20 20zm0-32c6.6 0 12 5.4 12 12s-5.4 12-12 12-12-5.4-12-12 5.4-12 12-12zM56 16h8v16h-8zM56 88h8v16h-8zM88 56h16v8H88zM16 56h16v8H16zM76.97 37.31l11.313-11.313 5.657 5.657-11.313 11.313zM26.058 88.346l11.314-11.313 5.657 5.657-11.314 11.313zM76.97 82.627l5.656-5.657 8.203 8.202-5.657 5.657zM25.996 31.716l5.657-5.657 11.313 11.314-5.656 5.656z" fill="rgba(0,0,0,1)"/></svg>
