<?xml version="1.0" encoding="UTF-8"?>
<svg xmlns="http://www.w3.org/2000/svg" viewBox="0 0 192 192"><path d="M18.36 162.326L162.324 18.36l11.313 11.314L29.673 173.64zM58.8 110.6l6.3-6.3c-.7-2.6-1.1-5.4-1.1-8.3 0-17.6 14.4-32 32-32 2.9 0 5.6.4 8.3 1.1l6.3-6.3C106.1 57 101.2 56 96 56c-22.1 0-40 17.9-40 40 0 5.2 1 10.1 2.8 14.6zM92 16h8v32h-8zM16 92h32v8H16zM36.539 42.26l5.656-5.657 22.628 22.628-5.657 5.656zM144 92h32v8h-32zM127.175 132.77l5.657-5.657 22.627 22.627-5.657 5.657zM133.2 81.4l-6.3 6.3c.7 2.6 1.1 5.4 1.1 8.3 0 17.6-14.4 32-32 32-2.9 0-5.6-.4-8.3-1.1l-6.3 6.3c4.5 1.8 9.4 2.8 14.6 2.8 22.1 0 40-17.9 40-40 0-5.2-1-10.1-2.8-14.6zM92 144h8v32h-8z" fill="rgba(0,0,0,1)"/></svg>
