<?xml version="1.0" encoding="UTF-8"?>
<svg xmlns="http://www.w3.org/2000/svg" viewBox="0 0 192 192"><path d="M146.9 103.4l29-38.4L33.5 31.9l-10 42.9 50.6 11.8-7.4 32.4c-.4.3-.8.6-1.2 1H40c0-8.8-7.2-16-16-16h-8v56h8c8.8 0 16-7.2 16-16h25.5c2.8 2.5 6.5 4 10.5 4 8.8 0 16-7.2 16-16 0-2.8-.7-5.4-1.9-7.6L97.6 92l49.3 11.4zM82 88.3l7.8 1.8-6.4 27.7c-2.2-1.2-4.7-1.8-7.4-1.8h-.4L82 88.3zM24 152v-40c4.4 0 8 3.6 8 8v24c0 4.4-3.6 8-8 8zm16-24h20.5c-.3 1.3-.5 2.6-.5 4s.2 2.7.5 4H40v-8zm36 12c-4.4 0-8-3.6-8-8s3.6-8 8-8 8 3.6 8 8-3.6 8-8 8zM33.2 68.8l6.3-27.3L162.1 70l-18.5 24.5-51.6-12-16-3.7-42.8-10z" fill="rgba(0,0,0,1)"/></svg>
