<?xml version="1.0" encoding="UTF-8"?>
<svg xmlns="http://www.w3.org/2000/svg" viewBox="0 0 192 192"><path d="M140 157.7l-10.8-10.8 5.7-5.7 5.2 5.2 13.2-13.2 5.7 5.7-19 18.8zm36-13.7c0 17.6-14.4 32-32 32s-32-14.4-32-32 14.4-32 32-32 32 14.4 32 32zm-8 0c0-13.2-10.8-24-24-24s-24 10.8-24 24 10.8 24 24 24 24-10.8 24-24zm-58.6 20H64.3c-14 0-26.4-7.8-32.5-20-8.7-.1-15.8-7.2-15.8-16 0-8.7 7.1-15.9 15.8-16 6.1-12.2 18.5-20 32.5-20h63.5c10.3 0 19.5-5.4 24.5-14-4.9-2.7-8.2-8-8.2-14s3.3-11.2 8.2-14c-5-8.6-14.2-14-24.5-14H47.5c-1.8 6.9-8 12-15.5 12-8.8 0-16-7.2-16-16s7.2-16 16-16c7.4 0 13.7 5.1 15.5 12h80.3c14 0 26.4 7.8 32.5 20 8.7.1 15.8 7.2 15.8 16 0 8.7-7.1 15.9-15.8 16-6.1 12.2-18.5 20-32.5 20H64.3c-10.3 0-19.5 5.4-24.5 14 4.9 2.7 8.2 8 8.2 14s-3.3 11.2-8.2 14c5 8.6 14.2 14 24.5 14h41.6c.8 2.8 2 5.5 3.5 8zM40 32c0-4.4-3.6-8-8-8s-8 3.6-8 8 3.6 8 8 8 8-3.6 8-8zm120 40c4.4 0 8-3.6 8-8s-3.6-8-8-8-8 3.6-8 8 3.6 8 8 8zM40 128c0-4.4-3.6-8-8-8s-8 3.6-8 8 3.6 8 8 8 8-3.6 8-8z" fill="rgba(0,0,0,1)"/></svg>
