<?xml version="1.0" encoding="UTF-8"?>
<svg xmlns="http://www.w3.org/2000/svg" viewBox="0 0 192 192"><path d="M124 176c-31.4 0-46.9-28.9-47.5-30.1l-1-1.9 1-1.9c.6-1.2 16.2-30.1 47.5-30.1 31.4 0 46.9 28.9 47.5 30.1l1 1.9-1 1.9c-.6 1.2-16.1 30.1-47.5 30.1zm-39.4-32c3.8 5.9 17.1 24 39.4 24 22.2 0 35.6-18.1 39.3-24-3.8-5.9-17.1-24-39.3-24-22.3 0-35.6 18.1-39.4 24zm39.4 16c-8.8 0-16-7.2-16-16s7.2-16 16-16 16 7.2 16 16-7.2 16-16 16zm0-24c-4.4 0-8 3.6-8 8s3.6 8 8 8 8-3.6 8-8-3.6-8-8-8zm-41.2 30.8C49.4 160.6 24 131.2 24 96c0-39.7 32.3-72 72-72s72 32.3 72 72c0 8.4-1.5 16.5-4.1 24 2.3 2.1 4.4 4.2 6.2 6.3 3.8-9.4 6-19.6 6-30.3 0-44.1-35.9-80-80-80S16 51.9 16 96c0 43.7 35.3 79.4 78.9 80-4.7-2.8-8.7-6-12.1-9.2zm-13.4-17.2l-2.9-5.6 2-3.9C53.8 130.9 44 114.6 44 96c0-28.7 23.3-52 52-52s52 23.3 52 52c0 4.4-.5 8.6-1.6 12.6 2.6 1.1 5 2.4 7.3 3.8 1.5-5.2 2.3-10.7 2.3-16.4 0-33.1-26.9-60-60-60S36 62.9 36 96c0 23.6 13.7 44 33.5 53.8-.1-.1-.1-.2-.1-.2zm5.5-19.6c1.5-1.9 3.2-4 5.3-6.2C70.5 118.3 64 107.9 64 96c0-17.6 14.4-32 32-32s32 14.4 32 32c0 2.8-.4 5.5-1 8.1 2.8.1 5.4.5 8 1 .7-2.9 1-5.9 1-9.1 0-22.1-17.9-40-40-40S56 73.9 56 96c0 14.3 7.6 26.9 18.9 34zm15.3-14.9c6.4-4.6 14.3-8.5 23.7-10.2 1.3-2.7 2.1-5.7 2.1-8.9 0-11-9-20-20-20s-20 9-20 20c0 9 6 16.6 14.2 19.1zM96 84c6.6 0 12 5.4 12 12s-5.4 12-12 12-12-5.4-12-12 5.4-12 12-12z" fill="rgba(0,0,0,1)"/></svg>
