<?xml version="1.0" encoding="UTF-8"?>
<svg xmlns="http://www.w3.org/2000/svg" viewBox="0 0 192 192"><path d="M175.4 38.3l-16.2-5.4-5.4-16.2L127.5 43l4 12-38.3 38.2c-1.6 1.6-1.6 4.1 0 5.7.8.7 1.8 1.1 2.8 1.1s2-.4 2.8-1.2l38.3-38.3 12 4 26.3-26.2zm-36.2 14.5l-2.6-7.8 13.7-13.7 2.6 7.8 7.8 2.6L147 55.4l-7.8-2.6zm-23.4 40.4c.1.9.2 1.9.2 2.8 0 11-9 20-20 20s-20-9-20-20 9-20 20-20c1 0 1.9.1 2.8.2L87.5 87.5c-1.7 1.7-2.8 3.8-3.3 6-.1.3-.1.7-.2 1v.2c0 .4-.1.8-.1 1.2 0 .4 0 .8.1 1.2v.2c0 .3.1.7.2 1 .5 2.3 1.6 4.4 3.3 6 1.7 1.7 3.8 2.8 6 3.3.3.1.7.1 1 .2h.2c.4 0 .8.1 1.2.1.4 0 .8 0 1.2-.1h.2c2.7-.3 5.2-1.5 7.1-3.4l11.4-11.2zm15.7-15.7C134.4 83 136 89.3 136 96c0 22.1-17.9 40-40 40s-40-17.9-40-40 17.9-40 40-40c6.7 0 13 1.6 18.5 4.5l-6 6c-3.8-1.6-8.1-2.5-12.5-2.5-17.6 0-32 14.4-32 32s14.4 32 32 32 32-14.4 32-32c0-4.4-.9-8.7-2.5-12.5l6-6zm35.1-19.1c6 11.2 9.4 24 9.4 37.6 0 44.1-35.9 80-80 80s-80-35.9-80-80 35.9-80 80-80c13.6 0 26.4 3.4 37.6 9.4l-5.9 5.9C118.1 26.7 107.4 24 96 24c-39.7 0-72 32.3-72 72s32.3 72 72 72 72-32.3 72-72c0-11.4-2.7-22.1-7.4-31.7l6-5.9zM156 96c0 33.1-26.9 60-60 60s-60-26.9-60-60 26.9-60 60-60c7.8 0 15.3 1.5 22.1 4.2l3.5 10.5C114 46.5 105.3 44 96 44c-28.7 0-52 23.3-52 52s23.3 52 52 52 52-23.3 52-52c0-9.3-2.5-18-6.8-25.6l10.5 3.5c2.8 6.8 4.3 14.3 4.3 22.1z" fill="rgba(0,0,0,1)"/></svg>
