<?xml version="1.0" encoding="UTF-8"?>
<svg xmlns="http://www.w3.org/2000/svg" viewBox="0 0 192 192"><path d="M96 18.3L33.2 81.2l5.6 5.6L96 29.7l57.2 57.1 5.6-5.6zM43 120.2h18.9v54.9H71v-54.9h18.9v-7.5H43zM124 168.5c-12 0-19.1-9.2-19.1-24.5 0-15.4 7.2-24.7 18.9-24.7 8.2 0 13 3.9 16.2 13.4l8.2-3.1c-2.3-5.8-3.9-8.6-6.9-11.4-4.4-4.2-10.3-6.4-17.6-6.4-16.8 0-28.4 13.2-28.4 32.3 0 19.3 11.3 31.9 28.5 31.9 6.4 0 11.7-1.7 16-4.9 4.1-3.1 6.5-6.7 9.2-13.5l-8.3-3.2c-3 9.8-8.1 14.1-16.7 14.1z" fill="rgba(0,0,0,1)"/></svg>
