<?xml version="1.0" encoding="UTF-8"?>
<svg xmlns="http://www.w3.org/2000/svg" viewBox="0 0 192 192"><path d="M128.6 54.6h12v8h-12zM54 52h12v8H54zM92 16h8v12h-8zM64.408 30.114l5.657-5.656 8.485 8.485-5.657 5.657zM115.21 80.93l5.656-5.657 8.485 8.485-5.656 5.657zM113.39 32.899l8.485-8.485 5.656 5.656-8.485 8.486zM62.502 83.803l8.485-8.485 5.657 5.657-8.486 8.485zM88 88h16v8H88zM111.6 42.4c-4.2-4.2-9.7-6.4-15.6-6.4s-11.4 2.3-15.6 6.4c-8.6 8.6-8.6 22.5 0 31.1.6.6 1.2 1.1 1.8 1.6l.5.5c.2.2.4.3.7.5.2.1.4.3.6.4V80h8v-4c0-3.3-2.6-5.3-3.7-6.2-.1-.1-.2-.2-.3-.2l-.6-.5c-.5-.4-.9-.8-1.3-1.2-5.5-5.5-5.5-14.3 0-19.8 2.6-2.6 6.2-4.1 9.9-4.1s7.3 1.5 9.9 4.1c5.5 5.5 5.5 14.3 0 19.8-.4.4-.8.8-1.3 1.2l-.6.5c-.1.1-.2.1-.3.2-1.1.8-3.7 2.8-3.7 6.2v4h8v-3.4c.2-.1.4-.3.6-.4.3-.2.5-.4.7-.5l.5-.5c.6-.5 1.2-1 1.8-1.6 8.5-8.6 8.5-22.6 0-31.2z" fill="rgba(0,0,0,1)"/><g><path d="M57 151.2c4.3-3.7 7-9.1 7-15.2 0-11-9-20-20-20s-20 9-20 20c0 6.1 2.7 11.5 7 15.2-8.9 4.7-15 14-15 24.8h8c0-11 9-20 20-20 7.2 0 13.8 3.9 17.4 10.1.9-3 2.1-5.9 3.7-8.5-2.3-2.6-5.1-4.8-8.1-6.4zM44 148c-6.6 0-12-5.4-12-12s5.4-12 12-12 12 5.4 12 12-5.4 12-12 12zM109 151.2c4.3-3.7 7-9.1 7-15.2 0-11-9-20-20-20s-20 9-20 20c0 6.1 2.7 11.5 7 15.2-8.9 4.7-15 14-15 24.8h8c0-11 9-20 20-20s20 9 20 20h8c0-10.8-6.1-20.1-15-24.8zM84 136c0-6.6 5.4-12 12-12s12 5.4 12 12-5.4 12-12 12-12-5.4-12-12zM161 151.2c4.3-3.7 7-9.1 7-15.2 0-11-9-20-20-20s-20 9-20 20c0 6.1 2.7 11.5 7 15.2-3.1 1.6-5.8 3.8-8.1 6.4 1.6 2.6 2.8 5.5 3.7 8.5 3.6-6.2 10.2-10.1 17.4-10.1 11 0 20 9 20 20h8c0-10.8-6.1-20.1-15-24.8zm-13-3.2c-6.6 0-12-5.4-12-12s5.4-12 12-12 12 5.4 12 12-5.4 12-12 12z" fill="rgba(0,0,0,1)"/></g></svg>
