<?xml version="1.0" encoding="UTF-8"?>
<svg xmlns="http://www.w3.org/2000/svg" viewBox="0 0 192 192"><path d="M106.5 101.6c8-3.9 13.5-12.1 13.5-21.6 0-13.2-10.8-24-24-24S72 66.8 72 80c0 9.5 5.5 17.7 13.5 21.6C70.7 106.1 60 119.8 60 136h8c0-15.4 12.6-28 28-28s28 12.6 28 28h8c0-16.2-10.7-29.9-25.5-34.4zM80 80c0-8.8 7.2-16 16-16s16 7.2 16 16-7.2 16-16 16-16-7.2-16-16zM58 96c0-8.8-7.2-16-16-16s-16 7.2-16 16c0 5.7 3 10.6 7.4 13.5C23.3 113 16 122.7 16 134v2h8v-2c0-9.9 8.1-18 18-18 4.7 0 9.2 1.9 12.6 5.1.9-2.6 2.1-5.1 3.5-7.5-2.3-1.8-4.8-3.2-7.5-4.2C55 106.6 58 101.7 58 96zm-16-8c4.4 0 8 3.6 8 8s-3.6 8-8 8-8-3.6-8-8 3.6-8 8-8zM158.6 109.5c4.4-2.8 7.4-7.8 7.4-13.5 0-8.8-7.2-16-16-16s-16 7.2-16 16c0 5.7 3 10.6 7.4 13.5-2.7 1-5.3 2.4-7.5 4.2 1.4 2.4 2.6 4.9 3.5 7.5 3.3-3.3 7.9-5.1 12.6-5.1 9.9 0 18 8.1 18 18v2h8v-2c0-11.4-7.3-21.1-17.4-24.6zM150 88c4.4 0 8 3.6 8 8s-3.6 8-8 8-8-3.6-8-8 3.6-8 8-8z" fill="rgba(0,0,0,1)"/></svg>
