<?xml version="1.0" encoding="UTF-8"?>
<svg xmlns="http://www.w3.org/2000/svg" viewBox="0 0 192 192"><path d="M175 83.4l-.4-2.6-17.7-4.6c-1-3.2-2.3-6.2-3.8-9.2l9.3-15.8-1.5-2.1A80 80 0 0 0 143 31.2l-2.1-1.5-15.9 9.2c-2.9-1.5-6-2.8-9.1-3.8l-4.6-17.7-2.6-.4c-8.4-1.3-16.9-1.3-25.3 0l-2.6.4-4.6 17.7c-3.2 1-6.2 2.3-9.2 3.8l-15.8-9.3-2.1 1.5A80 80 0 0 0 31.2 49l-1.5 2.1L38.9 67c-1.5 2.9-2.8 6-3.8 9.1l-17.7 4.6-.4 2.7c-.7 4.2-1 8.4-1 12.6s.3 8.4 1 12.6l.4 2.6 17.7 4.6c1 3.2 2.3 6.2 3.8 9.2l-9.3 15.8 1.5 2.1A80 80 0 0 0 49 160.8l2.1 1.5 15.8-9.3c2.9 1.5 6 2.8 9.1 3.8l4.6 17.7 2.6.4c4.2.7 8.4 1 12.6 1s8.4-.3 12.6-1l2.6-.4 4.6-17.7c3.2-1 6.2-2.3 9.2-3.8l15.8 9.3 2.1-1.5a80 80 0 0 0 17.9-17.9l1.5-2.1-9.3-15.8c1.5-2.9 2.8-6 3.8-9.1l17.7-4.6.4-2.6c.7-4.2 1-8.4 1-12.6s0-8.5-.7-12.7zm-7.5 21.4l-17 4.4-.6 2.2c-1.2 4.1-2.8 8-4.9 11.7l-1.1 2 8.9 15.2c-3.6 4.6-7.8 8.8-12.5 12.5l-15.2-8.9-2 1.1c-3.7 2.1-7.7 3.7-11.7 4.9l-2.2.6-4.4 17c-5.9.7-11.7.7-17.6 0l-4.4-17-2.2-.6c-4.1-1.2-8-2.8-11.7-4.9l-2-1.1-15.2 8.9c-4.6-3.6-8.8-7.8-12.5-12.5l8.9-15.2-1.1-2c-2.1-3.7-3.7-7.7-4.9-11.7l-.6-2.2-17-4.4c-.4-2.9-.5-5.9-.5-8.8 0-2.9.2-5.9.5-8.8l17-4.4.6-2.2c1.2-4.1 2.8-8 4.9-11.7l1.1-2-8.9-15.2c3.6-4.6 7.8-8.8 12.5-12.5l15.2 8.9 2-1.1c3.7-2.1 7.7-3.7 11.7-4.9l2.2-.6 4.4-17c5.9-.7 11.7-.7 17.6 0l4.4 17 2.2.6c4.1 1.2 8 2.8 11.7 4.9l2 1.1 15.2-8.9c4.6 3.6 8.8 7.8 12.5 12.5l-8.9 15.2 1.1 2c2.1 3.7 3.7 7.7 4.9 11.7l.6 2.2 17 4.4c.4 2.9.5 5.9.5 8.8 0 2.9-.2 5.9-.5 8.8z" fill="rgba(0,0,0,1)"/><path d="M118 102c-3 0-5.7.8-8.1 2.2L87.8 82.1C89.2 79.7 90 77 90 74c0-8.8-7.2-16-16-16-3 0-5.7.8-8.1 2.2l6 6c.7-.2 1.3-.3 2.1-.3 4.4 0 8 3.6 8 8s-3.6 8-8 8-8-3.6-8-8c0-.7.1-1.4.3-2.1l-6-6C58.8 68.3 58 71 58 74c0 8.8 7.2 16 16 16 3 0 5.7-.8 8.1-2.2l22.1 22.1c-1.4 2.4-2.2 5.1-2.2 8.1 0 8.8 7.2 16 16 16 3 0 5.7-.8 8.1-2.2l-6-6c-.7.2-1.3.3-2.1.3-4.4 0-8-3.6-8-8s3.6-8 8-8 8 3.6 8 8c0 .7-.1 1.4-.3 2.1l6 6c1.4-2.4 2.2-5.1 2.2-8.1.1-8.9-7.1-16.1-15.9-16.1z" fill="rgba(0,0,0,1)"/><path d="M104.8 68.6l4.3 8.6-6 6 5.7 5.7 6-6 8.6 4.3 11.8-17.7-12.6-12.6-17.8 11.7zm15.8 8.2L117 75l-1.8-3.6 6.3-4.2 3.4 3.4-4.3 6.2zM74.4 126.2c-2.4 2.4-6.2 2.4-8.6 0-2.4-2.4-2.4-6.2 0-8.6l16.8-16.8-5.7-5.7L60.1 112c-5.5 5.5-5.5 14.4 0 19.9 2.7 2.7 6.4 4.1 10 4.1 3.6 0 7.2-1.4 10-4.1l16.8-16.8-5.7-5.7-16.8 16.8z" fill="rgba(0,0,0,1)"/></svg>
