<?xml version="1.0" encoding="UTF-8"?>
<svg xmlns="http://www.w3.org/2000/svg" viewBox="0 0 192 192"><path d="M174.3 148.2c-.5-4.5-2.8-8.6-6.4-11.3-4.5-3.4-10.5-4.2-15.7-2.1-6.8 2.7-14.5 1.1-19.7-4l-1-1c.4-1.9.6-3.8.6-5.7 0-.2 0-2.4-.7-5.9l16.7 5.1c1.5.5 3.1.7 4.6.7 3.2 0 6.4-1 9.1-3 4-2.9 6.3-7.5 6.3-12.4 0-6.8-4.4-12.8-10.9-14.8L128 84.7c-1.2-.4-2.4-.6-3.6-.7 7.2-7.1 11.6-17.1 11.6-28 0-2-.2-4-.4-5.9 5.1-2.7 8.4-8.1 8.4-14.1 0-8.8-7.2-16-16-16-3.4 0-6.7 1.1-9.4 3-6.4-4.4-14.2-7-22.6-7s-16.2 2.6-22.6 7c-2.7-2-6-3-9.4-3-8.8 0-16 7.2-16 16 0 6 3.3 11.4 8.4 14.1C56.2 52 56 54 56 56c0 10.9 4.4 20.9 11.6 28.1-1.2.1-2.4.3-3.6.7l-29.1 8.9c-6.5 2-10.9 8-10.9 14.8 0 5 2.3 9.5 6.3 12.4 2.7 2 5.9 3 9.1 3 1.5 0 3.1-.2 4.6-.7l16.3-5c-.5 3.1-.4 5.2-.3 6 0 1.9.2 3.7.6 5.5l-1 1c-5.2 5.2-12.9 6.8-19.7 4-5.2-2.1-11.2-1.3-15.7 2.1-3.6 2.7-5.9 6.8-6.4 11.3-.5 4.5 1 9 3.9 12.3l6.7 7.7c4.1 4.6 9.7 7.4 15.9 7.8h1.5c5.6 0 11-2 15.2-5.8l19.6-17.4c4.7 2 9.9 3.1 15.5 3.1 5.5 0 10.8-1.1 15.5-3.1l19.6 17.4c4.2 3.8 9.6 5.8 15.2 5.8h1.5c6.2-.4 11.8-3.2 15.9-7.8l6.7-7.7c2.8-3.3 4.2-7.8 3.8-12.2zm-19.6-46.9c3.2 1 5.3 3.8 5.3 7.1 0 2.4-1.1 4.6-3 6-1.9 1.4-4.3 1.8-6.6 1.1l-21.7-6.7c-1.7-4.7-4.3-10.2-8.3-16.2 1.6-.7 3.5-.9 5.3-.3l29 9zM136 36c0 2.3-1 4.4-2.6 5.9-1.9-5-4.8-9.5-8.4-13.3 1-.4 2-.6 3-.6 4.4 0 8 3.6 8 8zm-80 0c0-4.4 3.6-8 8-8 1 0 2 .2 2.9.6-3.6 3.8-6.5 8.3-8.4 13.3C57 40.4 56 38.3 56 36zm40-12c17.6 0 32 14.4 32 32s-14.4 32-32 32-32-14.4-32-32 14.4-32 32-32zm-54.3 91.6c-2.3.7-4.7.3-6.6-1.1-1.9-1.4-3-3.6-3-6 0-3.3 2.1-6.2 5.3-7.1l29.1-8.9c1.8-.5 3.6-.4 5.2.3-3.8 5.6-6.8 11.1-8.7 16.4l-21.3 6.4zm14 48.7c-3 2.7-6.9 4-10.9 3.8-4-.3-7.7-2.1-10.3-5.1l-6.7-7.7c-1.5-1.7-2.2-4-2-6.2.2-2.3 1.4-4.3 3.2-5.7 2.3-1.7 5.3-2.1 8-1.1 9.1 3.6 19.3 1.9 26.7-4.3 2.3 4.2 5.6 7.9 9.6 10.8l-17.6 15.5zM68 124v-.5c0-.1-1.1-11.4 13.1-30.4C85.7 95 90.7 96 96 96c5.3 0 10.3-1 14.9-2.9 12.8 17.3 13.1 30.8 13.1 30.9 0 13.2-12.6 24-28 24s-28-10.8-28-24zm96.3 31.3l-6.7 7.7c-2.7 3-6.3 4.8-10.3 5.1-4 .3-7.9-1.1-10.9-3.8l-17.5-15.6c4-2.9 7.3-6.6 9.6-10.8 7.4 6.2 17.6 8 26.7 4.3 2.6-1.1 5.7-.7 8 1.1 1.8 1.4 3 3.4 3.2 5.7.2 2.3-.5 4.5-2.1 6.3z" fill="rgba(0,0,0,1)"/><circle cx="82" cy="50" r="6" fill="rgba(0,0,0,1)"/><circle cx="110" cy="50" r="6" fill="rgba(0,0,0,1)"/><path d="M93.8 75c1.2 1.3 3.2 1.3 4.4 0l4.9-5.3c1.9-2.1.6-5.7-2.2-5.7h-9.8c-2.8 0-4.1 3.6-2.2 5.7l4.9 5.3z" fill="rgba(0,0,0,1)"/></svg>
