<?xml version="1.0" encoding="UTF-8"?>
<svg xmlns="http://www.w3.org/2000/svg" viewBox="0 0 192 192"><path d="M100 136.7V56h-8v80.7c-4.7 1.7-8 6.1-8 11.3 0 6.6 5.4 12 12 12s12-5.4 12-12c0-5.2-3.3-9.6-8-11.3zM96 152c-2.2 0-4-1.8-4-4s1.8-4 4-4 4 1.8 4 4-1.8 4-4 4z" fill="rgba(0,0,0,1)"/><path d="M116 36c0-11-9-20-20-20s-20 9-20 20v92.4c-5.1 5.2-8 12.3-8 19.6 0 15.4 12.6 28 28 28s28-12.6 28-28c0-7.3-2.9-14.4-8-19.6V36zM96 168c-11 0-20-9-20-20 0-5.7 2.4-11.1 6.7-14.9l1.3-1.2V36c0-6.6 5.4-12 12-12s12 5.4 12 12v95.9l1.3 1.2c4.2 3.8 6.7 9.2 6.7 14.9 0 11-9 20-20 20zM144 32V20h-8v12h-12v8h12v12h8V40h12v-8z" fill="rgba(0,0,0,1)"/></svg>
