<?xml version="1.0" encoding="UTF-8"?>
<svg xmlns="http://www.w3.org/2000/svg" viewBox="0 0 192 192"><path d="M77.4 134.8H65V164h6.5v-10.7h6.2c6.4 0 10.2-3.4 10.2-9 .1-6-3.8-9.5-10.5-9.5zm-.4 13.6h-5.5v-8.5H77c3 0 4.5 1.4 4.5 4.2.1 2.8-1.5 4.3-4.5 4.3zM93.2 134.8h6.5V164h-6.5zM103.9 140h8.3v24h6.5v-24h8.3v-5.2h-23.1z" fill="rgba(0,0,0,1)"/><path d="M96 16c-44.1 0-80 35.9-80 80 0 21.4 8.3 41.5 23.4 56.6l2.8 2.8 17-17-5.7-5.7L42.3 144c-11-12.2-17.3-27.6-18.2-44H40v-8H24.1c.9-16.8 7.7-32.2 18.3-44l11.2 11.2 5.7-5.7L48 42.4C59.8 31.8 75.2 25 92 24.1V40h8V24.1c16.8.9 32.2 7.7 44 18.3l-11.2 11.2 5.7 5.7L149.6 48c10.6 11.8 17.3 27.1 18.3 44H152v8h15.9c-.9 16.4-7.2 31.8-18.2 44l-11.2-11.2-5.7 5.7 17 17 2.8-2.8C167.7 137.5 176 117.4 176 96c0-44.1-35.9-80-80-80z" fill="rgba(0,0,0,1)"/><path d="M96 108c6.6 0 12-5.4 12-12s-5.4-12-12-12c-1.8 0-3.6.4-5.2 1.2l-24-24-5.7 5.7 24 24c-.7 1.5-1.1 3.3-1.1 5.1 0 6.6 5.4 12 12 12zm4-12c0 2.2-1.8 4-4 4s-4-1.8-4-4 1.8-4 4-4 4 1.8 4 4z" fill="rgba(0,0,0,1)"/></svg>
