<?xml version="1.0" encoding="UTF-8"?>
<svg xmlns="http://www.w3.org/2000/svg" viewBox="0 0 192 192"><path d="M66 160c-18.7 0-34-14.2-34-31.6V72.8c0-1.5 1.6-2.5 2.9-1.8l2.9 1.4c.1.1 15.3 7.6 28.2 7.6 12.9 0 28.1-7.5 28.2-7.6l2.9-1.4c1.3-.7 2.9.3 2.9 1.8v55.6c0 17.4-15.3 31.6-34 31.6zM40 82.1v46.3c0 13 11.7 23.6 26 23.6s26-10.6 26-23.6V82.1C85.8 84.6 75.6 88 66 88s-19.8-3.4-26-5.9z" fill="rgba(0,0,0,1)"/><path d="M66 140c-9.9 0-18-7.2-18-16h8c0 4.4 4.5 8 10 8s10-3.6 10-8h8c0 8.8-8.1 16-18 16z" fill="rgba(0,0,0,1)"/><circle cx="52" cy="100" r="3.8" fill="rgba(0,0,0,1)"/><circle cx="80" cy="100" r="3.8" fill="rgba(0,0,0,1)"/><circle cx="112" cy="64" r="4" fill="rgba(0,0,0,1)"/><circle cx="140" cy="64" r="4" fill="rgba(0,0,0,1)"/><path d="M154.2 36.4c-.2.1-15.3 7.6-28.2 7.6-12.9 0-28.1-7.5-28.2-7.6L94.9 35c-1.3-.7-2.9.3-2.9 1.8v28.8c3.3-1.6 6.2-3.2 8-4.2V46.1c6.2 2.5 16.4 5.9 26 5.9s19.8-3.4 26-5.9v46.3c0 13-11.7 23.6-26 23.6-7 0-13.3-2.5-18-6.6v9.8c5.2 3 11.4 4.8 18 4.8 18.7 0 34-14.2 34-31.6V36.8c0-1.5-1.6-2.5-2.9-1.8l-2.9 1.4z" fill="rgba(0,0,0,1)"/><path d="M115.6 97.8l-7.1-3.6c.2-.4 5.2-10.2 17.6-10.2s17.4 9.8 17.6 10.2l-7.2 3.6c-.1-.2-3.1-5.8-10.4-5.8s-10.4 5.6-10.5 5.8z" fill="rgba(0,0,0,1)"/></svg>
