<?xml version="1.0" encoding="UTF-8"?>
<svg xmlns="http://www.w3.org/2000/svg" viewBox="0 0 192 192"><path d="M128 44h-12V32h-8v12H96v8h12v12h8V52h12zM96 140h32v8H96zM77.3 124c.7-15.3 4.7-27.3 12.3-36.7h-17v-7.4h25.8v6.7c-7.7 9.7-11.9 22.7-12.1 37.4h-9zM105.4 116.5c12.3-9.7 17.3-16.6 17.3-23.9 0-4.1-1.5-6.3-4.4-6.3-3.1 0-4.6 2.1-5.7 8.2l-7.8-1.7c1.9-9.6 6-13.6 13.8-13.6 8 0 12.9 5.1 12.9 13.3 0 5.6-2.3 11-7.1 16.2-2.3 2.5-4.1 4.2-8.7 7.8h16v7.4h-26.4l.1-7.4zM156 88.5c0 5.6-3.9 9.6-9.5 9.6-5.7 0-9.5-3.9-9.5-9.7 0-5.4 3.9-9.4 9.5-9.4s9.5 4 9.5 9.5zm-13.3-.1c0 3.5 1.3 5.2 3.8 5.2s3.8-1.7 3.8-5.1c0-3.3-1.3-5.1-3.8-5.1s-3.8 1.8-3.8 5z" fill="rgba(0,0,0,1)"/><g><circle cx="56" cy="52" r="4" fill="rgba(0,0,0,1)"/><path d="M75.8 32.2c-10.9-10.9-28.7-10.9-39.6 0l-5.7-5.7c14-14 36.9-14 50.9 0l-5.6 5.7z" fill="rgba(0,0,0,1)"/><path d="M64.5 43.5C62.2 41.2 59.2 40 56 40s-6.2 1.2-8.5 3.5l-5.7-5.7C45.6 34.1 50.7 32 56 32s10.4 2.1 14.1 5.9l-5.6 5.6z" fill="rgba(0,0,0,1)"/></g><path d="M148 16H81.3c3.2 2.2 6.1 4.9 8.6 8h58c10.4 0 20 9.6 20 20v104c0 10.4-9.6 20-20 20H76c-10.4 0-20-9.6-20-20V63.9c-.3 0-.7.1-1 .1-2.6 0-5-.8-7-2.3V148c0 14.8 13.2 28 28 28h72c14.8 0 28-13.2 28-28V44c0-14.8-13.2-28-28-28z" fill="rgba(0,0,0,1)"/></svg>
