<?xml version="1.0" encoding="UTF-8"?>
<svg xmlns="http://www.w3.org/2000/svg" viewBox="0 0 192 192"><path d="M113.7 51.7c-2.5-2.9-6.2-4.6-10.1-4.6H82.8V29.4c0-7.3-6-13.3-13.3-13.3h-9.4l-7.3 32c-.4 1.5-1.4 2.8-2.8 3.4l-8.6 3.4c-2.1-4.6-6.7-7.9-12.1-7.9C22 47.1 16 53 16 60.4v43.4c0 7.3 6 13.3 13.3 13.3 5.4 0 10-3.2 12.1-7.8 4.1 1.7 9.8 4 11.4 4.5.3.1.7.2 1.1.4 2.7 1 7.7 2.9 15.7 2.9H97c6.5 0 12.2-4.9 13.1-11.3l6.6-43.4c.6-3.9-.5-7.8-3-10.7zm-79.1 52c0 2.9-2.4 5.3-5.3 5.3s-5.3-2.4-5.3-5.3V60.4c0-2.9 2.4-5.3 5.3-5.3s5.3 2.4 5.3 5.3v43.3zm74.3-42.6l-6.6 43.4c-.4 2.6-2.6 4.5-5.2 4.5H69.6c-6.5 0-10.5-1.5-12.9-2.4-.5-.2-1-.4-1.4-.5-1.4-.5-7.7-3-12.7-5.1V63L53 58.9l.2-.1c3.7-1.7 6.4-4.9 7.4-8.8l6-26h3c2.9 0 5.3 2.4 5.3 5.3V55h28.8c1.6 0 3 .7 4 1.8.9 1.3 1.4 2.8 1.2 4.3z" fill="rgba(0,0,0,1)"/><path fill="none" d="M162.7 83.1c-2.9 0-5.3 2.4-5.3 5.3v43.4c0 2.9 2.4 5.3 5.3 5.3s5.3-2.4 5.3-5.3V88.4c0-2.9-2.4-5.3-5.3-5.3z"/><path d="M162.7 75.1c-5.2 0-9.6 3-11.8 7.3-4.1-1.7-11-4.5-12.8-5.1-.3-.1-.7-.2-1.1-.4-2.5-.9-7-2.6-13.9-2.9l-1.2 8c6.2.1 10 1.5 12.3 2.4.5.2 1 .4 1.4.5 1.5.5 8.6 3.4 13.8 5.5V129l-10.4 4.1-.2.1c-3.7 1.7-6.4 4.9-7.4 8.8l-6 26h-3c-2.9 0-5.3-2.4-5.3-5.3V137H88.4c-1.6 0-3-.7-4-1.8-1-1.2-1.5-2.7-1.2-4.3l.7-5.9h-8.1l-.6 4.8c-.6 3.8.6 7.7 3.1 10.6 2.5 2.9 6.2 4.6 10.1 4.6h20.8v17.7c0 7.3 6 13.3 13.3 13.3h9.4l7.3-32c.4-1.5 1.4-2.8 2.8-3.4l8.6-3.4c2.1 4.6 6.7 7.9 12.1 7.9 7.3 0 13.3-6 13.3-13.3V88.4c0-7.3-6-13.3-13.3-13.3zm5.3 56.6c0 2.9-2.4 5.3-5.3 5.3s-5.3-2.4-5.3-5.3V88.4c0-2.9 2.4-5.3 5.3-5.3s5.3 2.4 5.3 5.3v43.3z" fill="rgba(0,0,0,1)"/></svg>
