<?xml version="1.0" encoding="UTF-8"?>
<svg xmlns="http://www.w3.org/2000/svg" viewBox="0 0 192 192"><path d="M159.8 101.7l-8.5-56c-1.1-7.8-7.9-13.7-15.8-13.7H100c-10.1 0-16.4 2.4-19.8 3.7-.5.2-1 .4-1.4.5-2.1.7-10.4 4.1-15.7 6.2C60.7 36.4 54.9 32 48 32c-8.8 0-16 7.2-16 16v56c0 8.8 7.2 16 16 16 6.9 0 12.8-4.4 15-10.5l12.2 4.8c2.2 1 3.7 2.9 4.3 5.2l9.3 40.5H100c8.8 0 16-7.2 16-16v-24h28c4.7 0 9.1-2 12.1-5.5s4.4-8.2 3.7-12.8zM56 104c0 4.4-3.6 8-8 8s-8-3.6-8-8V48c0-4.4 3.6-8 8-8s8 3.6 8 8v56zm94.1 5.2c-1.5 1.8-3.7 2.8-6.1 2.8h-36v32c0 4.4-3.6 8-8 8h-4.8l-7.9-34.4c-1.2-4.7-4.4-8.6-8.9-10.6l-.2-.1-14.2-5.6V50.7c5.7-2.3 15.3-6.2 17.3-6.9.5-.2 1.1-.4 1.7-.6 3.1-1.2 8.4-3.2 17-3.2h35.5c3.9 0 7.3 2.9 7.9 6.8l8.5 56c.3 2.3-.3 4.7-1.8 6.4z" fill="rgba(0,0,0,1)"/></svg>
