<?xml version="1.0" encoding="UTF-8"?>
<svg xmlns="http://www.w3.org/2000/svg" viewBox="0 0 192 192"><path d="M156.1 77.5c-3-3.5-7.5-5.5-12.1-5.5h-28V48c0-8.8-7.2-16-16-16H88.8l-9.3 40.5c-.6 2.3-2.2 4.2-4.3 5.2L63 82.5C60.8 76.4 54.9 72 48 72c-8.8 0-16 7.2-16 16v56c0 8.8 7.2 16 16 16 6.9 0 12.7-4.4 15-10.5 5.3 2.2 13.6 5.5 15.7 6.2.4.1.9.3 1.4.5 3.4 1.3 9.8 3.7 19.8 3.7h35.5c7.9 0 14.7-5.9 15.8-13.7l8.5-56c.8-4.5-.6-9.1-3.6-12.7zM56 144c0 4.4-3.6 8-8 8s-8-3.6-8-8V88c0-4.4 3.6-8 8-8s8 3.6 8 8v56zm95.9-54.9l-8.5 56c-.6 3.9-4 6.8-7.9 6.8H100c-8.6 0-13.9-2-17-3.2-.7-.2-1.2-.5-1.7-.6-2-.7-11.6-4.6-17.3-6.9V90.7l14.2-5.6.2-.1c4.4-2 7.7-5.9 8.9-10.6L95.2 40h4.8c4.4 0 8 3.6 8 8v32h36c2.3 0 4.5 1 6.1 2.8 1.5 1.7 2.1 4.1 1.8 6.3z" fill="rgba(0,0,0,1)"/></svg>
