<?xml version="1.0" encoding="UTF-8"?>
<svg xmlns="http://www.w3.org/2000/svg" viewBox="0 0 192 192"><path d="M124 176c-31.4 0-46.9-28.9-47.5-30.1l-1-1.9 1-1.9c.6-1.2 16.1-30.1 47.5-30.1s46.9 28.9 47.5 30.1l1 1.9-1 1.9c-.6 1.2-16.1 30.1-47.5 30.1zm-39.3-32c3.8 5.9 17.1 24 39.3 24 22.3 0 35.6-18.1 39.4-24-3.8-5.9-17.1-24-39.4-24-22.2 0-35.6 18.1-39.3 24zm39.3 16c-8.8 0-16-7.2-16-16s7.2-16 16-16 16 7.2 16 16-7.2 16-16 16zm0-24c-4.4 0-8 3.6-8 8s3.6 8 8 8 8-3.6 8-8-3.6-8-8-8zm52-72H56V16h120v48zM64 56h104V24H64v32zm8 64H16V72h56v48zm-48-8h40V80H24v32zm71 0h-7V80h40v24.2c2.8.2 5.5.6 8 1.1V72H80v48h4.2c3.1-2.8 6.7-5.6 10.8-8zm-10.8 56H40v-32h30.8c1.2-1.9 3.1-4.8 5.8-8H32v48h63c-4.1-2.4-7.7-5.2-10.8-8z" fill="rgba(0,0,0,1)"/></svg>
