<?xml version="1.0" encoding="UTF-8"?>
<svg xmlns="http://www.w3.org/2000/svg" viewBox="0 0 192 192"><path d="M136 152c-8.8 0-16-7.2-16-16s7.2-16 16-16 16 7.2 16 16-7.2 16-16 16zm0-24c-4.4 0-8 3.6-8 8s3.6 8 8 8 8-3.6 8-8-3.6-8-8-8zm0 48c-2.1 0-4.2-.2-6.3-.5l-2.6-.4-2.3-8.6c-.8-.3-1.7-.7-2.5-1l-7.7 4.5-2.1-1.5c-3.4-2.5-6.4-5.5-8.9-8.9l-1.5-2.1 4.5-7.7c-.4-.8-.7-1.7-1-2.5l-8.6-2.2-.4-2.6c-.3-2.1-.5-4.2-.5-6.3 0-2.1.2-4.2.5-6.3l.4-2.6 8.6-2.3c.3-.8.7-1.7 1-2.5l-4.5-7.7 1.5-2.1c2.5-3.4 5.5-6.4 8.9-8.9l2.1-1.5 7.7 4.5c.8-.4 1.7-.7 2.5-1l2.2-8.6 2.6-.4c4.2-.7 8.4-.7 12.6 0l2.6.4 2.3 8.6c.8.3 1.7.7 2.5 1l7.7-4.5 2.1 1.5c3.4 2.5 6.4 5.5 8.9 8.9l1.5 2.1-4.5 7.7c.4.8.7 1.7 1 2.5l8.6 2.2.4 2.6c.3 2.1.5 4.2.5 6.3 0 2.1-.2 4.2-.5 6.3l-.4 2.6-8.6 2.3c-.3.8-.7 1.7-1 2.5l4.5 7.7-1.5 2.1c-2.5 3.4-5.5 6.4-8.9 8.9l-2.1 1.5-7.7-4.5c-.8.4-1.7.7-2.5 1l-2.2 8.6-2.6.4c-2.1.3-4.2.5-6.3.5zm-2.5-8.1c1.7.1 3.3.1 5 0l2-7.8 2.2-.6c1.8-.5 3.5-1.2 5.1-2.1l2-1.1 7 4.1c1.3-1.1 2.5-2.3 3.5-3.5l-4.1-7 1.1-2c.9-1.6 1.6-3.3 2.1-5.1l.6-2.2 7.8-2c.1-.8.1-1.7.1-2.5s0-1.7-.1-2.5l-7.8-2-.6-2.2c-.5-1.8-1.2-3.5-2.1-5.1l-1.1-2 4.1-7c-1.1-1.3-2.3-2.5-3.5-3.5l-7 4.1-2-1.1c-1.6-.9-3.3-1.6-5.1-2.1l-2.2-.6-2-7.8c-1.7-.1-3.3-.1-5 0l-2 7.8-2.2.6c-1.8.5-3.5 1.2-5.1 2.1l-2 1.1-7-4.1c-1.3 1.1-2.5 2.3-3.5 3.5l4.1 7-1.1 2c-.9 1.6-1.6 3.3-2.1 5.1l-.6 2.2-7.8 2c-.1.8-.1 1.7-.1 2.5s0 1.7.1 2.5l7.8 2 .6 2.2c.5 1.8 1.2 3.5 2.1 5.1l1.1 2-4.1 7c1.1 1.3 2.3 2.5 3.5 3.5l7-4.1 2 1.1c1.6.9 3.3 1.6 5.1 2.1l2.2.6 2 7.8zM176 64H56V16h120v48zM64 56h104V24H64v32zm8 64H16V72h56v48zm-48-8h40V80H24v32zm68.5 2.2l1.6-2.2H88V80h40v8.7l.4-.1c2.5-.4 5-.6 7.6-.6V72H80v48h10.1l2.4-5.8zm15.3 60.7c-2.8-2-5.3-4.3-7.6-6.9H40v-32h48c0-2.5.2-5.1.6-7.6l.1-.4H32v48h77.4l-1.6-1.1z" fill="rgba(0,0,0,1)"/></svg>
