<?xml version="1.0" encoding="UTF-8"?>
<svg xmlns="http://www.w3.org/2000/svg" viewBox="0 0 192 192"><path d="M168 100v4h-8V64h-56V48H60v16H32v40h-8v-4h-8v16h8v-4h17.1c-.7 1.2-1.1 2.5-1.1 4 0 4.4 3.6 8 8 8s8-3.6 8-8c0-1.5-.4-2.8-1.1-4h10.2c-.7 1.2-1.1 2.5-1.1 4 0 4.4 3.6 8 8 8s8-3.6 8-8c0-1.5-.4-2.8-1.1-4H88v8h16v-8h9.1c-.7 1.2-1.1 2.5-1.1 4 0 4.4 3.6 8 8 8s8-3.6 8-8c0-1.5-.4-2.8-1.1-4h10.2c-.7 1.2-1.1 2.5-1.1 4 0 4.4 3.6 8 8 8s8-3.6 8-8c0-1.5-.4-2.8-1.1-4H168v4h8v-16h-8zm-16 4H40V72h28V56h28v16h56v32zm-8-8h-8V80h8v16zm-16 0h-8V80h8v16zM76 64h12v8H76v-8z" fill="rgba(0,0,0,1)"/></svg>
