<?xml version="1.0" encoding="UTF-8"?>
<svg xmlns="http://www.w3.org/2000/svg" viewBox="0 0 192 192"><path d="M72 118c0 3.3-2.7 6-6 6s-6-2.7-6-6 2.7-6 6-6 6 2.7 6 6zm54-6c-3.3 0-6 2.7-6 6s2.7 6 6 6 6-2.7 6-6-2.7-6-6-6zm6-20.9V64.9c0-4.9-4-8.9-8.9-8.9H68.9C64 56 60 60 60 64.9v26.2c0 4.9 4 8.9 8.9 8.9h54.2c4.9 0 8.9-4 8.9-8.9zM123.1 64c.5 0 .9.4.9.9v26.2c0 .5-.4.9-.9.9H68.9c-.5 0-.9-.4-.9-.9V64.9c0-.5.4-.9.9-.9h54.2zm36.5 106.2l-7.2 3.6-4.9-9.8h-103l-4.9 9.8-7.2-3.6 14.5-29c-1.8-2.6-2.9-5.8-2.9-9.2V57.6C44 47.9 51.9 40 61.6 40h13.3l26.7-16H64c-1.2 0-3.3 3-4.3 5.4l-7.5-2.8c.4-1 4-9.9 11-10.5V16h65.5c6.7.5 10.2 7 11.2 11l-7.8 1.9s-1.4-5-4.1-5h-10.9L90.4 40h39.9c9.7 0 17.6 7.9 17.6 17.6v72.8c0 3.8-1.2 7.3-3.3 10.2l15 29.6zM52 132c0 4.4 3.6 8 8 8h70.4c5.3 0 9.6-4.3 9.6-9.6V57.6c0-5.3-4.3-9.6-9.6-9.6H61.6c-5.3 0-9.6 4.3-9.6 9.6V132zm91.5 24l-5-10c-2.4 1.3-5.2 2-8.1 2H60c-2.4 0-4.7-.6-6.8-1.5l-4.8 9.5h95.1z" fill="rgba(0,0,0,1)"/></svg>
