<?xml version="1.0" encoding="UTF-8"?>
<svg xmlns="http://www.w3.org/2000/svg" viewBox="0 0 192 192"><path d="M164 68h-7.9l-3-18c-1-5.8-5.9-10-11.8-10H50.9C45 40 40 44.2 39.1 50l-3 18H28c-6.6 0-12 5.4-12 12v8c0 6.6 5.4 12 12 12h4v52c0 18.2 3.2 21.4 4.3 22.4 1.1 1 2.4 1.6 3.8 1.6H56c7.1 0 7.9-9.6 8-20h64c.1 10.4.9 20 8 20h16c1.4 0 2.7-.6 3.7-1.6 1.1-1 4.3-4.2 4.3-22.4v-52h4c6.6 0 12-5.4 12-12v-8c0-6.6-5.4-12-12-12zM46.8 51.3c.3-1.9 2-3.3 3.9-3.3h90.4c2 0 3.6 1.4 3.9 3.3l6.7 40.3c-1.3.7-4.6 1.8-11 2.5C124 96 96.3 96 96 96s-28 0-44.9-1.9c-6.4-.7-9.7-1.9-11-2.5l6.7-40.3zM24 88v-8c0-2.2 1.8-4 4-4h6.6L32 91.7v.3h-4c-2.2 0-4-1.8-4-4zm126.4 80h-13.3c-.5-1.5-1.1-5.5-1.1-16v-4H56v4c0 10.5-.6 14.5-1.1 16H41.6c-.6-1.6-1.6-5.9-1.6-16v-51.9c2.7.9 6.1 1.5 10.3 2C67.6 104 94.8 104 96 104s28.4 0 45.7-1.9c4.1-.5 7.6-1.1 10.3-2V152c0 10.1-1 14.4-1.6 16zM168 88c0 2.2-1.8 4-4 4h-4v-.3L157.4 76h6.6c2.2 0 4 1.8 4 4v8zm-36 24c-6.6 0-12 5.4-12 12v4c0 6.6 5.4 12 12 12s12-5.4 12-12v-4c0-6.6-5.4-12-12-12zm4 16c0 2.2-1.8 4-4 4s-4-1.8-4-4v-4c0-2.2 1.8-4 4-4s4 1.8 4 4v4zm-76-16c-6.6 0-12 5.4-12 12v4c0 6.6 5.4 12 12 12s12-5.4 12-12v-4c0-6.6-5.4-12-12-12zm4 16c0 2.2-1.8 4-4 4s-4-1.8-4-4v-4c0-2.2 1.8-4 4-4s4 1.8 4 4v4z" fill="rgba(0,0,0,1)"/></svg>
