<?xml version="1.0" encoding="UTF-8"?>
<svg xmlns="http://www.w3.org/2000/svg" viewBox="0 0 192 192"><path d="M156 16H36c-11 0-20 9-20 20v4h160v-4c0-11-9-20-20-20zM24.7 32c1.7-4.7 6.1-8 11.3-8h120c5.2 0 9.7 3.3 11.3 8H24.7zM32 68h8v12h-8V68zm0-20h8v12h-8V48zm0 40h8v12h-8V88zm0 60h8v12h-8v-12zm0-40h8v12h-8v-12zm0 60h8v8h-8v-8zm0-40h8v12h-8v-12zm32-68h-8V48h8v12zm-8 8h8v8h-8v-8zm24 0h8v8h-8v-8zm8-8h-8V48h8v12zm24 0h-8V48h8v12zm-8 8h8v8h-8v-8zm32-8h-8V48h8v12zm-8 8h8v8h-8v-8zm24 0h8v12h-8V68zm0 60h8v12h-8v-12zm0-20h8v12h-8v-12zm0-20h8v12h-8V88zm0 60h8v12h-8v-12zm0 20h8v8h-8v-8zm0-120h8v12h-8V48zm-20 52v-3.6c0-4.6-3.7-8.4-8.3-8.4H68.3c-4.6 0-8.3 3.8-8.3 8.4v3.6c-4.4 0-8 3.8-8 8.4v19.5h8v32c0 4.7 1 8.1 1.9 10.2 1.6 3.8 3.6 5.8 6.1 5.8h8c4.5 0 7-5.7 7.8-12h24.5c.8 6.4 3.4 12 7.8 12h8c.9 0 2.2-.3 3.5-1.5 2.2-2.1 4.5-7.6 4.5-14.5V128h8v-19.5c-.1-4.7-3.7-8.5-8.1-8.5zm-64-3.6c0-.2.2-.4.3-.4h55.5c.1 0 .3.2.3.4v30c-.9.2-2.2.5-4.3.7-9 .9-23.7.9-23.8.9s-14.8 0-23.7-.9c-2-.2-3.4-.5-4.3-.7v-30zm54.3 71.6h-4.9c-.6-1.2-1.4-3.8-1.4-8v-4H76v4c0 4.2-.9 6.8-1.4 8h-4.9c-.7-1.4-1.7-4.2-1.7-8v-25.4c1.3.3 2.6.4 3.4.5 9.3 1 23.9 1 24.6 1s15.2 0 24.6-1c.9-.1 2.1-.2 3.4-.5V160c0 3.8-1 6.6-1.7 8z" fill="rgba(0,0,0,1)"/></svg>
