<?xml version="1.0" encoding="UTF-8"?>
<svg xmlns="http://www.w3.org/2000/svg" viewBox="0 0 192 192"><path d="M70 116.8c-.8-5.4-5-8.8-11-8.8-6.1 0-11 4.2-11 9.4v13.2c0 5.2 4.9 9.4 11 9.4h2c6.1 0 11-4.2 11-9.4v-.6s-1.5-9.6-2-13.2zM61 132h-2c-1.9 0-3-1-3-1.4v-13.2c0-.4 1.1-1.4 3-1.4 2.7 0 2.9 1.2 3 2 .5 3.1 1.6 10.7 1.9 12.7-.1.5-1.2 1.3-2.9 1.3zm72-24c-5.9 0-10.1 3.4-11 8.8-.5 3.6-2 13.2-2 13.2v.6c0 5.2 4.9 9.4 11 9.4h2c6.1 0 11-4.2 11-9.4v-13.2c0-5.2-4.9-9.4-11-9.4zm3 22.6c0 .4-1.1 1.4-3 1.4h-2c-1.7 0-2.8-.8-3-1.3.3-2 1.5-9.6 1.9-12.7.1-.9.3-2 3-2 1.9 0 3 1 3 1.4v13.2zM176 80V48c0-6.6-5.4-12-12-12h-4v-8c0-6.6-5.4-12-12-12H44c-6.6 0-12 5.4-12 12v8h-4c-6.6 0-12 5.4-12 12v32h16v74c0 14.5 2.1 18.5 4 20.3 1.1 1.1 2.5 1.7 4 1.7h15c7 0 8.7-9.6 9-20h64c.3 10.4 1.9 20 9 20h15c1.5 0 2.9-.6 4-1.7 1.9-1.8 4-5.8 4-20.3V80h16zm-16-36h4c2.2 0 4 1.8 4 4v24h-8V44zM40 28c0-2.2 1.8-4 4-4h104c2.2 0 4 1.8 4 4v59.5c-1.2.7-4.5 1.9-11.1 2.6C124 92 96.3 92 96 92s-28 0-44.9-1.9c-6.6-.7-10-2-11.1-2.6V28zM24 72V48c0-2.2 1.8-4 4-4h4v28h-8zm126.7 96H137.9c-.6-1.1-1.9-4.9-1.9-16v-4H56v4c0 11.1-1.3 14.9-1.9 16H41.3c-.5-1.4-1.3-5-1.3-14V96.1c2.7.9 6.1 1.5 10.3 2C67.6 100 94.8 100 96 100s28.4 0 45.7-1.9c4.1-.5 7.6-1.1 10.3-2V154c0 9-.9 12.6-1.3 14z" fill="rgba(0,0,0,1)"/></svg>
