<?xml version="1.0" encoding="UTF-8"?>
<svg xmlns="http://www.w3.org/2000/svg" viewBox="0 0 192 192"><path d="M44 128h-8V16h8v112zm0 24h-8v24h8v-24zm56-44h-8v68h8v-68zm0-92h-8v68h8V16zm56 0h-8v24h8V16zm20 32h-48v8h48v-8zM64 136H16v8h48v-8zm56-44H72v8h48v-8zm38.8 46.8l-5.7-5.7-13.1 13.2-5.2-5.2-5.7 5.7 10.8 10.8 18.9-18.8zM176 144c0-17.6-14.4-32-32-32s-32 14.4-32 32 14.4 32 32 32 32-14.4 32-32zm-8 0c0 13.2-10.8 24-24 24s-24-10.8-24-24 10.8-24 24-24 24 10.8 24 24zm-12-38.2V64h-8v40.2c2.8.3 5.4.8 8 1.6z" fill="rgba(0,0,0,1)"/></svg>
