<?xml version="1.0" encoding="UTF-8"?>
<svg xmlns="http://www.w3.org/2000/svg" viewBox="0 0 192 192"><path d="M95.6 71.4c-26.8-3.9-40.2-7.9-68.5-33.9 0 0-14.2 22.1 9.5 43.3 0 0-11-.8-14.2-3.9 0 0-1.6 22.8 24.4 31.5 0 0-2.4 6.3-12.6 5.5 0 0 4.7 15 29.1 18.9 0 0-16.5 16.5-47.3 13.4 0 0 27.6 23.6 78.8 11 42.5-11 60.6-60.6 60.6-60.6s5.5-18.1 3.9-33.1c0 0 10.2-7.9 16.5-16.5l-18.1 4.7s11-7.9 13.4-17.3l-19.7 7.9s-8.7-13.4-29.1-11c-6.3.8-11 3.2-15 6.3-8.7 6.3-12.6 16.5-12.6 27.6l.9 6.2z" fill="rgba(0,0,0,1)"/></svg>
