<?xml version="1.0" encoding="UTF-8"?>
<svg xmlns="http://www.w3.org/2000/svg" viewBox="0 0 192 192"><path d="M117 114.5c-5.2-14.5-16.6-26-31-31.3C96.7 77 104 65.3 104 52c0-19.8-16.1-36-36-36S32 32.2 32 52c0 13.3 7.3 24.9 18.1 31.2C30.2 90.5 16 109.6 16 132h8c0-24.3 19.7-44 44-44 20.7 0 38.1 14.4 42.8 33.7 1.8-2.6 3.8-5 6.2-7.2zM40 52c0-15.4 12.6-28 28-28s28 12.5 28 28c0 15.4-12.6 28-28 28S40 67.5 40 52zm135.6 87l-.4-2.6-6.8-1.8c-.2-.4-.3-.8-.5-1.2l3.6-6.1-1.5-2.1c-2-2.7-4.4-5.1-7.1-7.1l-2.1-1.5-6.1 3.6c-.4-.2-.8-.3-1.1-.5l-1.8-6.8-2.6-.4c-3.3-.5-6.7-.5-10.1 0l-2.6.4-1.8 6.8c-.4.1-.8.3-1.2.5l-6.1-3.6-2.1 1.5c-2.7 2-5.1 4.4-7.1 7.1l-1.5 2.1 3.6 6.1c-.2.4-.3.8-.5 1.1l-6.8 1.8-.4 2.6c-.3 1.7-.4 3.4-.4 5 0 1.7.1 3.4.4 5l.4 2.6 6.8 1.8c.1.4.3.8.5 1.2l-3.6 6.1 1.5 2.1c2 2.7 4.4 5.1 7.1 7.1l2.1 1.5 6.1-3.6c.4.2.8.3 1.1.5l1.8 6.8 2.6.4c1.7.3 3.4.4 5 .4 1.7 0 3.4-.1 5-.4l2.6-.4 1.8-6.8c.4-.1.8-.3 1.2-.5l6.1 3.6 2.1-1.5c2.7-2 5.1-4.4 7.1-7.1l1.5-2.1-3.6-6.1c.2-.4.3-.8.5-1.1l6.8-1.8.4-2.6c.3-1.7.4-3.4.4-5 .1-1.7 0-3.4-.3-5zm-7.6 6.2l-5.9 1.6-.6 2.2c-.4 1.3-.9 2.6-1.6 3.8l-1.1 2 3.1 5.3c-.6.6-1.1 1.2-1.8 1.8l-5.3-3.1-2 1.1c-1.2.7-2.5 1.2-3.8 1.6l-2.2.6-1.5 5.9h-2.5l-1.6-5.9-2.2-.6c-1.3-.4-2.6-.9-3.8-1.6l-2-1.1-5.3 3.1c-.6-.6-1.2-1.1-1.8-1.8l3.1-5.3-1.1-2c-.7-1.2-1.2-2.5-1.6-3.8l-.6-2.2-5.9-1.5v-1.2-1.2l5.9-1.6.6-2.2c.4-1.3.9-2.6 1.6-3.8l1.1-2-3.1-5.3c.6-.6 1.1-1.2 1.8-1.8l5.3 3.1 2-1.1c1.2-.7 2.5-1.2 3.8-1.6l2.2-.6 1.5-5.9h2.5l1.6 5.9 2.2.6c1.3.4 2.6.9 3.8 1.6l2 1.1 5.3-3.1c.6.6 1.2 1.1 1.8 1.8l-3.1 5.3 1.1 2c.7 1.2 1.2 2.5 1.6 3.8l.6 2.2 5.9 1.5v2.4zM144 131c-7.2 0-13 5.8-13 13s5.8 13 13 13 13-5.8 13-13-5.8-13-13-13zm0 18c-2.8 0-5-2.2-5-5s2.2-5 5-5 5 2.2 5 5-2.2 5-5 5z" fill="rgba(0,0,0,1)"/></svg>
