<?xml version="1.0" encoding="UTF-8"?>
<svg xmlns="http://www.w3.org/2000/svg" viewBox="0 0 192 192"><path d="M151.3 63c4.9-2.1 8.7-7.2 8.7-12.6v-4.1c0-7.2-6.6-14.3-13.2-14.3H124V16H68v16H45.2C38.5 32 32 39.1 32 46.3v4.1c0 5.4 3.8 10.5 8.7 12.6L48 88.6v30.9L40.7 145c-4.9 2.1-8.7 7.2-8.7 12.6v4.8c0 7 6.4 13.6 13.2 13.6h101.5c6.8 0 13.2-6.6 13.2-13.6v-4.8c0-5.4-3.8-10.5-8.7-12.6l-7.3-25.5V88.6l7.4-25.6zm-8.6 81H49.3l6.7-23.4V87.4L49.3 64h93.4L136 87.4v33.1l6.7 23.5zM76 24h40v8H76v-8zM40 46.3c0-2.7 2.9-6.3 5.2-6.3h101.6c2.2 0 5.2 3.6 5.2 6.3v4.1c0 2.6-2.8 5.6-5.2 5.6H45.2c-2.4 0-5.2-3-5.2-5.6v-4.1zm112 116.1c0 2.6-2.8 5.6-5.2 5.6H45.2c-2.4 0-5.2-3-5.2-5.6v-4.8c0-2.6 2.8-5.6 5.2-5.6h101.5c2.4 0 5.2 3 5.2 5.6v4.8z" fill="rgba(0,0,0,1)"/></svg>
