<?xml version="1.0" encoding="UTF-8"?>
<svg xmlns="http://www.w3.org/2000/svg" viewBox="0 0 192 192"><path d="M131.2 96.5C139.1 88 144 76.5 144 64c0-26.5-21.5-48-48-48S48 37.5 48 64c0 12.5 4.9 24 12.8 32.5-26.5 5-44.8 17.2-44.8 30.2 0 13.8 20.4 24.5 54.5 28.8.2 0 .3 0 4.2.2l-5.5 5.5 5.7 5.7L89.7 152l-14.8-14.8-5.7 5.7 4.8 4.8c-1.2 0-2.2-.1-2.6-.1-32.6-4.2-47.4-13.7-47.4-20.9 0-6.9 11.7-16 31.9-20.9-2.5 5.2-3.9 10.9-3.9 16.3 0 .7 0 1.4.1 2.2l.2 3.7h87.4l.2-3.7c.1-.8.1-1.5.1-2.2 0-5.5-1.4-11.2-3.8-16.3 20 5 31.8 14 31.8 20.9 0 9.6-26 20.5-68.1 21.3l.1 8c37.8-.7 75.9-10 75.9-29.3.1-13-18.2-25.2-44.7-30.2zM56 64c0-22.1 17.9-40 40-40s40 17.9 40 40-17.9 40-40 40-40-17.9-40-40zm4.1 56c.5-6.1 3.2-12.7 7.2-17.5 8 6 17.9 9.5 28.7 9.5s20.7-3.6 28.7-9.6c4 4.8 6.7 11.3 7.2 17.6H60.1zM96 80c8.8 0 16-7.2 16-16s-7.2-16-16-16-16 7.2-16 16 7.2 16 16 16zm0-24c4.4 0 8 3.6 8 8s-3.6 8-8 8-8-3.6-8-8 3.6-8 8-8z" fill="rgba(0,0,0,1)"/></svg>
