<?xml version="1.0" encoding="UTF-8"?>
<svg xmlns="http://www.w3.org/2000/svg" viewBox="0 0 192 192"><path d="M175.9 58.7c-.7 15.6-11.6 37-32.6 64.1-21.8 28.3-40.2 42.5-55.2 42.5-9.3 0-17.2-8.6-23.7-25.9L51.5 92c-4.8-17.2-9.9-25.9-15.4-25.9-1.2 0-5.4 2.5-12.6 7.6L16 64c7.9-7 15.7-13.9 23.4-20.9C49.9 34 57.8 29.2 63.1 28.7c12.5-1.2 20.1 7.3 23 25.6C89.2 74 91.3 86.2 92.5 91c3.6 16.3 7.5 24.5 11.9 24.5 3.3 0 8.4-5.3 15.1-15.9 6.7-10.6 10.3-18.7 10.8-24.2 1-9.1-2.6-13.7-10.8-13.7-3.8 0-7.8.9-11.8 2.6 7.9-25.8 22.9-38.3 45.1-37.6 16.3.5 24.1 11.2 23.1 32z" fill="rgba(0,0,0,1)"/></svg>
