<?xml version="1.0" encoding="UTF-8"?>
<svg xmlns="http://www.w3.org/2000/svg" viewBox="0 0 192 192"><path d="M144 112c-17.6 0-32 14.4-32 32s14.4 32 32 32 32-14.4 32-32-14.4-32-32-32zm0 56c-13.2 0-24-10.8-24-24s10.8-24 24-24 24 10.8 24 24-10.8 24-24 24zm11.9-35.5l-3.2 1.8c-1.3-1.2-2.9-2.2-4.7-2.7V128h-8v3.6c-1.8.6-3.4 1.5-4.7 2.7l-3.2-1.8-4 6.9 3.1 1.8c-.2.9-.3 1.8-.3 2.7s.1 1.8.3 2.7l-3.1 1.8 4 6.9 3.2-1.8c1.3 1.2 2.9 2.2 4.7 2.7v3.6h8v-3.6c1.8-.6 3.4-1.5 4.7-2.7l3.2 1.8 4-6.9-3.1-1.8c.2-.9.3-1.8.3-2.7 0-.9-.1-1.8-.3-2.7l3.1-1.8-4-6.9zM144 149c-2.8 0-5-2.2-5-5s2.2-5 5-5 5 2.2 5 5-2.2 5-5 5zM109.2 42.8l-16-16 5.7-5.7 16 16-5.7 5.7zm57.6-12l-5.7-5.7-16 16 5.7 5.7 16-16zM136 16h-8v20.2h8V16zM24 96h-8c0-16.8 10.4-31.3 25.2-37.2C35.6 54.5 32 47.6 32 40c0-13.2 10.8-24 24-24s24 10.8 24 24c0 7.6-3.6 14.4-9.1 18.8 6.6 2.6 12.4 6.9 16.8 12.6L82 77.1C76.1 69 66.8 64.2 56.6 64h-1.2C38 64.4 24 78.6 24 96zm31.6-40h.9c8.6-.3 15.5-7.3 15.5-16 0-8.8-7.2-16-16-16s-16 7.2-16 16c0 8.7 6.9 15.7 15.6 16zm93.6 26.8l16 16 5.7-5.7-16-16-5.7 5.7zm6.6-26.8v8H176v-8h-20.2zM124 46.3L145.7 68 40 173.7 18.3 152 124 46.3zM110.3 92L100 81.7 29.7 152 40 162.3 110.3 92zm24-24L124 57.7 105.7 76 116 86.3 134.3 68z" fill="rgba(0,0,0,1)"/></svg>
