<?xml version="1.0" encoding="UTF-8"?>
<svg xmlns="http://www.w3.org/2000/svg" viewBox="0 0 192 192"><path d="M148 140h12v8h-12v12h-8v-12h-12v-8h12v-12h8v12zm28 4c0 17.6-14.4 32-32 32s-32-14.4-32-32 14.4-32 32-32 32 14.4 32 32zm-8 0c0-13.2-10.8-24-24-24s-24 10.8-24 24 10.8 24 24 24 24-10.8 24-24zM114.8 37.2l-16-16-5.7 5.7 16 16 5.7-5.7zm36 9.6l-5.7-5.7 16-16 5.7 5.7-16 16zM136 36.2h-8V16h8v20.2zM55.4 64h1.2c10.2.2 19.4 5.1 25.3 13.1l5.7-5.7c-4.4-5.7-10.2-10-16.8-12.6C76.4 54.4 80 47.6 80 40c0-13.2-10.8-24-24-24S32 26.8 32 40c0 7.6 3.6 14.5 9.2 18.8C26.4 64.8 16 79.2 16 96h8c0-17.4 14-31.6 31.4-32zM40 40c0-8.8 7.2-16 16-16s16 7.2 16 16c0 8.7-6.9 15.7-15.6 16h-.9C46.9 55.7 40 48.7 40 40zm114.8 37.2l16 16-5.7 5.7-16-16 5.7-5.7zM176 56v8h-20.2v-8H176zM18.3 152L40 173.7 145.7 68 124 46.3 18.3 152zM40 162.3L29.7 152 100 81.7 110.3 92 40 162.3zm76-76L105.7 76 124 57.7 134.3 68 116 86.3z" fill="rgba(0,0,0,1)"/></svg>
