<?xml version="1.0" encoding="UTF-8"?>
<svg xmlns="http://www.w3.org/2000/svg" viewBox="0 0 192 192"><path d="M72 176h-8v-56h17.9L72 96.8V72c0-4.4-3.6-8-8-8h-8c-4.4 0-8 3.6-8 8v24.8L38.1 120H56v56h-8v-48H25.9L40 95.2V72c0-8.8 7.2-16 16-16h8c8.8 0 16 7.2 16 16v23.2L94.1 128H72v48zM60 48.1c-8.8 0-16-7.2-16-16s7.2-16 16-16 16 7.2 16 16-7.2 16-16 16zM60 24c-4.4 0-8 3.6-8 8s3.6 8 8 8 8-3.6 8-8-3.6-8-8-8zM136.1 40.1v-.7c4.8-1.7 8.3-6.2 8.3-11.5 0-6.6-5.6-11.9-12.4-11.9-6.1 0-11.4 4.4-12.3 10.2-.1.6-.1 1.1-.1 1.7h8.1v-.5c.3-1.9 2.1-3.3 4.2-3.3 2.4 0 4.3 1.7 4.3 3.8 0 2.2-2 4.1-4.3 4.1h-4.1v8.1c-14.2.7-27.3 5-38.3 12.5l4.6 6.7c10.6-7.3 23.7-11.2 37.7-11.2 14 0 27.1 3.9 37.7 11.3l4.6-6.7c-10.7-7.6-23.9-11.9-38-12.6z" fill="rgba(0,0,0,1)"/></svg>
