<?xml version="1.0" encoding="UTF-8"?>
<svg xmlns="http://www.w3.org/2000/svg" viewBox="0 0 192 192"><path d="M121.2 57.2L84 94.3 70.8 81.2l-5.6 5.6L84 105.7l42.8-42.9z" fill="rgba(0,0,0,1)"/><path d="M141.1 110.1l11.3-6.8-3.2-12.8L157 80l-7.8-10.6 3.2-12.8-11.3-6.8-1.9-13-13-1.9-6.8-11.3-12.8 3.2L96 19l-10.6 7.8-12.8-3.2-6.8 11.3-13 1.9-1.9 13-11.3 6.8 3.2 12.8L35 80l7.8 10.6-3.2 12.8 11.3 6.8 1.9 13 3 .5L42.5 164h20.3l15.3 10.2L90.6 137l5.4 4 5.4-4 12.4 37.3 15.3-10.2h20.3l-13.5-40.4 3-.5 2.2-13.1zm-67.2 51.7l-8.7-5.8H53.5L64 124.8l1.9.3 6.8 11.3 10.5-2.6-9.3 28zm13.3-37.3l-10.7 2.7-5.7-9.4-10.9-1.6-1.6-10.9-9.4-5.7 2.7-10.7L45 80l6.5-8.8-2.7-10.7 9.4-5.7 1.6-10.9 10.9-1.6 5.7-9.4 10.7 2.7L96 29l8.8 6.5 10.7-2.7 5.7 9.4 10.9 1.6 1.6 10.9 9.4 5.7-2.7 10.7L147 80l-6.5 8.8 2.7 10.7-9.4 5.7-1.6 10.9-10.9 1.6-5.7 9.4-10.7-2.7L96 131l-8.8-6.5zm51.3 31.5h-11.7l-8.7 5.8-9.4-28.1 10.5 2.6L126 125l1.9-.3 10.6 31.3z" fill="rgba(0,0,0,1)"/></svg>
