<?xml version="1.0" encoding="UTF-8"?>
<svg xmlns="http://www.w3.org/2000/svg" viewBox="0 0 192 192"><path d="M128 32h12v8h-12zM112 32h12v8h-12zM96 32h12v8H96zM52 32h32v8H52z" fill="rgba(0,0,0,1)"/><path d="M144.1 16H47.9C39.1 16 32 23.1 32 31.9V160c0 8.8 7.1 15.9 15.9 15.9H144c8.8 0 15.9-7.1 15.9-15.9V31.9c.1-8.8-7-15.9-15.8-15.9zm7.9 144.1c0 4.4-3.6 7.9-7.9 7.9H47.9c-4.4 0-7.9-3.6-7.9-7.9V56h112v104.1zM152 48H40V31.9c0-4.4 3.6-7.9 7.9-7.9H144c4.4 0 7.9 3.6 7.9 7.9V48z" fill="rgba(0,0,0,1)"/><path d="M96 71.5c-22.3 0-40.5 18.2-40.5 40.5s18.2 40.5 40.5 40.5 40.5-18.2 40.5-40.5S118.3 71.5 96 71.5zm0 9c15.1 0 27.8 10.7 30.8 24.9-1.8-1.1-3.5-2.4-4.3-3.5-.8-1-2-1.7-3.2-1.7s-2.5.6-3.2 1.7c-2.8 3.9-5.7 6.1-8.1 6.1s-5.3-2.2-8.1-6.1c-.8-1-2-1.7-3.2-1.7s-2.5.6-3.2 1.7c-2.8 3.9-5.7 6.1-8.1 6.1s-5.3-2.2-8.1-6.1c-.8-1-2-1.7-3.2-1.7s-2.5.6-3.2 1.7c-.8 1.2-3.1 2.7-5.4 3.9C68 91.4 80.8 80.5 96 80.5zm0 63c-16.4 0-29.9-12.6-31.4-28.7 2.8-1.1 6.1-2.9 8.7-4.8 3.7 3.9 7.7 6 11.8 6 3.9 0 7.8-1.9 11.4-5.6 3.6 3.7 7.5 5.6 11.4 5.6 4 0 8-2 11.7-5.9 2.3 1.8 5.2 3.6 7.8 4.7-1.4 16-15 28.7-31.4 28.7z" fill="rgba(0,0,0,1)"/></svg>
