<?xml version="1.0" encoding="UTF-8"?>
<svg xmlns="http://www.w3.org/2000/svg" viewBox="0 0 192 192"><path d="M124 176c-11.5 0-21.3-3.5-28-10-6.7 6.5-16.5 10-28 10s-21.3-3.5-28-9.9c-6.4 6.5-13.9 9-19.4 9.9l-1.3-7.9c5-.8 12.1-3.3 17.5-10.5.8-1 1.9-1.6 3.2-1.6s2.4.6 3.2 1.6C48.3 164.4 56.9 168 68 168s19.7-3.6 24.8-10.4c.8-1 1.9-1.6 3.2-1.6s2.4.6 3.2 1.6c5.1 6.8 13.7 10.4 24.8 10.4s19.7-3.6 24.8-10.4c.8-1 1.9-1.6 3.2-1.6s2.4.6 3.2 1.6c4.9 6.6 11.5 8.9 17.8 10.5l-1.9 7.8c-6.2-1.6-13.2-4-19.1-9.8-6.7 6.4-16.5 9.9-28 9.9zM144 64c-5.6 0-10.2 3.8-11.6 9l-13.1 1c-1.5-6-5.4-11.1-10.5-14.3l5-11.9c.7.1 1.5.2 2.3.2 8.8 0 16-7.2 16-16s-7.2-16-16-16-16 7.2-16 16c0 5.2 2.5 9.8 6.4 12.7l-5 11.9c-1.8-.4-3.6-.6-5.5-.6-5.2 0-10 1.7-13.9 4.4L70.8 49.2c.8-1.6 1.2-3.3 1.2-5.2 0-6.6-5.4-12-12-12s-12 5.4-12 12 5.4 12 12 12c1.8 0 3.6-.4 5.2-1.2l11.3 11.3C73.7 70 72 74.8 72 79.9l-9.4 1.6C60.1 75.9 54.5 72 48 72c-8.8 0-16 7.2-16 16s7.2 16 16 16c8.3 0 15.2-6.4 15.9-14.6l9.4-1.6c2.8 8.2 10 14.4 18.7 15.8v21c-4.7 1.7-8 6.1-8 11.3 0 6.6 5.4 12 12 12s12-5.4 12-12c0-5.2-3.3-9.6-8-11.3v-21c10.7-1.8 19-10.7 19.9-21.6l13.2-1.1c1.9 4.2 6.1 7.1 10.9 7.1 6.6 0 12-5.4 12-12 0-7-5-12-12-12zm-28-40c4.4 0 8 3.6 8 8s-3.6 8-8 8-8-3.6-8-8 3.6-8 8-8zM56 44c0-2.2 1.8-4 4-4s4 1.8 4 4-1.8 4-4 4-4-1.8-4-4zm-8 52c-4.4 0-8-3.6-8-8s3.6-8 8-8 8 3.6 8 8-3.6 8-8 8zm48 44c-2.2 0-4-1.8-4-4s1.8-4 4-4 4 1.8 4 4-1.8 4-4 4zm0-44c-8.8 0-16-7.2-16-16s7.2-16 16-16 16 7.2 16 16-7.2 16-16 16zm48-16c-2.2 0-4-1.8-4-4s1.8-4 4-4c.9 0 4 .3 4 4 0 2.2-1.8 4-4 4zM155.2 129.6c-.8-1-1.9-1.6-3.2-1.6s-2.4.6-3.2 1.6c-5.1 6.8-13.7 10.4-24.8 10.4-2.9 0-5.7-.3-8.3-.8-.4 2.7-1.5 5.3-2.9 7.6 3.5.8 7.2 1.2 11.2 1.2 11.5 0 21.3-3.5 28-9.9 5.9 5.9 12.8 8.3 19.1 9.8l1.9-7.8c-6.3-1.6-12.9-3.9-17.8-10.5zM76.3 139.2c-2.6.5-5.3.8-8.3.8-11.1 0-19.7-3.6-24.8-10.4-.8-1-1.9-1.6-3.2-1.6s-2.4.6-3.2 1.6c-5.3 7.1-12.4 9.6-17.5 10.5l1.3 7.9c5.5-.9 13-3.4 19.4-9.9 6.7 6.4 16.4 9.9 28 9.9 4 0 7.7-.4 11.2-1.2-1.5-2.3-2.5-4.8-2.9-7.6z" fill="rgba(0,0,0,1)"/></svg>
