<?xml version="1.0" encoding="UTF-8"?>
<svg xmlns="http://www.w3.org/2000/svg" viewBox="0 0 192 192"><path d="M175.7 115.7c0-22.7-22.4-41-50.1-41s-50.1 18.4-50.1 41c0 22.7 22.4 41 50.1 41 6.9 0 13.5-1.1 19.5-3.2L162 162l-3.7-15.2c10.6-7.5 17.4-18.7 17.4-31.1zm-65-6.1c-4.7 0-8.4-3.8-8.4-8.4s3.8-8.4 8.4-8.4c4.7 0 8.4 3.8 8.4 8.4s-3.7 8.4-8.4 8.4zm32.5 0c-4.7 0-8.4-3.8-8.4-8.4s3.8-8.4 8.4-8.4 8.4 3.8 8.4 8.4-3.7 8.4-8.4 8.4z" fill="rgba(0,0,0,1)"/><path d="M74.1 32c-31.9 0-57.8 21.2-57.8 47.3 0 15.5 9.1 29.2 23.1 37.8l-4.3 16.1 20.5-9.1c4.5 1.2 9.3 1.9 14.1 2.2-.9-3.4-1.4-7-1.4-10.7 0-26.8 25.6-48.6 57.3-48.6 1.5 0 2.9.1 4.3.2C123.4 47 100.9 32 74.1 32zM54.8 72.9c-4.8 0-8.7-3.9-8.7-8.7 0-4.8 3.9-8.7 8.7-8.7 4.8 0 8.7 3.9 8.7 8.7 0 4.8-3.9 8.7-8.7 8.7zm37.7 0c-4.8 0-8.7-3.9-8.7-8.7 0-4.8 3.9-8.7 8.7-8.7 4.8 0 8.7 3.9 8.7 8.7 0 4.8-3.9 8.7-8.7 8.7z" fill="rgba(0,0,0,1)"/></svg>
