<?xml version="1.0" encoding="UTF-8"?>
<svg xmlns="http://www.w3.org/2000/svg" viewBox="0 0 192 192"><path d="M145.3 97.8c-2.7-1.7-5.8-3.1-9.2-4.2-.7-.2-1.2-.4-1.5-.5-.3-.1-.7-.3-1.1-.7-.4-.3-.6-.7-.4-1.1.2-.4.3-1 .4-1.8 2.7-6.9 2.7-12.2 0-15.9-2.7-3.6-7.3-5.5-13.7-5.5-6.4 0-13.7 1.8-22 5.3l-.5.2-1.2.3c-.5.1-.9.1-1.3 0s-.7-.3-.9-.6c-.2-.4-.2-.9.1-1.8 2.7-8.6 2.1-14.9-1.8-18.7-4.4-4.4-11.8-4.6-22-.6-10.3 4-20.5 11-30.5 21.1-7.8 7.6-13.7 15.3-17.8 23-4.1 7.8-6.2 15.1-6.2 21.9 0 6.4 1.9 12.4 5.8 17.8 3.9 5.5 9 10 15.3 13.5 6.4 3.5 13.5 6.3 21.5 8.3 8 2 16.2 3 24.6 3 8.4 0 16.5-.9 24.2-2.8 7.7-1.8 14.5-4.3 20.2-7.4 5.8-3.1 10.8-6.6 15.1-10.5 4.3-3.9 7.5-8 9.8-12.3 2.2-4.3 3.3-8.4 3.3-12.5 0-3.8-1-7.3-3-10.4-2.1-3-4.5-5.4-7.2-7.1zm-29.2 41c-8.7 7.1-19.8 11.3-33 12.7-8.7.8-16.9.2-24.5-1.9-7.7-2.1-13.9-5.3-18.6-9.8-4.8-4.4-7.4-9.5-8-15.2-1-8.7 3-16.6 11.7-23.7 8.7-7.1 19.8-11.3 33-12.7 8.7-.8 16.9-.2 24.5 1.9 7.7 2.1 13.9 5.3 18.7 9.8 4.8 4.4 7.4 9.5 8 15.2.9 8.7-3.1 16.6-11.8 23.7zm0 0" fill="rgba(0,0,0,1)"/><path d="M85.6 101.7c-6.3-1.6-12.6-1-18.8 1.7-6.2 2.7-10.7 6.9-13.5 12.4-2.8 5.7-3 11.3-.6 16.8s6.8 9.3 13.2 11.3c6.6 2.1 13.3 1.8 20-1.1 6.7-2.9 11.4-7.3 14.1-13.4 2.7-6 2.6-11.6-.2-17-2.8-5.4-7.6-9-14.2-10.7zm-9.5 29c-1.3 2-3.2 3.4-5.6 4.2-2.4.8-4.6.7-6.7-.2-2-1-3.3-2.5-3.8-4.5-.5-2.1-.1-4.1 1.2-6.1s3-3.3 5.4-4.1c2.3-.8 4.5-.7 6.5.1 2.1.9 3.4 2.4 4 4.5.5 2 .2 4.1-1 6.1zm8.4-10.8c-.4.8-1.1 1.3-2 1.7-.9.3-1.8.3-2.6 0-1.8-.8-2.2-2.2-1.2-4 .4-.8 1.1-1.3 1.9-1.7.9-.3 1.7-.3 2.6 0 .8.3 1.3.9 1.6 1.7.2.7.1 1.5-.3 2.3zm0 0M143.5 80.6c.7 1.3 1.7 2.2 3 2.6 1.4.4 2.7.3 4-.4 1.3-.7 2.2-1.7 2.6-3 1.1-3.3 1.3-6.8.6-10.5-.7-3.7-2.4-6.9-4.9-9.7-2.5-2.8-5.5-4.8-9-5.9-3.5-1.1-7.1-1.3-10.6-.5-1.4.3-2.5 1.1-3.3 2.3-.8 1.2-1 2.6-.7 4 .2 1.4 1 2.5 2.2 3.3 1.3.8 2.6 1 4 .7 3.8-.8 6.9.3 9.6 3.1 2.6 2.9 3.3 6.2 2.1 9.9-.4 1.5-.3 2.9.4 4.1zm0 0" fill="rgba(0,0,0,1)"/><path d="M175.1 65c-1.5-7.5-4.9-14.2-10.1-19.9-5.2-5.8-11.4-9.8-18.6-12-7.2-2.2-14.5-2.6-21.8-1-1.7.4-3 1.2-3.9 2.6-.9 1.4-1.2 2.9-.8 4.6.4 1.7 1.2 3 2.7 3.9 1.4.9 3 1.2 4.6.9 5.2-1.1 10.4-.8 15.5.8s9.5 4.4 13.2 8.5c3.7 4.1 6.1 8.8 7.2 14.1 1.1 5.4.8 10.5-.9 15.4-.5 1.6-.3 3.2.5 4.7s2 2.5 3.6 3 3.2.4 4.7-.4 2.5-2 3-3.6c2.2-6.9 2.6-14.1 1.1-21.6zm0 0" fill="rgba(0,0,0,1)"/></svg>
