<?xml version="1.0" encoding="UTF-8"?>
<svg xmlns="http://www.w3.org/2000/svg" viewBox="0 0 192 192"><path d="M97.7 16c-43.2 0-78.3 34.8-78.3 77.7 0 14 3.8 27.7 11 39.7L16 176l44.3-14.1c11.4 6.2 24.4 9.5 37.5 9.5 43.2 0 78.3-34.8 78.3-77.7C176 50.9 140.9 16 97.7 16zM46.8 130.3c-7.8-10.7-12-23.3-12-36.5 0-34.4 28.2-62.3 62.8-62.3s62.8 27.9 62.8 62.3c0 34.3-28.2 62.3-62.8 62.3-12.3 0-24.3-3.6-34.6-10.3l-.4-.3-23.1 7.4 7.5-22.2-.2-.4zm21.1-32.9c9.1 13.3 20.4 23.1 31.8 27.6 11.1 4.3 15.8 5.3 18.5 5.3 1.2 0 2-.2 2.8-.4.4-.1.9-.2 1.4-.3 3.5-.3 11.6-4.5 13.4-9.4 1.5-4.2 1.7-8.4 1-9.6-.5-.9-1.5-1.4-3.1-2.1l-.9-.4c-1.6-.8-11-5.4-12.8-6-1.5-.5-3.6-1.3-5.3 1.3-1.1 1.6-4.3 5.4-5.8 7.1-.7.8-1.3 1-2.9.2-.3-.2-.8-.4-1.3-.6-2.7-1.2-7.6-3.3-13.4-8.4-5.5-4.9-9.2-10.8-10.2-12.6-.7-1.2-.3-1.6.7-2.6.6-.6 1.2-1.4 1.9-2.2.3-.4.7-.8 1-1.1.9-1 1.2-1.8 1.7-2.7l.3-.6c.6-1.3.6-2.6-.2-4.1-.3-.6-2.1-5-3.6-8.5-.8-2-1.6-3.9-2.2-5.2-1.5-3.6-3.2-3.8-4.7-3.7-.7 0-1.3 0-1.9-.1-.6 0-1.3-.1-2-.1-1 0-3.5.3-5.7 2.6l-.3.4c-1.9 2-6.4 6.8-6.4 15.7 0 8.5 5.4 16.6 7.8 19.7.1.3.2.5.4.8z" fill="rgba(0,0,0,1)"/></svg>
