<?xml version="1.0" encoding="UTF-8"?>
<svg xmlns="http://www.w3.org/2000/svg" viewBox="0 0 192 192"><path d="M16 16v160h160V16H16zm152 8v24H24V24h144zM24 168V56h144v112H24zM160 40h-8v-8h8v8zm-16 0h-8v-8h8v8zM96 64c-26.5 0-48 21.5-48 48s21.5 48 48 48 48-21.5 48-48-21.5-48-48-48zm39.8 44h-11.9c-.6-12.3-3.7-23.2-8.6-31 11.2 6.2 19.2 17.6 20.5 31zM92 72.8V108H76.1C77 90.8 83.6 76.4 92 72.8zm0 43.2v35.2c-8.4-3.6-15-17.9-15.9-35.2H92zm8 35.2V116h15.9c-.9 17.2-7.5 31.6-15.9 35.2zm0-43.2V72.8c8.4 3.6 15 17.9 15.9 35.2H100zM76.7 77c-4.8 7.9-8 18.7-8.6 31H56.2c1.3-13.4 9.3-24.8 20.5-31zm-20.5 39h11.9c.6 12.3 3.7 23.2 8.6 31-11.2-6.2-19.2-17.6-20.5-31zm59.1 31c4.8-7.9 8-18.7 8.6-31h11.9c-1.3 13.4-9.3 24.8-20.5 31z" fill="rgba(0,0,0,1)"/></svg>
