<?xml version="1.0" encoding="UTF-8"?>
<svg xmlns="http://www.w3.org/2000/svg" viewBox="0 0 192 192"><path d="M160 56h-8v-8h8v8zm-16-8h-8v8h8v-8zm7 84c0-10.5-8.5-19-19-19s-19 8.5-19 19 8.5 19 19 19 19-8.5 19-19zm-8 0c0 6.1-4.9 11-11 11s-11-4.9-11-11 4.9-11 11-11 11 4.9 11 11zm-4.1 43.4l2.6-.4 2.5-9.5c1.1-.4 2.1-.8 3.2-1.3l8.5 5 2.1-1.5c3.8-2.7 7.1-6 9.8-9.8l1.5-2.1-5-8.5c.5-1 .9-2.1 1.3-3.2l9.5-2.5.4-2.6c.4-2.3.6-4.6.6-6.9s-.2-4.6-.6-6.9l-.4-2.6-9.5-2.5c-.4-1.1-.8-2.1-1.3-3.2l5-8.5-1.5-2.1c-2.7-3.8-6-7.1-9.8-9.8l-2.1-1.5-8.5 5c-1-.5-2.1-.9-3.2-1.3l-2.5-9.5-2.6-.4c-4.6-.7-9.3-.7-13.9 0l-2.6.4-2.5 9.5c-1.1.4-2.1.8-3.2 1.3l-8.5-5-2.1 1.5c-3.8 2.7-7.1 6-9.8 9.8l-1.5 2.1 5 8.5c-.5 1-.9 2.1-1.3 3.2l-9.5 2.5-.4 2.6c-.4 2.3-.6 4.6-.6 6.9s.2 4.6.6 6.9l.4 2.6 9.5 2.5c.4 1.1.8 2.1 1.3 3.2l-5 8.5 1.5 2.1c2.7 3.8 6 7.1 9.8 9.8l2.1 1.5 8.5-5c1 .5 2.1.9 3.2 1.3l2.5 9.5 2.6.4c2.3.4 4.6.6 6.9.6s4.7-.2 7-.6zm-12.3-16.3l-2.2-.6c-2-.6-3.9-1.4-5.8-2.4l-2-1.1-7.8 4.6a30.5 30.5 0 0 1-4.4-4.4l4.6-7.8-1.1-2c-1-1.8-1.8-3.8-2.4-5.8l-.6-2.2-8.7-2.3c-.1-1-.1-2.1-.1-3.1s0-2.1.1-3.1l8.7-2.3.6-2.2c.6-2 1.4-3.9 2.4-5.8l1.1-2-4.6-7.8c1.3-1.6 2.8-3.1 4.4-4.4l7.8 4.6 2-1.1c1.8-1 3.8-1.8 5.8-2.4l2.2-.6 2.3-8.7c2.1-.2 4.2-.2 6.3 0l2.3 8.7 2.2.6c2 .6 3.9 1.4 5.8 2.4l2 1.1 7.8-4.6c1.6 1.3 3.1 2.8 4.4 4.4l-4.6 7.8 1.1 2c1 1.8 1.8 3.8 2.4 5.8l.6 2.2 8.7 2.3c.1 1 .1 2.1.1 3.1s0 2.1-.1 3.1l-8.7 2.3-.6 2.2c-.6 2-1.4 3.9-2.4 5.8l-1.1 2 4.6 7.8a30.5 30.5 0 0 1-4.4 4.4l-7.8-4.6-2 1.1c-1.8 1-3.8 1.8-5.8 2.4l-2.2.6-2.3 8.7c-2.1.2-4.2.2-6.3 0l-2.3-8.7zM88 160H16V32h160v72.1l-1.9-2.6c-1.8-2.5-3.9-4.8-6.1-7V72H24v80h60l4 8zM24 64h144V40H24v24zm151.9 96l.1-.1-.1.1z" fill="rgba(0,0,0,1)"/></svg>
