<?xml version="1.0" encoding="UTF-8"?>
<svg xmlns="http://www.w3.org/2000/svg" viewBox="0 0 192 192"><path d="M34 176.1c-4.8 0-9.4-1.9-12.8-5.3-3.4-3.4-5.3-8-5.3-12.8s1.9-9.4 5.3-12.8l48-48 5.7 5.7-48 48c-1.9 1.9-3 4.5-3 7.2s1.1 5.3 3 7.2c1.9 1.9 4.5 3 7.2 3s5.3-1.1 7.2-3l48-48L95 123l-48 48c-3.6 3.3-8.2 5.1-13 5.1zM118.8 90.8l-5.6-5.6L142.3 56h11.3l12-21.8-7.8-7.8-21.8 12v11.3l-29.2 29.1-5.6-5.6L128 46.3V33.6l31.2-17 16.2 16.2-17 31.2h-12.7zM144 176c-17.6 0-32-14.4-32-32s14.4-32 32-32 32 14.4 32 32-14.4 32-32 32zm0-56c-13.2 0-24 10.8-24 24s10.8 24 24 24 24-10.8 24-24-10.8-24-24-24z" fill="rgba(0,0,0,1)"/><path d="M112.7 119.1l-52-52-2.6 1.3c-3.3 1.7-6.9 2.6-10.7 2.6C34.5 71 24 60.5 24 47.5c0-.6 0-1.2.1-1.8l9.1 9.1c2.9 2.9 6.7 4.5 10.8 4.5s7.9-1.6 10.8-4.5c2.9-2.9 4.5-6.7 4.5-10.8s-1.6-7.9-4.5-10.8l-9.1-9.1c.6 0 1.2-.1 1.8-.1C60.5 24 71 34.5 71 47.5c0 3.8-.9 7.3-2.6 10.7l-1.3 2.6 52 52c2.1-1.7 4.4-3.2 6.9-4.4L76.8 59.1c1.5-3.7 2.2-7.6 2.2-11.6C79 30.1 64.9 16 47.5 16c-3.8 0-7.6.7-11.1 2l-5.8 2.2 18.6 18.6c2.9 2.9 2.9 7.5 0 10.3s-7.5 2.9-10.3 0L20.2 30.6 18 36.4c-1.3 3.6-2 7.3-2 11.1C16 64.9 30.1 79 47.5 79c4 0 7.9-.7 11.6-2.2l49.2 49.2c1.3-2.5 2.7-4.8 4.4-6.9zM148 156c0 2.2-1.8 4-4 4s-4-1.8-4-4 1.8-4 4.1-4c2.1 0 3.9 1.8 3.9 4zm-8-20v-8h8v8l-1.3 12h-5.5l-1.2-12z" fill="rgba(0,0,0,1)"/></svg>
