<?xml version="1.0" encoding="UTF-8"?>
<svg xmlns="http://www.w3.org/2000/svg" viewBox="0 0 192 192"><path d="M34 176.1c-4.8 0-9.4-1.9-12.8-5.3-3.4-3.4-5.3-8-5.3-12.8s1.9-9.4 5.3-12.8l48-48 5.7 5.7-48 48c-1.9 1.9-3 4.5-3 7.2s1.1 5.3 3 7.2c1.9 1.9 4.5 3 7.2 3s5.3-1.1 7.2-3l48-48L95 123l-48 48c-3.6 3.3-8.2 5.1-13 5.1zM145.7 64h12.7l17.1-31.2-16.2-16.2-31.3 17v12.7l-26.8 26.8 5.7 5.7L136 49.7V38.4l21.8-11.9 7.8 7.8-12 21.7h-11.3l-29.2 29.2 5.7 5.7L145.7 64zm22.3 80c0 13.2-10.8 24-24 24-6.9 0-13.4-3-17.9-8h9.9v-8h-24v24h8v-10.8c6 6.8 14.8 10.8 24 10.8 17.6 0 32-14.4 32-32h-8zm0-32v10.8c-6-6.8-14.8-10.8-24-10.8-17.6 0-32 14.4-32 32h8c0-13.2 10.8-24 24-24 6.9 0 13.4 3 17.9 8H152v8h24v-24h-8zm-55.3 7.1l-52-52-2.6 1.3c-3.3 1.7-6.9 2.6-10.7 2.6C34.5 71 24 60.5 24 47.5c0-.6 0-1.2.1-1.8l9.1 9.1c6 6 15.7 6 21.7 0s6-15.7 0-21.7L45.8 24c.6 0 1.2-.1 1.8-.1C60.5 24 71 34.5 71 47.5c0 3.8-.9 7.3-2.6 10.7l-1.3 2.6 52 52c2.1-1.7 4.4-3.2 6.9-4.4L76.8 59.1c1.5-3.7 2.2-7.6 2.2-11.6C79 30.1 64.9 16 47.5 16c-3.8 0-7.6.7-11.1 2l-5.8 2.2 18.6 18.6c2.9 2.9 2.9 7.5 0 10.3s-7.5 2.9-10.3 0L20.2 30.6 18 36.4c-1.3 3.6-2 7.3-2 11.1C16 64.9 30.1 79 47.5 79c4 0 7.9-.7 11.6-2.2l49.2 49.2c1.3-2.5 2.7-4.8 4.4-6.9z" fill="rgba(0,0,0,1)"/></svg>
