<?xml version="1.0" encoding="UTF-8"?>
<svg xmlns="http://www.w3.org/2000/svg" viewBox="0 0 192 192"><path d="M96 16c-44.2 0-80 35.8-80 80s35.8 80 80 80 80-35.8 80-80-35.8-80-80-80zm0 134.9c-30.3 0-54.9-24.6-54.9-54.9 0-30.3 24.6-54.9 54.9-54.9 30.3 0 54.9 24.6 54.9 54.9 0 30.3-24.6 54.9-54.9 54.9z" fill="rgba(0,0,0,1)"/><path d="M82 135.2c-4 0-7.9-1.9-10.4-5.5-3.9-5.7-2.5-13.5 3.3-17.4l23.6-16.1-23.7-16.1c-5.7-3.9-7.2-11.7-3.3-17.4s11.7-7.2 17.4-3.3l38.8 26.4c3.4 2.3 5.5 6.2 5.5 10.4 0 4.1-2 8-5.5 10.4L89 133c-2.1 1.5-4.6 2.2-7 2.2z" fill="rgba(0,0,0,1)"/></svg>
